<svg xmlns="http://www.w3.org/2000/svg" viewBox="0 0 166.11 49.47"><defs><style>.cls-1{fill-rule:evenodd;}</style></defs><title>Asset 3</title><g id="Layer_2" data-name="Layer 2"><g id="Layer_1-2" data-name="Layer 1"><path class="cls-1" d="M21.67,48.67c-.26-.14-.54-.25-.6-.6a4,4,0,0,1-.6-.5c-.3-.43-.76-.7-1-1.19-.34-.22-.68-.45-1-.7,0-.25-.15-.31-.3-.4a8.43,8.43,0,0,0-.5-1.49,21.45,21.45,0,0,1,.3-5.17,14.75,14.75,0,0,0-2.88.3c-.88.18-1.66.29-2.68.5-1.81.48-3.3.79-5.07,1.39a23.2,23.2,0,0,0-4,5.27A13.31,13.31,0,0,1,3,48c.2.33.05,1,.1,1.49-.33-.07-.11-.68-.4-.8,0-.4-.29-.5-.4-.8a12.35,12.35,0,0,0-.7-1.59c-.35-.28-.84-.42-1.19-.7A21.45,21.45,0,0,1,0,43.3a13.24,13.24,0,0,0,.3-2.49c.23-1.06.58-2,.8-3.08.77-1.28,1.34-2.77,2.19-4,.27-.75.83-1.23,1.09-2A6.66,6.66,0,0,0,5.57,30,11,11,0,0,0,6.86,28.2c.48-.52.86-1.13,1.29-1.69s.94-1.12,1.29-1.79c.58-.41.8-1.19,1.39-1.59.13-.4.46-.6.7-.89a2.17,2.17,0,0,1,.7-.8c.1-.43.51-.55.7-.89s.39-.6.7-.8c1-1.07,1.84-2.2,2.88-3.18.09-.41.54-.54.8-.8s.42-.56.7-.8a20.22,20.22,0,0,1,1.49-1.49A9.52,9.52,0,0,0,21.07,12a8.31,8.31,0,0,0,1.49-1.49,15.57,15.57,0,0,0,2-1.39c.23-.07.27-.33.5-.4s.41-.12.4-.4c.4-.13.55-.51,1-.6a9.27,9.27,0,0,1,2-1.39c.66-.43,1.27-.92,1.89-1.39a6,6,0,0,1,1.19-.1c0,.08,0,.09.1.1.22,0,.32.21.5.3-.13.39.23.3.5.3-.19.37.06.25.3.4a1.16,1.16,0,0,0,.5.8c.19,0,0,.46.4.3a.65.65,0,0,0,.1.5c.4-.17.51-.62.89-.8.11-.42.5-.56.6-1a24.52,24.52,0,0,0,2.88-3,.7.7,0,0,1,.3-.2c1.11.09,1.53.85,2.39,1.19a1.36,1.36,0,0,0,.7,1c0,.65.47.79.4,1.49s-.48.85-.5,1.49c-.26.36-.36.9-.6,1.29a4.18,4.18,0,0,1-.6,1.39c0,.53-.32.61-.4,1.29-.18.15-.23.43-.4.6-.34,0-.06.61-.4.6-.1.53-.52.74-.6,1.29a.92.92,0,0,1-.4.6c0,.3-.21.39-.3.6-.15.48-.53.72-.7,1.19a11.45,11.45,0,0,0-.7,1.29c-.45.18-.37.89-.8,1.09a5,5,0,0,1-.7,1.29,8,8,0,0,0-.7,1.19,27.22,27.22,0,0,0-1.49,2.39,13,13,0,0,1-1.39,2.39c-.33,1-1.06,1.52-1.39,2.49-.58.72-.88,1.71-1.49,2.39-.82,1.74-1.79,3.31-2.58,5.07a61.38,61.38,0,0,0-4.57,10.74c-.07.47.11.68.1,1.09S21.91,48.42,21.67,48.67Zm2-26.14a.5.5,0,0,0-.3.3c-.33.17-.46.54-.7.8a4.07,4.07,0,0,0-.7.89,15.15,15.15,0,0,0-1.39,1.69l-.6.3c-.24.33-.35.78-.8.89.08.37-.26.34-.4.5s-.26.34-.3.6a6.19,6.19,0,0,0-1.29,1.19,7.52,7.52,0,0,0-1.09,1.49,6,6,0,0,0-1.19,1.39A3.57,3.57,0,0,0,13.72,34c1.88-.2,3.83-.34,5.77-.5.72-1.83,1.31-3.79,2.09-5.57.39-.87.76-1.76,1.19-2.58.26-.74.64-1.37.89-2,.1-.25.28-.47.2-.8Z"/><path class="cls-1" d="M165.55,15.83c-.62-.09-.94-.56-1.35-.56a6.32,6.32,0,0,1-1.57-.56c-.51-.05-.66-.46-1-.67-1.34-.23-2-1.15-3.48-1.23-.79-.78-2.23-.91-3.25-1.46-1.28-.25-2.41-.66-3.7-.9-.38-.08-.18.41-.45.45,0,.33-.25.34-.22.67a5.91,5.91,0,0,1-.56,1.12,9,9,0,0,1-1.12,2.24c-.05.55-.42.77-.56,1.23a4,4,0,0,1-.56,1.12c-.33.79-.76,1.48-1.12,2.24a15.63,15.63,0,0,0-1.23,2.24,11.81,11.81,0,0,0-1.23,2.13c-.59.53-.82,1.42-1.35,2a10.62,10.62,0,0,1-1.23,2.13c-1.57,3-3.2,5.92-4.82,8.86-.8,1.48-1.61,2.95-2.36,4.49-.4.72-.71,1.53-1.12,2.24-.07.49-.41.71-.45,1.23s-.14,1-.34,1.35c.18.53.24,1.18.67,1.46-.14.46-.33,0-.56-.11A1.58,1.58,0,0,1,132,47c-.36-.35-.65-.78-1-1.12a7.91,7.91,0,0,0-1.12-.67c-.71-.75-1.36-1.56-2-2.36-.2-.85-.3-1.79-.45-2.69.21-3.68,1.45-6.32,2.58-9.09s2.4-5.37,3.7-8c.7-1.24,1.34-2.55,2.13-3.7.27-.7.75-1.2,1-1.91a17.62,17.62,0,0,1,1.23-1.68,32.81,32.81,0,0,1,2.36-3.48,7.54,7.54,0,0,0,1.23-1.68A5,5,0,0,0,143,9.22a4.33,4.33,0,0,0-2.13-.34A31.22,31.22,0,0,0,137,8.21c-2.73,0-5.68-.24-7.85.56a6.39,6.39,0,0,0-1.91,3.48c-.48-.73-.18-1.4-.11-2.36,0-.35.08-.82-.11-1-.19,0,.12-.47,0-.78.08-.38-.23-.37-.34-.56a8.74,8.74,0,0,1,2.58-5,4,4,0,0,0,1.23-.79,23.06,23.06,0,0,1,7.4-1.57c.18,0,.19-.11.34-.11,1.51-.09,2.69.15,4.15.11,2.67.36,5.41.65,7.85,1.23s4.66,1.32,7,2c.8.51,1.72.9,2.58,1.35s1.58,1,2.36,1.57a13.91,13.91,0,0,1,3.81,3.93,32.47,32.47,0,0,1,.22,3.59,6.08,6.08,0,0,1-.22,1.12c.14.36-.36.09-.22.45S165.59,15.68,165.55,15.83Z"/><path class="cls-1" d="M62.92,27.91c0,.27.32.24.5.4s0,.23.1.3.24,0,.3.1,0,.28.1.4.5.42.6.6,0,.34.1.5.18.06.2.1,0,.22,0,.3a8,8,0,0,0,.4.7,10.85,10.85,0,0,1,.1,1.49,3.81,3.81,0,0,1,.3,1.59,2.69,2.69,0,0,1-.5,1.39,2.22,2.22,0,0,1-.6,1.19c-.27.92-1,1.38-1.39,2.19-.88.87-1.87,1.64-2.68,2.58a3.72,3.72,0,0,0-1,.7,2.56,2.56,0,0,0-.89.7c-.79.31-1.35.84-2.09,1.19a35.43,35.43,0,0,1-4.37,2.19,36.12,36.12,0,0,1-10.64,2.19A21.88,21.88,0,0,1,33,47.59a15.82,15.82,0,0,0-1.29-1c-.36-.57-.71-1.14-1.09-1.69a5.91,5.91,0,0,0-.4-1c0-.43-.48-.44-.4-1-.11-.36-.7-.22-.89-.5a30.79,30.79,0,0,1-.6-3.28c0-.94.44-2,.5-3.18a6.72,6.72,0,0,0,.89-2.19c.52-.5.64-1.41,1.09-2a15,15,0,0,1,1.09-2,10.81,10.81,0,0,1,1.19-1.89c.13-.4.38-.68.5-1.09.31-.19.18-.81.6-.89.08-.94.78-1.28,1-2.09a18.29,18.29,0,0,1,1.09-2,6.7,6.7,0,0,1,1.29-1.79c.13-.93.78-1.34,1.09-2.09A17.9,17.9,0,0,1,40,16.18a3.26,3.26,0,0,1,.7-.89c.26-.25.06-.67.6-.8.08-.45.46-.6.6-1,.27-.22.37-.62.7-.8.81-1.28,1.88-2.29,2.78-3.48S47,6.77,47.91,5.64c.45-.09.56.17.89.2a1,1,0,0,1,.8-.1c.41.13.59,1,1.19.6a1.53,1.53,0,0,0,.89,1.09c-.07.7.57.69.6,1.29,0,.77-.51.95-.5,1.69-.27.09-.23.5-.3.8a.61.61,0,0,0-.3.7c.32.25.6-.39,1-.4a3.64,3.64,0,0,1,1-.6c.66-.4,1.38-.74,2.09-1.09a37.06,37.06,0,0,1,4.27-2,46.11,46.11,0,0,1,9.54-3.18c.72-.05,1.12.21,1.79.2a12.38,12.38,0,0,1,1.79,1.29,1.69,1.69,0,0,0,.5.8c-.07.78.51,1.38.3,2,0,.35.35.38.4.7s.11.61.3.8a15.49,15.49,0,0,1,.3,1.89,13.46,13.46,0,0,0-.1,1.69c-.69,3.55-2.65,5.83-4.57,8.15A32.81,32.81,0,0,1,62.92,27.91ZM69.28,9.52c-1.7.29-3,1-4.77,1.19a13.74,13.74,0,0,1-2.78,1c-.93.36-1.76.83-2.68,1.19-1.69.89-3.44,1.73-5.07,2.68a25.45,25.45,0,0,0-4.47,3.18c-1.66.93-2.73,2.44-4.27,3.48.07.27-.21.19-.3.3-.65,1.44-1.57,2.6-2.19,4.08a1.69,1.69,0,0,0,1.49-.4c.11.19.07.53.5.4,1.09-.06,2.06-.26,3.18-.3,1.54-.61,3.15-1.15,4.57-1.89s2.94-1.44,4.37-2.19c.63-.46,1.34-.84,2-1.29.86-.23,1.2-1,2.09-1.19.53-.57,1.34-.85,1.89-1.39a9.36,9.36,0,0,0,.89-.7,1.49,1.49,0,0,1,1-.7c.13-.43.5-.62.8-.89s.46-.67.89-.8A10.72,10.72,0,0,1,68,13.5a14.54,14.54,0,0,1,1.39-2.29c-.05-.42.17-.56.2-.89s.25-.75-.2-.8ZM58.05,31.88c-.37,0-.88-.08-1.09.1-.48.09-.79-.27-1,.1-.93-.07-1.48.25-2.39.2a18.06,18.06,0,0,1-3.48.8,25.43,25.43,0,0,1-3.48.89c-1,.39-2.21.64-3.28,1S41.43,36,40,36a3.14,3.14,0,0,1-1.19-3.18c-.31,0-.31.35-.4.6a.7.7,0,0,0-.4.6c-.49.21-.42,1-.89,1.19-.16.54-.6.79-.8,1.29a13.83,13.83,0,0,0-.8,1.29c-.21.49-.64.75-.8,1.29a.7.7,0,0,0-.4.6c-.25.12-.3.43-.4.7-.28.42-.5.89-.8,1.29,0,.55-.64,1-.5,1.39,5.59.71,10.47-.79,14.91-2.09a27.52,27.52,0,0,0,3.18-1.19,15.76,15.76,0,0,0,1.59-.6c.45-.31,1.1-.42,1.49-.8.6-.12.92-.54,1.49-.7.34-.39,1-.51,1.29-.89,1.06-.43,1.7-1.28,2.78-1.69,0-.44.52-.35.6-.7.26-.21.42-.5.7-.7.42-.47,1-.82,1-1.69A14.21,14.21,0,0,0,58.05,31.88Z"/><path class="cls-1" d="M102.3,23.81h-.11c-.08.41.19.41.11,0,.42-.18.4-.79.67-1.12a8.26,8.26,0,0,0,.56-1.23c.16-.44.59-.61.56-1.23.23-.07,0-.57.45-.45a.92.92,0,0,1,.22-.67c.5-.69.8-1.59,1.35-2.24.34-.25.4-.79.67-1.12s.52-.75.78-1.12a59.24,59.24,0,0,1,6.28-8.3,3.46,3.46,0,0,1,.9-1.46c1.1,0,1.86,1,2.8,1.46.33.53.91.81,1.23,1.35a1.91,1.91,0,0,1,1,1.68c.17.31-.26.82-.45,1.12a5.08,5.08,0,0,1-.67,1.23,22.66,22.66,0,0,0-1.23,2.58c-.2.36-.63.5-.67,1-.31.29-.38.82-.79,1-.08.52-.44.76-.56,1.23-.28.32-.33.87-.79,1a2.53,2.53,0,0,1-.56,1.35c-.24.43-.44.9-.67,1.35s-.4.87-.67,1.23c-.16.51-.65.69-.67,1.35a10.79,10.79,0,0,0-1.35,2.58,7.72,7.72,0,0,0-.67,1.23c-.13.54-.52.82-.67,1.35a4.14,4.14,0,0,1-.22.67c-.1.2-.36.39-.45.56-.23.45-.36,1-.56,1.46L107.57,33c-.2.48-.52,1-.67,1.35a8.29,8.29,0,0,0-.22,1.12c0,.07-.19.23-.22.34-.16.53-.29,1-.45,1.57a15.3,15.3,0,0,0-.67,3.25c2-.31,2.81-1.83,4-2.92.53-.63,1-1.36,1.46-2a9.74,9.74,0,0,1,.67-1c.14-.46.66-.54.67-1.12.64-.52.8-1.52,1.46-2A7.08,7.08,0,0,1,115,29.41a6.24,6.24,0,0,1,1.35-2.13,6.78,6.78,0,0,1,1.35-2.13,47.56,47.56,0,0,1,2.69-4.26c.35-.81,1-1.36,1.35-2.13s.94-1.38,1.46-2a48,48,0,0,1,3-3.93,13.65,13.65,0,0,0,1.57-1.91c.75-.56.49-1.5,1.57-1.79.32.05.62.13.67.45.53-.12.3.52.79.45s.4.34.56.56.5,0,.78.22c-.06.29-.15.39.11.56.35-.05.54.14.34.34.23.07.36.24.56.34-.08.38.46.14.34.56a.73.73,0,0,0,.11.56c-.15.89-.74,1.36-1,2.13a2.38,2.38,0,0,1-.56,1,2.63,2.63,0,0,1-.56,1.12,47,47,0,0,1-1.91,4.6c-1,1.21-1.47,2.87-2.47,4A42,42,0,0,1,124.51,30a28.45,28.45,0,0,1-2.8,3.7c-.48.6-1,1.16-1.46,1.79-.23,0-.22.3-.34.45s-.38.15-.45.34a1.85,1.85,0,0,1-.78.9,10.62,10.62,0,0,1-1.46,1.79,8.69,8.69,0,0,1-1.57,1.68,27.91,27.91,0,0,1-3.25,3.25,13.7,13.7,0,0,1-4.49,2,5.47,5.47,0,0,1-1.91-.34,30.9,30.9,0,0,1-3-2.8,9.75,9.75,0,0,1-1.46-1.46,5.94,5.94,0,0,1-1.57-1.46,7.59,7.59,0,0,0-.56-1.79c.07-1.39-.1-2.1,0-3.93.11-1.29.53-2.42.56-3.48a1.84,1.84,0,0,0,.22-.79c.29-.08-.08-.83.34-.78.14-.68.22-.8.34-1.57.14-.19.38-.29.34-.67a.64.64,0,0,0-.34.67c-1.35,2.47-2.52,5.11-4.26,7.18a44.86,44.86,0,0,1-5.16,6.39c-.38.55-1,.91-1.35,1.46-.75.22-.94,1-1.57,1.35-.47.5-1.12.82-1.57,1.35-.77.2-1.08.86-1.91,1a3.25,3.25,0,0,0-.79.56c-.2.28-.74.24-.9.56a12.06,12.06,0,0,0-2,.9,21.92,21.92,0,0,1-4.71,1.12h-.67c-1,0-1.64-.38-2.58-.45,0-.42-.54-.21-.56-.56-.37,0-.38-.36-.79-.34a10.34,10.34,0,0,0-3.59-2.8A7.93,7.93,0,0,1,66.52,41a32,32,0,0,1,2.36-12.79c.35-.92.73-1.81,1.12-2.69a21,21,0,0,1,1.35-2.58,10.67,10.67,0,0,1,1.35-2.47A27,27,0,0,0,74.15,18a47.12,47.12,0,0,1,3.93-4.71c-.08-.42.29-.38.45-.56.46-.63,1.11-1.06,1.57-1.68.82-.63,1.57-1.35,2.36-2a31.42,31.42,0,0,1,5.16-3.48,23.65,23.65,0,0,1,2.8-1.46c.6-.12,1-.42,1.57-.56a16,16,0,0,1,1.68-.56c.84.1,1,.88,1.79,1a1.6,1.6,0,0,1,.34.79C97,5,97.41,6,98.38,6.53a7.34,7.34,0,0,0,1.12,1,5.33,5.33,0,0,0,1.12,1.12,12.21,12.21,0,0,0,1,1.68,7.81,7.81,0,0,0,.79,1.91,26.5,26.5,0,0,1,.9,4.6,10,10,0,0,0-.11,2.24A42.38,42.38,0,0,1,102.3,23.81ZM76.06,42.42a33.43,33.43,0,0,0,3.81-2.69,19.61,19.61,0,0,0,3.25-3.25c.54-.54,1-1.13,1.57-1.68A16.1,16.1,0,0,0,86,32.89c1.07-1.1,1.83-2.5,2.8-3.7.7-1.47,1.75-2.59,2.36-4.15a43.58,43.58,0,0,0,2.13-4.37c.51-1.66,1.08-3.26,1.46-5,.13-.81.08-1.79.22-2.58,0-.3-.34-.93-.11-1.35h-.22a.57.57,0,0,0-.34.34,10.71,10.71,0,0,0-1.79,1.91c-.3,0-.24.35-.56.34.12.42-.42.18-.34.56a2.54,2.54,0,0,0-.9,1c-1.37,1.14-2.28,2.73-3.48,4-.41.82-1,1.46-1.46,2.24a23,23,0,0,0-1.35,2.36A11.66,11.66,0,0,0,83,30.31a18.46,18.46,0,0,0,.9,2.69c-.71-.22-.91-1-1.35-1.46-.57-.18-.93-.57-1.46-.78a17,17,0,0,1-1.23-1.91,6.67,6.67,0,0,0-.45-1.12c-.33-.23-.24-.88-.79-.9-.1.39-.45.52-.56.9s-.31.74-.67.9c.2.28-.33.59-.45.9a2.24,2.24,0,0,1-.56,1,1.36,1.36,0,0,1-.56.9,10.26,10.26,0,0,0-.45,1.12c-.5.55-.67,1.43-1.12,2-.16.85-.73,1.29-.9,2.13-.4.65-.55,1.54-.9,2.24a23.77,23.77,0,0,0-1.23,4.94C73.26,44.23,74.59,43,76.06,42.42Zm26-17.95s-.17.05-.11.11S102.14,24.54,102.08,24.48Z"/></g></g></svg>