<svg xmlns="http://www.w3.org/2000/svg" viewBox="0 0 345.6 52"><defs><style>.cls-1{fill-rule:evenodd;}</style></defs><title>Asset 8</title><g id="Layer_2" data-name="Layer 2"><g id="Layer_1-2" data-name="Layer 1"><path class="cls-1" d="M26.89.1c0-.1.13-.08.21-.1A5.07,5.07,0,0,1,29,.92c.48.45,1.09.76,1.54,1.23.61.25,1.18.53,1.74.82A15,15,0,0,1,35.41,7.9a25.86,25.86,0,0,1,.51,6.46,40,40,0,0,1-1.23,6.36c-.66,1.87-1.2,3.86-1.95,5.64-.26,1-.86,1.67-1.13,2.67-.35,0-.06.62-.41.62,0,.29-.19.43-.21.72-.37.25-.41.82-.72,1.13a48.28,48.28,0,0,1-2.87,4.62,3.48,3.48,0,0,1-.82,1.13c-.1.21-.21.41-.31.62s-.39.23-.41.51c-.56.7-1,1.5-1.64,2.15s-1.15,1.38-1.64,2.15a17.67,17.67,0,0,1-1.74,2.05,32.47,32.47,0,0,1-3.9,3.69c-.46.19-.63.67-1.13.82a7.36,7.36,0,0,1-1.13.72c-.33.29-1,.22-1.23.62-.42.19-.73.5-1.13.72-.92.21-1.77.49-2.67.72C8.89,52,8,51.54,7.4,51.7c-.38-.07-.48-.41-.82-.51-.28-.31-.55.31-.82,0-.08-.4-.5-.46-.72-.72a7,7,0,0,0-.62-.82A19.65,19.65,0,0,1,3.3,48c-.74-1.11-1.4-2.29-2.05-3.49A36.33,36.33,0,0,1,0,36.62a22.73,22.73,0,0,1,1-7.8c.37-1.17.81-2.27,1.23-3.38s.92-2.09,1.44-3.08a11,11,0,0,1,.82-1.44c0-.41.25-.5.41-.72-.07-.45.3-.46.31-.82A26,26,0,0,1,7,16.62a8.25,8.25,0,0,1,.92-1.44c.37-.39.6-.91.92-1.33s.57-.93,1-1.23c.15-.6.74-.77.92-1.33a26,26,0,0,0,2.15-2.36c.27-.11.35-.41.62-.51.06-.32.48-.27.51-.62.46-.29.72-.79,1.23-1a15.14,15.14,0,0,1,2.46-2.05,27.31,27.31,0,0,1,2.67-1.85,23.34,23.34,0,0,1,3-1.54A18.18,18.18,0,0,1,26.69.1Zm1.23,5.95a.72.72,0,0,0-.31.21c-.48.17-.62.68-1.13.82a.51.51,0,0,1-.51.41c0,.36-.35.34-.41.62-.32.33-.81.49-1,.92-.4.25-.62.68-1,.92A48.75,48.75,0,0,0,20,14.05c-.13.52-.64.66-.72,1.23-.35.3-.5.8-.82,1.13-.4.9-.95,1.65-1.33,2.56a19.18,19.18,0,0,0-1.64,6.15,17.83,17.83,0,0,0,.82,4.51c-.2,0-.19-.29-.51-.21,0,.42.18.76.1,1a5.48,5.48,0,0,1-.72-1c-.13-.18-.61,0-.62-.31-.49-1-1.27-1.74-1.74-2.77-.26-.28-.62-.47-.82-.82-.3-.52-.39-1.25-.92-1.54a57.5,57.5,0,0,0-4.41,8.21A23.69,23.69,0,0,0,4.63,42.47a6.13,6.13,0,0,1,.21,1.44,2.61,2.61,0,0,1,.41,1.33,6.42,6.42,0,0,1,.51,1.33c1.67.66,2.56-1,3.8-1.44.35-.54,1-.81,1.33-1.33.57-.35.9-.94,1.54-1.23.16-.56.72-.72.92-1.23.47-.25.62-.82,1-1.13.59-.88,1.28-1.66,1.85-2.56A20.38,20.38,0,0,0,18,35.08a2,2,0,0,0,.41-.62c.07-.31.45-.3.41-.72.47-.28.41-1.09,1-1.23.34-1.27,1.24-2,1.64-3.18.42-.37.56-1,.92-1.44.25-.57.56-1.08.82-1.64.55-1.05,1-2.17,1.54-3.28a12.94,12.94,0,0,1,.72-1.74,1.5,1.5,0,0,1,.31-.92c.12-.29.14-.68.41-.82a25.34,25.34,0,0,1,.92-3.18c.29-1.11.5-2.3.82-3.38.1-1.33.33-1.95.41-3a5.35,5.35,0,0,0,.1-1.44c.07-.74,0-1,.1-1.64-.2-.14-.06-.63-.21-.82Z"/><path class="cls-1" d="M67.51.31c.49,0,.73.23,1.13.31s.44.52.82.62a5.49,5.49,0,0,0,.82.62c.54.42.94,1,1.44,1.44.11.3.1.72.31.92,0,4.07-1.89,6.25-3.18,9a25.36,25.36,0,0,1-1.44,2.56c-.79,1.91-1.84,3.56-2.77,5.33-.25.43-.51.86-.72,1.33s-.62.75-.72,1.33c-.72.62-.95,1.72-1.54,2.46-1.95,3.46-4,6.85-5.85,10.36s-3.84,7-5.54,10.67a5.27,5.27,0,0,0-.92,1.33c-.33,0-.2.55-.41.72a4.28,4.28,0,0,0-.41.62c-.57,0-.48-.61-.82-.82s-.46-.56-.72-.82c-.43-.15-.69-.47-1.23-.51,0-.62-.36-.8-.51-1.23a14,14,0,0,1-1.13-1.33c0-.23,0-.39-.21-.41a37.42,37.42,0,0,1-1.23-9.23,18.7,18.7,0,0,1-.21-5.23c-.23-1.39.46-3.31-.1-4.72-.41.31-.47,1-.82,1.33s-.51.93-.72,1.44c-.56.88-.94,1.93-1.54,2.77-1,1.89-2,3.78-2.87,5.74-.46,1-.89,2-1.33,3-.12.27-.31.47-.41.72s-.09.54-.21.82-.31.48-.41.72-.06.54-.31.72c-.39,1-.69,2.18-1.13,3.18a8.21,8.21,0,0,1-.41,1.74,2,2,0,0,1-.51,1.64c-.35-.11-.46.13-.72.1-.09,0-.34-.5-.51-.1-.53,0-.35-.74-.72-.92-.6.09-.63-.39-1-.51a13.57,13.57,0,0,0-.92-1.64,17.38,17.38,0,0,0-.21-1.74,31.47,31.47,0,0,1,.62-4.82,37.59,37.59,0,0,0,1.13-4.21c.5-.9.74-2.07,1.23-3s.86-1.94,1.23-3c.52-.88.88-1.92,1.33-2.87s.94-1.86,1.33-2.87c.37-.35.39-1,.72-1.44.1-.58.53-.83.62-1.44a21.52,21.52,0,0,1,1.44-2.77A6.75,6.75,0,0,1,38,16.82c.36-.32.34-1,.72-1.33.11-.57.51-.86.72-1.33A6.55,6.55,0,0,0,40,12.72a8.3,8.3,0,0,0,1-1.44c.18-.23.27-.55.51-.72A1.12,1.12,0,0,1,42,9.85,31.61,31.61,0,0,1,43.92,7c.28-.55.86-.79,1-1.44.48-.31.62-1,1-1.33a7.08,7.08,0,0,0,.92-1.44c.29-.12.23-.59.51-.72,0-.35.54-.21.62-.51.28-.25.36.32.82.2s.52.24.92.21c0,.1.13.08.21.1.47.45,1.12.73,1.44,1.33a6.38,6.38,0,0,1,1.44,1.33,15.65,15.65,0,0,1,0,3.59c-.7,3.51-1.83,6.58-2.46,10.15-.33,1.76-.69,3.48-.92,5.33-.4,1.68-.53,3.65-1,5.23.06,1.57-.43,2.65-.41,4.41a31.23,31.23,0,0,0-.31,4.62c.52-.09.41-.82.72-1.13.07-.51.36-.81.41-1.33.33-.29.38-.85.62-1.23A3.81,3.81,0,0,1,50,33.13c.57-1.79,1.46-3.26,2.15-4.92.27-.6.63-1.17.92-1.85,1.11-2.53,2.56-5.12,3.8-7.69A33.65,33.65,0,0,1,59.31,14c.38-.82.81-1.58,1.23-2.36a14.51,14.51,0,0,1,1.33-2.15c.66-1.7,1.83-2.89,2.46-4.62A38.29,38.29,0,0,1,67.2.62.52.52,0,0,1,67.51.31Z"/><path class="cls-1" d="M136.54.82c1.18.08,1.64.89,2.46,1.33a4.64,4.64,0,0,1,1.54,2.05c-.66,2.38-2.06,4-2.87,6.26-1.09,1.92-1.95,4.07-3,6.05-.52,1-1,2-1.54,3-.26.49-.49,1-.72,1.54a9.57,9.57,0,0,0-.82,1.44c-1.06,1.95-2,4-3.08,5.95-2,4.05-4.09,7.94-6.05,12-1.1,1.91-2.16,3.85-3.28,5.74a25.47,25.47,0,0,1-1.95,2.56c-.31.44-.69.82-1,1.23s-.62.88-1.44.82-.3-.65-.72-1a7.62,7.62,0,0,1-1.33-1c-.06-.25-.09-.53-.41-.51-.16-.31-.06-.9-.51-.92a6.92,6.92,0,0,0-.41-.92c-.26-.66-.41-1.44-.72-2.05a6.29,6.29,0,0,0-.31-2.05,8.17,8.17,0,0,0-.21-2.26c.08-1.53,0-2.44,0-4.1.09-2.13.39-4.05.51-6.15s.74-3.71.72-5.95c-.26-.23-.42.26-.51.51-.28.13-.3.52-.51.72a10.81,10.81,0,0,1-.92,1.44,29.35,29.35,0,0,1-1.74,3.08c-1.12,2.06-2.33,4-3.28,6.26a33.18,33.18,0,0,0-1.54,3.28,28.15,28.15,0,0,0-1.54,3.28c-1,2.16-1.46,4.9-2.36,7.18-.36,0-.34-.35-.62-.41-.18.19-.51,0-.41-.41a.72.72,0,0,0-.62-.41c-.19-.15-.15-.53-.51-.51a3.21,3.21,0,0,0-.72-1.44c-.07-.86-.22-1.63-.31-2.46.46-2.42.66-5.08,1.44-7.18a15.24,15.24,0,0,1,1.13-3.18c.23-1.17.82-2,1.13-3.08.91-2,1.7-4,2.67-5.95a19,19,0,0,1,1.44-2.87c.06-.66.49-.95.62-1.54a8.29,8.29,0,0,0,.62-1.44,6.9,6.9,0,0,0,.82-1c.2-.24.2-.69.31-1a2.83,2.83,0,0,0,.62-1c.18-.34.49-.59.51-1a14.89,14.89,0,0,0,1.13-1.95c.88-1.2,1.58-2.6,2.56-3.69a2.31,2.31,0,0,1,.72-.92c.22-.29.29-.74.72-.82.07-.44.44-.59.72-.82a1.7,1.7,0,0,1,.62-.92c.22-.33.48-.61.72-.92.38-.13.33-.7.82-.72a4.52,4.52,0,0,1,1.54-1.54c.59,0,.86.37,1.44.41.33.28.93.3,1.13.72.68.55,1.55.91,2.26,1.44A9.41,9.41,0,0,1,122.29,8c0,.73-.18,1.19-.1,1.95-.61,2.47-.88,5.27-1.54,7.69-.51,2.57-1.12,5-1.64,7.59-1.19,4.93-2.45,9.79-3.28,15.08.38,0,.31-.37.41-.62.25-.06.23-.39.31-.62a6.73,6.73,0,0,0,.62-1.33,3.21,3.21,0,0,0,.62-1.33,5.13,5.13,0,0,0,.62-1.33,52.43,52.43,0,0,0,2.36-5.33c.74-1.82,1.53-3.6,2.26-5.44a28.48,28.48,0,0,1,1.23-2.67c.06-.59.44-.86.62-1.33a2.93,2.93,0,0,1,.62-1.23c.07-.52.27-.89.31-1.44q.69-1,1.33-2.05c.34-.79.79-1.46,1.13-2.26a14,14,0,0,0,1.23-2.15A9.84,9.84,0,0,0,130.6,9a12.8,12.8,0,0,0,.62-1.13c.17-.38.53-.56.51-1.13a2.25,2.25,0,0,0,.72-1c.42-.13.33-.76.82-.82.5-.64.93-1.29,1.44-1.95.07-.09.25-.12.31-.2s0-.22.1-.31c.22-.3.48-.56.72-.92.11-.16.17-.46.41-.51A.72.72,0,0,1,136.54.82Z"/><path class="cls-1" d="M64.23,44.11c.69-.06.9-.6,1.54-.72.45-.31,1.07-.43,1.54-.72,1.11-.36,2.19-.75,3.28-1.13a19.77,19.77,0,0,1,7.69-1c0,.1.13.08.21.1.62.74.78,2,1.33,2.77-.21,1.09.28,1.52-.21,2.46a11.36,11.36,0,0,0-2.67.31,5.28,5.28,0,0,0-1.13.31,1.94,1.94,0,0,1-1.13.31c-.48.47-1.4.51-1.95.92-.37.11-.69.27-1,.41s-.75.21-.92.51a21,21,0,0,0-2.05.82,11,11,0,0,1-2.05.82c-1.21.5-3.16,1.2-4.62.51a9.58,9.58,0,0,0-1.54-3.18c-.07-.23-.2-.62,0-.82a1.45,1.45,0,0,1-.51-.92c-.15-.12-.12-.43-.41-.41,0-.2,0-.44-.31-.41a3.19,3.19,0,0,0-.21-1.23c.15-.85,0-1.45.1-2.26a12.19,12.19,0,0,0,.31-2.15,9.6,9.6,0,0,0,.72-2.77c.41-.68.5-1.68.92-2.36-.05-.6.36-.74.41-1.23s.25-.85.41-1.23c.72-1.47,1.32-3.06,1.95-4.62a15.86,15.86,0,0,0,1-2.26c.33-.21.28-.81.51-1.13A3.48,3.48,0,0,0,66,22.67c.57-.53.7-1.49,1.33-1.95-.22-.35.25-.73.41-1s.29-.81.62-1c.31-.79.91-1.28,1.13-2.15.61-.49.78-1.41,1.23-2.05a23.85,23.85,0,0,0,1.23-2.05c.5-.59.84-1.35,1.33-1.95.34-.21.33-.77.62-1s.35-.74.72-.92a10.78,10.78,0,0,1,1.33-1.95c.37-.17.47-.63.72-.92s.33-.77.82-.82A8.66,8.66,0,0,1,78.8,3a6.68,6.68,0,0,1,.72-1.64.48.48,0,0,0,.1-.31c.38-.08.66.47.82,0a2,2,0,0,0,1.33.72c0,.36.45.23.51.51.23.12.34.34.62.41a5,5,0,0,1,.41.82c.25.26.68.35.82.72a6.44,6.44,0,0,1-.41,3.18,13.83,13.83,0,0,1-1.13,2.67,26.57,26.57,0,0,1-1.23,2.56,19.85,19.85,0,0,1-1.44,2.26c-.19,1.07-1,1.58-1.23,2.56-.52.71-.88,1.58-1.44,2.26-.82,1.68-1.93,3.06-2.67,4.82-1.12,1.37-1.74,3.25-2.77,4.72a11.2,11.2,0,0,1-.72,1.23,5.37,5.37,0,0,1-.62,1.23,1.91,1.91,0,0,1-.31.62c-.16.15-.08.53-.41.51a3.31,3.31,0,0,1-.62,1.23A51.16,51.16,0,0,0,66.59,39c-.57.7-.79,1.74-1.33,2.46C65,42.42,64.46,43.11,64.23,44.11Z"/><path class="cls-1" d="M200.65,1.33c-.12,0-.06-.15,0,0Z"/><path class="cls-1" d="M202.81,15.39c.55-.1.59-.71.92-1a10,10,0,0,1,.82-1.13c.33-.32.46-.84.92-1,.17-.48.6-.7.82-1.13s.74-.56.92-1a5.16,5.16,0,0,1,1-.92,11.05,11.05,0,0,1,1-.92c.45-.17.68-.55,1.13-.72a18.73,18.73,0,0,1,2.26-1.64c.9-.39,1.59-1,2.56-1.33A26.11,26.11,0,0,1,218,3.38,12.54,12.54,0,0,0,219.53,3c.38.07.44-.18.82-.1s.68.06.62-.31c.3.08.2.55.62.51s.42.54.62.82c.35,0,.43.32.72.41.06.28.43.26.41.62a1.14,1.14,0,0,1,.82.2q1.15,1.73,2.26,3.49A5.61,5.61,0,0,0,227,9.85c.15.25,0,.25.1.41.31.56.37,1.51.72,2.36.11,1.18.2,1.83.31,3.08a19.42,19.42,0,0,0-.1,1.95c-.3,1.14-.25,2.62-.72,3.59-.1.62-.27,1.17-.41,1.74s-.34,1.1-.62,1.54c-.12,1.32-1,1.9-1.13,3.18-.43-.06-.19.56-.41.72,0,.32-.22.46-.31.72a3,3,0,0,1-.82,1.33c0,.86-.5,1.21-.72,1.85a13.15,13.15,0,0,1-.92,1.54A32.43,32.43,0,0,1,220,36.93c-.12.32-.63.26-.51.82a1.63,1.63,0,0,0-.62.62c0,.37-.37.45-.51.72s-.3.52-.62.62c-.53,1.14-1.56,1.79-2.26,2.77-.21.2-.5.32-.72.51,0,.17-.27.24-.41.51a13.89,13.89,0,0,0-1.23,1.13c-1,.61-1.73,1.42-2.77,1.95a22,22,0,0,1-6.67,2.77,18.87,18.87,0,0,1-3.28-.21c-.29-.29-.73-.43-.92-.82-.38-.08,0-.36-.2-.51s-.52-.11-.31-.31c-.42-.16-.5-.67-.72-1-.34-.2-.49-.6-.72-.92v-.92a6.68,6.68,0,0,0-.72-2.05,10.49,10.49,0,0,0-.72-2.05,5.22,5.22,0,0,0-.1-1.44V35a37.07,37.07,0,0,1,1.54-8.1c.3-1,.55-1.8.92-2.77.55-1.42,1.18-2.95,1.85-4.31-.05-.29-.15.17-.2.2s-.07.34-.31.31c-.07.34-.39.43-.51.72-.24.58-.79.85-1,1.44a33.25,33.25,0,0,0-2.46,2.46c-.59.23-1,.68-1.54.92s-1.13.51-1.64.82a8.1,8.1,0,0,0-1.74-.31A4,4,0,0,0,189.06,25a.71.71,0,0,0-.82-.72c-.06-.23.2-.15.2-.31v-.51a1.38,1.38,0,0,0-.82-.72c-.66.06.13-.72-.41-.82.29-.33,1,.13,1.23-.1.66-.13.65-.92,1.13-1.23.16-.62.7-.87.92-1.44s.64-.93,1-1.33a8.92,8.92,0,0,1,1-1.33c.56-1,1.31-1.84,1.85-2.87.43-.35.61-1,1-1.33,0-.71.7-.81.62-1.64-.17-.32-.32.21-.51.21s-.36.19-.51.31a4.46,4.46,0,0,0-.92.72,18.51,18.51,0,0,0-1.95,1.44c-1.29,1-2.3,2.21-3.49,3.28-.21.37-.61.55-.82.92-.42.13-.41.69-.82.82-.29.29-.41.76-.82.92,0,.5-.61.49-.72.92q-1.41,1.92-3,3.69a2.86,2.86,0,0,1-.72,1c0,.26-.19.36-.31.51s-.12.43-.41.41A18.85,18.85,0,0,1,179.83,28a36.58,36.58,0,0,0-2.36,4.41,27.79,27.79,0,0,0-1.95,4.82,44.44,44.44,0,0,0-1.13,5.54,10.88,10.88,0,0,0,.1,2.26,6.05,6.05,0,0,0,1.85.41c.67,0,1-.39,1.74-.41.14-.1.38-.1.41-.31.18,0,.51.1.41-.21a1.85,1.85,0,0,0,.92-.41c.58-.31,1-.74,1.64-1,.45-.44,1-.82,1.44-1.23.3-.14.39-.5.82-.51a1.45,1.45,0,0,1,.62-.72c.51-.38.84-.94,1.33-1.33.66-.23.7-1.08,1.44-1.23.07-.38.38-.51.62-.72,0-.44.42-.47.62-.72.5-.36.63-1.08,1.44-1.13A2.18,2.18,0,0,1,190.6,37c0,.44.55.34.41.92a3.39,3.39,0,0,0,.41.92,9.52,9.52,0,0,0,.1,1.95,19.92,19.92,0,0,1-5.64,7c-2.44,1.74-4.75,3.59-9.13,3.38,0-.1-.13-.08-.2-.1q-3.57-1.35-4.21-5.64c-.25-.37-.77-.46-1-.82a8.35,8.35,0,0,0-.82-1.54c-.17-1.23-.56-2.24-.72-3.49V37.23a38.54,38.54,0,0,1,1.13-6.87,53.86,53.86,0,0,1,2.26-5.74,35,35,0,0,1,3-5,18.5,18.5,0,0,1,1.54-2.46c.51-.83,1.32-1.35,1.74-2.26a26.94,26.94,0,0,1,1.95-2.05,8,8,0,0,1,1.85-2.15,7.33,7.33,0,0,1,1-1,2.94,2.94,0,0,1,1-.92c0-.3.35-.33.51-.51a1.45,1.45,0,0,1,.51-.51c.22-.43.83-.47,1-.92.53-.15.73-.63,1.23-.82s.75-.55,1.13-.82a18.42,18.42,0,0,1,2.46-1.54,22.08,22.08,0,0,1,5.74-2.15c.82,0,1.39-.18,2.26-.1.37-.1,0,.5.51.31s.21.27.41.31a4.72,4.72,0,0,0,.92.51,10.14,10.14,0,0,0,1.13,1.44,13.61,13.61,0,0,1,1.23,1.33,12.63,12.63,0,0,0,.72,1.85A13.93,13.93,0,0,1,202.81,15.39ZM222,9.85c-1.33,1.1-2.55,2.3-3.8,3.49-.6.6-1.21,1.19-1.74,1.85a10,10,0,0,0-1.74,1.95c-.42.16-.44.72-.82.92,0,.33-.32.3-.41.51a2.1,2.1,0,0,1-.31.62c-.49.74-.92,1.54-1.44,2.26a17.73,17.73,0,0,0-1.85,5.44,9.6,9.6,0,0,1-.1,1.54,1.59,1.59,0,0,1,.21.82,4.72,4.72,0,0,1,.51.92c.11.38.5.63.31,1-.73-.36-1.1-1.08-1.74-1.54S208,28.53,207.42,28a4,4,0,0,1-2.05-.92c-1.77,4.37-4.15,8.62-3.49,15.08,1-.23,1.48-.92,2.46-1.13.3-.48,1-.58,1.33-1,.56-.22.85-.72,1.44-.92.29-.56.91-.8,1.23-1.33a1.2,1.2,0,0,0,.62-.62,2,2,0,0,0,.62-.72c.91-.83,1.61-1.87,2.46-2.77s1.39-2.1,2.05-3.18c.45-.4.6-1.11,1-1.54a7.52,7.52,0,0,0,1-1.64,18.53,18.53,0,0,0,2.05-3.18c.66-1.08,1.26-2.22,1.85-3.38.42-.92.79-2,1-2.67.12-.34.19-.67.31-1s.31-.52.41-.82c.39-1.14.39-2.16.72-3.28-.07-1.1.17-2.5-.2-3.28,0-.06,0-.12-.1-.1S222,9.71,222,9.85Zm-21,8.92c0-.06-.08-.12-.1,0S200.94,18.89,201,18.77Z"/><path class="cls-1" d="M200.65,1.33c.12,0,.06.15,0,0Z"/><path class="cls-1" d="M105.36,2.46c.2.26-.11.47.1.62s.31.3.31.62c.24,0,.44.1.51.31.35.08.43-.19.62,0,0,.27,0,.51.31.41-.09.5.35.48.41.82a2.63,2.63,0,0,1-.21,1.54c.2.38-.1,1-.21,1.44-.26,1-.7,1.83-1,2.77-.77,1.73-1.71,3.28-2.46,5a23.46,23.46,0,0,0-1.33,2.46c-.26,1-.94,1.52-1.23,2.46-1,1.51-1.89,3.1-2.77,4.72a108.33,108.33,0,0,0-5.33,9.74c-.94,1.55-1.67,3.32-2.56,4.92s-1.49,3.5-2.36,5.13a17.38,17.38,0,0,1-1,3.8c-.26.27-.43-.09-.51-.31-.29,0-.43-.19-.72-.21a6.91,6.91,0,0,0-1-.82c-.29-.63-.39-1.45-.92-1.85.06-.09.12-.18,0-.2a31.26,31.26,0,0,1-.1-4.21,34.39,34.39,0,0,1,1.13-5C85.37,35,86,33.5,86.49,31.9a18.53,18.53,0,0,0,.92-2.26c.28-.78.68-1.44.92-2.26.61-1.48,1.35-2.83,1.95-4.31s1.4-2.84,2.15-4.21c.27-.27.25-.84.51-1.13a4.5,4.5,0,0,0,.51-1,9,9,0,0,0,1-2.05c.52-.54.67-1.45,1.13-2.05a9.71,9.71,0,0,1,1.13-1.95,14.05,14.05,0,0,0,1.13-2.05A6.81,6.81,0,0,0,99.1,6.77c.45-.26.59-.84,1.13-1,0-.59.43-.8.51-1.33a9.33,9.33,0,0,1,1.74-1.64c.09-.43.52-.5.51-1,0-.09,0-.1.1-.1.29-.29.29.23.41.41C104.13,2.26,104.64,2.64,105.36,2.46Z"/><path class="cls-1" d="M152.14,5.13a57.32,57.32,0,0,1,7.69-1.33,16.61,16.61,0,0,1,3.49.21c0,.6.56.74.62,1.33a10.21,10.21,0,0,0,.62,1.33c.15.84-.21,1.3.1,2.05a76.25,76.25,0,0,0-8.82,1.85c-2.62.93-5.41,1.71-7.59,3.08-1.25,2.38-2.64,4.61-4,6.87s-2.77,4.48-3.9,7a24.59,24.59,0,0,1,8.1-.82c0,.49.4.56.41,1,.22.26.25.71.51.92a2.62,2.62,0,0,0,.31,1.23,4.32,4.32,0,0,0-.1,1.85,34.76,34.76,0,0,0-6.36,1.44,23.13,23.13,0,0,0-5.64,2.15c-.51-.09-.95.29-1.33,0a60.23,60.23,0,0,0-4.31,9.64c.21.24.52-.29.82-.31a2.65,2.65,0,0,0,.82-.41c.66-.2,1.2-.51,1.85-.72a28.64,28.64,0,0,1,3.9-1.13,47.28,47.28,0,0,1,8.62-1.44,4.27,4.27,0,0,1,.62.82c.15.31.17.68.31,1s.47.49.51.92c0,.21.07.27.1.41s0,.29.1.31c0,.29-.19.43-.21.72s.31.31.21.72c-2.88,1-6.57,1.22-9.33,2.36-1.54.41-2.9,1-4.41,1.44a8,8,0,0,1-2.05.82,4.47,4.47,0,0,1-2.26.62c0-.24-.45-.1-.51-.31-.41-.07-.29-.66-.51-.92a3.19,3.19,0,0,1-.72-.72c.05-.81-.15-.78-.31-1.44-.14-.13-.2-.31-.41-.1-.09-.15-.15-.33-.41-.31a2.57,2.57,0,0,0-.92-1.64,22.22,22.22,0,0,0-.62-2.46,12.91,12.91,0,0,0,0-1.74c0-1.26.39-2.21.51-3.38.52-1.16.62-2.71,1.33-3.9.38-1.4,1-2.58,1.44-3.9,1.07-2.49,2.26-4.86,3.38-7.28a.5.5,0,0,0,.21-.51c.1-.11.38,0,.31-.31s.35-.54.41-.92a11.06,11.06,0,0,0,.92-1.74,7.9,7.9,0,0,1,1-1.64,4.79,4.79,0,0,1,.51-.82c.07-.1,0-.22.1-.31a1.28,1.28,0,0,0,.41-.51c.59-1.19,1.25-2.31,1.85-3.49a8.45,8.45,0,0,0,1-1.64,4.26,4.26,0,0,0,1-1.64,13.38,13.38,0,0,0,2.05-2.77c.43-.25.59-.78,1.13-.92.81-1.72,2.34-2.72,3.59-4,0-.11.2-.07.21-.2a6.09,6.09,0,0,0,1.33.62A6.2,6.2,0,0,1,152.14,5.13Z"/><path class="cls-1" d="M258.61,1.54c.62-.11.67.36,1.13.41a4.16,4.16,0,0,0,.92.51,3.68,3.68,0,0,0,1,1c.21.67.7,1.07.82,1.85a6.91,6.91,0,0,1-.62,1.74,4,4,0,0,1-.62,1.64,14.82,14.82,0,0,1-1.33,3.18c-.39,1.12-.87,2.14-1.33,3.18a12.57,12.57,0,0,0-.72,1.54,10,10,0,0,0-.72,1.54c-.28.09-.36.39-.41.72a1.29,1.29,0,0,0-.41.72,10.79,10.79,0,0,0-.82,1.44,10.39,10.39,0,0,0-.82,1.44,5.93,5.93,0,0,0-.82,1.44c-.36.4-.49,1-.82,1.44s-.41,1.09-.82,1.44c-.43,1.08-1.08,1.93-1.54,3-.69.82-1,2-1.74,2.77a29,29,0,0,1-1.74,2.77c-.62.88-1.25,1.76-1.85,2.67s-1.16,1.85-1.95,2.56a13.89,13.89,0,0,1-1.95,2.56,8.52,8.52,0,0,1-1.13,1.13c0,.33-.43.33-.51.62-.41,0-.16.59-.62.51a18.32,18.32,0,0,1-2.36,2.15,10.65,10.65,0,0,0-1.33.92c-.46.29-1.09.41-1.44.82-1.47.38-2.67,1-4.72.82a3.63,3.63,0,0,1-1.13-1.54c-.73-.16-.86-.92-1.44-1.23-.35-.54-.58-1.2-1.13-1.54s-.59-1.12-1.13-1.44c0-.66-.43-.94-.62-1.44a22.11,22.11,0,0,1-.62-3.38,27.79,27.79,0,0,1,1.23-8.82c.31-1.4.88-2.54,1.23-3.9a9.63,9.63,0,0,0,.72-1.85,6.61,6.61,0,0,0,.72-1.85c.58-1.13,1-2.38,1.54-3.59s1.08-2.34,1.64-3.49c.13-.31.42-.47.41-.92a1.87,1.87,0,0,0,.51-.72,10.27,10.27,0,0,1,.92-1.64A30.89,30.89,0,0,0,234,9.44a8.43,8.43,0,0,0,1.44-1.95,6.87,6.87,0,0,0,1.44-1.95,20.87,20.87,0,0,0,1.54-1.85,3.48,3.48,0,0,1,1.44-1.85,4.6,4.6,0,0,1,1.23.62,4.17,4.17,0,0,0,1,.82c.24.38.73.5.92.92.45.16.43.8.72,1.13-.61,3.69-2.23,6.38-3.49,9.44-1.41,2.86-2.76,5.79-4.31,8.51-.65,1.5-1.32,3-2.05,4.41-.16.93-.7,1.48-.92,2.36-.45.61-.58,1.54-1,2.15-.44,1.71-1.36,2.95-1.64,4.82a19,19,0,0,0-1.33,5V43.8c.09.18,0,.51.21.62a.92.92,0,0,1,.41.41A4.53,4.53,0,0,0,231,44c.47-.28.67-.83,1.23-1,.64-.83,1.47-1.48,2.05-2.36.82-.69,1.31-1.7,2.05-2.46.52-1,1.22-1.72,1.74-2.67s1.18-1.83,1.64-2.87c.69-.78,1-2,1.64-2.77.42-1.09,1-2,1.44-3.08.18-.57.61-.9.72-1.54.36-.35.4-1,.82-1.33,0-.74.55-1,.62-1.64a14.13,14.13,0,0,0,.82-1.44c.33-.43.51-1,.82-1.44,0-.67.6-.83.72-1.44a2,2,0,0,0,.41-.72c.12-.26.29-.46.41-.72,0-.72.8-.71.82-1.44a30.61,30.61,0,0,0,1.74-2.67c.23-.53.7-.81.82-1.44a11,11,0,0,0,.92-1.33c.26-.5.68-.83.82-1.44.17,0,.33-.17.41-.51a1.44,1.44,0,0,0,.51-.51,4.47,4.47,0,0,1,.92-1.33c.23-.48.61-.83.82-1.33a26.4,26.4,0,0,0,1.95-2.46c.15-.05.26-.15.41-.2A.52.52,0,0,1,258.61,1.54Z"/><path class="cls-1" d="M285.22,43.29c-.11,0-.34,0-.46,0-.39.15-.2-.28-.51-.21,0,.06-.08.12-.1,0-2.07.53-3.66,1.54-5.74,2.05-.54.09-1,0-1.74,0a7.08,7.08,0,0,1-3-1.85,14.68,14.68,0,0,1-2.36-2.56c-.3-.52-.66-1-.92-1.54s-.6-1-.82-1.64c-.48-1.16-1.21-2.07-1.64-3.28a15.4,15.4,0,0,1,2.05-.41,22.49,22.49,0,0,1,2.26-.82,19.18,19.18,0,0,0,2.26-.92c1.59-.53,2.67-1.57,4.31-2.05.86-.85,2.14-1.28,3.08-2.05s2-1.45,3-2.15c1.45-1.11,2.66-2.46,4-3.69.08-.33.68-.14.62-.62.33-.11.32-.56.72-.62l0,.18c.11-.11.26-.25.41-.38l.13-.19a3.31,3.31,0,0,1,.73-.68,11,11,0,0,1,1.6-2.63l.16-.4c.19-.48.37-1,.55-1.46a5.61,5.61,0,0,0,.06-.78l0,0c0-.07,0-.14,0-.22s0,0,0,0a2.83,2.83,0,0,1,.09-.85,14.77,14.77,0,0,0-.63-6c-.08,0-.12-.09-.1-.21a7.38,7.38,0,0,1-.92-1.13c.11-.59-.4-.56-.31-1.13a5.8,5.8,0,0,0-.62-.92c-.56-.19-1.18-.33-1.74-.51h-1.74c-3.74.33-6.39,1.75-9.13,3.08-1.21.94-2.57,1.74-3.8,2.67a18.26,18.26,0,0,0-1.64,1.54c-.33.22-.61.48-.92.72s-.53.83-.82.62a21,21,0,0,0,1.95-5.85c.09-.33-.34-.14-.31-.41.19-.2-.06-.19,0-.51-.43-.32-.69-.81-1.13-1.13a3.89,3.89,0,0,1-.41-.72,1.92,1.92,0,0,1-.51-.62c-.57,0-.55-.55-1.23-.41a.72.72,0,0,0-.31.21c-.42.23-.56.74-.82,1.13s-.67.63-.82,1.13c-.59.68-1.08,1.45-1.64,2.15a24.44,24.44,0,0,1-1.54,2.26c-.18.47-.57.73-.72,1.23a.59.59,0,0,0-.31.62c-.35,0-.16.53-.51.51a10.37,10.37,0,0,1-1.44,2.36q-.68,1.27-1.44,2.46c-.48.79-1,1.53-1.44,2.36s-.93,1.67-1.54,2.36a3.8,3.8,0,0,1-.62,1.23c-.22.43-.46.84-.72,1.23-.4.9-.93,1.67-1.33,2.56-1,1.58-1.83,3.3-2.77,4.92-.33.93-.89,1.65-1.23,2.56s-.69,1.91-1.23,2.67a21.76,21.76,0,0,0-1.54,6.15c0,1.3.1,1.85.1,3.08a5.87,5.87,0,0,1,.82,1.54c0,.34.31.44.51.62-.1.51.32.5.31.92.4.08.32.64.72.72a3.27,3.27,0,0,1,.51.92c.42,0,.54.28.72.51.06-.53.11-1.48.21-2.26.72-2.87,2.33-4.85,3.49-7.28.68-1.1,1.34-2.21,1.95-3.38a6.14,6.14,0,0,0,1-1.64c.25-.2.34-.55.62-.72s.21-.75.62-.82a4,4,0,0,1,1,2.05c.23.21.32.57.51.82,0,.45.46.43.51.82.3,1.52,1.2,2.43,1.64,3.8.29.19.37.58.72.72,0,.43.4.56.51.92A13.43,13.43,0,0,1,266,45.44c.49,0,.56.4,1,.41a8.55,8.55,0,0,0,4.1,2.15,1.6,1.6,0,0,0,1-.21c0,.29.43.19.72.21s.25-.08.31-.1c.22-.09.59.12,1-.1a2.73,2.73,0,0,0,1.33-.41,12.54,12.54,0,0,0,2.67-.82c1.53-.11,2.42-.86,3.9-1a8.27,8.27,0,0,1,2.15-.92c.06-.31.55-.2.62-.51.18,0,.24-.1.21-.31s.28-.11.21-.37ZM265,27c-.43,0,0-.16,0-.31a1.74,1.74,0,0,1,.31-.41c.19-.26.31-.58.62-.72A11.89,11.89,0,0,1,267,24a10.86,10.86,0,0,1,1.23-1.44c.26-.63.88-.9,1.13-1.54a70.14,70.14,0,0,1,5.44-5.33c1.08-.73,1.85-1.77,3.08-2.36a21.47,21.47,0,0,1,3.18-2.15,17.49,17.49,0,0,1,8-2.77c.21.71-.35,1.39-.72,1.85a6.89,6.89,0,0,1-1.13,1.54c-.31.13-.27.61-.72.62a1.09,1.09,0,0,1-.62.72,14,14,0,0,1-1.33,1.33c-.3.14-.42.47-.72.62s-.35.54-.72.62c-.52.37-1,.82-1.44,1.23-.83.94-2,1.56-2.87,2.46-.61.31-.91.93-1.64,1.13a3.53,3.53,0,0,1-1.54,1.13,37.56,37.56,0,0,1-3.18,2.15A36.87,36.87,0,0,1,265,27Z"/><path class="cls-1" d="M335.33,7.69a22.55,22.55,0,0,1,8.21-1.23,4.31,4.31,0,0,0,.92.31,3.3,3.3,0,0,1,.62,2.15c.05.43.45.51.51.92a2.57,2.57,0,0,1-.1,1c-.17,0,.16.58-.1.72a28.37,28.37,0,0,1-3.38.1,15.33,15.33,0,0,1-1.54.2,27.46,27.46,0,0,0-7.28,2.87C331.08,18.9,329,23,326.72,27c.41.17,1.12-.25,1.64-.31.48-.24,1.25-.19,1.74-.41a5,5,0,0,0,1.54-.1c.82.1,1.51.33,2.36.41.16.35.1.92.51,1a4.39,4.39,0,0,0,.62,2.05c.13.4-.3.25-.31.51a2.32,2.32,0,0,1,.2.62,18.69,18.69,0,0,1-2.15-.1A22,22,0,0,0,327.43,32c-.73.4-1.64.61-2.36,1-.9.23-1.49.77-2.36,1-1.57,2.94-3.29,5.74-4.62,8.92a12.15,12.15,0,0,0,2.36-1c.72-.41,1.62-.63,2.36-1a38.15,38.15,0,0,1,5.33-1.33c1.26,0,2.28-.18,3.59-.1a1.46,1.46,0,0,0,.41.92c-.14.67.1.65.1,1.33,0,.41.42.46.41.92.15.46,0,.6,0,1.13a5.11,5.11,0,0,1-2.15.31,28.84,28.84,0,0,0-7.59,2.15,27.62,27.62,0,0,0-3.28,1.54,20.55,20.55,0,0,1-3.28,1.54c-.48-.17-.69-.61-1.23-.72-.2-1-.57-1.76-.82-2.67a1.86,1.86,0,0,0-.72-.82c.07-.52-.28-.61-.31-1a1.73,1.73,0,0,0-.31-.82,8.46,8.46,0,0,0-.31-2.05c-.13-1.12,0-2.17-.1-3.08.43-.63.27-1.85.72-2.46a25.51,25.51,0,0,1,.72-2.46,47,47,0,0,1,1.85-4.41,26.85,26.85,0,0,1,1.95-4.31c.4-.66.72-1.4,1.13-2.05a6.29,6.29,0,0,1,1.23-1.85,4.94,4.94,0,0,1,1.23-2.15c0-.55.5-.67.62-1.13a2.41,2.41,0,0,1,.72-.92c0-.59.48-.68.62-1.13s.44-.66.51-1.13a6.16,6.16,0,0,0,1.33-2.05c.48-.14.48-.75.92-.92.05-.25.25-.37.41-.51,0-.32.13-.42.31-.51a7.32,7.32,0,0,1,.82-.92c.16-.42.6-.57.72-1,.35-.26.45-.78.82-1,.21-.37.61-.55.82-.92a11.9,11.9,0,0,0,1.54-1.95c.15,0,.29,0,.31-.1.45.15.66.54,1,.51a19.8,19.8,0,0,0,1.44,1.54A2.75,2.75,0,0,1,335.33,7.69Z"/><path class="cls-1" d="M309.66,32.4c-.34.07-.16-.36-.39-.39s-.36-.16-.39-.39c-.19-.07-.26-.26-.3-.49-.28,0-.5,0-.59-.2a2.89,2.89,0,0,0-.79-1c0-.11,0-.18-.1-.2-.1-.79-.56-1.21-.69-2-.17-.25,0-.81-.39-.89a1.76,1.76,0,0,0-.2-1.08v-1a6.08,6.08,0,0,0-.3-1,11.53,11.53,0,0,0,.3-1.48c.54-.64.85-1.51,1.38-2.17s1-1.31,1.38-2.07A7.74,7.74,0,0,0,309.66,17c.1-.26.39-.33.49-.59s.46-.26.49-.59c.44-.28.61-.83,1.08-1.08.13-.56.76-.62.89-1.18a14,14,0,0,0,2-2.27A8.2,8.2,0,0,0,316,8.44c-.4-.25-.77.25-1.08.39-.56,0-.57.55-1.28.39-.06.34-.48.31-.59.59-.37,0-.48.31-.79.39-.44.32-.93.58-1.38.89a5.11,5.11,0,0,0-1.38.89,4.92,4.92,0,0,0-1.38.89,15,15,0,0,0-1.38,1c-.56.2-.76.75-1.28,1-.8.72-1.53,1.5-2.37,2.17a1.36,1.36,0,0,1-.59.59c-.22.17-.23.56-.59.59a4.87,4.87,0,0,1-1.08,1.18c-.59.92-1.45,1.58-2,2.56A15.08,15.08,0,0,0,297,24.71,9.59,9.59,0,0,0,296,28.16a6.26,6.26,0,0,0,.39,1.87c1,1.89,3.08,2.78,4.93,3.85A17.41,17.41,0,0,1,305.82,38a9.94,9.94,0,0,1,.79,3.06c.06.52-.17.75-.1,1.28a13.37,13.37,0,0,1-1,2.66,19.28,19.28,0,0,1-1.28,2.27,25.28,25.28,0,0,1-2.17,1.48,9.41,9.41,0,0,1-2.76.89,13.72,13.72,0,0,1-6.31-.39c-3.51-1.33-5.67-4-7.4-7.1a11.22,11.22,0,0,0-.3-1.38,35.81,35.81,0,0,0-.79-9c.4.43.45,1.19.69,1.77s.51,1.07.69,1.68a1.85,1.85,0,0,0,.59.49c-.08.44.41.31.49.59a9.33,9.33,0,0,1,.89,1.18,9.36,9.36,0,0,1,.89,1.18,8.38,8.38,0,0,1,.79.79c.09.08.11.22.3.2a10.89,10.89,0,0,0,5.42,3c.54-.08.8.12,1.28.1a12.46,12.46,0,0,0,1.77-.2c.44-.09.65-.4,1.08-.49a7.41,7.41,0,0,0,1.38-1.28c.12-.14.31-.27.39-.39s.1-.41.2-.59.15-.11.2-.2A2.69,2.69,0,0,0,302,38a2.49,2.49,0,0,0-1.28-1.77,9.79,9.79,0,0,0-1.77-1.18c-.42-.57-1.21-.76-1.77-1.18s-1.18-.79-1.87-1.08c-.46-.52-1.1-.87-1.58-1.38s-.93-1-1.38-1.58a17.5,17.5,0,0,1-1-2c-.25-.73-.38-1.6-.59-2.37a12.38,12.38,0,0,0,.1-1.58c.64-3.37,2.23-5.79,3.75-8.28,1-1,1.86-2.15,2.76-3.25s2-1.93,3-3c.73-.29,1-1,1.77-1.28.41-.58,1.17-.8,1.68-1.28a22,22,0,0,1,3.94-2c2.64-1.34,6-1.92,9.17-2.76-.08-.25-.15-.45.1-.59.83-.11.91.53,1.38.79.23.43.71.6,1,1a24.11,24.11,0,0,1,2.07,2,.27.27,0,0,0,.2.3A14.07,14.07,0,0,1,322.88,10c-.21,0,0,.35-.1.49-.21.74-.31,1.59-.49,2.37a4.21,4.21,0,0,0-.49,2.07,1.16,1.16,0,0,0-.49,1,2.39,2.39,0,0,0-.59.89,8.05,8.05,0,0,0-.59.89,2.39,2.39,0,0,1-.39.39c0,.25-.15.31-.3.39a22.28,22.28,0,0,1-2.66,3.25c-1.05.92-1.91,2-3.06,2.86-.4.58-1.12.86-1.58,1.38-.6.35-1,.92-1.58,1.28a.56.56,0,0,1-.1.3,8.78,8.78,0,0,0-.89,1.58A6.54,6.54,0,0,0,309.66,32.4Z"/></g></g></svg>