<svg xmlns="http://www.w3.org/2000/svg" viewBox="0 0 273.06 52.7"><title>Portfolio</title><g id="66343f49-8d90-45d7-84cf-40db0a125cdd" data-name="Layer 2"><g id="5d93d845-e209-486d-8ca8-b5132cd44bca" data-name="Layer 1"><path d="M11.36,32.67c-.46.44-.59,1.2-1,1.69s-.54,1.25-.9,1.79c-.58,1.18-1.23,2.29-1.79,3.49A50.75,50.75,0,0,0,4.39,47c-.05.75,0,1-.1,1.79a15.55,15.55,0,0,1,.6,2.09C4,50.8,3.95,49.84,3.2,49.6A10.91,10.91,0,0,0,1.5,47.31c-.45-.85-1-1.61-1.39-2.49-.05-.14.12-.51-.1-.5a14.35,14.35,0,0,1,.8-5.38A21.36,21.36,0,0,1,2.4,34.36c.14-.89.6-1.45.8-2.29a14,14,0,0,0,1-2.09c.71-1.32,1.23-2.82,2-4.08.06-.47.42-.65.5-1.1a3.6,3.6,0,0,1,.5-1,14.43,14.43,0,0,1,1-2.09,3.18,3.18,0,0,1,.5-1.1c.24-.26.26-.74.5-1a20.46,20.46,0,0,0,.9-2.09,17,17,0,0,0,1.1-2,10.29,10.29,0,0,0,1.1-2,8.11,8.11,0,0,0,1.2-1.89,5.43,5.43,0,0,0,1.1-1.89,8.18,8.18,0,0,0,1.29-1.89c.4-.67.85-1.27,1.2-2,.82-.71,1.33-1.72,2.09-2.49.19-.57.7-.82.9-1.39.43-.34.55-1,1.1-1.2C22.59.66,23,1.54,23.91,2a1.89,1.89,0,0,0,.7.9,4.54,4.54,0,0,0,.4,1.2c-.36,1-.82,1.91-1.2,2.89s-.7,2-1.2,2.79a21.5,21.5,0,0,1-1.29,2.79c-.36,1-.92,1.74-1.29,2.69.12.24.29-.3.5-.3.07-.23.33-.27.4-.5a6,6,0,0,0,.9-1,20.34,20.34,0,0,0,1.89-1.89,11.1,11.1,0,0,1,1.89-1.89c.53-.7,1.25-1.2,1.79-1.89,1.74-1.05,3.05-2.53,4.78-3.59A22.08,22.08,0,0,1,37.06.7c1-.23,2-.53,3.09-.7a19.37,19.37,0,0,1,2.49.1c.31.05.44.29.8.3a6.37,6.37,0,0,1,1.29,1.69c.41.56.84,1.09,1.2,1.69a14.7,14.7,0,0,1,.5,5,23.09,23.09,0,0,1-.7,2.79c-.36.76-.47,1.78-.9,2.49a16.43,16.43,0,0,1-1.1,2.39,11.06,11.06,0,0,1-1.2,2.19c-.19.41-.55.64-.6,1.2-.32,0-.24.36-.4.5s-.18.35-.3.5a19.51,19.51,0,0,0-1.39,2,18.78,18.78,0,0,1-1.49,1.89c-.18.38-.54.59-.7,1-.35.21-.52.61-.8.9a43.72,43.72,0,0,1-3.39,3.49c-.77.39-1.22,1.1-2,1.49a11.91,11.91,0,0,1-1.89,1.49,23.65,23.65,0,0,1-4.38,2.49,21.15,21.15,0,0,1-4.88,1.89c-.29,0-.65-.05-.8.1H18c-1.83-.13-3-1-4.38-1.49-.11-.39-.48-.52-.8-.7a.92.92,0,0,0-.4-.6C12.08,34.07,11.74,33.36,11.36,32.67ZM38.06,7.17a.71.71,0,0,0-.3.2c-2.4,1.62-4.72,3.32-7,5.08-1.7,1.34-3.2,3-4.68,4.38a10.21,10.21,0,0,0-1.49,1.59c-2.11,1.94-4,4.11-6,6.18-.94,1.09-1.86,2.19-2.89,3.19,0,.25-.15.31-.3.4s-.12.41-.4.4a2.27,2.27,0,0,1-.7.8c-.17.33-.54.46-.8.7-.06.38-.85.42-.6.8a6.19,6.19,0,0,0,1.59.1,23.91,23.91,0,0,0,6.08-3c.84-.65,1.7-1.29,2.59-1.89s1.63-1.42,2.59-2A8.24,8.24,0,0,1,26.9,23c.36-.4.9-.63,1.2-1.1.84-.69,1.51-1.55,2.29-2.29s1.42-1.63,2.09-2.49c.84-.69,1.24-1.81,2.19-2.39.16-.8.76-1.17,1.1-1.79A14.32,14.32,0,0,0,37,11.16a2.34,2.34,0,0,0,.5-1c.26,0,.26-.21.3-.4.2-.07.27-.27.3-.5a2.63,2.63,0,0,0,.4-1.1c.22-.25.16-1.08-.3-1Z" style="fill-rule:evenodd"/><path d="M143.23,8a3.44,3.44,0,0,1-2.59.3c-1-.09-1.82-.14-2.59-.2-.45.11-1,.09-1.49.2a17.39,17.39,0,0,0-3.49.2c-.3.46-.17,1.36-.3,2-.36.7-.55,1.58-.9,2.29,0,1-.58,1.54-.8,2.39-.68,1.41-1.18,3-1.89,4.38a32.33,32.33,0,0,1-2,4.38A9.57,9.57,0,0,1,126.1,26c-.28.75-.69,1.37-1,2.09a9.45,9.45,0,0,0-1,2.19c-.44.09-.14.92-.6,1a3.14,3.14,0,0,1-.5,1.1,28.6,28.6,0,0,1-2.09,4.18c-1.34,2.88-3,5.39-4,8.67.07.4-.1.57-.1.9a4.12,4.12,0,0,0,.2,1.69,2.79,2.79,0,0,1-1.1-.4c-.32.09-.31-.16-.5-.2-.26-.26-.08.16-.4.1a2.75,2.75,0,0,0-1.59-1.2c-.63-.7-1.28-1.38-1.89-2.09-.13-.37-.13-.87-.4-1.1-.18-2.32-.5-4.15,0-5.88-.12-.3.08-.53-.1-.9a23.42,23.42,0,0,1,.8-2.59c-.09-.65.46-.67.4-1.29a2.63,2.63,0,0,0,.4-1.29c.59-.61.62-1.77,1.2-2.39a5.83,5.83,0,0,1,1.1-2.49c0-.47.22-.65.3-1s.43-.56.5-1,.31-.68.5-1a13.55,13.55,0,0,0,1-2c.77-1.22,1.31-2.67,2.09-3.88a32.54,32.54,0,0,1,2.09-3.88,19.22,19.22,0,0,0,1-2,7.85,7.85,0,0,0,1.2-1.79,9.53,9.53,0,0,0-2.19.1c-.5.16-1,.32-1.49.5s-.83.5-1.39.6a6.71,6.71,0,0,0-1.59,3.49c-.32-.31-.32.27-.6.3s-.07-.73-.4-.8c-.17-.19-.17-.56-.3-.8,0-.35-.54-.06-.6-.3a1.34,1.34,0,0,0-.3-1c-.06-1.66.16-2.47.2-4.08.3-.66.67-1.26,1-1.89,3.1-3.24,8-4.72,14-5,1.34,0,2.42.14,3.88.2A18.5,18.5,0,0,1,138.05,2a11,11,0,0,1,2,.7c.49.37,1.3.43,1.69.9.44,0,.22.58.6.6a3.91,3.91,0,0,1,.5.7C142.92,6,143.19,6.85,143.23,8Z" style="fill-rule:evenodd"/><path d="M64.55,1.2a3.26,3.26,0,0,1,1.2.5c0,.5.18-.08.4,0,0,.31.27.26.3.5.45.19.14-.4.5-.3.22.41.69.57,1,.9s.57.62.9.9a9.33,9.33,0,0,1,1.59,2,18.24,18.24,0,0,1,1.2,2.39,15.92,15.92,0,0,1,.8,2.79,29.5,29.5,0,0,1-.3,7.57,44.91,44.91,0,0,1-2,6.47,15.68,15.68,0,0,1-.8,2c-.14.26-.23.69-.4,1.1-.1.25-.29.45-.4.7s0,.27-.1.4c-.5,1.17-1.24,2.57-1.89,3.88-.1.2-.28.39-.4.6-.51.88-1,1.8-1.49,2.69S63.51,38,63.06,38.95c-.45.25-.59.8-.9,1.2s-.7.7-.9,1.2a9.46,9.46,0,0,0-1.1,1.1c-.11.12-.11.3-.2.4s-.6.38-.7.6c0,0,0,.16,0,.2-.66.72-1.4,1.4-2.09,2.09-.35.35-.64.76-1,1.1a14.14,14.14,0,0,1-1.2.9A22.86,22.86,0,0,1,52.5,49.4a11.46,11.46,0,0,1-6.57,1.79,7,7,0,0,1-1.49-.5c-.73-.2-.95-.91-1.69-1.1,0-.4-.49-.5-.7-.8-.07-.1,0-.21-.1-.3-.26-.31-.67-.54-.8-1a13.68,13.68,0,0,0-1.69-1.89,6,6,0,0,0-.9-1.59,10.68,10.68,0,0,0-.7-1.69c-.05-.39.18-.49.1-.9a17.72,17.72,0,0,1-.4-6.18c0-2.23.61-3.84.8-5.88.65-1.48.93-3.32,1.69-4.68.6-1.49,1.4-2.79,2.09-4.18.43-.64.78-1.34,1.2-2,.18-.35.48-.58.6-1s.23-.77.6-.9A36.72,36.72,0,0,1,47.12,13a32.42,32.42,0,0,1,6.18-6.37c1.1-1,2.49-1.7,3.69-2.59s2.89-1.29,4.18-2.09a7.07,7.07,0,0,0,1.59-.4c.7-.18,1.15.16,1.69,0C64.44,1.35,64.43,1.21,64.55,1.2ZM45.92,45.52c1.13-1,2.24-2,3.39-3,.56-.51,1-1.13,1.59-1.59a5.59,5.59,0,0,1,1.59-1.69A13.13,13.13,0,0,1,54,37.15c.38-.62,1-1,1.2-1.69a6.27,6.27,0,0,0,1.29-1.89,14.18,14.18,0,0,0,1.29-2q1.22-2,2.29-4.18a19.41,19.41,0,0,1,1.1-2.09c.26-.84.78-1.41,1-2.29a37.16,37.16,0,0,0,3.29-9.66c0-1.13.26-2.06.2-3.29-.16-.37,0-1-.3-1.29,0-.06,0-.12-.1-.1s-.16.17-.2.3c-.6.23-.81.85-1.39,1.1a9.49,9.49,0,0,1-1.29,1.29c-.78,1.21-1.74,2.24-2.59,3.39s-1.66,2.39-2.49,3.59a10.4,10.4,0,0,0-1,2.69c-.05.15-.25.34-.3.5-.13.42-.11.85-.2,1.29s-.24.79-.3,1.2c-.21,1.49-.16,2.79-.3,4.08-.06.62.14.94,0,1.39,0,.47.26,1.12-.2,1.29a3,3,0,0,1-1.69-1.1c-.42-.51-.92-.94-1.29-1.49a17.22,17.22,0,0,1-1.1-2.39c-.29-.27-.29-.84-.5-1.2a3.7,3.7,0,0,1-.4-1.39c-.38.08-.33.6-.6.8s-.37.56-.5.9a13.74,13.74,0,0,0-1,1.79c-.64,1.22-1.23,2.48-1.89,3.69s-1,2.75-1.59,4c-.37,1.49-.74,3-1.2,4.38-.08,1.25-.33,2.33-.4,3.59.1.69.08,1.51.2,2.19s.35,1.24.4,2C44.5,46.42,45,45.81,45.92,45.52Z" style="fill-rule:evenodd"/><path d="M185.76,1.79c0-.08,0-.09.1-.1.74,0,.76.11,1.49.1l.6.3c.15.33.24-.21.5-.1a9.71,9.71,0,0,0,2.19,1.89,18.81,18.81,0,0,0,2.29,1.79c.43.47.74,1.05,1.2,1.49s.71,1,1.1,1.49c.54,1.25,1.11,2.47,1.59,3.78a21,21,0,0,1-2.19,13.74A25.63,25.63,0,0,1,193.23,29c-.44,1-1,1.77-1.49,2.69-1.13,1.63-2.13,3.38-3.39,4.88a53.08,53.08,0,0,1-8.17,8.57c-.79.62-1.65,1.16-2.49,1.69-.13.08-.19.23-.3.3s-.28,0-.4.1-.07.18-.1.2-.15,0-.2,0-.07.18-.1.2c-.35.16-.81.4-1.2.6a14.74,14.74,0,0,1-6.87,1.89c-.31,0-.35-.18-.7-.1a8.46,8.46,0,0,1-1.79-.6c-.66-.13-1-.58-1.69-.7a23.65,23.65,0,0,1-2.69-2.49c-.56-1-1.07-2.12-1.59-3.19a29.77,29.77,0,0,1-.7-4.88,33.68,33.68,0,0,1,.9-7c.49-2.1,1.29-3.89,1.89-5.88a28.87,28.87,0,0,1,1.2-2.79,18.86,18.86,0,0,1,1.2-2.69,6.12,6.12,0,0,0,.7-1.29,5.74,5.74,0,0,0,.7-1.2c.36-.3.45-.88.8-1.2s.54-.72.8-1.1c1.08-1.54,2.39-2.85,3.59-4.28a5.64,5.64,0,0,0,1-1,1.4,1.4,0,0,0,.5-.5c.14-.16.47-.12.4-.5.85-.45,1.37-1.22,2.19-1.69s1.44-1.22,2.29-1.69a7.52,7.52,0,0,0,1.2-.8,3.93,3.93,0,0,0,1.2-.7,23.52,23.52,0,0,1,5.68-2.09ZM189,9.26a22.92,22.92,0,0,1-2.19.8c-.67.43-1.24.95-1.89,1.39-.83,1-1.74,1.91-2.49,3a36.3,36.3,0,0,0-2.09,3.49c-1.11,2.61-2.48,5-2.39,8.76.35.61.69,1.23,1,1.89a3.58,3.58,0,0,1-1.39-1.2c-.31,0-.39.22-.6,0,.15-.45-.38-.22-.5-.4s-.34-.58-.4-.4a.7.7,0,0,1-.5-.5c-.2-.13-.43-.23-.5-.5-.49,0-.59-.34-1-.4a7.44,7.44,0,0,1-.8-1c-.43-.17-.43-.76-1.1-.7-.3.36-.51.82-.8,1.2s-.53.8-.7,1.29c-.52.84-.94,1.79-1.39,2.69s-.89,1.76-1.2,2.79a4.91,4.91,0,0,0-.6,1.39,5.91,5.91,0,0,1-.3.7c0,.2-.13.2-.2.3s0,.37-.2.4a11.07,11.07,0,0,1-.7,2.49c-.27.79-.45,1.68-.7,2.49-.23,1.8-.89,3.69-.6,5.68.93.1,1.36-.3,2.19-.3a15.16,15.16,0,0,1,2.29-1.2c.77-.43,1.44-1,2.19-1.39a33.22,33.22,0,0,0,3.88-3.19c1.27-1.08,2.31-2.41,3.49-3.59a4.08,4.08,0,0,1,.8-1c.16-.44.54-.66.7-1.1.71-.49,1-1.44,1.59-2,.48-.68.93-1.39,1.39-2.09.34-.85,1-1.39,1.29-2.29a34.68,34.68,0,0,0,2.79-4.38,36,36,0,0,0,2.29-4.78,15,15,0,0,0,1-6.18,15.88,15.88,0,0,0-.5-2.09A4.16,4.16,0,0,0,189,9.26Z" style="fill-rule:evenodd"/><path d="M267.64,1.79c0,.37.31.35.4.6s.26.34.3.6a1.43,1.43,0,0,1,.7.5,8.55,8.55,0,0,0,.7.5,12.6,12.6,0,0,0,1.1,1.69,11.66,11.66,0,0,0,1,1.69c.48,1.44.81,3,1.2,4.58A33.12,33.12,0,0,1,271.72,23c-.61,1.48-1.12,3.06-1.79,4.48,0,.49-.38.69-.5,1.1a10.42,10.42,0,0,1-.5,1c-.51.52-.69,1.37-1.29,1.79a11.94,11.94,0,0,1-1.69,3.09A33.74,33.74,0,0,0,264,37.35a6.13,6.13,0,0,0-1.1,1.29c-.36.43-.89.7-1.1,1.29a12.87,12.87,0,0,0-1.2,1.2c-.32.44-.8.73-1.1,1.2-.48.32-.85.75-1.29,1.1a4.15,4.15,0,0,1-1.29,1.1,13.29,13.29,0,0,1-2.79,1.89,21.48,21.48,0,0,1-3.09,1.69,13.85,13.85,0,0,1-1.69.7c-.36,0-.53.27-1,.2-.21-.14-.27.16-.4.2s-.39-.08-.4.1a24,24,0,0,1-3.09,0c-.68-.41-1.55-.64-1.89-1.39-.25.13-.77.35-1.1.1-.48-.08-.68-.45-1.1-.6a5.58,5.58,0,0,1-.9-1.69,5.42,5.42,0,0,0-.6-.7c-.1-.13-.09-.26-.2-.4a4.59,4.59,0,0,1-.5-.8,2.05,2.05,0,0,0-.1-.3s-.19-.07-.2-.1c-.08-.18-.13-.48-.2-.7-.18-.54-.38-1.25-.6-1.89a30.63,30.63,0,0,1-.1-3.29,43.14,43.14,0,0,1,1.2-6.37,41.53,41.53,0,0,1,2-5.78c.84-1.75,1.57-3.61,2.49-5.28.44-.85.94-1.65,1.39-2.49a19.11,19.11,0,0,0,1.59-2.29c1.2-1.39,2.3-2.88,3.59-4.18a7.1,7.1,0,0,0,1-1c.36-.27.58-.69,1-.9a16,16,0,0,1,2.09-1.79A23.25,23.25,0,0,1,258,4.28,22.71,22.71,0,0,1,263.35,2a5.23,5.23,0,0,0,1.39-.2c.67.23,1.33-.14,1.89.2-.07-.16.2-.43.2-.2.16-.07.43.2.2.2C267.31,2.38,267.32,1.69,267.64,1.79Zm-.9,7.27a.5.5,0,0,0-.3.3c-.47.2-.73.6-1.2.8s-.68.65-1.2.8a.92.92,0,0,1-.6.4c0,.3-.27.4-.5.5,0,.33-.4.26-.5.5a1.57,1.57,0,0,0-.6.5,21.54,21.54,0,0,0-4.08,4.08c-2.2,3.25-4.42,6.47-5.08,11.25,0,2,.05,3.37-.1,5,0-.34-.42-.18-.4-.5-.31,0,0-.65-.4-.6-.08-.35-.51-.36-.7-.6,0-.56-.43-.64-.6-1a9,9,0,0,0-1.2-2.09c-.13-1.23-.69-2-.9-3.19-.36.11-.39.54-.6.8a5.49,5.49,0,0,1-.5.9c-1,1.86-1.94,3.84-3,5.68a33.87,33.87,0,0,0-2.49,9c0,1.1-.13,2.38.5,2.89,1.18.36,2.1-.34,3-.6,1.21-1,2.84-1.48,3.78-2.69a2.31,2.31,0,0,0,.9-.7,7.24,7.24,0,0,0,.9-.7c.47-.63,1.14-1,1.59-1.69.57-.49,1-1.15,1.49-1.69a16.79,16.79,0,0,0,1.39-1.89,31.35,31.35,0,0,0,2.79-3.69,28.31,28.31,0,0,0,2.39-4.08c.91-1.24,1.57-2.75,2.39-4.08s1.45-2.86,2.19-4.28c.22-.85.61-1.51.8-2.39.38-.71.36-1.83.8-2.49a15,15,0,0,1,.3-2.19,3.32,3.32,0,0,1,.1-1.2.65.65,0,0,0-.1-.5c0-.19.14-.6-.2-.5Z" style="fill-rule:evenodd"/><path d="M210.76,1.89a.7.7,0,0,0,.9.2,1.71,1.71,0,0,0,.3.4c0,.24.45-.06.3.3.27.13.29.51.6.6a5.26,5.26,0,0,0,.7.6c.37,0,.3.49.6.6a3.71,3.71,0,0,0,.2,1.29c-.21,1.35-.21,2.91-.5,4.18-1.21,3-2.28,6.22-4,8.76-1.45,2.77-3.11,5.32-4.78,7.87a36.73,36.73,0,0,1-2.39,4c-.05.41-.4.67-.6,1s-.27.75-.6,1a8.63,8.63,0,0,1-1.2,2,31,31,0,0,0-3.88,8.76,6.15,6.15,0,0,0,1.89-.6c.65-.14,1-.55,1.69-.7a12.24,12.24,0,0,1,1.69-.7c.48-.31,1.33-.26,1.69-.7a9.56,9.56,0,0,0,1.89-.4c.82.05,1.05-.48,1.89-.4a28.74,28.74,0,0,1,4-.6c1.27-.08,2.25.14,3.49.1.41.19,1,.16,1.39.4s.72.48,1.1.7c.23.27-.1,1.09.3,1.2a2.15,2.15,0,0,0,.3,1.2,5.08,5.08,0,0,1-.2,2.39c-.24-.19-.58.13-.9-.1s-.61-.19-.9-.3a43.07,43.07,0,0,0-6.47,1.29c-1.73.63-3.32,1.4-5.08,2-1.52.84-3.55,1.17-5.28,1.79-1,0-1.7.22-2.59.3-.56-.21-1.24-.29-1.79-.5a2.67,2.67,0,0,0-.7-1.1.89.89,0,0,0-.2-.7,10.19,10.19,0,0,0-.4-2.39,3.52,3.52,0,0,0,.1-1,19.89,19.89,0,0,1-1.2-6.47,10,10,0,0,0,.1-2.59c0-.32.23-.44.2-.8s-.09-.68.2-.7c-.22-.4.16-.93.2-1.39.18-1,.6-1.86.8-2.89.25-.68.51-1.35.8-2s.65-1.21,1-1.79a9.84,9.84,0,0,1,.9-1.89c.2-.27.28-.65.5-.9a3.26,3.26,0,0,1,.5-.9c.26-.67.61-1.25.9-1.89a11.69,11.69,0,0,0,1-1.79,11.27,11.27,0,0,1,1-1.79,5.69,5.69,0,0,1,1-1.69,11.59,11.59,0,0,1,1-1.79c.28-.65.83-1,1-1.79a26.94,26.94,0,0,0,2.19-3.39c.91-.95,1.58-2.14,2.49-3.09s1.66-2,2.59-2.89A.5.5,0,0,1,210.76,1.89Z" style="fill-rule:evenodd"/><path d="M85.07,36.46c.13.67.63,1,.8,1.59.29.1.35.45.5.7s.45.34.5.7c.71.85,1.27,1.85,2,2.69s1.3,1.82,2,2.69a13.06,13.06,0,0,0,1.1,1.29,7.24,7.24,0,0,1,1.2,1.1c.81.42,1.53.92,2.29,1.39a14.22,14.22,0,0,0,2.79.8,18.23,18.23,0,0,0,2.09-.1c1.55-.44,2.84-1.14,4.28-1.69.87-.75,2.09-1.16,2.89-2,.59-.24.91-.75,1.49-1a2.51,2.51,0,0,1,.7-.5c.2-.09.47-.62.6-.2.28.38-.41.47-.4.9-.29.18-.28.64-.4,1a24,24,0,0,1-4.28,3.09c-.81.42-1.57.89-2.39,1.29s-1.64.75-2.29,1.29c-1.23.33-2.34.78-3.59,1.1-.87-.08-1.45.15-2.29.1-.64,0-1.15-.18-1.79-.2-.44-.23-1.21-.12-1.49-.5-1.24,0-1.85-.74-2.89-1-.38-.48-1.11-.62-1.49-1.1-.55-.28-.93-.73-1.49-1s-.71-1-1.29-1.2c-.35-.48-.86-.8-1.1-1.39-.56-.27-.74-.92-1.29-1.2-.27-.56-.76-.9-1-1.49-1.43-1.86-2.45-4.13-3.78-6.08-.54.19-.59.87-1.1,1.1a3.75,3.75,0,0,1-1,1.2c-.58,1.45-1.56,2.49-2,4.08a13.21,13.21,0,0,0-.8,2.19c.07.57-.17.83-.1,1.39s0,1-.4,1.1-.4-.26-.4-.6c-.35,0-.33-.34-.6-.4-.24-.42-.44-.89-1-1a3.2,3.2,0,0,0-1.1-1.89c-.15-.91-.34-1.79-.5-2.69V40.44a17.39,17.39,0,0,1,1.1-5.38,36.24,36.24,0,0,1,1.79-4.88c.12-.44.39-.74.5-1.2s.46-.67.6-1.1c.35-.75.73-1.46,1.1-2.19.85-1.35,1.44-2.95,2.29-4.28S77,18.58,77.8,17.13a3.17,3.17,0,0,1,.7-1,3.17,3.17,0,0,1,.6-1.1c.31-.79.82-1.37,1.1-2.19,1-1.2,1.75-2.7,2.69-4s1.88-2.5,2.79-3.78c.52-.37.87-.92,1.39-1.29.26-.18.43-.43.7-.6,0-.2.27-.2.3-.4.14.05.24-.39.3-.1,1,.09,1.57.69,2.39,1-.13.39.29.24.3.5s.12.41.4.4c.06.43.52.48.6.9-.09,1.5-.42,2.76-.6,4.18-.88,1.61-1.42,3.56-2.29,5.18.51-.12.54-.72,1-.9a2.77,2.77,0,0,1,.9-1,3.22,3.22,0,0,1,.9-1c.41-.19.53-.67.9-.9,1.27-1.19,2.64-2.28,3.88-3.49A20.43,20.43,0,0,1,99,6.18c.63-.6,1.56-.9,2.19-1.49a18.07,18.07,0,0,0,2.39-1.29c.79-.44,1.8-.65,2.59-1.1a3.08,3.08,0,0,0,1.1-.2h1.1c1.1.63,1.74,1.71,2.89,2.29a5.34,5.34,0,0,0,.7,1,2.22,2.22,0,0,0,.6,1,18.67,18.67,0,0,0,1,2.29,18,18,0,0,1,.4,4.68,18,18,0,0,1-1.59,4.58A16,16,0,0,1,110,21.71a16.1,16.1,0,0,1-2.79,3.39,15.81,15.81,0,0,1-1.49,1.59c-.58.42-.93,1.06-1.59,1.39a38.41,38.41,0,0,1-7,5.28c-.67.36-1.36.7-2,1.1a22.93,22.93,0,0,0-2.19.9c-.78.25-1.58.48-2.39.7-.64.25-1.48.23-2.29.5C87,36.45,86.33,36.54,85.07,36.46Zm5.28-8a42.35,42.35,0,0,0,6.27-4.18,14.71,14.71,0,0,0,2.79-2.39c.62-.24.86-.87,1.39-1.2.39-.48.9-.82,1.29-1.29a32.23,32.23,0,0,0,4.78-5.68c.05-.37.28-.55.1-.9.39.23.25-.15.5-.3.23-1.09.61-2,.8-2.89-.14-.52-.1-1.22-.2-1.79-.1,0-.12-.08-.2-.1,0-.17-.13,0-.3,0a25.68,25.68,0,0,0-4,2.09c-1.13.9-2.61,1.44-3.59,2.49-1.14.89-2.18,1.87-3.29,2.79a31.36,31.36,0,0,0-3,3.09,7.31,7.31,0,0,0-1.39,1.59,7,7,0,0,0-1.49,1.59C89.76,22.36,89,23.66,88,24.6c-.88,1.15-1.82,2.23-2.79,3.29-.35.68-1,1-1.39,1.69-.33.17-.47.53-.8.7a.9.9,0,0,1-.4.4c.11.25-.47.39,0,.4A22.08,22.08,0,0,0,90.35,28.49Z" style="fill-rule:evenodd"/><path d="M154.49,4.19A34.3,34.3,0,0,1,161,3.09a27.5,27.5,0,0,1,6.87.7c0,.12,0,.18.1.2.38,0,.28.51.6.6.1.3.35.44.3.9a3.51,3.51,0,0,1,.6,1.79c0,.63-.19,1-.2,1.59a15.49,15.49,0,0,1-3.29.2c-1.11.22-2.7.15-3.59.3-1.33.07-2.2.41-3.39.4a41.19,41.19,0,0,0-5.68,1.69c-1.69,3-3.43,5.87-5,9s-3.34,5.89-4.88,9c.23.14.77-.11,1.1-.2s1,0,1.2-.3c1-.14,1.33-.29,2.29-.4a25.72,25.72,0,0,1,5.48-.4,18.8,18.8,0,0,1,2.29.4c-.11.37.37.16.3.5s.16.37.1.7a6.63,6.63,0,0,1,.8,1.39c0,.68.07,1.5,0,1.89a2.46,2.46,0,0,1-1.69.1c-.54.22-1.26.26-1.79.5a9.63,9.63,0,0,1-1.59.4c-.5.27-1.18.35-1.69.6-.4,0-.5.23-.9.2s-.51.37-.8.1a8.57,8.57,0,0,1-2.49,1c-.78.35-1.66.6-2.49.9s-1.6.66-2.49.9-1.42.84-2.49.9a1,1,0,0,1-.3.6c-.22,0,0,.53-.2.6-.19.34-.24.82-.5,1.1a21.31,21.31,0,0,1-.8,2.49c-.11,1-.36,1.83-.5,2.79a8.85,8.85,0,0,0-.3,1.29c.11.37-.37.16-.3.5v.8c-.25-.22-1,.12-1-.4-.23-.2-.53-.33-.6-.7a3.23,3.23,0,0,1-1-1.69c-.23,0-.23-.27-.1-.4-.22,0-.21-.25-.2-.5a3.21,3.21,0,0,1-.3-1c-.16-.74-.18-1.62-.3-2.39.14-1.28.23-2.62.4-3.88s.38-2,.6-3.19a15.87,15.87,0,0,0,.5-1.69c.08-.62.43-1,.5-1.59.36-.34.25-1.15.6-1.49.18-.52.2-1.19.7-1.39-.16-.69.36-1.29.6-1.89a14.15,14.15,0,0,1,.8-1.79,25.73,25.73,0,0,1,1.69-3.59c.11-.79.76-1,.8-1.89a8.51,8.51,0,0,0,.9-1.69,18.47,18.47,0,0,0,.9-1.69c.35-.09.22-.65.5-.8.08-.35.4-.46.4-.9,1.43-2.05,2.77-4.2,4.28-6.18a19.77,19.77,0,0,1,2.39-2.89,27.91,27.91,0,0,1,2.59-2.59c.21,0,.26-.07.4-.1h.2c.35.39,1,.5,1.29.9C153.75,3.46,154,4,154.49,4.19Z" style="fill-rule:evenodd"/><path d="M243.33,5.08c0,1.06,0,1.55,0,2.59a6.15,6.15,0,0,0-.1,1.29,20.18,20.18,0,0,1-.7,2.79c-.21.95-.65,1.67-.9,2.59a17.39,17.39,0,0,0-1,2.49c-.37.22-.38.82-.7,1.1-.08.48-.41.72-.5,1.2A46.17,46.17,0,0,0,237,23.61c-.56.6-.83,1.5-1.39,2.09-.15.44-.42.77-.6,1.2-.33.23-.35.78-.7,1-.82,1.51-1.77,2.88-2.69,4.28a14.21,14.21,0,0,1-1.29,2.19c-.36.81-.78,1.55-1.2,2.29-1.48,3.16-3.53,5.77-4.38,9.56-.13,1.24.15,2.25,0,3.19-.86,0-1-.79-1.39-1.29a5.64,5.64,0,0,1-1.49-1.39,13.6,13.6,0,0,1-1.29-5.48,34.89,34.89,0,0,1,3.09-10.86c.75-1.64,1.56-3.22,2.39-4.78.23-.37.35-.84.6-1.2s.34-.86.7-1.1a4.47,4.47,0,0,1,.6-1.2,3.24,3.24,0,0,1,.6-1.1c.23-1,1-1.42,1.29-2.29s.92-1.47,1.29-2.29c.59-.6.71-1.68,1.39-2.19.32-.88.88-1.51,1.2-2.39.37-.22.38-.82.7-1.1s.55-.64.6-1.2a9.74,9.74,0,0,0,1.49-2.09c.14-.45.59-.6.6-1.2a7.1,7.1,0,0,0,.7-1.1c.27-.89.83-1.49,1.1-2.39.25.13.31-.39.4-.1.18-.06.59.12.6-.1a8.16,8.16,0,0,1,.9.6c.24.26.63.37.9.6A14.35,14.35,0,0,1,243.33,5.08Z" style="fill-rule:evenodd"/><path d="M242.54,44.13h.2v.2h-.2Z" style="fill-rule:evenodd"/></g></g></svg>