<svg xmlns="http://www.w3.org/2000/svg" viewBox="0 0 314.51 55.12"><defs><style>.cls-1{fill-rule:evenodd;}</style></defs><title>Asset 5</title><g id="Layer_2" data-name="Layer 2"><g id="Layer_1-2" data-name="Layer 1"><path class="cls-1" d="M130.26,39.72c0,.81.6,1,.92,1.44a3.15,3.15,0,0,0,1.13,1.13c.23.52.73.77,1.13,1.13.14.61.87.64,1.13,1.13a31.73,31.73,0,0,0,2.57,2,12.72,12.72,0,0,0,3.18,1.33,10.13,10.13,0,0,0,4.41-1.23,10.59,10.59,0,0,1,1.85-.92,4.75,4.75,0,0,1,.92-.51c.13-.1.38-.1.51-.21s.31,0,.1.1c-.34.32.17,0,.21.21s-.38.17-.41.41c-.37-.1-.09.46-.41.41-.07.14-.27-.05-.51.1-.13.41.38.25.1.51a14.91,14.91,0,0,1-4.41,2.16c-1,.06-1.59.6-2.57.72a13.21,13.21,0,0,1-2.36.82H135a13.53,13.53,0,0,1-2.05-.41,13.67,13.67,0,0,1-1.74-.62c-1.09-.49-1.92-1.23-3-1.74a2.88,2.88,0,0,0-1.13-1,3.68,3.68,0,0,0-1-1c-.22-.47-.75-.62-.92-1.13-.52-.16-.56-.81-1.13-.92a8.17,8.17,0,0,0-1.44-2,18.51,18.51,0,0,0-1.33-2.05c-.37-.1-.09.46-.41.41,0,.32-.28.27-.31.51s-.37.65-.51,1a14.09,14.09,0,0,1-1.13,2.05c-.18.88-.77,1.36-.92,2.26-.15.12-.14.41-.41.41.13.14.06.31-.1.41a5.52,5.52,0,0,1-.31,1.23,7.21,7.21,0,0,0,.41,1.23c-.78,0-.79-.72-1.44-.82a6,6,0,0,1-.31-.72c-.7-.23-.94-.91-1.74-1-.34-.73-1.07-1.05-1.33-1.85-.26,0,0,.35,0,.41-.28-.07-.2.21-.31.31-.57.15-.67.76-1.23.92a10.88,10.88,0,0,1-1.23.92c-.34.38-1,.48-1.33.82-.56.15-1,.43-1.54.62a23.5,23.5,0,0,1-4.31,2.57c-.31.27-1,.21-1.23.51s-1.07,0-1.23.41c-.52.07-1.13,0-1.44.31a3.53,3.53,0,0,0-1.44.21,14.06,14.06,0,0,0-2-.1c-1-.09-1.62-.63-2.77-.62A7.49,7.49,0,0,0,90.34,51c-.71-.69-1.78-1-2.46-1.74a15.49,15.49,0,0,1-2.16-2.05,9.83,9.83,0,0,1-1-1.13c-.23-.45-.78-.59-.92-1.13-.79-.58-1.1-1.64-2-2.16-.33,0-.25.37-.41.51a1,1,0,0,0-.31.62,3.27,3.27,0,0,0-.62,1.13,25.69,25.69,0,0,0-1.13,2.36,22,22,0,0,0-1.64,5.34v.72A13.51,13.51,0,0,0,78,54.81c-.1.32-.28-.11-.31-.21a1.76,1.76,0,0,1-.31-.41c0-.36-.28,0-.31-.21a1.75,1.75,0,0,0-.31-.41c-.21-.75-1-.88-1.23-1.64-.25-.16-.61-.21-.82-.41a.28.28,0,0,0-.21-.31,11.47,11.47,0,0,1-.92-2.57c0-4.81,1.43-8.68,2.67-12.52a17.58,17.58,0,0,0,1.13-2.77,13.92,13.92,0,0,0,1.23-2.57c.49-.78.82-1.71,1.33-2.46.31-1,1-1.57,1.23-2.57.59-.71.85-1.75,1.44-2.46A24.2,24.2,0,0,1,84,20.84c.48-.82,1-1.59,1.44-2.46a13.52,13.52,0,0,0,1.54-2.26c.7-.6,1.11-1.49,1.74-2.16s1.13-1.4,1.74-2.05,1.24-1.29,2-1.85,1.08-1.45,1.95-1.85c-.07.34.2.16.21,0,.32-.05.27.35.51.1.15.09.15.33.21.51H96c-.07.31.1.37.1.62.37,0,.38.31.72.31.09-.35.3.57.51.1.18.16.07.62.31.72,0,.15.31,0,.31.21-.18.08,0,.19,0,.31,0,.43.43-.07.51.21a3.32,3.32,0,0,1,0,1.13c-.09.34-.44.56-.51.82-.21.68-.59,1.19-.82,1.85.07.23.31-.23.51-.21.08-.23.36-.26.51-.41a2.62,2.62,0,0,1,1-.72,7.48,7.48,0,0,1,2.05-1.44,31.14,31.14,0,0,1,4.41-2.67C108.74,8,111.77,6.35,116.1,6h1.44a12.06,12.06,0,0,0,1.64.21,1.29,1.29,0,0,0,.72.41c.18.19.28.48.51.62s.21.47.51.51c.27,1.54,1.13,2.49,1.54,3.9a17.16,17.16,0,0,1-.1,4.93,39.73,39.73,0,0,1-2.16,4.93A16.56,16.56,0,0,0,119,23.71a2.42,2.42,0,0,0-.72,1,5.49,5.49,0,0,0-.72,1,57.91,57.91,0,0,1-4.11,4.62c-.41.17-.53.64-.92.82-.57.6-1.27,1.05-1.85,1.64a19.65,19.65,0,0,1-2.05,1.54,19.07,19.07,0,0,1-2,1.54c-1.47.86-2.86,1.8-4.31,2.67s-3,1.69-4.62,2.36a24.83,24.83,0,0,1-5.44,1.54,1.72,1.72,0,0,0,1,1.13c.22.5.84.59,1.13,1a8.51,8.51,0,0,0,1.33.82c.26.46.87.57,1.23.92.53.19.91.53,1.44.72a4.69,4.69,0,0,0,1.54.62,10.69,10.69,0,0,0,3.59.72c.49,0,.87-.16,1.33-.21a12.13,12.13,0,0,1,1.23-.51c.46-.12.6-.56,1.23-.51.36-.43,1-.62,1.33-1,.58-.18.77-.73,1.33-.92.78-.76,1.84-1.24,2.57-2.05-.08-.8.13-1.3.1-2.05a42.87,42.87,0,0,1,3-8.83c.69-1.26,1.26-2.64,1.95-3.9a7.42,7.42,0,0,0,.92-2.05c.57-.39.56-1.36,1.13-1.74a9.36,9.36,0,0,1,1-1.95c.24-.75.77-1.22,1-2,.72-1.23,1.49-2.41,2.16-3.7s1.53-2.37,2.36-3.49c.4-.6.84-1.15,1.23-1.74a2.52,2.52,0,0,0,.51-.92c.21,0,.2-.27.31-.41.25,0,.5,0,.51-.21a6.32,6.32,0,0,1,1.23.51,2.21,2.21,0,0,0,1.13.62c.42.81,1.47,1,1.74,2a13.52,13.52,0,0,1-.82,2.87,14.8,14.8,0,0,1-1,2.67,15.67,15.67,0,0,1-1,2.67,9.34,9.34,0,0,1-.51,1.33c-.12.46-.58.58-.62,1.13-.78,1.65-1.46,3.4-2.36,4.93.08.39-.3.32-.31.62a1,1,0,0,1-.31.62c-.11.5-.39.85-.51,1.33-.46.16-.37.86-.72,1.13-.13.45-.47.7-.51,1.23.85.16,1.72-.54,2.46-.82a8.06,8.06,0,0,0,2.26-1.13,32.34,32.34,0,0,0,4.21-2.57,57.63,57.63,0,0,0,7.6-6.06c2.34-2.21,4.61-4.49,6.77-6.88,1-1.26,2.15-2.44,3.08-3.8.52-.61.95-1.31,1.44-2a4,4,0,0,1,.72-1,1.78,1.78,0,0,1,.72-.92c-.06-.85.6-1,.72-1.64.44-.34.53-1,.82-1.54s.43-1.15.82-1.54a6,6,0,0,1,.62-1.64,6,6,0,0,1,.1-1.54c.23-.15.2-.55.51-.62a.73.73,0,0,1,.31-.21c1.4.27,2,1.33,3,2.05,0,.21,0,.32.21.31a1.35,1.35,0,0,0,.41.82,3.32,3.32,0,0,0,.21,1v3a6.33,6.33,0,0,0-.1,1.33,21.74,21.74,0,0,1-1.85,6A19.91,19.91,0,0,0,157.87,17a24.27,24.27,0,0,0-1.44,2.36c-1.09,1.51-2.26,2.94-3.39,4.41a68.69,68.69,0,0,1-12.21,11c-1.66.94-3.24,2-4.93,2.87a22.24,22.24,0,0,0-2.05.92c-.2.09-.41.22-.62.31-.45.19-.94.35-1.44.51A3.42,3.42,0,0,1,130.26,39.72ZM116.71,10.78c-.34-.1-1.09.27-1.74.21a56,56,0,0,0-14.27,7.7,104.16,104.16,0,0,0-11.5,10.47c-.23.76-.78,1.21-1,2a17,17,0,0,1-1.23,1.85c-.51,1.5-1.53,2.51-2.16,3.9.42.19.53.7,1.23.62.42-.2,1.15-.08,1.44-.41.3.11.91-.22,1.33-.31s.93-.37,1.54-.41c.83-.43,1.77-.76,2.67-1.13A15.1,15.1,0,0,1,95.57,34a7.65,7.65,0,0,1,2.36-1.44A18.63,18.63,0,0,1,100.19,31c.81-.46,1.46-1.07,2.26-1.54a20.47,20.47,0,0,1,2.16-1.64c.59-.67,1.4-1.13,2.05-1.74a3.2,3.2,0,0,1,1-.82c.31-.34.54-.76,1-.92.11-.5.76-.47.82-1a11.09,11.09,0,0,0,1-.92c.5-.76,1.41-1.12,1.74-2.05a1.29,1.29,0,0,0,.51-.41,5.15,5.15,0,0,0,.41-.51,6.71,6.71,0,0,0,.82-1.13c.4-.22.49-.74.82-1,.1-.55.62-.68.72-1.23.23-.08.13-.48.41-.51.25-.2-.17-.44.21-.51a6.54,6.54,0,0,0,.62-1.33,5.19,5.19,0,0,0,.62-3C117.16,10.68,116.85,10.64,116.71,10.78Z"/><path class="cls-1" d="M176.22,33.64c-.35.08-.17-.38-.41-.41s-.38-.17-.41-.41c-.2-.07-.27-.27-.31-.51-.3,0-.52,0-.62-.21a3,3,0,0,0-.82-1c0-.12,0-.18-.1-.21-.1-.82-.58-1.26-.72-2.05-.18-.26,0-.85-.41-.92a1.83,1.83,0,0,0-.21-1.13v-1a6.33,6.33,0,0,0-.31-1,12,12,0,0,0,.31-1.54c.56-.67.89-1.58,1.44-2.26s1-1.36,1.44-2.16a8.06,8.06,0,0,0,1.13-1.13c.11-.27.41-.35.51-.62s.48-.27.51-.62c.46-.3.64-.87,1.13-1.13.13-.59.79-.65.92-1.23a14.58,14.58,0,0,0,2.05-2.36,8.54,8.54,0,0,0,1.44-3c-.41-.26-.8.26-1.13.41-.58,0-.59.57-1.33.41-.06.35-.5.32-.62.62-.39,0-.5.32-.82.41-.45.33-1,.61-1.44.92a5.32,5.32,0,0,0-1.44.92,5.12,5.12,0,0,0-1.44.92,15.57,15.57,0,0,0-1.44,1c-.58.2-.79.78-1.33,1-.83.74-1.59,1.56-2.46,2.26a1.41,1.41,0,0,1-.62.62c-.23.18-.24.58-.62.62A5.07,5.07,0,0,1,167,20.09c-.62,1-1.51,1.64-2.05,2.67a15.7,15.7,0,0,0-1.85,2.87A10,10,0,0,0,162,29.23a6.52,6.52,0,0,0,.41,2c1.08,2,3.2,2.89,5.13,4a18.13,18.13,0,0,1,4.72,4.31,10.35,10.35,0,0,1,.82,3.18c.06.54-.18.78-.1,1.33a13.92,13.92,0,0,1-1,2.77,20.07,20.07,0,0,1-1.33,2.36,26.32,26.32,0,0,1-2.26,1.54,9.8,9.8,0,0,1-2.87.92,14.28,14.28,0,0,1-6.57-.41c-3.65-1.38-5.91-4.15-7.7-7.39a11.68,11.68,0,0,0-.31-1.44A37.28,37.28,0,0,0,150,33c.41.44.47,1.24.72,1.85s.53,1.12.72,1.74a1.92,1.92,0,0,0,.62.51c-.08.45.43.32.51.62a9.72,9.72,0,0,1,.92,1.23,9.75,9.75,0,0,1,.92,1.23,8.73,8.73,0,0,1,.82.82c.09.08.12.22.31.21a11.34,11.34,0,0,0,5.65,3.08c.56-.08.83.13,1.33.1a13,13,0,0,0,1.85-.21c.46-.09.68-.42,1.13-.51A7.71,7.71,0,0,0,167,42.36c.12-.14.32-.28.41-.41s.1-.43.21-.62.15-.11.21-.21a2.8,2.8,0,0,0,.41-1.64,2.59,2.59,0,0,0-1.33-1.85A10.19,10.19,0,0,0,165,36.41c-.44-.59-1.26-.79-1.85-1.23s-1.23-.83-2-1.13c-.48-.54-1.15-.91-1.64-1.44s-1-1.08-1.44-1.64a18.22,18.22,0,0,1-1-2.05c-.26-.76-.39-1.66-.62-2.46a12.89,12.89,0,0,0,.1-1.64c.66-3.51,2.32-6,3.9-8.62,1-1.08,1.93-2.24,2.87-3.39s2.09-2,3.08-3.08c.75-.31,1.08-1,1.85-1.33.43-.6,1.22-.83,1.74-1.33A23,23,0,0,1,174.17,5c2.75-1.39,6.28-2,9.55-2.87-.08-.26-.15-.47.1-.62.87-.11,1,.55,1.44.82.24.45.74.63,1,1a25.1,25.1,0,0,1,2.16,2.05.28.28,0,0,0,.21.31A14.65,14.65,0,0,1,190,10.34c-.22,0,0,.36-.1.51-.22.77-.32,1.66-.51,2.46a4.38,4.38,0,0,0-.51,2.16,1.21,1.21,0,0,0-.51,1,2.49,2.49,0,0,0-.62.92,8.38,8.38,0,0,0-.62.92,2.49,2.49,0,0,1-.41.41c0,.26-.16.32-.31.41a23.19,23.19,0,0,1-2.77,3.39c-1.1,1-2,2.12-3.18,3-.42.61-1.16.89-1.64,1.44-.62.37-1,1-1.64,1.33a.58.58,0,0,1-.1.31,9.14,9.14,0,0,0-.92,1.64A6.81,6.81,0,0,0,176.22,33.64Z"/><path class="cls-1" d="M197.21,54.4c-.34,0-.45-.31-.62-.51-.45.1-.46-.23-.62-.41s.06.47-.31.31a.72.72,0,0,1,0-.62c-.18-.19-.36.18-.31-.31-.17-.25-.28-.48-.62-.31a1.76,1.76,0,0,0-.21-1c0-.23-.54,0-.62-.21a.49.49,0,0,0-.31-.62,27.18,27.18,0,0,1-.41-4.21,22.09,22.09,0,0,1,.62-3.28c.26-1,.66-1.94.92-3a75.72,75.72,0,0,0-9,1.44A11,11,0,0,0,184.38,44a15.65,15.65,0,0,0-1,2.57c-.1.48.13.62.21.92-.49,0-.71-.18-1.23-.1-.15-.26-.25-.4-.1-.72-.24-.14-.58-.17-.82-.31s-.24-.52-.62-.31a7.17,7.17,0,0,1-.31-.82c-.2-.18-.57-.18-.82-.31-.1-.18,0-.55-.31-.51s-.14-.34-.41-.31a10.23,10.23,0,0,0-.31-1.44v-2a27.42,27.42,0,0,1,2.16-7.6c.17-.65.59-1.06.72-1.74.33-.46.46-1.12.82-1.54a1,1,0,0,1,.41-.82c-.08-.49.34-.48.31-.92.33-.46.53-1,.82-1.54a8.81,8.81,0,0,0,.82-1.64,7.56,7.56,0,0,0,.92-1.44,24.38,24.38,0,0,1,1.85-3c.56-1,1.19-2,1.74-3.08.32-.09.44-.38.51-.72.26-.15.36-.46.51-.72.43-.35.56-1,1-1.33.05-.36.27-.55.31-.92.49-.37.61-1.1,1.13-1.44.15-.7.68-1,.82-1.74.38-.21.53-.63.82-.92.11-.48.53-.64.72-1s.43-.73.72-1,.52-.64.82-.92a6.75,6.75,0,0,1,.72-1.44c.26.3.34.07.72,0,.11.27.42.34.82.31a.51.51,0,0,0,.51.41.48.48,0,0,0,.41.41,6.7,6.7,0,0,0,.72,1c.38,1.2-.1,2.58-.51,3.8-.07,3-1.13,5-2.05,7.18a16.81,16.81,0,0,1-1.54,3.08c-.48,1.06-1.13,1.95-1.54,3.08-1.18,1.9-2.1,4.06-3.28,6a9.45,9.45,0,0,1-.82,1.54,4.72,4.72,0,0,1-.82,1.44c-.12.67-.63.94-.72,1.64-.27.11-.21.54-.51.62.07.45-.3.46-.31.82a53.18,53.18,0,0,1,8-.41c.38-.14.34-.69.51-1,.34-.14.18-.78.51-.92a21.86,21.86,0,0,1,.92-2.05q1-2,1.85-4.11,2-3.86,4-7.8c.72-1.27,1.39-2.57,2.05-3.9.37-.63.67-1.31,1-2a17.22,17.22,0,0,0,1-1.85c.32-.19.32-.71.51-1a9.77,9.77,0,0,0,.51-.92,17.92,17.92,0,0,0,.92-2.05,1.73,1.73,0,0,0,.41-1.13,3,3,0,0,0,.51-.92c.37-.59.53-1.38.92-1.95,0-1.23.67-1.86.82-3,0-.17.1-.18.1-.31h.92a17.9,17.9,0,0,1,1.74,1.13c.11.37.4.56.62.82s0,.6.21.72a7,7,0,0,1-.1,1.74V7a6.31,6.31,0,0,0-.1,1.33c-.27,1.1-.36,2.37-.72,3.39a11.38,11.38,0,0,1-1,3,38.35,38.35,0,0,1-2.26,5.75c-.9,1.8-1.68,3.73-2.67,5.44-.33,1-.88,1.79-1.23,2.77a25.49,25.49,0,0,0-1.33,2.67A28.21,28.21,0,0,0,205.62,34a25.46,25.46,0,0,0-1.33,2.67A20.48,20.48,0,0,0,203,39.31,16.56,16.56,0,0,0,201.62,42c-1.83,3.51-3.75,6.92-4.72,11.29C196.93,53.72,197.25,53.87,197.21,54.4Z"/><path class="cls-1" d="M314.29,8.75c.14,0,.09.18.21.21.07.52-.21.75,0,1.13a8.15,8.15,0,0,0-.41,1.33,14.59,14.59,0,0,1-1.85,6.67,22.5,22.5,0,0,1-3.49,5.13c-.09.62-.65.79-.92,1.23a9.7,9.7,0,0,1-.92,1.23,6.89,6.89,0,0,1-1,1.13c-.16.56-.77.67-.92,1.23a10.48,10.48,0,0,0-3.28,5.34,5.13,5.13,0,0,0,.21,1.23c-.58-.07-1.13,0-1.33-.62-.24,0-.42.2-.62,0s-.31-.06-.51-.21c.06-.4-.18-.5-.1-.92,0-.24-.32-.23-.41-.41a3.84,3.84,0,0,0-.21-.72,7,7,0,0,0-.62-.82c.09-.6-.33-.7-.21-1.33-.33-.63-.76-1.15-1.13-1.74.06-.52.34-.82.31-1.44.14-.1.13-.35.31-.41s0-.44.1-.62a2.42,2.42,0,0,0,.62-1.13c.24-.37.62-.61.72-1.13.37-.21.48-.68.72-1a7.69,7.69,0,0,0,.82-1,47.63,47.63,0,0,1,3.49-3.8c.13-.45.52-.65.82-.92s.42-.81.92-.92c.11-.5.62-.61.82-1a5.47,5.47,0,0,0,.82-1c.42-.16.44-.73.82-.92a8.49,8.49,0,0,1,.72-1.13c.11-.5.51-.72.51-1.33.27-.41.57-.63.41-1.23-.26-.19-.67.35-1,.41a6.25,6.25,0,0,1-1,.62c-.65.65-1.51,1.09-2.16,1.74-.5.15-.73.57-1.13.82-.24.07-.27.34-.51.41a1.62,1.62,0,0,0-.62.41,21.5,21.5,0,0,1-2.26,1.64,9,9,0,0,1-2.16,1.74c-.45.54-1.12.86-1.54,1.44a2.23,2.23,0,0,0-.82.72,1.69,1.69,0,0,0-.82.72c-.38.09-.39.57-.82.62-.3.22-.4.63-.82.72-.05.46-.72.31-.72.82a5.42,5.42,0,0,0-.82.72c-.46.53-1,1-1.44,1.54-.64.39-.86,1.2-1.54,1.54a8.73,8.73,0,0,1-1.23,1.74c-.36.66-.73,1.32-1.13,2a13.45,13.45,0,0,0-.31,2.05,5.09,5.09,0,0,0,1,2.57c.27.35.58.65.82,1,.24.07.27.34.51.41,0,.3.44.18.41.51a18.58,18.58,0,0,1,4.11,3.18,15.94,15.94,0,0,1,2.26,3.8.87.87,0,0,0,.1.62v1.85a8.88,8.88,0,0,1-2,3.49,9.21,9.21,0,0,1-7.49,2.87,26.89,26.89,0,0,1-4.11-.92c-.72-.41-1.42-.84-2.16-1.23a12.33,12.33,0,0,0-2.05-1.44c-.38-1-1.24-1.49-1.64-2.46a3.48,3.48,0,0,0-.51-2.05,13.18,13.18,0,0,1,0-1.64c-.39-1.68-.09-3.85-.51-5.44.34-.49,0-1.61,0-2.36.23,0,0-.51.1-.72.32,0,.35.34.31.72s.17.51.1.92a12,12,0,0,0,.21,2,8.43,8.43,0,0,1,.51,1.33A19.63,19.63,0,0,0,279,40.68c.36.36.71.65,1,.92a8.76,8.76,0,0,0,.82.62c.31.21.55.53.82.72a10.88,10.88,0,0,0,2.67,1.23c.21.07.43.25.62.31s.36,0,.51,0,.2.19.31.21c.35.06.78-.12,1.13.1s.08-.33.41-.21h.82c.13,0,.14-.13.31-.1s.33-.22.51-.31.56-.06.62-.31c.51-.11.64-.6,1.13-.72.41-.92,1.14-1.53,1-3A2.81,2.81,0,0,0,291.1,39,21,21,0,0,0,287.3,36c-.81-.32-1.28-1-2.05-1.33a18.91,18.91,0,0,0-1.95-1.54c-.41-.79-1.13-1.27-1.54-2.05a8.69,8.69,0,0,1-.62-1.13c-.25-.37-.29-.94-.62-1.23a6.45,6.45,0,0,0-.31-1.85c-.08-.9.15-1.49.1-2.36a7.59,7.59,0,0,0,.51-1.74c.34-.52.62-1.1.92-1.64a17.59,17.59,0,0,1,1-1.64c.86-.88,1.61-1.88,2.46-2.77a57,57,0,0,1,5.44-5.13,34,34,0,0,1,6.26-4.21,23.27,23.27,0,0,1,7.9-2.67h1c1-.21,2.1-.3,3.08-.51.58-.1.7.26,1.13.31.13-.12,0-.39-.1-.51.16-.31.27.26.51.21.14.17.46.16.62.31.89,1.44,2.3,2.35,2.67,4.31.23,0,0-.44.1-.62.38.24,0,.84.1,1.44C314.33,9.54,314.27,9.11,314.29,8.75Z"/><path class="cls-1" d="M246.91,34a10.22,10.22,0,0,0-1.23,2.16c-.53.56-.68,1.51-1.23,2.05a8.53,8.53,0,0,1-1.13,2.26,11.14,11.14,0,0,1-1.13,2.16,14.11,14.11,0,0,1-1.13,2.26,21.46,21.46,0,0,1-1,2.26c-.25.85-.55,1.64-.82,2.46-.08.47-.06,1-.31,1.33.19.74-.56.54-.62,1-.72,0-.61-.83-.92-1.23-.1-.35-.61-.28-.72-.62.06-.53-.2-.76-.21-1.23a8.15,8.15,0,0,1-.92-2.36,22.39,22.39,0,0,1,1.23-8c.29-1.24.86-2.21,1.13-3.49.28-.47.47-1,.72-1.54a4.47,4.47,0,0,1,.72-1.54,30.49,30.49,0,0,1,1.33-3.28,7,7,0,0,1,.82-1.44,7.06,7.06,0,0,1,.62-1.64c-.07-.28.21-.2.31-.31a.67.67,0,0,1,.1-.51c.1-.27.35-.4.41-.72a7.18,7.18,0,0,1,.82-1.44,30.79,30.79,0,0,1,1.54-3c.23-.52.71-.8.92-1.33s.53-1,.82-1.44a28.09,28.09,0,0,1,1.74-2.77,52.64,52.64,0,0,1,4.11-4.82c.44.09.91-.31,1.23,0,.3-.09.35.12.92,0,.12.29.51.31.82.41a4.94,4.94,0,0,1,.82,1.13c0,.45.35.62.41,1.23a20.79,20.79,0,0,1-1.23,4.82c0,.22.32-.15.41-.21a.92.92,0,0,0,.41-.41c.45-.1.57-.53.92-.72a14.72,14.72,0,0,1,1.85-1.44c1.09-1.06,2.51-1.8,3.69-2.77,1.35-.84,2.81-1.57,4.21-2.36a19.31,19.31,0,0,1,4.82-1.64h.72a9.9,9.9,0,0,1,4.21.41c.41,0,.28.47.62.51s.35.41.62.51c.26.49.67.84.92,1.33.7.81.89,2.12,1.33,3.18.09.8.17,1.6.21,2.46A27,27,0,0,1,279,23.19c-.54,1-.95,2.13-1.44,3.18a29,29,0,0,1-1.74,2.87,4.73,4.73,0,0,1-.92,1.44c-.2.55-.74.76-.92,1.33-.72.82-1.55,1.53-2.26,2.36-.54.25-.83.75-1.33,1s-.92.59-1.23,1a26.94,26.94,0,0,0-2.77,1.85c-1.12.42-2.15.93-3.28,1.33a12.68,12.68,0,0,1-1.85.51c-.51.25-1.39.12-1.74.51a13.76,13.76,0,0,0-2.77.21H254.2a1.92,1.92,0,0,0-.82-.1,9.84,9.84,0,0,0-2.16-.82c-.72-.55-1.48-1.05-2.26-1.54-.11-.47-.39-.78-.51-1.23-.39-.28-.12-.61-.41-1,0-.35-.46-.29-.62-.51A4.51,4.51,0,0,0,246.91,34Zm26-23.3c-1.95,0-2.95,1-4.52,1.33-1.71,1.06-3.56,2-5.13,3.18a44.16,44.16,0,0,0-4.62,3.7c-1.45,1.32-2.92,2.62-4.31,4s-2.6,2.95-4,4.31c-.49.92-.94,1.86-1.44,2.77a27.25,27.25,0,0,0-1.33,2.87,6.78,6.78,0,0,0,2.05.92c.91,0,1.39.09,2.16,0a22.67,22.67,0,0,0,7.08-2.46c.64-.14,1-.61,1.54-.82.44-.38,1-.62,1.44-1a18.07,18.07,0,0,0,2.67-2.16A18,18,0,0,0,266.93,25c.8-.81,1.54-1.68,2.36-2.46a.86.86,0,0,1,.51-.62c0-.4.42-.4.51-.72a11,11,0,0,0,1-1.44c.78-.83,1.18-2,2.05-2.77.17-.92.75-1.44,1-2.26s.61-1.58,1-2.26c-.14-.83.3-1.25.1-1.85A7.7,7.7,0,0,0,272.88,10.67Z"/><path class="cls-1" d="M230.62,8.82c0-.09,0-.1.1-.1.68-.2.54.42,1.13.31.17.24.56.26.82.41.49.33,1.23.41,1.64.82a10.48,10.48,0,0,1,3.08,2,13.51,13.51,0,0,1,1.44,2.36,22.35,22.35,0,0,1,1.13,8,31.3,31.3,0,0,1-1.74,7.49c-1,2-1.85,4.24-3.18,6a2.55,2.55,0,0,1-.41.82c-.39.6-.93,1.28-1.44,2-.56,1-1.33,1.75-2,2.67A26.37,26.37,0,0,0,229.18,44,23,23,0,0,0,227,46.39c-.52.13-.66.64-1.23.72-.17.44-.64.59-1,.82a8,8,0,0,1-2.26,1.54,16.34,16.34,0,0,1-5.34,2.26,19.86,19.86,0,0,1-4.31,0,3.43,3.43,0,0,0-1.23-.41c-.51-.42-1-.82-1.54-1.23s-.81-1-1.23-1.54c-.06-.18-.05-.43-.21-.51s-.17,0-.31-.21c.2-.25-.19-.57-.31-.82a5.44,5.44,0,0,1-1-1.64c-.61-2.59,0-5.75.51-8.31A36.36,36.36,0,0,1,210,29.87c1-2.25,2.24-4.19,3.28-6.36.77-.84,1.26-2,2.05-2.77.62-1,1.46-1.69,2.05-2.67,2-1.72,3.71-3.75,6-5.23,2-1.66,4.66-2.73,7.08-4Zm-17.24,38.8c.63-.26,1.11-.67,1.74-.92a13,13,0,0,0,1.54-1.23c1.07-.78,2-1.72,3-2.57.31-.58.91-.87,1.23-1.44.3-.14.42-.47.72-.62,0-.48.69-.27.62-.82.37-.08.4-.49.62-.72s.38-.58.72-.72c.27-.65.93-.92,1.23-1.54A36.17,36.17,0,0,0,227,33.87c.85-1,1.45-2.25,2.26-3.28,0-.41.33-.56.51-.82s.2-.69.51-.82a5.63,5.63,0,0,1,.92-1.85c.24-.68.59-1.26.82-2,.4-.52.48-1.37.92-1.85.07-1.1.48-1.85.62-2.87a22.91,22.91,0,0,0,.31-3c-.06-1.31-.26-2.48-.41-3.7h-.21A.72.72,0,0,0,233,14a9.48,9.48,0,0,0-1.44,1.85,8.34,8.34,0,0,0-1.44,2c-.55.55-.81,1.38-1.33,2s-.69,1.57-1.33,2.05a4.06,4.06,0,0,1-.72,1.54,5.61,5.61,0,0,1-.72,1.54,16.71,16.71,0,0,0-.92,3.59c-.08.73.13,1.17.1,1.85a12.79,12.79,0,0,1,.72,1.13c0,.6.64.59.62,1.23-.46-.15-.61-.62-1.13-.72a12,12,0,0,0-1.95-2.36,12.53,12.53,0,0,1-1-1.64,7.9,7.9,0,0,0-.31-1.44c-.23-.24-.31.13-.41.31a1.45,1.45,0,0,0-.51.51c-.17.17-.17.51-.41.62s-.21.48-.41.62c-.37.31-.54.83-.92,1.13a9.85,9.85,0,0,0-.82,1.23c-.42.91-1.16,1.51-1.54,2.46-.56.81-1,1.71-1.54,2.57-.79,1.91-1.79,3.62-2.46,5.65-.38,1-.68,2-1,3s-1,2.25-.31,3.18A2.84,2.84,0,0,0,213.37,47.62Z"/><path class="cls-1" d="M311.29,8c-.12,0-.06-.15,0,0Z"/><path class="cls-1" d="M69.6,5.52c0-.09,0-.1.1-.1h.21a1.29,1.29,0,0,0,.72.41c.34,0,.36.39.62.51.19.52.74.7,1,1.13.5.05,1.24-.15,1.44.21a4,4,0,0,1,1.54.92c.1.32.64.18.82.41.33.08.45.37.72.51A14.38,14.38,0,0,1,79,16.3a20.93,20.93,0,0,1-.21,8.11,31.57,31.57,0,0,1-2.16,6.88A30.5,30.5,0,0,1,73.5,37a8.06,8.06,0,0,1-.92,1.33c-.3.45-.59.92-.92,1.33-.68.83-1.32,1.69-2.05,2.46s-1.45,1.56-2.05,2.46a23.16,23.16,0,0,1-2.36,2.05,19.82,19.82,0,0,1-2.57,2c-.14.1-.15.23-.31.31a5.8,5.8,0,0,0-.72.41,11,11,0,0,1-1.74,1c-1,.51-1.95,1.07-3,1.54s-2.14.8-3.28,1.13c-1,.07-1.9.29-3,.31a10.58,10.58,0,0,1-2-.51,9.81,9.81,0,0,1-.92-1A4.88,4.88,0,0,0,47,50.68c-.86-1-1.74-2-2.57-3a10.88,10.88,0,0,1-1.13-2.87c-.34-1-.37-2.3-.62-3.39V38.57A29.58,29.58,0,0,1,46.1,27c.54-.73.86-1.67,1.44-2.36.37-.87,1-1.5,1.33-2.36A45.14,45.14,0,0,1,52.05,18a43.15,43.15,0,0,1,7.7-7.29c.52-.42,1.07-.83,1.64-1.23.36-.25.72-.46,1.13-.72l1.13-.72A20.47,20.47,0,0,1,69.4,5.52Zm-19,42.39a3.05,3.05,0,0,1,1.23-.62c.18-.47.8-.5,1-.92.89-.37,1.39-1.14,2.26-1.54.65-.61,1.4-1.13,2.05-1.74A60.65,60.65,0,0,0,64.37,35a47.51,47.51,0,0,0,5.44-9.85,30.67,30.67,0,0,0,1.74-5.85,25.42,25.42,0,0,0,.51-6.77c0-.06,0-.12-.1-.1s-.13.28-.41.21c-1.29,1.55-2.43,3.25-3.59,4.93s-2.39,3.29-3.59,4.93C62.19,26,59.28,28.72,58.83,34a12.1,12.1,0,0,0,.31,2.26c0,.77.64,1.39.41,2.05-.4-.11-.45-.57-1-.51a17.54,17.54,0,0,1-.82-1.64c-.35-.09-.41-.48-.82-.51-.07-.37-.65-.24-.72-.62a6.48,6.48,0,0,1-.51-1.33s-.18-.06-.21-.1a2.61,2.61,0,0,1-.1-.31c-.05-.15-.06-.34-.1-.51s-.15-.35-.21-.51a12.74,12.74,0,0,1-.51-2.87c0-.57,0-1.18-.1-1.74-.32-.27-.36.4-.62.51-.06.38-.36.53-.51.82-.3.59-.75,1-1,1.64a14.9,14.9,0,0,0-1.85,3.49c-.44.45-.58,1.2-.92,1.74s-.47,1.31-.72,2a41.84,41.84,0,0,0-1.13,4.31,17.1,17.1,0,0,1-.21,2.36,18.52,18.52,0,0,0,.41,4.52A11.05,11.05,0,0,0,50.61,47.91Z"/><path class="cls-1" d="M51.85,5.83c1,0,1.3.73,2.16,1.13.14.44.76.4,1,.72a8.43,8.43,0,0,1,.72.92,6.2,6.2,0,0,1-1.13,1.85A16.18,16.18,0,0,1,53.28,12a8.32,8.32,0,0,1-1.74,2.87c-.06.7-.63.88-.82,1.44-.41.34-.51,1-1,1.23-.06.73-.62,1-.92,1.44a6.43,6.43,0,0,1-.92,1.33c-.36.39-.47,1-.92,1.33A6.33,6.33,0,0,1,46,23c-.17.61-.69.88-.92,1.44a5.69,5.69,0,0,0-.92,1.33c-.39.36-.58.93-1,1.23-.08.68-.71.8-.92,1.33a1.2,1.2,0,0,0-.41.82c-.33,0-.35.4-.51.62a7.08,7.08,0,0,0-.92,1.33,14.48,14.48,0,0,0-1.85,2.67c-.69.85-1.22,1.86-2,2.67-.47,1-1.29,1.72-1.74,2.77-1.28,1.77-2.36,3.73-3.7,5.44a6.36,6.36,0,0,1-.82,1.54c-.38.37-.45,1.05-.92,1.33a17,17,0,0,1-1.74,2.77,13.56,13.56,0,0,1-2.16,2.36,4.05,4.05,0,0,1-1.23,1,6.31,6.31,0,0,1-1.33.92c-.42.08,0-.66-.51-.51-.86-.24-1.44-.75-2.26-1-.24-.48-.73-.71-.92-1.23-.32-.36-.42-1-.72-1.33-.43-1-.87-1.93-1.23-3q-.15-1.7-.41-3.28a43.29,43.29,0,0,1,.72-9c-.37.31-.47.9-.82,1.23A11.53,11.53,0,0,0,16,37.65a23.25,23.25,0,0,0-1.44,2.46,49.62,49.62,0,0,0-2.87,5,9.69,9.69,0,0,0-1.44,2.57,23,23,0,0,0-1.44,2.46c-.44.9-.94,1.73-1.44,2.57A6.57,6.57,0,0,1,6.68,54c-.21.44-.37.93-.82,1.13-.61.16-.29-.6-.82-.51-.33-.08-.27-.55-.41-.82-.26.11-.36-.44-.51-.1s-.26,0-.51,0c-.23-.28-.23-.79-.62-.92a7,7,0,0,1-.82-.62C1.56,50.95.68,50,.42,48.53A29.12,29.12,0,0,1,.12,41a64.1,64.1,0,0,1,.82-7A65.9,65.9,0,0,1,3,25.43c.77-2.79,1.92-5.2,2.77-7.9.6-.9,1-2,1.54-3s1.05-1.89,1.64-2.77S10.21,10,10.79,9.11a6.4,6.4,0,0,0,.82-.92s.19-.07.21-.1a2.38,2.38,0,0,1,1.13-1.23c.27-.09.56.31.72,0,.23,0,.26.62.41.31.42.2.72.51,1.13.72s.76.47,1.23.62c.18.4.66.5.82.92a4.73,4.73,0,0,1-.51,2.36c-.15.87-.59,1.46-.72,2.36-.41.61-.56,1.49-.92,2.16,0,1-.65,1.41-.72,2.36-.31.21-.3.73-.72.82a2.49,2.49,0,0,1-.41,1.64c-.17.48-.15,1.15-.51,1.44a10.26,10.26,0,0,0-.41,1.54,4.46,4.46,0,0,0-.51,1.44c-.4.39-.11.84-.51,1.23.05.7-.47.83-.51,1.44-.29,1-.68,1.92-.92,3s-.65,2-.92,3.08c-.39.91-.53,2.07-.92,3C7.43,39.41,6.89,41,6.48,43.29c.84-1.42,1.48-3,2.26-4.52.3-.28.38-.78.62-1.13a6.72,6.72,0,0,0,.51-1.13c.34-.21.39-.7.62-1a6.27,6.27,0,0,0,.62-1c1.65-2.83,3.28-5.68,4.93-8.52a44.32,44.32,0,0,1,2.57-4.21c.91-1.32,1.8-2.65,2.77-3.9a3.84,3.84,0,0,0,.72-1c.32.05,0-.51.41-.41,0-.24.36-.19.31-.51.58-.52,1-1.21,1.54-1.74a30.07,30.07,0,0,1,3.08-3.59c.09-.46.48-.61.62-1a2.07,2.07,0,0,1,.72-.92,9.45,9.45,0,0,1,1.74,1c.48,0,.64.25.92.41s.33.56.92.41a14.33,14.33,0,0,1,.31,1.74c-.47,3-1,5.88-1.54,8.83-.45,1.29-.74,2.75-1.23,4-.18.68-.47,1.24-.62,1.95-.35.51-.28,1.43-.72,1.85-.78,2.68-1.68,5.23-2.57,7.8-.39,1.35-.85,2.64-1.23,4a16,16,0,0,0-.62,2,9.68,9.68,0,0,0-.62,1.95c0,.24.28,0,.21-.21a.28.28,0,0,0,.21-.31c.19-.15.24-.44.41-.62a9.85,9.85,0,0,1,.72-1.33c.34-1.06,1-1.8,1.33-2.87,1-1.73,2-3.59,2.87-5.44.57-.83,1-1.85,1.54-2.67.42-.95,1-1.71,1.44-2.67,1.12-1.65,2.08-3.47,3.28-5,1-1.79,2.36-3.25,3.49-4.93,1.41-1.36,2.39-3.16,3.9-4.41A31,31,0,0,1,47,9.83C48.44,8.48,50.13,7.4,51.54,6A.73.73,0,0,1,51.85,5.83Z"/><path class="cls-1" d="M149.22,40.75c0-.1.13-.08.21-.1S149.3,40.73,149.22,40.75Z"/></g></g></svg>