<svg xmlns="http://www.w3.org/2000/svg" viewBox="0 0 143.28 53.19"><defs><style>.cls-1{fill-rule:evenodd;}</style></defs><title>Asset 2</title><g id="Layer_2" data-name="Layer 2"><g id="Layer_1-2" data-name="Layer 1"><path class="cls-1" d="M117.31,35.22c.2.52.68.75.92,1.23.44.24.61.76,1,1a16.67,16.67,0,0,0,2.16,2,23.88,23.88,0,0,0,2.46,1.74,19.38,19.38,0,0,0,3,1.13A11.19,11.19,0,0,0,130,42.1c.76-.34,1.39-.8,2.16-1.13.72-.62,1.37-1.3,2.05-2,.21-.22.29.05.62,0,.78-.82,1.75-1.46,2.57-2.26.28.36-.46.56-.41,1-1.81,1.62-3.69,3.16-5.54,4.72-.81.9-1.81,1.61-2.67,2.46-.14.1-.38.1-.41.31-.25,0,.06.47-.31.31-.43-.33,0,.39-.51.31-.4.43-1.1.54-1.54.92a23.81,23.81,0,0,1-3.39.62,24.54,24.54,0,0,1-2.46-.1,15.44,15.44,0,0,1-7.08-3.49,14.12,14.12,0,0,1-2.57-2.67,5.09,5.09,0,0,1-1-1.64c-.56-.29-.54-1.17-1-1.54a36.52,36.52,0,0,0-1.64,4.21,13.14,13.14,0,0,0-.41,2,8,8,0,0,0,0,2.26c0,.36.35.34.41.62s.55.13.51.51a4.71,4.71,0,0,1-2.16-.92c-.41-.13-.21.34-.62.21-1.42-.49-3.05-.78-3.39-2.36-.25-.22-.45.23-.62.41a2.09,2.09,0,0,0-.62.62c-.5.33-.75.89-1.23,1.23-.93.71-1.54,1.74-2.46,2.46a13.46,13.46,0,0,1-6.36,3.39,1.92,1.92,0,0,0-.82.1,35.19,35.19,0,0,1-4.41-.21,25.72,25.72,0,0,1-4.41-2.05A11.75,11.75,0,0,1,78.41,49a11.05,11.05,0,0,1-1.74-1.44A17.31,17.31,0,0,1,74,43.74c-.54-.52-.63-1.49-1.13-2.05-.25-.82-.62-1.5-.82-2.36-.29.19-.33.63-.41,1-.25.23-.25.71-.41,1a13.91,13.91,0,0,0-.82,2.05,17,17,0,0,0-1.13,4.62,3.91,3.91,0,0,1,.1,1.13c.18.74.52,1.33.72,2.05-.7-.05-1-.53-1.23-1-.33.06-.48-.07-.72-.1-.11-.54-.65-.65-.82-1.13a4.77,4.77,0,0,1-.92-.41,9.06,9.06,0,0,1-1.85-3.08,23.23,23.23,0,0,1-.1-6.67c.4-1.69.72-3.45,1-5.23.77-1.33.73-2.95,1.44-4.41.21-.93.35-1.29.51-2.26.34-.65.39-1.6.92-2.05A5.85,5.85,0,0,1,68.87,23c-.07-.48.49-.27.21-.72a1.72,1.72,0,0,0,.31-.82c.31-.48.34-1.24.72-1.64.09-.67.53-1,.62-1.64a4.29,4.29,0,0,1,.62-1.13c-.07-.45.17-.58.1-1,.36-.26.38-.86.72-1.13.18-.44.17-.63.41-1.13.55-.61.78-1.55,1.33-2.16.06-.52.46-.71.62-1.13a5.94,5.94,0,0,0,.62-1.13A8.67,8.67,0,0,0,76.46,7.2a46.23,46.23,0,0,0,3.18-4c.41.07.69.27,1.13.31a7.4,7.4,0,0,0,.92.21c.25.23.56.4.82.62s.39.57.82.62c.3.63.9.94,1.23,1.54a4.67,4.67,0,0,1-1,2.26,15,15,0,0,1-.92,2.57c.33.19.69-.47,1-.62s.64-.52.92-.82c.82-.38,1.4-1,2.16-1.44,1.52-.87,3-1.77,4.62-2.57C94.63,4.4,98,3,102.84,3.1c.1.17.44.11.62.21.66.27.95.9,1.74,1,.15.29-.1.57.31.72a3.19,3.19,0,0,0,.82.72c0,.35.28.13.1.51.21,0,.2.28.41.31.07.31-.18.3-.1.62a7,7,0,0,1,.72,2.26v2.67c-.27,1.84-.79,3.44-1.23,5.34-.43.7-.66,1.6-1,2.36a12.47,12.47,0,0,1-1.33,1.95A30.67,30.67,0,0,1,97.71,29c-.72.41-1.18,1.08-2,1.44-.48.62-1.32.87-1.85,1.44-.76.37-1.3,1-2.05,1.33a5.52,5.52,0,0,1-1,.62c0,.24-.45.1-.51.31s-.25.3-.51.31a25.5,25.5,0,0,1-10.06,3.28c-.2.25.26.5.31.82.26.19.29.6.62.72a4.28,4.28,0,0,0,1.13,1.54,3.48,3.48,0,0,0,1.13,1.54c.16.73.8,1,1,1.64a31.29,31.29,0,0,0,5,4,16.89,16.89,0,0,0,3.08.72,8.14,8.14,0,0,1,1.85,0A10.38,10.38,0,0,0,97,47a4.7,4.7,0,0,0,.92-.92c.31-.31.74-.49,1-.82a21,21,0,0,0,1.85-1.85,41.3,41.3,0,0,1-.21-4.41c.16-.49.21-1.09.41-1.54v-.82c.29-1.49.8-2.76,1-4.31.52-1.23.69-2.8,1.33-3.9a15.61,15.61,0,0,1,1-3.49c.34-1.17.83-2.18,1.13-3.39.89-2.12,1.65-4.37,2.57-6.47S110,11,110.74,8.74c.94-2,1.67-4.21,3.18-5.75a3.57,3.57,0,0,1,.51-1.33c.32.09.46.36.82.41.19.1.34-.31.41,0s.2.15.21.31c.37,0,.49-.19.82-.21.14.57.7.73,1.33.82.18.57.85.66,1.23,1,.5.76.38,2.16.62,3.18a21.73,21.73,0,0,1-1.44,6.06,52.33,52.33,0,0,1-2.05,5.44c-.21,1.06-.78,1.75-1,2.77-.44.79-.64,1.82-1.13,2.57-.61,1.85-1.42,3.51-2.16,5.23.31.2.63-.46,1-.51.27-.28.64-.45.92-.72.71-.42,1.23-1,2-1.44a67,67,0,0,0,5.13-4.93c.2-.35.56-.54.82-.82a3.71,3.71,0,0,1,.82-.82c1.07-1.16,2-2.44,3.18-3.49.13-.45.52-.65.82-.92s.51-.58.72-.92c.57-.56,1-1.23,1.64-1.74,1-1.2,2-2.49,3.08-3.59s2-2.45,3-3.69a19.3,19.3,0,0,1,1.44-2,23.06,23.06,0,0,1,1.23-2.05c.17-.42.13-1,.41-1.33a.52.52,0,0,1,.31-.31c.39-.08.49.13.82.1.41.17.54.63,1.13.62.12.42.6.49,1,.62a4.16,4.16,0,0,0,1.33,1.44c.13.32.29.6.41.92a21.14,21.14,0,0,1-.72,4.72c-.13.41-.35.82-.51,1.23a23.49,23.49,0,0,1-2.46,4.72,26.25,26.25,0,0,1-2.87,4.31,42.14,42.14,0,0,1-3.18,4,10,10,0,0,1-1.74,1.85c-.15.47-.6.63-.82,1-.43.15-.46.7-.92.82a20.41,20.41,0,0,1-3.8,3.39A28.21,28.21,0,0,1,117.31,35.22ZM101.4,7.31c-.13,0-.14.13-.31.1-1.14.3-2.18.7-3.39.92a23,23,0,0,1-3.08,1.44,4.84,4.84,0,0,1-1.54.72c0,.33-.4.35-.62.51s-.49.26-.72.41C90.83,12,90,12.62,89,13.16s-1.68,1.33-2.57,2a55.76,55.76,0,0,0-4.72,4.31c-1.55,1.5-2.84,3.25-4.31,4.82-1,2.81-2.11,5.41-3,8.31.84-.19,1.44-.62,2.26-.82l2.16-.92a20,20,0,0,0,2.05-1,14.1,14.1,0,0,0,2-1.13c.77-.26,1.18-.87,2-1.13.51-.52,1.26-.79,1.74-1.33A20.18,20.18,0,0,0,90,23.52c.41-.1.58-.45.82-.72a2.24,2.24,0,0,0,.82-.72c.41-.1.58-.45.82-.72s.44-.59.82-.72a11.32,11.32,0,0,1,1.54-1.54c.33-.7,1.05-1,1.33-1.74a1.55,1.55,0,0,0,.72-.82,2.24,2.24,0,0,0,.72-.82c.54-.48.86-1.2,1.44-1.64.8-1.28,1.65-2.53,2.36-3.9,0-.62.31-.92.31-1.54a.92.92,0,0,0,.21-.72c0-.34,0-.68-.41-.62Z"/><path class="cls-1" d="M43.72,16.13c-.1,0-.08.13-.1.21a1.47,1.47,0,0,0-.72,1c-.09,0-.1,0-.1.1s.11,0,.1-.1a1.93,1.93,0,0,0,.72-1c.1,0,.08-.13.1-.21a12.64,12.64,0,0,0,1.33-1.64A6.66,6.66,0,0,0,46.49,13c.68-.31,1-1,1.64-1.33a8.61,8.61,0,0,1,1.64-1.33c1.12-.86,2.5-1.47,3.7-2.26,1.59-.39,2.78-1.19,4.31-1.64a2.55,2.55,0,0,1,1-.51c.46-.13.65-.14.92-.21s.39.16.72.1.38.23.51.41A.28.28,0,0,0,61.27,6c.14.27.54.28.72.51s.5-.23.51,0c.33,0,.3.46.72.41.57.86,1.4,1.47,2,2.36a13,13,0,0,1,1.54,2.87c.29.16.2.69.62.72a2.07,2.07,0,0,0,.51.92,4.91,4.91,0,0,0,.31,2.05c-.07.58.17.85.1,1.44.26.13-.1.5.1.51a.33.33,0,0,1-.1.51c.09.22.31.3.31.62.08.93-.12,1.59-.1,2.46a3.49,3.49,0,0,0-.21,1.44,4.89,4.89,0,0,0-.31,1.54c-.18.09-.19.36-.31.51a14.86,14.86,0,0,1-.72,3.28,22.12,22.12,0,0,1-1,3,44.82,44.82,0,0,1-2.36,5.65,47,47,0,0,1-3,5,12,12,0,0,1-1.74,2.26c.06.36-.36.25-.31.62-.36,0-.23.45-.51.51-.16.53-.66.71-.82,1.23A28.66,28.66,0,0,0,54.6,49c-1,.52-1.58,1.37-2.77,1.64a.1.1,0,0,0,0,.21c-.07.28-.54-.29-.41.31-.15.06-.53-.12-.51.1.26.19-.17,0-.31,0a4.3,4.3,0,0,1-.41.62c-.33.13-.08-.33-.41-.21s-.06.55-.41.51c0-.51-.44-.24-.31.21-.14,0-.12-.23-.21-.31-.2.35-1,.09-.92.72-.59-.26-.84.1-1.23.31-.11,0-.26,0-.1-.1,0-.12-.16-.11-.31-.1-.38-.11-.33.22-.51.31-.53,0-1.34-.39-1.64,0-.14,0-.31-.42-.41-.1a14.36,14.36,0,0,0-1.54-.51,10.58,10.58,0,0,1-1.64-.51c-.08,0-.2,0-.21-.1s.06-.1,0-.1,0-.1-.1-.1-.08-.12-.1-.21c-.43,0-.52-.37-.82-.51a.88.88,0,0,1-.72-.51c-.16-.19-.4.15-.62-.1a8,8,0,0,0-1.44-1.54,2.37,2.37,0,0,0-.92-1.33,2.33,2.33,0,0,0-1-1.33,1.6,1.6,0,0,0-.31-.82,7.24,7.24,0,0,0-.21-2A13.57,13.57,0,0,1,34.28,40c0-1.26.52-2,.51-3.28a9.76,9.76,0,0,0,.62-2.57,20.2,20.2,0,0,1,.72-2.26c.47-1.65,1.14-3.1,1.64-4.72.45-.61.59-1.53,1-2.16a2.24,2.24,0,0,1,.51-1,3.46,3.46,0,0,1,.51-1.13c.67-1.48,1.49-2.82,2.26-4.21,0-.11-.13-.08-.1.1-.12,0-.16.11-.21.21-.31,0-.1.52-.41.51a2.58,2.58,0,0,1-.72,1.13A9.76,9.76,0,0,1,39.2,22.8c.11.38-.38.16-.31.51a4.54,4.54,0,0,0-.41.51c-.31.31-.35.88-.72,1.13a9.74,9.74,0,0,1-.62,1.13c-.38.24-.48.75-.92.92-.14,1.09-1,1.47-1.23,2.46-.63.64-.87,1.67-1.44,2.36-.4.83-.81,1.66-1.23,2.46A21.14,21.14,0,0,1,31,36.76c-1.53,3.5-3.29,6.77-4.82,10.26a3.65,3.65,0,0,0,.21,1.23c-.34.37-1.19.25-1.74.41a5.79,5.79,0,0,1-2.05-.82c-.72-.27-1-1-1.74-1.23a14.49,14.49,0,0,1-1.13-2.67,14.51,14.51,0,0,0-.31-2.46V38.3A4.72,4.72,0,0,0,19.5,37c.34-2.33.78-4.56,1.23-6.77S22,26,22.47,23.83c-.54.22-.58.92-1,1.23-.22.53-.64.86-.82,1.44a2,2,0,0,1-.51.41c0,.24-.18.3-.1.62a1.89,1.89,0,0,0-.72.41c-.15.5-.53.77-.72,1.23-.38.31-.47.9-.92,1.13.09.33.09.21-.1.41-.21,0,0,.45-.31.41-.22.26-.27.68-.51.92,0,.43-.5.45-.51.92a9.27,9.27,0,0,1-.72.82,1.55,1.55,0,0,1-.51.92c-.23.25-.14.82-.62.82,0,.52-.41.61-.41,1.13-.46.12-.37.79-.82.92.07.31-.1.37-.1.62-.62.44-.68,1.44-1.33,1.85,0,.31,0,.63-.31.62-.13.33.33.08.21.41a.48.48,0,0,1-.31-.1c-.18.71-.73,1-.92,1.74-.06.18-.31.17-.41.31s-.24.38.1.31a4.78,4.78,0,0,0-1.33,2.05,11.94,11.94,0,0,1-1.23.92c-.05.36-.27.55-.31.92a18.4,18.4,0,0,1-1.54,1.54,7.09,7.09,0,0,1-1.54.1c-.47-.07-.76-.34-1.23-.41a.28.28,0,0,0-.31-.21,4,4,0,0,0-.62-.62c-.14-.31-.54-.35-.72-.62A8,8,0,0,1,.71,45c-.05-.41-.15.41-.21,0,0-.21-.24-.24-.31-.41s.25-.37-.1-.31a25.58,25.58,0,0,1,0-4.41,1.36,1.36,0,0,1,.21-.72c-.21-1.2.42-2.18.31-3.39.29-1.08.35-2.39.72-3.39.43-2.34,1-4.52,1.64-6.67s1.17-4.31,1.85-6.36c.33-1,.73-2,1.13-3s1-1.84,1.23-3a6.56,6.56,0,0,0,.92-1.44c.2-.59.65-.93.82-1.54a8.14,8.14,0,0,0,.72-1.64,4,4,0,0,0,.82-1.54c.63-.33,1-.91,1.64-1.23a1.92,1.92,0,0,0,.82.1c.44.08.55.48,1.13.41a2.21,2.21,0,0,0,1.23.82c.27.45.8.64,1,1.13a18.89,18.89,0,0,1-.62,2.16c0,.48-.18.78-.21,1.23-.26.22-.18.77-.51.92a2.72,2.72,0,0,1-.51,1.64,3.66,3.66,0,0,1-.72,1.54,11.16,11.16,0,0,1-1.13,2.77,12.12,12.12,0,0,1-.51,1.44c-.21.14-.23.46-.31.72-.26.08,0,.66-.41.62.08.39-.13.49-.1.82a35.77,35.77,0,0,0-1.64,4c-.44,1.44-.57,3.19-1.13,4.52C8.45,32,8.15,33,8,34.09c.22.28.23-.52.51-.51A1.74,1.74,0,0,1,9,32.76a5.68,5.68,0,0,1,1-1.64A9.82,9.82,0,0,0,11,29.37c.32-.13.34-.55.51-.82.36-.08.12-.77.62-.72a.64.64,0,0,1,0-.51c.21-.2.34-.49.62-.62,0-.27,0-.59.1-.72s.32-.22.51-.31c0-.33.18-.43.1-.82.18-.19.3.12.51-.1-.1-.44.11-.57.21-.82.4,0,.11-.64.31-.82A2.48,2.48,0,0,1,15,22.6c.17-.55.28-1.16.82-1.33,0-.8.58-1.06.82-1.64.18-.23.27-.55.51-.72,0-.37.17-.65.51-.72a4.41,4.41,0,0,1,1-2c.22-.8.85-1.2,1.13-1.95.87-1.18,1.72-2.39,2.57-3.59.26-.25.43-.59.72-.82a2,2,0,0,1,.72-.82c.1-.41.45-.58.72-.82.1-.41.45-.58.72-.82s.48-.54.72-.82a2.75,2.75,0,0,0,.72-.82A4.39,4.39,0,0,0,27.5,5c.37-.14.44-.59.82-.72a4.32,4.32,0,0,1,.41-1.23,7.91,7.91,0,0,0,1.74-.21c.2,0,.19.29.51.21s.29.33.51.41.37-.11.62-.1c-.28.48.43.42.51.82.3.22.4.63.82.72,0,.25,0,.5.21.51V7c-.34,1.48-.46,3.17-.72,4.72a9.15,9.15,0,0,0-.62,3c-.21.23-.21.68-.41.92a12.31,12.31,0,0,1-.62,3.28c.09.67-.21,1-.21,1.54-.27.31-.12,1-.41,1.33a7.31,7.31,0,0,1-.41,2.16c-.27.62-.29,1.49-.62,2.05.54-.21.56-.94.92-1.33s.58-.93.82-1.44c.64-.9,1.22-1.86,1.85-2.77.21-.55.72-.79.82-1.44.4-.36.61-.9,1-1.23A19,19,0,0,1,36.95,15c2.48-3.65,5.29-7,8-10.37,1.36,0,2-.24,2.87.31.31,0,.17.37.41.41s.31.31.62.31a14.58,14.58,0,0,1,.72,1.54,16.5,16.5,0,0,0-1,1.85c-.29.19-.3.66-.62.82s-.28.74-.72.82c0,.67-.62.68-.62,1.33-.24,0-.19.36-.51.31a4.78,4.78,0,0,1-1.23,1.85C44.65,15,44,15.34,43.72,16.13ZM42,47.85V48c.47-.18.54-.76,1.23-.72-.06-.44.22-.53.41-.72v.31c.28-.06.4-.28.41-.62.58.11.59-1.06,1.23-.72-.07-.44.24-.51.51-.62.1-.21.21-.41.31-.62.6-.28.78-1,1.44-1.23a4.77,4.77,0,0,1,1.23-1.33c.62-1.19,1.65-2,2.26-3.18.36-.08.35-.54.82-.51,0-.18-.13-.22-.1-.41.44-.28.54-.9.92-1.23.18-.51.62-.75.72-1.33a21.37,21.37,0,0,0,1.54-2.57,28.13,28.13,0,0,0,1.33-2.77c.39-.3.38-1,.72-1.33.16-.53.51-.86.51-1.54a53.94,53.94,0,0,0,2.26-5.75c.32-1.77.82-3.36,1-5.23V13.87c.06-.34.07-1.23-.31-1.44a4.2,4.2,0,0,1-.72,1.13c-.13.45-.6.56-.62,1.13-.23.12-.34.34-.62.41v.51c-.38,0-.26.15-.21.41-.34,0-.39.29-.41.62-.38.1-.43.53-.72.72a4.59,4.59,0,0,1-.31,1.23c-.18.13-.21.41-.41.51,0,.32-.13.42-.31.51,0,.24-.18.3-.1.62-.4-.06-.26.42-.51.51-.09.26-.28.4-.31.72-.2.09.11.06.1.21-.22.1-.5.41-.31.62-.33,0-.2.55-.41.72A9.62,9.62,0,0,0,54,24.65c-.08.22-.39.23-.41.51,0,.09-.09.18-.21.21.17.71-.5.8-.21,1.33-.37.18-.42.67-.51,1.13a1.93,1.93,0,0,0-.31,1.23c-.08.16-.33.15-.31.41.17,0,.19.08.21.21-.13-.11-.21-.09-.21.1a11.21,11.21,0,0,0,.41,3.49c-.17,0-.18-.1-.31-.1.2.79.87,1.12,1.13,1.85-.53-.56-1.74-.45-2.16-1.13-.38.19-.62-.15-1-.21,0-.17-.08-.19-.21-.21a7.34,7.34,0,0,0-1.23-1.64,19.14,19.14,0,0,1-.92-2c-.17-.93-.24-1.95-.41-2.87a28.14,28.14,0,0,0-1.74,3,6.64,6.64,0,0,0-.82,1.54c-.53.22-.43,1.08-.92,1.33-.32,1.6-1.23,2.6-1.54,4.21a10,10,0,0,0-1,3.08c-.48.44-.39,1.46-.72,2.05-.35,2.16-.94,3.85-.72,6.36-.25-.16-.3.35-.1.31,0-.52.14.21.31.21.1-.21.39-.22.72-.21a1.91,1.91,0,0,1,.62-.31C41.36,47.9,41.69,48.09,42,47.85Zm.31-29.35a6.77,6.77,0,0,1,.51-.82C42.45,17.71,42,18.2,42.28,18.49Zm-2.67,31.1c.2,0,.2-.14.31-.21.08.38.7.09.72-.21-.25-.22-1,.38-1-.21C39.61,49.36,39.5,49.27,39.61,49.59Z"/><path class="cls-1" d="M14.16,23.93c-.12,0-.06-.15,0,0Z"/><path class="cls-1" d="M10.57,42.51c-.05-.05.07-.13.1-.1S10.6,42.54,10.57,42.51Z"/><path class="cls-1" d="M42,47.85c0-.12.15-.06,0,0Z"/><path class="cls-1" d="M41.26,48.36c-.09.15-.33.15-.51.21C40.67,48.21,41.1,48.2,41.26,48.36Z"/><path class="cls-1" d="M40.33,48.46h.21c0,.22-.15.2-.31.21C40.25,48.59,40.33,48.57,40.33,48.46Z"/><path class="cls-1" d="M39.92,48.77c0-.1.13-.08.21-.1S40,48.75,39.92,48.77Z"/><path class="cls-1" d="M40.23,51.75c0,.09,0,.1.1.1V52C40.17,52,40.06,51.82,40.23,51.75Z"/><path class="cls-1" d="M46.18,53.08c0-.1.13-.08.21-.1S46.26,53.06,46.18,53.08Z"/></g></g></svg>