<svg xmlns="http://www.w3.org/2000/svg" viewBox="0 0 183.1 122.4" enable-background="new 0 0 183.1 122.4">
  <title>Carla Hackett</title>
  <g fill-rule="evenodd" clip-rule="evenodd">
    <path d="M103.8 16.7c-.1-.1-.1 0 0 0-.2 0-.1.1 0 0-.1 0 0 0 0 0 0 .3-.3.3-.3.6-.1 0-.1-.1-.2-.1-.2.1.1.1 0 .3-.2.2-.2.5-.4.6V18c-.1 0-.1.1 0 .1 0 .1-.1.1-.1.2-.2-.1-.3.1-.4.2 0 .1.1 0 .1-.1.1.4-.4.8-.4 1.2-.1 0-.1.1-.2.1-.1.5-.3.8-.6 1.1-.2.5-.6.9-.8 1.3-.3.4-.6.8-1 1.1 0 .2-.1.2-.2.4-.1.1-.2.1-.4.2 0 .1.1.1 0 .2h-.2c-.1 0 0 .4-.4.4 0 .4-.3.4-.4.7-.2 0-.2.1-.4.2h-.1c0 .1 0 .1.1.1 0 .2-.2.1-.1.3-.1 0-.1.1-.2 0 0 .1-.1.1 0 .1-.2.1-.3.2-.5.3v.3c-.5.3-.9.9-1.3 1.3-.1 0-.1-.1-.1-.2 0 .1-.2 0-.2.1-.1 0 .1.2-.2.1 0 .2.3.1.3.4-.1.1-.1 0-.3 0 0 .1 0 .1.1.1 0 .1-.1.1-.2.1 0 .2-.1.1-.2.1 0 .1-.1.1 0 .2-.1.2-.3-.1-.5 0 0 .2.2.1.2.4-.2 0-.2.2-.5.2v.2c-.2 0-.2.1-.3 0-.1 0-.1.2-.2.2-.1.2-.3.2-.4.4.1.1.1 0 0 0s-.1.1-.1.2c-.2 0-.2.1-.3 0-.1.1-.1.2-.2.3-.2-.2-.3.1-.5.2-.1 0-.1-.1-.2-.1s.1.2-.2.2c-.2-.1 0-.2-.1-.2-.2-.1-.1.2-.1.3-.2 0-.2.2-.3 0 0-.2.2-.1.2-.3 0-.1-.1 0-.2 0 0-.1.2-.1.1-.2-.3.1-.3.2-.2.5-.2 0-.3-.3-.2 0-.3 0-.3-.4-.6-.4v-.3c-.1 0-.2.1-.3-.1-.3.3-.4.9-.7 1.2 0 .3-.1.5-.3.7v.3c-.1.1-.1.2-.2.3-.1.7-.5 1.1-.7 1.8-.2 0 0-.2-.1-.2-.2.1 0 .3.1.3-.1.3-.3.5-.4.7v.4c-.1.1-.1.3-.2.3-.1.5-.2.8-.3 1.1 0 .1-.1.1-.1.1 0 .1.1.1 0 .2l-.1.1c-.1.2 0 .5-.1.7-.3 1-.3 2-.6 2.9.1.5-.1 1.2-.2 1.7-.1.1-.3 0-.2.2.1.2.2-.1.3 0 .1.1 0 .3 0 .5.1.1 0 .3.1.5-.1.2.2.3 0 .4.1.3.4.4.4.8 0 .1.2 0 .2.1s0 .1-.1.2c.1.2.4.2.4.5.3 0 .4.2.7.3.6.1.7.1 1.4 0 .1.2.5.1.6-.1.3 0 .5.1.6-.1-.3-.1-.9.1-1.2.2 0 0 0-.1-.1-.1-.5-.1-1 .1-1.4 0 .6-.1 1.4 0 1.9-.2 0-.1-.1-.1-.2-.1.3-.3.7-.3 1.1-.4.1-.1.2-.1.2-.2.4-.1.7-.4 1.1-.6.3-.3.7-.5.9-.8.1 0 .2-.1.3-.2.1-.2.4-.4.5-.6.3-.1.4-.4.6-.6.3-.5.7-.9 1-1.4l1.8-3c.1-.2-.1-.3 0-.5-.1-.2-.2-.4-.3-.5 0-.2.1-.1.1-.3-.1-.1.1-.3-.1-.3 0-.1.1-.1.1-.2 0-.3 0-.4-.1-.6 0-.2.1-.3 0-.4.2-.3.2-.5.2-1 .1-.5.2-.6.3-1.1.1 0 .1-.1.2-.1-.2-.2.1-.4 0-.7.2-.2.4-.3.3-.6.2-.2.3-.5.4-.9.3-.3.4-.9.7-1.3 0-.3.2-.4.3-.7.2 0 .2-.3.3-.3.1-.6.5-.8.6-1.3.3-.4.5-.8.7-1.2.2-.4.5-.7.7-1.2.3-.4.4-.8.8-1.1.4-.8.9-1.5 1.5-2.1.5-.7 1.1-1.3 1.7-1.8.6-.6 1.3-1.1 1.9-1.7.3-.3.6-.6 1-.8.1-.2.3-.3.5-.4.1-.2.4-.2.5-.4.3 0 .4-.3.7-.4.2-.3.6-.3.8-.6.1 0 .1-.1.2 0 .5-.3 1.1-.6 1.6-.8.3-.1.6-.2.8-.4.3-.1.6-.2.9-.4.2 0 .3-.1.6-.1.3-.1.7-.2.9-.3h.5c1-.2 1.6-.3 2.5-.1.1 0 .3.1.5.1 1.1.4 1.9 1.1 2.4 2 .1.1.2.3.3.4v.2c.1.1.2.3.3.4.2.4.1.9.4 1.1-.1.3.3.6.4.9-.2.7-.3 1.5-.7 1.9 0 .2.1 0 .3.1 0 .5.3.6.3 1-.4 0-.7.2-1 .3-.5.4-.9.9-1.4 1.3-.3.6-.7 1-1 1.5-.4.4-.7 1-1 1.5-.3.6-.6 1.1-.9 1.6-.1.3-.3.6-.4.8-.2.2-.2.7-.4.9 0 .3-.1.4-.2.6v.3c-.1.1-.1.4-.2.5 0 .3-.1.6-.1.9v.5c0 .1 0 .1-.1.2v.7c0 .1 0 .1.1.2v.5c.2 1.1.4 2.3.9 3.1.9 0 1.6-.3 2.1-.7.6-.3 1.1-.8 1.7-1.2.4-.3.7-.6 1-.9.2-.1.3-.3.5-.4.2-.2.3-.4.5-.5 0-.2.2-.1.1-.3.3-.2.5-.5.8-.7.7-.7 1.4-1.5 2-2.3.4-.3.6-.8 1-1.2.1-.2.3-.4.4-.6.1-.2.3-.4.5-.6.3-.4.6-.7.8-1.1.1-.2.2-.4.4-.6.1-.2.2-.4.5-.5.2-.5.6-.8.9-1.2.1.2-.3.3-.3.6-.2.2-.2.5-.4.6 0 .3-.2.4-.3.6-.1.2-.2.4-.4.5-.1.4-.4.5-.4.9-.3 0-.1.5-.5.5.1.2 0 .2 0 .4-.3-.1-.1.2-.2.3-.1 0-.1-.1-.1-.2-.2.1-.2.3-.3.4.1.1 0 .1.2.1-.2.2-.2.7-.6.7 0 .2-.1.2-.1.4-.1 0-.1-.1-.1-.2-.1 0-.2.1-.2.3.1.2 0-.2.2-.1-.1.2-.1.5-.3.3.1.2-.1.3-.1.6-.2-.1-.1-.1 0-.2-.3.1-.1.6-.4.6 0 .5-.3.7-.4 1-.1 0 0-.1-.1-.1-.1.1-.1.2-.1.3-.1.1-.2.1-.2.3-.2 0-.3.1-.2.3-.1 0-.1 0-.1-.1-.1.2-.3.2-.2.5h-.2c-.1.1-.1.3-.3.3 0 .2-.1.3-.3.3-.1.2-.2.4-.4.4 0 .1-.1.1-.1.3-.1 0-.1.1-.2.1-.1.2-.2.3-.3.4-.1.2-.3.2-.4.4-.4.1-.5.5-.8.6 0 .2-.3.2-.4.4-.1 0-.1.1-.3.1-.1.2-.3.3-.4.5-.3-.1-.3.1-.4.3-.2 0-.3.2-.5.1-.2.1-.3.3-.6.3-.1 0-.1.1-.1.2h-.3c-.5.3-1.4.3-2.1.3-.1 0-.2-.1-.3-.1-.4 0-.7 0-.9-.2-.8 0-1.2-.4-1.7-.7-.1-.1-.1-.3-.3-.3 0-.1-.1-.1 0-.2-.3-.2-.3-.7-.5-.9 0-.4-.2-.7-.2-1 0-.2-.1-.1-.1-.2.1-.3-.1-.4 0-.6-.3-.5-.2-1.4-.3-2-.2.1-.3.4-.4.6-.2.1-.3.4-.6.5 0 .4-.4.5-.5.9-.5.4-.9 1-1.4 1.4-.2.4-.6.6-.9.9-.1.2-.2.3-.4.4-.1.1-.2.3-.5.4 0 .1-.1.2-.2.3-.3.1-.5.3-.8.5-.2.2-.6.3-.8.5-.4.1-.6.3-.9.4-.3.2-.7.2-.9.4-.3-.1-.3.1-.6 0-.6.2-1.2.3-1.7.6 0-.1.1-.1.1-.2-.2-.1-.4.3-.5.2.1 0 0-.1 0 0-.3 0-.6.1-.8.3-.1 0-.1-.1-.1-.3-.3 0-.7.1-1 .1 0-.1 0-.1.1-.2-.3 0-.5-.2-.7-.1 0-.2-.2-.1-.3-.2-.3.3-.4.8-.7 1.1-.1.5-.5.7-.6 1.2-.2.1-.2.3-.4.4-.1.2-.1.2 0 .3-.6-.1-.1.7-.4 1-.1-.1-.2-.3-.2-.5-.2 0 .1.2-.2.3 0 .2.2.1.1.3 0 .2-.3.1-.2.3-.2 0 .1-.4-.1-.5-.1 0 0 .1-.2.1-.2.1.3.2 0 .3-.1-.3-.3.1-.4.2-.1 0 0 .1 0 0 .2-.1 0 .2.1.2 0 0-.3-.2-.3 0-.1 0-.1.1-.1.2-.3 0-.3.2-.5.3 0 .2.1.5 0 .6-.2 0-.1-.1-.1-.2-.2 0-.1.1-.2.2-.1 0-.1 0-.1-.1.1-.1.2-.2.2-.3-.3-.1-.3.1-.3.3-.1 0-.2.1-.2.2-.1 0-.1.1-.2.1-.1.3-.3.3-.5.5l-.1-.1c-.2 0-.2.3-.5.3-.1 0-.1.1-.1.2-.3 0-.3.2-.5.2 0-.1-.1 0-.1-.1 0 .1.1 0 .1.1.3.2.2.3 0 .3 0-.2.1-.3.1-.5-.1 0-.2.1-.2.2-.2-.1-.1.2-.3.1 0 .1.1.1 0 .2 0 .1.1.1.2.1-.1.1-.2.2-.4.3-.1.1-.2.2-.4.3 0-.2-.1 0-.2-.1 0-.1.1-.1.1-.2.1 0 0-.1.1-.1h.2l-.1-.1c-.2 0-.1.1-.2.2-.1 0 0 .1-.1.1-.3 0-.4.3-.7.4-.1 0 0-.3-.2-.2 0-.1.3 0 .2-.2h.1c0 .1 0 .1.1.1 0-.1 0-.1-.1-.1 0-.1-.1 0-.1 0-.1 0-.2.1-.3.2-.2 0-.3 0-.3.2.1.1.2-.1.4 0-.1.1-.2.2-.4.2s-.2-.1-.2-.3c-.2.1-.1.1-.1.3-.2-.3-.3.2-.6.1 0-.1.1 0 .1-.1-.1-.1-.3 0-.2.2-.2 0-.1-.1-.2-.2-.2 0 0 .1-.1.2-.1-.1-.2 0-.3 0 0 .1.3 0 .2.2-.4-.1-.7 0-1.1-.1 0-.1.1-.1.1-.2h-.3c-.2 0-.2-.2-.5-.1.1.1.2.1.3.2-.1.2-.5-.1-.5 0-.1-.1-.3-.2-.6-.2-.1-.1-.3-.3-.4-.2-.3-.3-.7-.5-1.1-.7-.2-.4-.6-.5-.8-.9 0-.1-.2 0-.2-.1s0-.2.1-.2c-.3-.2-.4-.5-.7-.8 0-.2.1-.2.1-.3 0-.1-.1-.2-.2-.3-.2-1-.4-2.4-.2-3.7v-.2c.1-.5.3-1 .3-1.7.2-.5.2-1.2.4-1.7 0-.6.2-1 .3-1.7l.2-.2v-.3c.1-.4.2-.5.3-1 .1-.1.2-.3.2-.5.1-.1 0-.5.2-.5 0-.1-.1-.1-.1-.2.2-.2.3-.4.3-.8.5-.8.7-1.9 1.2-2.8 0-.2.1-.2.1-.4.2-.2.3-.4.3-.7.2-.2.3-.6.4-.8 0-.2.1-.3.2-.5.1-.1.1-.4.2-.4.2-.6.5-1.2.8-1.7 0-.2.1-.4.2-.5.1-.2.2-.4.2-.7.2 0 .1-.3.2-.5s.1-.3.2-.5c.2-.3.4-.6.4-1 .2-.1.2-.4.4-.6 0-.3.3-.3.3-.7.3-.3.4-.9.7-1.1 0-.3.1-.5.3-.6.2-.9.8-1.4 1.1-2.2.2 0 .1-.3.3-.3.2-.6.6-1 .9-1.5.2-.2.3-.5.5-.7 0-.2.2-.2.2-.3.1-.1.1-.3.3-.3.1-.5.4-.7.6-1.1.3-.3.4-.7.7-1 .2-.5.5-.7.7-1.2.4-.3.5-.8.9-1 0-.1.1-.1.1-.2.2 0 .2-.3.4-.3.3-.6.8-.9 1.1-1.5.4-.5.9-.9 1.2-1.4.4-.3.6-.7 1.1-1 0-.1.1-.1.1-.2.8-.8 1.6-1.5 2.4-2.2.4-.2.7-.5 1.1-.7l1.2-.6c.3-.2.7-.4 1.1-.5.1-.1.2-.1.2-.2.3 0 .4-.1.7-.1.1-.1.3-.1.4-.2.1 0 .4.1.4 0l.1.1c.7-.2 1.1.5 1.6.7 0 .1.1.1 0 .2.2 0 .2.2.5.1 0 .2.1.2.1.3.3.1.4.4.6.5.1.5.1.9 0 1.4.2.5 0 1.3 0 1.7-.1 0-.1 0-.2.1 0 .1 0 .2.1.2-.2.3-.2.6-.4.9v.4c-.4.8-.7 1.7-1.2 2.4l-.6 1.2c-.2.5-.5.8-.7 1.2-.3.2-.4.6-.7.8-.2.3-.4.6-.7.8-.1.4-.3.7-.6.9 0 .2-.1.1-.1.3-.3.2-.4.6-.7.8 0 .1 0 .3-.1.3.1.1 0 .2-.1.2-.1.2-.2.3-.3.5-.1-.2-.2-.1-.2 0s.1.1.1 0c.1.4-.3.6-.4.8zm-10.1 9l-.1.1c.1.1.2.1.2-.1.2 0 .3-.1.3-.3-.2 0-.2.2-.3.3h-.1c0-.1 0-.1 0 0 .2-.2.1-.1.1-.3.2.1.1-.1.1-.2.2 0 .2-.3.4-.3v-.2c.2 0 .1-.2.4-.2v-.2c.1 0 .1-.2.3-.2-.1-.3.3-.2.2-.6.2 0 .2-.2.4-.3l.2-.2c0-.1-.1-.1-.1-.2.4-.2.5-.8.9-.9-.1.2.1.5.2.4.1-.2-.1-.1-.1-.2s.2-.2.1-.3c0 .1-.1.1-.1.1.1-.2.1-.4.3-.4 0 .1.1 0 0 0 .1-.2.2-.7.5-.6v.2h.2v-.2h-.2v-.1c.2-.1.1-.6.5-.6 0-.2.1-.3.2-.3 0 .3-.2.3-.1.5.2-.1.3-.3.3-.6.2 0 0-.2 0 0h-.1c0 .1 0 .1-.1.1 0-.2.1-.3.2-.5.1-.1.1-.3.3-.3.1-.3.2-.4.4-.6.1-.2.3-.3.4-.6.1 0 .2-.1.2-.2 0-.2.1-.2.1-.3.3-.2.5-.5.6-.9.2-.1.3-.3.4-.6.2 0 .2-.3.4-.4 0 .1 0 .2.1.2.1-.3.3-.5.3-.7.2 0 .1.2.2.1.1-.2-.1-.1-.1-.2.2 0 0-.3.3-.2 0-.4.1-.5.4-.6-.1 0 0-.2.1-.2 0-.2.1-.2.1-.3.2-.1.2-.4.4-.5.1 0 .1-.2.2-.2 0 .1 0 .1.1.1 0-.2-.2-.2 0-.2 0 .1.1 0 0 0v-.2c.2-.2.4-.4.5-.7.1-.1.1 0 .2 0 0-.2-.1-.1 0-.2s.3 0 .3-.2c-.1 0-.2 0-.2-.1.1 0 .1-.1.1-.2.2 0 .1-.2.3-.2 0-.2.1-.2.1-.3.3-.3.5-.7.8-1-.1 0-.1-.1 0-.1l.3.3c0-.3.3-.3.3-.6-.1-.2-.3.4-.5.2 0-.3.3-.4.4-.6.1-.5.5-.7.7-1.1.2-.4.4-.8.7-1.1.2-.7.6-1.2.9-1.8 0-.5.2-.9.3-1.3-.1-.2.1-.3-.1-.4-.1.2-.4.2-.6.3-.1.2-.3.3-.5.3-.2.1-.3.3-.5.3-.5.5-1.3.8-1.7 1.4-.4.1-.6.5-.8.8-.3.2-.5.6-.8.8-.3.6-.8 1-1.2 1.6-.4.5-.8 1-1.3 1.5-.2.4-.4.7-.7 1-.2.3-.5.6-.7.9-.4.7-.9 1.3-1.3 1.9-1.6 2.7-3.2 5.5-4.6 8.4-.4.7-.7 1.5-1.1 2.1-.3.8-.8 1.4-1 2.3-.2.1-.2.5-.4.6-.1.5-.3.8-.4 1.2.3.1.3-.5.5-.2.2-.1 0-.2.2-.3 0 .1.2.1.2 0-.1 0 0-.1-.1-.1.6-.2.9-.8 1.5-1 .1-.3.5-.4.6-.7h.2c0-.2.1-.3.1-.4-.4-.3-.4-.2-.3-.2zm15.2-20.1c-.1.1-.3.5-.2.7.2-.3.1-.5.2-.7.1 0 .2-.2.1-.3 0 .1-.1.1-.1.3zm-.4 1c-.1.1 0 .1 0 0 .1 0 0 0 0 0zm-.2.4s-.1.1 0 0c0 .1 0 .1 0 0zm-.2.4v.1c.1.1.2-.2 0-.1.1 0 .1 0 0 0zm-.5 1.2c.3-.1.3-.4.4-.6 0-.1.1-.3 0-.3-.1.4-.5.4-.4.9zm-.2.1c.1.3-.4.5-.3.8.1-.1.1-.2.2-.2v-.2c.1 0 .2-.1.2-.3.1 0 .1 0 .1-.1-.1-.1-.2-.1-.2 0zm-.5 1.2c-.1-.1.2-.2 0-.2 0 0-.1.2 0 .2zm-.6.6c0 .3-.4.4-.4.7-.3.4-.7.8-.9 1.3-.2.1-.3.2-.4.5.4-.2.5-.7.8-1 .2-.4.6-.7.7-1.1.3-.2.5-.6.7-.9 0-.1 0-.2-.1-.2-.1.3-.2.6-.4.7zm-1.1-.6c-.1 0-.1 0 0 0-.1.1 0 0 0 0zm-1.1 1.3v.1h.1s0-.1.1-.1v-.1c0 .1-.1.1-.2.1.1 0 .1 0 0 0zm-.3.7c-.1 0-.1.1-.1.2.1.1 0-.1.1-.2.2 0 .2-.2.2-.3-.2 0-.2.2-.2.3zm.1.2s-.1 0 0 0c0 .1.1 0 0 0zm-.2.4c.2 0 .1-.2.2-.2h-.2c.1 0 0 .1 0 .2zm.3.1s-.1.1 0 0c-.1.1 0 .1 0 0zm-.6.3c0-.1 0 0 0 0s.1 0 0 0zm0 2.1s-.1 0 0 0c-.1.1-.3.1-.2.3h-.1c-.2.2-.3.4-.4.6-.1.3-.4.3-.4.7h-.1c0 .1-.1.1-.1.3h-.1c0 .1-.1.1-.1.3-.2 0 0 .2 0 0h.1c0-.1.1-.1.1-.3h.1c0-.1.1-.1.1-.3.3-.4.6-.8.8-1.3.2.1.2-.1.3-.3.5-.5.8-1.2 1.3-1.9-.3.1-.3.4-.5.6-.1.3-.2.5-.4.6v.2c-.1 0-.2.1-.3.1-.1.2-.1.3-.1.4zm-.9-.7c0-.1 0-.1 0 0zm2.1 1.1c0-.1 0-.1 0 0zm15 .9h-1c-.7.1-1.3.3-1.9.5-.6.2-1.1.5-1.7.7-.2.1-.5.3-.7.4-.3.1-.6.2-.8.4-.6.2-1 .6-1.5.9-.4.4-.8.7-1.3 1l-.3.3c-.1.1-.1.3-.3.3-.3.1-.3.5-.7.6-.8.8-1.6 1.6-2.3 2.5-.4.4-.7.8-1 1.3-.2 0-.1.2-.3.3-.1.1-.1.3-.2.4-.2.3-.4.4-.5.7l-.9 1.5c-.1.3-.3.5-.4.8-.1.1-.2.2-.2.3 0 .2-.3.1-.2.4-.6 1-1.2 2-1.6 3.2-.2.2-.3.5-.3.9-.2.3-.3.5-.3.9-.2.2-.2.6-.3 1-.1.3-.2.6-.2 1.1.1.1.1.2 0 .3.1.2.1.4.3.5 0 .2.1.4.3.5 0 .2.1-.1.2-.1s.1-.1.3 0c.2 0 .3-.2.5-.2.3-.2.7-.3.9-.5.6-.3 1.2-.7 1.8-1.1.5-.4 1-.8 1.5-1.3.1-.1.3-.2.4-.3.1-.1.3-.2.4-.4.3-.2.6-.4.7-.7 1-.9 1.7-2.1 2.6-3.1.4-.6.9-1 1.3-1.6.3-.2.5-.5.7-.7.2-.3.5-.4.7-.7l.3-.9c.8-1.3 1.6-2.7 2.5-3.9.5-.6.9-1.2 1.4-1.7.2-.4.5-.6.8-.8.2-.3.5-.5.8-.8.2 0 .3-.1.4-.2.1-.1.4-.1.4-.3.4-.4.5-1.4.4-2.1-.3-.1-.4-.2-.7-.3zm-15.5-.2s-.1.1 0 0c-.1.1 0 .1 0 0zm-.4.7c-.1 0-.1 0 0 0-.1.1 0 .1 0 0zm-.9 1.4c0-.1 0-.1 0 0-.1 0 0 0 0 0zm-3.4-.1v.1c.1.1.1-.2 0-.1zm-2.7 4.6c.2.1.2-.1.2-.2.1 0 .2-.2.1-.2 0 .2-.3.1-.3.4zm-.5.1c.1 0 .1.1.2.1-.1-.2.3-.2.1-.3-.1.1-.2.1-.3.2zm.3.2s-.1 0 0 0zm-.7.2c0-.1-.1-.1-.1 0s0 .1.1 0zm.3.2c.2 0 .2-.1.2-.2-.1 0-.2.1-.2.2zm-.5.1c-.1-.1-.1 0 0 0-.1 0 0 0 0 0zm.4.2c0-.1 0-.1 0 0-.1-.1-.1 0 0 0zm-.5.6c.2 0 .3-.2.4-.4-.3 0-.3.2-.4.4zm-.7.1c-.1.1-.2.1-.2.3.1 0 0 .2.2.1v-.4c.1 0 0-.1 0 0zm.1.6c.2 0 .2-.2.3-.3H95c0 .1 0 .2-.1.3zm-.5 0c0-.1 0-.2 0 0 0 0 0 .1 0 0zm3.2.1s-.1 0-.1.1l.1-.1zm-3.4.4c.2.1.2-.1.2-.2-.1 0-.1-.1-.2-.1.1.2 0 .2 0 .3zm.5.3v.1h.1s0-.1.1-.1v-.1c-.1 0-.1 0-.2.1zm-.3.1s0-.1 0 0c-.1 0-.1.1 0 0zm-.4.3c.2.1.2-.1.2-.2-.1 0-.2 0-.2.2zm.7.2c.2 0 .3-.1.4-.3-.3 0-.5 0-.4.3zm.6-.1c-.1 0 0 0 0 0 .1-.1 0-.1 0 0zm.7.4c.1 0 .1.1.1.2.2 0 .1-.2.3-.2-.1-.1.2-.2 0-.2-.3.2-.1-.1-.2-.2-.2.1-.1.3-.2.4zm-1.3.3c.1-.2.2-.4.5-.4 0-.1 0-.2-.1-.2-.1.2-.6.4-.4.6zm1-.1c0-.1 0 0 0 0-.3.1-.5.3-.4.4.2 0 .2-.1.2-.3.2 0 .2 0 .2-.1.1-.1 0-.1 0 0zm-3.3.1c.1 0 .1 0 .2-.1-.1 0-.1.1-.2.1zm2 .3c.2 0 .2-.2.1-.3-.1.1-.2.1-.1.3zm-1.4 0s-.1-.1 0 0c-.2 0-.1 0 0 0zm1.9.4c-.1 0 0 .1 0 0 .1 0 0 .2.2.2 0-.2.2-.2.2-.3-.2-.1-.3 0-.4.1zm.8-.2s-.1.1 0 0c0 .1 0 .1 0 0zm-1.9.4c0 .2-.1.2-.1.3.2 0 .3-.3.1-.3 0-.1.1-.3 0-.3 0 .1-.2.1-.2.2.1 0 .1.1.2.1zm-1.2-.3s-.1 0 0 0c0 .1 0 0 0 0zm.1.2c.2 0 .1-.1.2-.2-.1.1-.2.1-.2.2zm34.9 1s-.1.1 0 0c-.1.1 0 .1 0 0zm-.2.2s-.1 0 0 0c0 .1 0 0 0 0zm-34.1-.7c.1 0 .2-.1.2-.2-.2.1 0-.2-.2-.1-.1.1 0 0 0 .3zm1.6 0c.1 0 .1 0 .2-.1-.1-.1-.1 0-.2.1zm-3.2-.1c-.1 0-.1 0 0 0-.1.1 0 0 0 0zm1.2.3h.1c0-.1 0-.1.1-.1-.1 0-.1-.1-.2-.1v.2zm.3 0c-.1.1 0 .1 0 0zm-3 .1v.1h.1s0-.1.1-.1v-.1c-.1 0-.1 0-.2.1 0-.1 0 0 0 0zm3.6.3c0-.1 0-.2 0 0-.1-.1-.1 0 0 0zm-3.8.2c.2 0 .1-.2.2-.2-.2 0-.3 0-.2.2zm3.5.3c-.2 0-.3.1-.4.3.2 0 .3-.1.4-.3 0 .1 0 .1 0 0 .1 0 0 0 0 0zm-1.1 0s-.1 0-.1.1l.1-.1zm-2.7.2c.2 0 .5 0 .5-.2-.2.1-.3.2-.5.2zm19 3.8c-.1 0-.1 0-.1.1-.1.1-.3.2-.4.4 0 0-.1 0-.1.1-.1 0-.3.2-.1.2 0-.1.2-.1.1-.2 0 0 .1 0 .1-.1.2-.1.4-.2.5-.5.4-.4.8-.7 1-1.2.2.1.1-.3.4-.2.3-.6.8-1 1-1.6-.3.1-.3.4-.5.6-.2.2-.3.4-.4.6-.2 0-.2.2-.4.3 0 .2-.1.2-.1.4-.4.3-.6.7-1 1v.1zm-18.2-3c0-.1-.1 0 0 0zm11.5.8c0-.1.1-.1 0-.2 0 .1-.1.2 0 .2zm-.9 1.8c.2 0 .2-.3.1-.3 0 .1-.1.1-.1.3zm9.1.5s-.1 0 0 0c-.1.1 0 0 0 0zm-2.4.8c-.2 0-.5.3-.4.4.2-.1.4-.2.4-.4.1-.1 0-.1 0 0zm-.6.6c-.1 0-.1.1 0 0-.2.1-.3.1-.3.3.1 0 .2-.1.3-.3 0 .1 0 .1 0 0 .2 0 .1-.1.2-.2-.2.1-.2.1-.2.2zm-21.9 1.5s-.1.1-.2.1v.2h.2c0-.2.1-.1 0-.3 0-.1.3-.3.1-.4 0 .1-.1 0-.1.1 0 .2-.1.2 0 .3zm1.1.8c.2.1.2-.3.1-.3-.1.1-.1.2-.1.3zm-1.7 1.1c.1 0 .2 0 .2.1 0-.3.1-.5.1-.9h-.2c.1.2-.1.4-.1.8zm.9.7c-.2.9-.2 1.5-.4 2.2 0 .1.1 0 .1.2 0 .1-.1.4.1.4 0-.4.2-.8 0-1.1.1 0 .2-.2.2-.4s-.1-.3-.1-.4c.1-.1.1-.2.2-.3 0-.1 0-.3.1-.3 0-.1.1-.4-.1-.3 0 0-.1 0-.1.1-.1-.2 0-.2 0-.1zm-.9.9c.1-.1.1-.3.1-.5 0 0 .2-.3 0-.3 0 .3-.3.7-.1.8zm1.1.5c0 .2-.2.2-.2.3 0 .1.1 0 .1.2-.1 0-.2.4 0 .4 0-.5.5-.9.1-1.3-.1.1 0 .2 0 .4zm-1.5 1.4c.1 0 0 .1-.1.1.1.2.4-.1.2-.2 0 .1-.1.1-.1.1zm1.3.2c0-.1.1-.2 0-.2 0 .1-.1.2 0 .2zm-.4.5c0-.1.1-.5-.1-.5 0 .3-.1.5.1.5zm.5-.3s-.1 0 0 0c-.1.1 0 0 0 0zm-1.5.6h.2c0-.1 0-.1-.2 0 .1-.1.1-.5 0-.3v.3zm1 .7c0-.3.2-.7-.1-.8 0 .3-.1.7.1.8zm-.9-.2c0-.1 0-.1 0 0zm.3.9c-.1.3.1.1 0 0-.1 0-.1 0 0 0zm5.3 1.6c0-.1-.1-.1-.1 0s0 0 .1 0zm2.9.3s-.1 0-.1.1c0-.1.1-.1.1-.1zm-8.6 0v.1h.1c.2.2-.1.1-.1.3.2 0 .2.2.3.2 0-.2 0-.2.2-.2 0-.2-.3-.2-.4-.4h-.1c-.1-.1-.1 0 0 0zm.7.7c0 .1.1 0 .1.1s.1 0 0 0c.1-.1 0-.1-.1-.1 0-.1 0 0 0 0zm.1.2s-.2-.2-.2-.1.1.3.2.1zm.3.1c.1 0 .2 0 .2.1 0-.2-.2-.3-.3-.2.1 0 .2.1.1.1zm.6 0c0-.1-.1-.1-.1 0s0 0 .1 0zm-.7 0s-.1 0-.1.1c.1 0 .1 0 .1-.1zm5.1.3c0-.1-.1-.1-.1 0h.1zm-4.5.1c.3.1.7.3 1.1.3.1-.1.3 0 .3-.2-.3.1-.4.1-.7.1 0-.2.1-.3 0-.4-.3 0-.6-.1-.8 0 .2 0 .2.1.1.2zm1.7.2c.2.1.4.2.5 0-.1 0-.2 0-.2-.1.1 0 0-.1-.1-.1.1.2-.2 0-.2.2zm-.4.4s-.2-.2-.2 0c.3.1.5.1.8.1 0-.4-.5-.2-.6-.1z"/>
    <path d="M110.8 3.4c-.1 0 0 0 0 0 .1 0 0 .1 0 0z"/>
    <path d="M110.7 3.5s.1 0 0 0c0 .2 0 .1 0 0z"/>
    <path d="M38.2 30.8c.4.1.5.4.9.5 0 .1.1.1.2.1 0 0 0 .1.1.1 0 .1.1 0 .1.1s.1 0 .1.1.1 0 0 0c0-.1-.1 0-.1-.1s-.1 0-.1-.1c0 0 0-.1-.1-.1 0-.1-.1-.1-.2-.1l-.3-.3c.2-.2.3.2.5.2.1.1.4.2.6.3.3 0 .6.1.9.1h1.3c.2 0 .4-.1.5-.1.1-.1.3-.1.4-.2.1 0 0-.1 0 0h-.4c.1-.2-.1-.1-.3-.1 0-.1 0-.1.1-.1h-.6c0 .1.1.1.2.1 0 .1-.3.1-.2-.1-.1.1-.4 0-.4.2-.1 0-.1-.1-.2-.1-.2 0-.2.1-.3 0 0-.2.2.1.3-.2-.3-.2-.7.1-.9-.2-.1.1-.4 0-.5 0 0-.1.2-.1.2 0 .1 0 .3-.1.5 0s.1.1.2.1c.1-.2.2 0 .3-.2-.3-.1-.7-.1-.9-.1-.6-.1-1.1-.3-1.7-.4 0-.2-.3-.2-.3-.4-.1.2-.3.1-.3-.1.1.1.1.1.3.1.4.4 1.2.6 1.9.6.2.1.3.1.4.1.1-.2.5 0 .5-.2.1 0 .1.2.3.1.2 0 .3-.1.5-.1.1-.1.2-.2.4-.3 0-.2-.3.2-.3-.1.3 0 .3 0 .5.1.3-.2.8-.1.9-.5.1 0 .1 0 .1-.1s-.2 0-.1.1c-.1 0-.1 0-.1-.1 0-.2.2-.2.4-.3 0 .1-.1.1-.1.2.2 0 .3-.1.5-.2.2-.2.4-.3.6-.5 0-.1-.1-.1-.2-.1 0-.1.1-.1.2-.1 0 .1.1 0 0 0 .1-.1.1-.2.3-.2v.2c.2 0 .2-.2.2-.3.1 0 0 .1.1.1.3-.2.6-.4.8-.7 0-.1-.1 0-.1.1-.1-.1.1-.3.3-.3 0 .1-.1.1-.1.2.4-.1.2-.4.5-.6.2 0-.1.1 0 .2-.1 0 0 .1 0 0 .1 0 .2 0 .2.1 0-.2.3-.5.1-.5v-.1c.1-.1.2-.2.4-.1v-.1c.1 0 0-.1 0 0l-.1-.1c.1 0 .2-.2.2 0 .1-.1.2-.1.2-.3 0 0 .1 0 .1-.1.1 0 .2 0 .2-.2 0 0 .1 0 .1-.1 0 0 .1 0 .1-.1.1 0 .1-.1.2-.2.1 0 0-.1 0 0h-.1c0-.1.1-.3.3-.2.1-.1 0-.2.1-.3.2 0 .1-.2.2-.3.1 0 .1.1.2.1.2-.1 0-.3.2-.2v-.3c.1 0 .1.1.2.1s-.2-.4.1-.3v.1c-.1 0 0 .1 0 0 .1 0 .1-.2.2-.2-.1-.3.1-.2.1-.5.1 0 .2 0 .2.1.2-.2.4-.5.4-.9.2 0 .1-.3.4-.2 0-.2.2-.2.1-.5.4-.3.4-.9.8-1.1-.1-.4.2-.4.3-.9.2 0 .2-.2.3-.2.1-.2-.1-.2 0-.3h.2c-.1-.3.2-.2.1-.5 0-.2.2-.1.2-.3.1-.1.1-.2.2-.2.1-.4.2-.8.3-1.1.3.1.2-.2.4-.3 0-.4.1-.8.3-.9.1 0 .1 0 .1-.1.1-.2 0-.2 0-.5.4-.4.3-1.1.7-1.5 0-.1-.1-.1 0-.2.1 0 .1-.1.2-.1-.1-.3.1-.2 0-.5.1 0 .1-.1.2-.2.1 0 0 .2.1.2s.2-.1.2-.2c-.1 0-.2 0-.3-.2 0-.1.1-.1.1-.2.1 0 0-.2.1-.2-.1-.2-.1-.7.1-.8V11c.2-.2 0-.3.2-.5-.1-.4 0-.5-.1-1h.2c.2.1 0 .3.1.4v.3c0 .2 0 .2-.1.5.1 0 .1 0 .1.1.1 0 .1-.2.2-.3.2.1-.1.4.1.4.3 0-.2-.3.1-.5-.1-.1-.1-.3-.3-.3.1-.2.2 0 .3 0 .1-.2-.1-.2-.2-.3-.2-.1 0-.2 0-.3.1 0 .1.2.2.2.1-.1-.1-.3 0-.6-.1-.2 0-.6-.2-.7v-.1c0-.3.2-.8-.2-.8 0-.1.1 0 .1-.1-.2-.5-.3-1.1-.5-1.6-.1-.2-.4-.3-.6-.5-.4-.1-.7.1-1 0-.1 0-.2.1-.3.1H53c-.2 0-.6.2-.8.1-.2.1-.3.1-.5.1-.9.3-1.8.7-2.6 1.2-.3.2-.5.3-.8.5-.1 0-.1.1-.2 0-.1.1-.3.2-.4.3-.2 0-.2.1-.3 0-.1.1 0 .2-.1.3-.2 0-.2.2-.4.2l-.3.3c-.2 0-.1-.1-.2 0s-.2.3-.3.4c-.4 0-.4.4-.8.4-.1 0-.1.2-.2.3-.2.1-.3.2-.4.3-.7.7-1.5 1.3-2.2 1.9-.1 0-.1.1-.3 0-.1 0-.1.1-.1.2-.3 0-.4.3-.6.3-.1 0-.1.2-.2.3 0 0-.1 0-.2.1-.1 0-.2.2-.2 0-.1 0-.1.1-.1.2-.2 0-.1.1-.2 0-.1 0-.2.1-.2.3-.2-.1-.2.2-.5.1-.2.1-.1.4-.5.3-.1 0-.3.2-.1.2 0 .1-.1 0-.2 0s-.1.1-.1.3c-.2 0-.3.2-.4.3-.2 0-.1-.1-.2 0-.1 0-.1.1-.1.3-.2-.1-.2.1-.4 0 0 .1.1.1 0 .2-.3.1-.5.2-.8.3v.2c-.2-.2-.3.1-.4.3-.2 0-.1.1-.2.1 0 .2.1.4-.1.5-.1 0 0-.2-.2-.1-.2.2.1.2 0 .4-.1 0-.1.1-.3.1 0 .1 0 .2-.1.2s-.1.1-.2.1c0 .3-.3.3-.4.6-.1 0-.1.1-.2.1 0 .2-.2.2-.2.3-.2 0-.2.2-.4.2-.1.1-.1.2-.2.3-.1 0-.1.2-.3.1 0 .1-.1.3-.2.3 0 .2-.1.2-.1.3-.1.1-.3.2-.4.4-.3.2-.5.5-.7.8-.1.1-.3.2-.4.3 0 .2-.2.2-.1.4-.2 0-.2.3-.4.3-.4.8-1.1 1.3-1.6 2-.1.1-.2.2-.4.2-.1.3-.2.5-.5.6-.1.4-.4.6-.6 1-.3.3-.4.7-.8.8 0 0 0 .1.1.1-.4.3-.5.8-.9 1.1 0 .2-.2.2-.2.5-.3.2-.4.5-.7.7 0 .5-.3.8-.5 1-.1.2-.2.5-.4.7-.2.7-.8 1-1 1.7h-.2c0 .2-.1.2-.1.4-.1 0-.1.1-.2.1-.1.3-.2.5-.4.7 0 0 0 .1.1.1 0 .1-.1.1-.2.1-.1.6-.6.7-.6 1.3h-.1c0 .3-.3.4-.3.7-.2 0-.3.2-.2.4-.2.2-.3.4-.4.8-.2.1-.2.3-.2.5-.1.1-.2.3-.2.5-.2.3-.3.7-.6.9 0 .4-.2.5-.3.9-.2 0-.2.2-.2.4-.1.1-.2.3-.2.5-.2.2-.3.4-.4.7h-.1c-.1.7-.4.9-.6 1.6-.1.1-.1.2-.2.3v.3c-.3.2-.1.5-.4.7 0 .3 0 .5-.2.6 0 .2-.2.3 0 .3 0 .2-.2 0-.3.1 0 .4-.3.5-.1.9-.1.1 0 .3-.1.3 0 .1 0 .2.1.2 0 .1-.1.1-.2.2.1.3-.1.6-.1 1-.2.2-.1.6-.3.7v.2c0 .2-.2.1-.2.3 0 .1.1.2 0 .3.1.1.2.1.1.3 0 .1-.1.1-.1.2v.6c-.2.2 0 .7-.1.9-.1 0-.1-.3 0-.2-.1-.1-.1-.2-.2-.3-.2 0-.1.3-.1.4v.6c0 .1 0 .1.1.2v.3c.1.2-.1.6.2.6.2-.1-.1-.2 0-.3.2 0 .1-.3.3-.2 0-.2.1-.2.1-.3.2.1.1.2.1.5-.1 0-.1-.1-.2-.1 0 .1.1.3 0 .5 0 .1.3 0 .3.2 0 .1-.1.1-.2.1 0 .2.1.4.1.5.1 0 .1-.1.1-.2.2.5.3 1.1.5 1.6 0 .2-.2 0-.1-.1 0 .3-.6.2-.5-.1.3.1.3 0 .4-.2-.3-.1-.2-.6-.4-.6-.1-.1 0-.2 0-.3-.1-.3-.2-.9-.4-.9-.2.3.1.6.1 1 0 .1.1.1.1.3.1 0 0 .3.2.3 0 .1-.1.2-.1.3.1 0 0-.1.2-.1 0 .4-.1.6 0 1-.2 0 0-.3-.2-.3 0 .1.1.2 0 .3.1.1.3.2.3.4-.2-.2-.2.4-.3 0-.1.2.1.5.2.7.1.6.1 1.1.5 1.5 0 .1 0 .2-.1.2.1.2.3.3.4.5.1 0 .1.1.2.1h.3c-.1-.2-.2 0-.3-.2 0-.1 0-.1-.1-.1 0-.2.1 0 .2-.1-.1-.1 0-.2 0-.3 0-.2-.3-.1-.3-.2-.2 0 .2.3 0 .3-.1.1-.2-.1-.2-.2-.1-.1-.2-.1-.2-.3.2 0 .3-.1.2-.3.1.1.2.1.4.1.1.2.2.5.4.4 0 .3.4.4.2.6l.2.2c0 .3.2.2.3.2-.1.1-.1.2-.1.3-.3 0-.4-.2-.3.2-.1 0-.2-.1-.2-.3-.2.1-.2 0-.4 0 0 .2.3.2.3.4-.2 0 0 0-.1.2-.2 0-.2-.1-.3-.1-.1 0 0 .2-.2.1 0 .2.1.2.2.3.1 0 .1-.1.1-.2.2 0 .2.1.4 0 .2.1.1.5.4.5 0 .2-.1.2 0 .3.1 0 .1-.1.2-.1s-.1-.4.2-.3c.2 0 .1.1.1.2 0 .3.5 0 .3.4.2-.1.2 0 .3.1.2.1.1-.2.2-.1-.1.2.3.2.3.1.2.1-.1.2 0 .2.1.1.4.2.5.3.1-.1-.2-.3-.3-.3v-.3c-.3 0-.5-.1-.6-.2-.1-.2.2-.1.2-.2 0-.2-.2 0-.3 0 0-.1-.1-.1-.2-.1V60c-.1 0-.1.1 0 .1.1.2-.5 0-.5-.1-.1-.1-.2 0-.3-.1 0-.2.2-.3.3-.2-.1-.2.1-.3.2-.4.1.2.3.3.3.6.3.1.2-.2.4-.2-.1-.2-.2 0-.3 0v-.2c0-.1-.1-.1-.2-.1v-.2c-.1 0-.2-.1-.2-.2-.1-.1-.2-.2-.3-.2 0-.2-.2-.3-.2-.5-.2 0-.3 0-.3-.1-.1-.2.2 0 .2-.2.2.1.2.3.3.5h.3c.1.2.2.4.4.4v.3c.1.1.1 0 .2 0-.1.2.1.1.2.2.1 0 .2 0 .2-.1.1.3.2.3.5.3-.3.4-.2.4-.2.5.2 0 .3 0 .3.2.5-.1.6.5 1 .4.1.1.1.2.2.2.3 0 .4.1.5 0l.1.1c.1 0 .1-.1.2-.1.3 0 .5.1.7 0 .1 0 .1.1.1.2.2 0 .1-.3.4-.2-.1.3.2.2.3.2-.1.2-.3.1-.5.2.1.1.2.2.3.2.3.1.1-.3.4-.2 0-.1 0-.1-.1-.1 0-.2.2 0 .2-.1.1 0 .2 0 .2.1.2-.1.3-.3.5-.3.2-.1 0 .2.2.1.2 0 .3 0 .4-.2.2.2.1-.2.3-.1 0 .1.1.2.1.3.2 0 .2-.1.2-.3.1 0 .1-.1.1-.1.1 0 0 .1 0 .2.2 0 .4-.2.6-.2 0 0 .1 0 .1-.1.3-.1.4-.4.8-.5.2-.2.5-.3.6-.5h.1s0 .1.1.1c.2 0 0-.3.2-.2.1-.1.1-.2.2-.3.4 0 .4-.5.9-.4.2-.4.7-.5.9-.8.4 0 .5-.3.8-.4.1-.1.2-.1.2-.3.4-.1.5-.5.9-.5.1-.2.3-.2.3-.4.1 0 .2-.1.3-.1.1 0 0-.1.2-.1.3-.4.7-.8 1.1-1.1.1-.4.5-.5.5-.9h.2c.2-.4.5-.8.8-1.1.2-.4.3-.7.6-.9 0-.2.1-.3.2-.4.1-.1.1-.4.3-.3 0 .1-.1.1-.1.2.2-.1.3-.3.2-.6.2-.1.3-.3.4-.6.1 0 .1 0 .2-.1 0-.3.2-.4.2-.7.2-.2.1-.6.4-.6.1-.4.3-.6.5-.9.1-.2-.1-.2 0-.3.1-.1.2-.3.4-.3 0-.2.1-.2.2-.2 0-.3.2-.3.1-.6.1 0 .1-.1.2-.2-.1-.1.2-.2 0-.3 0-.1.1-.2.1-.3.3-.2.3-.8.6-1.1.2-.4.4-.7.6-1.1.4-.7.8-1.4 1.2-2 .3-.8.9-1.3 1.3-2 .5-.6.8-1.4 1.4-1.9.1-.2.1-.4.4-.4.1-.3.3-.5.5-.7 0-.2.1-.4.3-.4.1-.3.3-.5.5-.7.1-.3.4-.4.5-.7.6-.5 1-1.1 1.5-1.7.4-.3.7-.6 1-.9.3-.2.6-.5.8-.7.5-.3.8-.7 1.2-.9.4-.3.9-.6 1.4-.9.9-.6 1.9-1 3-1.4.4 0 .7-.1 1-.1h.7c.1 0 .1 0 .2-.1h.4c.5.1.9.3 1.4.4.1.1.3.2.5.3.1.1.2.3.4.4.1.2.3.3.4.4.1.2.3.3.4.5.4.2.6.6.9.9.3.4.7.6.8 1.1l.2.2c.3.7.4 1.7.4 2.7 0 .1 0 .1.1.1.1.1.3.1.4.2.2.4.7.6.8 1.1 0 .2-.3.2-.4.4-.2 0-.3.1-.6.1-.3.3-.7.6-1 .8 0 .2-.2.2-.2.4-.1 0-.1.2-.2.2-.2.5-.5.8-.7 1.3-.3.2-.4.7-.7.9-.1.4-.4.7-.5 1.1-.3.3-.5.8-.7 1.2-.3.3-.5.8-.7 1.1 0 .2-.1.3-.1.5-.5.5-.5 1.6-.9 2.2-.1.5-.3.9-.4 1.4 0 .7-.2 1.6.3 2 .5 0 .7-.3 1.1-.5v-.2c.1 0 .3-.1.4-.2.1-.2.4-.3.5-.4 0-.1.1-.1.1-.2.2 0 .1-.2.4-.2 0-.2.1-.1.1-.3.2 0 .1-.3.4-.2.1-.1.2-.3.3-.3v-.2h.2c.1-.2.1-.4.4-.4.1-.3.3-.4.3-.7h.2c0-.1-.1-.1-.1-.2.1 0 .1-.1.2-.1v-.2c.2 0 .2-.3.3-.3.1-.1.1-.3.3-.3 0-.3.2-.4.4-.6v-.3c.2 0 .2-.2.3-.3.1-.1.1-.3.2-.4.1-.3.3-.5.4-.8.3-.1.2-.6.5-.7v-.3c.4-.4.5-1.1.9-1.5.1-.3.3-.5.4-.8.2-.2.2-.6.5-.7-.1-.2.2-.5.3-.7.1-.2.2-.6.4-.7 0-.4.3-.5.3-.9.1-.3.2-.4.1-.7h.1s0-.1-.1-.1c.2-.2.2-.6.4-.8.1-.6.5-.8.6-1.4.1 0 .1-.2.2-.2.4-1 .9-1.9 1.3-2.9.3-.4.4-1 .6-1.5.2-.5.4-1 .7-1.5-.5-.9-.7-2.1-.6-3.6.4-2.2 1.3-3.8 2.6-5.1 0-.2.2-.4.3-.5.1 0 .1.1.2 0 .3.2.6.4 1 .4.3.2.5.4 1 .5 0 .1.1.1.2.1.1.2.4.3.7.4 0 .1.2.2.3.3 0 .2-.1.3-.2.3.1.1.3.2.3.4-.1.1-.1.2-.1.3-.3.2-.4.6-.7.8-.2.7-.6 1.2-.9 1.8-.1.6-.2 1-.4 1.5v.6c0 .4.2.7.4 1 .9.3 1.6.7 2.4 1.1.9 0 1.2.5 1.9.8.2.2.5.4.7.6.2.3.3.6.5.8 0 .3.2.6.3.9v1.3c0 .1-.1.3-.1.5-.2.4-.3.8-.4 1.2-.2.4-.3.7-.4 1.2-.2.1-.2.3-.2.6-.3.2-.3.8-.6 1-.1.6-.4.9-.5 1.5-.2.1-.2.4-.3.6-.1.2-.2.4-.3.7-.2.4-.5.8-.6 1.3-.2.2-.3.5-.4.7-.1.3-.2.6-.4.8-.1.3-.2.6-.4.8-.1.2-.2.6-.4.7v.2c-.3.2-.4.7-.6 1-.2.3-.3.8-.6 1 0 .4-.3.5-.3.9-.1 0 0 .1-.2.1 0 .1.1.1 0 .2-.6 1.1-.8 2.5-1.3 3.7v.3c-.1.1-.2.3-.1.5-.2 0-.1.4-.2.5 0 .2.1.2 0 .3-.1.2-.1.6-.2.9.1.9.1 1.8.4 2.5v.4c.1.1.1.3.3.4.1.2.1.4.3.4 0 .4.3.6.4.9.3.2.6.4.7.8.1 0 .1 0 .1.1.1 0 .1.1.3.1.3.4.8.6 1.5.7 0 .1.2.1.2.2.3-.1.7 0 1-.1.2-.1.2-.2.4-.3.2.1.6.1.6-.2.1 0 .1 0 .2.1.2-.3.9-.1 1-.5h.2c.1-.1.3-.1.4-.3.2-.1.2-.2.4-.3.4-.3.7-.7 1.1-.9.2-.2.3-.5.5-.4-.1.1-.2.3-.2.5-.2 0-.2.1-.2.2-.2-.1-.3 0-.3.2.1.1.2-.1.3-.1.2-.3.6-.5.7-.8-.1-.2-.3 0-.3 0 0-.2.1-.3.2-.2 0-.1.1-.2.2-.3h.1c0 .1 0 .2-.1.2.2 0 .3-.3.5-.3 0-.2.1-.2.2-.3-.1-.2.1-.1.2-.2.2.1-.2.1 0 .2 0 .1-.1.1-.2.1-.2.5-.7.9-1 1.3v.3c-.1 0-.1 0-.1-.1-.2.1-.3.4-.5.4 0 0 0 .1.1.1-.3.1-.6.5-.5.8-.1 0-.2.2-.2.3-.1-.1.2-.2 0-.4-.2.1-.3.4-.5.4 0 .1.2.3 0 .3v-.1c-.1 0-.1 0-.1.1-.2 0-.2.1-.3.2-.1.1-.2.2-.2.4-.2 0-.2.2-.3.3-.1 0-.1 0-.2-.1-.1 0-.1.1-.1.2-.2 0-.1-.1-.3-.1-.2 0 .1.1 0 .2-.1 0-.3 0-.2.2-.2 0-.5.1-.5.3-.1 0-.3 0-.3.1-.1 0-.1-.1-.1-.2-.1.1-.2.1-.2.3-.2-.1-.2.1-.2.1h-.2c-.1 0-.2.2-.3.1-.1 0-.1.1-.2.1-.3 0-.5.1-.8.1-.3-.1-.7 0-1 .1-.3-.1-.5-.1-.8-.1-.1.3.3.1.3.1.1 0 .2.1.3.1.1 0 .1-.1.2-.1.3 0 .5.2.6 0 .2 0 .1.2.2.2.2.1.2-.1.4-.2.4 0 .6 0 .9-.1.1 0 0-.2.1-.2.1.1.2-.1.3.1.1 0 .1-.1.1-.2.3.2.6-.1.6-.3.2.1-.1.3 0 .5-.2-.1-.2 0-.3.1 0-.1-.1 0 0 0 0 .2-.1 0-.3 0-.2.3-.7-.1-.8.3-.3 0-.4.1-.6 0-.2.2-.7 0-.9.3-.2-.1 0-.2-.2-.2-.1.1-.6.3-.7 0-.2 0-.3.2-.6.1 0 .2.7-.1.7.3-.2 0-.2.1-.4 0 0-.1-.2 0-.3-.1 0 0 0 .1.1.1-.1.1-.5 0-.5-.1-.2.1-.5 0-.6-.1-.1 0-.1.1-.3 0-.1-.3-.5-.3-.8-.4 0-.1-.1-.1-.1-.3-.3 0-.3-.2-.6-.2-.1-.2-.3-.2-.4-.4-.1-.1-.2-.3-.4-.4 0-.1-.1-.2-.2-.3-.2 0-.1-.2-.3-.2v-.2c-.7-.6-1.1-1.6-1.4-2.5 0-.1-.1-.1-.1 0-.2-.5-.3-1.1-.5-1.6.1-.2-.1-.3 0-.4 0-.1-.2-.2-.2-.2-.1-.3.1-.6-.1-.8h.2c.1-1-.4-1.9 0-2.7 0-.1-.1-.1 0-.2L70 50c.1-.2.1-.5.2-.6v-.3c.2-.8.5-1.5.7-2.3.1 0 .1-.2.2-.2v-.4c.3-.3.3-1 .6-1.4v-.3c.1 0 .1-.1.2-.1 0-.3.1-.5.3-.6 0-.2.1-.3.2-.4 0-.1-.1-.1 0-.2.2-.2.3-.5.4-.7.1-.3.3-.4.3-.8.2-.1.2-.5.4-.6 0-.2.1-.2.1-.4.1 0 .1-.3.2-.3v-.3c.1 0 .1-.2.2-.2 0-.2.1-.2.1-.4.2-.2.2-.6.4-.7.1-.3.3-.5.5-.7v-.3c.1-.2.3-.3.4-.6.2 0 .1-.3.3-.3v-.3c.2-.1.1-.4.4-.4.1-.4.3-.7.5-1 0-.5.3-.6.5-1 .2-.3.3-.7.5-1 .3-.8.6-1.5.8-2.3v-.3c0-.1.1-.1.1-.2 0-.5-.1-1-.5-1.2h-.3c-.1 0-.2-.1-.3-.1-.3.1-.7-.2-.9-.1-.5-.3-1.3-.3-1.8-.6-.1.2-.2.4-.3.7-.1.1-.2.4-.2.6-.1.2-.2.3-.3.6-.1 0 0 .2-.2.2 0 .4-.2.5-.3.8-.1.3-.2.6-.3.8-.2.5-.5 1-.7 1.6-.1 0 0 .2-.2.2 0 .3-.1.4-.2.5 0 .2 0 .4-.2.4 0 .5-.3.6-.4 1-.1 0-.1.1-.2.1 0 .1.1.1 0 .2-.2.2-.2.5-.4.7-.1 0 0 .1-.2.1.1.3-.2.3-.2.6-.1 0-.1 0-.2.1 0 .2-.1.3-.2.4 0 .2.1.1 0 .2 0 .1-.1.2-.2.2 0 .3-.2.4-.2.6-.1 0-.1.2-.2.1 0 .1.2.1.1.2-.1 0-.1 0-.1-.1-.2 0 .1.2-.1.2.2.1-.2.2 0 .2 0 .1-.1.1-.2.1 0 .2.1.2 0 .3-.1 0 0 .1-.2.1 0 .4-.2.5-.3.9-.2 0-.1.2-.2.2 0 0 0 .1.1.1-.2.1-.1.5-.4.6 0 .1.1.1.1.2-.1 0-.1.1-.2.1 0 .5-.4.7-.5 1.1-.2-.1-.1.2-.2.1.1.2-.1.1 0 .3-.2 0-.1.2-.2.2v.3c-.1 0-.1 0-.2.1.2.2-.1.2-.1.4-.3.2-.4.6-.7.8v.3h-.2c.1.2 0 .1 0 .3-.3.3-.4.7-.7.9 0 0 0 .1.1.1-.2.1-.1.4-.4.3 0 .1.1.1 0 .2-.1 0-.1 0-.2-.1 0 .2-.1.3-.1.5-.2 0-.2.3-.4.3 0 .3-.2.3-.3.4 0 0 0 .1.1.1 0 .1-.3.1-.1.2-.1.1-.3.1-.3.3-.1-.2-.1.1-.3 0 .1.1-.2.2 0 .2 0 .2-.2 0-.2.2-.1 0-.2.1-.3.2 0-.1-.1 0-.1-.1 0 .1.1 0 .1.1s-.1.1-.2.1c0 .1-.3.3-.4.6-.1 0-.2.1-.2 0-.1.2-.4.2-.5.3-.1.1-.1.2-.1.3-.2 0-.3.1-.4.3-.1 0-.1-.1-.3-.1-.4.4-.8.4-1.2.6h-.4c-.1 0-.1.1-.1.2-.2 0-.1-.2-.3-.1-.2 0 .1.1 0 .2-.1 0-.1-.2-.2-.2s-.1.3.1.2c0 .2-.3 0-.3-.1.1 0 .2.1.2-.1 0-.1-.2 0-.2.1-.1 0-.1-.1-.2-.1-.1-.2-.2-.3-.4-.4-.1-.2-.2-.3-.3-.4-.1-.3-.3-.4-.4-.6-.2-.1-.3-.4-.5-.6 0-.2-.2-.3-.2-.5-.1-.1-.1-.2-.2-.2 0-.2-.1-.3-.1-.6-.2 0-.1.2-.4.2-.1.4-.5.4-.5.8-.1 0-.1.1-.2.1-.1.3-.2.4-.4.6-.1.3-.3.3-.5.6-.2.1-.3.3-.5.4-.1.1-.2.2-.3.2 0 .2-.2.1-.2.3l-.1-.1c-.2.1 0 .1-.1.3-.2.1-.3.1-.4.3-.1 0-.2 0-.2.1s-.3 0-.2.2h-.3s0 .1.1.1l-.1.1c-.1 0 0 .2-.2.2v-.1c.1 0 0-.1 0 0-.1 0 0 .1 0 .1-.1.2-.3.2-.4.4 0 0-.1 0-.1-.1-.3.3-.7.5-1 .8-.1 0-.1-.1-.1-.2-.1 0-.1.1-.1.3-.2-.1-.2.1-.3.1 0-.1-.1 0-.1 0-.1 0 0 .1 0 0h.1c-.1.4-.7.3-.9.6-.2 0-.2.1-.5 0 0 .1-.2.1-.2.2-.4 0-1 .1-1.4.1-.1 0-.1.1-.2.1-.3-.2-1-.1-1.3-.3-.2 0-.4.1-.6.2-.2 0-.5 0-.6-.1-.1 0-.1.1-.2 0 0-.1-.2 0-.3-.1-.5-.3-1.1-.6-1.6-1-.2-.3-.4-.5-.5-.8-.1-.3-.4-.4-.4-.8-.2-.3-.3-.7-.4-1-.2.2-.4.5-.4.9-.1 0-.1-.1-.1-.2-.2 0-.1.2-.1.4-.4 0-.3.5-.4.8-.1 0-.1 0-.2-.1-.1.3-.3.5-.4.8-.1 0-.1-.1-.2-.2-.1 0-.1.2-.2.1-.1.5-.6.7-.7 1.2-.2.1-.3.3-.4.5-.2 0-.1.3-.4.2.1.2-.1.3-.3.3 0 .1.1.1 0 .2-.3-.1-.2.2-.4.2-.2.3-.4.5-.7.6 0 .2-.2.2-.2.3-.2 0-.2.2-.4.2-.1.2-.4.3-.4.5-.2.1-.4.2-.5.4-.1 0-.1.1-.2 0 0 .1-.1.1-.1.2-.3.1-.4.4-.8.5-.2.3-.5.4-.7.7-.2 0-.1.1-.2.1-.5.4-1 .7-1.5 1-.1.1-.3.1-.4.3-.5.2-.8.6-1.3.7-.3.3-.6.5-1.1.7-.1.1-.2.1-.2.2-.1-.1-.1 0-.2.1-.2 0-.1.2-.3.1 0 .1-.3.1-.3.2-.2 0-.4.1-.6.2-.2.1-.5.1-.6.3-.2 0-.3 0-.3.1-.2 0-.2.1-.3 0-.2.2-.7.1-.9.4h-.2c-.1 0-.1 0-.2.1-.2-.1-.2.1-.3 0-.1 0-.1.1-.1.1-.4 0-.7.1-1 .1-.2-.1-.2-.1-.3 0-.2 0-.1-.1-.2-.2-.3.1-.6-.2-.9.1-.1-.1-.4-.3-.5-.1 0 0-.1 0-.1.1-.1 0-.1-.2-.2-.2 0 0-.1 0-.1.1h-.1c-.6.4-.7.4-.9.4-.2-.2-.4 0-.5-.2-.2 0-.2-.1-.5-.1-.2-.3-.6-.3-.8-.6-.2 0-.4-.1-.4-.3-.2 0-.2-.1-.4-.1 0-.1 0-.1-.1-.2-.4-.1-.6-.6-1-.7v-.2c-.2 0-.2-.2-.4-.2-.1-.2-.3-.3-.3-.5-.1-.2-.2-.2-.3-.3 0-.2-.2-.2-.2-.4 0-.1-.1-.2-.2-.2 0-.1 0-.2-.1-.2s0-.3-.2-.2c0 0 0-.1.1-.1-.3-.2-.3-.6-.5-.8 0-.1 0-.2.1-.3-.2-.2-.2-.3-.4-.4 0 0 0-.1.1-.1-.2-.3-.3-.7-.5-.9 0-.1.1-.1.1-.2.2 0 0-.1.1-.3.2 0 .1.4.3.5v.1c.1 0 .1-.1 0-.1-.1-.5-.2-.6-.3-1-.2 0-.2.2-.2.3-.1 0-.1-.1-.2-.2-.1-.2-.1-.3-.1-.6-.2-.1-.3-.7.1-.6.1.2.2.5.1.8 0 .1.2 0 .2.1-.1-.5-.2-1-.4-1.4-.1 0 .1.1 0 .2-.2 0-.2.1-.2.2-.1 0-.1-.3 0-.4-.2-.1 0-.3-.2-.3 0-.1 0-.1.1-.1-.2-.5-.1-.9-.2-1.4h.1c0-.2-.1-.4-.2-.6 0-.1 0-.1.1-.1-.2-.2-.1-.5-.1-.8-.1-.7 0-1.7.1-2.4v-.6c.2-1 .3-1.9.4-2.9.3-.7.2-1.7.6-2.3v-.3c0-.2.1-.1.1-.2s0-.1-.1-.1c.1 0 0-.1.1-.1-.1 0 0 .1-.1.1h-.1c0-.3.2-.7.3-.9 0-.3.1-.5.2-.7-.1-.3.2-.3.1-.6.1 0 .2-.1.3 0-.1-.3.2-.5 0-.6.1-.2.1-.1.1-.4.1 0 .1-.2.1-.3.1 0 .1 0 .2-.1 0-.5.1-.8.4-1v-.3c.1 0 0-.2.2-.2 0-.5.4-.5.4-1 .1 0 .2-.1.2-.2v-.4c.2-.2.1-.5.4-.7v-.3c.1 0 .2 0 .2.1 0-.2.3-.4.1-.6 0-.1.1-.2.2-.2-.1-.3.2-.4.1-.7.2-.2.3-.5.4-.8.1 0 .1-.2.2-.1.1-.6.5-.8.6-1.4.2.1.1-.2.2-.1v-.3c.3-.3.3-.8.7-1 .1-.3.1-.6.4-.7 0-.3.2-.3.2-.6.3-.2.5-.6.7-1 .3-.2.6-.5.7-1 .1 0 .1-.1.2 0-.1-.2 0-.1 0-.3.2-.1.3-.2.3-.4.2.1.2-.1.3-.1.1-.4.2-.7.5-.8v-.2c.3-.1.3-.5.7-.6v-.3c.2 0 .2-.1.2-.2.2-.1.3-.3.5-.4v-.3c.2-.1.3-.3.4-.6.1 0 .1-.1.2-.1.1-.4.4-.4.5-.8.1 0 .1-.1.2-.1 0-.2.2-.3.2-.5.2-.1.2-.3.4-.3.1-.2.2-.4.4-.5 0-.2.1-.1.1-.3.1 0 .1-.1.2 0 0-.1-.1-.1 0-.2.3-.2.4-.6.8-.7 0-.1.1-.2.1-.3.3-.1.4-.4.6-.5-.1-.3.3-.1.2-.5.1 0 .1.1.2 0 .1-.3.4-.4.5-.7.2 0 .3-.1.3-.3.1 0 .2 0 .2-.2.3.1.2-.3.5-.3-.1-.2.1-.2.1-.5h.2c.2-.3.6-.4.7-.9l.3-.3c.2 0 .2-.3.4-.2v-.2c.2.1.2-.1.4-.2 0-.1.2-.2.2-.3.3 0 .2-.3.4-.3.1-.2.3-.2.4-.4.8-.7 1.6-1.5 2.4-2.2.3-.1.5-.3.7-.6.2 0 .2-.3.5-.3.1-.1.2-.2.3-.4.4-.2.6-.5.9-.7.3-.2.6-.5.9-.7.6-.5 1.3-.9 1.8-1.4 1.3-.9 2.5-1.8 3.9-2.6.4-.3 1-.5 1.5-.9.3 0 .4-.3.7-.3 0-.1.3-.2.5-.3.3-.1.5-.2.8-.3.2-.1.6-.1.8-.3.3 0 .6-.1.8-.1h.2c.2-.1.5-.1.6-.2h.2c.2 0 .5 0 .6-.1h.6c.2-.1.6 0 .9 0 .1 0 .1 0 .2-.1h.4c.1.1.3 0 .5.1h.2c.6.1 1.2.3 1.8.5.2.1.4.3.7.3.2.1.4.3.7.4.1.2.3.3.4.4v.2c.3.3.5.7.9.9 0 .1.1.2.2.3.1.2.3.3.4.5.1.2.3.5.4.6 0 0 0 .1.1.1 0 .1.1.1.2.2v.3c.1.3.2.5.3.8.3.9.3 1.9.5 2.9 0 .9-.1 1.8-.1 2.6 0 .1 0 .1-.1.2v.5c0 .1 0 .1-.1.2-.1.7-.2 1.3-.4 1.8-.1.8-.4 1.3-.5 2.1-.2.4-.4.8-.5 1.3-.3.4-.4.9-.6 1.2-.2.5-.4.9-.6 1.3-.2.4-.5.7-.7 1.2-.3.3-.5.6-.7 1-.2.4-.5.6-.7 1-.1 0-.1.2-.3.2 0 .2-.1.1-.1.3-.3.1-.3.6-.7.7-.4.8-1.2 1.2-1.7 1.9-.2.1-.3.2-.4.4-.3.1-.4.3-.6.5l-.3.3c-.1.1-.3.1-.3.3-.1 0-.1.1-.2 0-.1.1-.3.2-.4.3 0 .2-.3.2-.4.4-.1 0-.1.1-.2 0-.1.1-.3.2-.4.4-.4.1-.6.5-1.1.6-.1.1-.4.2-.5.3-.1.2-.4.2-.5.4h-.4c0 .1.1.1.2.1-.2.1-.3.1-.3.3-.3 0-.5.2-.6.3h-.7c0 .1.1 0 .1.2-.2-.1-.3-.2-.4 0-.1-.1-.2-.1-.1-.2-.7 0-1.3.2-1.9.2-.3 0-.7-.2-1-.1-.1-.1-.3-.1-.5-.1-.1-.1-.3-.1-.5-.1-.1-.2-.4-.1-.6-.2-.2-.1-.3-.2-.6-.2 0-.1-.1-.1 0-.2-.2-.4-.5-.7-.8-1zM56.1 9.9s-.1.1 0 0c0 .1 0 .1 0 0zm-.6 1.4c.1-.1.1-.4-.1-.3-.1.1.1.2.1.3zm.2-.1s0 .1 0 0c.1 0 .2 0 .2-.1h-.2v.1zm-.1.6c.1.2.3 0 0 0-.1-.1 0-.1 0-.3h-.2c-.1.2.1.2.1.3-.3 0 0 .3-.1.4-.1 0-.1-.2-.2-.1 0 .2.1.2 0 .4.3 0 0 .4.2.4.2-.4 0-.7.2-1.1zm2.4.5c.2.1.2-.3 0-.2v.2zm-2.2-.1c0-.1-.1-.1-.1 0 .1 0 .1.1.1 0zm-.3 1.1c.1-.1 0-.2.2-.2v-.3c.1 0 .2-.3 0-.3 0 .3-.2.7-.2.8zm-1.2 1.6c-.1 0-.2.3-.1.3s.1 0 .1-.3c.2-.1 0-.2.3 0 .1-.1 0-.4-.1-.5 0 .2-.2.3-.2.5zm-1.6 4.8c0-.1.3-.3.1-.5.1.2-.2.3-.1.5zm-.2-.3c-.1 0-.1.1 0 0-.1.1 0 .1 0 0zm-1.9 3.5c0-.1 0-.1 0 0zm-.3.4c-.1 0-.1 0 0 0-.1 0-.2.2-.1.2 0-.1.1-.2.1-.2 0-.1 0-.1 0 0zm-.5.5c0 .1 0 .1 0 0zm-.3.4c.1-.1 0-.1 0 0zm-.1.3c0-.1-.1-.1 0 0-.2-.1-.1 0 0 0zm23.7 5.8s-.1.1 0 0c-.1.1 0 .1 0 0zm-53.8-.8c0-.1.1-.2.2-.3.1 0 .2-.3 0-.3 0 .3-.4.4-.2.6zm23.8.8c-.2.1-.1 0-.3-.1.1.2 0 .2-.1.3.1.1.3 0 .3.1 0-.1.1-.3.2-.3-.1 0-.2-.2-.3-.1l.2.1zm.4.2c.2 0 .3-.2.4-.3-.2 0-.4.1-.4.3zm-1.9.4c-.1-.1-.2-.1-.2 0 .1.1.2.1.2 0 .3.1.2-.2.4-.2v.2h.3c-.1-.4.3.1.4-.2-.2 0-.1-.2-.1-.3-.2 0-.4.1-.5.2-.2-.1-.2 0-.5-.1v.4zm-.3-.3s0-.1 0 0c-.1 0-.1 0 0 0zm1.2.3c0-.1 0-.1 0 0zm.2 0c.1 0 .1 0 .2-.1-.1 0-.2 0-.2.1zm.3.3c.1 0 .2 0 .2-.1h-.1l-.1.1zm1.5 21.6c0-.1 0-.2-.1-.2 0 .1 0 .2.1.2 0 .5.4.6.7.7 1 .1 1.7-.1 2.4-.3.8-.6 1.6-1 2.2-1.7.4-.2.7-.7 1.1-.9.3-.3.6-.7 1-1 1.2-1.4 2.4-2.9 3.6-4.4 0-.3.1-.4.1-.7.2-.2.2-.6.4-.8.1-.3.2-.7.4-.8.1-.7.5-1.1.6-1.8.4-.5.7-1.1 1.1-1.7.3-.6.7-1.1 1-1.7.2-.2.4-.5.5-.8.3-.2.4-.6.5-.8.4-.5.5-1.3.9-1.8-.1-.4.2-.7 0-1.3-.3-.1-.6-.1-.9-.2-.3.1-.5 0-.8.1-.3 0-.6.1-1 .1-1.1.3-2 1-3 1.4-.3.3-.7.6-1.1.8-.4.3-.6.6-1 .9-.6.6-1.3 1.2-2 1.8-.3.3-.6.7-.9 1-.3.3-.5.7-.8 1-.5.8-1.1 1.4-1.5 2.2-.3.3-.5.8-.8 1.1-.1.5-.5.8-.6 1.2-.5.8-.9 1.7-1.2 2.5-.3 1-.6 1.9-.7 3.1 0 .7-.1 1.2-.1 1.7 0 .1.1.4 0 .7 0 .2.1.2 0 .4-.2.1.1.3-.1.2.1-.1.1-.2 0-.2zm-3.4-7.4s-.1 0 0 0c0 .1.1 0 0 0zm-23.9.1c0-.2.3-.6.1-.6 0 .2-.2.5-.1.6zm23.7 1.1s.2-.2 0-.2c0 0-.1.2 0 .2zm-24.1.9v-.3c.1-.1.1-.2.1-.3 0-.1 0-.2-.1-.2 0 .2-.2.7 0 .8zm46.1.7c-.2.2.2.2 0 0zm7.2 2.1c.2 0 .2-.2.2-.3-.2-.1-.1.2-.2.3zM16.6 49s.1-.6-.1-.6c0 .3-.2.6.1.6zm-.2 1.5h.3c-.1-.3-.2-.6 0-.9-.1 0-.1-.1-.2-.1-.1.5-.1.6-.1 1zm.4-1c0 .1.1 0 0 0zM70 51.9s0-.1 0 0c-.1 0 0 .1 0 0zm-11.5-.3c0 .1.1.2.2.2 0-.2.2-.2.2-.3-.2-.1-.2.1-.4.1zm12 .5c0-.1 0-.2 0 0zm-12.8-.5c.1.2.2.3.4.4-.1-.1-.3-.5-.4-.4zm12.8 1.5c0-.1 0-.3-.2-.3.1.1 0 .4.2.3zm-1 .2c0 .5-.1.9.4 1 .1-.2.1-.4 0-.6 0 .1-.1.1-.2.1.1-.1 0-.1 0-.2h.2c0-.2 0-.3-.1-.4-.1.1-.1.2-.3.1zm-32.3-.4c0-.1.2-.2.1-.2 0 0-.3.1-.1.2zm32.9 2.4c0-.2 0-.5-.2-.5-.1.1-.1.4.2.5zm.1.5c.1-.2-.1-.1-.1-.2s0-.2-.1-.2c-.1.1 0 .4.2.4zm-58.1-.5c0-.2.1-.4-.1-.4-.1.1 0 .3.1.4zm70.4 2.5s-.1 0-.1.1c0-.1.1 0 .1-.1zm-.3.4s-.1-.1 0 0c-.2 0-.2.1 0 0zM70.9 58c0 .1 0 .2.1.2 0-.1 0-.2-.1-.2 0-.1-.1 0 0 0zm.4.9c0-.1-.1-.2-.2-.3 0 .1 0 .3.2.3zm-55.3-1c0-.3-.2-.4-.4-.5.1.3.2.5.4.5zm55.9 1.6c0-.1 0-.1-.1-.2 0 .1 0 .2.1.2zm.2.5h.1v-.2H72c0 .1.1.1.1.2zm8.4.3c0-.1-.1 0 0 0 0 0 .1 0 0 0zM13 58.8c.1 0 .1 0 .2.1 0 .2.2.1.2.4 0 .1-.1.1-.1.2.2 0 .2.2.2.4.2.1.2.3.3.5.2 0 .1.3.3.3.1-.2-.1-.2-.2-.3v-.2c-.5-.4-.5-1.3-1-1.8 0 .1.2.1.1.4zm3.1-.2s0-.1-.1-.1c-.1.2.1.4.2.5 0-.1 0-.2.1-.2 0 0 0 .1.1.1 0-.2-.1-.3-.2-.4-.1 0-.1.1-.1.1zm-.4.1c-.1 0-.1-.1-.1 0s.1.1.1 0zm.9.5c-.1 0-.1.1-.2.1-.1-.1-.1-.2-.2-.2 0 .2.1.2.2.4 0 .1-.2 0-.2.1.1.2.3 0 .5 0 0-.1-.1-.1 0-.2.1 0 .2.2.3.1-.1-.1-.2-.5-.3-.3-.2-.1-.1-.1-.1 0zm1.2.4c0-.2-.2-.2-.3-.4 0 .3.2.4.3.4zm-1.6-.2s-.1 0-.1.1c0-.1.1-.1.1-.1zm58.1 2c-.2-.2-.1.2 0 0zm.9.4c0-.2-.5-.2-.6-.2.1.1.5 0 .6.2zm-56-2s-.1.1 0 0c0 .1 0 .1 0 0zm56.2 1.9s-.1 0 0 0c-.1.1 0 0 0 0zM19.5 60c.1 0 .1.1.2.1.1-.1 0-.2-.1-.2l-.1.1zm54.6 1.9c.2.1.4.2.5 0-.2 0-.4-.2-.5 0zm-53.5-1.7c-.1 0-.2 0-.2.1.1 0 0 .1-.1.1 0 .3.3.3.4.5.1-.3.2.1.4 0-.1.2.1.1.2.1.1.1.6.3.6 0-.2 0-.1-.1-.3-.1v-.1c-.1 0-.1-.2-.2-.2 0 .1-.2.1-.2.2.1.1.2.1.2.2h-.2v-.1s-.1-.1-.2-.1l-.1-.1c0-.1.1 0 .2-.1 0-.1-.1-.1 0-.2-.1 0-.1-.4-.5-.4v.2zm-3.1 0c.2.1.2-.3 0-.2v.2zm-.4.1h.1v-.1h-.1v.1zm-.3 0c0-.1-.1 0 0 0-.1 0 0 0 0 0zm.2.4c0-.1.1-.1.1-.2-.1 0-.1-.1-.3-.1.1.1.1.3.2.3zm9.5.3c.1 0 .1 0 .2-.1-.2 0-.3 0-.2.1zm-8.8.3c0-.1 0-.1.1-.1-.3 0-.4-.5-.6-.4 0 .1.1.1 0 .2h.2c0 .3.4.3.5.6.2 0 .2.1.5.1-.1-.3-.5-.3-.7-.4zm0-.5s0 .1.1.1c0-.1.1 0 .1-.1-.1 0-.1-.1-.2 0zm8.2.5c.1 0 .2 0 .2-.1-.1 0 0-.1 0-.1-.1-.1-.2 0-.2.2zm-.4-.1c.1.1.3.1.2-.1-.1 0-.2 0-.2.1zm-5.9-.1c.1 0 .1.1.2.1 0-.1 0-.1-.1-.2-.1 0-.1.1-.1.1zm3.3 0s-.1 0-.1.1c0-.1.1 0 .1-.1zm-8.6-.1c.1.1.1 0 0 0 .1-.3-.1 0 0 0zm10.7.3c-.1 0-.1 0 0 0-.1.1 0 0 0 0zm-.6.1c0 .1.1 0 0 0zm-10-.2s.1 0 0 0c.1.1.2 0 0 0 .1 0 .1 0 0 0 0-.1 0 0 0 0zm5.3.2l.1.1c.1 0 .3-.3.3.1.4-.1-.3-.5-.4-.2zm-1.1.1c0-.2-.1-.2-.2-.2 0 .2 0 .3.2.2zm5.4 0s-.1.1 0 0c-.1.1 0 .1 0 0zm-3 2c-.2 0-.3-.1-.5-.1 0 .2.5.3.5.1zm-3.7.3s0 .1 0 0c0 .1.1.1 0 0zm1.8.9c-.1 0-.1-.1-.2-.1-.1.2.2.2.2.1z"/>
    <path d="M110.7 4.5c.1-.1.1 0 0 0 .1.1 0 0 0 0z"/>
    <path d="M110.5 5.5c0-.1.1 0 0 0z"/>
    <path d="M110.5 5.5s0 .1-.1.1c.1 0 .1-.1.1-.1z"/>
    <path d="M110.5 5.6s0 .1-.1.1c0 0 0-.1.1-.1z"/>
    <path d="M110.4 5.7c.1.3-.2 0 0 0z"/>
    <path d="M110.3 5.9c.1 0 0 .1 0 0z"/>
    <path d="M55.1 6.1c.1.1.2.3.2.5-.2 0-.3-.3-.2-.5z"/>
    <path d="M55.3 6.9c.1.1.1.2.2.4-.3.1-.3-.3-.2-.4z"/>
    <path d="M55.4 7.7c.2.1.1.6.2.8-.1.2 0 .6 0 .9-.1-.1 0-.4-.2-.4.1-.2.1-.4 0-.5 0-.1 0-.2.1-.3-.1-.2-.4-.4-.1-.5z"/>
    <path d="M55.9 8.5v.1c-.2.1 0-.2-.2-.2.1-.1.1.1.2.1z"/>
    <path d="M55.7 8.7c.2-.1.1.1.1.2 0-.1-.2-.1-.1-.2z"/>
    <path d="M55.3 9.2c0-.1.1-.1 0 0 .1-.1 0 0 0 0z"/>
    <path d="M55.8 9.5c-.2 0-.2-.2-.1-.2s.2.1.1.2z"/>
    <path d="M55.5 9.5s.1 0 0 0z"/>
    <path d="M120.8 14.2c-.1 0 0 0 0 0z"/>
    <path d="M55 12.4z"/>
    <path d="M53.8 16c-.2-.1 0-.3 0 0z"/>
    <path d="M29.5 15.5s.1-.1 0 0c.1 0 .1 0 0 0z"/>
    <path d="M37.1 15.9h.1v.1h-.1v-.1z"/>
    <path d="M36.9 16.1c.1 0 .1.1 0 0z"/>
    <path d="M97.8 25.3c.1 0 .1 0 .1.1h-.1v-.1z"/>
    <path d="M129.1 26.4c0-.1.1 0 0 0-.1.1-.1 0 0 0z"/>
    <path d="M129 26.6c0-.1.1-.1 0 0z"/>
    <path d="M129 26.6c0 .1 0 .2-.1.2s0-.2.1-.2z"/>
    <path d="M48 25.4c.1 0 0 0 0 0z"/>
    <path d="M48 25.4v.1s-.1 0-.1.1c0 0-.1 0-.1.1 0 0-.1.1-.2.1.2-.2.2-.4.4-.4z"/>
    <path d="M128.1 28.1c.3 0-.1.3 0 0z"/>
    <path d="M47.7 25.7v.1s-.1 0-.1.1c-.1 0-.1.1-.2.1 0-.3.2-.2.3-.3z"/>
    <path d="M127.9 28.4s.1 0 0 0z"/>
    <path d="M127.9 28.5s0-.1 0 0z"/>
    <path d="M127.9 28.5c0 .1-.1 0 0 0z"/>
    <path d="M46.8 26.7c0-.1 0-.1 0 0 0-.1 0 0 0 0z"/>
    <path d="M46.7 26.7s0-.1 0 0c.1 0 0 0 0 0z"/>
    <path d="M46.7 26.7c0 .1-.1 0 0 0z"/>
    <path d="M45.5 27.6h.1v.1h-.1v-.1z"/>
    <path d="M44.9 28.1s.1 0 0 0c.1 0 0 .1 0 0z"/>
    <path d="M44.3 28.5c0 .1 0 .1 0 0z"/>
    <path d="M44 28.8c0-.1.1 0 0 0z"/>
    <path d="M44 28.8c0 .1 0 .1-.1.1v-.1h.1z"/>
    <path d="M89.5 30.4c0-.1.1-.1 0 0 .1 0 0 0 0 0z"/>
    <path d="M43.9 28.9c-.1.1-.1.2-.3.2-.1-.2.1-.2.3-.2z"/>
    <path d="M90.8 30.5c0 .1 0 .1 0 0z"/>
    <path d="M42.9 29.3c0-.1.3.1 0 0z"/>
    <path d="M90.5 30.9c.1 0 0 0 0 0z"/>
    <path d="M42.9 29.3c0 .1 0 .1 0 0 0 .1 0 .1 0 0z"/>
    <path d="M42.9 29.4c.1 0 .1.1 0 0z"/>
    <path d="M42.5 29.5c.1 0 .2 0 .2.1h-.2v-.1z"/>
    <path d="M41.5 30.1c0-.1.1 0 .1-.1 0 .1 0 .1-.1.1z"/>
    <path d="M40.6 30.2c.1 0 0 .1 0 0z"/>
    <path d="M42.3 30.5s.1 0 0 0c.1 0 0 0 0 0z"/>
    <path d="M42 30.7s.1-.1 0 0c.1 0 0 0 0 0z"/>
    <path d="M41.8 30.8s0-.1 0 0c.1 0 0 0 0 0z"/>
    <path d="M38.5 30.7c0-.2.1.1.2 0 0 .2-.1.1-.2 0z"/>
    <path d="M38.2 30.8s0-.1 0 0z"/>
    <path d="M42.1 31.1c.1.1.2.1.2.3-.3 0-.3-.2-.2-.3z"/>
    <path d="M40.3 31.2c.2 0 0 .2-.1.1-.2 0-.1-.1.1-.1z"/>
    <path d="M40.5 31.2c.1-.2.1.1.2.1-.1.2-.1 0-.2-.1z"/>
    <path d="M42.3 31.3c0-.1.1-.1 0 0 .1 0 .1 0 0 0z"/>
    <path d="M41.3 31.3c.2 0 .4.1.5 0 0 0 .1 0 .1.1 0 0 0 .1.1.1-.3 0-.7-.1-.7-.2z"/>
    <path d="M38.9 31.7c0-.1 0-.1 0 0 .1 0 0 0 0 0z"/>
    <path d="M40.4 32.6c0-.1.4-.1.3.1-.1-.1-.2-.1-.3-.1z"/>
    <path d="M40.8 32.5c.1.1.3 0 .3.1 0 .2-.4.1-.3-.1z"/>
    <path d="M43.3 32.7c0-.1 0 0 0 0 0 .1 0 0 0 0z"/>
    <path d="M43.5 32.7c0-.1.1 0 .2-.1v.2c-.2 0-.1-.1-.2-.1z"/>
    <path d="M43 32.8c-.1 0-.1 0-.1-.1h.1v.1z"/>
    <path d="M41.5 32.7c-.1.2-.4 0 0 0z"/>
    <path d="M43 32.8c.1 0 .1 0 .2.1 0 .1-.3 0-.2-.1z"/>
    <path d="M43.4 32.9c0-.1 0-.1 0 0 .1-.1 0 0 0 0z"/>
    <path d="M68.3 36.2c-.1 0 0-.1 0 0z"/>
    <path d="M84.8 37.8s.1-.1 0 0c.1 0 .1 0 0 0z"/>
    <path d="M96.7 42.7c.1 0 .1 0 .1.1h-.1v-.1z"/>
    <path d="M13.3 40.9c0-.1.1-.1.1 0s0 0-.1 0z"/>
    <path d="M95 44.4c.3 0 0 .2 0 0z"/>
    <path d="M95.2 44.8c0-.1.1 0 .1 0h-.1z"/>
    <path d="M94.7 44.9s.1 0 0 0z"/>
    <path d="M94.7 44.9c0 .1-.1.1 0 0z"/>
    <path d="M95 44.9c.1.1.1.4-.1.3 0-.1-.1-.1.1-.3z"/>
    <path d="M94.1 45.5c0 .3-.2 0 0 0z"/>
    <path d="M89.1 45.9c-.1 0 0-.1 0 0z"/>
    <path d="M12.5 43.5c.2 0 .1.3-.1.3 0-.1.1-.1.1-.3z"/>
    <path d="M92.4 46.7c0-.1.1 0 .1-.1 0 .1-.1.1-.1.1z"/>
    <path d="M91.4 46.8s.1 0 0 0c.1 0 .1 0 0 0z"/>
    <path d="M92.1 46.9c.1-.2.1.2 0 0z"/>
    <path d="M91.6 46.9c-.1 0 0 0 0 0s0 .1 0 0z"/>
    <path d="M92.1 46.9c0 .1-.1 0 0 0z"/>
    <path d="M91.9 47.1c0-.1 0-.1 0 0 .1-.1 0 0 0 0z"/>
    <path d="M91.3 47.4c-.1 0 0-.1 0 0z"/>
    <path d="M90.6 47.5c-.1.2-.3-.1 0 0z"/>
    <path d="M64.9 47c0-.1.1-.1 0 0z"/>
    <path d="M88.9 48.2c0 .1-.1.1-.2.1v-.4c.1 0 .2.2.2.1.3 0-.2.1 0 .2z"/>
    <path d="M17.6 45.6c0-.1.1-.1.1 0s-.1.1-.1 0z"/>
    <path d="M86.6 48c-.2.2-.3-.2 0 0z"/>
    <path d="M88.9 48.2c0-.1.1 0 0 0z"/>
    <path d="M88.1 48.2c-.1 0 0-.1 0 0 .1 0 0 0 0 0z"/>
    <path d="M88.6 48.2s.1 0 0 0c.1 0 .1 0 0 0z"/>
    <path d="M39.9 47.5s.1 0 0 0c.1 0 0 0 0 0z"/>
    <path d="M62.9 49.6c0-.1.1 0 0 0z"/>
    <path d="M62.7 49.8c.2 0-.1.3 0 0z"/>
    <path d="M16.9 48.8h.1v.1h-.1v-.1z"/>
    <path d="M16.8 50.1c.2-.1.1.1.1.2s.1.4 0 .5c-.2-.2 0-.4-.1-.7z"/>
    <path d="M17 51.1c0 .1-.1.1-.2.1 0-.1.1-.1.2-.1z"/>
    <path d="M16.6 51.2c.1 0 .1.1.2.1l-.1.1h-.1v-.2z"/>
    <path d="M16.9 51.4c.2 0 .1.3.1.4-.1-.1-.3-.2-.1-.4z"/>
    <path d="M39.6 52.3s.1-.1 0 0c.1 0 0 0 0 0z"/>
    <path d="M16.5 51.7s0-.1 0 0c.1 0 0 0 0 0z"/>
    <path d="M39.5 52.5c-.1-.1 0-.1 0 0 0-.1 0 0 0 0z"/>
    <path d="M16.8 52.1c-.1 0 0-.1 0 0z"/>
    <path d="M84.8 55.6c0-.1.1-.1.1-.2h.3c-.1.3-.3.1-.4.2z"/>
    <path d="M84 56.2c0-.2.1-.3.2-.2 0 0 0 .2-.2.2z"/>
    <path d="M83.7 56.7s0-.1 0 0c.1 0 0 0 0 0z"/>
    <path d="M17.1 54.5c0-.1.1 0 .2-.1-.1.1-.2.1-.2.1z"/>
    <path d="M17.9 56.7h.2c0-.2-.2-.3-.2-.5-.2 0-.1.1-.2 0 .2 0 0-.4 0-.3 0-.2-.1-.2-.2-.4.2.1.2-.1.3-.2.2.1.1.4.2.5-.1.1.1.3 0 .3 0 .1.1.1.2.1-.1.3.3.4.3.8-.1-.1-.4 0-.2.1 0 .1-.3 0-.3 0-.2-.3-.1-.3-.1-.4z"/>
    <path d="M17.2 55.7c-.2 0 .1-.2 0 0z"/>
    <path d="M83.4 57.9c.2.1 0 .1 0 .2-.1 0 0-.2 0-.2z"/>
    <path d="M17.2 55.7c.1 0 0 .1 0 0z"/>
    <path d="M12.1 55.7c.1 0 0 .1 0 0z"/>
    <path d="M83.1 58.2c-.1-.1 0-.1 0 0 .1-.1 0 0 0 0z"/>
    <path d="M82.9 58.2s0-.1 0 0c.1 0 0 0 0 0z"/>
    <path d="M17.4 56.3c-.1 0 0-.1-.1-.1-.2.4.4.6.5 1-.1.1-.1.2-.1.4-.2 0-.4-.2-.5 0-.3-.1 0-.6-.3-.8 0-.1.1-.1.1-.2s-.2-.1-.1-.2c.2.1.1-.1.1-.3.4 0 .5 0 .4.2z"/>
    <path d="M17.5 56.6s.1-.1 0 0c.1 0 0 0 0 0z"/>
    <path d="M17.9 56.7c-.3 0 0-.2 0 0z"/>
    <path d="M18.4 57.7c.1-.3-.2-.2-.2-.4.2.1.1 0 .3 0 .2.3 0 .4 0 .8-.1 0-.2 0-.2-.1.1-.2.3-.2.1-.3z"/>
    <path d="M81.7 59.4c.1 0 .1 0 .1.1s-.1.1-.2.2c0-.2.1-.2.1-.3z"/>
    <path d="M82.3 59.5c0-.1 0-.1 0 0 .1-.1 0 0 0 0z"/>
    <path d="M81.4 59.6h.2c-.1.1-.1.2-.3.2 0-.1.1-.1.1-.2z"/>
    <path d="M12.3 57.5s.1 0 0 0c.1 0 0 0 0 0z"/>
    <path d="M17.4 57.7c-.1 0 0-.1 0 0 .1 0 0 0 0 0z"/>
    <path d="M18 57.7s.1-.1 0 0c.1 0 0 0 0 0z"/>
    <path d="M18.4 57.7c-.1.1-.3-.1 0 0z"/>
    <path d="M12.5 57.8c-.3.1.1-.2 0 0z"/>
    <path d="M18.8 58.1c-.3.1.1-.2 0 0z"/>
    <path d="M81.1 60.3c.1 0 .1 0 .1.1-.1.1-.1 0-.2 0l.1-.1z"/>
    <path d="M80.9 60.4c.2-.1.1.1.1.2-.2-.1-.1.2-.3.1-.1-.2.2-.1.2-.3z"/>
    <path d="M18.8 58.9c0-.2.2 0 0 0z"/>
    <path d="M80.4 61.1s-.1-.1-.2-.1c0-.2.2-.1.2.1z"/>
    <path d="M18 58.9c0 .1-.1.1 0 0z"/>
    <path d="M79.9 61s.1 0 0 0c.1 0 0 .1 0 0z"/>
    <path d="M80.2 61.1c-.2.2-.3.2-.5.3v-.2c.1.2.2-.1.5-.1z"/>
    <path d="M29.3 59.5s.1 0 0 0z"/>
    <path d="M79.1 61.4c0-.1.1-.1 0 0 .1-.1 0 0 0 0z"/>
    <path d="M19.2 59.5c-.1-.1 0-.1 0 0z"/>
    <path d="M20.6 59.6c0 .1 0 .1 0 0z"/>
    <path d="M18.5 59.7c0-.1.1 0 .2-.1 0 .1-.1.1-.2.1z"/>
    <path d="M79.5 61.7c0 .2-.2.2-.2.3-.2-.1 0-.4.2-.3z"/>
    <path d="M78.8 62c.1 0 0 .1 0 0z"/>
    <path d="M78.3 62c.2.1-.1.4-.2.2 0 0 .2 0 .2-.2z"/>
    <path d="M27.8 60.5c-.1 0-.1.1-.2.1 0-.1 0-.1.1-.2 0 0 .1 0 .1.1z"/>
    <path d="M20.6 60.2c.1 0 .1.1 0 0z"/>
    <path d="M27.6 60.5c0 .1-.1.1-.2.1 0-.1 0-.1.2-.1z"/>
    <path d="M77.8 62.2v.2c-.1 0-.3 0-.2-.1 0-.1.1-.1.2-.1z"/>
    <path d="M27 60.7c-.2.1-.1 0-.1-.2.1.1.1.1.1.2z"/>
    <path d="M19.6 60.4h.1v.1h-.1v-.1z"/>
    <path d="M21 60.5c-.2.2-.2-.2 0 0z"/>
    <path d="M76.4 62.4c-.2-.1 0-.3 0 0z"/>
    <path d="M76.7 62.3c.2-.1 0 .1 0 0z"/>
    <path d="M77 62.3c.2.1-.1.2-.1.2-.2-.1.1-.2.1-.2z"/>
    <path d="M76.1 62.3h.1v.1s-.1 0-.1.1H76c0-.1 0-.1.1-.2 0 .1 0 0 0 0z"/>
    <path d="M76.4 62.4c.1 0 .1-.1.2 0 0 .1-.1.1 0 .1-.1.1-.2.1-.3 0 0-.1.1-.1.1-.1z"/>
    <path d="M75.5 62.4c0 .1-.1 0 0 0z"/>
    <path d="M19.9 60.7s.1-.1 0 0c.1 0 0 0 0 0z"/>
    <path d="M21.8 60.8c0 .1-.1.1-.1 0h.1z"/>
    <path d="M17.6 61.3c0-.1 0-.1 0 0 .1-.1 0 0 0 0z"/>
    <path d="M30.4 61.7s.1-.1 0 0c.1 0 0 0 0 0z"/>
    <path d="M19.4 65.1c.1 0 .1.1 0 0z"/>
    <path d="M19.8 65.2c.3-.1 0 .2 0 0z"/>
    <path d="M20.1 65.3c0-.1.1 0 .1-.1 0 .1-.1.1-.1.1z"/>
    <path d="M20.3 65.3c.1 0 .3-.1.3.1-.2 0-.2-.1-.3-.1z"/>
    <path d="M20.7 65.3c.1-.1.3.1.5 0-.1.2-.4.1-.5 0z"/>
    <path d="M21.7 65.3s0 .1 0 0z"/>
  </g>
  <g fill-rule="evenodd" clip-rule="evenodd">
    <path d="M167.1 38.1c.7.2 1.2 0 1.7.2h.5c0 .1 0 .2.1.2.2-.1.3.1.4.1.1 0 .1-.1.2-.1 0 .3.4 0 .5.2.1 0 .4.1.4 0 .3.2 1 .1 1.2.3.5-.1 1 .2 1.6.2.5.3 1.1.4 1.7.6.6.2 1 .5 1.7.6.2.3.8.4.8.7.3.1.5.2.6.4.5.1.9.3 1.2.6.4.2.8.5 1.2.7.2.3.4.5.6.7.1.4.4.6.5 1 .3.2.6.5.9.6 0 .3.1.6.2.8-.1.1 0 .2 0 .4s-.2.1-.2.4c-.4-.1-.6-.4-1-.5-.2-.4-.7-.5-1.1-.7-.4-.2-.9-.4-1.2-.7-.3-.1-.6-.2-.8-.3-.8 0-1.2-.4-1.9-.5-.6-.2-1.3-.3-1.8-.6-1 0-1.8-.4-2.8-.4-.8-.2-1.6-.3-2.4-.4-.5 0-1-.2-1.4-.2-1.2-.1-2.7-.1-3.8-.2h-.8c-1 0-2 .1-3.1.1-.1 0-.1.1-.2.1-.2.2-.2.6-.4.8-.3 1.2-.9 2.1-1.3 3.3-.3.5-.4 1.1-.6 1.7-.2.2-.1.7-.3.8-.1.3-.1.7-.3.8 0 .7-.4.9-.5 1.6-.2.2-.2.5-.3.8-.1.2-.3.4-.4.6 0 .1.1 0 .2 0l-.6 1.8c0 .1-.1.1-.2.1.1.1 0 .3 0 .5-.1.1-.1 0-.2 0-.1.2.2.3 0 .5 0 .1-.1.1-.2.1.1.2 0 .3 0 .6-.3.2-.2.9-.6.9 0 .1.2.1.1.2-.1 0 0 .3-.1.4-.1 0-.2 0-.2.1s.1.1.2.1c-.1.3-.1.5-.4.8 0 .5-.1.9-.3 1.1v.4c-.2.4-.3.9-.6 1.2v.4c-.2 0-.2.2-.2.4-.3.2-.2.4-.4.6 0 0 0 .1-.1.1-.3 1.2-.8 2.2-1.1 3.3-.4 1.1-.6 2.4-1 3.5-.1.9-.2 1.7-.3 2.5v1c.1.6.1 1.1.2 1.6.2.6.4 1.2.7 1.7.4.6 1 1.1 1.6 1.6.4.1.6.5 1 .6.3.2.9.2 1.3.4.3 0 .4 0 .7.1.5 0 1-.1 1.4 0 .2-.1.5-.1.8-.2.3-.2.7-.3 1.1-.4.6-.3 1.4-.5 1.9-1 .6-.3 1.1-.8 1.7-1.1.2-.3.4-.4.7-.6.2-.2.5-.4.7-.6.3-.5.7-.8 1-1.2.2-.2.3-.4.5-.6 0-.2.3-.1.2-.4.2.1.1-.3.4-.2 0-.1 0-.2-.1-.2.2-.2.5-.4.6-.8.1 0 .2-.1.3-.2.1-.1.2-.2.1-.4.2-.1.3-.4.4-.6.2 0 .1-.3.3-.3 0-.2.2-.2.2-.4.3-.4.5-.9.8-1.4.2-.4.4-.8.6-1.1 0-.1.1-.1.1-.1.1-.1 0-.1.1-.2.3-.5.6-1.1.8-1.5 0 .4-.2.5-.3.8-.2.2-.2.6-.4.7 0 .1.1.1.1.2-.3.2-.4.7-.6 1 0 .2-.1.3 0 .5-.3 0-.2.4-.4.5 0 .3-.3.4-.3.8-.2 0-.1.2-.2.3-.2 0 0 .3-.3.3.1.3-.3.4 0 .5-.2.2-.3.2-.2.5-.1 0-.1-.1-.2-.1-.1.3 0 .2 0 .5-.1-.1-.2 0-.2.1.1.6-.5.8-.3 1.3-.3-.1-.3.2-.1.2 0 .1-.1.1-.2.1 0 .1 0 .2-.1.2 0 .4-.3.9-.6 1.2l-.1-.1c.1 0 0-.1 0 0-.1 0-.1.1-.1.2-.1.2-.4.3-.3.5h-.3c-.1.2-.3.3-.4.6-.1.1-.2.1-.3.2-.1.4-.5.5-.7.8-.3 0-.4.2-.6.3-.2.2-.4.3-.5.5-.2 0-.5.2-.7.4-.2 0-.2.2-.4.2 0 .2-.3.2-.4.3-.3.1-.5.4-.9.4-.3.1-.5.3-.9.4-.6.4-1.4.5-2.2.7-.2 0-.1.1-.2.1-.5.1-1 .1-1.5.2-1.1 0-1.9 0-2.9-.2-.2-.1-.3.1-.5 0-.2 0-.1-.2-.2-.3-.1.1-.3.1-.5.1 0-.1.1-.1 0-.2h-.4c0-.3-.2 0-.3-.1-.1-.1-.2-.2-.4-.3-.5-.1-.7-.4-1.1-.6-.2-.1-.3-.3-.5-.3-.2-.1-.3-.3-.6-.3-.2-.3-.5-.5-.8-.7-.2-.5-.6-.7-.7-1.3-.2-.5-.3-1-.6-1.5 0-.3 0-.4-.1-.5 0-.7-.2-1.3-.2-2.1.1-.2-.1-.2-.1-.3 0-.6.1-1.2.1-1.6-.2 0-.2.1-.2.2-.1.1-.2.1-.2.3-.2.2-.3.3-.4.5-.3.1-.4.4-.7.4-.1.3-.2.4-.4.6-.4.2-.8.4-1.1.6-.1 0-.2.1-.3 0-.3.1-.5.3-.7.5-.4.1-.8.2-1.1.5-.4 0-.8.1-1 .3-.1-.1-.3 0-.4 0 .1-.1 0-.2-.1-.2-.1.1-.2.2-.4.2-.1-.1-.4 0-.4 0-.1 0-.1-.1-.2-.1-.5 0-1 .1-1.4 0-.3 0 .1-.1-.1-.2-.2 0-.3 0-.5.1-.1-.1-.2-.2-.5-.1-.1-.1-.2-.2-.4-.2 0-.2-.3-.4-.4-.3-.1-.1-.1-.2-.3-.3-.1-.1-.2-.2-.4-.3 0-.2-.2-.1-.1-.4 0 0-.1 0-.1.1-.1-.3-.3-.4-.3-.7-.1-.1-.4 0-.3-.3-.1 0-.2 0-.2.1-.1-.1-.1-.2-.1-.3-.1 0-.1-.1-.1.1-.2-.1 0-.1 0-.2-.3-.1-.2.2-.5.2-.2.3-.5.5-.6.8-.1 0-.1.1-.2.1 0 0 0 .1.1.1-.2.3-.5.5-.7.8-.1 0-.1.1-.2 0-.2.1.1.2-.1.2-.1 0-.1.2-.2.1 0 .2-.1.2-.2.1v.3c-.1 0-.1-.1-.1-.2-.2.1-.2.3-.1.4-.4.2-.5.6-.9.8 0-.1.1-.1.1-.2-.3 0-.2.4-.3.5 0 .2-.4.1-.2.4-.1 0-.2 0-.2.1-.1 0-.2 0-.2.2-.2-.1-.1.2-.3.1-.2.2-.4.3-.6.5-.1 0-.3 0-.3.2-.1 0-.2 0-.2-.1-.2 0 .1.1 0 .2-.2.1-.3.2-.5.3-.2 0-.5.1-.5.3-.1-.1-.1-.2-.2-.2-.2 0-.3.2-.4.3.2.1.1-.2.3-.1 0 .2-.3.2-.4.3-.1 0-.1-.1-.1-.2-.1 0-.2 0-.2.2-.1 0-.3 0-.3.1-.2 0-.1-.1-.2-.1-.1.1-.4.1-.4.3-.3-.1-.4 0-.7 0-.2 0-.1.3-.3.3-.3.1-1.1-.1-1.4.1 0-.2.2-.1.2-.2-.6-.1-1 0-1.5 0-.1 0-.5-.2-.6 0-.1-.1-.3-.2-.5-.1 0-.2-.1 0-.2-.1s-.2-.1-.4-.1c-.2-.2-.4-.3-.7-.3-.3-.3-.6-.6-1-.8-.6-.7-1.2-1.4-1.5-2.3-.4-.9-.6-2-.7-3.1 0-.7 0-1.1.1-1.6 0-.1-.1-.2-.1-.3 0-.2.1-.8.2-.9 0-.1-.1-.1-.1-.2 0-.2.1-.3.1-.5-.1-.3 0-.4 0-.7.4-2.1 1-3.9 1.8-5.5.4-.8.8-1.7 1.2-2.4.5-.8.9-1.6 1.5-2.2.2-.5.6-.6.8-1.1l.9-.9c.6-.6 1.2-1.3 1.8-1.8 1.2-1.2 2.6-2.2 4.5-2.6h1.1c.3.1.5.2.8.3.4.4.8.8 1.1 1.3.2.2.5.4.7.7.4.2.7.5 1 .8 0 .1 0 .2.1.2v.2c0 .2-.1.4-.2.6 0 .7-.2 1-.2 1.7-.1.2-.1.6-.3.8v.4c-.4.8-.7 1.7-1 2.5-.2.4-.5.7-.6 1.2-.1.2-.3.3-.3.5-.1.2-.3.3-.4.5-.3.3-.5.7-.8 1-.1.2-.3.3-.4.5-.1.2-.2.4-.4.5-.5.7-1.2 1.2-1.8 1.7-1.2.6-2.2 1.3-3.8 1.4h-1c0-.2.3.1.2-.1-.2-.1-.4-.2-.7-.2 0-.2-.2-.2-.4-.3-.1-.1-.2-.2-.4-.3-.6 1.2-.8 3.1-.9 4.6 0 .2.1.2 0 .4v.6c.2 1.3.3 2.6.8 3.6.2.4.5.6.7.9.5.2 1.1.2 1.6.1l.6-.3c.1 0 .2 0 .2-.1.2.1.2-.1.3-.1.1 0 .1-.1.1-.2.1.1.2 0 .2-.1.4.1.4-.2.7-.2.1 0 0-.2.1-.2.4-.1.7-.4 1.1-.6.4-.2.7-.5 1-.8.8-.5 1.5-1.2 2.2-1.9.7-.7 1.4-1.3 2.2-1.9.6-.8 1.2-1.5 1.8-2.3-.1-.9.1-1.6.1-2.5 0-.2.1-.2.2-.3-.1-.3.1-.7.1-1.1.1-.2.2-.4.2-.8 0-.2.2-.1.2-.2 0-.3-.1-.3 0-.5 0-.2.1-.1.2-.2 0-.8.3-1.2.4-2 0-.1.1-.1.2-.1 0-.1-.1-.1-.1-.2s.1-.2.1-.4c.1-.2 0-.6.3-.6-.1-.4.2-.7.2-1.1 0-.1.1-.2.2-.4v-.3c0-.1.2-.1.1-.2 0-.2.1-.3.1-.6.2 0 .1-.2.3-.3v-.4c.2-.3.4-.6.4-1.1.1 0 0-.3.2-.2v-.4c0-.2.1 0 .2-.1-.1-.7.4-.8.4-1.4.1-.2.2-.3.3-.5.1-.2-.1-.2-.1-.3.2-.3.5-.7.4-1.1.1-.1.1-.2.2-.3.1-.8.5-1.2.6-1.9.1 0 .1-.2.2-.1 0-.4.2-.7.3-1 .2-.2.2-.7.4-.8 0-.3.1-.4.1-.6-1.3.1-2.2.7-3.6.8-.3.2-.9.4-1.3.3-.2.1-.5.1-.7.3-.4 0-.5 0-1 .1-1.2 0-2-.1-3.1-.3-.3-.1-.8-.3-1-.3-.1-.1-.3-.2-.5-.2s-.3-.2-.5-.3c-.1 0-.1 0-.1.1-.1-.1-.3-.2-.5-.1 0-.2-.4-.1-.5-.3.3-.1.7.1.8.2.3-.1.3.1.5 0-.4-.3-1-.4-1.6-.5-.2.1.2.1.2.2-.5.1-.9-.4-1.4-.3 0-.1.1-.1.1-.1-.1-.1-.4-.3-.4-.1-.1-.1-.1-.3-.4-.3 0-.1 0-.1-.1-.1s0 .1.1.1c0 .1.1.1.2.1-.1.3-.2-.1-.5-.1 0-.4-.5-.3-.6-.6-.2-.1-.1.2-.2.1 0-.2-.1-.2-.2-.2-.1-.3-.4-.3-.6-.6-.1 0-.1 0-.1.1-.2-.1-.1-.1-.1-.2-.1-.1-.3-.1-.4-.3-.1.1-.2-.2-.3-.3-.1 0-.1.2-.2.1s0-.1.1-.2c0-.2-.3-.1-.4-.3-.1-.1-.2-.3-.4-.3 0-.1 0-.2-.1-.2 0-.1-.1-.1.1-.1-.2-.1-.2-.3-.5-.4 0 0 0-.1-.1-.1 0-.1-.1-.1-.1-.2.4.2.7.5 1.1.8 0 .1 0 .1.1.1 0 .1.1.1.2.1v.1c.1 0 .1 0 .1-.1.2 0 .4.2.5.3.1 0 .1.1.1.1.1.1.3 0 .4.1.1 0 .2.1.4.2.8.3 1.6.5 2.4.7.1 0 .2-.1.4 0 .3.2 1 .1 1.3.3 1.3-.1 2.2-.1 3.2-.4-.2-.2-.5.1-.7 0 0-.2.3 0 .3-.2.1 0 .4.1.4-.1.1.1.2.1.1.2.1.1.3-.2.3 0 .4-.2.7-.3 1.2-.3.1-.1.4-.1.5-.3.5 0 .8-.2 1.3-.3 0 .1-.1.1-.1.2.1 0 .1.2.2.1.3 0-.2-.3.1-.3 0 0 0 .1.1.1.1-.2.3-.3.4-.4.5.1.5-.2 1-.1 0 .1-.2.1-.2.2-.2 0-.3 0-.4.1.1.2.3 0 .4-.1h.3c.2-.2-.1-.1-.1-.2.2 0 .2-.1.4 0 .2-.1.3-.1.4-.3.4 0 .6-.2 1-.2.4-.3 1-.3 1.3-.6 1-.3 1.9-.8 3-1 .2-.3.3-.6.4-1.1.3-.4.4-.9.6-1.4.1-.3.2-.5.3-.7.1-.2.1-.6.3-.7.1-.7.4-1.2.6-1.8.3-.5.5-1.1.7-1.7.6-1.1 1.1-2.2 1.6-3.4.5-1.1 1-2.3 1.5-3.4.6-1 1-2.2 1.4-3.5 0-.5.1-.9.1-1.4 0-.3-.2-.5-.2-.8.2-.3.6-.1 1 0 .2.2.7.2.9.5.1 0 .2 0 .2-.1.1.1.3.2.4.4.2-.1.2 0 .5 0 .2.2.5.2.7.3.1.1.2.2.4.3 0 .2 0 .3.1.4 0 .1-.1.1-.1.3-.1.8-.2 1.6-.4 2.2 0 .8-.4 1.2-.4 2-.3.5-.4 1.2-.7 1.7 0 .3-.2.6-.3.9-.4.9-.7 1.7-1.1 2.6-.9 2.3-1.8 4.6-2.8 6.8.3.1.7-.3 1.2-.2.1-.1.3-.1.4-.2h.4c.8-.3 1.9-.6 2.9-.5.1 0 .2-.1.3-.1 1.1-.1 2.3-.4 3.3-.3.1 0 .2-.1.2-.1.6 0 1-.1 1.6-.1.2-.4.4-.8.6-1.3.2-.4.5-.8.5-1.4.2-.1.1-.4.3-.5 0-.4.2-.6.3-1 .2-.2.2-.6.4-.9.2-.6.5-1.2.8-1.8.5-1.2 1-2.5 1.6-3.6.3-1 .8-1.9 1.2-2.7.3-1.4 1.1-2.5 1-4.2.3-.1.7.1 1 .1.3.1.3.3.7.3 0 .2.4.1.3.3.5-.1.6.3 1.1.2.2.2.6.3.8.6 0 0 0 .1.1.1-.1.5-.2 1-.3 1.4-.1.5-.3.8-.4 1.4-.2.2-.3.4-.3.8-.2.1-.2.4-.3.5-.3 1.1-.6 2.2-1 3.1-.2.5-.3 1-.5 1.5s-.5.9-.5 1.5c-.4.7-.6 1.5-1 2.3-.2.4-.3.8-.5 1.1-.2.4-.3.8-.5 1.1 0 .3-.1.5-.2.7.8.2 1.5 0 2.2.1.1 0 .2 0 .3.1.3-.1.7.1 1.1.1h1.1c-.1.2-.1.3 0 .2zm-30.2 28.1v.1c.1.2 0 .5-.1.8 0 0 .1.1.1.2-.2.1.1.4-.3.5 0 .2-.1.2-.1.4 0 .1.1.1.1.2 0 .2-.1.2 0 .6-.1.1-.1.2 0 .3-.1 0-.4.2-.2.3 0-.1.2-.1.2 0-.1.1-.2.2-.3.4.2.1 0-.2.2-.2 0 .3.1.8-.2 1 .1 0 .2-.1.2 0v.2c-.2-.2-.1.1-.3.1 0 .1.1.1.1.3.2 0 .2-.1.3-.2 0 .1.1.2.1.3-.1 0-.1-.1-.2-.1.1.3-.1.2-.1.5.1.2.2-.2.3 0 0-.1 0-.2.1-.2 0 .3.1.4.2.7-.1 0-.2 0-.2.1.2 0 .1.3.2.3 0 .1.1.1.1.2.1 0 .1.1.2.1 0 .1.1.1.1 0 .1 0 .1.1.1.2.3 0 .4.2.7.2.1 0 .2-.1.4-.1 0 .1-.2.1-.2.2.5.2 1.1-.2 1.6-.4 0-.1 0-.2.1-.2s.1.1.2.1c-.1-.2 0-.2.2-.3 0 0-.1.2 0 .2.2 0 .2-.3.3-.4 0 .1 0 .2.1.2 0-.1 0-.2.1-.2 0 .1 0 .1.1.1.2-.2.3-.4.6-.5.1.1 0 .2.2.2s.4-.2.3-.4c.1 0 .2 0 .2-.1-.2 0-.1 0-.2-.1.1-.1.2-.3.4-.3 0 .1 0 .2.1.2.1-.4-.1-.2-.2-.4h.2c0-.1.2-.2.1-.4h.2c0-.3.3-.3.5-.5-.2 0 .1-.1 0-.2.2-.1.3-.3.5-.4-.1 0 .1-.3.2-.2-.2-.3.3-.4.3-.7.1.1.1.2.1.4.2 0 .3-.3.3-.4.2 0 .2-.1.2-.2-.2-.1-.1.2-.3.2 0-.1 0-.3.2-.2.1-.2-.2-.3 0-.4.1.1.2.1.1.2.2 0 .2-.3.4-.3 0-.4.2-.5.3-.7-.2 0 .1-.3.1-.2-.1.3-.1.5-.3.7.2 0 .3-.1.4-.3.1 0 .1 0 .1-.1.1 0 0-.1.1-.1 0-.1-.1 0-.1-.1 0-.2-.1-.3.1-.4.1 0 0 .3.2.2 0-.3.3-.3.3-.7 0-.2-.1-.2-.2-.2.2-.2.2-.4.4-.6 0 .2-.1.3-.1.4-.1 0 0 .1 0 0 .3-.1.2-.6.2-.9h.1c0 .1 0 .1.1.1s.1-.2.2-.2c0-.4.1-.6.2-1 .2 0 .2-.3.3-.6h.1V63c.1 0 .1-.1.2-.1 0-.6.3-.7.3-1.2.3-.3.3-1 .6-1.3-.1-.2.1-.3 0-.5.1-.1.1-.2.1-.4.2 0 .1-.2.3-.3 0-.4.2-.7.3-1 .2-.8.5-1.4.7-2.2.1 0 .1-.2.2-.2 0-.5.3-.7.3-1.2.2-.1.1-.5.3-.7 0-.5.3-.7.3-1.3l.1-.1.6-1.8.1.1c0-.1-.1-.2 0-.4s.1-.6.3-.7c0-.5.2-.7.3-1-.1 0 0-.1-.1-.1.3-.2.2-.7.5-.9 0-.2.1-.3.1-.5h.1v-.4c.1 0 .1-.1.1-.3l.1-.1c0-.4.2-.6.3-1l.1-.1c0-.3.2-.6.3-.8.1-.7.5-1.2.7-1.8-.2-.1-.6 0-.8 0h-.3c-1.2.3-2.6.4-3.7.7h-.3c-.1.1-.4.1-.5.2h-.2c-.9.3-2 .3-2.9.7h-.2c0 .1-.1.1-.1.1-.5.1-1 .3-1.5.4-.5 1.2-.8 2.4-1.4 3.4 0 .4-.2.7-.4 1v.3c-.1 0-.1.2-.2.2v.2c-.4.5-.4 1.3-.8 1.7v.3c-.3.4-.4 1-.7 1.5v.3c-.2.3-.3.7-.4 1.1-.1.1-.2.4-.2.7-.2.1-.2.4-.3.5v.4c-.3.6-.6 1.2-.7 1.9l-.1.1c.1.2-.1.3-.1.6-.3.2-.1.7-.4.9 0 .2 0 .3-.1.4.1 0 .1 0 .1.1-.1.1-.2.3-.3.5.1 0 0 .1.1.2-.1.3-.3.6-.4 1 0 .1.1.1.1.2-.3.5-.4 1.1-.5 1.8-.1.1-.3 0-.2.2 0 .2.2-.1.2.1-.1 0 0 .2-.1.2 0 0-.1-.1-.2-.1 0 .4-.1.5-.1.7.1.2.2-.1.2.1-.1.2-.1.4-.3.5 0-.1 0-.1-.1-.1-.5.2-.7.5-.5.5zm-14.2-21.8s-.1 0 0 0c-.1.1 0 0 0 0zm.5.3c.1 0 .2.2.3 0-.1 0-.2-.2-.3 0zm1.1.4c.1.1.1.2 0 .2.3.1.6.4.8.3 0 .1.2.2.2.1-.1-.2.1.1.2.1 0-.1.1-.3-.1-.3 0 .3-.2 0-.2-.1s0-.2-.1-.2v-.1c-.2-.1-.2-.3-.4-.1 0-.1-.1-.1-.2-.1s0 .3-.2.2c0-.2-.1-.2-.2-.1-.1-.1-.3-.2-.3 0 0 0 .3.1.5.1zm1.4.7c.1 0 .1.1.2.1 0-.1 0-.3-.2-.2v.1zm12.3.6c0 .2.2.2.4.3 0-.2-.2-.4-.4-.3zm-.4.1c-.1.1 0 .1 0 0zm-12.6-.1s-.1 0 0 0c0 .1.1 0 0 0zm.7.3c0-.1.1-.1.1-.2 0 0-.1 0-.1-.1h-.1c0 .2 0 .3.1.3zm10.5.3c.1 0 0-.3 0 0-.1-.1-.1 0 0 0zm-.9.1c.1 0 .3.1.2-.1-.1 0-.2 0-.2.1zm-7.5 0c-.1 0-.2 0-.2.1.1 0 .2 0 .2-.1zm.8.3c0-.2-.3-.3-.4-.1.1.1.2.1.4.1zm4.3.3c.4 0 1 .1 1.1-.2-.1-.1-.4.1-.8 0 0-.1-.1-.1-.2-.1-.1.1-.1.2-.1.3zm19.7 3.2s-.1.1 0 0c-.1.1 0 .1 0 0zm-14.9.8c0-.1-.1 0 0 0-.1 0 0 0 0 0zm-1 2.3c-.1 0 0 0 0 0 .2-.1 0 .3.2.2.3-.2.1-.9.5-1 0-.1.1-.4 0-.4-.1.2-.2.3-.4.5.2.1-.2.2-.1.5-.2 0-.2 0-.2.2zm-8.4.9c0 .1-.1.1-.1.1-.6.2-1 .5-1.5.9-.4.4-.8.7-1.2 1.2-.8.7-1.4 1.8-2.1 2.7-.7.9-1.2 2-1.8 3-.2.6-.6 1-.7 1.7-.2.6-.5 1.1-.7 1.7 1.1-.2 1.9-.8 2.7-1.4l1.9-1.9c.6-.7 1.2-1.4 1.6-2.2.3-.3.5-.8.8-1.1.2-.5.4-.9.6-1.4.3-1 .7-1.9.7-3.2-.1-.1-.1-.1-.2-.1zm26.7 1.8c0-.1.2-.3.1-.4-.1.1-.4.3-.1.4zm-17.9 7.9s-.1 0 0 0c-.1.1 0 0 0 0zm-.3 2c-.1 0-.1 0 0 0-.1.1 0 0 0 0zm-.3.4c.1-.1 0-.2-.1-.2.1.1 0 .2.1.2zm-.2 1.2c0-.1.2-.3-.1-.3.1.1 0 .3.1.3zm-.1.6c0-.1-.1 0 0 0zm8 .5s-.1 0 0 0zm-7.8 1c0-.1 0-.2 0 0-.1-.1-.1 0 0 0zm-.2.5c0-.1-.1 0 0 0zm-.6 1c.2.3.2.4.2.7-.1 0-.1-.1-.1-.1 0 .3.1.1.2.2 0 .1-.1.1-.1.1.1 0 .2.1.2.2.2 0 .2.4.4.2-.1-.1-.1-.2 0-.2-.3-.1-.2-.5-.5-.6 0-.3-.2-.3-.2-.4.1-.1 0-.2.1-.4-.2-.1-.1-.1-.1-.2-.2 0-.2-.2-.4-.3.3.3.4.5.3.8zm-1.5 1.2c.1 0 0 .2.2.2l.1-.1c0 .2.2.2.2.4.1.1.3 0 .3.1-.1.1.1.2.2.3-.1-.3-.1-.3-.1-.5-.3 0-.4-.3-.5-.5-.2-.1-.3-.1-.4.1zm1.2.3v-.1c-.1 0-.1-.1-.2-.1 0 .2.1.3 0 .5.3-.1.1.3.3.1 0 .2-.1.2.1.2 0-.1.1-.1.2-.1 0-.1-.1-.1-.1-.3-.1 0-.1.1-.2.1.1-.2 0-.3-.1-.3zm1.5.4c0-.2-.1-.2-.3-.2 0 .2.1.2.3.2zm-1 .4c-.1 0-.1-.1-.1 0h.1zm.6.5c0-.1 0-.2-.2-.2 0 .1 0 .2.2.2zm15.5 6.6c0-.1-.1 0 0 0 0 0 .1 0 0 0z"/>
    <path d="M167.1 38.1c-.2-.1 0-.3 0 0z"/>
    <path d="M108.8 55.8c-.2.5-.5 1-.6 1.6 0 .2.2-.2.2 0s-.2.2-.4.2c0 .2 0 .4-.1.5 0 .4-.1.3 0 .5-.1-.1-.1 0-.2 0 .1.2 0 .3-.1.5 0 .2-.1.4-.2.5 0 .3-.1.4-.1.7-.2.9-.4 1.7-.7 2.5-.2.4-.3.8-.5 1.1 0 .2-.1.4-.2.6-.1.2-.1.5-.3.6v.3c-.3.5-.4 1.1-.7 1.7-.1.3-.2.6-.3.8-.1.2-.1.3-.2.4-.1.1 0 .4-.2.4 0 .4-.2.6-.3 1 .2.1.2-.1.2-.2.1 0 .1-.2.2-.2 0 .1.1 0 0 0 0-.2-.2-.1-.1-.3.2-.1.1.3.3 0 .1 0 0-.1 0 0h-.1c0-.1.1-.1.2-.1.2-.1.3-.2.3-.5.3 0 .2-.4.6-.3 0-.2.2-.2.3-.5.1 0 .1-.1.2-.1 0-.2.3-.3.3-.5.1-.1.2-.3.4-.4.3-.3.5-.6.9-.8v-.2c.3-.1.3-.5.6-.5.3-.5.7-.9 1.1-1.3.3-.5.8-.8 1.1-1.3.1 0 .1-.2.2-.1 0-.3.2-.3.3-.5.1-.1.2-.3.4-.4.2-.4.4-.7.7-.9.1-.4.5-.6.6-.9.3-.2.4-.7.8-.9-.1-.3.1-.3.3-.4 0-.1-.2-.1-.1-.2.1 0 .1 0 .1.1.3-.2.3-.6.5-.9.2-.3.3-.7.4-1.1.1 0 .1.1.1.2.2 0 .1-.1.2-.2.2 0 .2.1.4.1 0 .1-.1.1-.1.3 0 .2.3 0 .2.2.2 0 .2-.2.4-.2 0 .2.1.2.1.4h.2c-.1.2.2.1.1.3.1-.1.1-.1.2.1 0 .2.1-.2.2 0 0 .2.2.2.1.5.2.1.1-.2.3-.2-.1.2.2.5 0 .8.1.2.2.4.2.7 0 .2-.1.3-.3.3-.4.6-.7 1.3-1.1 1.8v.5c-.2-.1-.2.2-.3.2 0 .3-.1.4-.1.8-.1 0-.1 0-.1.1 0-.1-.1 0-.1 0-.1 0 0 .1 0 0h.1c0 .4-.2.4-.3.8h-.1c0-.2 0-.1-.1-.1 0 .1.1 0 .1.1s-.1.1-.1.1c-.2.3-.4.5-.5.9-.1 0-.1 0-.1.1s.1 0 .2 0c0 .2-.1.3-.2.2-.2.3-.4.6-.6.8 0 .1 0 .2.1.2-.1.1-.3.1-.4.2 0 .1-.1.2-.1.2 0 .1 0 .2-.1.2-.2.1.2.2 0 .3-.1.1-.2-.1-.2.2-.1 0-.1 0-.2-.1-.2.2-.3.5-.5.7-.1.1-.1.1.1.2-.2.3-.5.6-.8.9-.2.4-.5.6-.8 1-.2-.1-.1.2-.3.1-.1.3-.4.3-.4.6-.2 0-.2.2-.4.3.1.1 0 .2 0 .4-.3.1-.4.4-.6.6-.1 0-.2.1-.2.1-.2.1-.3.4-.6.4-.2.3-.5.5-.7.8-.5.3-.9.6-1.4.9.2.3.3.6.6.8 0 .3.3.4.3.7.2.1.2.5.5.6.1.5.4.7.5 1.2.1 0 .1.3.2.3 0 .7.5 1 .5 1.6.2.2.2.5.3.7.1.2.3.4.3.7.1.2.2.5.3.7.2.2.2.5.5.6 0 .3.3.4.4.7.3.4.7.8.9 1.4.1.1.1.2.3.2.1.3.3.5.5.7 0 .1.1.3.1.4 0 .1.3 0 .1.2.1.1.3.3.5.3.1.3.4.4.5.7.3.1.6.3.6.7.3 0 .5.3.7.6 0 0 .1 0 .1-.1.1.1.2.3.5.3.1.3.4.6.7.6 0 .1 0 .2.1.2s.1-.1.2-.1c-.1.2.2.3.3.2.1 0 .1.1.1.2.7.1 1 .6 1.7.6l.3.3c.1 0 .2 0 .2-.1.5.3 1.1.1 1.6.3.2-.1.4.1.6 0 .1 0 0 .1 0 .2.2 0 .4 0 .4-.2.3.2.8 0 1.1-.1.8.1 1.2-.4 1.8-.2.1-.1.2-.2.4-.3.5 0 .7-.3 1.1-.3.1 0 .2 0 .2-.2.2.1.2-.1.3-.1l.3-.3c.2 0 .2 0 .4-.2.2 0 .3.1.4 0 .3-.1.1-.3.3-.5.1-.1.2 0 .3.1.1 0 .1-.1.1-.2.2-.1.2-.5.4-.6.1.3.2-.1.3.1.1 0-.1-.2.1-.2.1 0 .1.1.1.2.2 0 .1-.2.1-.4.1.1.2 0 .2.2.2-.1.2-.3.3-.4.1 0 .1-.1.2-.1 0 .1 0 .1.1.1v.1c-.2 0-.2.1-.2.2-.1 0-.1 0-.1.1h-.1c-.1.1.2.2.1.2-.1.4-.4.6-.5 1-.1 0-.1.1-.2.1 0 .2-.1.2-.1.4h-.2c-.1.1 0 .1 0 .2h-.2c-.1 0-.1.1 0 .1-.3.1-.4.4-.6.6.1.3.2-.1.4-.1-.1.3-.4.6-.7.7 0-.2.2-.1.2-.4-.2-.2-.2.1-.4.1 0 .1 0 .1.1.1-.1.1-.1.2-.2.2 0 .1.1.1.2.1-.1.1-.2.3-.3.5-.2 0-.2.1-.2.2-.1 0-.2 0-.2.2-.1 0-.1 0-.2-.1-.1.1-.2.5-.4.3 0 .1-.1.2 0 .2-.3.3-.7.4-1 .7-.1 0-.1.1-.1.2-.1 0-.2 0-.3-.1 0 .1.1.1.1.2-.1 0-.1 0-.1-.1-.4.1-.7.3-1 .4-.5 0-.8 0-1.1.3-.4-.1-1 .2-1.6.1 0-.3.5 0 .4-.2-.3-.2-.9 0-1.2-.2-.2 0-.2.1-.4 0-.5-.2-1.4-.1-1.9-.3-.2 0 0 .3-.2.2 0-.2.1-.2 0-.4 0 0-.1 0-.1-.1-.1 0-.1 0-.1.1-.2-.2-.5-.2-.7-.3-.2-.1-.4-.1-.7-.1-.3-.2-.6-.4-1.1-.5 0-.1-.1-.1-.1-.2-.1 0-.2 0-.2.1-.3-.2-.5-.4-.8-.4 0-.1-.1-.1-.1-.2.1 0 0-.1 0 0-.1-.1-.1-.2-.4-.1 0-.1.1-.1.1-.2s-.1-.1-.1 0c-.1-.2-.2-.5-.4-.6-.1 0-.1.1-.2.2-.1 0-.1-.3 0-.3-.1-.2-.2-.3-.3-.4-.1 0-.1.1-.1.2-.2.2-.3-.2-.5-.2v-.1c.1 0 0-.1 0-.1-.1-.2-.4-.2-.5-.4-.2.1-.2-.2-.4-.1 0-.3-.3-.2-.3-.4 0-.1-.2-.3.1-.2-.1-.2-.2-.2-.4-.1-.1-.1-.1-.3-.3-.3 0-.1-.1-.2-.2-.2 0 .2.1.2.2.2 0 .1.1.3.2.3-.2.1-.6-.1-.6-.4-.2-.1-.3-.2-.4-.4.1-.1.2.1.3-.1 0 .1.1 0 0 0l-.3-.3c0-.1.2 0 .2-.1 0 0-.1 0-.1-.1 0-.2-.2.3-.2-.1-.2 0 0 .3-.1.4-.2-.1-.3-.3-.3-.5-.1-.1-.3-.2-.3-.4-.4-.1-.4-.4-.6-.7.2 0 .1-.1.2 0 0-.2-.1-.2-.2-.3 0-.1 0-.1-.1-.2-.2.2-.5 0-.6-.2.1 0 0-.1 0-.1 0-.1 0-.1-.1-.1 0-.1-.1 0 0 0 0 .1 0 .1.1.1v.1c-.1.1-.2-.2-.3-.3-.1 0-.1.1-.2.1-.1-.3-.2-.2-.4-.3-.1-.1-.1-.3-.2-.3.1-.2.3.3.4 0 .1 0 0 .2.2.2.1.1.1.2.3.3 0-.1.1-.1.1-.1 0-.2-.2-.1-.4-.1.1-.1 0-.4-.2-.4-.1 0 0 .1.1.1-.1.2-.2-.1-.2-.1 0-.2-.1-.2-.4-.1.1-.3-.4-.6-.6-.6 0-.1 0-.2.1-.2-.1 0-.2-.3-.2-.1-.1 0 0-.2-.2-.2 0-.1 0-.2-.1-.2 0-.2.2-.1.2-.3.1 0 .3.2.2.2 0 .1.2.2.3.1.2-.1-.2-.2-.1-.4-.1-.1-.1-.4-.3-.4-.2 0 0 .3-.1.2.1-.2-.2 0 0 0-.1.2-.2 0-.2-.1-.1-.1-.2-.2-.3-.2 0-.1.1-.2.2-.2 0-.1-.1-.2-.1-.2-.1 0 0 .3-.2.2.1-.4-.3-.4-.3-.8 0-.2-.2-.1-.2-.2-.1-.2.1-.1.1-.2s-.3-.1-.2.1c-.1 0-.1-.3.1-.2-.1-.3-.1-.5-.3-.9 0-.1-.1-.2-.2-.2 0-.3-.2-.3-.2-.6.1 0 .1.1.1 0 .1-.2-.2-.1-.1-.3-.2 0 0 .2 0 .3-.2 0-.1-.3-.2-.3 0-.1.2 0 .2-.1-.1-.3-.2-.6-.5-.8.1-.1 0-.3-.2-.4-.1-.4-.2-.8-.4-1.1-.2.1-.1.6-.3.8-.1.3 0 .3-.1.6-.2.1-.1.4-.3.4 0 .5-.3.7-.3 1.3h-.1c0 .5-.3.7-.3 1.3-.1.1-.1.3-.3.4v.4c-.3.4-.3 1.2-.7 1.6 0 .3-.1.3-.1.7-.1 0-.1.1-.2.1.1.2 0 .2-.1.4 0 .4-.1.7-.3.9 0 .1 0 .2.1.2-.3.2-.2.8-.4 1.1 0 .4-.1.8-.3 1.1 0 .8-.4 1.6-.4 2.3-.1.1 0 .4-.2.4.1.3 0 .8 0 1.2.1.2.3.4.6.6 0 .1-.4.1-.1.2-.3.2-.6-.2-.8-.3-.1-.2-.2-.2-.3-.4-.1 0-.1.1 0 .1-.2.2-.2-.3-.2-.4-.1-.2-.3-.3-.3-.4-.2-.1-.2-.3-.4-.4 0-.2-.1-.3-.2-.4-.1-.1 0-.4-.2-.4-.2.1 0 .4-.1.6.1.2.3.4.4.7-.4-.2-.6-.5-.9-.7.1-.3-.2-.2-.1-.5 0-.2-.2-.1-.2-.2 0-.2-.3-.1-.3-.4 0-.3.1.1.1-.1.1-.2-.2-.1-.2-.2v-1.3c-.1-.2 0-.2 0-.3.1-.5 0-.6 0-1.2-.2.1-.3.2-.3.5-.3.2-.4.4-.6.7-.2 0-.1.3-.3.4-.1.1-.3.2-.3.4-.3.1-.3.5-.6.6-.3.6-.8.9-1.1 1.5-.5.4-.9.9-1.3 1.4-.8.5-1.3 1.2-2.2 1.6-.2.2-.4.3-.6.5-.2.1-.5.3-.7.5-.3 0-.5.1-.6.3-.2.1-.5.1-.7.3-.4 0-.7.1-1 .2H84c-1.1 0-1.6-.2-2.5-.3-.2 0-.1-.1-.2-.2-.4 0-.5-.3-.8-.4-.3-.4-.8-.7-1.2-1.1-.2-.5-.6-.8-.9-1.2 0-.5-.3-.7-.3-1.2-.1-.2-.2-.3-.2-.6-.1-.1 0-.5-.2-.5-.2.3-.3.7-.4 1.2-.3.5-.5 1.1-.7 1.7-.2.6-.5 1.2-.8 1.7-.2.6-.5 1.1-.7 1.7-.3.5-.5 1.1-.9 1.5-.1.6-.5.8-.7 1.2-.3.4-.5.8-.8 1.2-.6.7-1.5 1.1-2.3 1.6-.1 0 0 .2-.1.2-.3 0-.8.3-1 0-.1.1-.2.1-.3.2-.2-.1-.4-.3-.8-.3-.5-.4-.7-1-1.3-1.1-.3-.3-.5-.8-.7-1.2v-.2c-.3-.6-.5-1.6-.5-2.2-.4.1-.3.6-.6.7 0 .4-.3.4-.4.8-.2.1-.3.3-.4.5-.6.5-1.1 1.1-1.6 1.6-1.1.6-1.7 1.7-3 2l-.2.2c-.5.1-1.1.1-1.6.1-.7 0-1.4-.3-2-.2-.5-.2-.8-.5-1.1-.9-.4-.1-.6-.4-.9-.7-.2 0-.3-.1-.4-.1-.2-.3-.5-.5-.6-.9-.5-.3-.3-1.3-.5-1.8 0-.1.1-.3.1-.5-.1-1.2.1-2.5.2-3.7.2-.7.4-1.4.5-2.3.1 0 .1-.1.1-.1.1-1.1.6-1.8.8-2.9.2-.2.2-.6.4-.8.2-.2.2-.6.4-.8.2-.6.6-1.1.9-1.6.3-.5.7-1 1-1.5.1-.3.3-.5.4-.8.3-.2.3-.6.6-.7.2-.7.7-1 1.1-1.5.4-.5.8-.9 1.2-1.4.2 0 .2-.2.4-.2 0-.1.1-.2.1-.3.4-.2.7-.5.9-.9.3-.3.7-.5.9-.9.9-.6 1.6-1.3 2.6-1.8.9-.6 2-.9 3.2-1.2h.8c.3.1.6.2 1 .2.3.2.7.3 1.1.5.1.2.2.3.5.4.1.2.2.3.3.4.5.2.8.6 1.2 1 0 .4.3.5.4.9.4.4.8.7.9 1.4 0 .2-.2.1-.3.2.1.2.1.4 0 .7.1.2.4.2.4.5.5.2.7.7 1.2 1 .1.4.5.5.5.9 0 .2-.2.3-.3.4-.2.8-.7 1.2-1 2-.4.6-.7 1.3-1 1.9-.4.6-.8 1.2-1.1 1.8-.2.7-.7 1.2-.9 2-.3.3-.4.9-.6 1.2-.1.5-.3 1-.5 1.4-.2.8-.5 1.4-.8 2.1-.1 1.1-.4 2.1-.6 3.2.3 0 .3-.2.6-.3 1.5-1.1 2.5-2.6 3.5-4.3.5-.8.9-1.7 1.4-2.5.2-.5.5-.8.6-1.3.2-.4.4-1 .8-1.2.1-.4.3-.7.5-.9.1-.4.3-.7.5-.9.1-.3.2-.6.4-.7 0-.3.1-.4.3-.6v-.4c.3-.9.3-2.1.8-2.9-.1-1 .6-1.8.8-2.9.4-.7.6-1.6 1-2.3.4-1.2 1-2.3 1.6-3.3.6-1 1.3-2 2-2.9 1-1.2 2-2.4 3.1-3.4.4-.4.9-.7 1.4-1 .8-.6 1.7-1 2.8-1.3.9-.1 2.2-.2 2.9.2.1 0 .2-.1.4 0 0 .1.1.1.2.1 0 0 0 .1.1.1.1.2.3.3.5.5s.3.4.5.5c0 .2.2.3.2.5.4.4 1 .6 1.3 1 0 .5 0 .8.1 1.2 0 .2 0 .4-.1.5 0 .2.1.2 0 .4-.1.1-.1.3-.1.4 0 .1-.1.2-.1.4-.2.2-.2.7-.4.9 0 .2-.1.3-.2.5-.2 0-.1.3-.3.4-.3.6-.7 1.1-1.1 1.6 0 .7-.3 1-.5 1.4-.3.1-.6.1-1 0-.1-.1-.2-.2-.4-.3 0-.1-.1-.3-.2-.4-.4-.1-.7-.3-.9-.5 0-.2-.1-.3-.1-.4 0-.6.1-1 .1-1.5.3-1.3 1.2-2.2 1.1-3.7-.1.1-.3.1-.4.1-.1 0-.1 0-.1.1-1.1.8-2.1 1.7-3 2.7-.1.3-.5.5-.6.8-.3.1-.4.6-.7.8-.1.4-.4.5-.6.9-.1.1-.3.2-.3.4-.2 0-.1.3-.4.3-.2.5-.6 1-.9 1.4-.1.4-.3.7-.6 1-.1.4-.4.7-.5 1.1-.4.6-.7 1.4-1.1 2.1-1.3.3-1.9 1.9-2.3 3.7 0 .2 0 .4-.1.5v.4c-.1.1-.1.4-.1.5-.1 1-.2 2.3-.1 3.2v.6c.1.8.3 1.6.6 2.3 0 .2.3.2.3.3h.6c.2 0 .4-.1.7-.1.4-.2.9-.3 1.3-.6.4-.2.7-.5 1.2-.7.3-.3.7-.5 1.1-.8.4-.2.6-.7 1.1-.9.3-.4.7-.8 1.1-1.1.4-.7 1.2-1.2 1.6-1.9.2 0 .2-.2.3-.2 0-.3.3-.3.3-.7h.2c0-.3.2-.3.2-.5.1-.1.2-.2.4-.2.1-.2.3-.5.5-.6-.4 0-.2-.1-.2-.3.2.1.1-.2.3-.1.1-.1-.1-.3.1-.3 0 .1.1 0 0 0 .1-.1.1-.2.1-.4.2.1.2 0 .3-.1.1-.1 0-.3.1-.5 0-.1.2-.2.2-.2 0-.1 0-.1.1-.2 0 0 .1-.1.2-.1.1-.1.1-.3.2-.4.1-.1.2-.3.3-.3v.2c-.1 0 0 .1 0 0 .2-.1.3-.3.3-.6.2 0 .1-.3.3-.4 0-.2.1-.4.2-.5 0-.4.3-.6.3-1 .4-.3.3-1 .6-1.3 0-.4.2-.8.3-1.1 0-.5.3-.8.3-1.3.1 0 .1-.2.2-.2 0-.1-.1-.1-.1-.2.3-.3.3-.9.6-1.3 0-.5.3-.7.3-1.2.2 0 .1-.4.3-.4 0-.4.2-.7.3-1 0-.1 0-.1-.1-.1.2-.1.2-.5.4-.7.1-.2.2-.6.4-.7v-.3c.2-.1.2-.3.3-.4v-.4c.3-.6.7-1.2.8-2 .2-.1.2-.4.3-.5.1-.9.6-1.4.7-2.4.3-.2.2-.8.5-1.1.1-.7.3-1.3.4-2 .1-.2.2-.5.3-.8.4-.7.6-1.7.9-2.6.3-.9.6-1.8.9-2.6.4-.8.7-1.6 1.1-2.4.2-.4.3-.8.5-1.2.1-.5.4-.8.5-1.3.2-.1.2-.4.3-.5.1-.7.4-1.3.6-1.8.2-.6.4-1.3.7-1.8.1-.6.3-1.1.5-1.5.1-.9.6-2 .3-2.9.1-.5-.1-.8 0-1.2.3 0 .4-.1.7 0 .3.1.4.2.7.2.3.1.7.2.8.5.7.2 1.2.5 1.7 1 .2.6.2 1.4.2 2.2-.2.5-.1 1.2-.4 1.6v.3c-.4 1.1-.6 2.3-1.1 3.3 0 .5-.3.8-.3 1.3-.5.8-.7 1.9-1.2 2.8-.1.5-.3 1-.6 1.4-.2.5-.4 1-.6 1.4.1.4-.2.5-.2.9zm6.5 6.9s-.1-.1 0 0c-.1 0 0 .1 0 0zm-.2.5s-.1-.1 0 0c-.1 0 0 .1 0 0zM55.6 96.8c-.3.2.3.5.1.7 0-.1 0-.1-.1-.1-.1.3.2.3.3.4-.1 0-.2-.2-.2.1.1.3.2.7.3 1 .2.1.6.2 1 .2l1.2-.3c.3-.2.7-.3.9-.5.7-.3 1.2-.8 1.8-1.1.3-.4.7-.7 1.1-1 .3-.3.6-.7 1-1.1 0 .1 0 .2.1.2 0-.2.2-.2.3-.3l.9-1.2c.3-.4.6-.8.8-1.4.1 0 .2.1.2-.1.2-.1.2-.3.3-.5.1-.3.3-.5.3-1.1.3-.3.3-.9.5-1.2.1-.5.4-.7.5-1.2.3-.3.5-.7.6-1.2.4-.4.6-1.1 1-1.5 0-.1.1-.2.1-.4.4-.4.5-1 1-1.4 0-.3.2-.3.1-.5.4-.5.6-1.1 1-1.6.3-1.6.7-3.1.3-4.7-.5 0-1.1.1-1.5.2-.5.1-.8.3-1.3.4-.3.3-.8.4-1 .7-.3 0-.4.2-.6.3-.3 0-.3.3-.5.3-.1 0-.2.1-.3.1-.1.4-.6.4-.7.8-.3.2-.6.4-.8.7-.3.1-.6.4-.8.7-.3.2-.5.4-.8.6-.3.4-.7.8-1 1.2-.3.4-.7.7-.9 1.2-.2.1-.4.4-.5.6-.1.2-.2.5-.4.6-.2.5-.6.8-.8 1.3-.5.9-1.1 1.7-1.5 2.8-.3.4-.4 1-.7 1.5-.2.5-.3 1.1-.6 1.5-.1.4-.1.8-.3 1.2 0 .4-.1.6-.2.9.1.4 0 1-.1 1.3 0-.2.1-.6 0-.8-.1.5-.2 1.4-.1 1.7zm47.5-18.6s-.1 0 0 0c-.1.1 0 0 0 0zm.8 1.2c0-.1 0-.2-.1-.2 0 .1 0 .2.1.2zm.1.5c0-.2 0-.4-.2-.4 0 .1.1.3.2.4zm.5 1.1c0 .3.2 0 0 0 .1-.1 0-.4-.2-.4.1.2.1.4.2.4zm-9.7 0c-.1 0-.1 0 0 0-.2.1-.1.1 0 0 0 .1 0 0 0 0 .2 0-.1-.3 0 0zm9.8.3s-.1 0 0 0c0 .1 0 .1 0 0zm-10.3.3c-.1.1 0 .1 0 0 .1 0 0 0 0 0zm-.2.3s-.1 0 0 0zm10.9.6c0-.1 0-.2-.1-.2s-.1.2.1.2zm.3-.1s-.1 0-.1.1c.1 0 .1 0 .1-.1zm.6.6c-.1 0-.1-.2-.2-.1s.1.3.2.1zm.1.3s0-.1 0 0c0 0 0 .1 0 0zm-12.8-.1c-.1-.1-.1 0 0 0-.1 0 0 0 0 0zm12.9.9s-.1 0 0 0c0 .1.1 0 0 0zm-28.7.2c0-.1-.1 0 0 0zm30.4 1.3c.1 0 .1.1.2.1 0-.2-.1-.2-.2-.2v.1zm.5.4s-.1 0 0 0c-.1.1 0 .1 0 0zm1.2.1s-.2-.2-.2 0c.1.1.1.2.2 0zm-1 .3c-.1.1.1.3.2.1-.1 0-.1-.1-.2-.1 0-.1 0 0 0 0zm1.4.3c0 .1.1 0 0 0 0-.1-.1 0 0 0zm2 2.3c-.1-.1-.1 0 0 0 .1.1.1.2.2.2 0-.1.1-.1.2-.1.1.2 0 .3.2.5.1 0 .1-.1.2-.1 0 .1.1.1.1.2.5 0 .6.4 1 .5 0 .1.1.2.1.3h.1c0 .1 0 .1.1.1 0 .2.3.1.2.3.3 0 .5.3.7 0-.1 0-.1-.1-.1-.1-.8-.5-1.6-1-2.2-1.6-.1 0-.1-.1-.2-.1 0-.3-.3-.3-.3-.6-.4-.1-.4-.4-.8-.6-.1-.2-.3-.3-.5-.6-.2-.1-.3-.4-.5-.5.1.4.5.5.6.9.3.1.4.3.5.5.2.1.4.3.5.5.1.1.2-.1.2.1-.2.2-.3.2-.3.2zm2.8-.9c0 .1 0 0 0 0 0-.2-.2 0 0 0zm12.2.3s-.1.1 0 0c0 .1.1.1 0 0zm-11.1.5s-.1 0 0 0c-.1.1 0 .1 0 0zm.5.4c0 .2.3.3.4.2-.1-.1-.4-.4-.6-.3.1.1.1.2.2.1zm-4.3.3c0-.1 0-.2-.1-.2 0 .1-.1.2.1.2zm14.9.5c0-.1-.1-.1 0 0-.1 0 0 0 0 0zm0 .2s-.1 0 0 0c-.1.1 0 0 0 0zm-.8.5c.1 0 .2 0 .2-.1-.1 0-.1.1-.2.1zm-.3.4c0-.1.2 0 .2-.2-.1 0-.3.2-.2.2zm-11.3.1s-.1 0 0 0c0 .1 0 0 0 0zm2 .6c-.4-.1-.7-.5-1-.3.3.1.7.4 1 .3zm-.6 0c-.1 0-.3-.2-.4-.1 0 .1.3.3.4.1zm.8.2c0-.1 0-.2-.1-.2 0 .1 0 .2.1.2zm1.3.4c.3-.2.6.1.7 0 0-.3-.5-.1-.7-.3-.1 0-.4-.1-.4 0 .1.2.4.1.4.3zm3.6.1c.1 0 .2 0 .2-.1-.1 0-.2-.1-.2.1zm-2.7-.1h.1c.1-.1-.2-.2-.1 0-.1 0 0 0 0 0zm1.6.1c.2.1.4.1.6 0-.1-.2-.4 0-.6 0zm-.8.1c.2-.1.6.1.7-.2-.5 0-.8-.1-1.2 0 .2.1.3.2.5.2zm-64 2.2c-.1.1 0 .1 0 0 .2 0 0-.2 0 0z"/>
    <path d="M119.9 42.8c0 .1-.1 0 0 0z"/>
    <path d="M119.9 43s0-.1 0 0c.1 0 .1 0 0 0z"/>
    <path d="M119.9 43c0 .1-.1 0 0 0z"/>
    <path d="M120 43.2c0-.1.2 0 .2.1-.1 0-.2-.1-.2-.1z"/>
    <path d="M121 43.4c.1-.1.3.1.4.2h-.1c-.1-.1-.2-.1-.3-.2.1 0 0 0 0 0z"/>
    <path d="M131 44.2c0 .1.3 0 .2.2 0-.1-.3 0-.2-.2z"/>
    <path d="M130.6 44.3c.1 0 .1.1.2.1 0 .1-.3.1-.2-.1z"/>
    <path d="M125.1 45.5c-.1.1-.4 0-.5-.2.3.1 0-.1.1-.1.2-.1.2.2.4.3z"/>
    <path d="M125.1 45.2c0 .1-.1.1-.1 0h.1z"/>
    <path d="M125.1 45.5c0-.1 0-.1 0 0 .1-.1.1 0 0 0z"/>
    <path d="M125.1 45.5s.1.1 0 .1v-.1z"/>
    <path d="M124.7 46.5c-.2.2-.3-.3 0 0z"/>
    <path d="M126.1 46.9c.1 0 0 0 0 0z"/>
    <path d="M137.3 53.1c-.1 0 0-.1 0 0 .1 0 0 0 0 0z"/>
    <path d="M108.8 55.8c.2 0 0 .2 0 0z"/>
    <path d="M114.3 57c0-.3.2-.5.3-.8.1.3-.2.6-.3.8z"/>
    <path d="M114.3 56.5c0-.1 0-.1 0 0 .1-.1 0 0 0 0z"/>
    <path d="M108.6 56.6c.1 0 0 .1.1.2-.1 0-.1-.1-.1 0-.2 0 0-.1 0-.2z"/>
    <path d="M114.3 57c0 .1-.1 0 0 0z"/>
    <path d="M114.3 57.2c-.1 0 0-.1 0 0z"/>
    <path d="M108.5 57c.1 0 .1.1.1.2l-.1-.1V57z"/>
    <path d="M114.1 57.4c-.2 0 .1-.3 0 0z"/>
    <path d="M108.3 57.2c0-.1.1-.1.1 0h-.1z"/>
    <path d="M108.4 57.3s.1-.1 0 0c.1 0 0 0 0 0z"/>
    <path d="M114.1 57.4c.1 0 .1.1 0 0z"/>
    <path d="M114 57.6c0-.1.1 0 .1 0 0 .1-.1.1-.1 0z"/>
    <path d="M113.9 57.8c.1 0 .1.4-.1.3.1 0 .1-.1.1-.3z"/>
    <path d="M108 58.1c-.1 0 0 0 0 0 .1 0 0 0 0 0z"/>
    <path d="M117.2 58.8s.1-.1 0 0c.1 0 0 0 0 0z"/>
    <path d="M107.6 59.4c.1-.1.1 0 0 0 0 .1 0 0 0 0z"/>
    <path d="M107.6 59.6c-.1 0 0-.1 0 0z"/>
    <path d="M57.2 73.4c.1 0 .1 0 0 0 0-.2 0-.1 0 0-.2-.1 0 .2-.2.2 0 .2-.1.2-.1.4-.3.3-.4.8-.7 1.1-.1.5-.5.8-.5 1.4-.1.2-.1.2-.1.4-.1.2-.2.3-.3.4 0 .2-.2.3-.2.5-.2.3-.4.6-.5 1-.3.7-.8 1.3-1 2-.4.6-.6 1.4-1 2-.1.4-.3.7-.4 1.1-.2.3-.2.8-.5 1-.2.8-.5 1.3-.7 2-.1.3-.3.6-.3 1-.2.3-.2.7-.5.9-.1.7-.4 1.2-.7 1.7-.3.5-.4 1.2-.6 1.8-.2.6-.4 1.2-.5 1.8-.3.5-.3 1.2-.7 1.7 0 .4-.2.5-.1.8-.2.2-.2.6-.4.8-.1.6-.3 1.1-.5 1.5-.2.5-.4 1-.4 1.6-.2.4-.3.8-.4 1.3-.2.4-.2 1-.5 1.3-.2 1.4-.7 2.7-.8 4-.1.3 0 .6-.2.9 0 .8-.1 1.5-.1 2.3.1 1.5.1 3.2.5 4.7.2.4.6.7.9 1.1-.3 0-.3-.3-.5-.3-.1.3.4.2.4.5h.2c-.1.2.5.1.2.2 0 .3-.2 0-.3.1-.1-.1-.2-.1-.4-.1-.1.2.3.3.3.6.2 0 .3.2.5.3 0 .1-.2 0-.2.1.4.2.9.2 1.5.2-.3.2-.5.2-.8.1-.2 0-.3 0-.4.1-.1-.1-.4-.1-.5-.1-.1 0-.2 0-.2-.1-.1 0-.2.1-.2-.1-.2.1-.3 0-.5 0s-.2-.2-.4-.1c0 .2.1.2.3.2 0 .2-.2.1-.4 0-.1 0-.1-.1-.1-.1-.1 0-.2 0-.2-.1h-.4c-.1-.1-.2-.2-.2-.3-.2.1-.3.2-.5 0 0-.1.2 0 .3-.1-.1-.2-.3-.3-.5-.4 0-.1-.1-.1-.2-.2 0 .1 0 .2.2.2 0 .1.1.1.1.2-.2-.1-.2 0-.4 0-.1-.1-.1-.2 0-.2-.3 0-.2-.2-.4-.3-.2-.1-.2-.2-.4-.3-.4-.9-1-1.7-1.2-2.7-.3-.7-.3-1.5-.5-2.3 0-.2-.2-.2-.2-.4 0-.1 0-.2.1-.2-.2-.1-.1-.5-.1-.7-.1-.1-.2.1-.2-.1 0-.1.1-.1.2-.1.1-.2-.3 0-.2-.2.2.1 0-.4.3-.2 0-.2 0-.4-.2-.4 0-.1 0-.1-.1-.1 0 .1 0 .1.1.1 0 .1-.1.1-.1.1-.1 0 0-.3 0-.4.2 0 .1.1.2.1v-.5c0-.2-.2.1-.2-.1 0-.1-.1-.1 0-.2 0-.1.1-.2-.1-.2.3-.2 0-.5.1-.8 0-.1-.1-.2 0-.4 0-.2.1-.2.1-.3 0-1.1.4-2.2.5-3.3 0-.2.2-.2.2-.3 0-.2-.1-.2 0-.4.2-.6.3-1 .4-1.7.2-.2.2-.7.4-1 0-.6.3-.9.4-1.5.1-.3.3-.6.3-1 .3-1.3.7-2.4.9-3.8.3-.7.4-1.5.7-2.2-.1-.1-.4.1-.6.2-.3 0-.5.1-.7.1-.5.4-1.3.5-2 .7-.6.3-1.3.4-2 .7-.7.1-1.2.4-1.8.5-.1.1-.2.2-.3.2-.4 0-.5.2-.8.3-.3 0-.4.3-.8.3-.2.2-.5.2-.7.4-.3.1-.5.3-.9.3 0 .3-.1.4-.1.5 0 .2-.2.1-.2.2 0 .3-.1.5-.1.7-.1.3-.1.5-.3.7 0 .2-.2.3 0 .4-.3.3-.4.9-.5 1.3 0 .2-.2.1-.2.2-.1.1-.1.2-.2.2 0 .1.1.1.2.1-.1.1-.2.1-.2.2 0 .2-.1.2.1.3-.3.2-.2.7-.5.9 0 .3-.1.4-.1.6 0 .1 0 .1-.1.1 0 .2-.1.2-.1.4-.2 0 0 .4-.3.3v.3c-.3.2-.3.7-.6.9 0 .3-.2.5-.3.8-.1 0-.2 0-.2.1-.1 0 0-.1-.1-.1s-.1.4-.1.2c-.1.1-.1.2-.1.4.2 0 .3-.3.4-.5.3.1 0 .3-.1.4 0 .2-.3.4-.1.5-.1.3-.4.3-.4.6-.1 0-.1-.1-.1-.2-.1 0-.1.2-.2.2.1.1.2.1.1.3-.1.6-.5 1.1-.6 1.5 0 .2 0 0-.2.1 0 .2-.1.4-.3.4 0-.1.1-.1.1-.2-.1.1-.2-.1-.2.1 0 .1-.1.2-.1.2 0 .2.3 0 .3.3-.1.2-.1.4-.3.4v.3c-.3 0 0-.1-.1-.3-.2 0-.3 0-.2.2-.1 0-.2.2-.3.3 0 .1-.1.1.1.1-.1.4-.6.5-.5.9-.3-.1-.1.3-.4.3.1.2 0 .3-.1.4-.1.2.2.1.2.3-.1.1-.1.2-.1.4-.1.1-.2.1-.2.2-.1 0 0 .3-.2.2 0 .1 0 .1.1.1l-.6.6c0-.1-.1 0 0 0 0 .1 0 .1-.1.2-.2-.1-.1-.3-.3-.1-.1.2.3 0 .2.2 0 .2-.1.2-.2.2 0 .1.1.1.1.2-.1.1-.3.1-.3.3-.2 0-.1.3-.3.3 0 .1 0 .1.1.1-.1.2-.2.1-.3.2.1.1 0 .4-.2.2-.1.2.2.1.1.2-.3 0-.3.2-.5.2 0 .2-.2.2-.2.2v.1h-.1v.1s-.1 0-.1.1c-.1.1 0 .2-.1.4-.1 0-.1.1-.2.1 0 .2-.1.2-.2.3-.1.1-.1.2-.2.2.1.1.1.1.1.2.2.2-.1.1-.2.2-.3 0 0-.1.1-.2-.2-.2-.3.4-.6.4-.1.2-.1.2-.1.4H21c-.1.2.3.1.2.3-.3-.2-.3.3-.7.3 0-.1.1-.1.1-.1.1 0 .1 0 .1-.1-.1 0-.1 0-.1.1-.2.1-.5.2-.5.6-.1 0-.1-.1-.2-.1-.4.4-.8.7-1.2 1-.4.4-.9.5-1.2 1-.3.1-.5.3-.7.5-.3 0-.3.2-.6.2-.2.3-.7.3-1 .6-.6.1-1.2.3-1.6.5-.2-.1-.5-.1-.8 0-.2.1-.1-.1-.2-.1s-.1.2-.2.1c-.6 0-1-.2-1.6-.2-.1 0-.2 0-.3-.1-.1 0-.4.1-.3-.1.5 0 1 .2 1.4 0l-1.8-.3c-.1.1.2.2.3.3 0 .3-.2-.1-.4 0 0-.2-.4 0-.4-.3h.2c0-.1-.1-.1-.2-.1-.3-.1.1.2-.2.1v-.2c-1.3-.3-2.1-1-3.1-1.4-.4-.4-.9-.8-1.5-1.1 0-.2-.3-.1-.3-.4-.2 0-.2-.2-.5-.3-.2-.4-.6-.6-.9-1-.3-.4-.6-.7-.8-1.1-.2-.4-.5-.8-.6-1.3-.3-.3-.3-1-.6-1.3 0-.5-.2-.8-.2-1.4-.3-.7-.2-1.7-.4-2.5 0-.2.1-.2.1-.3-.1-.3 0-.8 0-1.2.1-.5.2-.8.2-1.4.3-.6.5-1.4.7-2.1.3-.6.6-1.2.9-1.9.4-.5.7-1.1 1.1-1.6.5-.5.9-1 1.4-1.5.8-.5 1.5-1.1 2.5-1.5.9-.5 1.9-.8 2.9-1h1.4c.2 0 .4.1.7.1.4.4 1 .7 1.5 1 .7.2.9.7 1.6.9.1.2.3.3.5.4.1.2.2.3.1.6-.1.1-.4.2-.6.2-.4-.2-.8-.4-1.3-.5-.3 0-.4.1-.7 0-.3 0-.5.1-.8.1-.4.1-.7.3-1.2.4-.7.2-1.1.7-1.8 1-.3.3-.6.5-.9.8-.4.2-.6.6-.9.8-.4.6-.9 1.1-1.4 1.7-.1.2-.2.3-.3.5 0 .3-.2.4-.2.6-.3.3-.3.8-.5 1.1 0 .3-.1.4-.1.7-.2.2-.3.5-.3 1 0 .1 0 .2-.1.2.1.3-.1.3 0 .7-.1.1-.1.4-.2.5.1.2-.1.5.1.7-.2 2.2.6 4.1 1.3 5.6 0 .1.1.1.2.1.1.5.5.9.7 1.2.1.2.2.4.5.5.1.3.4.3.5.6.2 0 .2.1.4.1 0 .2.2.2.3.3 0 .1 0 .1.1.1l.9.6c0 .2.4.1.5.3.8.1 1.5.3 2.4.3 2-.8 3.4-2.3 4.9-3.7.4-.5 1-1 1.3-1.6.1 0 0-.1 0-.1.2-.2.3-.6.6-.7-.1-.3.3-.3.2-.6.2 0 .4-.4.3-.5.5-.5.8-1.2 1.1-1.8.3-.7.6-1.4 1-2 .1-.5.4-.8.5-1.2.2-.1.1-.5.3-.5.1-.2.1-.5.3-.7 0-.6.4-.7.5-1.2.2-.4.4-.9.5-1.3.8-1.6 1.5-3.3 2.2-5-.3 0-.3.3-.6.3-.3.5-.7.8-1.1 1.2-.3.5-.6 1-.7 1.7 0 .6-.1 1-.2 1.6 0 .3-.1.7 0 .9-.1.2-.1.3-.2.5-.3-1-.4-2.3-.4-3.4-.3 0-.1.5-.1.7-.1 0-.1-.1-.1-.2-.2.2 0 .5 0 .7-.2 0-.1-.2-.1-.4-.1-.1 0-.3-.1-.4.1-.4 0-.9.1-1.1-.2-.3.1-.6-.2-.8.1-.2.1-.8 0-1v-.1c.1 0 0-.1 0 0-.1 0 0 .1 0 .1-.1.1 0 .2-.1.4-.1-.4.2-.9.3-1.3 0-.1.1-.1.1-.1 0-.2.1-.4.1-.7.3-.3.5-.6.7-1.1.2-.1.4-.3.5-.5.4-.3.7-.6 1.1-.9.2-.2.4-.3.6-.5.2-.1.4-.3.6-.4.4-.3.8-.5 1.2-.8.4-.3.8-.5 1.2-.8.1-.4.2-.8.4-1.2.1-.4.2-.9.5-1.2.1-.5.3-.9.4-1.4.2-.4.2-1 .5-1.4-.1-.2.3-.1.3-.2.1-.2-.2-.1-.1-.2.2-.7.4-1.4.7-2 0-.2.1-.3.1-.5.3-.7.6-1.5.7-2.3.4-.7.6-1.6.9-2.4.3-.8.6-1.7.9-2.5.4-.7.7-1.5 1-2.4.2-.4.4-.8.5-1.2 0-.3.2-.4.2-.7.2-.1.1-.5.3-.5.2-1.1.8-1.9 1.2-2.8 0-.1-.2.1-.3.1-.2 0-.2.2-.4.2-.2.2-.4.3-.7.4-.4.3-1 .5-1.4.9-1 .5-2 1-2.9 1.5-.9.5-1.8 1.1-2.8 1.7-1 .5-2.2.8-2.9 1.5-.7.2-1.2.7-1.8 1.1-.4.1-.6.4-.9.6l-.9.6c-.5.5-1.2 1-1.7 1.5-.4.6-1.1 1-1.5 1.8-.2 0-.2.2-.4.2-.1.2-.1.2-.1.4-.1 0-.1.2-.2.1 0 .4-.3.4-.3.7-.2.1-.2.5-.4.6 0 .3-.2.2-.1.5-.2.3-.4.8-.5 1.2-.2.1-.2.2-.4.3-.2.8-.2 1.4-.2 2.2.1-.3 0-.9.1-1.3 0-.2.1-.3.1-.6.2-.1.1-.5.3-.5-.4 1-.4 2.1-.2 3.2 0 .1-.1.1-.1.1 0 .3.2.3.1.5l.2.2c0 .3.1.3 0 .5.4.8.8 1.6 1.4 2.2.9.7 1.8 1.3 2.9 1.8-.5.2-.7-.4-1.3-.3-.3-.2-.6-.5-1.1-.6-.3-.3-.7-.5-1-.9-.2.1-.3-.2-.2.1-.2 0 0-.2-.2-.2 0-.1 0-.1-.1-.1 0-.1-.1 0 0 0 0 .1 0 .1.1.1-.1.2-.3-.1-.4-.1v-.1h.1c0 .1.1 0 0 0-.7-.8-1.4-1.7-1.8-2.8-.2.1.1.3 0 .4.4.7.7 1.4 1.3 2v.1c-.3 0-.3-.3-.5-.4 0-.1.1-.1 0-.2 0-.1-.1-.1-.1-.1 0-.1-.2-.1-.2-.2 0-.2-.1-.4-.3-.6 0-.2-.3-.1-.2-.3-.1-.1-.3-.1-.2-.3.1 0 .1.1.1.1 0 .1.1 0 0 0 0-.2-.1-.2-.2-.2 0-.3-.2-.5-.2-.7-.2-.1-.1-.5-.3-.7-.1-.5-.2-1-.3-1.6v-.6c.1-.2-.1-.2-.1-.3v-.8c.1-.3.1-.3.1-.7.3-1.2.6-2.3 1-3.3s1-1.8 1.7-2.6c.6-.8 1.3-1.5 2.1-2.2.7-.7 1.6-1.2 2.3-1.9.9-.4 1.6-1.1 2.5-1.6.4-.3.8-.6 1.2-.8.4-.2.9-.5 1.3-.7 1.1-.3 1.8-.9 2.8-1.3.9-.5 1.8-1 2.7-1.4 1.9-.8 3.5-1.9 5.4-2.6 2.1-.6 3.8-1.6 5.4-2.7.3-.2.4-.4.8-.5.2 0 .6.2.6.5.5 0 .6.3 1 .4.1.2.3.4.5.6 0 .1.1.1.2.1.1.4.6.4.6.9 0 .3-.2.2-.3.4-.1.2-.3.2-.3.4-.3.2-.4.6-.7.8-.1.3-.4.6-.6.8-.2.3-.3.6-.6.9-.3.6-.7 1.2-1 1.9-.2.3-.3.7-.5.9-.1.3-.3.7-.5.9 0 .4-.3.6-.4.9-.1.3-.3.6-.4.9-.4.5-.5 1.2-.9 1.7-.2.8-.8 1.2-1 2.1-.2.3-.4.7-.5 1-.1.2-.2.3-.3.5-.2.1 0 .5-.3.5-.1.2.2.1.1.2-.3.4-.3 1-.6 1.4 0 .2-.1.3-.1.5-.2.2-.5.5-.4 1-.1.1-.2.3-.3.4v.4c0 .1-.1.1-.2.1 0 .1 0 .2.1.2-.2.1-.3.2-.4.4.1.4-.1.7-.3 1 0 .1.1.1.2.1 0 .2-.2.1-.1.4h-.2c.1.3 0 .3-.2.4-.1.5-.2.9-.4 1.2 0 .4-.1.5-.2.7-.1.3-.2.6-.3.8-.1.4-.2.5-.3.9 0 .2-.1.3-.1.5.3 0 .6-.1.7-.3.5-.1.8-.3 1.2-.4.4-.2.8-.3 1.1-.6.2 0 .2-.1.4 0 .5-.3 1.2-.5 1.8-.8.7-.2 1.3-.6 2-.7 1.3-.7 3-1 4.6-1.4.6-1.1 1.2-2.2 2-3.1 0-.5.5-1.1.4-1.4l.1-.1c.1-.3.3-.7.5-1.1.2-.4.4-.8.5-1.3.2-.3.3-.6.4-1 .5-1 1-2.1 1.6-3.1.5-1 1.1-2 1.7-3 .2-.5.6-.9.8-1.5.3-.5.5-1.1.8-1.5.3-.5.5-1.1.8-1.5.1-.3.2-.6.4-.7.1-.3.2-.6.4-.8.2-.7.7-1.1 1-1.8.4-.6.8-1 1.1-1.7.7-.8 1.4-1.7 2.2-2.4.4.1.5.1 1.1.2 0 .1.3.1.3.3.2 0 .3.1.4.1 0 .2.2.2.2.4.3 0 .4.3.7.3.2.1.5.2.8.3.2.3.5.5.4 1-.2.1-.2.3-.4.3-.1.1-.2.3-.4.3-.4.4-.7.8-1.1 1.1-.2.5-.6.7-.8 1.2-.2.1-.3.4-.5.5 0 .2-.1.2-.1.4-.2.1-.3.3-.4.5-.1.6-.5.9-.6 1.4-.3.2-.4.6-.6.8-.1.4-.4.6-.5.9-.3.6-.6 1.3-1 2 0 .1 0 .1.1.1-.1.2-.2 0-.2.2s.2.2 0 .4c-.1 0-.1-.1-.1-.2-.2.2-.2.2-.1.3 0 0 .1 0 .1.1-.5.2-.6.5-.9.7 0 .3.1.5-.1.5-.1-.3.1-.3.1-.5zm.3-.6s-.1.1 0 0c-.1.1 0 .1 0 0zm-.1.2s-.1.1 0 0c0 .1 0 .1 0 0zm-43 14.7c0-.2 0-.4-.1-.5 0 .2 0 .4.1.5zm.3 1.2c0 .3.3.1 0 0 .1-.1 0-.2 0-.4-.2-.1-.1-.5-.3-.6.1.4.2.7.3 1zm.4-.8c-.1.3.1 0 0 0-.1-.1-.1 0 0 0zm1.1.3c0-.1.1-.3-.1-.3 0 .1-.1.2.1.3zm-1 .2s0-.1 0 0c0 0 0 .1 0 0zm.2.8c0-.2 0-.4-.2-.4.1.2.1.3.2.4zm-.9-.3c0-.1-.1 0 0 0 0 0 .1 0 0 0zm14.8 1.7s0-.1 0 0c-.1 0-.1 0 0 0zm-13.4-.5s-.1 0 0 0c-.1.1 0 0 0 0zm13.8 12.8c0-.3.4-.5.1-.7-.1.3-.4.6-.1.7zm-6.7.9c-.1 0-.1 0 0 0-.1 0 0 0 0 0zm5.8 1.4c0-.1.2-.2 0-.3 0 0-.1.3 0 .3zm-.6.9c0 .1 0 .2-.1.3.2 0 .2-.2.3-.4-.1 0-.1.1-.2.1zm-.6 1.4c.2 0 .2-.3.3-.5h-.2c0 .3-.2.3-.1.5zm-.4 1c0-.1.1-.1.1-.3-.1.1-.3.3-.1.3zm-27 .9s-.1-.1 0 0c-.1 0 0 .1 0 0zm25.6 1.8s-.1-.1 0 0c-.1 0 0 .1 0 0zm-.8.6c0 .2-.1.2-.1.3.3 0 .4-.2.5-.5-.1 0-.2 0-.2.1.1 0 0 .3-.2.1zm-.7 1.3s-.1 0 0 0c0 .1.1 0 0 0zm-.1.2c-.1 0 0 0 0 0 .1-.1 0-.1 0 0zm-.4.6c.2 0 .4-.3.2-.4-.1.2-.2.2-.2.4zm-.1.1s-.1.1 0 0c-.1.1 0 .1 0 0z"/>
    <path d="M147.5 63.5s-.1 0-.1-.1c.1 0 .1 0 .1.1z"/>
    <path d="M147.3 63.7c0-.1.1-.1 0 0 .1-.1.1 0 0 0z"/>
    <path d="M147.1 64.3c0-.1 0 0 0 0-.1 0-.1 0 0 0z"/>
    <path d="M146.9 64.7s.1 0 0 0z"/>
    <path d="M146.9 64.7c0 .1-.1.1 0 0z"/>
    <path d="M146.9 65.1c0-.1.1 0 0 0z"/>
    <path d="M137.2 64.8s.1 0 0 0c.1 0 .1 0 0 0z"/>
    <path d="M146.9 65.1s0 .1 0 0z"/>
    <path d="M137.2 64.9c.1 0 0 .1 0 0z"/>
    <path d="M170.1 66.2c0-.3.2 0 0 0z"/>
    <path d="M114.3 64.5h.1v.1h-.1v-.1z"/>
    <path d="M114.2 64.7s.1 0 0 0z"/>
    <path d="M114.2 64.8s0-.1 0 0c.1-.1.1 0 0 0z"/>
    <path d="M136.9 66.2c0-.1.1-.2.1-.1s0 .1-.1.1z"/>
    <path d="M146 66.6c.1 0 0 .3 0 .3-.1-.1.1-.2 0-.3z"/>
    <path d="M145.9 67.4c-.1 0-.1 0 0 0-.3.1 0-.2 0 0z"/>
    <path d="M145.3 67.6c-.1 0 0-.1 0 0 .1 0 0 0 0 0z"/>
    <path d="M169.1 68.8c.1 0 .1 0 0 0 .1.1 0 .1 0 0z"/>
    <path d="M144.6 68.4s.1 0 0 0c0 .1 0 .1 0 0z"/>
    <path d="M168 71.2c0-.1 0 0 0 0-.1.1-.1 0 0 0z"/>
    <path d="M104.2 69.6c-.2 0 .1-.2 0 0z"/>
    <path d="M141.9 71.7s0 .1-.1.1c0-.1-.1 0 0 0 0 0 0 .1-.1.1 0-.1-.1-.2-.1-.3.2 0 .2.1.3.1z"/>
    <path d="M141.9 71.7c0-.1 0-.1 0 0 .1-.1 0 0 0 0z"/>
    <path d="M141.5 71.9c-.1 0 0-.1 0 0 .1 0 0 0 0 0z"/>
    <path d="M141.9 72c0-.1 0-.1 0 0 .1-.1 0 0 0 0z"/>
    <path d="M135.9 72.2s.1 0 0 0c.1 0 0 .1 0 0z"/>
    <path d="M136.8 72.3c.1 0 0 .1 0 0z"/>
    <path d="M140.4 72.6l.1-.1c0 .1 0 .1-.1.1z"/>
    <path d="M136.9 72.6s.1 0 0 0z"/>
    <path d="M136.9 72.7s0-.1 0 0z"/>
    <path d="M133.4 73c-.1-.1-.3.1-.1.1-.1.2-.1-.2-.2-.2.1-.1.3 0 .2-.3.1.1 0 .3.1.4z"/>
    <path d="M137.2 73h-.1c0-.2.1-.1.1 0z"/>
    <path d="M136.3 72.9c-.1 0 0-.1 0 0z"/>
    <path d="M136.3 72.9c.1 0 0 .1 0 0z"/>
    <path d="M133.4 73c.2 0 0 .3 0 0z"/>
    <path d="M166.9 74.2h.1v.1h-.1v-.1z"/>
    <path d="M135.3 73.3s0 .1-.1.1l.1-.1z"/>
    <path d="M133.5 73.4c.1.1.2.2.2.3-.2 0-.4-.1-.2-.3z"/>
    <path d="M58.3 71.3c0-.1.1-.1 0 0 .1 0 0 0 0 0z"/>
    <path d="M134.9 74.6c.1 0 .1.1.1 0 .2.1-.2.3 0 .3-.1.2-.3-.2-.4-.3-.2-.1-.3-.1-.4-.3h-.2c0-.1 0-.2.1-.2-.2 0-.5 0-.4-.2.3-.1.3.1.7.1 0 .1 0 .2-.1.2.1.1.2.2.2 0 .2 0 0 .4.2.4.1.1.2.1.2 0z"/>
    <path d="M134.4 74s.1-.1 0 0c.1 0 0 0 0 0z"/>
    <path d="M134.9 74.6c-.1 0-.1-.1 0 0z"/>
    <path d="M165.7 75.8c.1 0 .1 0 .1.1 0 0-.1 0-.1.1-.1-.1 0-.1 0-.2z"/>
    <path d="M135.2 74.9c-.1 0 0 0 0 0 .1 0 0 .1 0 0z"/>
    <path d="M135.3 74.9c.5.1.8.3 1.3.3-.1.2.3 0 .2.2-.4 0-.6-.2-1-.2 0-.1-.5 0-.5-.3z"/>
    <path d="M57.8 72.4s.1 0 0 0c.1 0 .1.1 0 0z"/>
    <path d="M58 72.6c.2 0 0 .4-.1.4-.1-.2 0-.3.1-.4z"/>
    <path d="M137 75.4c.1 0 .3.1.5.1 0 .1-.1.2-.2.2-.2-.2-.3-.2-.3-.3z"/>
    <path d="M165.2 76.5c-.1-.1 0-.1 0 0z"/>
    <path d="M57.8 73.2c0 .1 0 .3-.2.2 0 .3-.1.4-.2.6-.1-.2.1-.7.4-.8z"/>
    <path d="M129.2 75.8s-.1 0 0 0z"/>
    <path d="M56.9 74c0-.1.1-.1.1 0s0 .1-.1 0z"/>
    <path d="M56.8 74.2c.3 0 0 .3 0 .5.2 0 .2-.3.3-.4.1.2-.1.6-.4.7.1-.1 0-.2-.2-.2.2-.2.3-.4.3-.6z"/>
    <path d="M122.9 76.9c0-.1.1 0 .1-.1 0 .1 0 .1-.1.1z"/>
    <path d="M122.8 77.1c-.1 0 0-.1 0 0z"/>
    <path d="M122.6 77.2c-.2-.1 0-.3 0 0z"/>
    <path d="M56.5 74.9c0-.1.1 0 .1-.1 0 .1-.1.1-.1.1z"/>
    <path d="M122.2 77.2s0-.1 0 0c.1 0 0 0 0 0z"/>
    <path d="M56.4 75s.1 0 0 0c.1 0 0 .1 0 0z"/>
    <path d="M122 77.3c0-.1.1 0 .1-.1 0 .1 0 .1-.1.1z"/>
    <path d="M56.5 75.3c-.1 0-.1.2-.3.1 0-.1.1-.2.2-.3.1 0 .1.1.1.2 0-.1 0 0 0 0z"/>
    <path d="M56.5 75.3c.1 0 .2 0 .2-.1.1.2-.2.4-.2.7-.1-.2.1-.4 0-.6z"/>
    <path d="M56.1 75.6s.1 0 0 0c.1 0 0 .1 0 0z"/>
    <path d="M56 75.9v-.2c.3 0 .3.3 0 .2z"/>
    <path d="M102.6 77.4c0-.1.1 0 0 0 .1.1 0 0 0 0z"/>
    <path d="M56.3 75.9c.1 0 0 .3-.1.2 0-.2.1-.1.1-.2z"/>
    <path d="M56 75.9c0 .1 0 .3-.2.2.1 0 .1-.2.2-.2z"/>
    <path d="M55.7 76.9c.1 0 .1.1.1.2h-.1v-.2z"/>
    <path d="M120.4 79.3c0-.1.1 0 .1-.1 0 .1-.1 0-.1.1z"/>
    <path d="M151.5 81.1s.1 0 0 0c.1 0 0 .1 0 0z"/>
    <path d="M103.3 79.6c.1-.1.1 0 0 0 0 .1 0 0 0 0z"/>
    <path d="M152.5 81.4c0-.1.1 0 .1-.1 0 .1-.1.1-.1.1z"/>
    <path d="M155.8 81.5c0-.1.1-.1.1 0s-.1.1-.1 0z"/>
    <path d="M153.5 81.6c-.2.2-.3-.3 0 0z"/>
    <path d="M153.7 81.6c0-.1.1 0 .2-.1 0 .2-.1.1-.2.1z"/>
    <path d="M103.5 80.3c0-.1.1-.1.1 0s0 0-.1 0z"/>
    <path d="M65.6 79.5s.1 0 0 0c.1 0 .1.1 0 0z"/>
    <path d="M95 80.6c0-.3.2 0 0 0z"/>
    <path d="M103.9 81.2c.1-.1.1-.1 0 0 .1 0 0 0 0 0z"/>
    <path d="M104.1 81.4c-.1-.1 0-.1 0 0 0-.1 0 0 0 0z"/>
    <path d="M106 83.7c0 .1-.2-.1 0 0z"/>
    <path d="M130.7 84.6c.1 0 0 .1 0 .2-.1-.1 0-.1 0-.2z"/>
    <path d="M36.9 82c0-.1 0-.1 0 0z"/>
    <path d="M106.1 84.4c0-.1.1-.1 0 0 .1 0 0 0 0 0z"/>
    <path d="M130.3 85.2c.1 0 0 .1 0 0z"/>
    <path d="M106.4 84.6c-.1 0-.1-.1 0 0z"/>
    <path d="M106.4 84.6s0 .1 0 0z"/>
    <path d="M130.1 85.4h.1v.1h-.1v-.1z"/>
    <path d="M129.6 86.6c0-.1-.1-.1-.1-.1.1-.3.3-.4.4-.7.2.1 0 .3-.1.3 0 .3-.1.3-.2.5z"/>
    <path d="M107.5 85.1c0 .1 0 0 0 0z"/>
    <path d="M107.4 85.3c0-.1.1-.1 0 0 .1-.1 0 0 0 0z"/>
    <path d="M129.2 86.5s0-.1 0 0z"/>
    <path d="M128.9 86.6c0-.1.1 0 0 0z"/>
    <path d="M128.9 86.6c0 .1-.1 0 0 0z"/>
    <path d="M129.5 86.6c.1 0 .1 0 0 0 .1 0 0 .1 0 0z"/>
    <path d="M128.6 86.9c0-.1.1-.1 0 0 .1 0 0 0 0 0z"/>
    <path d="M129.3 86.8c.2 0 0 .3 0 0 0 .1.1.1 0 0z"/>
    <path d="M127.9 87.6c0-.1 0-.1 0 0z"/>
    <path d="M127.8 87.8c-.2.1-.2-.3 0-.2v.2z"/>
    <path d="M127.1 88.2c0-.1.1 0 0 0 .1.1 0 0 0 0z"/>
    <path d="M126.9 88.2h.1v.1h-.1v-.1z"/>
    <path d="M67.8 86.5c-.1-.1 0-.1 0 0 0-.1 0 0 0 0z"/>
    <path d="M67.6 86.7s.1-.1 0 0c.1 0 0 0 0 0z"/>
    <path d="M67.5 86.9s0-.1 0 0c.1 0 0 0 0 0z"/>
    <path d="M110.7 88.9c0 .3-.3 0-.3-.1-.2 0-.2-.3-.4-.3 0-.2-.2-.2 0-.4.3.3.4.7.7.8z"/>
    <path d="M128.3 88.9s.1-.1 0 0c.1 0 0 0 0 0z"/>
    <path d="M67.4 87c.1-.1.1 0 0 0 0 .1 0 0 0 0z"/>
    <path d="M67.4 87.2c-.1 0 0-.1 0 0 .1 0 0 0 0 0z"/>
    <path d="M127.8 89.2s.1-.1 0 0c.1 0 0 0 0 0z"/>
    <path d="M35.3 86.4c0-.1.1 0 .1-.1 0 .1-.1.1-.1.1z"/>
    <path d="M110.6 89.2c0-.1.1 0 .2-.1 0 .1-.1.1-.2.1z"/>
    <path d="M67.1 87.8c0-.1.1-.1 0 0 .1-.1 0 0 0 0z"/>
    <path d="M94.8 88.7c0-.1.1 0 .1-.1 0 .1-.1.1-.1.1z"/>
    <path d="M111.5 89.7c0 .2.1.1 0 .2-.2 0-.3-.2-.4-.3-.1-.1-.3-.1-.3-.4.4 0 .4.4.7.5z"/>
    <path d="M35.2 86.9c0-.3.2 0 0 0z"/>
    <path d="M35.2 86.9c0 .2 0 .4-.2.4 0-.3.1-.4.2-.4z"/>
    <path d="M66.7 88.1c0-.2.2 0 0 0z"/>
    <path d="M111.6 89.5c-.1.1-.1 0 0 0z"/>
    <path d="M127.5 90.2c0-.1 0-.1 0 0 .1-.1 0 0 0 0z"/>
    <path d="M66.7 88.1c.1.3-.1 0 0 0z"/>
    <path d="M118.6 89.9s0-.1 0 0c.1 0 0 0 0 0z"/>
    <path d="M127.2 90.1c0 .1-.1.1 0 0z"/>
    <path d="M112.1 89.9c.1 0 0 .1 0 0z"/>
    <path d="M112.4 90.6c-.2.2-.2-.1-.4-.1-.1-.2-.4-.2-.4-.6.2 0 .2.1.2.2.4 0 .3.4.6.5 0-.1 0-.1 0 0z"/>
    <path d="M34.9 87.5c.1.3-.2.7-.3 1 0-.4.2-.8.3-1z"/>
    <path d="M112.6 90.4c-.1 0 0 0 0 0z"/>
    <path d="M112.6 90.4c.2 0 .3.1.2.2-.1 0-.2 0-.2-.2z"/>
    <path d="M113.9 90.6s0-.1 0 0z"/>
    <path d="M112.4 90.6c.1-.1.1 0 0 0z"/>
    <path d="M113.9 90.7c0-.1 0-.1 0 0 .1-.1.1 0 0 0z"/>
    <path d="M126.7 91.1c0 .2-.1.2-.2.2 0-.1.1-.2.2-.2z"/>
    <path d="M112.7 90.7c-.1 0-.1 0 0 0z"/>
    <path d="M112.7 90.7c.2.2.5.2.6.5h.2c.1.2.6.5.8.4.1.4.7.3.9.6.2 0 .3.1.4 0 .1.3.7.2.9.4-.1.2-.3.1-.4-.1-.5.1-1-.2-1.4-.3V92h-.4c-.3-.2-.6-.5-1-.6-.1-.2-.4-.2-.5-.5-.2 0-.3-.1-.4-.2.2.1.2.1.3 0z"/>
    <path d="M114.3 90.9c0-.1.1 0 .1-.1.1.1 0 .1-.1.1z"/>
    <path d="M126.3 91.3c0-.1.1 0 .1 0 0 .1-.1.1-.1 0z"/>
    <path d="M126.2 91.4c0 .1 0 .1 0 0z"/>
    <path d="M34.5 88.6c.2 0 .1.2.1.3-.1.1 0-.2-.1-.3z"/>
    <path d="M97.4 90.8c0 .2.2.3.2.5-.2 0-.4-.3-.2-.5z"/>
    <path d="M125.4 91.9c.1 0 .1.1.1.2-.1 0-.1-.1-.1-.2z"/>
    <path d="M13.5 88.2c.1 0 .1.3-.1.2 0-.1.1-.1.1-.2z"/>
    <path d="M34.5 89.2c-.1.2-.2.3-.1.5-.3.1-.1-.5.1-.5z"/>
    <path d="M13.6 88.8c.1-.2.1.4 0 0z"/>
    <path d="M65.8 90.9c0-.3.2 0 0 0z"/>
    <path d="M13.7 89.2c0-.1 0-.1 0 0 .1-.1 0 0 0 0z"/>
    <path d="M65.8 90.9c0 .2-.1.2-.1.3-.2-.1 0-.3.1-.3z"/>
    <path d="M123.8 92.9c0-.1 0-.1 0 0 .1-.1 0 0 0 0z"/>
    <path d="M117.1 92.8c0 .3-.3.1-.5.1.1-.2.2-.1.5-.1z"/>
    <path d="M117.5 93c-.1 0 0-.1 0 0z"/>
    <path d="M117.5 93c.1 0 .1 0 0 0 0 .1 0 .1 0 0z"/>
    <path d="M117.6 93.1c.2-.2.1.2 0 0z"/>
    <path d="M118 93c.3.2.5.1 1 .2-.1.1-.3.2-.4 0-.4.1-.8.1-.6-.2z"/>
    <path d="M119.1 93.3c.1-.2.2.1.4 0-.2.2-.3.1-.4 0z"/>
    <path d="M120 93.3c.1 0 .2 0 .2.1h-.2v-.1z"/>
    <path d="M15 90.1c0 .1-.1 0 0 0z"/>
    <path d="M15 90.4s.1-.1 0 0c.1 0 .1 0 0 0z"/>
    <path d="M15.5 90.9c0 .1-.1 0 0 0z"/>
    <path d="M16.1 91.6c.1 0 .1 0 0 0 .1 0 0 0 0 0z"/>
    <path d="M16.2 91.6s.1.1 0 0c0 .1 0 .1 0 0z"/>
    <path d="M16.3 91.7c0 .1-.1.1 0 0z"/>
    <path d="M16.3 91.8c.1 0 .2 0 .2.1-.1 0-.3 0-.2-.1z"/>
    <path d="M63.8 93.8h.1v.1c-.1 0-.1 0-.1.1h-.1c.1-.1.1-.1.1-.2 0 .1 0 0 0 0z"/>
    <path d="M17.2 92.5c0-.1.1 0 .1-.1 0 .1-.1.1-.1.1z"/>
    <path d="M63.6 94.3c0-.1 0-.1 0 0 .1 0 0 0 0 0z"/>
    <path d="M63.5 94.4c-.1 0 0-.1 0 0z"/>
    <path d="M63.3 94.6c0-.1 0-.1 0 0z"/>
    <path d="M63.1 94.9c0-.1.1-.1.1 0h-.1z"/>
    <path d="M55.7 96c.1 0 0 .2.1.2-.2 0-.2-.1-.1-.2z"/>
    <path d="M55.6 96.8c.1 0 .1-.2.1 0 0 .1-.1.1-.1 0z"/>
    <path d="M55.7 97c.1 0 .1.1.1.2-.1-.1-.1-.1-.1-.2z"/>
    <path d="M6.4 104.2s.1-.1 0 0c.1 0 .1 0 0 0z"/>
    <path d="M39.8 108.1c.1 0 0 .1 0 0z"/>
    <path d="M26.4 110.5c.1-.3.3-.5.4-.8 0 0 0-.1-.1-.1v-.1c.1-.1.2.1.2.2 0 .2-.4.4-.3.5 0 .2-.1.1-.2.3z"/>
    <path d="M26.4 110.5c-.1.2-.1.4-.4.5.1-.2.2-.5.4-.5z"/>
    <path d="M19 113.3c0-.1.1 0 0 0 .1.1 0 0 0 0z"/>
    <path d="M18.9 113.6c-.2 0-.1-.2.1-.1 0 0-.1 0-.1.1z"/>
    <path d="M18.1 114.9c-.1 0-.1 0 0 0z"/>
    <path d="M23.2 115.2c.1 0 0 .3-.1.2 0 0 0-.1.1-.2z"/>
    <path d="M45.7 116.2c.2 0 .1.1.2.1l-.1.1c0-.1-.1-.1-.1-.2z"/>
    <path d="M22.9 115.5s.1 0 0 0c.1 0 0 0 0 0z"/>
    <path d="M17.6 115.5c-.1-.1 0-.1 0 0 .1-.1 0 0 0 0z"/>
    <path d="M22.9 115.8v-.2c.1 0 .1.1.1.2h-.1z"/>
    <path d="M22.9 115.8c.1.2-.2 0 0 0z"/>
    <path d="M46.6 117.5c0-.1 0-.1 0 0 .1-.1 0 0 0 0z"/>
    <path d="M22.2 116.8c.1 0 0 .2.1.2-.3 0-.2-.1-.1-.2z"/>
    <path d="M45.1 117.7c0 .1-.1.1-.2.1 0-.2.1-.1.2-.1z"/>
    <path d="M44.8 117.8c0-.1.1-.1 0 0 .1-.1 0 0 0 0z"/>
    <path d="M21.6 117.2s.1 0 0 0c.1 0 0 .1 0 0z"/>
    <path d="M21.8 117.4c0-.1 0-.1.1-.2.1 0 0 .3-.1.2z"/>
    <path d="M21.5 117.4c-.1.1-.2.2-.2.3-.1-.1.1-.4.2-.3z"/>
    <path d="M21.8 117.4c0 .1-.1.1 0 0z"/>
    <path d="M21.2 117.8c-.1-.1 0-.1 0 0 .1-.1 0 0 0 0z"/>
    <path d="M21.6 117.7c0 .2-.1.1-.1.2-.2 0 0-.2.1-.2z"/>
    <path d="M20.7 118.3c0-.2.3.1 0 0z"/>
    <path d="M21.2 118.2c-.1.2-.2.4-.5.5.2-.1.3-.4.5-.5z"/>
    <path d="M20.4 118.3s0 .1-.1.1c0 .1.1.1.2.1-.1.3-.3.2-.5.2 0-.2.2-.2.2-.2.1-.1.1-.2.2-.2z"/>
    <path d="M20.7 118.3c0 .1-.1 0 0 0z"/>
    <path d="M19.7 118.9c0-.1.1-.1 0 0 .1-.1.1 0 0 0z"/>
    <path d="M20.6 118.8c0 .2-.2.2-.4.3-.1-.1.2-.2.4-.3z"/>
    <path d="M19.9 118.9c0-.1.1 0 .1-.1 0 .1-.1.1-.1.1z"/>
    <path d="M20.4 119.2c.1 0 0 .1 0 0z"/>
    <path d="M20 119.3c0-.1.1 0 .1-.1 0 .1-.1.1-.1.1z"/>
    <path d="M8.1 119c0-.2.2.1 0 0z"/>
    <path d="M19.1 119.4c0-.1.1 0 .1-.1 0 .1-.1.1-.1.1z"/>
    <path d="M9.1 119.6c0-.1.2.1 0 0z"/>
    <path d="M9.1 121.6c-.1 0-.1-.1 0 0z"/>
  </g>
</svg>
