<svg xmlns="http://www.w3.org/2000/svg" viewBox="0 0 217.34 108.42"><title>Asset 1</title><g data-name="Layer 1" fill-rule="evenodd"><path d="M133.8 32.21c-.37.6-.66 1.27-1 1.9s-.45 1.43-.79 2c-.45 1.43-.92 2.84-1.38 4.26a42.46 42.46 0 0 0-.92 4.72 10.3 10.3 0 0 0-.07 2.62 3.2 3.2 0 0 0 .2 1.12 7.07 7.07 0 0 0 .26 1.12 6.4 6.4 0 0 0 .59 1c.25.28.4.65.79.79a12.38 12.38 0 0 0 3.94-1.9 6.2 6.2 0 0 1 .79-.66c.28-.2.44-.52.79-.66.43-.53.91-1 1.38-1.51a20.15 20.15 0 0 1 1.44-4.33c.37-.59.63-1.3 1-1.84a9.85 9.85 0 0 1 .52-.92c.25-.21.35-.57.59-.79a11 11 0 0 1 1.25-1.64 10.49 10.49 0 0 1 1.31-1.51c.42-.55 1-.92 1.38-1.51a9.16 9.16 0 0 1 1.44-1.38 9.21 9.21 0 0 1 1.69-1.14 6.91 6.91 0 0 1 1.57-1.31c.57-.39 1.15-.77 1.77-1.12a14.72 14.72 0 0 0 1.84-1c1.38-.52 2.81-1 4.2-1.51a16.06 16.06 0 0 1 5-.72 1.64 1.64 0 0 0 .66.07 6.55 6.55 0 0 0 1 .33 10.15 10.15 0 0 1 1.31 1c.14.24.39.35.52.59.18 0 .15.24.26.33s.2.15.26.26a8.22 8.22 0 0 1 1 4.33 5.38 5.38 0 0 1-.39 1.3c.23.19.31-.35.52-.39a1.76 1.76 0 0 1 .52-.52c.2-.48.72-.64.92-1.12.22 0 .11-.24.26-.26s.23-.12.2-.33a1.68 1.68 0 0 0 .46-.59c.41-.27.38-1 .85-1.18.51.05.68.46 1 .72s.27.3.46.39.28.25.33.46a4.94 4.94 0 0 1 .85.79c.27.28.66.43.72.92s-.39.66-.59 1a7.44 7.44 0 0 1-.59 1c-.44.58-.87 1.18-1.31 1.77-.84 1.21-1.74 2.37-2.62 3.54a23.24 23.24 0 0 0-2.08 3.3c-.15.32-.31.69-.46 1a8.43 8.43 0 0 0-.39 1.18c0 .09-.11.17-.13.26s0 .22 0 .33-.12.17-.13.26a15.88 15.88 0 0 0-.13 2.56c0 .52.16 1 .2 1.51.15.24.31.47.46.72 1.24 1.07 3.05 1.31 5.05 1.51a10.06 10.06 0 0 0 2.75-.72 15.66 15.66 0 0 0 1.64-1c.48-.38.87-.84 1.38-1.18.84-.89 1.78-1.67 2.56-2.62s1.68-1.78 2.49-2.69c.32-.53.75-1 1-1.51a.92.92 0 0 0 .33-.33c.15-.06.11-.33.33-.33.24-.18.35-.48.79-.46a1 1 0 0 1 .72.59 2.69 2.69 0 0 1-.59 1.38 4.57 4.57 0 0 1-.59 1.31 11.92 11.92 0 0 1-1.57 2.3c-1.08 1.5-2.24 2.92-3.41 4.33a38.2 38.2 0 0 1-4.07 3.67c-.43.22-.82.5-1.25.72a13.07 13.07 0 0 1-1.25.66 7.08 7.08 0 0 1-1.38.52 5.45 5.45 0 0 1-1.57.33 13.19 13.19 0 0 1-1.9.52c-1.35 0-2.18 0-3.28-.07-.77-.13-1.43-.36-2.16-.52a6.83 6.83 0 0 0-.92-.46c-.31-.12-.52-.35-.85-.46-.41-.38-.84-.73-1.25-1.12-.08-.31-.47-.32-.52-.66-.25-.14-.31-.47-.52-.66a8.32 8.32 0 0 1-1.18-3.54c-.05-.48.19-.74.07-1.12v-1.18c-.08-.16-.19.2-.33.2a2.93 2.93 0 0 1-.26.33 2.44 2.44 0 0 1-.59.66 6.26 6.26 0 0 1-1.18 1.31 14.12 14.12 0 0 1-1.31 1.18 12.65 12.65 0 0 1-1.31 1.12 22.92 22.92 0 0 1-6.36 3.54c-.47.08-.91.18-1.38.26a17.46 17.46 0 0 1-1.77-.26 5 5 0 0 0-1.68-.57 1.12 1.12 0 0 0-.52-.33c-.13-.23-.31-.07-.39-.26-.28-.13-.42-.41-.72-.52 0-.17-.2-.24-.33-.33s-.11-.28-.26-.33c-.37-.44-.61-1-1-1.44a2.65 2.65 0 0 0-.33-.92 8.07 8.07 0 0 1-.2-1.38c-.18-.14-.29.2-.46.26a5.61 5.61 0 0 0-.46.33c-.27.27-.65.44-.92.72a14.25 14.25 0 0 1-2 1.18 10.92 10.92 0 0 1-5 1.44c-.55 0-1-.17-1.51-.2-.69-.4-1.55-.63-2.3-1a3.62 3.62 0 0 1-1.12-.52c-.45-.07-.59-.46-1-.52a6.73 6.73 0 0 0-.92-.72 1.33 1.33 0 0 0-.39-.39c-.18-.08-.17-.36-.39-.39a22.72 22.72 0 0 1-1.25-2c-.15-1.18-.45-1.9-.66-3.08-.05-.13-.23.16-.33.2s-.27.16-.26.39a3.52 3.52 0 0 0-.59.66 9.49 9.49 0 0 1-1.12 1.44 9.2 9.2 0 0 1-1.12 1.44 1.58 1.58 0 0 1-.52.72 2.06 2.06 0 0 1-.52.72 19.53 19.53 0 0 1-2.49 2.56 16.53 16.53 0 0 1-2.69 2.36 8 8 0 0 0-1.18.52 10.37 10.37 0 0 1-3 .46 13.68 13.68 0 0 1-2-.46c-.59-.22-1.09-.52-1.71-.72a7.59 7.59 0 0 1-1.93-1.69 10.81 10.81 0 0 1-.92-3.08 10.93 10.93 0 0 1 .07-1.57 39 39 0 0 1 4.72-11.08c.49-.82 1-1.58 1.57-2.36a13.58 13.58 0 0 1 .85-1.12 3.71 3.71 0 0 0 .39-.59c.15-.18.31-.34.46-.52.55-.76 1.15-1.47 1.71-2.23a3.85 3.85 0 0 0 .85-1.12 3.35 3.35 0 0 0 .79-1.18c-.19-.56-.79-.7-1.18-1-.71-.14-1.32-.39-2-.52a12.29 12.29 0 0 0-1.25-.07c-.23-.18-.91 0-1-.07s-.23.34-.39.46a3.48 3.48 0 0 0-.33.46 10.7 10.7 0 0 0-.59 1 21.94 21.94 0 0 0-1.31 1.9c-.48.6-.78 1.36-1.25 2-.3.77-.81 1.33-1.11 2.1-.82 1.32-1.6 2.68-2.43 4-.42.65-.77 1.38-1.25 2a11.18 11.18 0 0 1-.59 1 3.65 3.65 0 0 1-.66.92A30 30 0 0 1 92.87 48a35.44 35.44 0 0 1-3 3.48 21.74 21.74 0 0 1-3.41 3 9.27 9.27 0 0 1-4.72 1.64 7.34 7.34 0 0 1-1.74-.3 12.42 12.42 0 0 0-1.16-.82 9.29 9.29 0 0 0-1-1.11c-.27-.41-.51-.85-.79-1.25a11.36 11.36 0 0 1-.46-3.94c-.14-.2-.24.19-.33.26s-.16.27-.33.33c-.13.33-.42.5-.59.79a.71.71 0 0 0-.33.39c-.1.12-.34.1-.33.33-.22 0-.28.2-.39.33s-.33.1-.33.33c-.58.34-.93.91-1.51 1.25s-1.07.73-1.51 1.18a22.65 22.65 0 0 1-2.75 1.25 14.48 14.48 0 0 1-3.21.79 8.88 8.88 0 0 1-2.3-.59c-.4-.26-.77-.54-1.18-.79a7.4 7.4 0 0 1-2.36-5.77c-.12-.12-.2 0-.26.13-.22 0-.22.13-.33.2-.29 0-.31.34-.59.39-.38.3-.79.57-1.18.85s-.79.56-1.25.79-.92.44-1.25.79a42.63 42.63 0 0 1-5.57 2.49c-.18.17-.52.18-.79.26a1.77 1.77 0 0 1-.79.2 7.57 7.57 0 0 1-1.71.33c-1.23.21-2.34 0-3.41.07-.27-.15-.41-.06-.79-.13a3.53 3.53 0 0 1-.79-.2 3.27 3.27 0 0 1-1.57-.46A21 21 0 0 1 36 53.33c-.3-.42-.85-.59-1.25-.92-.14-.23-.4-.34-.52-.59s-.39-.31-.46-.59a1.44 1.44 0 0 1-.46-.66c-.1-.25-.33-.37-.39-.66a5.24 5.24 0 0 1-.59-1.57 5.55 5.55 0 0 1-.46-1.71 8.82 8.82 0 0 1-.13-1.9A10.49 10.49 0 0 1 32.2 41a16.2 16.2 0 0 1 1-3.28 18.54 18.54 0 0 1 1.44-2.89 9.21 9.21 0 0 1 .79-1.38c.33-.39.48-1 .85-1.31a2.33 2.33 0 0 1 .46-.66c0-.21.18-.17.2-.33s.08-.27.26-.26a4.45 4.45 0 0 1 .92-1.25c.08-.29.36-.38.46-.66s.3-.4.46-.59c.35-.37.72-.72 1-1.11.75-.69 1.58-1.3 2.3-2s1.54-1.35 2.36-2a8.58 8.58 0 0 1 1.18-1c.19-.17.39-.37.59-.52a3 3 0 0 1 .66-.39 4.67 4.67 0 0 1 1.25-.92 5.43 5.43 0 0 1 1.31-.85 24.8 24.8 0 0 1 2.85-1.6c.53-.19.93-.51 1.44-.72a5.52 5.52 0 0 0 .79-.33c.21-.14.69 0 .79-.26 1.14-.3 2.3-.59 3.41-.92a36 36 0 0 1 4.2-.13 6.94 6.94 0 0 1 2.43.59 7.59 7.59 0 0 1 2 1 3.1 3.1 0 0 1 .52.72c0 .36.49.3.59.59 0 .14.14.21.2.33s0 .39.2.33c.14.21.35.35.39.66a3.52 3.52 0 0 1 .5 1.53 9.94 9.94 0 0 1 .13 3.74 15.45 15.45 0 0 1-.92 3.21c0 .32-.25.45-.33.72s-.14.52-.33.66c-.16.51-.54.81-.72 1.31-.61.62-1.11 1.34-1.77 1.9a21.9 21.9 0 0 1-2 1.57 12.34 12.34 0 0 0-1.51.59c-.57.13-1.16.24-1.71.39a3.34 3.34 0 0 0-.92-.07 5.84 5.84 0 0 1-3-1.64c-.32-.07-.38-.41-.72-.46a3.22 3.22 0 0 0-.59-.59c-.32-.07-.39-.39-.59-.59a.82.82 0 0 1-.33-.79c.78 0 1.17.4 2 .33a3.16 3.16 0 0 0 1.44-.79c.08-.06.19-.07.26-.13a3.63 3.63 0 0 1 .39-.33 1.28 1.28 0 0 0 .26-.26 9.64 9.64 0 0 0 .92-1A24 24 0 0 0 62.7 26a12.72 12.72 0 0 0 1.71-4.46 9.39 9.39 0 0 0-3.08 1.71c-1 .6-1.88 1.27-2.82 1.9-1.9 1.25-3.57 2.73-5.38 4.07-.41.38-.87.7-1.25 1.11-.32.07-.39.4-.66.52a2.27 2.27 0 0 0-.59.59c-.3.1-.4.38-.66.52s-.45.33-.52.66a2.45 2.45 0 0 0-.59.59c-.25.14-.38.41-.59.59l-2.1 2.62c-.26.53-.65.92-.92 1.44s-.54 1-.92 1.44c-.17.66-.51 1.16-.66 1.84s-.32 1.34-.52 2a16.4 16.4 0 0 0-.07 4.66 11.23 11.23 0 0 1 .33 1.12 13.31 13.31 0 0 0 .72 1.25c.29.32.68.55 1 .85a7.24 7.24 0 0 0 2 .59 2.49 2.49 0 0 0 1-.26c.34-.1.67-.15 1-.26.61-.22 1.16-.52 1.77-.72 1.2-.48 2.27-1.1 3.41-1.64.46-.39 1.05-.65 1.51-1 .33-.08.5-.33.79-.46a7.89 7.89 0 0 0 .72-.52c.56-.27 1-.68 1.51-1s1-.66 1.44-1a17.58 17.58 0 0 1 .79-1.9c.17-.05.18-.27.26-.39s.12 0 .13-.07 0-.1 0-.13.12 0 .13-.07 0-.1 0-.13.12 0 .13-.07 0-.1 0-.13.12 0 .13-.07.18-.35.26-.52c.87-.9 1.46-2.08 2.3-3 .3-.6.78-1 1.12-1.57s.84-.91 1.25-1.38a35.27 35.27 0 0 1 2.75-2.49c1-.74 2-1.5 3.15-2.16a10.7 10.7 0 0 1 1.64-1c.25-.18.55-.32.79-.52s.5-.38.85-.46a15.91 15.91 0 0 1 1.71-1 17.59 17.59 0 0 1 1.84-.79 11.41 11.41 0 0 1 4.13-1.11 5.82 5.82 0 0 1 1.77.26c.3 0 .38.23.66.26s.43.14.52.33c.45.12.6.54 1 .66 0 .35.39.4.46.72s.26.53.46.72a9.61 9.61 0 0 1 .33 1.64v.13a7.27 7.27 0 0 1-.59 2c-.28.58-.7 1-1 1.57.76-.55 1.3-1.32 2-1.9.21-.44.65-.66.92-1 .13-.2.33-.33.46-.52s.2-.45.39-.59c.25 0 .34 0 .52.2s.39.18.52.33a3.28 3.28 0 0 1 1 .72 3.35 3.35 0 0 1 .92.79 3.28 3.28 0 0 1 .66 1A6.86 6.86 0 0 1 93.4 35c-.19.12-.24.37-.46.46 0 .29-.3.27-.33.52-.35.22-.49.64-.85.85-.18.41-.59.59-.79 1a6.62 6.62 0 0 1-.85.92 9.19 9.19 0 0 1-.79 1c-.2.36-.54.59-.72 1a24.69 24.69 0 0 0-1.44 2.1 3.77 3.77 0 0 0-.66 1.12 4.05 4.05 0 0 0-.66 1 11.35 11.35 0 0 0-1.12 2.43c-.25.34-.28.9-.52 1.25 0 .48-.44.86-.26 1.31.15.28.7.05.92 0a3.05 3.05 0 0 0 .79-.33 9.53 9.53 0 0 0 1.34-.89 47.16 47.16 0 0 0 4-4.59 6.83 6.83 0 0 0 1-1.25c.37-.33.55-.85.92-1.18.47-1 1.18-1.66 1.64-2.62.65-.77 1-1.87 1.64-2.62.05-.32.27-.47.39-.72s.28-.42.33-.72a4.91 4.91 0 0 0 .79-1.31c.24-.48.56-.88.79-1.38a7 7 0 0 0 .67-1.35c.38-.34.49-1 .85-1.31.17-.52.55-.85.72-1.38a3.38 3.38 0 0 0-1.57-.13 35.89 35.89 0 0 1-4.86-.18 2.49 2.49 0 0 1 .39-1c.16-.31.35-.61.52-.92s.33-.63.46-1 .24-.68.52-.85a34.11 34.11 0 0 1 4 0 23.64 23.64 0 0 1 2.82-.07 11.83 11.83 0 0 0 .79-1.71 6.54 6.54 0 0 0 .46-.79c.14-.28.15-.68.46-.79a1.35 1.35 0 0 1 1 .46c.35.18.58.47.92.66a7.52 7.52 0 0 1 1.77 1.38c.15.33-.17.57-.2.92.45.05.87.14 1.31.2s.92.24 1.25.13c0 .25.48 0 .59.2.29 0 .37.11.66.07.29.21.81.19 1 .46a9.45 9.45 0 0 1 1.9 1.11c.5.49 1 .93 1.51 1.44.07.13.11.28.26.33.18.43.36.86.52 1.31a12.88 12.88 0 0 1 0 3.54 8.78 8.78 0 0 1-.39 1.51c-.1.52-.34.88-.46 1.38-.45.79-.73 1.77-1.18 2.56-.12.52-.56.71-.66 1.25a6.93 6.93 0 0 0-.72 1.11 13.57 13.57 0 0 0-.61 1.11c-.19.42-.54.68-.72 1.11 0 .3-.27.39-.33.66s-.19.42-.39.52a4.7 4.7 0 0 1-.59 1.25 15.75 15.75 0 0 0-1.9 5.57 2.22 2.22 0 0 0 1.18 1.71 2.14 2.14 0 0 0 1.18-.13A6.69 6.69 0 0 0 113 52a44.52 44.52 0 0 0 3.48-4.53c.61-.73 1.15-1.52 1.77-2.23S119.4 43.67 120 43a34.41 34.41 0 0 1 2.3-7.35c.95-2.27 2.37-4.05 3.34-6.3 1.13-1.34 1.76-3.18 2.89-4.53.43-.8 1-1.47 1.44-2.23s1-1.47 1.57-2.1c1-1.45 2.08-2.82 3.08-4.26.53-.7 1.06-1.39 1.64-2 .28-.34.59-.63.85-1a1.82 1.82 0 0 0 .46-.46c.08-.22.36-.25.39-.52 1.23-1.24 2.42-2.52 3.74-3.67a30 30 0 0 1 4.07-3.28 32.18 32.18 0 0 1 9.54-5.23c.11 0 .11-.06.2-.07.28 0 .68-.06.85.07.37 0 .41.33.72.39 0 .22.24.11.26.26s.12.23.33.2c.31.66 1 .94 1.31 1.57a7.84 7.84 0 0 1 1.31 1.57c0 .55.24.94.26 1.51 0 .41-.17.62-.13 1a10.47 10.47 0 0 1-1.18 1.9c-.34.66-.89 1.12-1.25 1.77a4.87 4.87 0 0 0-.72.85 1.65 1.65 0 0 0-.33.46c-.09.15-.28.2-.33.39-.48.53-.95 1.06-1.38 1.64-1.06 1-1.82 2.25-2.89 3.21a39.39 39.39 0 0 1-2.89 3.21 5.07 5.07 0 0 1-.72.85c-.17.33-.51.49-.66.85-.54.46-.9 1.11-1.44 1.57s-.92 1.14-1.44 1.64a14.29 14.29 0 0 1-1.51 1.51c-1 1.07-2.12 1.94-3.15 3-.59.42-1.15.86-1.71 1.31s-1.26.75-1.84 1.18a7.23 7.23 0 0 1-2.23.66c-.46.06-.65-.2-.95-.36zm2.1-4.2c-.1 0 0 .08 0 0a.18.18 0 0 0 .2-.13c.33-.13.5-.42.79-.59a4.68 4.68 0 0 0 .66-.66 13 13 0 0 0 1.38-1.31c1-.82 1.82-1.72 2.69-2.62a35.09 35.09 0 0 0 2.56-2.82c.91-.86 1.75-1.8 2.62-2.69s1.72-1.86 2.56-2.82a11.84 11.84 0 0 0 1.25-1.44c.37-.51.83-.92 1.18-1.44s.81-1 1.25-1.44.81-1 1.11-1.57a12.43 12.43 0 0 0 1.12-1.57 2.29 2.29 0 0 0 .43-.91c.22-.21.28-.59.46-.85-.13-.13-.27.12-.46.13 0 .17-.37.06-.39.26-.31.13-.55.32-.85.46a3.52 3.52 0 0 1-.85.52c-.15.28-.55.33-.72.59a30 30 0 0 0-2.82 2.56c-.23 0-.21.27-.39.33s-.21.23-.33.33a8.58 8.58 0 0 0-.59.72c-.43.47-.86.93-1.31 1.38-.77 1-1.64 1.94-2.43 3s-1.63 2-2.49 2.89-1.67 1.92-2.36 3c-.43.47-.72 1.08-1.11 1.57a8.62 8.62 0 0 0-1 1.64 11.53 11.53 0 0 0-1 1.64 12.51 12.51 0 0 0-1 1.71c-.16 0-.15.12-.16.12zm-51 1.31c-.08 0-.09.08-.2.07-.52.16-1 .38-1.51.52a3.72 3.72 0 0 1-.66.39c-.23.14-.43.31-.66.46s-.46.25-.66.39-.17.19-.26.26-.29.09-.33.26a14.45 14.45 0 0 0-2.36 2c-.25.1-.31.39-.59.46-.14.24-.39.35-.52.59a6.9 6.9 0 0 0-1.12 1c-.76.7-1.34 1.59-2.1 2.3a11 11 0 0 1-1 1.18c.07.24-.25.1-.2.33-.12.06-.11.24-.26.26a3 3 0 0 0-.46.66c-.69.77-1.2 1.73-1.84 2.56A18.66 18.66 0 0 0 68.74 46a12.69 12.69 0 0 0-.85 3.54v1.44c.2.67.22 1.52.92 1.71a3.85 3.85 0 0 0 1.77-.79 4.4 4.4 0 0 0 .72-.52c.27-.17.41-.47.72-.59a1.56 1.56 0 0 1 .59-.66c.12-.32.46-.42.59-.72.39-.46.77-.93 1.18-1.38.14-.28.42-.41.52-.72.2 0 .2-.23.26-.39s.14-.3.33-.33a15.63 15.63 0 0 0 1-1.51c.9-.82 1.45-2 2.36-2.82.29-.56.79-.91 1-1.51.41-.45.69-1 1.12-1.44a9.26 9.26 0 0 1 1-1.57c.24-.62.71-1 .92-1.64s.72-1 1-1.51a13.48 13.48 0 0 0 1-1.51 10.36 10.36 0 0 0 1-1.51 2.5 2.5 0 0 0 .46-1.9 2.87 2.87 0 0 0-1.41-.35zm79.49 1a12 12 0 0 0-3.21.85c-.87.5-1.68 1.07-2.49 1.64a36.31 36.31 0 0 0-2.56 2.82 28.41 28.41 0 0 0-2.49 3 1.92 1.92 0 0 0-.59.72 2.39 2.39 0 0 0-.59.79 14.84 14.84 0 0 0-1.18 1.51c-.35.55-.72 1.08-1 1.64-.18.28-.34.58-.52.85s-.27.65-.59.79c0 .39-.22.53-.33.79s-.27.52-.33.85a6 6 0 0 0-.59 1.71 6 6 0 0 0-.39 1.9c.07.48 0 1.49.33 1.9a1.84 1.84 0 0 0 1.51.39 8.23 8.23 0 0 0 1.51-.92 6.28 6.28 0 0 0 1.31-1.12 18.29 18.29 0 0 0 2.56-2.3c.87-.75 1.55-1.69 2.36-2.49.35-.46.73-.89 1.11-1.31a15.3 15.3 0 0 0 1-1.38c.21 0 .14-.25.33-.26a2.94 2.94 0 0 1 .26-.33 4.4 4.4 0 0 1 .52-.72c.36-.44.7-.92 1-1.38l2.1-2.75a15.39 15.39 0 0 0 .85-1.57c.32-.49.55-1.07.85-1.57s.49-1.13.72-1.71a6.8 6.8 0 0 0 .39-1.9 3.65 3.65 0 0 0-1.81-.45z"/><path d="M115.56 69.27c.33.15.62-.3 1-.33a2.62 2.62 0 0 1 1-.39c.63-.31 1.44-.45 2.1-.72a21.15 21.15 0 0 1 5.12-.52c.87.13 1.73.28 2.56.46.25.25.73.27 1 .52s.53.43.85.59a12.67 12.67 0 0 1 2.43 3.67 11.13 11.13 0 0 1 .92 5.18 13.92 13.92 0 0 1-.66 3.15 7.91 7.91 0 0 1-.52 1.38c-.22.09-.11.5-.33.59 0 .27-.23.38-.26.66-.48.79-1 1.55-1.51 2.3-.37.26-.53.73-.85 1-.16.46-.55.67-.72 1.12a17.52 17.52 0 0 1-3.94 3.61 10.5 10.5 0 0 1-2.43 1.31 21.67 21.67 0 0 1-2.75 1 33.8 33.8 0 0 1-4.72.39c-.81 0-1.58-.12-2.36-.2s-1.29-.38-2-.46c-.73-.38-1.61-.62-2.3-1s-1.31-.88-2-1.25c-.31-.3-.5-.72-.92-.92a6.72 6.72 0 0 0 .66 2.3c.34.51.69 1 1 1.51.2.21.33.5.59.66s.47.36.52.72c.15 0 .28.07.33.2.52.49 1.22.79 1.77 1.25a4.33 4.33 0 0 1 1.18.52 4.58 4.58 0 0 1 1.31.39c1.06.09 1.65.35 2.75.46a3.69 3.69 0 0 0 1.38.13c.42 0 .75 0 1.31.07s1.29 0 1.57-.13c.38.07.52-.09.79-.13s.52-.09.79-.13c1-.22 1.87-.58 2.82-.85a11.64 11.64 0 0 1 1.44-.85 15.68 15.68 0 0 0 1.25-1c.2-.2.51-.28.66-.52s.4-.34.66-.46a3.48 3.48 0 0 1 1.25-1c.14-.32.49-.42.66-.72a1.12 1.12 0 0 1 1-.33c.47.12.29.89.52 1.25 0 1.17-.3 2.1-.33 3.28a5.51 5.51 0 0 0-.26 1.84 9.57 9.57 0 0 0-.72 1.77 20.06 20.06 0 0 0-1 2 13.56 13.56 0 0 1-2.69 2.62 17.42 17.42 0 0 1-3.67 1.57 24.91 24.91 0 0 1-4.46.72 19.25 19.25 0 0 1-4.72-.26 13.22 13.22 0 0 1-2.23-.46 7.68 7.68 0 0 1-2-.66 10.79 10.79 0 0 1-1.77-.85 7.15 7.15 0 0 1-1.51-1.12 10 10 0 0 1-1.38-1.31 7.8 7.8 0 0 1-1.12-1.51c-.28-.16-.29-.59-.52-.79 0-.41-.35-.52-.33-1a1.67 1.67 0 0 1-.39-.92 7.44 7.44 0 0 1-.33-1c0-.81-.24-1.77-.26-2.69a6.72 6.72 0 0 0 0-1.25 7.78 7.78 0 0 0 .13-1.31c0-.16.11-.3.13-.46s0-.46 0-.72-.17.17-.26.2c0 .19-.15.2-.13.39a3.61 3.61 0 0 0-.46.66c-.18.54-.54.9-.72 1.44s-.51.94-.79 1.38-.47 1-.66 1.51c-.18.19-.15.6-.39.72s-.12.63-.26.85c-.2.47-.49 1.08-.59 1.44a11.63 11.63 0 0 0-.52 1.64c-.24.48-.26 1.18-.52 1.64a6.85 6.85 0 0 1-.2 1.44c-.09.43 0 1.07-.26 1.31-.66 0-.73-.49-1.11-.72a3.17 3.17 0 0 0-.85-1c-.19-.44-.57-.7-.72-1.18a5.44 5.44 0 0 1-.92-1 9 9 0 0 1-1-4.53c-.28-.06-.19.25-.39.26a.92.92 0 0 0-.33.33 4.37 4.37 0 0 0-.66.59c-1.05.57-1.88 1.36-2.89 2a5 5 0 0 0-.79.46c-.2.2-.56.22-.72.46-.34.05-.48.31-.85.33-.13.26-.57.22-.72.46a20.09 20.09 0 0 1-3.74 1.11 11.89 11.89 0 0 1-4.2.33c-.82-.19-1.67-.34-2.43-.59s-1.57-.44-2.3-.72a2.12 2.12 0 0 0-.72-.46 9.49 9.49 0 0 0-1-1 10.25 10.25 0 0 1-1.38-2.56c-.2-.19-.22.22-.39.26 0 .21-.25.23-.26.46-.23.27-.57.43-.79.72-.43.55-1.08.88-1.51 1.44-.25.25-.59.41-.85.66s-.56.4-.92.52a8.06 8.06 0 0 1-2.23.72 8.15 8.15 0 0 1-2-.2c-.18-.19-.5-.24-.72-.39a2.18 2.18 0 0 0-.79-.33c-.11-.35-.52-.4-.66-.72-.28-.16-.36-.51-.66-.66a3.38 3.38 0 0 0-.39-.79 15.44 15.44 0 0 1-.59-2.23 13.53 13.53 0 0 1 .2-2.82c-.1-.2-.23.11-.26.2s-.26.14-.26.33a2.68 2.68 0 0 0-.52.66 16.12 16.12 0 0 0-1 1.38l-.59.59c-.07.32-.4.39-.52.66-.35.43-.73.85-1.12 1.25a33 33 0 0 1-2.36 2.36c-.91.65-1.87 1.23-2.82 1.84a9 9 0 0 1-4.59.85 6.16 6.16 0 0 1-2.36-.92 7.28 7.28 0 0 0-.92-.92c-.27-.34-.48-.74-.79-1a9.88 9.88 0 0 1-.52-1.25c-.26.12-.36.38-.52.59a2.15 2.15 0 0 0-.46.59 4.68 4.68 0 0 0-.52.59 2.4 2.4 0 0 0-.46.59 22.85 22.85 0 0 1-2.16 2.1 12.07 12.07 0 0 1-2.56 1.77 10.88 10.88 0 0 1-3.21 1c-.85 0-1.15.09-2 .07a18.75 18.75 0 0 0-1.9-.26c-.7-.31-1.38-.63-2-1a5.79 5.79 0 0 0-.79-.66 9.67 9.67 0 0 1-1.25-2.16 12 12 0 0 1-.52-2.89 28.18 28.18 0 0 1 .46-3.74c.36-1.1.58-2.35 1-3.41a12 12 0 0 0 .59-1.64c.27-.47.47-1 .72-1.51.08-.29.25-.5.33-.79s.34-.4.33-.79a10.24 10.24 0 0 0 .72-1.44c.18-.2.2-.54.39-.72s.27-.47.33-.79c.26.06 0-.37.26-.33 0-.21.09-.26.13-.39s.27-.48.39-.72a10.55 10.55 0 0 0 .79-1.44 4.2 4.2 0 0 0 .79-1.38c.3-.44.45-1 .72-1.51a15.57 15.57 0 0 1 .72-1.44c.32-.42.43-1.06.72-1.51 0-.39.27-.48.26-.85a2.52 2.52 0 0 0 .2-.85 4.92 4.92 0 0 0-2.16.26c-.75.32-1.47.68-2.16 1a8 8 0 0 0-.92.66c-.35.18-.55.5-.92.66-1.14 1-2.12 2.08-3.21 3.08-.47.58-1 1.12-1.44 1.71a21.43 21.43 0 0 1-1.44 1.71c-.88 1.22-1.8 2.39-2.69 3.61a8.1 8.1 0 0 1-.72.92c-.06.47-.46.59-.59 1s-.37.68-.66.92-.36.69-.66.92c-.1.42-.46.59-.59 1s-.42.63-.59 1c-.39.66-.81 1.28-1.18 2s-.65 1.45-1 2.1c-.1.42-.36.69-.46 1.12a1.08 1.08 0 0 0-.13.26c0 .06-.16.14-.13.26-.15.12-.13.4-.2.59-.27.26-.27.78-.46 1.12a.67.67 0 0 0-.2.59c-.21.12-.17.29-.13.52-.38.67-.35 1.75-.79 2.36-1-.13-1.48-.7-2.3-1-.38-.56-1-.92-1.38-1.44a2.61 2.61 0 0 0-.33-.72A13 13 0 0 1 0 100c.21-.72.2-1.29.39-2a10.31 10.31 0 0 1 .52-1.9c.24-1.38.79-2.45 1.12-3.74a3.09 3.09 0 0 0 .33-.92c.14-.06.11-.29.2-.39s-.06-.45.2-.39a14 14 0 0 1 .66-1.77c.52-1.09.91-2.32 1.51-3.34a4.25 4.25 0 0 1 .39-1.25c-.05-.31.23-.29.2-.59s0-.48.26-.52a22.12 22.12 0 0 1 1-2.23c.7-1.44 1.44-2.85 2.23-4.2s1.62-2.67 2.43-4c.51-.56.87-1.27 1.38-1.84.16-.39.52-.57.66-1 .32-.21.42-.63.72-.85a9.1 9.1 0 0 1 .72-.92 8.71 8.71 0 0 1 .66-.92c.12-.16.21-.36.33-.52s.19-.34.33-.46c.35-.17.3-.75.72-.85.33-.74 1-1.18 1.31-1.9.55-.52.94-1.2 1.51-1.71a11.69 11.69 0 0 1 1.51-1.71c.23-.32.56-.54.79-.85a10.61 10.61 0 0 0 .72-.85c.58-.49 1-1.12 1.57-1.64s1-1.13 1.57-1.64c.32 0 .56-.14.85-.2a1.66 1.66 0 0 1 1.12.52 2 2 0 0 1 .85.72c.36.17.45.59.79.79.15.38.46.59.59 1 .07 1.42-.65 2.06-.85 3.21-.21.16-.22.53-.46.66a1.33 1.33 0 0 1-.33.72c-.07.17-.11.37-.33.39 0 .29-.21.27-.26.46a2.81 2.81 0 0 0-.59.79c-.28.18-.4.52-.66.72s-.22.26-.33.39-.27.16-.26.39a12.61 12.61 0 0 0-1.25 1.51 12.63 12.63 0 0 1-1.25 1.51c-.12.36-.45.51-.59.85s-.32.6-.59.79c-.38.54-.78 1.06-1.12 1.64s-.7 1.13-1 1.71c-.17.29-.28.64-.46.92a3.93 3.93 0 0 0-.52.85c.1.13.25-.22.46-.2.08-.18.26-.26.39-.39.31-.21.62-.43.92-.66a20.34 20.34 0 0 1 1.9-1.25 4.34 4.34 0 0 0 1-.52 4.86 4.86 0 0 0 1.09-.42 20.54 20.54 0 0 1 2.62-.52 16.75 16.75 0 0 1 3.21.2c.52.29 1.16.46 1.71.72a3.7 3.7 0 0 0 .85.66c.21.29.51.49.72.79a9.14 9.14 0 0 1 1.11 1.9 18.23 18.23 0 0 1 .46 3.74 18.82 18.82 0 0 1-.58 3.51c-.13.57-.37 1-.46 1.64a1.54 1.54 0 0 0-.26.79 1.1 1.1 0 0 0-.33.72c-.3.4-.31 1.09-.66 1.44-.13.55-.43.92-.59 1.44-.87 1.91-1.75 3.8-2.62 5.71a23.1 23.1 0 0 0-1.84 6.36 7.1 7.1 0 0 0 .13 1.11c0 .09.12.1.13.2s.19.23.33.33a3.63 3.63 0 0 0 1.25.59 4.49 4.49 0 0 0 1.38-.13c2-.76 3.12-2.3 4.33-3.8a14.27 14.27 0 0 1-.39-2.75 12.42 12.42 0 0 0 .07-1.51 18.19 18.19 0 0 1 1.12-4.66c.21-.76.58-1.34.79-2.1s.61-1.27 1-1.84a27.35 27.35 0 0 1 2.3-3.41 39.4 39.4 0 0 1 2.49-3.21c.91-1 1.89-2 2.89-2.89.22 0 .19-.29.39-.33s.18-.3.39-.33a4.12 4.12 0 0 1 .79-.66c.28-.2.56-.41.85-.59s.61-.31.79-.59c.6-.36 1.16-.76 1.77-1.11a5 5 0 0 0 .92-.52 3.4 3.4 0 0 0 .92-.46 21.83 21.83 0 0 1 4.53-1.18H59c.62.11 1.2.24 1.77.39a1.88 1.88 0 0 0 .79.46 1.36 1.36 0 0 0 .46.59c.15.17.18.48.39.59q.45.54.85 1.11c.23.42.57.74.79 1.18.1.23.35.31.39.59a2.16 2.16 0 0 0 .33.66c.28-.11.31-.47.59-.59a2.83 2.83 0 0 1 .52-.59A6.68 6.68 0 0 1 67 74.51a3.19 3.19 0 0 1 1.31.66c0 .3.25.4.46.52s.31.35.52.46c.34.32.67.64 1 1a3.19 3.19 0 0 1 .39.59c.14.17.41.2.46.46a2.29 2.29 0 0 1-.79 1.31c-.21.49-.56.84-.79 1.31-.64.75-1.17 1.63-1.84 2.36a18.61 18.61 0 0 0-1.77 2.43 4.38 4.38 0 0 0-.85 1.25c-.38.32-.49.91-.85 1.25-.48.92-1 1.76-1.57 2.62-.26.44-.5.9-.79 1.31a10.62 10.62 0 0 1-.79 1.31 15.67 15.67 0 0 0-1.18 3 7.12 7.12 0 0 0-.33 3.54c1.2.44 2.26-.3 3.15-.59a20 20 0 0 0 4.46-4.13 7.11 7.11 0 0 1 .26-2.49 6.35 6.35 0 0 1 .72-2.1 10 10 0 0 1 .79-2 14.9 14.9 0 0 1 1-1.84 37.32 37.32 0 0 1 2.16-3.48c.78-1.1 1.62-2.14 2.43-3.21.34-.38.69-.75 1-1.12l.52-.52c.09-.09.11-.24.2-.33s.24-.11.33-.2a21.85 21.85 0 0 1 2.16-2.1c.41-.53 1.06-.83 1.51-1.31.36-.12.53-.43.85-.59l.79-.59c.58-.36 1.19-.69 1.77-1 1.14-.74 2.57-1.19 3.8-1.84a25.16 25.16 0 0 1 4.13-.66 10.73 10.73 0 0 1 1.77.39 4.49 4.49 0 0 1 .59.66c.22 0 0 .4.26.39 0 .16.25.14.2.39.26.15.27.56.46.79s.34.49.39.85.55.41.72.72a15.13 15.13 0 0 1 1 2.43 10 10 0 0 1 .2 3C96 83.5 94.1 87 90.51 88.81a11.15 11.15 0 0 0-1.38.26 1.35 1.35 0 0 0-.59 0 5.31 5.31 0 0 1-1.44-.46c-.13-.2-.36-.3-.52-.46a1.4 1.4 0 0 0-.46-.46c-.24-.39-.72-.55-.92-1a5.93 5.93 0 0 1-.85-1c-.3-.31-.75-.47-.79-1 .5 0 .73.32 1.31.26a1 1 0 0 0 .66-.46 2.14 2.14 0 0 0 .59-.46c0-.19.19-.16.26-.26a.59.59 0 0 1 .26-.26 4.52 4.52 0 0 1 .46-.59 15.46 15.46 0 0 0 1.84-2.36A13.54 13.54 0 0 0 90.58 78a4.63 4.63 0 0 0 .39-.66c0-.32.29-.41.33-.72a10.55 10.55 0 0 0 .52-1.62 3 3 0 0 0-1.38.92 6.51 6.51 0 0 0-1.25 1c-.27.12-.41.38-.66.52A3.23 3.23 0 0 1 88 78c-.34.42-.86.67-1.18 1.12q-2.29 2.3-4.46 4.72c-.7.83-1.41 1.65-2.1 2.49a12.64 12.64 0 0 1-1 1.31 15.91 15.91 0 0 1-.95 1.36c-.54 1-1.15 1.91-1.64 3a17.5 17.5 0 0 0-1.11 3.41v1.57c0 .37.15.68.2 1a4 4 0 0 0 1.84 2.3 12.2 12.2 0 0 0 4.39-1 12.76 12.76 0 0 0 2.82-1.31 14 14 0 0 0 2.36-1.71c.58-.32.95-.84 1.51-1.18s.9-.93 1.38-1.38.77-1 1.18-1.51a17.45 17.45 0 0 1 1.11-1.64c.38-.52.73-1.07 1.12-1.57.12-.34.34-.58.46-.92s.27-.65.46-.92c.36-.54.51-1.28 1-1.71a5.79 5.79 0 0 1 .92-1.84 2.45 2.45 0 0 1 .52-.85c.25 0-.05-.25.13-.39s.17-.27.26-.39c.24-.68.72-1.11 1-1.77.39-.51.62-1.17 1-1.64.2-.72.77-1.07 1-1.77.47-.43.67-1.12 1.12-1.57a33.4 33.4 0 0 1 2.22-3.21c.44-.48.74-1.09 1.18-1.57.29-.61.77-1 1-1.64a11.85 11.85 0 0 0 1.26-1.62c.17-.29.45-.47.59-.79s.34-.54.59-.72.32-.59.59-.79.42-.5.66-.72c.33-.57.81-1 1.18-1.51.29-.17.38-.54.66-.72s.53-.39.59-.79a18.22 18.22 0 0 0 1.25-1.44c.43-.49.84-1 1.31-1.44.13-.33.42-.5.66-.72a2.37 2.37 0 0 1 .66-.66 4.4 4.4 0 0 1 .66-.72 1.74 1.74 0 0 1 .66-.72 8.67 8.67 0 0 1 1.19-1.43c.15.09.25-.17.26 0 .2 0 .43 0 .39.2.15 0 .28.07.33.2a3.62 3.62 0 0 0 .66.39c.07.17.24.24.26.46.28-.06.19.25.39.26 0 .39.47.4.59.72.32.12.42.45.66.66 0 .21.17.27.26.39s.2.24.2.46c0 .72-.42 1.11-.46 1.84-.22.55-.43 1.1-.66 1.64a14.82 14.82 0 0 1-1.7 2.78c-.08.31-.39.4-.46.72-.23.14-.27.47-.46.66-.31.45-.68.85-1 1.31a14.56 14.56 0 0 0-1 1.31c-.12.25-.36.39-.46.66-.23.12-.24.48-.49.61zm-9.31 16.27a3.82 3.82 0 0 0 1.71.13 12.85 12.85 0 0 0 3.74-.13 17.94 17.94 0 0 0 3.21-.92c.19-.16.6-.1.72-.33s.52-.18.72-.33a9.31 9.31 0 0 0 1.38-.72c.38-.29.93-.43 1.25-.79a8.7 8.7 0 0 0 1.25-.85c.9-.5 1.44-1.36 2.3-1.9.24-.44.66-.7.92-1.12s.57-.82.79-1.31a12 12 0 0 0 1.18-3v-.66a3 3 0 0 0-1.84-2.1 6 6 0 0 0-1.38-.07 17.91 17.91 0 0 0-4.39 1.31 25.09 25.09 0 0 0-3.67 2.1 13.31 13.31 0 0 0-1.64 1.25 10.86 10.86 0 0 0-1.64 1.25 17.39 17.39 0 0 0-1.57 1.31c-.28.2-.48.48-.79.66s-.57.39-.72.72a1.47 1.47 0 0 0-.39.66c-.17 0-.09.26-.26.26s0 .31-.2.33c-.24.46-.53.87-.79 1.31a7.91 7.91 0 0 0-.79 1.31 7.48 7.48 0 0 0-.79 1.31c.66-.01.99.33 1.69.31zm-45.06-8.86c-.08 0-.09.08-.2.07a5.1 5.1 0 0 0-1.38.39 4.32 4.32 0 0 1-1.25.59 4.29 4.29 0 0 1-1.18.79 7.49 7.49 0 0 1-1.12.85 4.21 4.21 0 0 1-1 .92c0 .17-.25.05-.2.26s-.26.09-.26.26a.84.84 0 0 0-.52.52c-.09.07-.24.06-.26.2s-.25.1-.33.2c-.06.26-.29.37-.46.52s-.39.27-.46.52c-.12.06-.11.24-.26.26s-.31 0-.26.26c-.14 0-.06.24-.2.26s-.16.19-.26.26-.33.33-.46.52-.24.41-.46.52a3.62 3.62 0 0 0-.33.46s-.13 0-.13.13c-.55.76-1.21 1.41-1.71 2.23-.26.4-.54.77-.79 1.18-.2.13-.21.45-.39.59s-.29.41-.39.66a18.34 18.34 0 0 0-1.31 2.69 15.19 15.19 0 0 0-.89 3.21 7.38 7.38 0 0 0 .46 3.48 1.91 1.91 0 0 0 .81.52c.27.05.34-.1.59-.07 1.16-.5 1.64-1.68 2.56-2.43.11-.3.43-.4.52-.72.13-.07.1-.29.33-.26 0-.25.13-.31.2-.46a5.22 5.22 0 0 0 1-1.51c.33-.08.3-.53.59-.66a4.41 4.41 0 0 1 .46-.79c.19-.23.32-.51.52-.72s.27-.61.59-.72.3-.53.52-.72a4.89 4.89 0 0 0 .52-.72c.22-.2.32-.52.59-.66.11-.33.4-.47.59-.72a56.31 56.31 0 0 1 3-6c.24-.5.51-1 .72-1.51a4.1 4.1 0 0 0 .39-.72 2.32 2.32 0 0 0 .39-.79 12 12 0 0 0 .85-1.44 5.83 5.83 0 0 0 .66-1.64zM198.66 72.28c.21.15.62 0 .85 0s.69.07.79-.13c.32.08.67-.16.79-.07.36.05.45-.16.79-.13a23.09 23.09 0 0 1 3-.59c1-.38 2.14-.57 3.15-.92.57-.1 1-.38 1.51-.52a10 10 0 0 1 1.44-.59c.89-.47 1.89-.82 2.75-1.31.34 0 .38-.32.66-.39s.46-.19.66-.33a1.67 1.67 0 0 1 1.51-.46c.36.25.47.76.66 1.18a6.14 6.14 0 0 0-.07 1c.33 0-.05.12 0 .26s.15.18.07.26a4.85 4.85 0 0 0 0 1.12c0 .09.22.24.07.26a1.48 1.48 0 0 0 0 .72c-.24.21-.21.71-.59.79a2.38 2.38 0 0 1-.59.79c0 .11 0 .16-.07.2a3.78 3.78 0 0 0-.26.52c-.2.12-.25.4-.46.52-.23.43-.55.77-.79 1.18-.62.49-1.18 1-1.84 1.51a18 18 0 0 1-2 1.31 1.66 1.66 0 0 0-.59.26l-.59.26a4 4 0 0 1-1.18.46c-.28.29-.83.31-1.18.52l-1.31.33c-.45.12-.85.29-1.31.39s-.86.23-1.38.26a22.72 22.72 0 0 1-2.82.52c-1 .15-2 .27-2.89.33a14.11 14.11 0 0 0-1.57.13c0 .16-.19.16-.13-.07a.43.43 0 0 1-.33.07c-.12 0 0 .2-.2.07s-.17.09-.33.07c-1 0-1.9.09-2.62.13-.33.07-.34.44-.52.66a3.68 3.68 0 0 0-.46.72c-.26.5-.61.92-.85 1.44-.56 1-1 2.06-1.51 3.08a14.23 14.23 0 0 0-1.9 7.28 4.72 4.72 0 0 1 .2 1.31 14.1 14.1 0 0 0 .72 1.71 5.59 5.59 0 0 0 2.36 1.44 9.36 9.36 0 0 0 1.57.33 9.5 9.5 0 0 0 1.71.2 12.88 12.88 0 0 0 3.74-1.18 6.07 6.07 0 0 0 1.64-.79 2.29 2.29 0 0 0 .85-.39c.2-.2.56-.22.72-.46.27.05.25-.19.39-.26s.26-.14.39-.2a2.72 2.72 0 0 1 .72-.52.46.46 0 0 1 .39-.26 1.3 1.3 0 0 1 .33-.26 5.53 5.53 0 0 0 .66-.52c.44-.37.82-.79 1.25-1.18.22-.19.39-.44.59-.66s.27-.52.59-.59c.14-.52.53-.78.72-1.25a5.35 5.35 0 0 1 .72-1.18c0-.6.38-.88.46-1.44a4.24 4.24 0 0 1 .52-1.31c.43-.28.74-.69 1.44-.52 0 .24.34.14.26.46.09.15 0 .45.13.59-.1.64-.25 1.24-.33 1.9s-.4 1.08-.59 1.64c-.22.15-.22.52-.39.72a3.15 3.15 0 0 1-.39.72 9.46 9.46 0 0 1-.66 1.57 11.41 11.41 0 0 1-2 2.43c-.43.31-.72.77-1.18 1s-.83.61-1.18 1a25.38 25.38 0 0 1-5.77 3.15 28.93 28.93 0 0 1-7.28 1.57 39.21 39.21 0 0 1-5.18-.2 13.44 13.44 0 0 1-4.07-1.64 8.67 8.67 0 0 1-4.2-7.28c-.13-.17-.31.17-.39.26-.43.33-.75.78-1.18 1.12a10.66 10.66 0 0 1-1.64 1.44 26.6 26.6 0 0 1-3.48 2.69c-2.58 1.5-4.88 3.3-8.92 3.35a13 13 0 0 1-1.51-.26.32.32 0 0 0-.33-.13c-.64-.54-1.33-1-2-1.57-.18-.38-.52-.61-.72-1s-.4-.73-.66-1c-.25-.89-.68-1.6-1-2.43 0-.57-.17-.92-.2-1.44-.09-.15-.33.11-.39.2s-.22.26-.39.33c-.19.29-.53.43-.79.66-.51.45-1.09.83-1.57 1.31a7.82 7.82 0 0 0-.85.59 5.13 5.13 0 0 0-.79.66c-.61.33-1.1.78-1.71 1.11a18.33 18.33 0 0 1-8.53 2.89 11.37 11.37 0 0 1-4.33-.66c0-.12-.11-.15-.26-.13-.28-.33-.72-.51-1-.85s-.57-.61-.92-.85c-.14-.45-.54-.64-.66-1.12-.27-.3-.44-.69-.72-1a4.37 4.37 0 0 0-.52-1.38 24.5 24.5 0 0 1-.59-3.48 20.78 20.78 0 0 1 2.1-9c1.12-2.62 3-4.45 4.79-6.43a4.49 4.49 0 0 0 .72-.72c.17-.07.22-.26.39-.33s.07-.36.33-.33a19.46 19.46 0 0 1 1.44-1.38c1-.83 2.06-1.66 3.15-2.43.16-.08.22-.26.46-.26.08-.16.27-.21.39-.33a9.71 9.71 0 0 0 .85-.52c.62-.29 1.17-.66 1.84-.92a.82.82 0 0 1 .59-.13c0-.23.29-.19.46-.26a9.78 9.78 0 0 1 1-.39c.69-.23 1.52-.32 2.23-.52.82 0 1.62-.12 2.36-.07a5 5 0 0 1 1.51.33c.09 0 .07 0 .13.07s.08.07.07.07c.19.08.4.06.52.13s.18.2.26.26a6.6 6.6 0 0 1 .79.66 3.13 3.13 0 0 1 .26.79c.09.19.42.42.26.66a5.71 5.71 0 0 1 .72 1c.06.35.19.64.26 1s.25.54.39.79a6.16 6.16 0 0 0 .33.79 6.54 6.54 0 0 1 .13 2 6.36 6.36 0 0 1-.2 1 3.49 3.49 0 0 0-.26.92 20.65 20.65 0 0 1-4.66 6.3 22.9 22.9 0 0 1-3.08 2.43 15.12 15.12 0 0 1-3.41 2c-.54.07-1 .23-1.51.33a9.76 9.76 0 0 1-2.36-.2 1.77 1.77 0 0 0-.66-.39c-.34-.36-.64-.76-1-1.11-.23-.12-.27-.43-.46-.59a1.74 1.74 0 0 1-.52-.52 14.45 14.45 0 0 0-1.84 8c.09.53.34.89.46 1.38a3.48 3.48 0 0 0 2 1.64 9.25 9.25 0 0 0 2.23-.52 7.31 7.31 0 0 1 1-.39c.24-.2.67-.2.85-.46a8.2 8.2 0 0 0 1.77-1 11.47 11.47 0 0 0 1.57-1.12 18.74 18.74 0 0 0 1.57-1.18c.49-.4 1-.79 1.51-1.18q1.45-1.2 2.83-2.5a18.85 18.85 0 0 1 2-4.2c.88-1.2 1.76-2.39 2.62-3.61s1.74-2.41 2.75-3.48c.37-.68 1-1.12 1.38-1.77s1-1.1 1.44-1.64a27.25 27.25 0 0 1-5-4.2 3.36 3.36 0 0 1-.85-1c-.22-.09-.23-.38-.46-.46s-.22-.39-.33-.59c-.29-.32-.38-.85-.66-1.18a30.14 30.14 0 0 1-.92-4 2.74 2.74 0 0 1 .07-.79c-.11-.42 0-.69-.13-1a6.79 6.79 0 0 0-.07-1.18 8.75 8.75 0 0 0 0-1.64 16.89 16.89 0 0 0 0-2.1.81.81 0 0 0-.07-.2 3.72 3.72 0 0 0 0-.92 4.14 4.14 0 0 1 .46 1.64c.13.3.23 1 .39 1.51a5.84 5.84 0 0 0 .59 1.18c.11.46.49.65.59 1.11.21 0 .14.25.33.26a2.93 2.93 0 0 0 .26.33 3 3 0 0 0 .59.59c.38.39.84.69 1.25 1 .86.67 1.88 1.18 2.75 1.84s2.1 1 3.08 1.51a12.68 12.68 0 0 1 1.64.66 2.37 2.37 0 0 1 .85.33 2 2 0 0 1 .85.26c.38-.12.5-.51.72-.79a3.39 3.39 0 0 0 .59-.85c.2-.28.54-.42.66-.79a5 5 0 0 0 .66-.79 9 9 0 0 0 .66-.79c.31-.15.41-.51.66-.72.4-.54.81-1.07 1.18-1.64a2.59 2.59 0 0 0 .59-.85 1.88 1.88 0 0 0 .59-.79 2.94 2.94 0 0 0 .66-.79c.14-.32.47-.45.59-.79s.28-.68.59-.85.39-.53.59-.79c.05-.43.37-.59.52-.92a1 1 0 0 1 .26-.46c.13-.08.07-.37.26-.39.06-.42.38-.58.52-.92a1.23 1.23 0 0 1 .66-.72c.53 0 .58.42.92.59s.59.37.72.72a9.73 9.73 0 0 1 1.38 1.51 5 5 0 0 0 .33.85c0 .15-.13.34 0 .46a15 15 0 0 1-2.56 6.69 23.41 23.41 0 0 1-1.84 2.75 29.65 29.65 0 0 1-1.84 2.75 48.94 48.94 0 0 0 9.38.72c.23-.05.24-.33.46-.39 0-.24.28-.25.33-.46a5.84 5.84 0 0 0 .72-.85 14.13 14.13 0 0 0 1.58-1.66c.38-.16.47-.63.79-.85a3.6 3.6 0 0 1 .72-.85c.27-.28.39-.7.72-.92.17-.36.5-.54.66-.92.27 0 .23-.34.39-.46s.14-.38.39-.39c.16-.36.52-.53.66-.92.48-.59.88-1.26 1.31-1.9.35-.2.39-.71.72-.92a5.14 5.14 0 0 1 .59-1c.4-.65.71-1.39 1.12-2a4.46 4.46 0 0 1 .33-1.18c.05-.34 0-.55.13-.85s0-.72.26-.85c.15.09.25-.17.26 0 .16 0 .14.12.33.07a24.52 24.52 0 0 1 1.84 1.64 8.17 8.17 0 0 1 1.57 1.9v1.25a25.63 25.63 0 0 1-1 3.48 28.09 28.09 0 0 1-1.31 3.15c-.37 1.12-1 1.93-1.44 3s-1.15 1.86-1.7 2.8zm-47.42 5.44a5.33 5.33 0 0 1-.79.72 4.26 4.26 0 0 1-.79.72 13.3 13.3 0 0 1-1.51 1.57 4.62 4.62 0 0 0-.72.79 2.49 2.49 0 0 0-.72.79c-.5.53-1 1.06-1.44 1.64s-.83 1.18-1.38 1.64a19.14 19.14 0 0 0-1.25 1.84 3.43 3.43 0 0 0 1.44.33 7.8 7.8 0 0 0 3.61-1.84 23.6 23.6 0 0 0 3-2.49c.22-.24.52-.4.72-.66s.42-.5.72-.66c.46-.46.77-1.06 1.25-1.51a3.44 3.44 0 0 1 .52-.85c.18-.28.27-.65.46-.92a20.4 20.4 0 0 0 .79-2 5.47 5.47 0 0 0 .07-1.57h-.33c-1.55.5-2.44 1.64-3.65 2.47zm21.91 2.36c-.43.47-.66 1.13-1 1.64s-.66 1.18-1 1.77c-.65 1.18-1.31 2.36-1.9 3.61a40.79 40.79 0 0 0-3.15 7.8 13.44 13.44 0 0 0-.13 1.9c0 .71.08 1.32.59 1.51a1.61 1.61 0 0 0 .92-.33c.45 0 .61-.31 1-.33a18.65 18.65 0 0 0 1.77-1c.61-.31 1.08-.76 1.64-1.12s1-.87 1.51-1.25c.32-.6.9-.94 1.25-1.51a14.22 14.22 0 0 0 1.18-1.57c.32-.14.35-.57.59-.79s.33-.58.59-.79a19 19 0 0 1 1.12-1.62 18.28 18.28 0 0 1 1.51-3.15c.48-1.09 1.31-1.84 1.77-3-2.77-.59-5.53-1.21-8.13-2a.18.18 0 0 0-.13.24z"/><path d="M195.91 82s0-.08.07-.07-.05.07-.07.07zM196.1 82c0-.08.12-.06.2-.07s-.12.07-.2.07zM195.45 82.06c0-.06.08-.05.13-.07s-.08.01-.13.07z"/></g></svg>