<svg xmlns="http://www.w3.org/2000/svg" viewBox="0 0 387.88 347.65"><title>Carla Hackett</title><g id="dc27b67b-ed4e-41b3-b2e9-ce0d63ad28fc" data-name="Layer 2"><g id="7d11986d-b5b7-4688-836c-2a0ec7619459" data-name="Layer 1"><path d="M179.83,282.68H180c0-.12-.05-.13-.14-.14-.29-.21-.5-.49-.81-.68,0-.9-.6-1.3-.81-2,0-1-.89-1-.95-1.9-1.11-2.91-1.38-6.67-1.63-10.44,0-4.4-.3-7.12.14-11.12a108.5,108.5,0,0,1,.54-11c.21-3.07.49-7.16.81-10.85-.57-.21,0,.7-.41.68,0,.4-.31.42-.27.81-.34.43-.45,1.08-.81,1.49-.18,1.31-.87,2.12-1.08,3.39a23.35,23.35,0,0,0-1.22,3.25,31.19,31.19,0,0,0-1.22,3.39,45.9,45.9,0,0,0-2.58,6.51c-1,2-1.8,4.26-2.71,6.37-1.07,1.91-1.87,4.1-3,6s-2.26,3.8-3.39,5.7c-.16.57-.68.77-.81,1.36s-.83.71-.95,1.36c-.79.75-1.24,1.83-2,2.58a25.8,25.8,0,0,1-2,2.44c-.74.79-1.65,1.42-2.44,2.17-1.89.74-3.44,1.8-5.83,2-.87.14-1.15-.3-1.9-.27a16.29,16.29,0,0,1-5.29-.54c-.39-.38-.93-.6-1.36-.95-.64-.13-.86-.68-1.49-.81-.32-.54-.91-.81-1.36-1.22a50.37,50.37,0,0,1-3.93-5.29c-.2-.56-.69-.85-.68-1.63a2,2,0,0,1-.68-1.63c-.6-.17-.58-1-.81-1.49a5.42,5.42,0,0,1-.68-1.63c-.85-2.22-1.49-4.66-2.17-7.05s-.85-5.3-1.63-7.59c.08-1.62-.39-2.68-.41-4.2-.36,0-.46.36-.54.68a1.91,1.91,0,0,0-.68.68c-.32.53-.62,1.1-.95,1.63-.82.9-1.46,2-2.31,2.85a28.15,28.15,0,0,1-2.58,2.58,6.93,6.93,0,0,1-1.49,1.08c-.63.28-1,.81-1.76.95a6.28,6.28,0,0,1-2.58-1.22c-.54-.86-.89-1.91-1.36-2.85a53.72,53.72,0,0,1-.68-6.78c-1.17,4.48-2.58,8.72-3.66,13.29-.91,1.93-1.26,4.43-2.31,6.24a24.81,24.81,0,0,1-3,5.56,26.71,26.71,0,0,1-2.44,2,8.16,8.16,0,0,0-1.63.41c-1.63.11-3.12-.19-4.61,0,0-.48-.6.24-.54-.14a12.78,12.78,0,0,1-3.25-1.49A16,16,0,0,0,86,273.73c-.38-.84-1-1.45-1.36-2.31a20.58,20.58,0,0,0-1.22-2.58,24.21,24.21,0,0,0-.81-3.53c0-.77-.24-1.21-.14-2-.55-.33,0-1-.27-1.63-.24-2.44.1-5.64-.41-8.14a20.17,20.17,0,0,0-4.48.41c-.84,7-.89,16.54-1.22,23.87,0,8.72-.44,15.7-.81,24.28-.29,4.17-.28,7.85-.68,11.8-.11,3.72-.31,8.07-.81,11.8-.33,4.11-.93,7.28-.95,11.53-.24,1.5.06,3-.14,4.88a25.77,25.77,0,0,1,0,3c-.39.18-.28.86-.14,1.22-.46.08-.18.91-.54,1.08-.39.38-1.28.26-2,.27-.39-.32-1.5-.22-1.76-.27-.43.12-.42-.21-.54-.41s-.8.16-.81-.14a2.62,2.62,0,0,0-1.63-.27c.19-1-.3-1.23-.27-2,0-.43-.59-.22-.54-.68.12-1.16-.42-1.66-.27-2.85A3.93,3.93,0,0,0,64,339.5c-.22-.15.34-.65.14-1.22,0-3.07-.13-4.75-.14-8.27-.16-1.18.47-1.89.14-2.85.27-1.27-.06-4,.27-5.29.18-7.93.81-16.49.54-23.6-.07-.57.4-.6.27-1.22-.12-3.35.19-5.53.14-8.82.17-4.18.19-8.56.27-11.8,0-.12-.14-.29-.14-.41,0-.7.14-1.51.14-2.31,0-.45,0-.91,0-1.36.24-5.8-.2-10.77.41-16.54-2.5-.18-5.32.45-8,.54a239.43,239.43,0,0,0-23.87,2.44c-.43,2.84-.45,5.92-.68,9.22s-.3,6.45-.54,9.49c-.23,5.93-.9,11.73-1.22,18.44-.51,6.42-.88,12.48-.95,19-.27,3,0,5.77-.41,9,0,1.81-.23,3-.27,4.61a8.72,8.72,0,0,1-.27,2.31c.24,1.1-.51,1.21-.41,2.17a12.27,12.27,0,0,1-2,0c-.18.26-.6-.16-.95.14-.42,0-.77.32-1.08,0-1.62-.32-2-1.84-3-2.85-.36-1.59-.91-3-1.22-4.61-.05-4.64-.52-10.79-.41-15.46-.13-6.05.34-11.5.54-17.22-.1-.92.26-2.54.14-3.93.29-1.33.05-2.8.27-3.93q0-4.43.27-8.68c.22-5.4.52-11.21.68-16.54-1.82-.36-3.47-.06-5.56-.14-.26-.32-.69.32-.95,0H14.65c-.86.18-2,0-2.85.27a53.42,53.42,0,0,0-5.7.41,9.21,9.21,0,0,0-2,.14,12.6,12.6,0,0,1-1.36,0c-.13,0-.17.15-.27.14s-.1-.26-.14-.27-.17.15-.27.14-.36-.26-.68-.14c-.13-.37-.42-.58-.54-.95.39-.43-.37-.53-.68-.68,0-.17,0-.32.27-.27s.12-.33.14-.54-.51-.3-.54-.68c.45-.09,1-.15.95-.81.56-.12,1.11-.24,1.63-.41a10.79,10.79,0,0,1,1.36-.68c6.44-.75,13-1.41,19-2.58.45-1.64.2-3.61.27-5.56s.33-3.84.41-5.29a24.48,24.48,0,0,1,0-5.29c.1-1.86.07-3.73.27-5.15.3-8,.83-13.57.81-21.83A42.72,42.72,0,0,0,25,202.8c.31-1.79.29-3.95.54-6.1,0-2.44.27-4.52.41-6.78s0-4.31.14-6.78c.35-2.14.59-4.39,1.76-5.7a1.09,1.09,0,0,1,.81-.68c.09-.41.62-.38.81-.68.76-.28,1-1.09,2-1.08a1.66,1.66,0,0,1,1.22.54c.34.26.5.67.95.81.21,1.05.75,1.78.95,2.85a42.76,42.76,0,0,0,.14,5.42c-.08.5.42.79.14,1.08a1.42,1.42,0,0,0,.14,1.22,10.46,10.46,0,0,0,.27,2.85c0,4.19.51,7.69.14,11.39a9.06,9.06,0,0,1,.27,2c0,2-.15,2.54-.14,4.61-.1,1.92.16,3.38-.27,4.88a2.33,2.33,0,0,1,.27,1.36c-.14,4.51,0,8.78-.14,13-.1,2.72-.06,5.46-.27,8.41.15,1.1-.21,2.86-.14,4.34-.08,1-.15,2.53-.27,3.39.07,1.17-.2,2.36-.14,4.07,0,1.9,0,2.68-.14,4.07a23.55,23.55,0,0,0,3.93-.27c1.29-.21,2.74-.25,3.93-.54,2.75-.11,5-.64,8.14-.68,5.27-.74,11.55-.48,16-2,.41-10.58.29-21.65.81-32.28-.1-.78.32-1.29,0-1.9s.28-1.13,0-1.63c0-1.52,0-2.39.14-3.93-.11-2.47.24-5.47.27-7.87.5-5.47.81-11.1,1.22-16,.67-3.17,1.13-6.55,2-9.49.41-3.43,1.86-5.83,2.31-9.22.39-.19.48-.7.68-1.08a9.24,9.24,0,0,1,.81-1.08c.35,0,.47-.25.68-.41.59.19.29-.53.81-.41a.14.14,0,0,0,.27,0,6.2,6.2,0,0,1,2.17.41c.76,0,.57,1,1.22,1.09a5,5,0,0,0,.81,1.36c.23,1,.37,2.16.68,3.12a12.08,12.08,0,0,0-.14,2.44,24.91,24.91,0,0,0,.14,4.07,72.73,72.73,0,0,0-.81,8.14A23.89,23.89,0,0,0,80,187.2c-.26,1,0,2.67-.27,3.93a44.11,44.11,0,0,1-.27,4.48,10.4,10.4,0,0,0,.14,2.17c0,.71-.36,1.41,0,2.17-.55,3.4-.22,7.71-.68,10.85a46.21,46.21,0,0,1-.14,5.29,29.3,29.3,0,0,1,0,5.42c.13,1.26-.43,3.85-.14,4.88a4.34,4.34,0,0,0-.14,2.31,9.11,9.11,0,0,0-.14,2.58c-.14,3.11-.24,7.06-.27,10.85a28.15,28.15,0,0,0-.27,4.48c1.66.17,3.62-.54,5.56-.54a17.38,17.38,0,0,0,.81-2.85c.41-.81.45-2,.81-2.85.38-2.11,1-4,1.49-6a46.32,46.32,0,0,1,1.9-5.43c.37-.85.52-1.92.95-2.71s.76-1.77,1.08-2.71a48.23,48.23,0,0,1,2.44-4.88c.77-1.71,2-2.93,2.85-4.61.57-.65.84-1.6,1.49-2.17a11.24,11.24,0,0,1,1.49-2.17,19.89,19.89,0,0,1,3.93-3.53,14.81,14.81,0,0,1,4.88-1.49c.79.43,1.77.67,2.58,1.08.21.38.88.3,1.08.68.41.22.63.63,1.08.81.18.5.37,1,.54,1.49s.49,1,.81,1.36a20.39,20.39,0,0,1,.95,3.39,34.88,34.88,0,0,1,.54,8.14c.2.19.43.1.41-.27.24-.08.56-.07.68-.27.58.06,1.4-.13,1.76.14.71.19,1,.83,1.36,1.36.38.86-.24,1.22-.27,2,.13,3-.59,5.2-.68,8-.74,2.25-.7,5.27-1.49,7.46v1.49a49,49,0,0,0-1.49,12.61c.69-.16.93-.79,1.49-1.08a10.46,10.46,0,0,1,1.22-1.49c.74-1,1.55-2,2.31-3a11.9,11.9,0,0,0,2.17-3.12c.75-1,1.06-2.47,1.76-3.53a82.55,82.55,0,0,1,3.53-18.17c.61-3,1.82-5.42,2.71-8.14a7.1,7.1,0,0,0,.68-2c.49-.41.38-1.43.95-1.76.11-.79.69-1.12.81-1.9.32-.58.64-1.16.95-1.76a91.36,91.36,0,0,1,8.14-13.56c3.42-3.82,6.78-7.68,11.93-9.76a14.31,14.31,0,0,1,4.48.14c.41.36,1,.5,1.36.95a2.55,2.55,0,0,0,1.36.95c.32.45,1,.53,1.36.95A16,16,0,0,0,164,189a18.22,18.22,0,0,1,3,4.61c.24,1,.91,1.62,1.08,2.71s.45,2.09.81,3a39.8,39.8,0,0,1-.14,12.48c0,1.17-.66,1.69-.54,3a10.68,10.68,0,0,0-.95,2.71,3.74,3.74,0,0,0-.54,1.22c-.37.26-.27,1-.68,1.22-.28.94-1,1.43-1.22,2.44A14.26,14.26,0,0,0,163,224.5c-.51.08-.55.62-1.08.68-.35.28-.57.7-1.09.81-1.26.08-1.36-1-2-1.49-.58-.09-1,.39-1.36.14s.1-1-.95-.81c-.1-.44-.06-1-.41-1.22s-.48-.7-.68-1.09a27.81,27.81,0,0,1,1.63-5.42,34.78,34.78,0,0,0,1.49-5.56,27.18,27.18,0,0,0,.68-2.85,2.42,2.42,0,0,0,.27-1.49c.12-.46.26-.92.41-1.36,0-2.38.23-4,.41-6.37-.09-1.4-.31-2.67-.41-4.07-.73-1-.72-2.8-2-3.25-.75.11-.86.86-1.63.95-.45.13-.47.71-.95.81a16.55,16.55,0,0,0-.95,1.36,4.2,4.2,0,0,0-.95,1.49c-.91.67-1.22,1.95-1.9,2.85a26.25,26.25,0,0,0-1.63,3.12c-.63,1-1.19,2.07-1.76,3.12s-1.06,2.1-1.49,3.25a12.61,12.61,0,0,1-.81,1.63c-.42.4-.49,1.14-.81,1.63-.43.34-.38,1.16-.68,1.63,0,.78-.66,1-.68,1.76a4.85,4.85,0,0,0-.68,1.76,15.35,15.35,0,0,0-.68,1.76,11.38,11.38,0,0,1-.68,1.63c-.32.49-.33,1.3-.68,1.76a11.76,11.76,0,0,1-.54,1.76c.15.24-.25.23-.27.27-.28.61,0,1.27-.27,1.63a67,67,0,0,0-2,7.59c-.88,2.33-1.08,5.34-1.76,7.87-.09,3-1,5.68-.81,8.54a35.11,35.11,0,0,0-.14,7.73c.27,2.68.25,5.37.95,7.87-.13.8.38,1.23.14,1.76.41.36.43,1.11.54,1.76.45,1.09.71,2.36,1.08,3.53a28,28,0,0,0,2.85,6.24c.49.73,1.17,1.27,1.63,2,1,.58,1.82,1.26,2.85,1.76a13,13,0,0,0,4.48-1.76c.57-.34.94-.86,1.49-1.22a14.44,14.44,0,0,1,1.63-1.22c.32-.67,1-1,1.36-1.63a17,17,0,0,0,1.36-1.76c.86-1.17,1.69-2.38,2.58-3.53a10.62,10.62,0,0,1,1.09-1.9c-.26-.14.27-.63.41-.81a1.59,1.59,0,0,1,.54-1.08c.24-.8.88-1.19,1.08-2a14.73,14.73,0,0,1,1.08-2c1.15-2.92,2.46-5.68,3.53-8.68.9-3.21,2-6.18,3.12-9.22s2-6.18,3-9.22c.55-1.48,1-3,1.63-4.48a7.53,7.53,0,0,1,.81-2.31,1.08,1.08,0,0,1,.41-1.08,4.38,4.38,0,0,0,.27-1.36c.57-1.46,1.13-2.94,1.63-4.48,0-1,.5-1.49.68-2.31-.08-1.12.57-1.5.54-2.58.49-.5.26-1.73.68-2.31a10.86,10.86,0,0,1,.68-2.44c.45-1.65.36-3.17.68-4.75a66.6,66.6,0,0,1,.41-8,45.62,45.62,0,0,1,.81-7.73c.27-6.25,1-12.23,1.76-18.31-.07-1.93.44-2.84.41-4.48.31-1.41.46-3,.68-4.48.8-2.63.73-6.14,2-8.27.11,0,.16-.11.14-.27a7.35,7.35,0,0,1,1.76-1.36c.74-.3,1.19-.89,2.17-.95a3,3,0,0,1,.95.54c0,.51.68.32.81.68.71.29,1,1,1.49,1.49a19.61,19.61,0,0,0,.41,2,25.87,25.87,0,0,1,.14,4.88c0,.85.19,1.65.14,2.44-.07,1-.35,2.56-.41,3.39,0,.26.14.3.14.54,0,1.43-.23,2.91-.14,4.48-.53,4.13-.51,8-.81,12.34-.12,4.22-.65,8.59-.95,12.21-.12,4.36-.93,8-1.22,12.21a3.93,3.93,0,0,0-.14,1.49c-.45.33,0,.67-.14,1.36-.3.83-.11,2.15-.41,3-.08,2-.7,4.18-.41,6.1.53.32.41-.26.95-.27.14-.36.55-.45.81-.68.62-.42,1.11-1,1.76-1.36,1.05-1,2.47-1.68,3.39-2.85q1.68-1.37,3.25-2.85a41.84,41.84,0,0,0,3.12-3.12c1.14-.89,2-2.12,3.12-3,.14-.36.54-.46.68-.81.31,0,.15-.39.41-.41s.29-.21.14-.41c.6.1.55-.45.81-.68.44-.1.59-.49.81-.81,1.15-.93,1.78-2.37,3-3.25.35-.69,1-1.07,1.36-1.76.21-.29.49-.5.68-.81.49-.06.3-.79.81-.81.87-1.16,1.63-2.44,2.58-3.53a4.69,4.69,0,0,0,.68-.81c0-.52.55-.54.68-.95a4.87,4.87,0,0,0,1.36-1.76,10.72,10.72,0,0,0,1.36-1.76c.69-.35.87-1.21,1.49-1.63.72-1.36,1.85-2.3,2.44-3.8.57-.42.61-1.38,1.22-1.76a6.9,6.9,0,0,1,1.22-1.9c.79-1.29,1.69-2.47,2.44-3.8a17.33,17.33,0,0,0,2.44-3.8c.42-.62.5-1.58,1.08-2-.09-.58.56-.44.41-1.08l.54-1.08c.76-.56,1.17-1.45,2.44-1.49a3.45,3.45,0,0,1,2.44.95,7.06,7.06,0,0,1,1.36,2.17,3.4,3.4,0,0,0,.14,1.36c-.36,1.4-.69,2.84-1.08,4.2a26.27,26.27,0,0,0-1.22,4.2c0,.42-.29.61-.41.95s-.13.87-.41,1.08c-.25.7-.58,1.32-.81,2-.74,1.16-1.32,2.48-2,3.66a9.89,9.89,0,0,1-.95,1.9c-.54.41-.59,1.31-1.08,1.76a39.26,39.26,0,0,1-2.17,3.66,60.34,60.34,0,0,1-4.88,6.51c-.2.75-.89,1-1.22,1.63a15.73,15.73,0,0,0-1.22,1.63c-1.08.87-1.5,2.39-2.58,3.26-1.73,2.07-3.53,4.07-5.43,6a31.39,31.39,0,0,0-2.85,2.85c-.65.3-1,.91-1.49,1.36-.29.21-.5.49-.81.68a2.53,2.53,0,0,1-.81.68c0,.48-.46.45-.54.81-.41.09-.46.53-.81.68-.53.42-1,.92-1.49,1.36-1,.92-2.24,1.65-3.25,2.58-1.13.77-2.22,1.58-3.39,2.3-.36.09-.52.39-.81.54-.36-.34-.46.34-.81.41-.73.35-1.24.7-1.76.95.19,1.44,1.15,2.1,1.63,3.25a4.56,4.56,0,0,1,.95,1.49c.38.47.7,1,1.08,1.49s.59,1,.81,1.63c.54.32.38,1.34.95,1.63.3.51.63,1,.95,1.49s.48,1.24.95,1.63.52,1.11.95,1.49c0,.42.43.39.27.95.52-.07.42.48.68.68a5.75,5.75,0,0,1,.81,1.63c.36,0,.46.36.54.68s.49.42.54.81c.75.92,1.15,2.2,2,3,.49,1.18,1.35,2,1.9,3.12,3.23,3.59,6.89,6.76,13.29,7.19a11.1,11.1,0,0,0,4.88-1.08,10.63,10.63,0,0,0,3.66-2.31c-.21-.74-.08-1.74-.27-2.17,0-.45-.23-.68-.14-1.22s-.15-.75-.27-1.08c.29-.85-.15-1.72.14-2.31-.16-.26-.45-.76-.14-1.08.29-.51-.26-.41-.14-1.08-.09-2.1.18-4.11,0-5.56.35-.15-.05-1,.27-1.22.17,0-.11-.78,0-1.22-.05-1,.3-1.69.27-2.71.23-1.8.61-3.46.81-5.29.7-3.32,1.64-6.41,2.58-9.49.43-1.61,1.1-3,1.49-4.61.35-.65.51-1.48.81-2.17.18-.86.62-1.46.81-2.31.54-1.45,1.15-2.82,1.76-4.2a39.52,39.52,0,0,1,2-4.07c.35-.64.64-1.35.95-2,.28-.22.34-.65.54-.95s.54-.45.54-.95a9.06,9.06,0,0,0,1.22-1.76c.46-.58.6-1.48,1.22-1.9a17.13,17.13,0,0,1,2.58-3.39c.39-.6,1-1,1.36-1.63.61-.43.83-1.25,1.63-1.49.8-1.23,2.17-1.89,3.12-3a10.76,10.76,0,0,0,1.76-1.22,11.4,11.4,0,0,0,2-1.08,30.19,30.19,0,0,1,8.54-1.49c.68.09,1.06.47,1.76.54s1,.64,1.63.81a4.16,4.16,0,0,1,.81,2A6.7,6.7,0,0,1,275.3,191c.78.39,1.1,1.25,1.9,1.63.55,1,1.29,1.88,1.9,2.85.14.68.63,1,.68,1.76.49.49.28.87.54,1.63a25.68,25.68,0,0,1,.95,8.54,33.51,33.51,0,0,1-.95,8.54c-.35,2.9-1.41,5.1-2,7.73-.58,1-.79,2.46-1.36,3.53-.38,1.25-1.13,2.12-1.49,3.39a29.62,29.62,0,0,1-3.66,6.1c-.16.65-.81.82-.95,1.49a4.24,4.24,0,0,0-1.08,1.36,6.21,6.21,0,0,0-1.22,1.22A8.45,8.45,0,0,0,267.3,242a28.12,28.12,0,0,1-6,3.8,17.62,17.62,0,0,1-4.34.41c-1.32-.1-2.56-.66-3.66-.81a10.63,10.63,0,0,0-2.17-1.08c0-.24-.23-.31-.54-.27-.09-.54-.79-.47-.81-1.08-.44-.23-.64-.72-1.08-.95-.24-1-.94-1.5-1.22-2.44s-.85-1.68-1.08-2.71c-.53-.12-.1.72-.41.81-.07.38-.2.71-.27,1.08a13.15,13.15,0,0,0-.41,2.17c-.61,1.15-.55,3-.95,4.34-.4,3.09-.66,6.3-.81,9.63.25,2,.08,4.35.27,6.37.45,1.81.77,3.75,1.36,5.43a25.58,25.58,0,0,0,1.9,4.75,14.65,14.65,0,0,0,1.22,2.17c.39.74,1,1.25,1.36,2,.46-.06.41.41.68.54.44,0,.39.42.68.54a13.93,13.93,0,0,0,1.76.81,10.36,10.36,0,0,0,6.65-1.76c.65-.48.92-1.34,1.76-1.63a6.08,6.08,0,0,1,1.63-1.76,44.73,44.73,0,0,0,2.71-4.2,65.09,65.09,0,0,0,5.15-8.54c.78-1.48,1.56-3,2.31-4.48a10.65,10.65,0,0,0,1.22-2.17,9.58,9.58,0,0,0,1.22-2.31c.35-.19.38-.7.54-1.08a3.35,3.35,0,0,0,.54-1.22c.3-.83.62-1.64.95-2.44.64-1.67,1.35-3.26,1.9-5a2.69,2.69,0,0,1,.41-.95c.33-.12.24-.66.54-.81a112,112,0,0,1,3.8-13.83c1.28-4.6,3.11-8.64,4.34-13.29.61-2.33,1.56-4.32,2-6.78s1.17-4.71,1.76-7.05a72.48,72.48,0,0,0,1.49-7.32c.35-1.14.51-2.48.81-3.66a34.26,34.26,0,0,0,.81-3.66c-6.61-.45-12-.33-17.9-.81a125.34,125.34,0,0,0-18.17-.95c-1.48,0-2.59.85-3.93.54-.45,0-.59-.41-.81-.68.08-.62-.6-.48-.81-.81.15-.31.51-.4.68-.68s-.08-.57.14-.95a16.52,16.52,0,0,1,5.29-.95,18.88,18.88,0,0,1,2.71-.41c.31-.37.45-.08,1.08-.14.3-.24,1-.12,1.36-.27,3.95-.26,7.23-1.18,11.12-1.49,7.35-1.26,14.28-2.2,21.43-3.53a47.15,47.15,0,0,0,1.63-6.1c.83-1.79.77-4.47,1.63-6.24.32-.95.54-2,.81-3a15.81,15.81,0,0,0,.81-3.12c.36-.95.47-2.15.81-3.12.79-.52.43-2.19,1.22-2.71s1.86,0,3-.14c1.13.55,2.32,1,2.85,2.17-.37,2.88-.55,7.35-.95,11-.34,1.9,0,3.64-.54,5.42a5,5,0,0,1-.41,2.44,13.36,13.36,0,0,1-.27,2.71,99.9,99.9,0,0,1,12.48.14c.54-.2,1.24.34,2,0,2.17.11,4.5.1,7.19,0,.5-.59.45-1.72.68-2.58a10.09,10.09,0,0,0,.68-2.58,10.86,10.86,0,0,0,.68-2.58c.15-1,.51-1.75.68-2.71s.72-1.45.81-2.44c.26-.87.6-1.66.81-2.58a21.65,21.65,0,0,1,1.49-5.15c.12-1.73.64-3.07.81-4.75a1.36,1.36,0,0,0,.54-.95c.32-.09.57-.24.54-.68,1-.5,1.73-1.34,3.39-1.22,1.23.12,1.76,1,2.44,1.63.17.46,0,1.22.27,1.63a19.31,19.31,0,0,1-.41,3.53c.2.79-.67,2.25-.27,3.25-.29,1-.36,2.26-.68,3.25.08.76-.31,1-.27,1.76.1.41-.23.4-.14.81-.27.09.08.81-.41.68.35,1-.27,2-.27,3.12-.5.73-.27,2.17-.68,3,.14.73-.17,1-.27,1.49a8.26,8.26,0,0,1-.27,1.63,19,19,0,0,1-.54,3.12,38.55,38.55,0,0,0,5,.41c.7.4,1.64.08,2.31.27a8.85,8.85,0,0,0,2.71.27,7.28,7.28,0,0,0,1.22.14c.44.07.84.23,1.22.27s.67-.15.95-.14.73.37,1.08.14c.45.53,1.83.11,2.17.41a9.47,9.47,0,0,1,2.58.41c.81.13,1.54-.1,2.3.27.59,0,.62.2.95-.14a2.17,2.17,0,0,0,1.22.27,23.81,23.81,0,0,1,2.58.27c.67,0,1.56.13,2.58.14a9.1,9.1,0,0,0,2.17.41c1,0,1.49.5,2.58.41a15.67,15.67,0,0,0,4.48,1.36c.36.5,1.21.51,1.49,1.08.37,0,.41.4.54.68.55-.09.33.57.81.54a4.49,4.49,0,0,0,.27,1.49,4,4,0,0,1,.27,1.9,6.45,6.45,0,0,1-1.36,1.9c-1.78,0-2.94.68-4.61.81-.48.11-.66.51-1.22.54a13.66,13.66,0,0,0-1.49.41c-2.27.15-3.7-.43-5.43,0-1.8-.28-4,.16-6.1,0a32.07,32.07,0,0,0-6-.27c-.81-.53-1.69-.19-2.58-.54-1.21.08-2-.24-3.25-.14-3.63-.8-7.82-1-11.8-1.49a56.19,56.19,0,0,0-1.22,6,55,55,0,0,0-1.22,6.1c-1,3.89-1.57,8.19-2.31,12.34s-1.22,8.2-1.76,12.34c-.14,2.48-.48,4.16-.68,6.37s-.27,4.61-.68,6.65c.13,1.58-.15,3.55-.14,5.42v5.83a19,19,0,0,1,.14,2.44c-.11,1,.32,2,.14,2.58a5.93,5.93,0,0,1,.14,2.31,8.38,8.38,0,0,1,.41,2.58c.23,1.72.61,3.28.95,4.88.29.66.43,1.47.68,2.17.58.13-.19.83.41.81a3,3,0,0,0,.41,1.08,15,15,0,0,0,1.76,4.07,20.7,20.7,0,0,0,1.08,1.9c.69.31.81,1.18,1.36,1.63a4.21,4.21,0,0,0,.95.95c.24.44.94.42.95,1.08.91.45,1.58,1.14,2.44,1.63.6,0,.61.65,1.36.54a3,3,0,0,0,1.49.54,9.55,9.55,0,0,0,3.53.54c.49,0,.65-.25,1.08-.27s.88,0,.95-.41c.91,0,1.05-.76,1.9-.81.37-.53,1.18-.63,1.63-1.08.65-.26.92-.89,1.63-1.08,1.37-1.57,2.84-3,4.2-4.61a3,3,0,0,0,.95-1.22c.51-.21.57-.88,1.08-1.08.57-.92,1.38-1.6,1.9-2.58a16.68,16.68,0,0,0,1.76-2.58,3.67,3.67,0,0,0,.81-1.36,3.39,3.39,0,0,0,.81-1.49c.49-.24.45-1,.81-1.36s.47-1,.81-1.36c.22-1.28,1.13-1.86,1.36-3.12a2.59,2.59,0,0,0,.68-1.49c.32-.28.8-.93.54-1.36.51-.21.42-1,.95-1.22a3.1,3.1,0,0,1,.54-1.76c.43-1,.86-2,1.22-3.12a24.25,24.25,0,0,0,1.22-3.26c.55-.9.63-2.26,1.22-3.12.34-1.16,1.06-1.92,1.36-3.12a27.83,27.83,0,0,1,3.66-5.15,6.29,6.29,0,0,1,3.12-.41c.44,0,.52.39,1.08.27,0,.54.71.29.95.54.73.22,1.07.83,1.63,1.22a14.89,14.89,0,0,1,.68,2.85c.07,1.11-.24,1.84-.14,3a60.39,60.39,0,0,0-1.22,6.51,9,9,0,0,1-.54,1.36,11.5,11.5,0,0,1-.41,1.63c-.28,0,0,.6-.41.54-.38.13.2.36-.14.54,0,.68-.49.87-.41,1.63a8.45,8.45,0,0,0-1.36,2.44c-.28.35-.4.87-.81,1.09-.15.52-.26,1.1-.68,1.36a2.53,2.53,0,0,1-.68,1.22c0,.66-.74.53-.68,1.22-.13.5-.59.67-.81,1.08s-.34,1-.81,1.22c-.44.82-1,1.52-1.49,2.31a18,18,0,0,1-1.63,2.31,8.15,8.15,0,0,1-1.76,2.17,4.09,4.09,0,0,1-1.9,2c-.43,1-1.27,1.63-1.76,2.58-.52-.12-.22.59-.81.41-.07.38-.52.38-.81.54-.13.45-.54.63-.68,1.08-.77-.13-.43.83-1.08.81-.48.78-1.53,1-2,1.76-.48-.11-.56.43-.68.54s-.32.07-.41.14c-.35.27-.54.71-1.09.81a13.23,13.23,0,0,0-2.17,1.63,5.18,5.18,0,0,0-2.17,1.08c-.69-.14-.68.4-1.08.54-.57,0-.65.53-1.22.54a9.59,9.59,0,0,1-2.31.95c-1,.14-1.36.69-2.31.54a7.27,7.27,0,0,1-1.9.95,28.35,28.35,0,0,1-4.88.81c-1.46,0-2.57-.32-3.93-.41-2.17-.86-4.67-1.39-6.37-2.71-.47-.3-.93-.61-1.36-.95a12.38,12.38,0,0,0-1.36-.95c-.27-.49-.8-.73-1.22-1.08-.24-.53-.94-.6-1.08-1.22a2.63,2.63,0,0,1-1.08-1.22c-.45-.32-.53-1-1.09-1.22-.73-.81-1.18-1.89-1.9-2.71a34.48,34.48,0,0,1-2.58-6.65c-1.87-4.23-2.29-9.92-3-15.32,0-2.91-.24-6.23-.14-8.81a16.29,16.29,0,0,1,0-4.07c-.25-1.12.41-2.73.14-3.93-.42.13-.24.85-.54,1.08-.15.44-.37.81-.54,1.22-.26.87-.68,1.58-.95,2.44a37.6,37.6,0,0,0-2,4.88c-1.33,3.24-2.72,6.41-3.93,9.76-.8,1.46-1.24,3.28-2.17,4.61a21,21,0,0,1-2.71,4.2,24.05,24.05,0,0,1-3.25,3.66,29.39,29.39,0,0,1-3.93,3,6.38,6.38,0,0,0-1.9.68c-1.53.1-3,.26-4.61.27a14.91,14.91,0,0,1-4.2-1.49,4.9,4.9,0,0,0-1.08-1.08c-.68-1.76-1.66-3.22-2.31-5a25.56,25.56,0,0,1-.95-2.71c0-1.32-.52-2-.54-3a58,58,0,0,1,0-13.7c-.44-.12-.19.44-.41.54,0,.4-.31.42-.27.81a6.56,6.56,0,0,0-.41,1.76,13.74,13.74,0,0,0-1.63,4.07,1.26,1.26,0,0,0-.41.95c0,.53-.49.5-.41,1.08-.37.58-.57,1.33-.95,1.9,0,.66-.58,1-.68,1.9a12.16,12.16,0,0,0-.95,1.9c-.34.61-.64,1.25-.95,1.9s-.8,1.1-.95,1.9c-.54,1.36-1.2,2.59-1.76,3.93-.11.84-.69,1.2-.95,1.9-.09.37-.52.38-.54.81-.46,0-.38.61-.68.81-.9,1-1.41,2.39-2.44,3.25-.23.72-.78,1.12-1.08,1.76-.32.13-.23.68-.68.68.09.64-.64.36-.27.95-.51-.14-.21.51-.68.41a1.22,1.22,0,0,0-.54.54,13.41,13.41,0,0,1-1.08,1.08c-.24.49-.77.68-1.08,1.08a1.79,1.79,0,0,0-1.08,1.08c-.68,0-.82.54-1.36.68s-1.07.29-1.22.81c-.56-.54-.71.77-1.22.27-.21.1-.2.43-.54.41a.49.49,0,0,0-.68.41c-.61-.2-1.58.29-2.31.41-.54,0-.75.24-1.36.14,0,.24-.35.07-.54.14s-.25.46-.54.27a36.86,36.86,0,0,1-6.1-.54c0-.16-.21-.15-.41-.14a13.27,13.27,0,0,1-3.8-2.85,5.64,5.64,0,0,1-1.49-1.76c-.79-.34-.93-1.33-1.76-1.63-.12-.47-.16-1-.54-1.22-.47.12-.23-.44-.14-.54-.26-.25-.34,0-.68,0a1.15,1.15,0,0,0,.14-.81c-.12,0-.69-.27-.27-.41-.25-.42-.79-.57-.81-1.22a5.1,5.1,0,0,1-.68-1.36c-.41-.26-.22-1.13-.68-1.36-.24-1.07-.79-1.83-1.08-2.85a11.62,11.62,0,0,0-1.22-2.85c-.12-.37-.3.31-.54.27,0,.32-.42.3-.54.54-.47.26-.66.79-1.22.95a8.05,8.05,0,0,1-1.22.95c-.22.55-1.12.42-1.22,1.08-1.31.23-2.11,1-3.39,1.22a31.11,31.11,0,0,1-3.93.68c-1.78-.05-2.87,0-4.48-.14-.39-.15-1-.13-1.22-.41-.51-.27-.86.14-1.22-.27-1.26.05-1.68-.64-2.71-.68a14.84,14.84,0,0,1-2.44-.95c-.92-.21-1.45-.81-2.44-.95-.93-.88-2.12-1.5-3-2.44-1-.82-1.88-1.83-3-2.58-.91-.9-1.62-2-2.58-2.85-.12-.78-.84-1-.95-1.76-.72-.23-.86-1-1.36-1.49-.56-1.25-1.55-2.07-2-3.39a32.29,32.29,0,0,1-2.17-3.39c-.61-1.25-1.25-2.46-1.9-3.66a5.54,5.54,0,0,1-.81-1.9c-.46-.49-.55-1.35-1.22-1.63-.24,1.14-.21,3.05-.54,4.34a6.9,6.9,0,0,1-.14,2.31.67.67,0,0,1-.14.95,3.4,3.4,0,0,1,.14,1.36c-.57,3.32-.34,6.78-.95,9.49v1.9c-.51,2.12-.49,5.74-.81,8.41-.11,3.1-.51,5.91-.54,9.09-.19.68.28.72.27,1.22s-.21,1.23-.27,1.9v2.44a2.76,2.76,0,0,1-.95,1.49c-.78.42-1.2-.57-2.17-.41-.16,0-.31-.24-.41,0-.08.39-.21-.21-.41-.14a3.57,3.57,0,0,1-1.08-.41A.37.37,0,0,1,179.83,282.68Zm117.31-55.2a.37.37,0,0,0-.27.41c-1.07,6-2.5,11.6-3.39,17.77-.32,3.07-.25,6.4-.68,9.63.21,1.19,0,3.23.41,4.61a6.4,6.4,0,0,0,.41,2.17c.1.35.14.77.41.95.07.34,0,.82.41.81a7.43,7.43,0,0,0,3.93-1.36c1.28-.44,2-1.46,3.12-2,.37-.85,1.15-1.29,1.63-2s1.1-1.25,1.49-2a38.77,38.77,0,0,0,3.66-8.41c1.17-2.8,2.29-5.67,3.25-8.68a13.74,13.74,0,0,0,.81-2.31c.33-.33.08-.72.27-.95s.26-.73.41-1.08c.58-1.41.94-3,1.49-4.48s1.12-2.86,1.49-4.48a31.07,31.07,0,0,0,1.63-4.34,9.4,9.4,0,0,0,.95-2.17,8.9,8.9,0,0,0,.27-1.22c.41-.09.09-.91.54-.95-.08-.5.42-.79.14-1.08.17-.33.49-.5.41-1.08a7.89,7.89,0,0,0,.81-2.17,45.93,45.93,0,0,0,2.44-9.49c.65-3.33,1.35-6.6,1.9-10,.41-.58.23-1.76.54-2.44s0-1.47.54-2.17c.2-1.64.68-2.9.95-4.75-1.59-.59-3.3-.23-5.15-.54-2,.1-3.68-.21-5.7-.14-1.52-.13-3.58,0-5.29-.27a15.07,15.07,0,0,0-2.58.14,8.35,8.35,0,0,0-2.17-.14c-1.65,7.54-3,14.73-4.61,22.11-.64,3.89-1.65,7.39-2.3,11.26-.58,1.69-.72,3.8-1.22,5.56-.21.92-.29,2-.54,2.85C297.5,225.83,297,226.78,297.14,227.48Zm-32.82-33.23a.37.37,0,0,1-.41.27,9.44,9.44,0,0,0-1.36,1.76c-.59,1.49-1.67,2.49-2.31,3.93-.44.06-.27.72-.54.95a1.93,1.93,0,0,0-.54,1.09,4.84,4.84,0,0,0-1.08,2c-.49.55-.49,1.59-1.08,2-.38.66-.5,1.58-1.09,2a8.46,8.46,0,0,1-.81,2.44c-.57.5-.19,1.43-.81,2a9.15,9.15,0,0,1-.95,2.17,22.12,22.12,0,0,1-.81,2.31c-.3.2-.19.81-.41,1.08-.46.29,0,.67-.41.95-.3.74-.55,1.53-.81,2.31a3,3,0,0,1-.41,1.08c-.32.42,0,.75-.41.95-.45,1.67-1,3.25-1.36,5a57.45,57.45,0,0,0,.95,8.27c.16,0,.15.21.14.41.68.59.7,1.83,1.63,2.17a4.45,4.45,0,0,0,3.93-.54c1.28-.39,2-1.36,3.12-1.9,4-3.83,7-8.77,9.36-14.24C269,220,270,217.19,271,214.19c.29-1.65.74-3.14,1.08-4.75.19-.8.18-1.81.41-2.58a4.8,4.8,0,0,1,.14-1.36c.41-.28-.26-.79.27-.95-.17-2.14-.3-4.31-.54-6.37a12.73,12.73,0,0,1-.95-2.44c-.82-.8-1.21-2-2.44-2.44a6.07,6.07,0,0,0-1.63.14A15,15,0,0,0,264.32,194.26ZM96.56,273.19a9.33,9.33,0,0,0,2-2.44c.49-.23.57-.88.81-1.36a2.77,2.77,0,0,0,.81-1.49c.57-.92.88-2.1,1.49-3,.73-4.65,2.21-8.55,3.12-13,1.1-4.28,1.89-8.87,2.85-13.29s1.47-9.29,2.17-14V220.7c.09-.77-.23-1.13-.14-1.9-.09-.58,0-1.37-.41-1.63a6.31,6.31,0,0,0-.68-3.12,14.6,14.6,0,0,0-1.36-2.71c-.14,0-.16-.11-.27-.14,0-.32-.37.15-.41.27-1.24,1-1.87,2.56-2.85,3.8-.75,1.47-1.46,3-2.31,4.34,0,1.06-.91,1.26-.95,2.31-.4.73-.71,1.55-1.08,2.31a40.7,40.7,0,0,1-2,4.61c0,.94-.4,1.4-.41,2.3A17,17,0,0,0,95.34,236c-.72,1.5-.94,3.49-1.49,5.15-.38,1.83-1,3.47-1.36,5.29-.2,2-.59,3.84-.95,5.7a79.85,79.85,0,0,0-.68,12.07,18.93,18.93,0,0,0,.68,6,6,6,0,0,0,.95,2.31c-.07.62.27.81.41,1.22.34.25.25.93.81.95A4.77,4.77,0,0,0,96.56,273.19Z" style="fill-rule:evenodd"/><path d="M135.38,3.51c0,.11.05.12.13.13s.13.13.13.26c.22-.08.08-.3-.13-.26,0-.11-.05-.12-.13-.13-.3-.45.22-.15.39,0,.38,0,.17.61.39.77s.26.2.26-.13c.21,0,.07.36.26.39,0,.15.13.07.13,0,.68.65,1.45,1.22,2.19,1.8a6.16,6.16,0,0,0,.9,1.29c.39.38.66.88,1,1.29.49.07.45.75,1,.39.14.41,0,.29,0,.77.27-.28.42,0,.64.13.21.69.71,1.09.9,1.8a4.44,4.44,0,0,1,1,1.8,21,21,0,0,1,1.8,3.73,53.4,53.4,0,0,1,1.8,9.4,6.9,6.9,0,0,1-.26,1.8c.22,1.57,0,2,.13,3.61-.29.34.19,1.05-.26,1.55,0,.16-.17.18-.13.39.18,0,.49,0,.26.13-.28.3-.11.34-.26.64.46.11,0,.32.13.77-.37,0,.11.88-.26.9,0,.76-.22,1.33-.26,2.06-.11,1.43-.34,2.75-.52,4.12a28.9,28.9,0,0,0-1.16,5.41c-.49,1.7-.89,3.49-1.29,5.28-1.13,3.29-2,6.81-3.22,10a16.9,16.9,0,0,0-.77,2.45c-.58.54-.55,1.68-1,2.32a33.31,33.31,0,0,1-1.8,4.89,44.51,44.51,0,0,0-2.06,4.51,32.35,32.35,0,0,0-2.06,4.64c0,.22-.14.32-.13,0-.3,0-.14.37-.39.39a11.88,11.88,0,0,1-1.42,3.09,8,8,0,0,1-.77,1.55c-.23.54-.65.89-.9,1.42a14.39,14.39,0,0,1-1.8,2.83c-.56,1-1.31,1.78-1.93,2.7a59.7,59.7,0,0,1-4.51,4.64,13,13,0,0,1-6.44,2.83c-.17-.18-.56-.13-.9-.13-1.49-.31-2.89-.72-4.38-1a13.19,13.19,0,0,0-2.45-1.29c-1.09-1.06-2.28-2-3.35-3.09-.5-.87-1-1.72-1.55-2.58a15.47,15.47,0,0,0-1.55-2.58c0-1.52-.9-2.19-1-3.61-.35-1.2-.56-2.53-.9-3.73-.15-2.77-.25-4.11-.26-6.82a20.63,20.63,0,0,1,.64-3.35c-.31-1,.12-2.15.13-3.22a27.29,27.29,0,0,1,.51-3.22c.33-2.12,1-3.9,1.16-6.18.28-.92.63-1.78.9-2.7.43-.82.67-1.82,1-2.7.63-1.86,1.72-3.26,2.19-5.28.48-.68.85-1.47,1.29-2.19-.05-.61.49-.63.51-1.16.28-.32.26-.94.64-1.16a2.38,2.38,0,0,1,.64-1c0-.58.53-.67.52-1.29.6,0,.35-.85.77-1a3.17,3.17,0,0,1,.77-1c.17-.73.57-1.23.77-1.93.57-.37,1-.88,1.55-1.29a9.93,9.93,0,0,1,2.58-.39c.67.06,1,.42,1.67.51s.87.59,1.42.77c.28.58.4,1.32.64,1.93a12.25,12.25,0,0,1-.51,3.61c0,1.39-.84,2.43-.64,3.61a1.83,1.83,0,0,0-.64,1.55c-.44.29-.4,1.06-.77,1.42-.2.53-.3,1.16-.51,1.67a13.13,13.13,0,0,1-.9,1.42,7.68,7.68,0,0,1-.64,1.55c0,.36-.39.3-.39.64.11.5-.31.46-.39.77-.12.61-.56.9-.52,1.67-.57.2-.46,1.08-.9,1.42-.45,2.22-1.53,3.79-1.93,6.05a33.31,33.31,0,0,0-1.8,6.18,17.57,17.57,0,0,0-.52,3.22,47.5,47.5,0,0,0-.26,10.69A23.1,23.1,0,0,0,109,90.81c.19.24.19.67.52.77-.16.63.44.5.39,1,.25.69.79,1.1,1,1.8,1.51,1,2.87,2.2,5.28,2.32a7.72,7.72,0,0,0,2.7-1.42c1.91-1.61,3.21-3.82,4.76-5.79,1.3-2.26,2.33-4.8,3.61-7.08.93-2.59,2-5,3.09-7.47.35-1.41,1-2.55,1.42-3.86s.93-2.68,1.42-4c.89-2.63,1.81-5.22,2.58-8,.38-1.38.8-2.72,1.16-4.12a9,9,0,0,0,.39-2.32c.47-.44.22-1.59.77-1.93.22-1.53.5-3,.77-4.51s.41-3.11.77-4.51.38-3.14.64-4.64a29.74,29.74,0,0,0,.26-4.89c-.09-.56.22-.73.13-1.29-.24-2.21-.31-4.52-.64-6.31a20.11,20.11,0,0,0-1.29-5.92,8.67,8.67,0,0,0-1.16-2.45c-.27-.93-1-1.43-1.29-2.32-.61-.59-1-1.43-1.67-1.93-.39-.81-1.21-1.2-1.67-1.93a17.5,17.5,0,0,1-2.19-1.55,17.23,17.23,0,0,1-3.09-1.16c-1.07-.09-2-.35-3.09-.39a19.94,19.94,0,0,0-4.51,1.93c-1.33.86-2.34,2-3.73,2.83a7.77,7.77,0,0,1-1.8,1.42c-.62.49-1,1.26-1.8,1.55,0,.48-.64.39-.77.77s-.4.72-.77.9c-.67.44-1,1.19-1.8,1.55-.44,1.19-1.41,1.85-1.93,3-.86.77-1.29,2-2.06,2.83-.46,1.17-1.33,1.93-1.8,3.09a3.58,3.58,0,0,0-.9,1.55,6.14,6.14,0,0,0-.9,1.55c-.59,1-1.27,2-1.8,3.09s-1.11,2.15-1.67,3.22c-.11.28-.33.44-.26.9a.91.91,0,0,0-.51.77,14.45,14.45,0,0,1-.9,1.55c-.23,1.44-1.06,2.29-1.42,3.61-.62,1-1,2.31-1.55,3.35-.18.64-.51,1.12-.64,1.8-.36.46-.35,1.28-.77,1.67a7.56,7.56,0,0,1-.64,1.8c-.3.51-.33,1.3-.64,1.8a33.1,33.1,0,0,1-1.29,3.61,19,19,0,0,1-.64,1.8c-.42.39-.45,1.18-.77,1.67-.42,1.21-.88,2.38-1.29,3.61s-.82,2.44-1.29,3.61a8.89,8.89,0,0,1-.64,1.8,4.24,4.24,0,0,1-.64,1.93c0,1.45-.57,2.35-.77,3.61a17.72,17.72,0,0,1-1,3.48c-.42,1.08-.51,2.5-.9,3.61,0,.75-.24,1.22-.26,1.93a1.7,1.7,0,0,1-.26.9c-.19.39.39.85-.13.77-.35,2.62-.62,5.3-1,7.85-.24,2.77-.45,5.56-.9,8.11.2,1.59-.33,2.14-.13,3.73-.22,1.4,0,2.41-.13,4.12a29,29,0,0,0,0,4v2.32a15.89,15.89,0,0,1,.13,1.8,91,91,0,0,0,2.45,16.48,58.81,58.81,0,0,0,2.32,7.08c.52,1.07,1,2.19,1.42,3.35s1.14,2,1.55,3.22c.7.89,1,2.14,1.8,3,0-.14.17-.1.13.13-.2,0-.09.28,0,.39a5.71,5.71,0,0,1,.52.64c.27.54.63,1,.9,1.55.64.95,1.37,1.81,1.93,2.83.52.25.62.92,1.16,1.16.17.65.88.75,1,1.42.6.21.88.75,1.42,1A8.23,8.23,0,0,0,97,161.12c1.07.65,2,1.44,3.09,2.06.59.27,1.07.65,1.67.9.44.42,1.3.41,1.67.9,1.26.45,2.65.79,3.86,1.29,1-.05,1.6.13,2.45,0a13,13,0,0,0,3.48-1.29,18,18,0,0,0,3-1.93c.33-.49,1-.67,1.29-1.16s.9-.73,1.16-1.29c.41,0,.05-.72.64-.52,0-.45.43-.42.52-.77A8.58,8.58,0,0,1,121,158a70.74,70.74,0,0,0,7.21-12.36c.6-1,.9-2.36,1.67-3.22.07-.75.49-1.14.64-1.8.49-.32.34-1.3.9-1.55.27-1.36,1-2.23,1.42-3.48.6-1,.89-2.38,1.55-3.35.86-2.4,1.91-4.61,2.83-7s1.88-4.64,2.83-7c.76-4.52,1.21-9.34,2.58-13.26a53.38,53.38,0,0,1,2.06-5.92c.39-.94.8-1.86,1.16-2.83a19.23,19.23,0,0,0,1.29-2.7c.5-.14.38-.91.77-1.16.16-.53.58-.79.64-1.42,1.17-1.49,1.81-3.51,3.09-4.89-.11-.41.42-.18.39-.52s.29-.4.26-.77c.44-.24.58-.79.9-1.16a27.82,27.82,0,0,1,3.73-4.25,9,9,0,0,1,1.93-2.06c.71-.62,1.16-1.51,2.06-1.93s2.2-.29,2.83-.9a25.9,25.9,0,0,1,3.73.77c.44.46,1.11.69,1.55,1.16a6.69,6.69,0,0,0,1.55,1.29A19.1,19.1,0,0,0,172.08,80a31.57,31.57,0,0,1,1.55,14.55c.59.32.49-1,1.29-.9A6.37,6.37,0,0,1,178,94.8c.5,1.38.24,3.07.13,4.76,0,1.92-.39,3.28-.39,4.89-.36,1.78-1.07,3.22-1.16,5.28a3.86,3.86,0,0,1-.64,1.29c.2.74-.16.84-.13,1.67a15.13,15.13,0,0,0-1.29,4.38c-.52,1.37-.61,3.17-1.29,4.38-.23,2.66-.59,4.86-.64,7,.3,1.33.38,2.87.77,4,.16.45.36.76.52,1.16a3.4,3.4,0,0,0,2.7-2.06,21.06,21.06,0,0,0,1.67-3.09,65.69,65.69,0,0,0,2.45-7.21C182,116,183.39,111,184.83,106c.66-2.52,1.31-5,2.06-7.47s1.29-5.15,2.06-7.6c.29-1.29.61-2.57.9-3.86s.56-2.7.9-4,.73-2.44.9-3.86a16.88,16.88,0,0,0,.52-1.93,4.77,4.77,0,0,1,.26-.9c.28-.15-.13-1,.52-.77a15.39,15.39,0,0,1-3-7.73c.13-1.55.3-3,.51-4.51.37-1.31.55-2.8,1.42-3.61.62-.36,1.17,0,1.8-.26.45.07.69.34,1.16.39s.45.58,1,.52a1.43,1.43,0,0,0,.64.9c.15.28,0,.83.39.9-.12,2.49.68,4.57,1,7,.38.65.73,1.34,1.16,1.93.41.11.37.66.77.77.09.47.75.37.77.9,1.31.8,2.38,1.83,3.73,2.58a42.81,42.81,0,0,1,6.82,5.92,7.69,7.69,0,0,0,1.16,2.06,3.36,3.36,0,0,0,.64,1.8,10.47,10.47,0,0,0,.39,2.06c.06.76,0,1.62.39,2.06-.54.79,0,2-.26,3-.06,1.14-.18,2.22-.26,3.35-.27.89-.31,2-.51,3,0,.92-.37,1.72-.52,2.83a41,41,0,0,1-1.55,5.54,2.33,2.33,0,0,1-.39,1.42c-.21.39-.16,1-.39,1.42-.26.94-.59,1.81-.9,2.7-1.26,3.5-2.3,7.22-3.73,10.56-.33,2-1.24,3.49-1.67,5.41-.44.77-.46,1.94-.9,2.7s-.31,2.09-.64,3c.11.47-.23.69,0,.9a.13.13,0,0,1,0,.26c0-.21-.18,0-.13.26a24.68,24.68,0,0,0,.77,7.47c.94,2.07,1.68,4.33,3.86,5.15,1.22-.15,1.8-1,2.58-1.55a12.62,12.62,0,0,0,1.93-2.32,10.26,10.26,0,0,1,1-2.7c.08-1.21.77-1.81.77-3.09.26,0,.26-.34.39-.52s-.18-.78.26-.64c-.07-.72.39-.9.39-1.55a2,2,0,0,1,.51-1.16,2.51,2.51,0,0,1,.39-1.55c.34-2.19,1.31-3.75,1.8-5.79a11.78,11.78,0,0,0,1-2.83,5.39,5.39,0,0,0,.52-1.42c.17-.48.15-1.14.52-1.42a9.82,9.82,0,0,1,.9-2.83c.33-1,.53-2,.9-3,.09-1.16.78-1.71.77-3a19.86,19.86,0,0,0,.9-3c.71-1.82,1-4.07,1.67-5.92s.95-4.2,1.8-5.92c0-2.4.88-3.92.9-6.31A44.33,44.33,0,0,0,227.83,86c.41-.75.35-2,.77-2.7a9.15,9.15,0,0,1,.77-2.83c.43-1.93,1.1-3.62,1.67-5.41.36-.79.52-1.8.9-2.58a4.16,4.16,0,0,0,.39-1.42,2.3,2.3,0,0,0,.39-1.42,11,11,0,0,0,1.16-3.35A15.35,15.35,0,0,0,235.3,63c.48-1.16.88-2.38,1.29-3.61a3.87,3.87,0,0,0,.64-1.67A4.4,4.4,0,0,0,238,56a4.5,4.5,0,0,0,.77-1.67c.37-.45.56-1.07.9-1.55a3.63,3.63,0,0,1,.64-1.67c.33-.48.32-1.31.77-1.67.08-.74.52-1.11.64-1.8s.74-.89.77-1.67c.8-.79,1-2.15,1.67-3.09.18-.63.79-.84.77-1.67a2.35,2.35,0,0,0,.77-1.67c.42-.27.53-.85.9-1.16,0-.64.74-.63.64-1.42a10.13,10.13,0,0,0,1.55-2.7c0-.42.5-.27.52-.64s.38-.39.39-.77c.48-.33.53-1.1.9-1.55s.44-1.1.9-1.42c.23-.59.73-.9.9-1.55A43.83,43.83,0,0,0,256.55,23c1.59-1.58,3-3.36,4.64-4.89-.06-.83.88-.67.9-1.42a3.57,3.57,0,0,0,1.29-1.16,29,29,0,0,0,2.19-2.7c.73-.17,1-.82,1.67-1,.8.18,1.63.08,2.32.26.32.08.69.39,1,.52s.41,0,.64.13a5.78,5.78,0,0,1,1,.64c.21.13.44.13.64.26s.65.64,1,.64c1.48,1.56,3.17,2.93,4.12,5a22.22,22.22,0,0,1,1.8,7.21,36,36,0,0,1-.52,6.82,34.87,34.87,0,0,1-1.16,6.44c.17.26-.19.85-.26,1.29.09.73-.23,1.06-.26,1.67-.31,1-.55,2-.77,3.09-.56,2-1.21,3.85-1.8,5.79s-1.21,3.86-1.93,5.67c-.41.84-.62,1.87-1,2.7a9.67,9.67,0,0,0-.52,1.42c-.25.4-.32,1-.64,1.29-1.45,3.65-3.38,6.84-5,10.3a19.63,19.63,0,0,0-1.42,2.32,16.91,16.91,0,0,1-1.42,2.45,11.62,11.62,0,0,1-1.29,2.45,2.59,2.59,0,0,0-.77,1.16,3.87,3.87,0,0,0-.64,1.29c-.66.58-1,1.53-1.55,2.19s-1,1.56-1.55,2.32-1.18,1.4-1.55,2.32c-.47.18-.47.81-.9,1,0,.62-.7.59-.77,1.16-1.19,1.35-2.29,2.77-3.48,4.12s-2.46,2.59-3.73,3.86a25.2,25.2,0,0,1-9,6.31c-.81.06-1,.11-1.93.13,0-.37.54-.24.9-.26a1.19,1.19,0,0,1,.77-.52c0-.28-.55-.05-.77-.13s-.5-.41-.77-.13c-.78,2.65-.64,5.51-.9,8.76a88,88,0,0,0-.26,9.14,24.86,24.86,0,0,1,.26,3.09,50.71,50.71,0,0,0,1.42,5.67c-.13.69.48.64.39,1.29a6.42,6.42,0,0,1,.52,1.29c.51.69,1,1.44,1.42,2.19a16.69,16.69,0,0,0,2.58.9,13.63,13.63,0,0,0,5-.51l1.67-.9a6.71,6.71,0,0,0,1.42-1.29c.51,0,.35-.6.77-.64.18-.29.52-.42.64-.77a34.6,34.6,0,0,0,2.45-3.09c.21-.69.85-1,1-1.67.63-.32.53-1.36,1.16-1.67.53-1.32,1.41-2.28,1.93-3.61.84-1,1.11-2.59,2.06-3.48.46-1.39,1.29-2.41,1.8-3.73,1.33-2.36,2.6-4.79,3.86-7.21a37.91,37.91,0,0,1,.9-8.37,16.71,16.71,0,0,1,.77-3.86c.34-.43.14-1.4.52-1.8.12-.65.49-1.05.39-1.93.76-1.3,1.11-3,1.8-4.38.09-.94.63-1.43.9-2.19s.8-1.26,1-2.06q2-4.15,4.38-8a39.49,39.49,0,0,1,5.41-7c1.08-1,2.08-2,3.22-3s2.54-1.66,3.73-2.58c1-.15,1.44-.8,2.45-.9.62-.49,1.66-.57,2.32-1a5.76,5.76,0,0,0,2.32-.13c.74.11,1.45.26,2.19.39,0,.1.11.15.26.13a7.82,7.82,0,0,1,1.55,1.42c.22.25.3.64.64.77s.28.75.77.77c-.05.7.53.76.51,1.42.41.28.34,1,.77,1.29a2.51,2.51,0,0,0,.39,1.55c-.32.32.4,1.17.13,1.42.21,1.17.22,2.53.51,3.61v3.48c.87.22,1.38-1,2.58-.9.79-.14.94.35,1.55.39a6.08,6.08,0,0,1,1.8,5.15,11.45,11.45,0,0,0-.77,3.35c-.15.45-.37.84-.52,1.29,0,3-1,5-1.67,7.34.12,1.15-.35,1.71-.26,2.83a28.85,28.85,0,0,0-1,3.73,12.76,12.76,0,0,1-.9,4,15.5,15.5,0,0,1-.64,3.73,5.81,5.81,0,0,1-.13,2.7,14.78,14.78,0,0,1,.13,3,15.94,15.94,0,0,0,.51,2.7c0,.89.71,1.74.39,2.58.54.36.71,1.09,1,1.67a15.33,15.33,0,0,1,1.16,1.67,11,11,0,0,1,1.55,1.67,1.17,1.17,0,0,1,.9.64,1.88,1.88,0,0,1,1.16.39c1,.07,1.54,0,2.7,0,.72-.18,1.52-.28,2.19-.51a9.3,9.3,0,0,0,2.19-1.29c.88-.28,1.3-1,2.19-1.29,2.43-2.68,5-5.21,6.7-8.63.45-.79.91-1.58,1.42-2.32a4.45,4.45,0,0,1,.77-1.16c0-.32.2-.4.26-.64.21-.13.09-.6.39-.64,1-1.55,1.63-3.52,2.58-5.15a13.38,13.38,0,0,1,.64-2.32,5.72,5.72,0,0,1,1-2.06,6.94,6.94,0,0,1,.64-3.35c.6-.21.8-.83,1.67-.77.45.15,1,.24,1,.77.28.2.69.94.51,1.16a3.28,3.28,0,0,0,.39,1.29c0,.63-.09,1.38.26,1.67q0,.42-.39.39c.11.36-.18.33-.13.64-.15.37,0,1-.26,1.29a4.16,4.16,0,0,0-.26,1.29c-.39-.13-.23.29-.26.52-.28,0-.06.46-.13.64-1.12,1-1.51,2.69-2.45,3.86-.63,1.48-1.45,2.76-2.06,4.25-.56.47-.61,1.45-1.16,1.93a15.29,15.29,0,0,1-1.29,1.93c-.89,1.26-1.92,2.38-2.83,3.61-.55.48-.91,1.15-1.42,1.67s-1,1.19-1.55,1.67c-.9,1.21-2.26,1.95-3.35,3-.8.23-1.24.82-2.06,1a3.54,3.54,0,0,1-1,.52c-.21.35-1,.1-1,.64a15.61,15.61,0,0,0-2.45.77c-.69-.05-.54.36-1.16.13a5.07,5.07,0,0,1-1.42.26h-.39c-2.74-.18-5.25-.59-7-1.8a10.67,10.67,0,0,1-1.67-1.16,8.82,8.82,0,0,1-1.42-1.42,12,12,0,0,1-2.32-3.35,18.08,18.08,0,0,1-1.67-4c-.57-1.32-.61-3.17-1.16-4.51a4,4,0,0,0-.26-2.19c-.45.32-.37,1.17-.77,1.55a14.41,14.41,0,0,1-.77,1.67,4.73,4.73,0,0,1-.64,1.8,4.4,4.4,0,0,1-.64,1.8c-.36,1.22-1,2.13-1.42,3.35a5,5,0,0,0-.77,1.67,2.61,2.61,0,0,0-.9,1.55c-1,.88-1.67,2.11-2.7,3a11.41,11.41,0,0,1-3.48,2.19,15.8,15.8,0,0,1-4.64-.26c-.85-.1-1.59-.06-2.32-.13a11.22,11.22,0,0,1-4.89-3c-.48-.16-.57-.72-1-.9a4.23,4.23,0,0,0-.9-1.16,12.93,12.93,0,0,0-1.55-2.45,22.9,22.9,0,0,0-1.16-3c.1-.45-.19-.49-.13-.9-.65.1.17-.47-.26-.52,0-.71-.6-.81-.13-1.42-.49-.37-.41.73-.9.77,0,.62-.41.88-.64,1.29-.34,1-1,1.67-1.29,2.7-.45.2-.35.94-.77,1.16-.15.54-.47.9-.64,1.42-.71.62-.89,1.77-1.55,2.45a47.9,47.9,0,0,1-3,5,20.74,20.74,0,0,0-1.55,2.19c-.19.46-.68.6-.77,1.16-.3.38-.75.62-.9,1.16-1.4,1-2.47,2.34-4.12,3.09a10.67,10.67,0,0,1-5.15,2.06c-3.59.27-5.81-.78-8.37-1.8a10.81,10.81,0,0,1-3.09-2.06,21.76,21.76,0,0,1-2.58-2.7c-.62-1.1-1.43-2-2.06-3.09a10.85,10.85,0,0,0-.9-1.67,12.25,12.25,0,0,0-.77-1.93,33.28,33.28,0,0,1-1.8-8.76c-.47-.08-.16.61-.52.64,0,.36-.24.54-.26.9a8.34,8.34,0,0,0-.64,1.67A27.2,27.2,0,0,1,222.3,126c-.13,1.46-.89,2.29-1.29,3.48-.23,1.36-1,2.15-1.29,3.48-1,2.2-1.89,4.46-2.83,6.7s-2.29,4.06-3.22,6.31a16.86,16.86,0,0,1-3.48,3.35c-.78.21-1.75.22-2.58.39a14.94,14.94,0,0,1-6.31-1.93c-.45-.28-.56-.9-1.29-.9a8.13,8.13,0,0,0-1.42-1.67c-.4-.67-.87-1.28-1.29-1.93a10.09,10.09,0,0,1-1-2.19c-.45-.62-.48-1.67-1-2.19-.08-1.6-.7-2.64-.77-4.25-.23-1.46-.29-3.29-.39-4.51.3-8.8,2.27-15.93,4.51-22.79.41-1.87,1.09-3.46,1.55-5.28.68-1.59.86-3.69,1.55-5.28.44-1.83,1-3.56,1.42-5.41a33.67,33.67,0,0,0,.64-6.18,5.64,5.64,0,0,0-.52-1.29,6.38,6.38,0,0,0-1.93-1.8c-.2-.44-1-.29-1.16-.77-.36-.28-.93-.36-1.16-.77-.88-.41-1.56-1-2.45-1.42s-1.26-1.31-2.19-1.67c-.76,5.09-1.68,10.41-2.83,15.45-.81,2.28-1,5.19-1.93,7.34-.33,2.77-1.32,4.86-1.8,7.47-.17,1.37-.68,2.41-.9,3.73-.5,1-.49,2.6-1,3.61-.7,2.39-1.11,5.07-2.06,7.21q-.6,1.72-1.16,3.48c-.32,1.23-.91,2.18-1.29,3.35a24.06,24.06,0,0,1-1.42,3.22c-.43,1.12-1.26,1.83-1.67,3a.7.7,0,0,0-.64.64c-.71.32-1.45.61-2.19.9-1.68-.47-3.12-1.17-4.89-1.55-.5-.23-.75-.71-1.29-.9a5.89,5.89,0,0,0-1.16-1.16,19.54,19.54,0,0,1-2.06-4.51c-.59.18-.54,1-.77,1.55s-.4,1.15-.64,1.67c-.45,1.1-1,2.07-1.55,3.09a30.79,30.79,0,0,1-3.61,5.67,14.16,14.16,0,0,0-2.06,1.67,21.16,21.16,0,0,0-2.06.9c-1.5.09-2.67.5-4.25.51a18.75,18.75,0,0,1-4.64-1.42,14.44,14.44,0,0,1-4-4.25c-1.26-1.53-1.85-3.73-2.45-5.92-.47-.08-.16.61-.52.64a2.54,2.54,0,0,1-.39.9,9.66,9.66,0,0,1-.77,1.67c-.36,1.31-1,2.39-1.42,3.61-1.1,2.25-2,4.67-3.22,6.82-2.12,4.58-4.83,8.56-7.34,12.75.06.53-.35-.12-.39.39-.12.23-.31.38-.39.64-.29.44-.73.72-1,1.16s-.56.9-1,1.16-.54.92-1,1.16a37.37,37.37,0,0,1-4.51,4.12,26.14,26.14,0,0,1-6.05,2.57,2.82,2.82,0,0,1-1.42.39c-.29.44-1.21.25-1.67.52-1.21.08-2.67.59-3.86.26-.29.05.07.75-.52.52.32-.23.21-.24-.13-.39-.5-.2-.27.33-.52.39-.47.13-.06-.63-.64-.39h-.51c0,.22-.15.32-.13,0-.2-.36-.36.4-.9.13q-.5.12-.39-.39c-.39-.09-.38.22-.77.13s.06-.46-.26-.77c-.48-.17-.46.81-.77.39-.4.21-.53-.48-.64-.13a5.77,5.77,0,0,1-1.67-.64.62.62,0,0,1-.77-.39c-.5.06-.46.14-.77-.13S95,169,95,168.71c-.38.15-.48.08-.64-.26-.9.13-1-.58-1.8-.52-.14-.36-.51-.16-.26-.64-.73.19-.88-.12-1.29-.52a4.11,4.11,0,0,1-1.42-.77,15.52,15.52,0,0,1-2.7-1.67c-.75-.66-1.51-1.32-2.32-1.93-.27-.46-.76-.69-1-1.16a1.16,1.16,0,0,1-.52-.52c-.41,0-.21-.56-.64-.52a22.16,22.16,0,0,0-1.93-2.32c-.63-.82-1.14-1.78-1.8-2.58-.36-.33-.39-1-.77-1.29-.21-.52-.56-.9-.77-1.42a29.79,29.79,0,0,0-1.67-2.7.84.84,0,0,1-.13-.64c.26-.42-.73-.18-.26-.39-.12-.44-.48-.64-.64-1-.29-.83-.68-1.55-1-2.32-.72-1.56-1.27-3.28-2.06-4.76-.62-1.65-1.17-3.38-1.8-5-.11-1-.56-1.67-.64-2.7-.2-.36-.19-.93-.51-1.16a2.07,2.07,0,0,0-.39-1.42c-.06-3.16-.88-6.34-1.16-9.66s-.55-6.68-.64-10.17a100.59,100.59,0,0,1,0-10.56c.27-3.4.7-6.64,1.16-9.79.23-2.17.72-4.09,1-6.18a18,18,0,0,1,.64-3c-.08-.68.31-.9.39-1.42-.27-.51.06-1,.26-1.42v-.64c0-.36-.35.31-.26-.26.32-.11.14-.72.64-.64-.11-.58.23-.72.39-1a5.38,5.38,0,0,0-.13-1.55c.56-.34.37-1.43.77-1.93a2.93,2.93,0,0,0,.26-1.16c.3-.18.32-.62.52-.9,0-.55.31-.79.13-1.42.23.32.24.21.39-.13,0-.32,0-.63.26-.64,0-.38,0-.44-.26-.26-.05-.31.24-.28.13-.64.18,0,.15-.37.26-.13s.14-.06.26-.13c.1-1.05.65-1.67.77-2.7.43-.32.13-.88.51-1,0-.63.39-.81.39-1.42.65-1.71,1.17-3.56,1.93-5.15s1.32-3.4,2.06-5c.23-.93.77-1.55,1-2.45a12.72,12.72,0,0,1,1-2.58v-.26h-.39c.61-.42.39-.6.52-1.42.08,0,.15,0,.13-.13a5.19,5.19,0,0,1,1.16-1.93c0-.84.47-1.25.52-2.06,0-.42.5-.27.52-.64s.27-.5.39-.77c.4-1.28,1.18-2.71,1.42-3.73.75-1.61,1.6-3.12,2.32-4.76a2.73,2.73,0,0,0,.64-1.16c.12-.48.66-.54.64-1.16.42-.18.27-.94.77-1-.11-.41.2-.4.39-.51-.11-.41.2-.4.39-.52.09-.52.34-.86.39-1.42.26.15.61-.2.26-.26.11-.19.41-.19.64-.26.22-.6.23-1.4.9-1.55.16-.23.09-.68.39-.77.18-.25.21-.65.52-.77,0-.32.2-.4.26-.64-.4-.09-.17-.34-.13-.64.56-.21.65-.9,1-1.29s.65-.9,1-1.29a11.74,11.74,0,0,1,1-1.29c.19-.19.23-.54.52-.64s.27-.59.64-.64a3.47,3.47,0,0,1,1-1.29c.24-.14.27-.5.51-.64,0-.37.55-.22.52-.64.86-.72,1.73-1.45,2.58-2.19a14.16,14.16,0,0,1,2.58-2.06c.78-.81,1.86-1.32,2.7-2.06a16,16,0,0,1,1.42-.9c.1-.28.61-.17.64-.52.51.08.37-.49.9-.39a3.16,3.16,0,0,1,1.42-.9c.41-.4,1.13-.5,1.55-.9.64-.17,1.44-.19,1.8-.64a7.29,7.29,0,0,0,1.8-.64A9.67,9.67,0,0,1,119,.81c.06-.37,1,.11,1-.26.56.13.71-.14,1-.26.45.29.42-.27.77,0,0,.15.2.14.39.13.41.11.18-.42.52-.39.53-.21-.1.64.26.26.41.06.29-.4.77-.26,4.88,0,8.08,1.71,11.33,3.35C135.15,3.48,135.23,3.53,135.38,3.51Zm-6.05-1.93s-.2.06-.13.13S129.4,1.65,129.33,1.58Zm14.42,10.94s-.2.06-.13.13S143.82,12.59,143.75,12.52ZM237.62,98.8a2.19,2.19,0,0,1,.52-.39c0-.58.68-.52.77-1,.68-.48,1-1.33,1.67-1.8.13-.43.71-.4.64-1,.57,0,.53-.67.9-.9.25,0,.15-.28.26-.39s.23,0,.26,0c.14-.2,0-.35.13-.52a6.78,6.78,0,0,0,.77-1c.36-.2.36-.76.9-.77-.16-.76.78-.42.64-1.16.57,0,.46-.66.77-.9s.47-.73.77-1a27,27,0,0,0,3-4.12c.55-.61.92-1.4,1.42-2.06s1-1.28,1.42-2.06c1-1.35,1.82-2.9,2.83-4.25a79.28,79.28,0,0,0,5-9.14A22.93,22.93,0,0,0,261.57,64c.07-.49.42-.69.52-1.16.28-.32.26-.94.64-1.16.66-1.7,1.59-3.13,2.19-4.89.41-.14.24-.88.52-1.16s.34-.86.51-1.29c.31-.89.74-1.66,1-2.58q1.05-2.49,1.93-5.15c.7-1.62,1.21-3.43,1.8-5.15s1.08-3.64,1.67-5.41c.72-4,2.17-7.27,1.93-12.23a7.72,7.72,0,0,1-.26-1.8,7.58,7.58,0,0,1-.77-2.32,8.27,8.27,0,0,0-1.93-1.93h-.26c-.15,0-.14.2-.13.39-.41.15-.27.85-.64,1-.19.41-.48.72-.64,1.16-.39.21-.5.7-.64,1.16a2.07,2.07,0,0,0-.64,1.16c-.77,1.64-1.69,3.11-2.58,4.64-.59.57-.81,1.51-1.42,2.06a7.5,7.5,0,0,1-1.29,2.32c-.19.41-.48.72-.64,1.16-.32.28-.37.83-.64,1.16a1.38,1.38,0,0,0-.64,1.16,5.22,5.22,0,0,0-.64,1.16c-.66.5-.71,1.61-1.42,2.06-.29.91-.82,1.58-1.16,2.45-.37.23-.41.79-.51,1.29a3.24,3.24,0,0,0-.64,1.16,9.17,9.17,0,0,0-1.16,2.45c-.81,1.55-1.31,3.41-2.19,4.89a9.93,9.93,0,0,1-1,2.58,14.84,14.84,0,0,1-1,2.58c-1.22,3.54-2.89,6.64-4,10.3-.45,1.91-1.29,3.43-1.8,5.28-.71,1.69-1.08,3.72-1.8,5.41-1,3.76-2.45,7.07-3.48,10.82S238.1,95,237.23,98.92C237.31,99.3,237.43,98.73,237.62,98.8Zm61.16-29.74c-.83,0-1.77.51-2.83.64a21.45,21.45,0,0,1-3.48,2.06,35.29,35.29,0,0,0-3,2.58,11.38,11.38,0,0,1-1.16,1.55,6.53,6.53,0,0,1-1.16,1.67,6.23,6.23,0,0,1-.9,1.8,8.81,8.81,0,0,0-1,1.8c-.24.19-.32.54-.64.64,0,.46-.13.82-.52.9a8,8,0,0,1-.9,1.93c-.24.66-.68,1.12-.9,1.8-.11.83-.63,1.26-.9,1.93-.36,1.49-1.34,2.35-1.67,3.86-.73,1.16-1.1,2.67-1.8,3.86-1,4.27-2.22,8.25-2.58,13.13a48.32,48.32,0,0,0,0,7.6c.17,2.31.88,4.65,1.16,6.44a12.8,12.8,0,0,1,1,2.45c.34,0,.33.27.39.52a5.89,5.89,0,0,1,1.16,1.29c.72.14.78.94,1.67.9,1.7-.31,2.62-1.41,3.86-2.19a34.26,34.26,0,0,0,3.86-5.67c.5-1.09,1-2.19,1.55-3.22a5.64,5.64,0,0,1,.64-1.67,4.4,4.4,0,0,1,.77-1.67c.69-2.49,1.78-4.57,2.58-7s1.54-4.9,2.32-7.34a14.72,14.72,0,0,0,.26-2.06c.3-.43.23-1.23.64-1.55a4.29,4.29,0,0,1,.26-1.93,3.69,3.69,0,0,0,.39-1.8c.09-.64.77-.69.64-1.55a36.47,36.47,0,0,0,1.29-7.21c.17-2,.66-4.56.39-5.92,0-.1.13-.43.13-.64a28.85,28.85,0,0,0-1.16-8.24C299.13,68.49,298.82,68.94,298.78,69.05ZM165.9,79.61a2.58,2.58,0,0,0-1,1.29,3.05,3.05,0,0,0-.77,1.55,10.06,10.06,0,0,0-1.55,3.22c-.65.89-1.08,2-1.67,3-.23.55-.32,1.23-.77,1.55-.22.6-.28,1.35-.77,1.67a.74.74,0,0,1-.39.77,1,1,0,0,1-.26.9,12,12,0,0,0-.77,1.55c-.28,1.31-1,2.14-1.29,3.48a25.11,25.11,0,0,0-1.29,3.35,20.24,20.24,0,0,0-1.16,3.61c-.76.79-.69,2.4-1.29,3.35-.24,1.35-.64,2.54-.9,3.86s-.89,2.52-.77,3.61c-.51,1.08-.34,2.83-.77,4-.36,2.77-.74,5.52-1,8.37a28.45,28.45,0,0,0,.64,8c.41.32.46,1,.77,1.42s.51,1,1,1.29a5.87,5.87,0,0,0,2.7,1.93c1.52-.45,2.25-1.7,3.48-2.45.68-1.21,1.51-2.26,2.19-3.48s1.2-2.58,1.93-3.73c.43-1.45,1.12-2.66,1.55-4.12s.9-2.88,1.42-4.25a38.5,38.5,0,0,1,1-8.63c.41-1.27.64-2.71,1-4,.27-.59.27-1.44.64-1.93-.11-.54.25-.61.26-1,.26-.17,0-.9.39-.9a22,22,0,0,1,1.16-3.86,32,32,0,0,0,.77-4.38c.17-1.55,0-3.39.26-4.89.05-1.58,0-3.06,0-4.89a55,55,0,0,0-.9-5.54c-.36-.84-.92-1.49-1.29-2.32-.68-.56-1-1.48-2.06-1.67h-.26A.35.35,0,0,0,165.9,79.61Z" style="fill-rule:evenodd"/><path d="M121.86.29c0-.39.53.12,0,0Z" style="fill-rule:evenodd"/><path d="M136.67,4.54c0-.07.1-.15.13,0Z" style="fill-rule:evenodd"/><path d="M140.79,8.15c.34,0,.33.27.39.52C140.84,8.7,140.75,8.48,140.79,8.15Z" style="fill-rule:evenodd"/><path d="M141.31,8.79c.07-.2.13,0,.13.13S141.3,8.93,141.31,8.79Z" style="fill-rule:evenodd"/><path d="M85.42,33.77c0-.15.13-.07.13,0S85.42,33.84,85.42,33.77Z" style="fill-rule:evenodd"/><path d="M83.36,37.63c-.07-.07.09-.16.13-.13S83.4,37.67,83.36,37.63Z" style="fill-rule:evenodd"/><path d="M83.36,38.66c-.07-.07.09-.16.13-.13S83.4,38.7,83.36,38.66Z" style="fill-rule:evenodd"/><path d="M82.72,40.08c-.07-.07.09-.16.13-.13S82.75,40.12,82.72,40.08Z" style="fill-rule:evenodd"/><path d="M146.2,45.75c-.07-.07.09-.16.13-.13S146.23,45.78,146.2,45.75Z" style="fill-rule:evenodd"/><path d="M80,46.9c0-.15.13-.07.13,0S80,47,80,46.9Z" style="fill-rule:evenodd"/><path d="M79.76,47.68c0-.15.13-.07.13,0S79.76,47.75,79.76,47.68Z" style="fill-rule:evenodd"/><path d="M233,68.41c-.07-.07.09-.16.13-.13S233,68.44,233,68.41Z" style="fill-rule:evenodd"/><path d="M259.77,127.77c-.07-.07.09-.16.13-.13S259.8,127.8,259.77,127.77Z" style="fill-rule:evenodd"/><path d="M85.94,145.67c-.07-.07.09-.16.13-.13S86,145.7,85.94,145.67Z" style="fill-rule:evenodd"/><path d="M105.77,171.29c.07-.2.13,0,.13.13C105.67,171.45,105.63,171.3,105.77,171.29Z" style="fill-rule:evenodd"/><path d="M295.11,222.58c.56-.13,0,.41,0,0Z" style="fill-rule:evenodd"/><path d="M177.8,277.64v.14C177.73,277.78,177.65,277.67,177.8,277.64Z" style="fill-rule:evenodd"/></g></g></svg>