<svg xmlns="http://www.w3.org/2000/svg" viewBox="0 0 277.1 77.59"><title>Brisbane</title><g id="026c6436-808f-4ed0-8ebc-5eb9e4977650" data-name="Layer 2"><g id="b48eb8f6-434a-4b47-9bec-cd4359adbd31" data-name="Layer 1"><path d="M124.15,41.42H124c0,.08.08.16.17.17s.1,0,0,0v-.17c.22.07.22.36.35.52-.13.05,0,.1,0,0,.16.13.07.51.35.52-.28.27-.39-.36-.78-.26a7.6,7.6,0,0,1-.78-.52c-.25,0,.13.14.09.26s-.06,0-.09,0A9.89,9.89,0,0,1,120.76,40a3.24,3.24,0,0,0-.69-1c-.22-.38-.34-.87-.69-1.13.11-.63-.17-.87-.17-1.39,0-.28-.15-.37-.09-.69-.22-.07.06-.64-.26-.61a3.75,3.75,0,0,0,.17-.87c-1,.09-1.55.65-2.43.87s-1.61.65-2.34,1-1.48.72-2.17,1.13-1.41.85-2.17,1.21a28.72,28.72,0,0,0-3.9,2.78,7.61,7.61,0,0,0-1.74,1.56,2.64,2.64,0,0,0-1.13,2.26c.24.6.91.77,1.47,1a20.35,20.35,0,0,0,2,.61H109c2.5-.28,5.11-.44,7.46-.87,1.2-.16,2.61-.27,3.64-.35,1.3-.08,2.46-.07,3.73-.09a13.3,13.3,0,0,1,2.69.43,9.93,9.93,0,0,1,2.26.87,4.33,4.33,0,0,0,1,.78,7.42,7.42,0,0,0,.87,1.3,14.7,14.7,0,0,1,1,4,13.18,13.18,0,0,0-.09,1.91,18,18,0,0,1-.87,3.38c-.11.61-.51.94-.61,1.56a4.44,4.44,0,0,0-.69,1.47A45.24,45.24,0,0,1,126,65a23.05,23.05,0,0,1-4.08,3.21c-.46.15-.71.51-1.21.61-.27.34-.86.35-1.13.69-.61,0-.72.5-1.3.52-.31.29-.94.27-1.3.52A26.41,26.41,0,0,1,111,72a21.46,21.46,0,0,0-2.6-.09,29.8,29.8,0,0,1-3.73-.87,27.75,27.75,0,0,1-5.64-3.64c-.34-.44-.84-.73-1.13-1.21a5.06,5.06,0,0,1-1-1.3,1.85,1.85,0,0,1-.43-.69c-.19,0-.19-.22-.17-.43-.23,0-.22-.18-.26-.35a8.56,8.56,0,0,1-.61-1.74,8,8,0,0,0-.17-1.74c.31-1.08.53-2.25.78-3.38a34.63,34.63,0,0,0,.09-3.73c-.33,0-.25.45-.52.52a1.25,1.25,0,0,1-.43.61,5.32,5.32,0,0,1-.87,1.21c-.59.8-1.31,1.47-1.91,2.26-1.34,1.46-2.73,2.88-4,4.42-1.94,2.25-4,4.37-6.16,6.42a9.28,9.28,0,0,1-2.6,1.65.23.23,0,0,0,0,.43c-.19.21-.53-.16-.69-.26-.47.24-.83.05-1.47.09a3,3,0,0,1-1.3-1.74c-.24-.22-.52-.41-.78-.61-.13-.89-.65-1.37-.61-2.43-.2-.29,0-1-.26-1.21.2-.42,0-.92,0-1.39a12.64,12.64,0,0,0,.09-1.82,19.11,19.11,0,0,1,1.56-5.21c-.17-.19-.46.23-.61.35a2.14,2.14,0,0,0-.69.52,2.3,2.3,0,0,0-1.47.69,24.61,24.61,0,0,1-3.73-1,2,2,0,0,0-.69-.61c-.29-.14-.32-.55-.69-.61,0-.22-.16-.3-.26-.43s-.12-.4-.35-.43a3.76,3.76,0,0,0-.61-1.47c0-.61-.23-1-.26-1.56a7.56,7.56,0,0,1,.26-1.56c.06-.3,0-.6.09-.87s.14-.15.17-.26.05-.33.09-.43c.11-.36.25-.75.35-1,0-.13.12-.21.17-.35.18-.45.32-1,.52-1.39.82-1.73,1.94-3.18,2.86-4.77-.13-.23-.36.15-.43.26a1.22,1.22,0,0,0-.43.43c-.37.21-.55.61-.87.87-.62.54-1.12,1.19-1.74,1.74C66.69,45,65.51,46.2,64.37,47.4a8.63,8.63,0,0,0-1.3,1.3L61.77,50a28,28,0,0,0-2.6,2.69c-.37.21-.48.68-.87.87a1.22,1.22,0,0,1-.43.43c0,.27-.41.23-.43.52a27,27,0,0,0-3.12,3.9c-.07.51-.44.72-.52,1.21-.31.27-.31.84-.61,1.13a22.48,22.48,0,0,1-1.13,2.43c-1.35,3.38-3.15,6.26-3.9,10.15a4,4,0,0,0,.09,1.13c-.18.18-.17,0-.26-.17-.22,0-.27-.13-.35-.26a1.43,1.43,0,0,1-.61-.69c-.36,0-.48-.15-.78-.17-.21-.22-.29-.58-.61-.69a7.11,7.11,0,0,0-.52-.78l-.78-1.82a2.2,2.2,0,0,0-.17-.69,25.79,25.79,0,0,1,.43-6.42c-.18-.19-.3,0-.35.17a.78.78,0,0,0-.35.35c-.26.24-.58.4-.69.78a17.27,17.27,0,0,0-1.39,1.47c-.44.52-1,.88-1.47,1.39a17.76,17.76,0,0,1-1.65,1.21,29.25,29.25,0,0,1-3.38,2.34c-1.19.75-2.45,1.43-3.73,2.08s-2.45,1.37-3.82,1.91-2.85,1-4.25,1.56a73.38,73.38,0,0,1-10,1.56,13.8,13.8,0,0,0-2-.09,21.66,21.66,0,0,1-4.42-1,10.57,10.57,0,0,1-1.82-.87c-.65-.25-1-.84-1.56-1.13a5.56,5.56,0,0,0-1.13-1.3A5.05,5.05,0,0,0,1.3,72c0-.24-.25-.34-.35-.52s0-.32-.09-.52c0,0-.14-.11-.17-.17-.2-.41-.23-.84-.43-1.21-.73-3.44.25-6.9,1-9.72s1.88-5.58,2.86-8.33A28.89,28.89,0,0,1,5.46,47.4,26,26,0,0,1,7,43.32c.48-1.37,1.16-2.54,1.65-3.9.37-.56.62-1.23,1-1.82s.64-1.27.87-2c.62-1.24,1.17-2.53,1.82-3.73s1.3-2.46,2-3.64a78.73,78.73,0,0,1,4.08-7.11c.45-.48.62-1.23,1.13-1.65.26-.67.81-1,1-1.74.5-.43.73-1.12,1.21-1.56.33-.63.9-1,1.21-1.65.82-1,1.66-2,2.43-3.12a17,17,0,0,0,1.3-1.47,4.37,4.37,0,0,0,1.13-1.74,6,6,0,0,0-2.17.52c-.48,0-.59.33-1.13.26s-.57.36-1.13.26a19.62,19.62,0,0,0-4.08,1.39,16.78,16.78,0,0,0-3.64,1.82,12,12,0,0,0-1.65,1.13c-.6.32-1,.82-1.65,1.13-.06.37-.51.36-.61.69a.78.78,0,0,0-.35.35c-.1.13-.36.1-.35.35a4.69,4.69,0,0,0-1.39,1.39,16.64,16.64,0,0,0-2.43,3.12,17.92,17.92,0,0,0-2.86,8.16,9.47,9.47,0,0,0,.35,1.56,9.1,9.1,0,0,0,1.13,1.3c.24.21,0,.38.26.61s.07.35.26.61a1.76,1.76,0,0,1,.43.61c.09.08,0,.32.26.26-.08.18.44.17.17.26s-.5.27-.17.35c0,.14-.12.23-.17.09a.44.44,0,0,1-.26-.26c-.23-.09-.29-.35-.43-.52-.4-.27-.64-.69-1-1-.25-.64-.82-1-1-1.65a7.24,7.24,0,0,1-1-1.65,11.2,11.2,0,0,1-1.3-4.16V23a17.77,17.77,0,0,1,1.47-6.07,41.21,41.21,0,0,1,2.95-4.68c.32-.29.58-.63.87-1,.09-.23.34-.29.43-.52A1.62,1.62,0,0,0,8,10.27a2.22,2.22,0,0,0,1-1,12.79,12.79,0,0,1,1-.87c.58-.69,1.46-1.09,2.08-1.74.37-.27.79-.49,1.13-.78s.85-.42,1.13-.78a3.72,3.72,0,0,0,1.21-.61,7.25,7.25,0,0,0,1.3-.61l2.69-1.13c2-.5,3.92-1.17,5.9-1.74A51.78,51.78,0,0,1,32,0c2.52,0,4,0,6.59,0A7.3,7.3,0,0,0,40,.2c1.36.57,3.21.67,4.68,1.13,1.32.62,3,.89,4.34,1.47s2.66,1.21,3.82,2S55.1,6.47,56.3,7.23A6.17,6.17,0,0,0,57,8a.78.78,0,0,0,.35.35c.08.18.11.41.35.43a9.37,9.37,0,0,1,1.21,1.82A10.06,10.06,0,0,1,60.55,15c-.07,3.75-1.6,6-2.86,8.59a.31.31,0,0,0-.26.43c-.17.06-.23.23-.26.43a5,5,0,0,0-.61.87c-.42.54-.83,1.08-1.21,1.65-.87,1.07-1.7,2.17-2.6,3.21-1.79,2-3.68,4-5.64,5.81-.52.44-.93,1-1.47,1.39a3.44,3.44,0,0,0-.69.69c-.18.05-.28.18-.43.26,0,.25-.37.15-.35.43-.4.07-.46.47-.78.61a6.21,6.21,0,0,0-.78.69,10.56,10.56,0,0,0-1.65,1.3,11,11,0,0,1,3.3,1,13,13,0,0,1,1.39.78c.31.41.81.63,1,1.13a7.72,7.72,0,0,1,1.82,2.52,5.71,5.71,0,0,1,.61,1.56A11.63,11.63,0,0,0,49.62,50c.28,0,.21-.31.35-.43s.19-.39.35-.52a8.63,8.63,0,0,1,.61-1.13c.46-.7.86-1.45,1.3-2.17s.82-1.44,1.3-2.08c.35-.81.93-1.38,1.3-2.17a41.52,41.52,0,0,1,3-3.82c.53-.6,1.1-1.16,1.65-1.74.32-.26.62-.53,1-.78,0-.25.3-.28.43-.43.14,0,0-.24.17-.26s.14.21.17.09c.41,0,.13.08.17.35.35.12.27-.19.52-.17a.39.39,0,0,0,.09.52c.13-.12.34-.13.26.17s.23,0,.35,0,.26.41.26.09c.16.15.06.57.43.52,0,.27.27.2.17.52.14.12.3.22.35.43a21.32,21.32,0,0,1-.69,4.95c-.77,1.16-1.15,2.73-2,3.82.13.23.36-.15.43-.26.51-.38.87-.92,1.39-1.3a21,21,0,0,1,1.91-1.74C66,41.21,67.21,40,68.45,38.81s2.5-2.3,3.82-3.38a11.66,11.66,0,0,1,2-1.56c.6-.62,1.51-.92,2.08-1.56.08.21.62.49.69.17.2.18-.1.37.17.52s.22-.34.35,0c.08.15.24.22.52.17.1.25.16.53.43.61a2.75,2.75,0,0,0,.52.61.71.71,0,0,0,.17.52,30.74,30.74,0,0,1-.17,3.3,30.6,30.6,0,0,1-1.65,3.9c-.64,1.24-1.36,2.4-2.08,3.56-1.33,2.48-2.85,4.64-3.38,7.72,0,.85.13,1.67.69,2a5.39,5.39,0,0,0,2.43-1,6.14,6.14,0,0,0,2-1.47,10.65,10.65,0,0,0,3.21-3.82c.5-.65.94-1.37,1.47-2a4.44,4.44,0,0,1,.78-1c.11-.47.56-.59.69-1a44.61,44.61,0,0,1,3.3-3.73c.1-.21.33.18.43-.09s.49,0,.69-.09a5.47,5.47,0,0,1,1.56,1c0,.18.23.17.35.26-.16.15,0,.27.17.35a4.33,4.33,0,0,1,.52.87c-.45,1-.83,2-1.21,3-.56.86-.77,2.07-1.47,2.78a.84.84,0,0,1-.35.69,1.12,1.12,0,0,1-.26.78c-.32.4-.46,1-.78,1.39-.15.57-.59.86-.78,1.39,0,.34-.28.42-.35.69s-.37.38-.43.69c-.28.42-.4,1-.78,1.3A9.66,9.66,0,0,1,83,57.81a9.73,9.73,0,0,1-.78,1.39c-.18.54-.57.87-.69,1.47-.38.32-.45.93-.78,1.3-.18.55-.46,1-.61,1.56a10.46,10.46,0,0,0-1,3.38c.21.2.35-.39.61-.43s.41-.46.69-.61c.4-.47.89-.85,1.3-1.3.84-.9,1.62-1.85,2.52-2.69.37-.49.83-.9,1.21-1.39s.79-.95,1.21-1.39c.8-.93,1.53-1.94,2.34-2.86s1.51-1.91,2.17-2.95,1.48-2,2.26-2.95,1.4-2.07,2.17-3a7.21,7.21,0,0,1,1.13-1.47c.07-.37.36-.51.52-.78s.24-.62.52-.78a21.41,21.41,0,0,1,.69-3.9,18.1,18.1,0,0,1,1.3-1.65,20.79,20.79,0,0,1,1.39-1.65,24.61,24.61,0,0,1,3.3-2.78A28.45,28.45,0,0,1,108.27,32a14.56,14.56,0,0,1,2-1,9.58,9.58,0,0,1,2.08-1,2.07,2.07,0,0,1,1-.43,2.74,2.74,0,0,1,1-.43,11.44,11.44,0,0,1,2.26-.78,16.54,16.54,0,0,1,2.43-.61,17.2,17.2,0,0,1,2.34-.69,64.76,64.76,0,0,1,10-2.17h2.26c.34,0,.42.15.78.09s.75-.11.78.17c.33.07.19-.33.43-.35s.37-.33.52-.17c-.13.39.57,0,.43.35s.41.11.35.43a.8.8,0,0,0,.61.26,1.2,1.2,0,0,0,.52.87c0,.13,0,.32.09.35a6,6,0,0,1-.09,1.3.83.83,0,0,0-.35.61,19.93,19.93,0,0,1-6.16,4.95c-2.39,1.34-5.09,2.37-6.94,4.25a7.19,7.19,0,0,1-.61,1.13c0,.36-.15.48-.17.78A3.45,3.45,0,0,0,124.15,41.42ZM22,42.2c.42-.27,1.06-.33,1.47-.61A3.63,3.63,0,0,0,25,41a5.47,5.47,0,0,0,1.47-.61,5.44,5.44,0,0,0,1.39-.69,53.26,53.26,0,0,0,10.32-6.33c.78-.61,1.46-1.32,2.26-1.91s1.53-1.24,2.17-2a57.36,57.36,0,0,0,4.25-4.08,7.06,7.06,0,0,1,1-1,2.52,2.52,0,0,0,.43-.61c.32,0,.32-.37.61-.43,0-.34.42-.27.43-.61.27-.08.28-.41.52-.52.22-.47.67-.72,1-1.13a11.5,11.5,0,0,1,1-1.13c.07-.28.32-.38.43-.61s.37-.32.43-.61c.74-.67,1.11-1.73,1.82-2.43a2.66,2.66,0,0,1,.09-.61c0-.11.14-.08.17-.17s0-.3,0-.43a3.07,3.07,0,0,0,.26-1.3c-.18-.6-.7-.86-.87-1.47a1.27,1.27,0,0,1-.78-.52c-.4-.07-.6-.33-1-.43s-.55-.38-.87-.52-.69-.24-1-.43c-.71-.22-1.19-.66-1.91-.87a18.46,18.46,0,0,1-2.08-.69A17,17,0,0,1,44,8.27C43,8.18,42.16,8,41.21,7.93c-1.78,0-3.8-.3-5.55-.35,0-.05,0-.1-.09-.09v.26c0,.28-.15.37-.09.69A42.44,42.44,0,0,1,33.22,13a49.39,49.39,0,0,1-2.78,4.16q-.28.59-.61,1.13c-.34.23-.37.79-.69,1-.11.47-.47.69-.61,1.13s-.48.68-.69,1C27,23,26.1,24.43,25.24,25.89s-1.69,2.88-2.6,4.25c-.39.77-.92,1.4-1.3,2.17s-.83,1.49-1.3,2.17c-.78,1.53-1.65,3-2.43,4.51C17,40.68,16,42,15.44,43.76A42.59,42.59,0,0,0,22,42.2Zm21.08,4.34c-.61.07-1-.14-1.47,0,0-.15-.11,0-.26,0a32.11,32.11,0,0,0-5.29.61,8.57,8.57,0,0,1-1.91.61c-.5-.1-.47.34-1,.26-.29.14-.64.23-1,.35-.64.2-1.28.4-1.91.61a6.2,6.2,0,0,1-2,.61c-.19.3-.72.27-1,.52-.41.11-.7.34-1.13.43-.67.37-1.55.53-2.26.87-1.42.67-3.12,1-4.42,1.82a2.58,2.58,0,0,0-1,.52c-.53,0-.67.37-1.13.43-.26.26-.72.32-1,.52s-.57.47-1,.52a22.36,22.36,0,0,1-2,1.13,9.59,9.59,0,0,1-2.08,1,.5.5,0,0,1-.61-.09c-.17-.13-.63,0-.87.09a7.4,7.4,0,0,0-.61,1.39c-.13.53-.41.92-.52,1.47-.44.89-.72,1.94-1.13,2.86-.66,2-1.31,4.07-1.82,6.25a15.91,15.91,0,0,0,4.6.61A34.88,34.88,0,0,0,16,69.44c.83-.27,1.84-.35,2.69-.61.32.06.37-.15.69-.09-.11-.39.44.15.52-.17.55,0,.84-.26,1.39-.26a26.17,26.17,0,0,0,4.69-1.91,40.24,40.24,0,0,0,4.34-2.26,38,38,0,0,0,4.08-2.52c.38-.17.57-.53,1-.69s.66-.44.87-.78a8.47,8.47,0,0,0,1.74-1.56,19.31,19.31,0,0,0,3.21-3.38c.32-.23.39-.71.78-.87,0-.26.18-.34.26-.52s.09-.48.43-.43c0-.55.46-.64.52-1.13.35-.2.41-.69.69-1a19.8,19.8,0,0,0,.61-2.26c.14-.69.58-1.64.17-2.34C44.31,46.44,43.64,46.56,43.12,46.53ZM114,49.31a30.6,30.6,0,0,0-5.64.61,3,3,0,0,0-1.56-.09c-.27-.1-.65-.1-.87-.26-.49.06-.72-.15-1.21-.09a12.63,12.63,0,0,1-4.77-2c-.17,0-.22.19-.43.17a34.44,34.44,0,0,0-2.69,4.08c.25,0-.07.53.17.52,0-.13,0-.32.09-.35A10.18,10.18,0,0,1,96.91,54c.13,0,.08.21.09.35a13.46,13.46,0,0,0,1.91,3.38c.23.64.78,1,1.13,1.47.59.31.9.89,1.56,1.13A13.67,13.67,0,0,0,105,62.24a27.26,27.26,0,0,0,4.34.87c1.26-.07,2.46-.2,3.64-.35.8-.41,1.94-.48,2.78-.87a12.94,12.94,0,0,0,1.3-.52,5.24,5.24,0,0,0,1.21-.61,14.31,14.31,0,0,0,4.34-2.95.49.49,0,0,1,.35.09c0-.38.28-.48.35-.78.43-.18.56-.65,1-.87a8,8,0,0,1,.78-1.13c.27-.37.37-.9.78-1.13,0-.66.39-1,.43-1.65V50.87A3.5,3.5,0,0,0,125,48.79c-.4,0-.66-.21-1-.26H121c-1.38.19-3,.15-4.16.43-.62-.1-1.11.2-1.56,0,.09.29-.27.14-.43.17,0,.2-.48,0-.43.26.15,0,.51-.1.52.09-.36,0-.54.15-1,.09C114,49.44,114.36,49.3,114,49.31Zm-64.38,1a.09.09,0,0,0-.17,0C49.47,50.37,49.55,50.32,49.62,50.26Z" style="fill:#fff;fill-rule:evenodd"/><path d="M146.27,41.68c.29-.06.29-.4.61-.43s.2-.49.52-.52c.19-.48.62-.71,1-1,.75-.61,1.49-1.23,2.17-1.91.4,0,.31-.39.61-.43-.06-.24.41.06.35-.17s.07-.28.26-.26,0-.32.26-.26.06-.29.26-.26c.16-.15.4-.23.52-.43a7.8,7.8,0,0,0,1.13-.87c.33,0,.38-.31.69-.35,0-.35.37-.27.43-.52,1.69-1,3.12-2.26,4.95-3.12a15.64,15.64,0,0,1,5.9-2.17c.33.15.57-.15.61.26.2-.12.33.22.35,0s.15-.22.17-.09.12.17.26.17v.43c.43-.05.46.29,1,.17a2.82,2.82,0,0,0,.52,1,6.92,6.92,0,0,0,.61.87c.3.65.63,1.27,1,1.91.15,1.12.43,2.12.52,3.3v1a31,31,0,0,1-1.39,6.42c-.21.46-.37,1-.61,1.39a4.16,4.16,0,0,1-.61,1.3c-.13.53-.48.85-.61,1.39s-.41.86-.61,1.3a45.25,45.25,0,0,1-6.42,9.11c-.12.23-.35.34-.52.52s-.37.4-.61.61c-.55.48-1.2,1.26-1.82,1.82-.25.23-.48.46-.78.69s-.51.45-.78.69a29,29,0,0,1-3.73,2.95c-.46.2-.76.57-1.21.78s-.84.44-1.21.69c-.88.42-1.75.85-2.69,1.21A18.07,18.07,0,0,1,141,70a11.06,11.06,0,0,1-4.6-1c-.52-.55-1.1-1-1.56-1.65-.44-.17-.37.4-.61.17.06-.27-.3-.11-.17-.43-.27-.06-.32.09-.52.09,0-.18,0-.75-.17-.43-.22,0-.17-.29-.17-.52a6.07,6.07,0,0,0-.69-.26c-.07-.54-.54-.67-.78-1a20.54,20.54,0,0,1-.43-3.56c-.1-.54-.41-.86-.35-1.56.1.1.16.25.43.17.32-1.35.45-2.9.87-4.16a13.13,13.13,0,0,1,.52-2c.3-.59.17-1.2.61-1.74A41.82,41.82,0,0,1,136,44.89a110.3,110.3,0,0,1,6.59-13.36c.6-1.08,1.3-2.06,1.82-3.21a32.77,32.77,0,0,0,1.91-3.12c.43-.41.62-1.06,1-1.47a15.4,15.4,0,0,1,1-1.47,9.44,9.44,0,0,1,1-1.56,5.81,5.81,0,0,1,1-1.47,6.53,6.53,0,0,1,1-1.56,15.06,15.06,0,0,1,1-1.56c.3-.54.67-1,1-1.56a12.79,12.79,0,0,0,1-1.47,7.88,7.88,0,0,0,1-1.56c.37-.06.31-.55.61-.69s.23-.58.43-.78.3-.57.52-.78.42-.39.52-.69a15.88,15.88,0,0,0,1-1.47,3.91,3.91,0,0,1,.17-1,.24.24,0,0,1,.17-.26c.35,0,.48.15.87.09.06.17.23.23.43.26s.3.39.61.43c.48.65,1,1.25,1.47,1.91,0,.14,0,.33.09.35,0,1.13,0,1.59,0,2.78a5.58,5.58,0,0,0-.17,1.47,24.19,24.19,0,0,1-1.47,4.08,8.37,8.37,0,0,1-.87,1.91,6.68,6.68,0,0,1-1,1.74c-.58,1.27-1.32,2.38-2,3.56-.34.58-.71,1.14-1,1.74a6.61,6.61,0,0,1-1,1.65,14.5,14.5,0,0,1-1,1.74c-.13.33-.42.5-.52.87a3.89,3.89,0,0,0-.52.87,9.91,9.91,0,0,0-1,1.74c-.42.48-.66,1.13-1,1.65C148.9,37,147.46,39.19,146.27,41.68Zm19.43-9.28a19.84,19.84,0,0,0-4.95,2.69,46.65,46.65,0,0,0-4.42,3.3c-.74.53-1.39,1.15-2.08,1.74s-1.34,1.21-2,1.82-1.3,1.25-2,1.82c-1.32,1.26-2.6,2.54-3.9,3.82-.64.63-1.14,1.41-1.82,2a55,55,0,0,0-3.38,4.34c-.61.66-1,1.52-1.65,2.17.09.41-.35.29-.26.69-.23.09-.12.51-.35.61a4.92,4.92,0,0,1-.69,1.3c-.64,1.93-1.66,3.49-2.26,5.47.78,0,1.55,0,2.52,0a24.24,24.24,0,0,0,9.2-3.73c1.38-.79,2.44-1.9,3.73-2.78.11-.15.18-.34.43-.35s.11-.41.35-.43c.34-.21.53-.57.87-.78a43.65,43.65,0,0,0,7.46-8.85,28.62,28.62,0,0,0,2.6-3.9,20,20,0,0,0,1.13-2.08c.15-.39.39-.71.52-1.13.32-.23.27-.83.61-1,.26-1.39.76-2.54,1-4a11,11,0,0,0-.17-2.78H166C165.86,32.31,165.85,32.42,165.71,32.39Z" style="fill:#fff;fill-rule:evenodd"/><path d="M98.9,23.63a.09.09,0,0,1,0,.17c0,.19.46,0,.52.17.36,0-.12.27.35.17.11.09.32.09.43.17-.13.33.24.17.17.43-.25,0,.13.14.09.26s.33.19.52.26c-.07.06-.19.48,0,.52a15.78,15.78,0,0,1-1.65,3.9c0,.45-.42.5-.43,1-.15.08-.14.32-.35.35s0,.47-.26.43c-.24.68-.73,1.12-1,1.82-.35.09-.43.44-.61.69s-.37.44-.52.69a20.32,20.32,0,0,1-2.52,2,5.18,5.18,0,0,0-1.91.35c-.31-.07-.32-.43-.61-.52-.06-.32-.33-.42-.43-.69.06-.35-.11-.92.09-1.13a3.45,3.45,0,0,1-.43-1c0-.34.15-.42.09-.78.52-.82.75-1.91,1.47-2.52,0-.36.27-.43.26-.78.34-.13.42-.51.61-.78a7.6,7.6,0,0,1,.52-.78c.3-.57.73-1,1-1.56.78-.37,1.2-1.11,1.91-1.56a2.52,2.52,0,0,1,1.13-.61c.23-.32.77-.33,1.21-.43.08,0,.16-.08.17-.17Z" style="fill:#fff;fill-rule:evenodd"/><path d="M275.28,55.3A32.7,32.7,0,0,1,270.94,60a8.3,8.3,0,0,1-1.13,1c-.23-.06-.17.18-.26.26s-.32.08-.35.26c-.23.14-.38.37-.61.52-.86.61-1.69,1.26-2.52,1.91a29.47,29.47,0,0,1-5.55,3.3,21.24,21.24,0,0,1-7,1.82H252a11.53,11.53,0,0,1-3.47-.87,10.37,10.37,0,0,1-2.78-1.56c-.57-.71-1.25-1.29-1.82-2s-1.1-1.5-1.65-2.26c.06-.44-.3-.51-.09-.87a10,10,0,0,1-.78-1.65,6.29,6.29,0,0,1-.61-1.91,18.42,18.42,0,0,1-.52-4.42c-.25,0-.28.3-.43.43a4.1,4.1,0,0,1-.43.43,6.53,6.53,0,0,1-.87,1c-.54.65-1.16,1.22-1.65,1.91a3.3,3.3,0,0,0-.87.87c-.94.85-1.79,1.8-2.78,2.6a17.65,17.65,0,0,1-1.91,1.65c-.24.34-.67.48-1,.78s-.77.44-1,.78c-.71.47-1.4,1-2.17,1.39-.48.1-.74.41-1.3.43a1.35,1.35,0,0,1-.69.17c-.17.15-.71-.08-.61.35q-.28,0-.26-.26h-.52a4.71,4.71,0,0,0-.87-.17c-.15-.05-.14-.26-.26-.35s-.3-.16-.43-.26-.54-.33-.78-.52a6.54,6.54,0,0,1-.78-2.69,9.52,9.52,0,0,1-.69-2.78c-.06-.64.14-1,.09-1.65a15.44,15.44,0,0,1,.69-2.6c.2-.93.69-1.56,1-2.43A15.6,15.6,0,0,1,223,50.52a6.87,6.87,0,0,1,1.3-2.08c.78-1.44,1.91-2.54,2.78-3.9.55-.55,1-1.22,1.56-1.74.33-.79,1.21-1,1.39-2-.31-.16-.62.42-1,.43-.25.32-.76.4-1,.69a20.32,20.32,0,0,0-2.26,1.21q-2.08,1.34-4,2.86a34.93,34.93,0,0,0-3.73,3.12c-.68.47-1.18,1.13-1.82,1.65-.48.67-1.31,1-1.82,1.65a5.35,5.35,0,0,0-1.3,1.21c-1.31,1.34-2.65,2.56-3.9,3.9a11.38,11.38,0,0,0-.78,1c-.24.33-.62.53-.78,1a35,35,0,0,0-3.21,3.64c-.17.41-.52.63-.69,1s-.38.78-.69,1c-.35.8-.62,1.7-1.47,2-.61,0-.59-.57-1.21-.52-.07-.3-.26-.49-.35-.78-.34.11-.18-.29-.52-.17a.78.78,0,0,0-.35-.35c-.24-.23-.48-.45-.69-.69a8.68,8.68,0,0,1-.35-2.95,12.74,12.74,0,0,0,.26-2.34,7.78,7.78,0,0,0,.69-1.74c.35-.46.54-1.08.87-1.56.51-1.11,1.22-2,1.74-3.12,0-.09-.11-.07-.09.09a.24.24,0,0,0-.26.17c-.16.13-.22.36-.43.43-.19.36-.61.49-.78.87-.63.5-1,1.28-1.65,1.74-.12.41-.51.6-.78.87s-.51.58-.78.87c-.49.64-1.17,1.09-1.65,1.74-.36.18-.53.57-.87.78s-.57.53-.78.87c-.72.4-1.11,1.15-1.82,1.56a43.23,43.23,0,0,1-3.47,3.21c-.91.16-1.37.77-2.17,1q0-.28-.26-.26c-.1-.1-.16-.25-.43-.17s-.15-.37-.26-.52a3.4,3.4,0,0,1-.87-.26c-.06-.37-.5-.37-.69-.61a9.29,9.29,0,0,1-.87-1.82,17,17,0,0,1,.26-5c-.2-.21-.23.14-.43.17a1.22,1.22,0,0,1-.43.43,4.91,4.91,0,0,0-.87.87c-.41.14-.59.51-1,.69s-.61.55-1,.78c-.48.64-1.28,1-1.82,1.56-.37.18-.61.49-1,.69-.31,0-.17.41-.52.35-.06.23-.4.18-.43.43-1.3,1-2.61,1.9-4,2.78-.66.47-1.41.84-2.08,1.3s-1.66.66-2.34,1.13c-.41-.06-.6.1-1,.09-.14.21-.76-.07-.78.26-.28.08-.12-.29-.35-.26s-.41.28-.87.17c-.29,0-.25-.38-.52-.43a.7.7,0,0,0-.52-.52c-.09-.32-.09-.72-.35-.87a11.87,11.87,0,0,0-.43-2.26,20.46,20.46,0,0,1,1-7.2,17.64,17.64,0,0,1,1.13-3,16.27,16.27,0,0,1,1.39-2.78,16.89,16.89,0,0,1,1.47-2.6,13.54,13.54,0,0,1,.78-1.3,6.87,6.87,0,0,1,.78-1.3,7.37,7.37,0,0,0,.43-.61.44.44,0,0,1,.26-.26c-.17-.2,0-.1.09-.26a7.81,7.81,0,0,0,.87-1.21c.69-.7,1.24-1.54,1.91-2.26,1.25-1.5,2.57-2.93,3.9-4.34s2.85-2.7,4.34-4,3.07-2.48,4.77-3.56a17.9,17.9,0,0,1,2.69-1.47c.86-.52,2-.76,2.95-1.21a12.35,12.35,0,0,0,2.17-.35h1.3c.53.16,1,.43,1.47.61a15.08,15.08,0,0,1,1.13,1.39c.42.44.72,1,1.13,1.47a.83.83,0,0,0,.26.69,4,4,0,0,0,.17,1.13,16.88,16.88,0,0,1-1.21,5.9c0,.19.48.08.43-.09.17.16.14.32.43.17a1.16,1.16,0,0,0,.87.52c-.07.28.14.27.17.43.24-.12.22.46.35.17.08.32.34.47.43.78s.43.38.35.87c.17.35-.2.58-.35.87s-.21.71-.43,1q-.5.89-1,1.82a10.87,10.87,0,0,0-1.3,2.43,6.32,6.32,0,0,0-1,1.65,2.38,2.38,0,0,0-.43,1,4.64,4.64,0,0,0-.61.78c-.62,1.23-1.48,2.22-2.17,3.38-.39.5-.74,1.05-1.13,1.56-.14.32-.46.46-.52.87a2,2,0,0,0-.61.78,10.87,10.87,0,0,0-1.13,1.65c-.3.17-.3.63-.61.78,0,.41-.45.48-.52.87.28-.12.42-.38.69-.52.73-.85,1.6-1.61,2.34-2.34a8.15,8.15,0,0,0,.78-.87,5.21,5.21,0,0,0,1.21-1.3c.34-.07.39-.42.61-.61s.41-.46.69-.61a9,9,0,0,1,1.21-1.3c.17-.24.35-.46.52-.69a4.17,4.17,0,0,0,.61-.69c.51-.32.77-.91,1.3-1.21a20.85,20.85,0,0,1,2.43-2.6c.82-.86,1.62-1.74,2.43-2.6.28-.56.81-.87,1.13-1.39a9.78,9.78,0,0,0,1.13-1.39,23.71,23.71,0,0,0,2.34-2.69c.2.15.48.22.61.43.11-.34.54.15.61-.26.16,0,.05.29.17.35,0,.27.25-.22.26.09.24.26.43,0,.69.26l.35.69c.24.1.24.45.43.61.2.84.36,1.72.61,2.52a11.28,11.28,0,0,1-.35,2.43c0,.93-.45,1.4-.52,2.26.14.19.31-.32.52-.35s.41-.28.52-.52a28.34,28.34,0,0,0,2.08-2.08c.49-.23.72-.73,1.21-1,.69-.7,1.43-1.35,2.17-2s1.62-1.21,2.34-1.91c.91-.48,1.62-1.16,2.52-1.65s1.8-1,2.78-1.47A17.33,17.33,0,0,1,228,37.68a9.36,9.36,0,0,1,3.12-1.13,2,2,0,0,1,1,.43c.28-.08.12.28.26.35s.16.3.26.43c.29.14.38.49.69.61.27.59.63,1.1.87,1.74,0,.1,0,.25.09.26a17.58,17.58,0,0,1-.35,3.82c-.38.69-.58,1.56-1,2.26s-.69,1.45-1,2.17a36,36,0,0,1-2.43,4.08c-.69,1.45-1.61,2.67-2.26,4.16a9.39,9.39,0,0,0-1.13,2.08c-.37.73-.5,1.7-.87,2.43,0,.61-.16,1.06-.17,1.65.18.26.35-.22.61-.17.15-.16.37-.27.52-.43a2.59,2.59,0,0,0,1.13-.87,13.88,13.88,0,0,0,2.26-1.65c.61-.69,1.42-1.18,2-1.91s1.48-1.18,2-2a5.1,5.1,0,0,0,1-1c.33-.34.71-.62,1-1,.67-.67,1.24-1.42,1.91-2.08,1.32-1.32,2.63-2.64,3.82-4.08.23-.7.5-1.35.69-2.08.38-.57.52-1.39,1-1.91,0-.42.33-.6.43-1s.3-.69.61-.87a12.33,12.33,0,0,1,1-1.82c.93-1,1.64-2.18,2.6-3.12s1.77-2,2.69-3,1.87-1.95,2.95-2.78c.44-.51,1.11-.8,1.56-1.3.67-.29,1.07-.84,1.74-1.13.21-.26.59-.34.87-.52s.53-.45,1-.52a5.41,5.41,0,0,1,1.91-1,26.25,26.25,0,0,1,4.34-1.39c.88.06,1.94-.1,2.95,0,.79.14,1.29.56,2.08.69a.78.78,0,0,0,.69.52A3.26,3.26,0,0,0,271.2,28c.18.71.54,1.25.69,2a16.27,16.27,0,0,1,.43,2.26v1.65a18.56,18.56,0,0,1-1.74,6.33,26.52,26.52,0,0,1-3.21,4.95q-.92,1.11-1.91,2.17a22.82,22.82,0,0,1-2.17,1.91A12,12,0,0,1,261,51c-.11.21-.46.17-.61.35a1.54,1.54,0,0,1-.69.35c-.32.37-1,.4-1.3.78-.91.13-1.52.56-2.43.69a16.76,16.76,0,0,1-2.69.35,8.9,8.9,0,0,1-1.56-.35c-.58-.17-.87-.63-1.56-.69-.21-.23-.34-.52-.69-.61a3.75,3.75,0,0,0-1-1.13,2.74,2.74,0,0,0-.87-1.21,15.59,15.59,0,0,0-1.3,3.82A21.52,21.52,0,0,0,246,58a8,8,0,0,0,.69,2.78A10.45,10.45,0,0,0,247.87,63a12.06,12.06,0,0,0,3.38,3.56c3.54,0,5.64-1.42,8.07-2.52a6.9,6.9,0,0,1,1.56-1c.47-.42,1.12-.68,1.56-1.13a6.85,6.85,0,0,0,1.56-1c.22-.21.54-.33.69-.61a2.23,2.23,0,0,0,.78-.61c1-.76,1.9-1.62,2.86-2.43s1.71-1.82,2.69-2.6c.75-1,1.68-1.85,2.34-2.95.44-.43.71-1,1.13-1.47a1.29,1.29,0,0,0,.52-.78c.35-.11.34-.58.78-.61.28,0,.42.1.43.35s.37.15.35.43c-.24.11.27.18.17.43.2.06.13.39.35.43-.12.11-.09.38-.09.61a10.68,10.68,0,0,1-.87,2.17,16.17,16.17,0,0,1-1,2C275.13,55.28,275.18,55.31,275.28,55.3ZM267.91,29.7c-.73.23-1.38.52-2.17.69-.35.2-.57.52-1.13.52-.28.41-.83.56-1.21.87a6,6,0,0,0-1.21,1c-.35-.07-.51.21-.69.35a4.4,4.4,0,0,0-.61.52c-.46.27-.73.72-1.3.87-.32.72-1.11,1-1.56,1.56a25.74,25.74,0,0,0-3.12,3.12,8.33,8.33,0,0,0-1.47,1.65c-1.08,1-1.87,2.29-2.86,3.38-.34.7-.89,1.19-1.21,1.91a8.28,8.28,0,0,0-1.13,2.08c.26.09.36.33.61.43a4.35,4.35,0,0,0,.87.26,21.58,21.58,0,0,0,2.69-.35,24.36,24.36,0,0,0,10.32-7.29,13.81,13.81,0,0,0,1-1.21,1.23,1.23,0,0,0,.52-.61c.17-.21.47-.28.43-.69.33,0,.25-.45.52-.52a1.34,1.34,0,0,1,.52-.61c0-.37.31-.44.43-.69s.17-.58.43-.69A16.75,16.75,0,0,0,268,33.26a6.58,6.58,0,0,0,.52-1.65,3.38,3.38,0,0,0,.26-1.82C268.61,29.64,268.2,29.73,267.91,29.7ZM167.09,66.49c.25-.07.24-.4.52-.43a7.66,7.66,0,0,1,1.13-.78c.23-.4.88-.4,1-.87.47-.19.71-.62,1.21-.78.64-.63,1.45-1.1,2.08-1.74s1.4-1.2,2.17-1.74,1.31-1.23,2-1.82c.12-.2.36-.28.52-.43s.39-.25.52-.43c.23-.44.73-.6,1-1a12.08,12.08,0,0,0,2-1.91,21.58,21.58,0,0,0,2-1.91c1.26-1.31,2.54-2.6,3.73-4a26.16,26.16,0,0,0,1.74-2.17,5.35,5.35,0,0,0,.78-1.13c.17-.14.4-.23.43-.52s.43-.26.43-.61c.63-.64,1-1.55,1.56-2.26.41-.89,1-1.59,1.39-2.52a19.66,19.66,0,0,0,2.08-5.73v-1.3c0-.05,0-.1-.09-.09s-.12.11-.26.09a9.8,9.8,0,0,0-2.43,1.47c-.22.09-.32.31-.61.35s-.28.35-.52.43c-.55.12-.7.63-1.21.78-.18.46-.85.43-1,.87-.42.24-.72.61-1.13.87-.14.17-.23.4-.52.43,0,.4-.39.31-.43.61a3.11,3.11,0,0,0-1,1c-.29,0-.38.26-.52.43s-.32.31-.52.43c-.29.38-.74.59-1,1-.79.54-1.26,1.4-2,2-.58.72-1.19,1.42-1.82,2.08s-1.24,1.42-1.82,2.17-1.21,1.39-1.74,2.17c-.44.2-.55.72-1,1-.17.5-.61.72-.78,1.21a20.55,20.55,0,0,0-1.65,2.26c-.54.79-1.09,1.57-1.56,2.43-.6.7-1,1.63-1.56,2.34-.41.92-1,1.62-1.39,2.6a4.22,4.22,0,0,0-.69,1.21,5.9,5.9,0,0,0-.61,1.39,13.24,13.24,0,0,0-1.13,2.86C166.74,66.77,166.72,66.44,167.09,66.49Z" style="fill:#fff;fill-rule:evenodd"/><path d="M123.37,41.94c.05,0,.1,0,.09.09S123.35,42,123.37,41.94Z" style="fill:#fff;fill-rule:evenodd"/><path d="M123.45,42c.1,0,.05.13,0,0Z" style="fill:#fff;fill-rule:evenodd"/><path d="M275.28,55.3c0-.1.13-.05,0,0Z" style="fill:#fff;fill-rule:evenodd"/></g></g></svg>