<svg xmlns="http://www.w3.org/2000/svg" viewBox="0 0 205.55 93.19"><defs><style>.cls-1{fill:#fff;fill-rule:evenodd;}</style></defs><title>Asset 16</title><g id="Layer_2" data-name="Layer 2"><g id="Layer_1-2" data-name="Layer 1"><path class="cls-1" d="M120.59,0c.15.16.52.09.81.1.6.31,1,.87,1.53,1.22,1.12,2,1.42,4.76,1.83,7.44a31.34,31.34,0,0,1-1.53,10.49,17.08,17.08,0,0,1-.61,2.44A17.09,17.09,0,0,1,122,24a30.51,30.51,0,0,1-1.32,4.58c-.08.56-.64.65-.81,1.12-.28,1.35-1,2.28-1.22,3.67-.71.92-.86,2.4-1.63,3.26a15,15,0,0,1-.2,2.14c.38,0,.19-.49.51-.51,0-.3.26-.35.31-.61.15-.5.52-.77.71-1.22.51-.44,1-.9,1.53-1.32.66-.25.85-1,1.63-1.12a8.68,8.68,0,0,1,3.77,1.32,4,4,0,0,0,.81.81c.1.41.44.57.71.81.16.73.67,1.1.81,1.83.31.57.48,1.29.81,1.83a29.2,29.2,0,0,1,.2,11.92c-.25,1.93-.69,3.65-1,5.5-.35.74-.45,1.72-.81,2.44,0,.66-.65,1.4-.81,2.24a9.23,9.23,0,0,0-1.32,2.34c-.23.08-.25.36-.41.51-.4-.1,0,.57-.41.51a7.25,7.25,0,0,1-.71,1.12c-.23.38-.58.64-.81,1s-.54.69-.81,1-.59.63-.92.92a1.48,1.48,0,0,1-.71,1,7.71,7.71,0,0,1-2.44,0,12.07,12.07,0,0,0-1.22-.71,3.45,3.45,0,0,0-1.12-.81c-.15-.43-.56-.6-.81-.92-1.59-2.59-2.3-6.05-3-9.57a84.92,84.92,0,0,1-1-8.45c0-1,.08-2,.1-3,0-1.42-.12-2.41,0-3.56-.25-.18-.5.33-.71.51s-.43.45-.61.71c-.38.54-.94.89-1.32,1.43q-1.47,1.28-2.85,2.65c.38,2.74.3,5.58.41,8.15-.12,1.61-.21,3.25-.41,4.79-.53,1.21-.8,2.66-1.43,3.77s-1.23,2.23-2,3.16a11.4,11.4,0,0,1-2.75,2.44c-.69.23-1.41.42-2.14.61A6.64,6.64,0,0,1,93.7,72,19.69,19.69,0,0,1,92,70.07a13.62,13.62,0,0,1-.41-2.75c-.09-1.29.07-2.41-.1-4.07-.13-.25.3-.42,0-.51.39-1.37.89-2.64,1.32-4a34.83,34.83,0,0,0,1.53-3.67,1.68,1.68,0,0,0,.61-.81c.17-.31.51-.44.61-.81.34-.34.8-.55,1-1,.41-.23.85-.44,1-.92.56-.12.77-.58,1.22-.81s.79-.5,1.12-.81c-.13-1-.42-1.89-.61-2.85a15,15,0,0,1-1-2.55,6.07,6.07,0,0,1-.51-1.22c-.34,0-.17-.44-.31-.61s-.15-.39-.31-.51c-.88-1.47-1.42-3.27-2.55-4.48-.39.39-.37,1.19-.71,1.63-.17.58-.42,1.07-.61,1.63-.28,1.25-.78,2.27-1.12,3.46s-.9,2.15-1.22,3.36c-.31.44-.38,1.12-.71,1.53a16.1,16.1,0,0,0-.71,1.53,4.74,4.74,0,0,1-.92,1.43,3.68,3.68,0,0,1-.81,1.43c-.35.4-.55.94-.92,1.32,0,.33-.3.45-.41.71a.82.82,0,0,1-.51.61c-.11.67-.58,1-.81,1.53-.4.35-.48,1-.92,1.32,0,.33-.3.45-.41.71-.41,0-.19.56-.51.61-.09.66-.61.89-1,1.22a4.81,4.81,0,0,1-3.56-.41,11.51,11.51,0,0,1-1.43-1.73,30.74,30.74,0,0,1-1.12-8.15c-.33.15-.26.7-.51.92,0,.42-.31.57-.31,1a9.13,9.13,0,0,1-.71,1.94,20.5,20.5,0,0,1-1.43,3.87,14.3,14.3,0,0,1-1.73,3.67,14.24,14.24,0,0,1-1.94,3.36c-.4.22-.64.58-1,.81a7,7,0,0,1-1.12.71,11.33,11.33,0,0,1-3.87,0,12.8,12.8,0,0,1-2.34-1.43,12.88,12.88,0,0,1-2-1.63c-.55-1.11-.41-2.92-.71-4.28a24.28,24.28,0,0,1,.81-7.94c.27-.51.28-1.28.51-1.83s.45-1,.41-1.83c.52-1,.65-2.34,1.12-3.36a12.63,12.63,0,0,1,1.22-3.36A11.83,11.83,0,0,1,64,38.91c.43-1.09,1.11-1.95,1.53-3.06.38-.37.4-1.1.81-1.43a6.43,6.43,0,0,1,.61-1.63,17.88,17.88,0,0,0,.2-1.94,5.55,5.55,0,0,0-.41-1.43,3.89,3.89,0,0,0-1.94-2c-.35.26-.26,1-.41,1.43A4.4,4.4,0,0,0,64,30.25c-.23,1-.7,1.74-.92,2.75-.47.75-.72,1.73-1.22,2.44-.34.88-1,1.49-1.22,2.44A3.31,3.31,0,0,0,59.89,39a2.28,2.28,0,0,0-.71,1.12,22.31,22.31,0,0,1-1.53,2.14c-.13.48-.55.67-.71,1.12-.38.24-.5.72-.92.92-.16.45-.59.63-.81,1-.37.21-.58.57-.92.81a49.41,49.41,0,0,1,1.43,7.33c-.26.17.2.47.1.81s.14.61.1,1c0,.88.09,1.07.1,1.94.12,1.55,0,2.58.1,3.87-.2,1.63-.39,3.27-.61,4.89s-.86,2.8-1.12,4.38a5.62,5.62,0,0,0-.71,1.73A8.73,8.73,0,0,0,53,73.74c-.42.39-.45,1.18-.92,1.53a7.5,7.5,0,0,1-.81,1.53,25.6,25.6,0,0,1-2,2.75c-.68.92-1.5,1.69-2.24,2.55a8,8,0,0,0-1.63,1.22c-.63.29-1.14.69-1.73,1a11.77,11.77,0,0,1-4.58,1c-.71-.1-1.37-.26-2-.41-.83-.26-1.46-.72-2.24-1-.61-.44-1.09-1-1.73-1.43a22.33,22.33,0,0,1-1.32-1.83,2.75,2.75,0,0,0-.61-1,1.93,1.93,0,0,0-.41-1.12,14.83,14.83,0,0,1-.1-5.3c.24-1.7.77-3.1,1-4.79a18.35,18.35,0,0,1,1.63-4.18c.5-1.4,1.18-2.63,1.63-4.07.3-.21.4-.61.61-.92.4-.07.22-.73.61-.81a1.37,1.37,0,0,1,.61-.81c.12-.36.29-.66.41-1,.3-.14.41-.47.71-.61,0-.36.55-.27.61-.61l.61-.71c.1-.3.43-.39.51-.71s.54-.28.81-.41c0-.34.34-.41.61-.51.3-.45.83-.67,1.22-1a9.88,9.88,0,0,1,3-1.63c0-.34.63-.12.51-.61a1,1,0,0,0,.61-.41,14.3,14.3,0,0,0,4.38-2.85A25,25,0,0,0,48,39.72a18.69,18.69,0,0,0-4.07-5.3,13.09,13.09,0,0,0-2.44-1.22c-.41,0-.28.6-.51.81a4.44,4.44,0,0,0-.41.92,1.36,1.36,0,0,1-.51.81,1.27,1.27,0,0,1-.41.92,33.35,33.35,0,0,1-1.94,3.26C37,41,36.27,42,35.55,43S33.83,44.72,33,45.63a12.56,12.56,0,0,0-1.63,1c-.7.15-1.14.56-1.83.71-.26,0-.32.19-.41-.1-.25-.13-.32.4-.41.1-.51.07-.74-.14-1.12-.2a.92.92,0,0,0-.41-.41c-.15-.38-.52-.77-.31-1.22,0-.56-.39-.7-.31-1.32s.34-.61.41-1c.3-.14,0-.84.41-.92-.05-1,.48-1.35.51-2.24.42-1.38,1.11-2.49,1.53-3.87.49-.36.63-1.07,1.12-1.43.21-.61.7-.93,1-1.43a22.94,22.94,0,0,1,1.83-1.53c.56-.56,1.4-.84,1.94-1.43.42-.05.8-.15,1.22-.2a43.05,43.05,0,0,0,1.53-4.38c.44-1.53,1.11-2.83,1.43-4.48.18-.81.52-1.45.71-2.24.41-.58.36-1.61.81-2.14a24,24,0,0,0,.41-5.5c0-.24-.18-.3-.1-.61a5.87,5.87,0,0,0-.92-2.24c-.25-.8-.89-1.21-1.22-1.94a2.36,2.36,0,0,1-.92-.71A10.14,10.14,0,0,0,35,5a13,13,0,0,0-5.3,1.32,25.17,25.17,0,0,0-4.07,2.55c-2.14,2.27-4.62,4.2-6,7.23.38,1.43.72,3,1.12,4.48.29,1.08.54,2.1.81,3.36a82.31,82.31,0,0,1,1.73,10.29c.26,3.78.16,7,.1,10.19,0,.82-.16,1.59-.2,2.44,0,.19.12.39.1.61-.18,2.18-.25,4.68-.31,7.23-.06,3.42-.32,6.54-.51,10a81.71,81.71,0,0,1-1.43,9.47A21.23,21.23,0,0,1,20,78.63a36.73,36.73,0,0,1-1.53,4,26.9,26.9,0,0,1-4.18,6.82A19.32,19.32,0,0,1,9,92.89c-.64.07-1.19.24-1.83.31a16.9,16.9,0,0,1-2.65-.31,2.84,2.84,0,0,0-1-.51,3.81,3.81,0,0,0-.92-.92c-.14-.47-.49-.73-.71-1.12a26,26,0,0,1-1-2.65c-.19-1-.34-2.1-.51-3.16A16.79,16.79,0,0,0,0,81.48C.3,75,1.37,69.27,2,63.15c.27-1.43.25-3.14.61-4.48a24.6,24.6,0,0,1,1-4.07,72.94,72.94,0,0,1,2-8c.56-2.84,1.43-5.42,1.53-8.45a76,76,0,0,1,2.44-7.74c.89-2.5,1.91-4.88,2.75-7.44A32.32,32.32,0,0,1,14,19.35c.44-1.22,1.25-2.08,1.63-3.36a29.4,29.4,0,0,0-1-3.26c-.25-1.18-.8-2-1-3.26a13.19,13.19,0,0,1-1.22-3.06,4.18,4.18,0,0,1-.51-1.63,1.19,1.19,0,0,1,.92-1.12,2.47,2.47,0,0,1,.81.2c.26.14.36.39.61.51a1.89,1.89,0,0,0,1,1.22c.21.53.72.77.92,1.32.29.09.22.53.41.71s.32.43.51.61c0,.23,0,.38.2.41a15.28,15.28,0,0,0,1,3c.88-.38,1.35-1.16,2-1.73S21.53,8.63,22.2,8a21.46,21.46,0,0,1,2.14-1.63C25,5.88,26,5.58,26.58,5c1.32-.34,2.26-1.07,3.67-1.32a11,11,0,0,1,4.28-.61,16.62,16.62,0,0,1,5.09,1.73A12.25,12.25,0,0,0,41,5.91c.36.56.87,1,1.22,1.53s.67,1.1,1,1.63a29.23,29.23,0,0,1,1.22,5.19,63.51,63.51,0,0,1-.41,9,36.27,36.27,0,0,1-.81,4c-.27.51-.29,1.27-.61,1.73,0,.81-.43,1.13-.51,1.83.92.4,1.66,1,2.55,1.43.88.81,1.78,1.62,2.65,2.44a9.37,9.37,0,0,0,1.12,1.43c.31.54.8.9,1.12,1.43a20.51,20.51,0,0,1,3.77,6.42,4.31,4.31,0,0,0,1.83-1.63c.41-.17.52-.63.81-.92.37.1.09-.46.41-.41.09-.18.25-.3.31-.51,1-1.27,1.79-2.69,2.65-4.07.47-.89,1-1.85,1.43-2.85.32-.74.67-1.43,1-2.34.5-1.31,1-2.95,1.32-4.28-.95-.85-2.3-1.3-3.26-2.14-.46-.15-.89.09-1.32-.2a7.48,7.48,0,0,1-1.83-2.24,5.27,5.27,0,0,1-1.22-2.85,1.2,1.2,0,0,1,.31-.81.82.82,0,0,1,.51-.61,4,4,0,0,1,.92-1.22c.06-.32.48-.27.51-.61.27-.07.22-.46.51-.51.26-.45.73-.69,1-1.12.47-.14.73-.49,1.12-.71.52-.06.79-.37,1.22-.51.15.26.54.27.71.51s.4.34.51.61c.35.43.65.91,1,1.32a17.91,17.91,0,0,1,1.22,7.44,2.91,2.91,0,0,0,1.22,1.22c.15.26.24.58.61.61,0,.34.31.44.51.61a19.16,19.16,0,0,0,1.12,1.73,16.7,16.7,0,0,1,.92,3.36V33a39.13,39.13,0,0,1-2.24,6.82,60.55,60.55,0,0,0-2.14,6.93,57.34,57.34,0,0,0-1.63,7.44c-.2,2.7-.41,6,.2,8.35.22.09.16.45.31.61A4.71,4.71,0,0,0,65.59,65a4.41,4.41,0,0,0,1.63.31c1.26-.34,1.74-1.45,2.44-2.34a15.46,15.46,0,0,0,1.73-3A46,46,0,0,0,74,53.27,74,74,0,0,0,76.29,46a34,34,0,0,0,.71-4c.25-1.31.39-2.73.61-4.07.21-.57.84-.72,1.12-1.22.18-.09.55,0,.51-.31.88,0,1.52-.42,2.34-.2.33-.09.14.33.31.41s.2.28.41.31c.05.39.32.56.31,1,.27.59,0,2,.2,2.34a27.31,27.31,0,0,0-.92,2.75,16.74,16.74,0,0,0-.2,2,4.69,4.69,0,0,0-.31,1.12c.08.56-.36.59-.2,1.22-.22.69-.14,1.7-.41,2.34-.23,1.67-.52,3.12-.71,4.58.16.77-.05,1.49.1,2.44s.1,1.51.61,2.14c1-.51,1.43-1.63,2.24-2.34a23.7,23.7,0,0,0,1.94-2.55,32.59,32.59,0,0,0,3.26-5.81c1.92-4.13,3-9.08,4.48-13.65a17.46,17.46,0,0,0-1.22-2.75c-.41-.88-.79-1.79-1.22-2.65s-.61-2-1-2.85c-.19-1.1-.4-2.18-.61-3.26V19.25a14.2,14.2,0,0,1,.92-3.56,16.23,16.23,0,0,1,1.12-3.26,9.76,9.76,0,0,1,4.18-4.58c.34-.32.21.39.61.31a1,1,0,0,1,.81.2c.53.14.84.61,1.22.61a1.55,1.55,0,0,0,.71,1.12,3.25,3.25,0,0,0,.61,1.12,19.78,19.78,0,0,0,.31,3.06v3.46c-.29,2.19-.73,4.23-1.12,6.31a24.53,24.53,0,0,0-.92,2.75,29.08,29.08,0,0,1-.61,3.06c.24.88.83,1.41,1.12,2.24.06.48.51.57.61,1a3.83,3.83,0,0,0,.61,1c.7,1.47,1.36,3,1.94,4.58.5.59.51,1.66,1,2.24.23.86.67,1.51.92,2.34a6.38,6.38,0,0,1,1,2.24,3.4,3.4,0,0,1,.41,1.22c.29.25.18.9.51,1.12,1.6-.1,2.27-1.13,3.16-1.94a6.72,6.72,0,0,0,1.43-1.12c.37-.47,1-.74,1.22-1.32a46,46,0,0,1,.71-6c-.06-.64.26-.89.31-1.43-.21-.28.07-.94.1-1.32.06-1.07.26-2,.41-3s.35-1.89.51-2.85c.25-.33.08-1.07.31-1.43-.09-.6.37-.85.1-1.32.42-1.7.68-4,1-5.5.42-1.82.69-3.8,1.22-5.5.36-1.89.86-3.62,1.32-5.4a29.37,29.37,0,0,1,1.73-5,18.93,18.93,0,0,1,1-2.34,5.69,5.69,0,0,1,.51-1.12c.2-.38.22-.93.61-1.12A.72.72,0,0,1,120.59,0Zm1.32,5.7c-.45,2.17-.88,4.35-1.32,6.52-.24,1.08-.34,2.3-.51,3.46a18.41,18.41,0,0,0-.51,3.46c-.46.89-.19,1.88-.71,2.65.28,1-.1,1.78-.2,2.85a22.19,22.19,0,0,1-.41,3c.16,1.31-.47,2.38-.2,3.46a12,12,0,0,0,.81-2.24,13.27,13.27,0,0,1,.81-2.24,20.33,20.33,0,0,1,.92-3.67c.37-1.19.52-2.61.92-3.77.58-2.51.92-5.26,1.43-7.84a6.61,6.61,0,0,1,.1-1.43,12.51,12.51,0,0,1-.2-2.55c-.18-.56-.36-1.13-.51-1.73-.1,0-.12-.08-.2-.1s0-.12-.1-.1A.48.48,0,0,1,121.92,5.7ZM96.35,11.81c-.14,0-.19.15-.41.1a6.63,6.63,0,0,0-2.24,2.24,29.15,29.15,0,0,0-1.22,5.19c.13.72.23,1.47.31,2.24.44.51.18,1.4.51,1.83a5.32,5.32,0,0,0,.51,1.83c.22.63.31,1.39.81,1.73.5-1.57.65-3.49,1.22-5a53.28,53.28,0,0,0,.92-5.3,9.46,9.46,0,0,1,.1-1.94V13.14c-.06-.21.13-.67-.1-.71-.06-.21.16-.71-.2-.61ZM62,14.77c-1.17-.2-1.81.78-2.24,1.63a9.29,9.29,0,0,0,.71,3,1.47,1.47,0,0,1,.51.71c.48.43,1,.86,1.43,1.32s.89.94,1.63,1.12C64.3,19.67,63.71,16.32,62,14.77Zm-45.32,6c-.32.05-.28.46-.41.71s-.26.55-.41.81a9.56,9.56,0,0,0-.71,1.63c-.51,1-.84,2.28-1.32,3.36-.67,2.45-1.53,4.72-2.24,7.13-.42,1.14-.69,2.43-1.12,3.56a5.85,5.85,0,0,1-.61,1.73,7.25,7.25,0,0,1-.51,1.83c-.15,1.41-.77,2.35-.92,3.77C8,46.44,7.82,47.89,7.33,49c-.45,2.67-1.26,5-1.63,7.74q-.9,3.84-1.53,7.94c-.86,5.3-1.6,11.21-1.94,16.7A42.15,42.15,0,0,0,3,86.17a7.18,7.18,0,0,0,.81,1.94A2.82,2.82,0,0,0,5,89.73a4,4,0,0,0,2.65,1A14.68,14.68,0,0,0,10,90.24a11,11,0,0,0,4.79-5.7c.68-1,.95-2.52,1.53-3.67a8.08,8.08,0,0,1,.61-2,6.71,6.71,0,0,1,.51-2.14c.12-1.61.56-2.9.71-4.48s.27-3.26.51-4.79c.07-3.31.79-6.44.71-9.57.28-3.21.19-6.81.41-10.08a8.5,8.5,0,0,1,.1-2.24,14.58,14.58,0,0,1-.1-2.55c0-1.75-.07-3.13-.1-5s-.06-2.44-.2-4.38c-.28-1.48-.37-3.16-.71-4.58-.09-1.27-.65-2.76-.81-4.28.3-.06-.16-.16-.1-.31a.86.86,0,0,1-.1-.61c0-.44-.24-.65-.2-1.12A12.68,12.68,0,0,1,17,20.57c0-.06,0-.12-.1-.1A.28.28,0,0,0,16.7,20.78ZM35.24,32.29a1,1,0,0,1-.61.31A15.86,15.86,0,0,0,32.49,35c-.81.72-1.06,2-1.63,3-.2,1.15-.63,2.09-.81,3.26v1.83c.32.29.33-.34.61-.41a2.57,2.57,0,0,1,.51-.71c.38-.47.54-1.16.92-1.63s-.21-.34,0-.61c.13,0,.09.18.2.2.77-1.61,1.58-3.31,2.24-4.89a5.91,5.91,0,0,1,.81-1.63c-.14-.57.45-.77.2-1.12ZM120.9,66.71A15.66,15.66,0,0,0,123.75,60c.48-2.71.69-5.69,1.22-8.35,0-2.06.47-3.54.31-5.5a52.42,52.42,0,0,0-.41-5.6,5.34,5.34,0,0,1-.51-1.53,4.61,4.61,0,0,1-.61-1.43c-.62-.13-.6-.9-1.43-.81-.25,0-.22.19-.51.1-.59.29-.94.83-1.53,1.12-.35.64-.76,1.21-1.12,1.83a16.11,16.11,0,0,1-1,1.94c-.39,1.82-1.2,3.21-1.43,5.19-.39,1.86-.68,3.8-1,5.7a53.08,53.08,0,0,0,.41,8.35c-.19,1.4.41,2.56.31,4.18.24,1.32.35,2.77,1.22,3.46C119.29,68.56,119.92,67.47,120.9,66.71Zm-70.38-18a55.37,55.37,0,0,0-6.62,4.07,6.62,6.62,0,0,0-1.53,1.12c-.54.37-.91.93-1.43,1.32a17.59,17.59,0,0,0-2.44,3,35.42,35.42,0,0,0-3.67,7c-.2.68-.5,1.26-.71,1.94a11,11,0,0,1-.71,2,9.81,9.81,0,0,1-.61,2c-.09.82-.26,1.57-.41,2.34.2.23-.11.57,0,1a22.28,22.28,0,0,0,.41,3.16c.4.93.76,1.88,1.22,2.75a5.61,5.61,0,0,0,3,2c.89,0,1.33-.36,2.14-.41a16.12,16.12,0,0,1,2-1.22c.53-.83,1.36-1.36,1.94-2.14a17.15,17.15,0,0,0,1.73-2.34c.42-.26.58-.78.81-1.22a5,5,0,0,0,.81-1.22c.3-.37.54-.82.81-1.22.16-.56.64-.78.71-1.43a9.35,9.35,0,0,0,1.22-2.85,3.91,3.91,0,0,0,.51-1.53,6.57,6.57,0,0,0,.51-1.63c.58-2.17.79-4.71,1.22-7A79.47,79.47,0,0,0,51,48.58c-.1,0-.12-.08-.2-.1A.72.72,0,0,0,50.52,48.69ZM98.19,69.57a16.62,16.62,0,0,0,2.55-4.48,27,27,0,0,0,1.12-6c-.22-2.25-.35-4.61-1.22-6.21,0-.06,0-.12-.1-.1s-.17.17-.31.2c-.53.26-.88.68-1.43.92A3.87,3.87,0,0,1,97.57,55c-.2.82-.83,1.2-1.12,1.94a12.57,12.57,0,0,0-.92,2.14,20.11,20.11,0,0,0-1.12,5,8.45,8.45,0,0,1,.1,2c.26.79.25,1.86.71,2.44a2.19,2.19,0,0,0,1.43,1.83C97.31,70.25,97.63,69.79,98.19,69.57Z"/><path class="cls-1" d="M97.17,8.76c-.05-.05.07-.13.1-.1S97.2,8.79,97.17,8.76Z"/><path class="cls-1" d="M81.18,18c.1.21.52.09.51.41.35.08.43-.19.61,0,.12.69.64,1,.92,1.53,0,1.21.18,2.2.1,3.46a31.77,31.77,0,0,1-.92,3.36,15.22,15.22,0,0,1-1.32,1.83c-.33-.06-.47.07-.71.1-.4.13-.25-.3-.51-.31s-.3-.18-.61-.1c-.1-.2-.18-.43-.41-.51-.1-.34-.18-.7-.31-1,.08-.29-.14-.26-.1-.51s.1-.51-.2-.41c0-.32.32-.29.2-.71.06-.24-.13-.74.1-.81-.06-.67.24-1,.2-1.63.21-1,.65-1.73.92-2.65.1,0,.08-.12.1-.2.31-.24.45-.64.81-.81.17-.31.12-.83.51-.92C81,17.95,81.17,17.92,81.18,18Z"/><path class="cls-1" d="M150.64,37c.23-.08.55-.06.61-.31s.08-.53.41-.51c.08.36.81.07.81.51.21.2.16.66.31.92a17.16,17.16,0,0,1,.1,2.24c-.13.54-.1,1.08-.2,1.63-.16.87-.46,1.7-.61,2.85a14.55,14.55,0,0,0-.1,2.55c0,1-.14,2-.1,3.16a2.94,2.94,0,0,0,2.34-.61c.5-.38.7-1.07,1.12-1.53a4.44,4.44,0,0,1,.41-.92c.15-.25.14-.67.41-.81.58-1.15,1.08-2.39,1.73-3.46.39-1.54.78-3.09,1.12-4.69a44.13,44.13,0,0,1,.92-4.79c.36-.26.79-.43,1.12-.71.33,0,.29.32.51.41s.39-.52.71-.2c.45,0,.51-.14.81,0,1.26,1.89,1.58,4.74,1.53,7.94a66.07,66.07,0,0,1-1.12,7.84c-.55,2.44-.74,5.23-1.22,7.74.31,0,.25-.36.31-.61s.19-.42.2-.71a12.88,12.88,0,0,1,.41-1.32c.25-.9.52-1.79.81-2.65.56-1.79,1.36-3.33,1.94-5.09.77-1.57,1.52-3.16,2.34-4.69.54-.61.76-1.54,1.43-2,.31-.84,1.13-1.18,1.53-1.94.36-.15.53-.49.92-.61.14-.33.68-.27.61-.81.64.34.76-.46,1.32-.51-.16.25.35.3.31.1a3.87,3.87,0,0,1,.71.41c.28.06.25.43.61.41a3.24,3.24,0,0,0,.61,1c.11.43.55.54.71.92.09,1.88.57,3.91.31,5.81.12.36.11.84.2,1.22a17.84,17.84,0,0,1-.2,3.77c.2.48-.14.93.1,1.43a35.61,35.61,0,0,0-.51,3.77c0,1.44,0,2.45,0,3.77.07.58.21,1.08.31,1.63.36.46.58,1,1.32,1.12,1.26,0,1.61-1.1,2-2,.15-.33.26-.62.41-.92.43-.15.61-.55,1.32-.41,0,1.6-.86,2.33-1.43,3.36A11.67,11.67,0,0,1,179,62a4.63,4.63,0,0,0-2.44.41c-.24,0-.38-.16-.71-.1-.49-.05-.58-.5-1.12-.51-.13-.38-.46-.56-.71-.81s-.44-.58-.61-.92c-.38-.6-.61-1.36-1-1.94a15.82,15.82,0,0,0-.51-2c-.18-.67-.26-1.43-.41-2.14V50.62a6.81,6.81,0,0,0,.2-1.94c.3-.48,0-1.09.31-1.63a15.91,15.91,0,0,1,.71-3.46,29.77,29.77,0,0,0,.81-3.16c.27-.44.2-1.23.61-1.53.18-.5.33-1.2-.1-1.53-.69,0-.87.56-1.22.92a4.72,4.72,0,0,0-.81,1.22,11.84,11.84,0,0,0-1.43,2.75c-.59.81-.85,1.93-1.43,2.75-.11.6-.55.87-.61,1.53-.34.34-.33,1-.71,1.32-.71,2.08-1.37,4.2-2,6.31a22.86,22.86,0,0,0-.92,3.26,29.25,29.25,0,0,0-.92,3.16c-.41.2-.25,1-.81,1a1.7,1.7,0,0,1-.92,1.53c-.42.08-.46-.22-.61-.41-.39-.15,0,.46-.41.31-.87-.35-1-1.48-1.43-2.24-.11-.77-.26-1.51-.31-2.34a3.6,3.6,0,0,1,.1-1c-.26-8.43,2-14.33,1.63-22.61-.45.4-.36,1.34-.51,2v.31c.1,0,.08-.12.1-.2.33.34-.22.65-.2,1-.12,2.7-.7,4.93-1,7.44a39.29,39.29,0,0,1-2.34,6,16.39,16.39,0,0,1-4.38,3.77c-.5,0-.77.18-1.32.1s-.78-.58-1.32-.71-.67-.62-1.12-.81c-.09-.29-.47-.28-.51-.61s-.43-.25-.41-.61a8.33,8.33,0,0,0-.81,2.24c-.71,1.12-1.1,2.56-1.94,3.56a24.09,24.09,0,0,1-2.24,3.26,22.41,22.41,0,0,1-3.56,2.85.83.83,0,0,0-.61.2H137.5c-.45-.1-.78-.24-1-.31-.42-.05-.59-.36-1-.41-.09-.15-.15-.32-.41-.31a17.54,17.54,0,0,0-1.22-1.32,13.84,13.84,0,0,1-1.63-5V55.61c1.07-7.82,2.23-15.56,5.19-21.49a16.62,16.62,0,0,0,1.94-2.65c.67-.86,1.38-1.67,2-2.55a5.39,5.39,0,0,1,3.16-1.53c.42-.22.91-.38,1.32-.61.58.07.85-.17,1.43-.1a4.6,4.6,0,0,1,1.94,1.53C150.35,30.44,150.77,33.81,150.64,37Zm-5.4-7.54a6.68,6.68,0,0,0-.92.2,22.77,22.77,0,0,0-1.53,2.65c-.7.72-1,1.8-1.73,2.55a5.9,5.9,0,0,1-.81,1.94c-1,4.35-2.34,8.54-2.85,13.14-.44,2.25-.73,4.64-1,7-.29,2.61-.25,5.23,2,5.7a7.16,7.16,0,0,0,2-.92,22.14,22.14,0,0,0,4.07-5.5c.41-1.19,1-2.18,1.43-3.36.25-.54.36-1.2.61-1.73a9,9,0,0,1,.61-1.83c0-1.48.57-2.35.61-3.77s.38-2.61.61-3.87c-.2-2.19.19-4.44-.1-7.13a15.85,15.85,0,0,0-.51-3.46c-.5-.86-.85-1.87-2.24-1.83-.06,0-.12,0-.1.1S145.24,29.34,145.24,29.44Z"/><path class="cls-1" d="M205.44,51.94c0,.08,0,.2-.1.2a10.41,10.41,0,0,1-.92,2c-.12.39-.37.65-.51,1-.3.21-.32.7-.61.92-.26.72-.71,1.26-1,1.94-.24.27-.35.67-.61.92,0-.24-.28.11-.31.2.38.28-.48.17-.1.31,0,.42-.27-.1-.31.31-.56.16-.63.8-1.12,1-.21.5-.67.76-.92,1.22-.53.32-.89.81-1.43,1.12-.35.53-1,.76-1.43,1.22-.65.17-1,.59-1.73.71-.18.16-.48.2-.61.41s-.48.2-.61.41a17.83,17.83,0,0,1-2.55-.1c-.87-.38-1.73-.78-2.55-1.22-.54-.54-1.07-1.1-1.63-1.63s-.84-1.33-1.32-1.94c-.14-.6-.49-1-.61-1.63-.38-.37-.36-1.13-.71-1.53a15.32,15.32,0,0,0-.61-2.34c-.07-1.2-.12-2.37-.1-3.87a32.92,32.92,0,0,1,1.73-7.94,24.29,24.29,0,0,1,1.43-3.36,27.6,27.6,0,0,1,1.73-3.16,19.33,19.33,0,0,1,4.38-5.3,10.31,10.31,0,0,1,2.85-1.94,18,18,0,0,1,1.63-.81,7.6,7.6,0,0,1,2-.41c.32,0,.29.26.41.41.37-.06.4.21.41.51.54,0,.54.61.92.81,0,.08,0,.2.1.2a7,7,0,0,0,.51,1.43,17.18,17.18,0,0,1,0,4.89c-.32,1.45-.82,2.71-1.22,4.07a10.23,10.23,0,0,0-1,1.63c-.43.45-.7,1.07-1.12,1.53s-.76,1-1.22,1.43a10,10,0,0,0-1.32,1.43,8.74,8.74,0,0,0-2,1.12,11.26,11.26,0,0,1-3.77.61c-.58-.06-.76-.53-1.12-.81-.85,3.1-1.52,7.81-.41,11.1.23.45.27,1.09.61,1.43.09.59.55.81.71,1.32.53.42,1.08.82,1.63,1.22a6.85,6.85,0,0,0,3.67.1,13.69,13.69,0,0,0,5.4-3.36,20,20,0,0,0,2.14-2.24,4.7,4.7,0,0,1,.92-1.32c.14-.61.6-.89.92-1.32a27.9,27.9,0,0,1,1.32-2.65.48.48,0,0,1,.1-.31Zm-15.89-4.48c2.59,0,3.71-1.52,5.19-2.65,2.56-3.35,5.08-6.73,5.09-12.63-.22-.46-.19-1.17-.51-1.53a3.3,3.3,0,0,1-1.83,1c-.47.51-.92,1-1.43,1.53-.15.09-.32.15-.31.41s-.37.17-.41.41c-.19.32-.53.49-.61.92a16.19,16.19,0,0,0-2.44,3.56,20.76,20.76,0,0,1-1,1.94,6.34,6.34,0,0,1-1,2c-.47,1.54-1.32,2.68-1.63,4.38C188.92,47.07,189.27,47.23,189.55,47.46Z"/><path class="cls-1" d="M205.44,51.94c-.1-.42.31,0,0,0Z"/><path class="cls-1" d="M201,59.79c.12,0,.06.15,0,0Z"/></g></g></svg>