<svg xmlns="http://www.w3.org/2000/svg" viewBox="0 0 272.36 95.53"><title>London</title><g id="4ef5ec20-5aa1-452d-8a6b-55ff4ba4b49e" data-name="Layer 2"><g id="5df48b9a-0ea2-4f10-8e20-e2767d9fc944" data-name="Layer 1"><path d="M268.34,64c.08,0,.16-.08.18-.18a3.12,3.12,0,0,0,1-.82,3.87,3.87,0,0,0,1-.91,6.5,6.5,0,0,0,.91-.91,3.09,3.09,0,0,1,.46-.46c.14-.19.16-.51.46-.55a7.24,7.24,0,0,1-1.55,2.19,13.46,13.46,0,0,1-1.82,2c-.26.38-.65.63-.91,1s-.58.7-1,.91a8,8,0,0,1-2.1,1.73c-.25.17-.25.6-.64.64a1.5,1.5,0,0,1-.73.55,7.59,7.59,0,0,1-1.46,1.09,24.76,24.76,0,0,1-3.28,1.82,18.25,18.25,0,0,1-3.74,1.37,34.22,34.22,0,0,1-4.38.73,23.59,23.59,0,0,1-4.29-.46c-.15,0-.44-.4-.55-.18-.16-.17-.45-.22-.64-.36-.55-.12-.89-.45-1.46-.55-.72-.59-1.55-1.06-2.28-1.64a16.77,16.77,0,0,1-2-1.92c-.41-.23-.62-.65-1-.91a5,5,0,0,0-.91-1.09,35.48,35.48,0,0,1-3.1-4.74A18,18,0,0,1,233,59.94c-.43-.87-1.06-1.56-1.46-2.46a7.77,7.77,0,0,0-3.65-2.19c-.69,0-1-.07-1.55,0a11.65,11.65,0,0,0-3.47,1.37c-.65.65-1.51,1.11-2.19,1.73a3.6,3.6,0,0,0-1.09.82c-.46-.13-.25.42-.64.36-.09.24-.37.3-.55.46-1.37,1.24-2.82,2.41-4.11,3.74-.73.58-1.36,1.25-2.1,1.82s-1.4,1.21-2.19,1.73c-.57.74-1.41,1.21-2,1.92-.79.54-1.17,1.5-1.92,2.1a7.2,7.2,0,0,1-1.64.55c-.61,0-.84-.39-1.37-.18-.27.09-.16-.2-.18-.36-.19,0-.18-.24-.27-.36-.32-.11-.51-.34-.82-.46-.32-2.31.66-3.91,1.28-5.57.87-1.48,1.63-3.05,2.46-4.56a17.75,17.75,0,0,0,1.28-2.19c.27-.3.46-.69.73-1,0-.27.3-.31.36-.55s.11-.5.36-.55c.09-.49.51-.64.73-1a5.32,5.32,0,0,1,.73-1.09c.28-.3.46-.69.73-1a3.45,3.45,0,0,0,.73-1.09,21.27,21.27,0,0,0-2.28.64c-.92.56-2.14.76-3,1.28-.59.11-.89.5-1.46.64a13.73,13.73,0,0,1-1.46.73c-.64,1.21-1.24,2.47-1.92,3.65s-1.31,2.4-1.92,3.65a36.18,36.18,0,0,0-2.46,3.19A17.89,17.89,0,0,1,194.35,69c-.3.16-.43.48-.73.64s-.41.57-.82.64c-.13.33-.53.38-.64.73-.29.19-.54.43-.82.64A21.24,21.24,0,0,1,188.05,74a16.33,16.33,0,0,0-2.19.82,2.82,2.82,0,0,0-1,.18h-1.28c-.66-.1-1.26-.26-1.92-.36A9,9,0,0,1,179.38,73a9.13,9.13,0,0,1-1.46-3.1,9.54,9.54,0,0,1-1-3.56c-.18-.23-.43.23-.55.36-.27.13-.37.42-.64.55a9,9,0,0,0-1.19,1.19,7,7,0,0,0-1.28,1.09c-.2.19-.36.43-.55.64-.35,0-.41.38-.64.55-.87.71-1.6,1.56-2.55,2.19-.41.38-1,.63-1.37,1-.37,0-.44.35-.73.46s-.5.29-.73.46c-1.05.32-2,.74-3.1,1a12.74,12.74,0,0,1-1.92,0c-.67-.06-.95-.51-1.73-.46a4.82,4.82,0,0,0-1.55-.55s0-.08,0-.09,0-.11,0,0-.13-.12-.27-.09c0-.08,0-.09-.09-.09s-.19-.52-.27-.27c-.19,0,0-.4-.27-.36.12-.44-.53-.43-.27-.73-.24-.15-.6-.19-.73-.46.13-.21-.24-.34,0-.36,0-.35-.07,0-.27-.09a2,2,0,0,1,.09-.82c-.1-.09,0-.34-.27-.27s.07-.43-.18-.36a4.44,4.44,0,0,0-.18-1.37,34,34,0,0,1,.64-6.57,3.64,3.64,0,0,0,.36-1.09c0-.48.48-.49.36-1.09-.13-.1-.22-.1-.27.09s-.25.18-.27.36a5.18,5.18,0,0,1-.46.73,3.11,3.11,0,0,0-.46.73c-.36-.15,0,.39-.27.36s-.19.24-.36.27a1.22,1.22,0,0,1-.46.73,1.55,1.55,0,0,1-.36.73c-.27.12-.31.48-.55.64a6.22,6.22,0,0,1-.55.73,1,1,0,0,0-.55.64,1.92,1.92,0,0,0-.55.73c-.45.37-.72.92-1.19,1.28a2.89,2.89,0,0,1-.55.64,1.91,1.91,0,0,1-.55.73,11,11,0,0,1-1.19,1.28,46.55,46.55,0,0,1-5.11,4.74,13.58,13.58,0,0,1-6.66,3.19,7.1,7.1,0,0,1-2.37-.36,10.14,10.14,0,0,1-1.92-.91c-.27-.4-.69-.65-.82-1.19-.29,0-.4-.21-.73-.18-.07-.54-.55-.66-.82-1s-.52-.69-.73-1.09a.25.25,0,0,1-.18-.27c-.25-.16-.18.4-.27.09-.22-.79-.6-1.41-.82-2.19a16.37,16.37,0,0,1-.55-2.46V67.88c-.14-.27-.16.31-.36.27,0,.28-.25.35-.36.55A11.21,11.21,0,0,1,126,69.8c-.61.61-1,1.45-1.64,2,0,.31-.27.27-.36.46s-.19.42-.46.46a3.7,3.7,0,0,1-.82,1c-.55.66-1.23,1.21-1.73,1.92a31.74,31.74,0,0,1-3.56,2.19c-.71.09-1.28.3-2,.36a4,4,0,0,1-1.28-.64,10.38,10.38,0,0,1-1.09-.27c-.84-.35-1.28-1.09-2.19-1.37,0-.35-.37-.36-.46-.64s-.3-.49-.55-.64a27,27,0,0,1-1.37-4.29c0-1.43-.06-1.81,0-3.19A27.93,27.93,0,0,1,110.22,61a33.52,33.52,0,0,1,2.92-4.93,27,27,0,0,1,1.55-2.37c.65-.66,1-1.63,1.73-2.19.38-.93,1.15-1.47,1.55-2.37a7.29,7.29,0,0,0,1.46-2.46c-.57.07-.86.42-1.37.55a38,38,0,0,0-3.28,2.55,33.41,33.41,0,0,1-3.1,2.83c-.47.5-.91,1-1.37,1.55s-1,1-1.55,1.46c-1,1-1.77,2.17-2.74,3.19a6.84,6.84,0,0,1-1.37,1.55c-.29.71-.85,1.16-1.19,1.82A29.9,29.9,0,0,0,101,65.69c-.92,1.06-1.5,2.45-2.46,3.47-.25.73-.89,1.06-1.09,1.82a13.26,13.26,0,0,0-1,2c-.24.31-.59.51-.73.91-.52,0-.52.58-1,.64-.29,0-.67.06-.82-.09,0-.15-.12-.25-.18-.09h-.55c-.41-.11-.53-.5-.91-.64-.2-.15-.49,0-.55-.09-.12-.37-.19,0-.46,0a.91.91,0,0,0-.27-.91c-.11-.29-.18-.61-.27-.91a29.1,29.1,0,0,1,1.09-6.2c.33-.89.61-1.82,1-2.65.24-1,.88-1.61,1-2.74.24,0,.24-.19.27-.36s.24-.24.27-.46a3.34,3.34,0,0,1,.55-.91,11.13,11.13,0,0,1,.91-2c.77-1.18,1.48-2.42,2.19-3.65s1.42-2.42,2.28-3.47c.15-.34.49-.48.55-.91a2.11,2.11,0,0,0,.64-.82c.44-.53,1.07-.87.91-2-.35-.19-.81.19-1.28.18a6.51,6.51,0,0,0-1.28.36,7,7,0,0,0-1.19.46c-.4.17-.9.26-1.28.46-.44.74-.7,1.68-1.09,2.46S95.39,51.1,95,51.92a15.92,15.92,0,0,0-1.28,2.28,4.54,4.54,0,0,1-.64,1.19c0,.32-.22.39-.27.64s-.13.47-.36.55c-.36.82-1,1.39-1.37,2.19-.3.3-.44.78-.73,1.09s-.44.77-.64,1.19A6.2,6.2,0,0,1,89,62.13a5.42,5.42,0,0,1-.73,1.09c-.51.7-1,1.41-1.55,2.1a36.21,36.21,0,0,1-3.1,4.11c-.25.36-.63.59-.82,1a1.29,1.29,0,0,0-.46.46c-.32,0-.15.46-.46.46-.56.66-1.11,1.32-1.73,1.92a24.86,24.86,0,0,1-1.92,1.64c-.85.37-1.46,1-2.28,1.37a10.07,10.07,0,0,1-5.84,1.28c-1.07-.42-2-1-3.1-1.37A15.07,15.07,0,0,0,65.33,75a12,12,0,0,1-2.46-4.11,13.52,13.52,0,0,1-.36-5.84,27.61,27.61,0,0,1,3.38-9.85,55.8,55.8,0,0,1,5.2-7.94c.88-1.31,2-2.41,2.92-3.65.64-.46,1.05-1.14,1.64-1.64a4.18,4.18,0,0,1,.82-.82c.06-.21.3-.24.36-.46s.42-.19.46-.46a13.66,13.66,0,0,1,.27-4.84,24.24,24.24,0,0,1,1.73-3.19c.57-.52,1.12-1.07,1.64-1.64a12.24,12.24,0,0,1,3.56-1.82A32.86,32.86,0,0,1,89,27.83h1.09a7.64,7.64,0,0,1,1.92.36,13.23,13.23,0,0,1,4.11,2.55c.83,1.67,2,3,2.19,5.29.16.51.37,1,.55,1.46a40.81,40.81,0,0,1,.09,4.29,11.63,11.63,0,0,1-.46,1.82c.94-.09,1.59-.48,2.46-.64a7.67,7.67,0,0,1,2.55-.18c.4.06.21-.46.64-.36s.63.28,1,.36c.29-.15.37.34.46.09.21,0,.38-.18.55,0,.38,0,.42.43.73.55.15.31.52.39.55.82a4.81,4.81,0,0,1,.09,1.64c0,.26,0,.55,0,.82a16.48,16.48,0,0,1-1.09,5.93,30.66,30.66,0,0,1-1.82,4.2c.06.2.3-.17.36-.27s.38-.23.36-.55a2.81,2.81,0,0,0,.82-1c.89-.9,1.75-1.84,2.65-2.74a30.76,30.76,0,0,1,2.74-2.65,24.39,24.39,0,0,1,8.3-6.11c.45.07.86.18,1,.55.35.19.86.24,1.09.55a2.72,2.72,0,0,1,.64,1.92,9.57,9.57,0,0,1,.18,2.46c-.15,1.44-.53,2.63-.73,4a25.4,25.4,0,0,0-1,2.37,21.75,21.75,0,0,0-1.19,2.19,18.8,18.8,0,0,0-1.28,2.1c-.47.65-.76,1.49-1.28,2.1a2.51,2.51,0,0,1-.55,1.09c-.31.27-.29.87-.64,1.1A14.79,14.79,0,0,1,115,66.24c-.22.91-.66,1.59-.91,2.46s-.39,1.92-.64,2.83a9.18,9.18,0,0,0,.27,3.28A5.13,5.13,0,0,0,115,76.37a11.15,11.15,0,0,0,4.2-2.19c.46-.61,1.15-1,1.64-1.55a9.48,9.48,0,0,0,1.64-1.55,40,40,0,0,0,2.92-3.47c1.07-1.06,1.86-2.4,2.92-3.47a25.21,25.21,0,0,1,5.47-10.4,57.33,57.33,0,0,1,7-8.94,55.72,55.72,0,0,1,4-3.92c.75-.59,1.41-1.27,2.1-1.92.33,0,.41-.26.64-.36,0-.31.46-.2.55-.46a3.49,3.49,0,0,1,1.19-.82c.63-.68,1.69-.93,2.37-1.55.6-.07.84-.5,1.46-.55a3,3,0,0,1,1.46-.55c1.81-.81,4.87-.74,7.12-.36.36.15.58.46,1,.55.34.34.62.71.91,1,.12.12.3.18.36.36a7.45,7.45,0,0,1,.55.82c.15.3.46.45.64.73a25.61,25.61,0,0,1,.46,2.83c.34,0,.17-.44.46-.46a1.74,1.74,0,0,1,.37-.64c.29-.38.39-1,.73-1.28a22.43,22.43,0,0,1,1.46-2.46c1-1.65,2.07-3.16,3-4.84a25.3,25.3,0,0,0,1.64-2.28,22.11,22.11,0,0,1,1.64-2.28c.42-.88,1.14-1.47,1.55-2.37.38-.26.53-.74.82-1.09.24-.09.25-.42.46-.55s.15-.52.46-.55c.18-.46.52-.75.73-1.19.37-.3.5-.83.91-1.09,0-.27.3-.31.36-.55s.25-.42.46-.55a10.84,10.84,0,0,1,.82-1.19c.7-.61,1.09-1.52,1.82-2.1a4.84,4.84,0,0,1,.82-1.09c.24-.09.22-.45.46-.55s.32-.35.46-.55a3.87,3.87,0,0,1,.91-1c0-.31.4-.26.46-.55.24-.1.27-.4.55-.46a26.3,26.3,0,0,1,1.82-2.1c.41-.23.55-.73,1-.91A2.58,2.58,0,0,1,190.88,7c.18-.49.66-.68,1-1s.64-.7.91-1.09a14.45,14.45,0,0,0,1.37-1.1c.5-.32.79-.85,1.37-1.09a35.12,35.12,0,0,1,2.92-2.1,2.64,2.64,0,0,1,1-.09c.12-.24.54-.19.73-.36s.69,0,.91-.18c.28.21.76.22.91.55.36-.12.22.27.46.27,0,.26.56-.08.55.18-.07.53.31.6.18,1.19-.09.4-.1.88-.18,1.28a9.06,9.06,0,0,1-.64,2.19,21.42,21.42,0,0,1-1.73,4,54.71,54.71,0,0,1-4.29,7.21c-3.06,4.58-6.26,9-9.49,13.41-1.6,2.21-3.34,4.26-5,6.39s-3.58,4.09-5.2,6.3c-1.93,1.9-3.6,4.07-5.47,6-.83,1.08-1.9,1.93-2.83,2.92-.4.54-1,.92-1.37,1.46-.57.4-1.12.82-1.73,1.19-.83,2.46-1.73,4.84-2.55,7.3a46.84,46.84,0,0,0-1.64,8.3,13,13,0,0,0,.46,3.1,5.63,5.63,0,0,0,1.83.18c.42,0,.62-.23,1.09-.18a20.65,20.65,0,0,0,6.84-4.93c.42-.07.48-.49.82-.64.19-.3.56-.41.73-.73.57-.43,1-1,1.55-1.46,1-1,1.85-2.1,2.83-3.1-.21-.5.23-.93.27-1.46-.07-.28.18-.73.18-1.37a4.35,4.35,0,0,0,.46-1.46,3.06,3.06,0,0,0,.55-1.37,8.45,8.45,0,0,0,.91-1.73c.21-.25.35-.56.55-.82s.21-.7.55-.82c.05-.37.42-.43.46-.82.35-.11.29-.62.64-.73A9.47,9.47,0,0,1,183,50.36a18,18,0,0,1-.91-4.2,10.33,10.33,0,0,1,1.09-4.56c.06-.39.35-.56.46-.91.32-.17.36-.61.64-.82q2.94-4.27,9.12-5.29h2.1a10.63,10.63,0,0,1,2.65.55,23.15,23.15,0,0,0,2.65,1.37c.8.72,1.55,1.5,2.28,2.28a12.7,12.7,0,0,1,.91,1.92,17.48,17.48,0,0,1,.73,2.1,29.73,29.73,0,0,1,.27,4.74c-.32,1.23-.49,2.61-.82,3.83.39.2.77-.29,1.09-.46a3,3,0,0,0,1.09-.64,8.41,8.41,0,0,0,1.46-.55,4.86,4.86,0,0,0,1.37-.64c1.09-.25,2.05-.62,3.19-.82a1.71,1.71,0,0,0,.73-.09c.41.14.94.15,1.37.27a.91.91,0,0,0,.55.27c0,.24.35.07.27.36s.36.13.36.36a2,2,0,0,1,.73.73c0,.72-.14,1.32-.18,2-.32,1-.66,2-.91,3.1-.44.89-.8,1.88-1.19,2.83s-1,1.72-1.37,2.65c-.26.08-.19.47-.36.64s-.33.34-.36.64c-.26.44-.55.85-.82,1.28,0,.17.36-.06.36-.18s.38-.16.46-.36c.3-.25.62-.47.91-.73a17.48,17.48,0,0,0,1.73-1.46c1.08-1.08,2.37-1.95,3.56-2.92A40.69,40.69,0,0,1,222,55a15.32,15.32,0,0,1,1.92-1.28,15,15,0,0,1,2.28-1,17.2,17.2,0,0,1,2.37-.27c1,0,1.77.3,2.74.36.47.32,1.16.42,1.64.73.2.2.54.25.73.46s.61.24.73.55a3.67,3.67,0,0,1,1.28,1.09,5.58,5.58,0,0,1,1.19,1.28A62.77,62.77,0,0,1,241,62.5c.71.9,1.43,1.8,2.19,2.65s1.56,1.67,2.46,2.37a12.61,12.61,0,0,0,6.66,3.1h3.1a34.79,34.79,0,0,0,3.74-.91c1.14-.44,2.1-1.06,3.28-1.46a3.89,3.89,0,0,1,1.46-.91,10.45,10.45,0,0,1,1.37-1c.48-.31.85-.73,1.37-1,.23-.16.39-.4.64-.55s.44,0,.73-.27c0-.13.15-.15.18-.27S268.3,64.13,268.34,64ZM169.62,46a.46.46,0,0,0,.27-.27c.25-.12.36-.37.55-.55.31-.45.78-.74,1.09-1.19.75-.74,1.44-1.54,2.19-2.28,1.29-1.69,2.7-3.26,4-4.93s2.71-3.25,4.11-4.84c.73-.76,1.37-1.61,2.1-2.37A8.77,8.77,0,0,0,185,28.38c.2-.56.76-.76.91-1.37.25-.12.36-.37.55-.55s.41-.32.46-.64.27-.46.46-.64a3.9,3.9,0,0,1,.55-.64c.18-.55.74-.72.82-1.37.45-.31.63-.9,1-1.28a9.58,9.58,0,0,1,.91-1.28,4.81,4.81,0,0,1,.46-.64c.2-.19.22-.57.55-.64.1-.66.64-.88.82-1.46a5.33,5.33,0,0,0,.91-1.37c.73-.76,1.16-1.82,1.83-2.65.51-1,1.2-1.78,1.73-2.74a31.28,31.28,0,0,0,1.46-3,11.24,11.24,0,0,0,1.37-3.19c0-.07-.08-.11-.18-.09s-.15.15-.18.27c-1.55,1.4-2.77,3.13-4.29,4.56-.19.54-.74.72-1,1.19-.45.28-.62.84-1.09,1.09a23.68,23.68,0,0,1-2,2.46c-.3.43-.75.71-.91,1.28-.22.15-.48.25-.55.55a1.85,1.85,0,0,0-.46.64c-.72.78-1.23,1.75-2,2.46-.5,1-1.25,1.67-1.82,2.55-.16.2-.24.49-.46.64s-.22.51-.46.64a4.4,4.4,0,0,1-1,1.28,4.06,4.06,0,0,1-.91,1.28c-.19.54-.63.83-.82,1.37a7.38,7.38,0,0,0-.91,1.28,4.73,4.73,0,0,0-.91,1.37A16.47,16.47,0,0,0,178,32.3c-.6.89-1.28,1.7-1.82,2.65-1.28,1.67-2.3,3.6-3.47,5.38s-2.14,3.82-3.28,5.66C169.37,46.28,169.62,46.12,169.62,46ZM95.81,41.24a27.63,27.63,0,0,0,.09-3.92,6.54,6.54,0,0,1-.46-1.82,25,25,0,0,0-1.64-2.74,9.94,9.94,0,0,0-5.11-2.28,5,5,0,0,0-2.37.36c-.52.19-1.05.28-1.55.46-.25.09-.43.3-.73.27-.61.49-1.26.93-1.92,1.37a4.18,4.18,0,0,1-.82.82c-.27.27-.39.7-.73.91a23.22,23.22,0,0,1-.91,2.19c.06.52-.15.76-.09,1.28.08.19.32-.22.46-.27s.42-.25.55-.46c.46-.21.71-.62,1.19-.82a12.57,12.57,0,0,1,1-1.19c.33-.37,1-.39,1.28-.82.66-.07.65-.81,1.37-.82.09,0,.11-.07.18-.09a5.26,5.26,0,0,1,3.47.91c0,.49.48.49.46,1a2.52,2.52,0,0,1-.73,1.73,4.24,4.24,0,0,1-.36,1c-.23.07-.23.38-.36.55a2.63,2.63,0,0,0-1.46,1.28,8,8,0,0,1-1.19.27c-.39.21-.56.66-1,.82a4.13,4.13,0,0,1-.91.91c-.45.8-1.27,1.23-1.73,2,.3.15.31.6.64.73.1.35.57.34.73.64.72.25,1.42.53,2.1.82,3.07.57,6.39-.59,9.4-1.37C94.93,43.65,95.43,42.5,95.81,41.24Zm106.66,6.11a21.65,21.65,0,0,1-.09-3.28,15,15,0,0,1-.73-2.65,27.8,27.8,0,0,0-2.37-3.1,17.24,17.24,0,0,1-1.73-.91,14.47,14.47,0,0,0-3.47-.46c-.66.19-1.58.11-2.28.27a10.71,10.71,0,0,0-1.09.46c-.2.07-.37.11-.55.18-.44.18-1,.49-1.28.64a5.48,5.48,0,0,0-.55.27,11.46,11.46,0,0,0-1.19.82,10,10,0,0,0-2.55,3.1c-.11.68-.35,1.23-.46,1.92a9.87,9.87,0,0,0,.55,3.83c.47,0,.55-.49.91-.64a1.54,1.54,0,0,1,.91-.64,17.62,17.62,0,0,1,1.73-1.46c.55-.52,1.19-.93,1.73-1.46A5.26,5.26,0,0,1,191.88,43a1.92,1.92,0,0,0,1,.46c.29.5.85.73,1,1.37a3.81,3.81,0,0,1,.09,1.09c-.11,0-.1.14-.09.27-.74,1.29-2.09,2-2.83,3.28a13,13,0,0,0-2.74,3.38A7.16,7.16,0,0,0,190.6,54c.56,0,.94.21,1.46.27a4,4,0,0,1,1.46.27c.42-.34,1.4-.12,1.92-.36a13.69,13.69,0,0,0,2-.36,22,22,0,0,0,3.65-1.09A19.88,19.88,0,0,0,202.47,47.35Zm-43.16-8.67a16.62,16.62,0,0,1-2.28.46c-.55.3-1.22.48-1.73.82-.23.2-.7.15-.82.46-.41,0-.4.45-.82.46A8.22,8.22,0,0,0,152.19,42a7.45,7.45,0,0,0-1.46,1.19c-.59.27-.86.84-1.37,1.19s-.89.87-1.28,1.37A12,12,0,0,0,146.81,47c-.49.4-.8,1-1.28,1.37s-.81.89-1.19,1.37-.79,1-1.19,1.46c-.8.93-1.53,1.94-2.28,2.92-.3.55-.75.95-1.09,1.46a15.56,15.56,0,0,0-1.1,1.55c-.8.93-1.33,2.14-2.19,3-.33,1-.94,1.68-1.28,2.65A23.17,23.17,0,0,0,134,65.6a30.26,30.26,0,0,0-.91,3.1c-.32,1-.36,2.32-.64,3.38a2.8,2.8,0,0,1,0,1.46c.22.26.1.88.27,1.19a5.55,5.55,0,0,1,.36,1.09,22.5,22.5,0,0,1,2.1,1,11.85,11.85,0,0,0,2.19.18,7.86,7.86,0,0,1,1.28-.36,18.25,18.25,0,0,0,2.83-2q1.31-1.11,2.65-2.19c.88-.74,1.55-1.67,2.46-2.37.24-.55.79-.8,1.09-1.28.45-.31.76-1,1.28-1,0-.68.5-.84.82-1.19,0-.36.39-.28.36-.64.23-.13.3-.43.73-.36-.13-.49.25-.48.27-.82.3-.09.32-.47.64-.55a3.81,3.81,0,0,1,1-1.28c.24-.52.72-.8,1-1.28a15.93,15.93,0,0,0,.91-1.37,15.55,15.55,0,0,0,.91-1.37,12.26,12.26,0,0,0,.82-1.46c.64-.89,1-2,1.64-2.92,1.91-4.2,4.63-7.6,5.2-13.14-.16-.32-.24-.73-.64-.82-.24-.25-.24-.74-.46-1-.5-.17-.61-.73-1.09-.91C160.53,38.65,159.63,38.74,159.31,38.69ZM90.61,49.36c-1.2,0-2.31.19-3.56.18-1.29-.23-2.35-.69-3.56-1a3.22,3.22,0,0,0-.91-.55c-.29-.19-.51-.46-.82-.64A9.93,9.93,0,0,1,80.11,46a.46.46,0,0,0-.27.27c-.72.71-1.3,1.56-2,2.28q0,.3-.27.27c0,.21,0,.34-.18.36a4.82,4.82,0,0,1-.46.64A6.34,6.34,0,0,0,76,51.09c-.72.74-1.18,1.74-1.82,2.55a18.33,18.33,0,0,1-1.73,2.65c-.44,1-1,1.86-1.46,2.83a7.83,7.83,0,0,0-.73,1.46c-.23.5-.49,1-.73,1.46A35.12,35.12,0,0,0,67.71,69a13.77,13.77,0,0,0,.46,3.83c.5.75.88,1.61,1.73,2h2.19a32.15,32.15,0,0,0,3.83-2c1-.95,2.1-1.79,3-2.83,1.87-2.05,3.59-4.25,5.29-6.48,1.54-2.36,3.13-4.66,4.56-7.12.77-1.18,1.42-2.47,2.19-3.65s1.35-2.6,1.92-4C92.11,48.91,91.42,49.2,90.61,49.36Zm95.71,5.93a20.48,20.48,0,0,0-2.1,2.74,28.1,28.1,0,0,0-1.82,3A27.87,27.87,0,0,0,181,64.51c-.09.73-.28,1.36-.36,2.1s0,1.34,0,2.28c.17.49.14,1.2.46,1.55a3.29,3.29,0,0,0,.73,1.37,7.52,7.52,0,0,0,3.92.18,10.61,10.61,0,0,0,2.37-1.28c.38-.23.63-.59,1.1-.73a1.28,1.28,0,0,1,.46-.46,3.14,3.14,0,0,0,.55-.46,34.28,34.28,0,0,0,3.56-3.83,21.61,21.61,0,0,0,1.55-2.1,9.71,9.71,0,0,0,1.46-2.28,36,36,0,0,0,2.83-4.65,39.07,39.07,0,0,1-7.48.82,9.41,9.41,0,0,1-5.38-2h-.18A.46.46,0,0,0,186.32,55.29Z" style="fill:#fff;fill-rule:evenodd"/><path d="M54.75,45.53c.55.12.55-.31,1.09-.18.19.21.82,0,1,.18A5.4,5.4,0,0,0,59.95,44c.5-.29.79-.79,1.28-1.09.18-.21.3-.49.64-.55a1,1,0,0,1,.46-.64c.72-.83,1.42-1.68,2.1-2.55a9.79,9.79,0,0,1,1.09-1.28c.21-.55.68-.84.91-1.37.73-.83,1.31-1.79,2-2.65.26-.53.68-.9.91-1.46.45-.32.59-.93,1-1.28.24-.55.64-.94.91-1.46s.65-.87.91-1.37.6-.92.91-1.37c.12-.27.34-.45.46-.73.29-.08.2-.53.55-.55A8,8,0,0,1,74.91,24c.38-.41.62-1,1-1.37.2-.62.68-1,.82-1.64.33-.06.21-.58.55-.64-.07-.28.25-.18.18-.46.22,0-.05-.42.27-.27a1.56,1.56,0,0,1,.36-.91c.17-.22.22-.57.46-.73.15-.64.6-1,.73-1.64.26-.21.24-.56.36-.82s.31-.48.46-.73A9.33,9.33,0,0,1,81,13.32c-.06-.34.45-.58.18-.82a4.91,4.91,0,0,0,1-1.73c.3-.54.75-1.3.36-2-.51.07-.69.47-1.09.64s-.71.45-.91.82a22.34,22.34,0,0,1-1.82,1.55c-.45.67-1.19,1.06-1.55,1.82a14.33,14.33,0,0,0-1.55,1.82c-.6.53-1,1.26-1.64,1.73-.16.42-.55.6-.73,1-.36.19-.41.69-.82.82-.37.75-1,1.22-1.46,1.92s-1,1.22-1.55,1.82c-2.11,2.39-3.94,5.07-6,7.48-1.93,2.58-3.83,5.17-5.75,7.76-.95,1.34-1.74,2.82-2.74,4.11a15,15,0,0,1-1.37,2c-.21.37-.57.59-.73,1a2.85,2.85,0,0,0-.73.91,13.86,13.86,0,0,0-1.46,1.92,13.27,13.27,0,0,0-1.46,1.92,9.89,9.89,0,0,0-1.55,1.82,2.84,2.84,0,0,0-.82.91c-.24.31-.58.52-.73.91a9.8,9.8,0,0,0-1.55,1.82c-1.65,1.73-3,3.77-4.65,5.47a11.91,11.91,0,0,1-1.46,1.92c-.44.69-1.06,1.19-1.55,1.82q-1.54,1.83-3.1,3.65a22.5,22.5,0,0,0,2.37,1.73,11.78,11.78,0,0,1,2.1,1.92,3.16,3.16,0,0,1,.82.55c.36.06.42.43.73.55a14.08,14.08,0,0,0,1.55,1c1,.69,2,1.43,3,2.1s2.09,1.32,3,2.1c.39,0,.39.47.82.46.22.2.5.35.73.55s.53.32.82.46c.13.3.67.18.64.64a1.94,1.94,0,0,1,1.19.64c.2.11.44.17.55.36.18,0,.29,0,.27.18.07-.06.25-.14.27,0,.48.13.68.54,1.19.64a3.87,3.87,0,0,1,1,.82c.67,0,1,.33,1.64.64.25.12.45.33.82.27.1.32.55.3.55.73h.64c.14.07.14.29.36.27s.6.19.73.46a2.36,2.36,0,0,1,1.09.46,3.33,3.33,0,0,1,1.19.55c.83.3,1.6.66,2.37,1s1.61.71,2.46,1a6.57,6.57,0,0,1,1.09.46,3.17,3.17,0,0,0,1.28.37,2.19,2.19,0,0,0,1,.55c.18.22.39-.15.46.18.24.25.2-.11.46-.09a.5.5,0,0,0,.36.36,3,3,0,0,1,1.82.55c.4-.31.94.09,1.37.27,2.58.21,5,.64,7.48.91,1.56.07,2.88-.1,4.38-.09.6,0,.91-.32,1.46-.18s-.14-.25.27-.18c.09.39.25-.32.27,0,.38-.18.53-.09.91-.18a17,17,0,0,0,1.82-.64A14.12,14.12,0,0,0,94.53,89c.86,0,1.16-.6,2-.64,1.73-1.4,3.54-2.72,5.2-4.2.67-.92,1.77-1.4,2.37-2.37.49-.3.71-.87,1.28-1.09a1.37,1.37,0,0,1,1.28-1c.78.17.66,1.22.36,1.82a15.6,15.6,0,0,0-1.1,1.64c-.71.35-1,1.12-1.73,1.46a4.17,4.17,0,0,1-.82.82c-.18.34-.57.47-.73.82-.32.23-.46.63-.82.82a3.08,3.08,0,0,1-.82.73,5.93,5.93,0,0,0-.73.82,1.84,1.84,0,0,0-.82.73c-.33.06-.42.37-.82.36-.07.3-.35.38-.55.55a10.18,10.18,0,0,1-1.46.82,9.43,9.43,0,0,1-3,1.55,21.76,21.76,0,0,1-3.38,1.19c-.64.23-.94.26-1.64.46-.31.2-.41,0-.73.18a1.71,1.71,0,0,0-.82.27c-.38-.23-.46.25-.73-.09-.08.11-.59.53-.64.09-.26,0-.23.26-.36.36s-.38-.18-.55,0c-.46,0,.18-.54-.36-.46s.09.2-.09.46c-.39,0-.37.3-.73.09,0-.13-.16,0-.18.09s-.19-.11-.36-.09c-.14.26-.39.16-.55,0,0,.34-.57,0-.64.27-.48-.24-.67-.1-1.19,0-.37-.14-.55.1-.73-.18-.16.23-.12.1-.46.09s-.28.21-.55.18-.57-.16-.82-.27-.29.36-.36.09c-.16.05-.38-.27-.46,0a.67.67,0,0,0-.73-.09,9.07,9.07,0,0,0-2.1-.18c-.4,0-.51-.28-1-.18-.21-.16-.76,0-.82-.27a4.91,4.91,0,0,1-1.82-.18,3.51,3.51,0,0,1-.82-.36c-.22.27-.55-.11-.82-.09-.13-.38-.47,0-.73-.18a2.59,2.59,0,0,0-.91-.18c0-.09-.11-.07-.18-.09-.38,0-.46-.33-.73-.46-.56,0-.69-.31-1.19-.09-.15,0-.28-.55-.46-.27-.2-.11-.59,0-.64-.27-.35,0-.57,0-.64-.27-.33.05-.51,0-.55-.27a7.67,7.67,0,0,1-2.55-.82,13.2,13.2,0,0,1-2.28-1c-.52,0-.76-.34-1.19-.46A9.52,9.52,0,0,1,56,89,15,15,0,0,1,53.84,88c-.81-.32-1.44-.81-2.19-1.19-.48-.06-.61-.48-1.09-.55-.3-.25-.77-.32-1-.64a41.43,41.43,0,0,1-4.11-2.46,8.88,8.88,0,0,1-2-1.37c-.46-.09-.68-.41-1-.64s-.6-.5-1-.64q-1.94-1.35-3.83-2.74c-2.51-1.9-5-3.79-7.57-5.66-.48,0-.48.43-.82.55-.13.3-.49.36-.64.64-.35.54-1,.74-1.37,1.28-1,.71-1.85,1.62-2.92,2.28A21.59,21.59,0,0,1,17,80c-1.1,0-2,.24-3.19.18a24,24,0,0,1-4.29-.55A21,21,0,0,1,6,78.37c-.32-.44-.91-.61-1.28-1S4,76.61,3.56,76.28a16.32,16.32,0,0,1-1.82-2.65c-.23-.53-.52-1-.73-1.55s-.32-1.2-.55-1.73a34.51,34.51,0,0,1-.46-4A25.64,25.64,0,0,1,.1,63,21,21,0,0,1,.74,60a9.91,9.91,0,0,0,.91-1.37C3.14,57,6,56.48,9,56.66a28.18,28.18,0,0,1,4.11.64c.59.2,1.18.4,1.82.55.22.18.61.18.82.36.47-.07.38.41.91.27.43.39,1.22.42,1.64.82a5.67,5.67,0,0,1,1.55.82,4.87,4.87,0,0,1,1.55.82c.34.05.68.11.73.46.5-.1.48.31.91.27a5,5,0,0,0,1.46.91c.47.32,1,.6,1.46.91.95.63,2,1.14,2.92,1.82.48-.13.6-.61,1-.82.13-.45.64-.52.73-1a12.65,12.65,0,0,0,1.64-1.82c.59-.59,1.06-1.31,1.64-1.92s1-1.34,1.55-1.92a3.7,3.7,0,0,1,.82-1c.22-.36.49-.67.73-1a20.25,20.25,0,0,0,1.55-1.92c1.09-1.25,2.07-2.61,3.19-3.83s2.07-2.61,3.1-3.92c.5-.69,1.08-1.3,1.55-2,.6-.55.92-1.4,1.55-1.92a19,19,0,0,1,1.46-2.1c.51-.64,1-1.33,1.46-2,1-1.31,2-2.65,2.92-4,.62-.56,1-1.4,1.55-2a3.5,3.5,0,0,1,.73-1,5.46,5.46,0,0,1,.73-1c.54-.64,1-1.38,1.55-2a20,20,0,0,0,1.46-2,16,16,0,0,0,1.55-2c.53-.62,1-1.26,1.55-1.92S64.14,21,64.6,20.26c.3-.28.72-.43.82-.91.43-.14.46-.69.91-.82,0-.32.32-.29.46-.46s.12-.49.36-.55c.11-.47.61-.54.73-1,.61-.54,1.07-1.24,1.73-1.73.44-.74,1.2-1.17,1.64-1.92.41-.16.56-.6.82-.91s.62-.54.91-.82c1.05-1.29,2.41-2.27,3.56-3.47.45-.12.58-.58,1-.73a11.31,11.31,0,0,0,.91-.82,8.85,8.85,0,0,0,2-1.46c.29-.11.72-.07.82-.36.51.12.4-.39.91-.27.52-.27,1.32-.26,1.82-.55a4,4,0,0,1,3.1.91.25.25,0,0,0,.18.27,3.53,3.53,0,0,0,.55,1.82c-.06.66.16,1.06.09,1.73-.17.89-.26,1.87-.36,2.83-.43.81-.64,1.85-1,2.74s-.73,1.76-1,2.74c-.51.73-.65,1.84-1.09,2.65a9.31,9.31,0,0,0-.55,1.28c-.18.42-.52.7-.55,1.28A3.37,3.37,0,0,0,82.76,23a8.75,8.75,0,0,0-.64,1.19c-.44.78-.87,1.56-1.28,2.37s-.91,1.59-1.46,2.28c0,.56-.59.63-.64,1.19A3.39,3.39,0,0,0,78,31.11c-.15.19-.49.18-.46.55s-.31.29-.36.55c-.34,0-.17.44-.46.46-.13.17-.13.47-.36.55-.2.44-.61.67-.73,1.19-.27,0-.3.31-.46.46s-.3.31-.36.55c-1,1.41-2.24,2.69-3.38,4-2.36,2.56-4.74,5.12-7.94,6.84a6.7,6.7,0,0,0-1.55.46c-1.71,0-3.1.79-4.65.64-.53,0-.42-.56-.73-.73s-.62-.11-.82-.27c-.34,0-.08-.52-.55-.36C55.12,45.77,54.75,45.83,54.75,45.53Zm-29.2,22.9c-.19-.05-.29-.19-.46-.27a2.12,2.12,0,0,0-.82-.64,14.87,14.87,0,0,0-1.55-1.37c-.66-.32-1.08-.87-1.73-1.19a13.09,13.09,0,0,0-1.73-1.19,30.12,30.12,0,0,0-7.85-3.92c-.91-.13-1.74-.33-2.65-.46H6.67a10.34,10.34,0,0,0-3.74,1.09,13.27,13.27,0,0,0-.82,2.1C2,63,2.07,63.52,2,64a5.82,5.82,0,0,0-.18,1.09,24.61,24.61,0,0,0,.82,5.57,8.4,8.4,0,0,0,.91,2.28,17.28,17.28,0,0,1,1.37,1.92c.54.07.67.55,1.09.73s.76.46,1.09.73a15.2,15.2,0,0,0,5.57.73A19.52,19.52,0,0,0,17,76c.28-.36.88-.4,1.19-.73s.86-.47,1.28-.73c.06-.28.41-.25.55-.46s.3-.37.55-.46a8,8,0,0,0,1.09-.91,25.71,25.71,0,0,0,2.1-1.92c.34-.33.67-.67,1-1,.24-.09.31-.36.55-.46.09-.25.44-.23.46-.55C26,68.71,25.53,68.59,25.55,68.43Z" style="fill:#fff;fill-rule:evenodd"/><path d="M155.2,63.14s.07-.12.09-.09S155.23,63.16,155.2,63.14Z" style="fill:#fff;fill-rule:evenodd"/><path d="M268.52,63.87h-.18c0-.13.15-.15.18-.27S268.59,63.79,268.52,63.87Z" style="fill:#fff;fill-rule:evenodd"/><path d="M268.34,63.87V64C268,64.12,268.2,63.87,268.34,63.87Z" style="fill:#fff;fill-rule:evenodd"/><path d="M267.88,64.23c0-.27.38.09,0,0Z" style="fill:#fff;fill-rule:evenodd"/><path d="M267.88,64.23c0,.4-.36,0,0,0Z" style="fill:#fff;fill-rule:evenodd"/><path d="M156,71.44s.07-.12.09-.09S156.05,71.47,156,71.44Z" style="fill:#fff;fill-rule:evenodd"/><path d="M157.3,73.81c-.1,0-.14-.13-.18,0-.14,0-.08-.22-.09-.36C157.16,73.53,157.32,73.58,157.3,73.81Z" style="fill:#fff;fill-rule:evenodd"/><path d="M157.3,73.81c.06,0,.11,0,.09.09S157.29,73.89,157.3,73.81Z" style="fill:#fff;fill-rule:evenodd"/><path d="M157.39,73.9h.09C157.49,74,157.41,74,157.39,73.9Z" style="fill:#fff;fill-rule:evenodd"/><path d="M158,74.54c0,.08,0,.09.09.09C158.13,74.94,157.73,74.53,158,74.54Z" style="fill:#fff;fill-rule:evenodd"/></g></g></svg>