<svg xmlns="http://www.w3.org/2000/svg" viewBox="0 0 315.33 88.72"><title>Melbourne</title><g id="45a885a4-1dec-4f47-9e2c-61c1617df841" data-name="Layer 2"><g id="b78e9f9a-405f-4382-99ed-e8bc3e333d28" data-name="Layer 1"><path d="M36.72,34.76c.74-.27.92-1.09,1.55-1.46a10.22,10.22,0,0,1,1.37-1.64c.49-.51,1-1,1.46-1.55S42,29,42.47,28.56a31.4,31.4,0,0,0,2.92-3.1c.33-.19.47-.56.73-.82.34-.07.55-.39.73-.73.71-.26.86-1.09,1.55-1.37,1.88-2.11,4.16-3.81,6.2-5.75a10.77,10.77,0,0,0,1.73-1.28,20.4,20.4,0,0,1,1.73-1.19,21.69,21.69,0,0,1,1.82-1.19c.69-.29,1.12-.83,1.82-1.09.47,0,.7.33,1.19.36.53.2.71.75,1.1,1.09.12.25.37.36.55.55s.25.42.46.55a22.9,22.9,0,0,1,0,4.65,34.79,34.79,0,0,1-2.55,8A11.47,11.47,0,0,1,61.53,29a6.27,6.27,0,0,1-.91,1.73,9.78,9.78,0,0,0-.91,1.73c-.25.6-.71,1-.91,1.64q-2.06,3.23-4.11,6.48c-.37.51-.69,1.07-1.1,1.55-.19.7-.72,1-1,1.64-.69,1-1.44,2-2.1,3.1.11.22.27-.27.46-.27,0-.3.39-.22.36-.55.41-.2.51-.71.91-.91.57-.65,1.17-1.26,1.73-1.92,1.19-1.25,2.37-2.49,3.47-3.83s2.34-2.53,3.47-3.83a21.85,21.85,0,0,1,1.82-1.82,10.67,10.67,0,0,1,.91-.91c.21-.4.69-.53.82-1a5.46,5.46,0,0,0,.91-.91,5.81,5.81,0,0,0,.91-.91,22.23,22.23,0,0,1,1.82-1.82c1.19-1.24,2.43-2.44,3.74-3.56s2.61-2.26,4-3.28c.66-.56,1.39-1,2.1-1.55a18.46,18.46,0,0,0,2.28-1.37c.54,0,.77-.39,1.46-.27.9,0,1.1.73,1.82.91.13.33.24.68.55.82.27,1,.52,2,.82,2.92a26.35,26.35,0,0,1-.64,6.75c-.07.26-.19.47-.27.73-.22.68-.43,1.38-.64,2l-.27.82c-.15.44-.45,1-.64,1.46a8.59,8.59,0,0,1-.82,1.73,17.37,17.37,0,0,1-1.37,2.83,8.38,8.38,0,0,1-.73,1.37c-.3.4-.49.91-.82,1.28A6.47,6.47,0,0,1,78,43.16a10.25,10.25,0,0,0-.73,1.37c-.57.8-1,1.73-1.55,2.55-2.06,3.53-4.29,6.91-6.11,10.68-1.08,1.72-1.85,3.75-2.92,5.47-.13.57-.48.92-.64,1.46s-.46.93-.73,1.37a13.85,13.85,0,0,1-1.37,2.74,3.51,3.51,0,0,0-.18,1c0,.35-.07,0-.27.09,0,.19-.06.24-.09.36a.85.85,0,0,1-.36.55c0,1.39-.76,2.1-.91,3.38-.45.95-.52,2.28-1,3.19.25.69-.13,1.5-.18,2.19A3,3,0,0,1,61,81c.28.54.38,1.26.64,1.83a4.11,4.11,0,0,0,.73,1.73c.06.21.3.24.36.46A7,7,0,0,0,65.91,87a10.8,10.8,0,0,0,2.28-.27c.81-.31,1.5-.75,2.28-1.09.32-.22.86-.23,1-.64.51,0,.61-.62,1.09-.36a4.24,4.24,0,0,1,1.19-.91c.3-.4.84-.56,1.19-.91s.77-.63,1.19-.91a4,4,0,0,1,1.09-.91c.65-.72,1.5-1.24,2.19-1.92a14.2,14.2,0,0,0,2.1-2c-.83-.14-2.09.11-3.19,0a1.42,1.42,0,0,0-.73-.27A25,25,0,0,1,75.77,75a5.13,5.13,0,0,1-.82-.91c-.17-.14-.23-.38-.46-.46s-.11-.43-.36-.46a21.84,21.84,0,0,0-1-2.19,20.89,20.89,0,0,1-.64-4.84,28.77,28.77,0,0,1,1.92-7.39A16.22,16.22,0,0,1,76,55.66a3.1,3.1,0,0,1,.46-.73c.17-.23.19-.6.46-.73.18-.58.71-.81.82-1.46.53-.26.72-.87,1.09-1.28a8.4,8.4,0,0,0,1-1.28c.84-.71,1.54-1.56,2.37-2.28s1.72-1.38,2.65-2c.23-.17.6-.19.73-.46s.66-.13.73-.46a5.68,5.68,0,0,0,1.55-.73c1-.19,1.87-.57,2.92-.73a7.68,7.68,0,0,1,3.1.46c.6.35.86,1,1.46,1.37a11.34,11.34,0,0,0,.82,2.19,25.1,25.1,0,0,1-.91,4.93c-.22.87-.65,1.54-.82,2.46a37.07,37.07,0,0,1-2.19,3.28A22.44,22.44,0,0,1,89.64,61a6.41,6.41,0,0,1-1.28,1.19c-.25.17-.6.5-.91.73-.08.06-.21,0-.27.09s0,.11-.09.18-.32.1-.46.18-.09.13-.18.18c-.36.21-.91.45-1.37.73a7.57,7.57,0,0,1-1.28.36,2.28,2.28,0,0,1-.46.18,4.64,4.64,0,0,1-.55.09c-.28,0-.44-.21-.64,0,0-.23-.31-.18-.55-.18A18.1,18.1,0,0,1,80,63.41c-.24-.7-.67-1.22-.91-1.92-.4.27-.31,1-.64,1.37A9,9,0,0,0,78,64.42,3.64,3.64,0,0,0,77.5,66a5,5,0,0,0-.36,1.64A7,7,0,0,0,77,69.34a8.29,8.29,0,0,0,.09,1.92A6.83,6.83,0,0,0,77.41,73a1.07,1.07,0,0,1,.27.73c.32,0,.29.32.46.46,2.32.84,5.06,0,6.75-.91a2.25,2.25,0,0,0,.73-.64c.2-.21.32-.55.64-.64.12.23-.27.38,0,.46,1-.66,2-1.33,2.92-2a8.56,8.56,0,0,1,1.28-1.19c.33-.47.91-.67,1.19-1.19a6.2,6.2,0,0,0,.73-.55c.07-.32.46-.33.55-.64a6.11,6.11,0,0,0,1.28-1.19c.77-.84,1.55-1.68,2.28-2.55a11.18,11.18,0,0,1,.64-2.28,12.89,12.89,0,0,1,.82-2.1,43.13,43.13,0,0,1,1.55-4.2c.42-.55.55-1.39,1-1.92.15-.79.68-1.21.82-2a12.59,12.59,0,0,0,1.1-1.82c.34-.6.64-1.24,1-1.82.71-1.2,1.43-2.4,2.19-3.56s1.52-2.31,2.37-3.38,1.55-2.28,2.46-3.28a9.76,9.76,0,0,1,1.28-1.64c.35-.59.84-1,1.19-1.64a36,36,0,0,1,2.65-3.1c.9-1,1.77-2.06,2.74-3,1.83-2,3.87-3.8,5.84-5.66,1-.9,1.9-1.93,3-2.74.44-.53,1.11-.84,1.55-1.37.34-.15.41-.57.82-.64.22-.24.36-.55.73-.64a35.19,35.19,0,0,1,3.19-2.55,8.7,8.7,0,0,1,1.82-1.09,6.63,6.63,0,0,1,1.92-.91,3.67,3.67,0,0,1,1.73.46,3.33,3.33,0,0,1,.64,1.19c0,.32.43.18.36.55.14.17.1.51.27.64a16.94,16.94,0,0,1-.64,4.56A18.34,18.34,0,0,1,138.27,23a49.7,49.7,0,0,1-3.47,6.84,51.85,51.85,0,0,1-4.47,5.84,67.65,67.65,0,0,1-4.84,5.47c-3.48,3.4-7.23,6.51-11,9.58-2.06,1.38-3.88,3-5.84,4.47s-3.82,3-5.75,4.47c-.61,1.58-1.27,3.11-1.82,4.74s-1,3.42-1.46,5.11a24.06,24.06,0,0,0-.18,3.83,7.76,7.76,0,0,1,.18,1.28,4.05,4.05,0,0,0,1.55,2.19c2.67.16,4.49-1.29,6.2-2.37a24.25,24.25,0,0,0,2.46-1.92c.76-.67,1.57-1.29,2.28-2,1.43-1.46,2.76-3,4.2-4.47a47.33,47.33,0,0,0,4.11-4.56A25,25,0,0,1,121.94,58c.27-.58.57-1.13.82-1.73a5.16,5.16,0,0,0,.82-1.64c.36.15,0-.39.27-.36s.09-.34.27-.36c.12-.31.32-.53.46-.82.34-.48.58-1.06.91-1.55.62-1,1.21-2.13,1.92-3.1s1.27-2.08,2-3c.34-.51.62-1.08,1-1.55.21-.61.73-.92.91-1.55,1.56-1.78,2.69-4,4.2-5.84a1.92,1.92,0,0,1,.55-.73c.16-.27.27-.58.55-.73.31-.51.66-1,1-1.46.71-1,1.42-1.93,2.19-2.83,1.39-2,2.84-3.85,4.38-5.66s3-3.69,4.47-5.57c.74-.94,1.53-1.82,2.28-2.74s1.19-2.1,2.55-2.37a1.81,1.81,0,0,1,1.28.27c.45.13.47.69.82.91,0,.14,0,.35.09.36a9.45,9.45,0,0,1-.09,1.64,22.71,22.71,0,0,1-1.37,2,19.51,19.51,0,0,1-1.37,1.92,12.17,12.17,0,0,1-1.37,1.92c-.15.4-.47.62-.64,1-.14.14-.16.38-.36.46s-.13.41-.36.46a10.06,10.06,0,0,1-.73,1c-.38.17-.37.72-.73.91a19.14,19.14,0,0,1-1.37,1.92c-.38.72-1,1.14-1.37,1.92-.57.52-.92,1.27-1.46,1.82s-.94,1.32-1.37,2-1,1.15-1.37,1.92a44.7,44.7,0,0,0-2.65,3.92c-.58.54-.88,1.37-1.46,1.92a16.68,16.68,0,0,1-1.28,2c-.13.41-.48.62-.64,1s-.5.6-.64,1a22,22,0,0,0-1.28,2c.76-.52,1.25-1.3,2.1-1.73.26-.37.74-.54,1.09-.82a5.11,5.11,0,0,1,1-.82c.73-.55,1.53-1,2.28-1.55a20.59,20.59,0,0,1,2.19-1.55c.78-.49,1.62-.94,2.46-1.37a11.76,11.76,0,0,1,2.46-1.28A11.26,11.26,0,0,1,153.32,38a11.14,11.14,0,0,1,1.55.36,6.38,6.38,0,0,1,1.46,1.46,8.3,8.3,0,0,1,.64,1,14.65,14.65,0,0,1,.91,3.65,19.29,19.29,0,0,1-1.09,7.57c-.48,1-.84,2.2-1.37,3.19s-1.1,1.94-1.55,3a12.92,12.92,0,0,0-.91,1.37c-.3.46-.63.89-.91,1.37-.72.77-1.15,1.83-1.92,2.55a4.17,4.17,0,0,1-1,1.28,10.12,10.12,0,0,1-1,1.28c-.66.86-1.48,1.56-2.19,2.37a11.67,11.67,0,0,0-1.19,1.09,11.47,11.47,0,0,0-1.19,1.09,7.86,7.86,0,0,0-1.28,1,9.59,9.59,0,0,1-1.28.91A27.63,27.63,0,0,1,135.26,76a13.53,13.53,0,0,1-7.12,1.55,13.16,13.16,0,0,1-2.92-.91,18.84,18.84,0,0,1-2-1.92,6.24,6.24,0,0,0-1-1,9.25,9.25,0,0,0-.82-1.1,5.22,5.22,0,0,0-.46,1.83,2.68,2.68,0,0,1-1.19-.64c-.28-.33-.74-.47-1-.82a9.13,9.13,0,0,0-.64-1.09,9.81,9.81,0,0,1,0-2.83c.2-.83.33-1.74.55-2.55-.1-.21-.31.23-.37.37-.24.06-.19.42-.46.46-.13.48-.65.57-.73,1.09-.65.57-1.1,1.34-1.73,1.92-1.11,1.29-2.33,2.47-3.56,3.65a26.16,26.16,0,0,1-4.2,3.1,12,12,0,0,1-2.55,1.09,9.77,9.77,0,0,1-2.92.64H101a11.44,11.44,0,0,1-2.1-.64,18.61,18.61,0,0,1-2.55-2.92,16.64,16.64,0,0,1-1-7.85c-.16-.32-.18.23-.36.18-.09.12-.09.34-.27.36-.23.23-.36.55-.64.73-.37.54-.83,1-1.19,1.55a25.35,25.35,0,0,1-2.74,2.65A21.55,21.55,0,0,1,87,75.18a12,12,0,0,1-3.92,1.46c-1,.88-1.77,2.06-2.83,2.92-.1.14-.3.19-.27.46-.27,0-.31.17-.46.27-.11.35-.51.4-.64.73-.46.48-1.11.77-1.46,1.37-.55.39-1,.87-1.55,1.28-.32.17-.4.58-.82.64a4.58,4.58,0,0,0-.73.64c-.21.28-.75.23-.82.64-.29,0-.37.11-.46.27s-.39,0-.36.27A5.11,5.11,0,0,0,71,87.32c-.18.13-.32-.1-.46.18-.19.12-.27,0-.55.09-.07.19-.27.37-.46.18,0,.21-.28.2-.36.36a8.55,8.55,0,0,0-1.37.27c-.33.22-.66.06-1.09.27a9.19,9.19,0,0,1-3.92-.55c-.33-.09-.39-.46-.73-.55-.13-.3-.66-.19-.73-.55-.56-.29-1-.69-1.55-1a14.82,14.82,0,0,1-2.1-3.1,14.88,14.88,0,0,1-1.09-4,21.76,21.76,0,0,1,.27-4.74,26.49,26.49,0,0,1,.82-4.29c.46-1.39.72-2.58,1.19-3.83a16.08,16.08,0,0,1,.64-1.92c.32-.53.39-1.31.82-1.73,0-.46.32-.59.36-1,.3-.13.15-.7.46-.82,0-.43.35-.5.36-.91.22-.21.21-.64.46-.82,0-.4.3-.55.36-.91s.22-.63.46-.82a11.9,11.9,0,0,1,.82-1.73,56.56,56.56,0,0,1,3.56-6.66,6.61,6.61,0,0,1,1-1.64,6.23,6.23,0,0,1,.91-1.64c.52-1.18,1.29-2.11,1.82-3.28.32-.13.26-.65.55-.82a5.06,5.06,0,0,1,.46-.82,8.5,8.5,0,0,0,.91-1.64,27,27,0,0,0,2-3.1,23.71,23.71,0,0,0,1.92-3.28,4,4,0,0,0,.91-1.64c.38,0,.33-.52.55-.73s.23-.62.46-.82a29.48,29.48,0,0,0,2.83-7.39c-.86.17-1.28.78-2,1.09a9.13,9.13,0,0,1-1.82,1.19q-1.58,1.48-3.19,2.92c-.28.24-.64.4-.82.73s-.65.38-.73.82A11.66,11.66,0,0,0,71.3,30a11.45,11.45,0,0,0-1.46,1.55c-.33.19-.49.54-.82.73-.1.39-.59.38-.64.82-1.08,1-1.94,2.13-3,3.1s-2,2-2.92,3.1c-1.12.92-2,2.08-3,3.1s-1.94,2.07-2.92,3.1c-.43.61-1.08,1-1.55,1.55a5.27,5.27,0,0,0-.73.82c-.22.27-.52.45-.64.82a19.8,19.8,0,0,0-2.92,3.1c-.33.19-.49.54-.82.73,0,.3-.28.26-.36.46s-.32.17-.27.46c-.25.26-.5.54-.73.82s-.55.42-.64.82C46.77,56,46,57.31,45,58.3c-.8,1.24-1.9,2.18-2.65,3.47a41.33,41.33,0,0,0-2.55,3.47c-.78,1.26-1.6,2.47-2.46,3.65s-1.57,2.44-2.55,3.47c-.39,1.13-1,2-1.46,3.1a24.11,24.11,0,0,0-1.28,3.19c-.56.41-.72,1.22-1.28,1.64-.29-.06-.12-.24-.09-.46a2.06,2.06,0,0,1-.18-.55,4.42,4.42,0,0,0-.27-1.19c-.16-.81-.16-1.78-.36-2.55a31,31,0,0,1,2.19-9.22,29.32,29.32,0,0,1,1.73-3.92,18.78,18.78,0,0,1,.91-1.92c.22-.27.24-.73.46-1a4,4,0,0,0,.46-.91c2.76-4.81,5.87-9.28,8.67-14.05a2.32,2.32,0,0,0,.55-.91c.38-.1.26-.72.73-.73.11-.83.7-1.18,1-1.83s.8-1.08,1.1-1.73c.5-.44.71-1.17,1.19-1.64,1.43-2.34,3.06-4.48,4.47-6.84.46-.48.71-1.17,1.19-1.64.31-.63.8-1.08,1.09-1.73.86-1,1.51-2.26,2.28-3.38s1.48-2.29,2.19-3.47a2.32,2.32,0,0,0,.55-.91c.22-.24.15-.76.46-.91.18-.76.73-1.16.64-2.19-.3-.35-.84.13-1.1.36-.53.07-.74.48-1.19.64a13.15,13.15,0,0,0-2,1.55c-.74.44-1.29,1.09-2,1.55-.33.28-.67.55-1,.82a3.39,3.39,0,0,1-.91.82c-.56.63-1.21,1.17-1.82,1.73-.4.21-.53.69-1,.82a2.66,2.66,0,0,1-.91.82c-1,1.34-2.33,2.42-3.47,3.65-.65.53-1.21,1.17-1.82,1.73s-1.18,1.19-1.73,1.82c-1.26,1.11-2.35,2.39-3.56,3.56S37,39.07,35.9,40.33a44.36,44.36,0,0,1-3.28,3.83q-1.51,2-3.19,3.92c-1.08,1.29-2,2.7-3.19,3.92-.13.48-.54.68-.73,1.09s-.45.71-.82.91c-.21.4-.58.64-.73,1.09-.26,0-.22.39-.46.46s-.07.48-.36.46c-.34.85-1.06,1.31-1.46,2.1a4,4,0,0,0-.82,1,10.18,10.18,0,0,0-.73,1,36.66,36.66,0,0,0-3.1,4c-1,1.33-2.07,2.67-3,4.11a9.05,9.05,0,0,1-.73,1.09c-.17.41-.59.56-.64,1.09A2.77,2.77,0,0,0,12,71.62a3,3,0,0,0-.64,1.09c-.84,1.53-1.47,3.28-2.19,4.93,0,.38.12.36,0,.64.4,0,0,.22.09.46.12.58-.49.43-.36,1,.25.25-.13.09-.18.27s-.14.28-.18.46a1.87,1.87,0,0,1-.27.55c.12,0,.08.23.09.36s-.09.19-.09.09c-.06-.42-.43-.24-.36.18-.37,0-.35-.45-.36-.82a1.87,1.87,0,0,1-.18-.91c-.06-.46-.5-.54-.55-1s-.37-.67-.46-1.09a21.36,21.36,0,0,1,.09-2.74,19.7,19.7,0,0,1,1.46-4.74c.44-1.62,1.34-2.8,1.82-4.38a17.18,17.18,0,0,0,1.09-2c.34-.69.77-1.3,1.09-2,.76-1.28,1.49-2.59,2.28-3.83s1.66-2.48,2.37-3.83a7.51,7.51,0,0,0,1.19-1.92A11.19,11.19,0,0,0,19,50.55c.91-1.16,1.64-2.5,2.55-3.65a16.68,16.68,0,0,1,1.28-1.82A18.47,18.47,0,0,0,24,43.25c.93-1.13,1.72-2.42,2.65-3.56s1.7-2.44,2.46-3.74A19.61,19.61,0,0,0,30.33,34a14.45,14.45,0,0,0,1.28-1.82c.87-1.17,1.52-2.55,2.37-3.74.25-.78.85-1.22,1.09-2,.46-.57.72-1.34,1.19-1.92a2.9,2.9,0,0,1,.55-1,2.15,2.15,0,0,1,.55-1c.08-.44.38-.66.46-1.09.29-.2.24-.73.55-.91.21-.82.67-1.4.91-2.19s.54-1.53.91-2.19c.48-1.55,1.09-3,1.46-4.65a15.59,15.59,0,0,0-.36-4.74A9.07,9.07,0,0,0,39.55,4a3.26,3.26,0,0,1-.91-.64l-2.28-.64a12.39,12.39,0,0,0-5.29.64c-.58.06-.72.56-1.37.55a9.51,9.51,0,0,1-1.28.55A21.75,21.75,0,0,0,26,5.84c-.85.4-1.4,1.09-2.28,1.46,0,.3-.37.24-.46.46a1.28,1.28,0,0,0-.46.46c-.49.12-.62.59-1.09.73-.57.68-1.39,1.11-1.92,1.82-.68.57-1.25,1.24-1.92,1.82-1.19,1.28-2.26,2.66-3.38,4s-2.28,2.71-3.38,4.11c-.43.81-1.1,1.4-1.55,2.19-.36.25-.51.71-.82,1A3.23,3.23,0,0,0,8.07,25C7,26.39,6.29,28.15,5.33,29.65q0,.3-.27.27c0,.14,0,.35-.09.36,0,.28-.2.41-.27.64-.13.48-.33.88-.46,1.37-.36.85-.54,1.89-.91,2.74-.53,3.49.17,6.85,1.73,8.85A8.44,8.44,0,0,0,7.43,45.8,9.48,9.48,0,0,0,9.16,46c.26.35.74.48.91.91,0,.47-.32.65-.55.91s-.4.57-.82.64c0-.11-.53.07-.82,0-.13-.18-.56,0-.73-.18-.53-.11-1-.28-1.55-.36-.61-.37-1.1-.85-1.73-1.19C3.1,45.88,2.34,45,1.59,44.16A18.26,18.26,0,0,1,.22,40.51,24.58,24.58,0,0,1,0,35.95a25.19,25.19,0,0,1,2.37-7.57,14.3,14.3,0,0,1,1.73-3.28,13.79,13.79,0,0,0,1-1.46,7.71,7.71,0,0,0,1-1.46c.65-1,1.32-2,2-2.92.46-.36.69-.95,1.19-1.28.15-.28.46-.39.55-.73.36,0,.28-.51.64-.55.66-1,1.43-1.91,2.1-2.92.41-.41.78-.86,1.19-1.28s.77-.87,1.28-1.19a20,20,0,0,1,2.46-2.55c.81-.83,1.76-1.53,2.65-2.28a18.26,18.26,0,0,1,4.47-3,22.68,22.68,0,0,1,5.2-2.19C31,.71,32.56.68,33.71.18c.24,0,.52,0,.64-.09A10.31,10.31,0,0,0,36.54,0a3.93,3.93,0,0,0,1.28.09,15.18,15.18,0,0,1,1.64.55c.6.09,1,.44,1.55.55a25.21,25.21,0,0,1,2.92,2.46,2.33,2.33,0,0,0,.64.91A22.16,22.16,0,0,1,45.93,8,14.68,14.68,0,0,1,46.39,12a17.59,17.59,0,0,0-.09,1.82,40.6,40.6,0,0,1-3.92,11.4A99.48,99.48,0,0,1,36.72,34.76ZM136.81,16.61a8.83,8.83,0,0,0-2.37,2c-.54.19-.73.73-1.09,1.1s-.68.78-1.09,1.09c-2,2.08-4.28,4.12-6.11,6.2a2,2,0,0,0-.36.46c-.76.7-1.36,1.56-2.19,2.19-1.35,1.57-2.78,3.06-4.11,4.65a17.08,17.08,0,0,0-2,2.37c-.31.42-.66.8-1,1.19s-.72.74-.91,1.28c-.71.75-1.19,1.73-1.82,2.55a21.68,21.68,0,0,0-1.82,2.55,17.15,17.15,0,0,0-1.82,2.55c-.61.85-1.13,1.79-1.73,2.65-1,1.9-2.28,3.56-3.19,5.57.3-.07.38-.35.64-.46.08-.29.47-.26.55-.55a5.26,5.26,0,0,0,1.19-1A20.54,20.54,0,0,0,110,51c1.72-1.23,3.2-2.7,4.93-3.92,1.51-1.44,3.11-2.79,4.65-4.2s2.94-3,4.56-4.29c.19-.54.74-.72,1-1.19a5,5,0,0,0,1-1.19,31.45,31.45,0,0,0,2.1-2.37c.68-.78,1.28-1.64,2-2.37.09-.28.37-.36.46-.64s.42-.31.46-.64c.43-.33.58-.94,1-1.28.49-1,1.08-1.84,1.64-2.74s1.09-1.89,1.46-3a21.36,21.36,0,0,0,1.37-3c.16-1.21.9-2.32.64-3.65-.09,0-.11-.07-.18-.09A.65.65,0,0,0,136.81,16.61Zm13.32,24.63a17.78,17.78,0,0,0-2.55.91c-.75.41-1.43.89-2.19,1.28-1.3,1-2.76,1.86-4.11,2.83-.59.56-1.34,1-1.92,1.55s-1.22,1.09-1.92,1.55-1.2,1.11-1.82,1.64c-.4.79-1.25,1.12-1.64,1.92a2.17,2.17,0,0,0-.82.91,3.38,3.38,0,0,0-.82.91c-.51.65-1.1,1.21-1.64,1.83a42.43,42.43,0,0,0-3.1,3.83,31.12,31.12,0,0,0-2.83,4.11c-.53.62-.75,1.56-1.28,2.19-.28.91-.91,1.46-1,2.55.2,1.87,1.59,2.55,2.92,3.28a3.48,3.48,0,0,1,1.19.18,10.37,10.37,0,0,0,2.83-.55c.54-.18,1.21-.35,1.64-.55,0,0,.05-.16.09-.18.2-.1.43-.17.64-.27s.37-.17.55-.27c.41-.23.68-.43,1-.64a22.09,22.09,0,0,0,2.55-1.83c1.34-.94,2.57-2,3.83-3,.53-.6,1.16-1.09,1.73-1.64s1.12-1.19,1.64-1.83c.38-.17.45-.64.82-.82.12-.46.62-.53.73-1,.65-.5,1-1.29,1.64-1.82.42-.71,1-1.26,1.46-1.92a5.67,5.67,0,0,1,.73-1c.17-.4.57-.59.64-1.09a1.86,1.86,0,0,0,.73-.91c.34-.23.38-.78.73-1a3.56,3.56,0,0,1,.64-1.09c.2-.38.26-.89.64-1.1.16-1,.69-1.56.82-2.55a8.92,8.92,0,0,0,.36-3.1,6.76,6.76,0,0,0-.82-2.55c-.37-.17-.5-.58-.91-.73a4.05,4.05,0,0,0-.91-.09c-.06,0-.11,0-.09.09ZM92,46.9c-.12,0-.13.12-.27.09a5.35,5.35,0,0,1-1.19.36,10.17,10.17,0,0,1-1.46.82,3.68,3.68,0,0,1-1.37.91c0,.39-.43.3-.46.64a1.41,1.41,0,0,0-.64.55c-.51.25-.74.78-1.19,1.09a19.22,19.22,0,0,0-2,2.55,9.55,9.55,0,0,0-.91,1.37c-.36.4-.54,1-.91,1.37A19.07,19.07,0,0,0,80,59.58a4.83,4.83,0,0,0,.91,1.92c1.43.39,2.3-.47,3.19-.91.46-.27.75-.71,1.28-.91a8.11,8.11,0,0,1,1.19-1c.05-.24.3-.39.46-.55a3.82,3.82,0,0,0,.55-.55c.17-.56.78-.67,1-1.19.75-.71,1.27-1.65,2-2.37a10.43,10.43,0,0,1,1.37-2,2.7,2.7,0,0,1,.64-1.28,3.06,3.06,0,0,1,.55-1.37c0-.77.46-1.47.27-2.1C93.13,46.94,92.44,47,92,46.9Z" style="fill:#fff;fill-rule:evenodd"/><path d="M244.47,55.2c-.13.06,0,.11,0,0,.79-.73,1.44-1.6,2.28-2.28s1.59-1.45,2.28-2.28a16.57,16.57,0,0,0,2.37-2.19c.78-.74,1.69-1.35,2.46-2.1s1.6-1.44,2.46-2.1,1.78-1.26,2.55-2c1-.53,1.76-1.28,2.83-1.73a9.93,9.93,0,0,1,3.19-1.37,3.3,3.3,0,0,1,.73.46,1.55,1.55,0,0,1,.36.27c0,.18.42,0,.27.36a1.49,1.49,0,0,1,.64.64c.12.31.51.35.55.73a5.25,5.25,0,0,0,0,1.64,14.38,14.38,0,0,1-.91,3.56A8.94,8.94,0,0,1,265,49.73c-1.07,1.95-2.45,3.57-3.65,5.38a9.48,9.48,0,0,0-.91,1.28c-.28.48-.67.85-.91,1.37-.81.71-1.17,1.87-1.92,2.65-.18.55-.62.84-.82,1.37s-.54,1-.82,1.46a26.12,26.12,0,0,0-1.37,3.19c-.14.75-.19,1.57-.36,2.28a5.65,5.65,0,0,0,.27,2.55c.46.58,1.5.57,2.55.55a10.11,10.11,0,0,0,1.46-.36A27.28,27.28,0,0,0,261.08,70c.87-.47,1.5-1.18,2.37-1.64.63-.71,1.45-1.23,2.1-1.92a7.18,7.18,0,0,1,1-1c.26-.44.76-.64,1-1.09a24.37,24.37,0,0,0,2-2c.44-.23.57-.76,1-1,.09-.24.36-.31.46-.55s.28-.39.55-.46c1.2-1.5,2.63-2.78,3.92-4.2A28.36,28.36,0,0,1,279,48.9a9.18,9.18,0,0,1,1.09-1.55c.15-.3.42-.49.55-.82.35-.1.34-.58.73-.64a24.58,24.58,0,0,1,2.74-2.65,62.82,62.82,0,0,1,5.93-4.84,23,23,0,0,1,3.38-2c.19-.26.68-.24.82-.55a2.14,2.14,0,0,0,.91-.46,5.52,5.52,0,0,0,1.92-.82,31.29,31.29,0,0,1,3.38-.73c.21,0,.34.14.64.09.59.11.88.52,1.46.64s.87.59,1.46.73c.21.61.8.84,1,1.46a2.25,2.25,0,0,1-.18,1.19c.2.44.19,1.08.36,1.55,0,1.29,0,2.46-.09,3.65-.3.86-.39,1.92-.73,2.74a4.43,4.43,0,0,1-.46,1.28,2.73,2.73,0,0,1-.55,1.28,11.79,11.79,0,0,1-1.19,2.37c-.39.79-.92,1.45-1.37,2.19s-1,1.29-1.55,1.92-1.11,1.27-1.73,1.82a45.82,45.82,0,0,1-3.74,3.38,16.67,16.67,0,0,1-4.47,1.73c-1.1,0-1.54.09-2.37,0a8,8,0,0,1-1.92-.55c-.63-.19-1-.62-1.64-.82,0-.11,0-.22-.18-.18a10.46,10.46,0,0,1-1.09-1.64,11.54,11.54,0,0,1-.64-2.19c-.39.07-.29.63-.55.82,0,.45-.35.63-.36,1.09a9.67,9.67,0,0,0-.82,2.1,30.58,30.58,0,0,0-.64,5.2c.08,3.26.64,6.69,2.19,8.76a8.21,8.21,0,0,0,3.38,1.92,14.17,14.17,0,0,1,1.82.18,32.8,32.8,0,0,0,5.11-1.09,17.76,17.76,0,0,0,4.11-2.1,24.42,24.42,0,0,0,3.65-2.55c.49-.54,1.2-.86,1.73-1.37.2-.32.64-.39.82-.73.45-.1.57-.53,1-.64,1-1.08,2.24-1.9,3.19-3,.4-.12.57-.46.82-.73a4.57,4.57,0,0,0,.82-.73c.6-.46,1-1.09,1.64-1.55.92-1.15,2-2.14,2.92-3.28.25-.26.5-.54.73-.82.4-.12.33-.7.82-.73.3-.76,1-1.14,1.19-2a.75.75,0,0,1,.09,1c0,.54-.29.75-.36,1.19a39.57,39.57,0,0,1-3.56,5.29c-.05.31-.51.22-.46.64-.28.08-.3.43-.55.55a7.79,7.79,0,0,1-.46.64c-.29.1-.31.48-.64.55,0,.33-.27.46-.55.55,0,.35-.37.36-.46.64a6.37,6.37,0,0,0-1.09,1.19c-.21.09-.29.31-.64.27,0,.28-.07.31-.27.36-.29.38-.52.82-1,1-.22.45-.66.67-1,1A6.94,6.94,0,0,1,303,71a12.67,12.67,0,0,1-2.19,1.73,14.75,14.75,0,0,1-2.37,1.64,18.59,18.59,0,0,1-5.11,2.83c0,.26-.44.17-.64.27s-.51.16-.73.27c-.55.12-1,.38-1.55.46a17,17,0,0,1-3.38.64h-2.46a16.69,16.69,0,0,1-3-.73,9.76,9.76,0,0,1-2.37-1.37,2.58,2.58,0,0,1-1-.82,3.36,3.36,0,0,1-.91-1c-.41-.23-.5-.77-.82-1.09s-.6-.68-.64-1.28c-.61-.63-.63-1.86-1.09-2.65-.18-1.09-.35-2.2-.55-3.28,0-1.23-.15-2.35-.09-3.65s.3-2.25.36-3.47c-.29.08-.35.38-.46.64-.48.06-.2.34-.46.55-.34,0-.24.49-.55.55-.06.34-.31.48-.64.55,0,.54-.49.6-.55,1.09-.13.14-.48.07-.46.36s-.33.28-.36.55c-.58.55-1.11,1.14-1.64,1.73a23.75,23.75,0,0,1-3.47,3.28c-.57.56-1.25,1-1.82,1.55-.77.35-1.27,1-2,1.37a15.56,15.56,0,0,1-2.19,1.19,10.73,10.73,0,0,1-2.65.73h-2.19a6.71,6.71,0,0,1-3.83-2.37A13.2,13.2,0,0,1,250,65c.62-5.4,3.13-8.92,5.66-12.41a56.68,56.68,0,0,1,4.11-4.93c.67-.85,1.45-1.59,2.1-2.46s1.54-1.5,2-2.55c-.85.28-1.47.78-2.28,1.09-.63.53-1.43.88-2,1.46a14.58,14.58,0,0,0-2,1.46c-.29.29-.61.55-.91.82s-.58.58-1,.73c-1.13,1.18-2.41,2.21-3.65,3.28s-2.26,2.36-3.56,3.38c-.48.64-1.17,1.08-1.64,1.73-.36.22-.55.6-.91.82-.2.38-.58.58-.73,1-1.19,1.12-2.1,2.52-3.19,3.74a31.43,31.43,0,0,0-2.83,4.11,6,6,0,0,0-.73,1c0,.27-.24.31-.27.55-.21.09-.15.46-.46.46-.28.87-1,1.3-1.37,2.1-.11-.43-.48-.06-.73-.27-.34-.05-.37-.42-.73-.46a5.36,5.36,0,0,0-.64-1.73c.22-.37-.09-.51-.09-.91a4.89,4.89,0,0,0-.27-.91c0-.65.21-1.19.27-1.83-.06-.2-.3.17-.36.27a1.74,1.74,0,0,1-.36.55,7.38,7.38,0,0,0-.73,1.09c-.59.63-1,1.4-1.64,2-.21.4-.5.72-.73,1.09a3.78,3.78,0,0,1-.82,1c-.53.68-1,1.43-1.55,2.1s-1.19,1.25-1.82,1.82c-.21.4-.69.53-.82,1-.1.2-.54.06-.46.46-.18.12-.4.21-.46.46-.77.45-1.2,1.23-2,1.64-.56.65-1.54.89-2.19,1.46a4,4,0,0,0-1.37.46,7.34,7.34,0,0,0-1.55.36c-.94,0-1.56-.23-2.65-.27a9,9,0,0,0-1.46-.55,8.24,8.24,0,0,1-2.92-6.48,23,23,0,0,1,.82-4.2,11.66,11.66,0,0,1,1.64-3.47,18.53,18.53,0,0,1,1.92-3.19,22.11,22.11,0,0,1,2.19-2.92c.69-1,1.51-1.9,2.28-2.83.44-.41.74-1,1.19-1.37s.81-.89,1.09-1.46a7.21,7.21,0,0,0,1.19-1.37c.29-.13.3-.56.55-.73s.32-.53.64-.64c.24-.61.78-.92.91-1.64a3.82,3.82,0,0,0,.64-1.92c0-.3-.35-.19-.36-.46-.32,0-.22-.32-.55-.27-.21-.34-.68-.42-.91-.73s-.73-.37-.91-.73c-.21-.06-.24-.3-.46-.36,0-.26-.39-.16-.36-.46-.43.11-.59.51-.82.82a4.24,4.24,0,0,0-.73.91,7.12,7.12,0,0,0-1.46,1.82c-1.12,1.07-1.69,2.69-2.55,4-.35.75-1,1.23-1.28,2a7.4,7.4,0,0,1-1.37,1.92,16,16,0,0,1-1.28,2c-.37.75-.88,1.37-1.28,2.1a13.88,13.88,0,0,1-1.28,1.28,6.88,6.88,0,0,1-1.09,1.46c-.24.61-.78.92-1.09,1.46a5.48,5.48,0,0,0-1.28,1.37c-.3.13-.43.42-.64.64a2.53,2.53,0,0,0-.64.64c-.58.27-.83.87-1.46,1.09-.06.37-.55.3-.64.64-.34.08-.48.37-.82.46-.41.48-1.12.65-1.64,1a12.69,12.69,0,0,0-1.64.46c-.77.07-1.28-.12-2-.09-.58-.27-1.07-.64-1.64-.91s-1-.73-1.55-1c-.38-.72-.78-1.41-1.09-2.19a9.4,9.4,0,0,1,0-3.74c-.18-.23-.43.23-.55.36s-.3.43-.55.55c-.43.3-.64.82-1.09,1.09a30.46,30.46,0,0,1-2.28,2.1c-.8.66-1.66,1.26-2.46,1.92a14.21,14.21,0,0,1-2.83,1.55,10.23,10.23,0,0,1-2.92.09c-.41,0-.35-.44-.46-.73-.19-.05-.6.11-.64-.09-.37-.41-.41-1.11-.64-1.55-.1-.19-.23-.28-.27-.46a17.22,17.22,0,0,1,.91-6.75,23.54,23.54,0,0,1,2.46-5.47c-.19-.28-.34.26-.55.27-.08.28-.43.3-.55.55a4,4,0,0,0-1.19.91c-.61.09-.79.6-1.37.73a11.4,11.4,0,0,1-1.37.82c-.57.77-1,1.72-1.55,2.46A11.7,11.7,0,0,1,173,63c-.42.92-1.17,1.51-1.64,2.37-.66.71-1.32,1.41-1.92,2.19a35.33,35.33,0,0,1-4.29,3.83,11.89,11.89,0,0,1-5.84,2.28H158c-.37,0-.79-.31-1-.18a7.71,7.71,0,0,0-1.55-.73,8.45,8.45,0,0,1-3-7c.19-3.24,1.5-5.38,2.46-7.85.43-.42.58-1.12,1-1.55.22-.63.65-1,.91-1.64.73-1,1.51-2,2.19-3a26.41,26.41,0,0,1,2.37-2.74,16.38,16.38,0,0,1,1.19-1.37,8.44,8.44,0,0,1,1.28-1.37,7.14,7.14,0,0,1,1.28-1.28,2.52,2.52,0,0,1,.64-.64c0-.19.25-.18.27-.36s.45,0,.36-.27c.81-.93,1.87-1.6,2.74-2.46.34-.27.32-.9.73-1.09a3.62,3.62,0,0,1,2.55-.18c.92-.18,1.61-.58,2.55-.73a5.14,5.14,0,0,1,1.37.09c.5.16.74-.17,1.19,0,.42,0,.41.38.73.46s.33.52.64.64A9.17,9.17,0,0,0,180,41.79c1.17,3.82-.5,8-1.55,11.22.24.17.57-.34.82-.46s.57-.41.82-.64a9.66,9.66,0,0,0,1.64-1.37c.42-.07.48-.49.82-.64s.53-.5.82-.73c.56-.44,1.07-.94,1.64-1.37,1.1-.88,2.21-1.74,3.38-2.55.61-.4,1.17-.83,1.73-1.28.26-.22.67-.3.82-.64s.73,0,.91-.46c.28.12-.17.41.09.55s.12-.37.46-.27c-.11.48.15.52.46.36.1.09,0,.34.27.27s0,.34.27.27c-.08.44-.12.91-.18,1.37s-.69.71-.82,1.28c-.35.38-.46,1-.82,1.37.06.43-.33.4-.36.73-.22.15-.19.54-.36.73-.3.43-.55.91-.82,1.37a9.55,9.55,0,0,1-.82,1.28c-.29.44-.47,1-.91,1.28-.06.31-.32.41-.36.73s-.23.5-.46.64c-.21.52-.64.82-.82,1.37-.46.24-.47.93-.91,1.19a3.88,3.88,0,0,1-.91,1.28c-.46,1-1.08,1.84-1.55,2.83a31.19,31.19,0,0,0-1.28,3,11.69,11.69,0,0,0-.55,1.64,3.92,3.92,0,0,1-.18.91c0,.32.31.42.36.73a6.81,6.81,0,0,0,1.73-1,17.47,17.47,0,0,0,1.55-1.28,10.76,10.76,0,0,0,1.46-1.28c.37-.09.51-.4.73-.64s.61-.36.73-.73a24.33,24.33,0,0,0,2.83-2.74c.84-1,1.7-2,2.55-3,1.7-2,3.2-4.22,4.84-6.3.8-1.06,1.61-2.1,2.46-3.1s1.57-2.2,2.46-3.19c.19-.48.25-1.09.73-1.28a1.45,1.45,0,0,1,.73,0c.42,0,.38.41.82.36a2.78,2.78,0,0,0,.64.82,11.42,11.42,0,0,0,.36,1.55,16.74,16.74,0,0,1-1.82,5.57c-.15.46-.48.73-.64,1.19s-.4.82-.73,1.09a3.66,3.66,0,0,1-.73,1.09c0,.3-.3.31-.27.64-.23.11-.29.38-.46.55-1,1.43-2,2.93-3,4.38s-2.12,2.81-2.46,4.93a4.44,4.44,0,0,0,.27,1.92,3.68,3.68,0,0,0,2.28.18,15.07,15.07,0,0,0,1.92-.82,30.38,30.38,0,0,0,5.57-5.29c1.76-1.89,3.24-4.06,4.93-6a21.09,21.09,0,0,1,2.1-3.65A16.66,16.66,0,0,0,214.27,50c.44-.53.73-1.22,1.19-1.73s.71-1.17,1.09-1.73a16.42,16.42,0,0,0,1.19-1.73c.51-.46.87-1.08,1.37-1.55.32-.65.87-1.07,1.19-1.73.1-.55-.29-.62-.27-1.09s-.19-.71-.18-1.09a19.53,19.53,0,0,1,.18-2.46A22.1,22.1,0,0,1,221.93,33c.29-.68.74-1.2,1-1.92.37-.12.36-.61.64-.82a2.38,2.38,0,0,1,.55-.91,8.71,8.71,0,0,1,1.46-.09c.48,0,.66.37,1.09.46,0,.43.32.6.36,1-.1,1.55-1.08,2.2-1.46,3.47s-1,2.33-1.46,3.47a7.19,7.19,0,0,0-.27,1.55,10.65,10.65,0,0,0,.18,1.28c.13.45.49.66.73,1a22.85,22.85,0,0,0,2.92,2.55,36.32,36.32,0,0,1,2.74,2.83c0,.32.18.43.27.64a12.92,12.92,0,0,1-.36,3.56,7.8,7.8,0,0,0-.73,1.55c-.4.39-.43,1.15-.82,1.55-.54,1-1.26,1.9-1.82,2.92-.72.84-1.35,1.75-2,2.65A12.85,12.85,0,0,1,223.85,61c-.23.56-.8.78-1,1.37-.73.82-1.32,1.79-2.1,2.55-.6,1-1.36,1.81-1.92,2.83A25.86,25.86,0,0,0,217,70.71a16,16,0,0,0-1.28,3.47,3.46,3.46,0,0,1-.09,1c0,.21.14.34.09.64.11.5.31.9.46,1.37.33.31.49.79.91,1,1.61,0,2.28-.89,3.28-1.46a15.16,15.16,0,0,1,1.37-1c.29-.53.94-.71,1.19-1.28.57-.22.78-.8,1.28-1.1.25-.57.82-.83,1.09-1.37a25.86,25.86,0,0,0,2.37-2.46c.82-.79,1.39-1.83,2.28-2.55.64-1,1.47-1.76,2.1-2.74,1.53-1.7,2.78-3.67,4.29-5.38a46.55,46.55,0,0,1,2.46-4.65,2.28,2.28,0,0,0,.64-1.09l.73-1.09c.5-.69.92-1.45,1.46-2.1.09-.49.49-.66.64-1.09s.54-.68.82-1a4.09,4.09,0,0,1,.73-1,6,6,0,0,1,.82-1c0-.26.24-.33.36-.46l.46-.46c.16-.45.6-.62.82-1a2.8,2.8,0,0,1,.73-1,.85.85,0,0,1,.36-.55c.18-.12.13-.48.36-.55.45,0,.61-.25,1-.27a1.9,1.9,0,0,1,1.73,1.64c-.39,2.56-1.69,4.21-2.55,6.3q-1.75,2.72-3.38,5.57c-.06,0-.11,0-.09.09S244.47,55.17,244.47,55.2Zm56.11-16.7a19,19,0,0,0-2.83,1.37c-.11.23-.58.09-.64.36-.25-.06-.18.19-.27.27s-.34-.21-.27.09c-.45.28-.83.63-1.28.91-1.62,1.24-3.1,2.62-4.65,3.92-2.83,2.86-6,5.39-8.12,8.94.26.44.16,1.24.64,1.46.32.38.57.83,1.09,1,.11,0,.26,0,.27.09a8.85,8.85,0,0,0,2.46-.55A8.83,8.83,0,0,1,289.27,55c.68-.53,1.38-1.05,2.1-1.55,1.29-1.17,2.57-2.36,3.74-3.65.17-.14.23-.38.46-.46-.09-.39.34-.27.36-.55a3.12,3.12,0,0,0,.82-1,13.44,13.44,0,0,0,1.55-2.19c.45-.76,1-1.46,1.37-2.28a20.25,20.25,0,0,0,1.19-2.55c0-.81.47-1.65.18-2.46h-.18A.65.65,0,0,0,300.58,38.5ZM175.49,41.88c-.12,0-.13.12-.27.09s-.4.21-.73.18a1.75,1.75,0,0,1-.64.36c-.25.12-.31.41-.73.36-.49.56-1.14,1.15-1.55,1.73-.22.31-.46.56-.64.82s-.17.37-.27.55a14.94,14.94,0,0,0-1.19,2.55,13.44,13.44,0,0,0-.64,6.3c.07,0,.11.08.09.18a3,3,0,0,0,2.19,1.09,9.57,9.57,0,0,0,2.65-.46c.82-1.68,1.53-3.46,2.37-5.11a23.55,23.55,0,0,1,.91-3.1c.24-1.1.37-2.31.55-3.47-.1-.6-.05-1.34-.18-1.92C177,41.76,176.16,41.91,175.49,41.88Zm-5.57,17.61c-.38-.14-.79-.24-1.19-.36-.21,0-.39-.09-.46-.27a.75.75,0,0,1-.64,0,9.79,9.79,0,0,0-1.28-.73c-.23-.29-.48-.56-.73-.82s-.62-.41-.73-.82c0-.13-.15-.15-.18-.27-.07-.41-.26-.71-.36-1.1s-.16-.32-.09-.64c-.21-.07,0-.52-.37-.46,0-.07-.08-.11-.18-.09s-.15.15-.18.27a11.67,11.67,0,0,0-.91,1.19c-.25.09-.22.44-.46.55,0,.33-.39.34-.46.64-.41.38-.54,1-1,1.37-.33.49-.64,1-1,1.46A30.4,30.4,0,0,1,158,62.5a7.11,7.11,0,0,1-.64,1.64c-.32.6-.32,1-.64,1.55a13.4,13.4,0,0,1-.18,2.74,1.81,1.81,0,0,1,.18,1.1,10.16,10.16,0,0,1,.73,1.46,7,7,0,0,0,1.28.27c3.21-.54,5.67-2.6,7.66-4.65.39-.64,1-1,1.37-1.73.61-.43.88-1.19,1.46-1.64.37-.66.89-1.18,1.28-1.82a13.68,13.68,0,0,0,1.19-2A17.06,17.06,0,0,1,169.93,59.49Z" style="fill:#fff;fill-rule:evenodd"/><path d="M191.46,43s.07-.12.09-.09S191.49,43,191.46,43Z" style="fill:#fff;fill-rule:evenodd"/><path d="M272.48,62s.07-.12.09-.09S272.51,62.07,272.48,62Z" style="fill:#fff;fill-rule:evenodd"/><path d="M63.54,70.16s.07-.12.09-.09S63.57,70.19,63.54,70.16Z" style="fill:#fff;fill-rule:evenodd"/><path d="M86.35,71.71c0-.11.13-.06,0,0Z" style="fill:#fff;fill-rule:evenodd"/><path d="M86.35,71.71c.09.38-.27,0,0,0Z" style="fill:#fff;fill-rule:evenodd"/><path d="M76.59,83.3s.07-.12.09-.09S76.61,83.33,76.59,83.3Z" style="fill:#fff;fill-rule:evenodd"/><path d="M71.84,86.86s.07-.12.09-.09S71.87,86.89,71.84,86.86Z" style="fill:#fff;fill-rule:evenodd"/><path d="M71.66,87c0-.11.13-.06,0,0Z" style="fill:#fff;fill-rule:evenodd"/><path d="M71.66,87c0,.11-.13.06,0,0Z" style="fill:#fff;fill-rule:evenodd"/></g></g></svg>