<svg xmlns="http://www.w3.org/2000/svg" viewBox="0 0 228.07 128.77"><defs><style>.cls-1{fill:#fff;fill-rule:evenodd;}</style></defs><title>Asset 14</title><g id="Layer_2" data-name="Layer 2"><g id="Layer_1-2" data-name="Layer 1"><path class="cls-1" d="M186,33.12c.32-.05.28-.47.41-.71s.1-.58.31-.71a6.83,6.83,0,0,1,.51-1.53,14.7,14.7,0,0,1,1.32-2.85,16.47,16.47,0,0,1,3.57-4.69,12,12,0,0,1,2.34-1.83A14.5,14.5,0,0,1,197,19.27c1.61-1.14,3.88-1.62,6.72-1.53a4.87,4.87,0,0,1,1.73.51c.59.22.2-.42.41-.2a9.1,9.1,0,0,1,1.83.92,16,16,0,0,1,1.22,1.53c.46.43.7,1.06,1.12,1.53.39,1.07.47,2.44.92,3.46v2.85a29.21,29.21,0,0,1-1.53,6.21c-.06.16,0,.25-.1.41s-.35.66-.51,1c-.09.2,0,.45-.2.61a6.85,6.85,0,0,0-.71,1.43c-.27.56-.64,1.24-.92,1.94a6.2,6.2,0,0,0-1,1.32,24,24,0,0,1-3.67,3.06A16.84,16.84,0,0,1,198,46.66c-.72.06-1.34.23-2,.31h-.2a8.19,8.19,0,0,1-1.22-.2,42.31,42.31,0,0,1-4.89-2c-.19.13.22.52.31.71s.26.49.41.71c.4.35.55.94,1,1.22l.92,1.43c.46.28.49,1,.92,1.32.45,1.08,1.12,1.94,1.63,3,.31.43.6.9.92,1.32s.8.7.81,1.43a8,8,0,0,1,1.73,2A11,11,0,0,1,200,59.5c.54.55,1.23.95,1.73,1.53.8.18,1.22.75,2,.92.48.47,1.43.47,1.94.92,1.11.15,2.1.41,3.26.51a16.54,16.54,0,0,0,8.25-1.83,5.69,5.69,0,0,0,1.63-.92,10.78,10.78,0,0,0,1.43-1.12,30.14,30.14,0,0,0,2.44-2.65,14.53,14.53,0,0,0,1.83-3.36,8.39,8.39,0,0,0,.81-1.73c.17-.68.44-1.26.61-1.94a19.94,19.94,0,0,0,.81-4.28c.12-1.27.11-3.1.1-4.79-.28-3-1.08-5.57-1.32-8.66a4.78,4.78,0,0,1,.41,1.73c.17.54.21,1.21.41,1.73.25,1.17.41,2.44.71,3.56.09,1.21.47,2.63.61,3.46.19,1.24.23,2.63.31,4,.08.52-.14.74-.1,1.22.07.31-.1.37-.1.61.2.23,0,.11-.1.31,0,.83-.33,1.36-.41,2.14-.39.49-.13,1.64-.61,2,0,.84-.45,1.25-.51,2-.61.62-.75,1.69-1.32,2.34-.29.93-1,1.47-1.32,2.34a20.49,20.49,0,0,1-2.14,2.14,20.28,20.28,0,0,1-2.24,2c-1.11.38-2,1-3.16,1.32s-2.44.55-3.56.92c-1.37.13-2.41.58-3.87.61-.63.25-1.25.06-1.73.31a16.3,16.3,0,0,0-1.73.2,15.32,15.32,0,0,1-4.28-.71c-.39-.39-1.09-.47-1.53-.81a10.25,10.25,0,0,1-1.43-.81,11,11,0,0,1-2.44-2c-.5-.25-.75-.74-1.22-1a7.66,7.66,0,0,0-1-1.22c-.64-.85-1.33-1.66-1.93-2.55a31.85,31.85,0,0,1-3.06-6,10.41,10.41,0,0,0-.61-1.63A6.2,6.2,0,0,0,187,48.7c0-.72-.49-1-.51-1.73-.37-.38-.34-1.16-.81-1.43a28.46,28.46,0,0,1-.2,3.87,15.42,15.42,0,0,1,.1,3.26c.18,2.5.12,5.24.81,7.23a25.7,25.7,0,0,0,1.43,7.54c0,.13.18.16.2.31a2.7,2.7,0,0,0,.81.81c.09.18.36.19.51.31-.25.24.11.23.2.41.49.19,1.2.15,1.73.31-.4.41-1.55.15-2.14.1-.93,0-1.1-.11-2-.1-.68-.31-1.4-.57-2-.92-2.14-2-2.86-5.36-3.26-9.06a2.23,2.23,0,0,0-.31-.81,12.85,12.85,0,0,0-.31-2.85c-.55.95-.61,2.38-1.12,3.36a29.46,29.46,0,0,1-1,3.46c-.48,1-1,2-1.43,3.06s-1.19,1.73-1.83,2.55a7.84,7.84,0,0,1-1.94,1.22,6.85,6.85,0,0,1-3.06-.81,10.56,10.56,0,0,1-2.14-2.44,10.94,10.94,0,0,0-.71-2.14c-.07-.85-.28-1.56-.31-2.44-.17-1.72-.1-3.54-.1-5.19.32-1.82.55-3.73.81-5.6.2-1,.26-1.81.41-2.75a11.14,11.14,0,0,0,.41-2.75c.46-1.51.67-3.26,1-4.89-.06-.3-.16.16-.31.1,0,.2-.28.13-.2.41-.3.07-.16.59-.51.61-.31.47-.81.75-1.12,1.22a8,8,0,0,0-2.14,1.73c0,3.2-.78,6.1-1.22,9.17a10.49,10.49,0,0,0-.81,2.55c-.18.39-.06,1.09-.31,1.43.11.66-.35.74-.31,1.32a15.5,15.5,0,0,0-1.73,3.06c-.33.08-.16.66-.51.71a3.86,3.86,0,0,0-.41.71c-.39.39-.75.81-1.12,1.22a3.52,3.52,0,0,0-.92.61,7.93,7.93,0,0,1-3.16.61,3.79,3.79,0,0,0-1.12-.2c-.51-.44-1.17-.73-1.53-1.32-.58-.37-.81-1.09-1.32-1.53a19.44,19.44,0,0,0-1-2.24,38.91,38.91,0,0,1-1.12-9.17c.23-1.76.29-3.88.71-5.7a19.41,19.41,0,0,1,1.63-5,31.43,31.43,0,0,1,2-4.58,10.81,10.81,0,0,0,1.43-1.83,3.09,3.09,0,0,0,.71-.92c.24-.3.58-.5.71-.92a4.24,4.24,0,0,0,1.32-1.12,5.58,5.58,0,0,0,.71-.51c.21-.19.3-.51.61-.61a7.55,7.55,0,0,0,1.63-.1c.73.12,1.07.63,1.83.71A9.4,9.4,0,0,0,164,32.2c1.42,2.5,2,6.49,2,9.78.68-.13.92-.71,1.43-1s.83-.8,1.22-1.22A18,18,0,0,0,170.81,37c-.43-1.27-1.3-2.1-1.53-3.56v-.81a17.08,17.08,0,0,1,.92-3.77,5.23,5.23,0,0,1,.61-1.73c.1-.65.64-.86.81-1.43.31-.08.12.35.51.2a.5.5,0,0,1,.51-.2,1.8,1.8,0,0,1,1,.31c.12,1.91-.48,4.17-.41,6.62a11.93,11.93,0,0,0-.2,1.63c0,.62.52.77.71,1.22a8.4,8.4,0,0,0,.71,1.12,5.57,5.57,0,0,0,.51,1.73,29.35,29.35,0,0,1-.51,11v1.32a6.54,6.54,0,0,0-.51,2.75c-.13.59-.5.87-.31,1.53-.29.36-.19,1.1-.41,1.53,0,1.29-.53,2.05-.51,3.36a21.57,21.57,0,0,0-.31,3.46,11.35,11.35,0,0,0-.1,3,2.63,2.63,0,0,0,.41.81c0,.34.45.3.51.61,1.49-.75,2-2.44,2.85-3.87a23.73,23.73,0,0,0,1.73-4.89,90.58,90.58,0,0,0,2.85-10.39c-.14-4.89.54-9.46-.1-13.75-.07-2.09.28-4.13,0-6.11a32.09,32.09,0,0,1,.61-5.4c0-1.58.23-2.9.31-4.38.11-.33.22-.66.31-1-.1-1.88.55-3.49.41-5.09.52-2.23,1.06-4.44,1.73-6.52a16.85,16.85,0,0,1,1.12-3A12.68,12.68,0,0,1,186.39.53a2.93,2.93,0,0,1,2.44-.41A2,2,0,0,1,190,1.34c.61.24,1,.74,1.53,1,.52.77,1.06,1.52,1.53,2.34a12.29,12.29,0,0,1,.51,3.67,35.38,35.38,0,0,1-1.12,5.5c-.62,1.28-1,2.81-1.63,4.07-.36,1.51-1.12,2.61-1.43,4.18a8.14,8.14,0,0,1-.71,1.22c-.25.43-.51.68-.51,1.12-.4.18-.57.59-.81.92s-.45.64-.71.92a8.44,8.44,0,0,0-.31,3.06C185.88,30.53,186.21,32,186,33.12Zm4.18-27.19c-.41,1-.56,2.29-.92,3.36,0,1-.1,1.76-.2,2.85-.86,1.86-1,4.41-1.73,6.42a2.65,2.65,0,0,1-.31,1.53c.06.54-.33,1,0,1.32,1.49-4.21,3.34-8.06,4-13.14a11.26,11.26,0,0,0-.51-2.55c-.13,0-.14-.13-.31-.1Zm-3.56,34.73c.27.14.39.43.71.51a10,10,0,0,0,1.53.81,14.8,14.8,0,0,0,5.91.2,28.76,28.76,0,0,0,4.79-2,18.46,18.46,0,0,0,1.94-1.43c.48-.09.55-.61,1-.71a.92.92,0,0,1,.41-.41c.22-.08.23-.38.51-.41a21.92,21.92,0,0,1,1.53-1.83c.41-.74,1-1.34,1.32-2.14a16.59,16.59,0,0,0,1.63-5.3V25.38a27.87,27.87,0,0,0-.71-2.85c-.34-.24-.4-.76-.71-1s-.55-.67-.81-1c-.58-.3-1.09-.67-1.63-1a10.25,10.25,0,0,0-2.34-.31c0-.17-.13,0-.31,0a12.82,12.82,0,0,0-6.21,2.75A20.81,20.81,0,0,0,191,26.8c-1.32,1.71-2.09,4-3.06,6A40.82,40.82,0,0,0,186.09,40C186.12,40.39,186.54,40.34,186.59,40.66Zm-14.36-7.94c.06-1.16.62-2.36.41-3.46C172.55,30.38,171.92,31.51,172.23,32.71Zm-8.86,8.35c0-3.49-.43-6.57-1.73-8.76a2.3,2.3,0,0,0-2.34.51c.11.51.8.42.81,1-.07.31.1.37.1.61.05.39-.18.5-.1.92-.4.79-.78,1.59-1.12,2.44a25.19,25.19,0,0,0-1.12,2.44,4,4,0,0,0,1,2.75,5.48,5.48,0,0,1,1,.61,7.85,7.85,0,0,0,3.56-.2A12.3,12.3,0,0,0,163.37,41.06Zm63.86-.71c0-.06-.08-.12-.1,0S227.21,40.47,227.23,40.35Zm-65.8,5.91a3.88,3.88,0,0,0-1.12.1A9.77,9.77,0,0,1,156.14,45a.28.28,0,0,0-.2.31,38.44,38.44,0,0,0-1.22,3.87,40.46,40.46,0,0,1-.71,4.38,4.25,4.25,0,0,1-.1,1.22,41.51,41.51,0,0,0,.71,6.52,6.54,6.54,0,0,1,.71,1.32c.51.17.47.89,1.12.92,1.65.18,2.53-1.27,3.36-2.24a39.38,39.38,0,0,0,1.63-4.28,12.46,12.46,0,0,0,1-4.89,42.11,42.11,0,0,0,1-6.31C162.91,45.72,162.12,46.18,161.44,46.26Z"/><path class="cls-1" d="M37.58,49.72c.35-.26.26-1,.41-1.43a14,14,0,0,1,.41-1.43A28,28,0,0,1,39.11,44a58.52,58.52,0,0,1,1.43-5.7c.38-2,1.13-3.69,1.53-5.7.44-.75.47-1.91.92-2.65a12.93,12.93,0,0,1,.92-2.65,18.38,18.38,0,0,1,.92-2.75c.37-.82.64-1.73,1-2.55.71-1.67,1.55-3.21,2.24-4.89,1.71-3.08,3.21-6.36,5.81-8.56.33-.13.08.33.41.2s-.08.2.2.2a3.15,3.15,0,0,1,.92-.61c.48-.11-.17.34.2.41a6.06,6.06,0,0,0,1.22-.51c-.17.57.48.33.51.71.26.15.36.46.51.71a14.27,14.27,0,0,0,.61,1.73c.54,4.64.16,8.1-.41,13-.25,1-.39,2.12-.61,3.16a28.5,28.5,0,0,1-.61,3.06c-.22,2.22-.61,4.28-.81,6.52-.88,8.59-1.49,18.06-1.83,27.3-.18,4.66-.26,9.36-.41,14.26-.31,4.53.23,9.31.51,13.85.37,2.1.51,4.45.92,6.52A43.21,43.21,0,0,0,56.63,105a17.86,17.86,0,0,0,2.55,4.89,9,9,0,0,0,1.63,2,5.5,5.5,0,0,0,2.14,1.53,6,6,0,0,0,2.75-.1c-.25.36-.91.31-1.32.51,0,.29-.42.19-.71.2-.09.18-.32.22-.61.2h-.51c-.88,0-1.39-.38-2.24-.41-.65-.1-.88-.62-1.53-.71.06.42.53.42.71.71s.71.24.92.51c.47,0,.69.26,1.22.2,0,.22.43,0,.61.1s.61-.14.51.2a6.34,6.34,0,0,1-2.44-.31c-1-.35-1.76-1-2.75-1.43A23.48,23.48,0,0,0,55.21,111a16.12,16.12,0,0,0-1.12-1.53c-.43-.45-.66-1.11-1.12-1.53-.32-.84-.75-1.56-1.12-2.34s-.64-1.6-1-2.34c-.47-1.77-1-3.49-1.43-5.3,0-1.11-.45-1.86-.41-3.06a14.71,14.71,0,0,1-.51-2.85c-.24-1.94-.42-4.23-.51-6-.25-8.82.09-17.71.41-25.56.21-4.05.54-8.28.92-12.43.16-1.74.38-3.65.61-5.7s.62-3.86.92-5.81c.58-3.67,1.16-7.66,1.94-11.41.5-3.94,1.49-7.6,1.73-11.51-.63.25-.62,1.14-1.12,1.53-.2.68-.65,1.11-.82,1.83-.64,1.09-1.18,2.28-1.73,3.46-.4,1.33-.86,2.61-1.32,3.87s-.76,2.71-1.22,4a158.36,158.36,0,0,1-4.69,16.19C42.14,50,40.84,55.69,39.83,61.64c-.25,3.21-.9,6-1.12,9.27,0,1.7-.27,3.27-.31,4.69,0,.93-.18,1.58-.1,2.55a5.39,5.39,0,0,1-.1,1c-.14.17.08.59,0,1-.11,1-.9,1.91-.41,3.06-.23,0-.28-.66-.51-.31a2,2,0,0,0-.41.51,3.42,3.42,0,0,1-1.53.41c-.68-.1-.85-.71-1.32-1a9.9,9.9,0,0,1-.71-1.53c-.33-1.2-.79-2.27-1-3.56-.7-2.46-.23-5.47-.92-7.94-.19-2.76-.4-5.94-.51-8.45a41.7,41.7,0,0,1,.1-4.28c0-1.51.11-2.53.2-4.07.75-5.4,1.56-10.54,2.24-15.79.17-1.51.46-2.32.51-3.87a28.65,28.65,0,0,0,.51-3.56A55.33,55.33,0,0,0,35,21.51c.11-.67.15-1.41.31-2,.08-1-.13-1.63-.1-2.55a13.83,13.83,0,0,0-1.32-3.77c-.31-.61-.79-1-1.12-1.63-.2-.1-.44-.18-.51-.41A15.59,15.59,0,0,0,25,8.47a10.76,10.76,0,0,0-4.38,1.12c-.21.2-.49.32-.71.51s-.51.24-.61.51a4.89,4.89,0,0,0-1.43.92c-1,.5-1.78,1.28-2.85,1.73-.32.46-.87.69-1.22,1.12-.62.13-.79.7-1.32.92a1.23,1.23,0,0,1-.61.61c-.11.27-.4.34-.51.61-.27.11-.34.4-.61.51a.82.82,0,0,1-.51.61c-.46,1-1.17,1.68-1.63,2.65A26,26,0,0,0,7,23a21.81,21.81,0,0,0-1.22,3.06c-.58.82-.59,2.2-1,3.16,0,1.38-.46,2.39-.61,3.67S4,35.48,3.77,36.68a19.55,19.55,0,0,0,1,7.44c0,.08.1.1.1.2.14.44.52.64.71,1a3.69,3.69,0,0,0,.81.81c.41.67,1.21,1,1.83,1.43a11,11,0,0,0,5.6-.31c1.69-1.06,2.61-2.89,3.67-4.58a10.84,10.84,0,0,0,1.32-2.75c.42-.26.41-1,.61-1.43a6.32,6.32,0,0,0,.61-1.43A56.56,56.56,0,0,0,21.9,22.53a22.85,22.85,0,0,1,.71-2.85c.7-.25.91-1,1.83-1s1.1.73,1.53,1.22a18,18,0,0,1,.81,1.94A24,24,0,0,1,27.09,27a51.11,51.11,0,0,1-3.46,13.44c-.34.38-.43,1-.81,1.32-.11.6-.54.89-.82,1.32a10.67,10.67,0,0,1-1.83,2.34,24.54,24.54,0,0,1-4.38,4.07c-.4,0-.53.22-.81.31a21.27,21.27,0,0,1-4.38.51c-2.21-.13-3.8-.89-5.7-1.32a15.77,15.77,0,0,1-3.67-4.18c-.1-.41-.21-.81-.31-1.22s-.4-.55-.51-.92a32.59,32.59,0,0,1,0-10.29c.56-3.21,1.11-6.43,2.34-9A41.9,41.9,0,0,1,11.82,10c.52-.19.8-.63,1.32-.81a4.68,4.68,0,0,1,1.22-.81A26.4,26.4,0,0,1,17.21,7a49.28,49.28,0,0,1,6.52-1.73c.16,0,.18-.1.31-.1h2c4.4.73,7,3.29,9.68,5.7.1.41.47.55.61.92.27.2.25.7.61.81.17.78.75,1.16.92,1.94a22.25,22.25,0,0,1,1.63,4.18,27.53,27.53,0,0,1,.71,5.09c0,1.9,0,4,0,5.6-.22,3.65-.61,7.13-1.12,10.49-.17.82-.29,1.68-.41,2.55a2.53,2.53,0,0,0-.2,1.22c-.1.38,0,1-.31,1.12C38.3,46.38,37.72,48.08,37.58,49.72Zm0,.61c0-.14,0-.39-.1-.2S37.51,50.52,37.58,50.33Z"/><path class="cls-1" d="M109,81.6c-.75.78-1.67,1.39-2.34,2.24-.4.34-.66.83-1.12,1.12a4.29,4.29,0,0,1-.92,1.32c-.13.66-.58,1-.71,1.63a6.24,6.24,0,0,0-.71,1.63,1.2,1.2,0,0,0-.31.81c-.19,0-.06.35-.2.41.05.15-.4.25-.1.31-.23.59-.35,1.28-.61,1.83-.24,1.32-.55,2.57-.81,3.87s-.3,2.89-.51,4.28a56.37,56.37,0,0,0,.61,8.15,27.49,27.49,0,0,0,1.12,4.38,18.71,18.71,0,0,0,5.5,9,8.4,8.4,0,0,0,3.77,1.83,7,7,0,0,0,2.34.41,5.08,5.08,0,0,0,2.14-.31c.65.19,1.33-.42,2.14-.41a18.51,18.51,0,0,1,2-.81,32.27,32.27,0,0,0,3.46-2.14,23.5,23.5,0,0,0,5.81-5.4A52.53,52.53,0,0,0,134,108.9c.63-1.24,1.21-2.53,1.83-3.77.44-1.42,1.08-2.65,1.53-4.07s.86-2.87,1.32-4.28.66-3.07,1.12-4.48c.48-3.25,1.26-6.21,1.93-9.27s.56-6.64,1.12-10c0-5.72,0-11-.41-16.4-.21-2.64-.38-5.32-.82-7.74s-.42-5.28-1.22-7.33A3,3,0,0,0,140,43.2a5.24,5.24,0,0,0-.31,1.83c-.26,1.13-.41,2.37-.61,3.56-.69,2.1-1.18,4.39-1.83,6.52a47.09,47.09,0,0,1-2,6.32c-.8,2-2,3.63-3,5.5a43,43,0,0,1-4.69,5,30.58,30.58,0,0,1-3.06,1.83,15,15,0,0,1-3.46,1.43h-1.43c-.56-.28-1.34-.36-1.73-.81s-.94-.83-1.43-1.22a8.43,8.43,0,0,0-.81-1.12c.06-.36-.36-.25-.31-.61-.35,0-.06-.62-.41-.61A26.11,26.11,0,0,1,114,68a57.74,57.74,0,0,1-.81-6.82,101.25,101.25,0,0,1,1.43-14c.38-2.2.88-4.28,1.43-6.32s.85-4.38,1.43-6.42a74,74,0,0,0,2.14-13.55A10.37,10.37,0,0,0,119,18,16.64,16.64,0,0,0,118,15.4,25.63,25.63,0,0,0,115.6,12c-2.42-.87-4.58-2.86-7.94-2.14-3,1.21-4.55,3.87-6.11,6.52a21.52,21.52,0,0,1-.92,2.65c.13.4-.34.21-.2.61a3.78,3.78,0,0,1-.2.71,11,11,0,0,0-.41,1.43c-.43,2-1,3.84-1.32,5.91a24.86,24.86,0,0,0,.61,6.21,16.31,16.31,0,0,0,.71,2.65,9.11,9.11,0,0,0,.61,1.12c.08.5.52.63.71,1a7.43,7.43,0,0,0,5.4.31,8.39,8.39,0,0,0,2.65-2.24,36.43,36.43,0,0,0,3-6.52c.4-1.31.63-2.43.92-3.67s.4-2.79,1.73-3.06a1.68,1.68,0,0,1,1.53,1.32c.43.6.1,1.74.1,2.55-.49,1.44-.65,3.22-1.22,4.58-.75,3.12-2.4,5.34-3.67,7.94-.49.16-.57.72-1,.92s-.72.63-1.22.81a9.33,9.33,0,0,1-2.85,1.22,12,12,0,0,1-6.93-1.73A5.6,5.6,0,0,1,98.8,40c-.15-.49-.51-.78-.61-1.32a6.71,6.71,0,0,1-.61-1.22,2.68,2.68,0,0,1-.71-1.22A32.93,32.93,0,0,1,96,25.89c-.17-.17,0-.85.1-1.12a1.81,1.81,0,0,1,0-1.22c-.17-.64.27-1.56.2-2.44.44-1.5.48-3.39.92-4.89a21.55,21.55,0,0,1,1.32-3.46,11.76,11.76,0,0,0,.81-1.53,5,5,0,0,0,.61-.61c.1-.13.11-.27.2-.41s.34-.19.2-.41c.75-.27,1.05-1,1.73-1.32A9.45,9.45,0,0,1,104,7.15a12.47,12.47,0,0,1,4.48-1.83c2.15.23,4.46.29,5.91,1.22a6.33,6.33,0,0,1,1.93,1.53,9.37,9.37,0,0,1,1.83,1.73,23.14,23.14,0,0,1,3,4.07c.31.85.77,1.54,1.12,2.34a5.52,5.52,0,0,0,.41,1.32c.14.48.12,1.11.41,1.43.16,1,.41,2,.61,3a24,24,0,0,0,.41,3.16,47.73,47.73,0,0,1-.92,10.39c-.22,1.86-.64,2.9-.81,4.79-.33,1.64-.75,3.19-1.12,4.79s-.56,3.31-.92,4.89c.08,1.07-.39,1.58-.41,2.55s-.22,1.75-.31,2.65a34.23,34.23,0,0,0-.31,5.4c-.1,1.72.31,3.47.31,5.4.23.75.4,1.57.61,2.34.38.64.49,1.54,1.22,1.83a5.34,5.34,0,0,0,3.67-.81,7.59,7.59,0,0,0,1.93-2c.68-.68,1.1-1.61,1.73-2.34,1.12-2.55,2.35-5,3.26-7.74a25.35,25.35,0,0,0,1.22-4.28c.27-.65.38-1.46.61-2.14s.28-1.56.61-2.14c.37-3.29,1.26-6.07,1.73-9.27A63.19,63.19,0,0,0,137.4,30c.18-.9-.43-1.53-.1-2.24a2.82,2.82,0,0,1,.41-.92c.36-.08.39-.49.61-.71.24.25.27.1.71.1a4.59,4.59,0,0,0,.81.31c0,.41.53.21.71.41s.4.34.51.61a9.29,9.29,0,0,1,1.63,2.85c.68,2.3,1,4.93,1.73,7.23.37,2.58,1.13,4.78,1.43,7.44.16,1.33.25,2.4.41,3.87a19.24,19.24,0,0,0,.81,3.67c.28,3.95,1.06,7.58.81,12.43-.36,4.22-.64,8.52-1,12.73-.07,1.05-.21,2-.31,3.06a16.65,16.65,0,0,1-.51,3c-.16,2.15-.77,3.85-.92,6a22.11,22.11,0,0,0-.61,2.75c-.21.95-.34,2-.61,2.85a18.86,18.86,0,0,1-.71,2.75,12.89,12.89,0,0,1-.81,2.65,49,49,0,0,1-4,9.68,51.84,51.84,0,0,1-5.3,8.45,55.81,55.81,0,0,1-7.44,6.31,24.69,24.69,0,0,1-4.48,2.34,36,36,0,0,1-5.7,1.22,26.32,26.32,0,0,1-2.75-.1c-5.72-1.21-9.1-4.75-11.41-9.37-.26-.15-.36-.46-.51-.71a.52.52,0,0,0-.31-.31c-.21,0,0-.45-.2-.51a9,9,0,0,1-.81-1.83,14.9,14.9,0,0,1-1.43-3.77,57.62,57.62,0,0,1-2-8.35,37.55,37.55,0,0,1,2.55-15.18,6.2,6.2,0,0,0,.92-1.43c.42-.37.72-.84,1.12-1.22.52,0,.66-.29.92-.51.32.21.67.44,1,.1a11.86,11.86,0,0,1,3.06-1.94c1-.66,2-1.32,3.06-1.94C108.69,81.58,108.84,81.59,109,81.6Z"/><path class="cls-1" d="M99.61,58.78c.27.27.22-.3.51-.31,0-.31.22-.4.31-.61s-.05-.36,0-.51.18,0,.2-.1a6,6,0,0,0,.2-.92,14.2,14.2,0,0,0,.31-3.46,10.12,10.12,0,0,0-.31-1.94c.25-.16,0-.71,0-.92-.12-.5.23-.52.31-.81.62.13.53,1,.81,1.43.12.62.27,1.23.41,1.83v2.65a10,10,0,0,1-1.22,4.07c-.43.45-1.08.68-1.53,1.12-.11,3.18-.7,5.88-1,8.86-.29,1.34-.53,2.73-.92,4a33.14,33.14,0,0,1-1.22,3.67,2.79,2.79,0,0,0-.61,1,2.46,2.46,0,0,1-.41.41c0,.25-.16.32-.31.41a10.17,10.17,0,0,0-.31,1.12c-.44.31-.72.78-1.22,1-.31.06-.31.43-.61.51-.56,0,0,.47-.41.51s-.84,0-1,.31c-.43-.32-1.26-.23-1.63-.61-.43,0-.49-.46-.71-.71s-.45-.5-.61-.81c-.41-.06-.34-.61-.71-.71a1.73,1.73,0,0,0-.51-.81,23.9,23.9,0,0,1-1.32-5.6c0-2,0-4-.2-5.91-.62,2.19-1.16,4.47-1.73,6.72a19.79,19.79,0,0,1-1,3.16A31.06,31.06,0,0,1,82,79.87c-.21.13-.4.28-.61.41-.06.34-.09.44-.41.31-.31.3-.46.77-.81,1-.56,0-.75-.41-1.22-.51a2.74,2.74,0,0,0-.81-.81,21.14,21.14,0,0,1-2.34-6c-.49-.11-.14.61-.51.61a6,6,0,0,1-.31.71,12.22,12.22,0,0,1-.51,1.53,10.16,10.16,0,0,1-1.32,2.75,11.77,11.77,0,0,1-1.63,2.44,9,9,0,0,0-.92,1.12c-.48.2-.63.73-.92,1.12a9.63,9.63,0,0,1-2.24,1.12c-.84-.15-1.75-.22-2.55-.41a10.53,10.53,0,0,1-4.89-6,29.82,29.82,0,0,1-1.63-9A31.6,31.6,0,0,1,59,60.41q.92-4.48,2.14-8.66a12.29,12.29,0,0,0,1-2.14,12.06,12.06,0,0,1,1.22-1.83c.54-.21.89-.61,1.43-.81a4.41,4.41,0,0,1,1.43.1c.47,0,.56.45.92.61s.58.43.92.61c0,.09,0,.1.1.1.3.48.6,1,.92,1.43a12.49,12.49,0,0,0,.81,2.34q.41,2.54.61,5.3c.17,1.72-.12,3.2-.1,5.09-.19,1-.24,2-.41,3.16-.26,1-.4,2-.71,3a13.92,13.92,0,0,1-.81,3,20.87,20.87,0,0,1-1.22,2.44c-.56.18-.7.8-1.12,1.12-1.75.22-2.4-.66-3.46-1.12A13.88,13.88,0,0,0,63.46,80c.32.26.36.79.61,1.12s.48.67.71,1a3.42,3.42,0,0,0,2,1.43c.77.06,1-.39,1.63-.51s.68-.74,1.43-.71c.2-.41.69-.53.92-.92,2.3-2.25,3.56-5.53,4.68-9,.08-3.11.18-6.75.31-10.49.07-.37.11-.77.2-1.12,0-.82,0-1,0-1.83a33.12,33.12,0,0,1,1.53-5.91c.5-.75.46-2.05,1.12-2.65.09-1.13.73-1.71,1-2.65.33-.22.61-.48.92-.71.08-.43.78-.24.92-.61.21-.12.15.18.2.2s.47-.11.71-.2a1.53,1.53,0,0,0,.92.71,21.12,21.12,0,0,1,.51,3.26c-.35,1.28-.63,2.63-.92,4a21.69,21.69,0,0,1-.81,4c-.26,1.37-.55,2.71-.81,4.07A11.38,11.38,0,0,0,81,64.59c-.35.5-.28.92-.31,1.83-.74,2.92-.76,6.57-.81,10.19.17,1,.15,2.16.31,3.16.35,0,.31-.44.41-.71a1.64,1.64,0,0,0,.2-.81c.29-.39.25-1.1.51-1.53.24-1.15.68-2.1.92-3.26.54-2.25,1.2-4.37,1.63-6.72.64-2.15.7-4.87,1.32-7,.33-2.41.63-5,.92-7.13,0-.31.42,0,.51-.41.22-.12.34-.34.61-.41a1.9,1.9,0,0,0,.81.1c0,.27.24.37.61.31.22.26.32.63.61.81.13.34.17.78.51.92.1,1.26.49,2.23.61,3.46.08,4.35-.38,7.55-.41,11.81.08.42-.16.52-.1.92,0,2.21,0,3.78.1,5.6a15.39,15.39,0,0,0,1.32,4.69,6.68,6.68,0,0,0,1.12-2,14.77,14.77,0,0,1,.92-2.24c.47-1.6.85-3.29,1.22-5a102.41,102.41,0,0,0,1.63-10.8c0-.43-.46-.49-.71-.71a2.81,2.81,0,0,0-.71-.71.93.93,0,0,0-.51-.71,8.52,8.52,0,0,0-.92-1.83,14.91,14.91,0,0,1-.71-2c-.66-1.14-.61-3-.92-4.48,0-2-.1-4.11.41-5.6-.09-.47.34.07.31-.2.3-.09-.13-.26,0-.51.42.37.37-.39.61-.51s.38-.34.41-.1c.16,0,.39,0,.41-.1A12.37,12.37,0,0,1,96.86,46a21.56,21.56,0,0,1,2,4.18c.09.86.25,1.65.41,2.44a8.71,8.71,0,0,0,.31,2.55C99.58,56.48,99.67,57.94,99.61,58.78Zm-5.7-12.63a5.49,5.49,0,0,0-.31,1.22c-.07,1.39.09,2.55.1,3.87a21.58,21.58,0,0,0,1,3.67,7,7,0,0,0,.61,1.73c.37.41.44,1.13,1,1.32.2-4.71.22-9.42-2.14-12-.13,0-.14-.13-.31-.1Zm-28,23.73a13.83,13.83,0,0,0,.41-1.53A20.82,20.82,0,0,0,67,65.2a44.64,44.64,0,0,0,.41-7.44A35.14,35.14,0,0,0,66.61,53c-.1,0-.12-.08-.2-.1s-.12.22-.2.31c-1.29,1.29-1.54,3.62-2,5.7-.12,1.54-.07,3.26-.2,4.79.13,1.35.15,2.71.31,4a10.54,10.54,0,0,0,.41,1.73c0,.16,0,.35,0,.51s.16.28.2.41a7.77,7.77,0,0,1,.31.81C65.68,71,65.64,70.27,65.9,69.89Z"/><path class="cls-1" d="M112.85,61.33c.17,0,.19.08.2.2s-.1,0-.1.1S112.87,61.45,112.85,61.33Z"/><path class="cls-1" d="M109,81.6c0-.12.15-.06,0,0Z"/></g></g></svg>