<svg xmlns="http://www.w3.org/2000/svg" viewBox="0 0 254.8 103.1"><title>New York</title><g id="8266b64f-755a-45d4-8189-243f21c82eef" data-name="Layer 2"><g id="d3186b77-bc4c-4575-bb62-935d3bf3a3bd" data-name="Layer 1"><path d="M25.38,78.83c-.25.33-.42-.42-.64-.09-.24.14-.53-.12-.46.46-.33-.1-.29-.56-.55-.73a6,6,0,0,0-.46-.73c-.24-.34-.85-.31-1-.73a14.64,14.64,0,0,1-1.19-2.19,13.24,13.24,0,0,0-.91-2.37,16.2,16.2,0,0,1-.73-2.65,19.12,19.12,0,0,1-.36-2.92c-.45-4.34-.06-7.88,0-11.4.21-4.24.8-8.09,1-12.32a110.81,110.81,0,0,1,1.37-11.68c-.56.08-.58.7-.82,1.1s-.52.76-.73,1.19a7.82,7.82,0,0,1-.73,1.19c-.27.33-.4.82-.73,1.09-.84,1.65-1.82,3.17-2.65,4.84s-1.7,3.29-2.46,5a43.27,43.27,0,0,0-2.46,5c-.28.35-.44.83-.73,1.19s-.38.9-.55,1.37c-.47.78-.77,1.72-1.28,2.46a20.72,20.72,0,0,1-1.19,2.55A22.5,22.5,0,0,1,6,61.13C5.44,63,4.62,64.7,4.12,66.7a25.75,25.75,0,0,0-1.28,6,21.41,21.41,0,0,0,.36,2.65,2.73,2.73,0,0,0,.09,1.55c-.26,0-.26-.22-.27-.46A.45.45,0,0,1,2.85,76c-.13-.3-.24-.61-.36-.91-.33-.56-.52-1.24-.82-1.82A20.89,20.89,0,0,1,.11,69.53c0-.24,0-.52-.09-.64-.16-3.72.87-6.25,1.46-9.22.75-2.78,1.69-5.36,2.55-8a14.66,14.66,0,0,0,.73-1.92c.34-.54.51-1.25.82-1.82.48-1.28,1-2.52,1.55-3.74,1-2.53,2.21-4.85,3.19-7.39.31-.57.54-1.22.82-1.82.24-.21.28-.64.36-1a1.38,1.38,0,0,0,.46-.82,4.81,4.81,0,0,0,.91-1.73c.48-.4.56-1.2,1-1.64a4,4,0,0,1,1-1.64,15.37,15.37,0,0,1,.91-1.73c.68-1.08,1.37-2.16,2-3.28.35-.11.32-.6.55-.82s.37-.48.46-.82c.54-.34.63-1.14,1.19-1.46.16-.73.7-1.07.91-1.73.31-.07.25-.42.46-.64,0,0,.16-.05.18-.09s.1-.34.18-.46.36-.15.27-.36a14.22,14.22,0,0,1,1.09-1.55c.41-.47.75-1,1.19-1.46A12,12,0,0,1,26.84,11a1.07,1.07,0,0,1,.73.27c.4.07.57-.21.73.09s.44,0,.64.18c.36-.06.37.24.73.18,0,.08,0,.09.09.09.38.08.42.49.82.55.2.23.53.32.73.55.51,1.77.18,4.38.27,6.57-1,8-3.45,14.49-4.84,22.08-.59,3.91-1.27,7.73-1.73,11.77-.31,4.17-.8,7.82-.73,12.32.27-.19.27-.64.36-1,.22-.2.26-.6.36-.91.32-.56.46-1.3.73-1.92.5-1.26.93-2.6,1.46-3.83s1-2.53,1.46-3.83a19.36,19.36,0,0,0,.82-1.82,18.48,18.48,0,0,0,.73-1.82c.61-1.15,1-2.56,1.64-3.65.5-1.23,1.16-2.3,1.64-3.56.64-1.13,1.25-2.27,1.82-3.47s1.32-2.15,1.82-3.38a7.24,7.24,0,0,0,1-1.64c.4-.48.57-1.2,1-1.64.24-.65.68-1.08.91-1.73.21-.25.35-.56.55-.82s.4-.45.46-.82c.7-1.07,1.22-2.31,2-3.28.56-1.18,1.36-2.11,1.92-3.28.78-1,1.29-2.23,2.1-3.19a12.7,12.7,0,0,0,1-1.64c.43-.42.59-1.11,1.09-1.46a30.85,30.85,0,0,1,2.1-3.19,8.3,8.3,0,0,0,1.09-1.55c.19-.24.5-.36.55-.73s.46-.39.46-.82c.35-.07.41-.45.64-.64a4.79,4.79,0,0,0,.55-.64c.42-.4.76-.88,1.19-1.28a9.43,9.43,0,0,1,2.1-2.74c.24-.59.86-.78,1.09-1.37s.72-.86,1-1.37.75-.89,1.19-1.28A2.85,2.85,0,0,1,62.33.09h.18c.16,0,.19-.11.36-.09.7.27,1.24.71,1.92,1,.3.18.35.62.73.73,0,.29.42.07.46.27a2.21,2.21,0,0,1,.37.36c-.12.12-.14.45.09.46-.11.92-.7,1.37-1.09,2a26.41,26.41,0,0,1-2.46,4.74c-.16.44-.54.68-.64,1.19a4.39,4.39,0,0,0-.73,1,22,22,0,0,0-1.46,2.1c-1,1.41-1.89,2.86-2.92,4.2a33.88,33.88,0,0,1-2.83,4.29c-1.88,2.86-3.72,5.77-5.57,8.67-.91,1.46-1.84,2.91-2.74,4.38-.31.3-.42.8-.73,1.1a11.86,11.86,0,0,1-.64,1.09l-1.37,2.19c0,.27-.24.37-.36.55a.64.64,0,0,1-.36.55A5.17,5.17,0,0,1,41.9,42c-.18.43-.5.72-.64,1.19s-.56.6-.64,1.09c-.58.61-.82,1.55-1.37,2.19-.33.86-.86,1.52-1.19,2.37a105.9,105.9,0,0,0-4.56,9.67c-.78,1.59-1.41,3.34-2.19,4.93-.28.91-.77,1.6-1,2.55a3.84,3.84,0,0,0-.55,1.28,3.3,3.3,0,0,0-.55,1.19c-.44.74-.71,1.66-1.09,2.46s-.67,1.7-1,2.55A49.49,49.49,0,0,0,25.38,78.83Z" style="fill:#fff;fill-rule:evenodd"/><path d="M227.29,85.86c-.14-.41-.5,0-.73.09-.16-.17-.46-.24-.55,0-.18,0-.18-.12-.27-.18a.25.25,0,0,1-.27.18c0-.13-.2-.1-.27-.18-.4-.07.07.18-.18.18s-.34-.2-.55-.27-.3.13-.27.36c-.07,0-.18,0-.18.09s-.23,0-.09-.09-.25-.05-.27-.18c-.35-.1-.28.37-.55.09a.09.09,0,0,0-.18,0h-.18c0-.12.13-.17.09-.37-.37.06-.61.24-1,.27,0-.35-.07,0-.27-.09a2.85,2.85,0,0,1-1.19-.36c-.27.11-.31,0-.55-.09-.05-.11-.34.06-.55-.09-.77-.29-1.62-.5-2.37-.82a3.47,3.47,0,0,0-1.09-.46,9.34,9.34,0,0,0-1-.64,10.16,10.16,0,0,1-2-1.19c-1.44-.69-2.36-1.9-3.56-2.83-.49-.57-1.11-1-1.64-1.55s-1-1.18-1.55-1.73c-.83-1.3-1.77-2.49-2.55-3.83-.41-.66-.75-1.38-1.19-2-.21-.88-.7-1.49-.91-2.37-.67-1.46-1.06-3.2-1.64-4.74-.45-1.71-.56-3.76-.91-5.57-.29,0-.18.37-.36.46s-.12.43-.36.46c0,.5-.43.66-.55,1.09-.46.67-.87,1.38-1.28,2.1a40,40,0,0,0-2.55,4.2c-.91,1.34-1.54,3-2.37,4.38A42.58,42.58,0,0,0,189.43,75c.11.51-.07.84.09,1.37-.27.24-.32-.29-.46-.46-.23.19-.4-.28-.73-.27a1.84,1.84,0,0,0-.55-.82,5.91,5.91,0,0,1-.27-1.37c.07-.34-.48-.06-.36-.46-.08-.19-.25-.29-.36-.46a18.88,18.88,0,0,0-.64-2,35.08,35.08,0,0,1,1.73-8.12c-.51.07-.45.7-.91.82,0,.27-.3.31-.37.55-.24.06-.19.42-.46.46s-.1.51-.46.46c-.11.19-.25.36-.36.55-.24.37-.64.57-.91.91a39.23,39.23,0,0,1-3.65,3.65c-.3.27-.59.57-.91.82s-.68.54-1,.82-.7.51-1,.82c-.19.11-.36.25-.55.36s-.17.13-.36.09c0,.14,0,.32-.18.27-.7.52-1.48,1-2.19,1.46s-1.84.59-2.74.91h-1.19c-.42-.11-.36.25-.73.18a5.45,5.45,0,0,0-1-.18c-.23-.17-.37-.42-.64-.55-.1-.29-.46-.33-.46-.73-.56-.08-.7-.58-1.19-.73-.1-.42-.42-.61-.64-.91a8.38,8.38,0,0,1-.55-2.55V68.71a12.41,12.41,0,0,1,.82-3.74,13.88,13.88,0,0,0,.64-1.73,2.77,2.77,0,0,0,.82-1.55c1.1-1.15,1.71-2.79,2.83-3.92.38-.75,1-1.21,1.46-1.92.65-.48,1-1.26,1.64-1.73.46-.66,1.18-1.07,1.64-1.73.38-.17.55-.55.82-.82a5.53,5.53,0,0,0,.91-.82,42.11,42.11,0,0,0,3.28-3.47c.25-.78.8-1.27.82-2.28.09-.43-.37-.3-.27-.73a3.44,3.44,0,0,1-.64-.36c-.23-.35-.47-.68-.73-1-.39-.09-.27.34-.55.36,0,.36-.39.28-.36.64-.36.28-.52.76-.91,1a8.22,8.22,0,0,1-1.73,2.1c-.6.68-1.31,1.24-1.92,1.92s-1.33,1.22-2.1,1.73a9.8,9.8,0,0,1-2.1,1.73,12.41,12.41,0,0,1-2.28,1.55,12.93,12.93,0,0,1-2.46,1.37c-.91.4-2,.65-2.83,1.09a5,5,0,0,0-.64,1c0,.26-.39.16-.36.46a.83.83,0,0,1-.46.36c-.1,0-.07.12.09.09a.43.43,0,0,1-.09.27c-.23.38-.65.57-.73,1.09-.34,0-.17.44-.46.46s-.2.61-.46.36c0,.64-.73,1-1,1.64-.4.06-.4.52-.73.64s-.34.64-.73.73c-.07.39-.44.47-.64.73a6.28,6.28,0,0,1-.64.82c-.11.13-.52,0-.27.27-.11.14-.34.14-.46.27-.11.38-.5.48-.64.82-.69.41-1.2,1-1.92,1.37a2.37,2.37,0,0,1-1,.64,2.7,2.7,0,0,1-1,.73,14.32,14.32,0,0,1-4.65,2.1c-.85,0-1.54.22-2.37.27a3.22,3.22,0,0,0-.91-.09c-.26-.32-.74-.42-1.1-.64a10,10,0,0,0-1.09-.73c-.3-.43-.78-.68-1-1.19-.52-.21-.74-.72-1.19-1-.38-.71-1-1.18-1.19-2.1A9.27,9.27,0,0,1,136,63V61.22a19.27,19.27,0,0,1,1-4.56,13.43,13.43,0,0,1,.82-1.92,12.35,12.35,0,0,1,.91-1.92,27.25,27.25,0,0,1,2.19-3.38c.43-.51.73-1.16,1.19-1.64a15.45,15.45,0,0,0,1.28-1.55c.22-.24.54-.37.64-.73.5,0,.35-.57.73-.64.5-.44,1-.89,1.46-1.37a9.23,9.23,0,0,0,1.64-1.19c.19-.26.68-.24.82-.55s.71-.27.82-.64c.35-.11.52-.4.82-.55s.56-.35.91-.46.45-.46.91-.46c.15-.34.59-.39.91-.55a8.62,8.62,0,0,1,2-.82,4.94,4.94,0,0,1,2-.64c.26,0,.21-.27.46-.27s.37-.11.46-.27c.5,0,.6-.43,1.09-.46a8.26,8.26,0,0,1,1.37-1c.46,0,.52.12.91,0a20,20,0,0,1,3.19.91,12.38,12.38,0,0,1,2.19,2.46,14.57,14.57,0,0,1,.46,4.74,35.75,35.75,0,0,1-.73,3.92c-.41,1.14-.84,2.26-1.28,3.38A4.72,4.72,0,0,0,167,50a8.2,8.2,0,0,0,1.73-1.28,46.27,46.27,0,0,0,4.74-4.29,4.43,4.43,0,0,1,.64-.82,1.61,1.61,0,0,0,.73-.82,28.24,28.24,0,0,0,2.65-3.38,3.85,3.85,0,0,1-.18-1.73,7.29,7.29,0,0,0,.27-1.64c.35-.62.55-1.4.91-2,.3-.19.32-.65.55-.91s.43-.6.64-.91.44-.53.64-.82.55-.43.64-.82c.59-.41.88-1.13,1.46-1.55.13.14.47.08.73.09s.33.27.64.27c.41.2.64.57,1.09.73,0,.36.4.39.46.73.24.19.22.63.36.91-.88,2.64-2.83,4.22-3.65,6.93a5.83,5.83,0,0,0,.09.64c0,.33.27.33.27.64.31,0,.19.48.46.55q.36.6.73,1.19c.37.54.87,1,1.28,1.46.24.22.55.36.64.73.34.14.37.61.64.82a2.31,2.31,0,0,0,.18.73c0,.69-.16,1.12-.09,1.82,0,.27-.17.31-.27.46.07.32-.14.35-.09.64a9.47,9.47,0,0,0-.46,1.1c-.32.72-.72,1.35-1,2.1-.5.54-.67,1.4-1.28,1.82-.26.77-1,1.09-1.28,1.82-.95,1.09-1.89,2.19-2.83,3.28a3.16,3.16,0,0,1-.73.82c-.27.25-.43.61-.73.82a5.19,5.19,0,0,1-.73.82c-.28.24-.3.74-.82.73.06.55-.39.58-.55.91s-.49.54-.64.91c-.56.44-.84,1.17-1.37,1.64-.79,1.22-1.47,2.54-2.28,3.74a15.55,15.55,0,0,0-.91,2.92c.31.26.76.08,1.19,0s.9-.19,1.19-.46c.83-.27,1.41-.78,2.19-1.1.16-.12.24-.31.55-.27,0-.24.24-.31.46-.37.29-.26.61-.48.91-.73.68-.42,1.1-1.09,1.83-1.46,1-1.15,2.26-2.12,3.28-3.28a14.37,14.37,0,0,1,1.64-1.64c.06-.48.69-.4.73-.91.38-.16.53-.57.91-.73.14-.53.64-.69.82-1.19a.46.46,0,0,0,.46-.36c.2-.25.3,0,.55-.18.84-1,1.85-1.93,2.74-2.92a32.82,32.82,0,0,1,2.83-2.92.25.25,0,0,1,.18-.27,9.35,9.35,0,0,1,1-1.73,10.7,10.7,0,0,1,1.09-1.64A36.47,36.47,0,0,1,197,46.26c.75-1.11,1.64-2.07,2.37-3.19s1.52-2.19,2.46-3.1c1.55-2.13,3.16-4.2,4.65-6.39s3.13-4.29,4.84-6.3a4.1,4.1,0,0,1,.55-.82c.19-.24.42-.5.64-.73a12.58,12.58,0,0,1,1.19-1.55c.74-1.11,1.64-2.07,2.46-3.1,1.76-2,3.47-3.95,5.11-6,.49-.42.8-1,1.28-1.46.12-.33.49-.43.64-.73s.41-.56.73-.73c.41-.5.83-1,1.28-1.46.18-.28.49-.42.64-.73.33-.16.36-.61.73-.73.78-1.07,1.8-1.91,2.65-2.92a11.93,11.93,0,0,0,1.37-1.37c.06-.39.51-.4.55-.82.34-.15.41-.57.82-.64a5.87,5.87,0,0,1,2.65,1.64c.09.43.38.65.46,1.09.12.91-.41,1.17-.55,1.82-.37.42-.61,1-1,1.37A31.11,31.11,0,0,1,231.4,12c-.21.58-.7.88-1,1.37s-.66.92-1.09,1.28a27.24,27.24,0,0,1-2.1,2.65q-2,2.75-4.11,5.38c-1.28,1.92-2.77,3.62-4.11,5.47q-4.11,5.42-8.12,10.95c-.67.91-1.33,1.84-2,2.74s-1.42,1.74-1.92,2.83c-.81.77-1.21,2-2,2.74a9.61,9.61,0,0,1-.91,1.46c-.29.53-.64,1-.91,1.55a11.58,11.58,0,0,0,2.55-1.28c.47-.17.84-.44,1.28-.64s1-.32,1.19-.73a3.54,3.54,0,0,0,1.28-.64c.46-.18.81-.46,1.28-.64A24.09,24.09,0,0,1,213,45c.72-.56,1.52-1,2.28-1.55a19.35,19.35,0,0,0,2.19-1.64c.86-.42,1.44-1.11,2.28-1.55.06-.24.43-.18.55-.36a1.64,1.64,0,0,1,.55-.46A7.68,7.68,0,0,1,222,38.6a4.37,4.37,0,0,1,.91-.91,6.15,6.15,0,0,1,1-.91c.59-.66,1.3-1.19,1.92-1.82.41-.2.53-.69.91-.91a3.05,3.05,0,0,1,.46-.46c.05-.28.43-.24.46-.55.32,0,.29-.32.46-.46s.4-.21.46-.46c.42-.22.59-.69,1.09-.82.24-.49.55-.91.82-1.37.15-.15.07-.54.09-.82a9,9,0,0,0,1.37-1.37c.47-.11.71-.45,1.19-.55.28.06.37.3.55.46s.28.45.46.64.3.31.46.46a2.21,2.21,0,0,0,.46.46c0,.28.25.35.36.55.12.57.06,1.34.55,1.55a2.3,2.3,0,0,0-.55.82,13,13,0,0,1-1.64,5.11c-.89,1.39-1.5,3.06-2.74,4.11-.1.45-.53.57-.64,1-.21.06-.24.3-.46.36,0,.32-.43.18-.36.55-.6.56-1.17,1.15-1.73,1.73a32.64,32.64,0,0,1-3.74,3.1A32.56,32.56,0,0,1,220.27,51a41.38,41.38,0,0,1-4.11,2.74,86.93,86.93,0,0,1-9,4.65,16.41,16.41,0,0,1,.46,1.82,7.59,7.59,0,0,1,.91,2.28c.24,0,.08.46.27.55a.69.69,0,0,1,.18.64,2,2,0,0,1,.46,1.19,7.69,7.69,0,0,1,.55,1,2.33,2.33,0,0,0,.55,1.09,8.13,8.13,0,0,0,1.09,2.19c.07.44.42.61.55,1s.38.72.64,1a23.37,23.37,0,0,0,1.37,1.92,42.74,42.74,0,0,0,3,3.47c.65.41,1.07,1.06,1.73,1.46a7.28,7.28,0,0,0,.91.73c.14.14.38.16.46.37s.48.07.46.36c.55,0,.65.38,1.09.46.23.29.82.22,1,.55.9.16,1.48.65,2.37.82a20.74,20.74,0,0,0,5.57.55,28,28,0,0,0,7.85-2,30.26,30.26,0,0,0,6.2-3.74c1-.66,1.84-1.45,2.74-2.19.39-.43.85-.79,1.28-1.19s1-.64,1.28-1.19a5.1,5.1,0,0,0,1.19-1.28,7.73,7.73,0,0,0,1.09-1.37,4.48,4.48,0,0,0,1-1.46,6.26,6.26,0,0,1,.55-.73c.23-.19.1-.75.55-.73-.3.29.15.52.18.09.29.49,0,.88,0,1.46-1.54,2.08-3.22,4-4.93,5.93,0,.23-.14.29-.27.36s-.15.34-.36.36c-.18.28-.44.47-.64.73s-.07.35-.36.27a.34.34,0,0,1-.36.36c-.19,0,0,.4-.27.37,0,.38-.25-.09-.27.27s-.18.06-.27.18-.26.23-.36.36c-.12.33-.49.43-.64.73-.3.15-.49.42-.82.55s-.31.7-.73.46c.05.42-.41.32-.46.64-.2.19-.5.29-.64.55-1,.27-1.63,1.23-2.83,1.55a6.21,6.21,0,0,1-1.19.82c-.45.22-.89.45-1.37.64a.25.25,0,0,1-.27.18c.07.17.27.06.09.27-.29,0-.41-.25-.36.18-.5-.11-.5.29-1,.18-.06.34-.54.25-.82.36s-.52.27-.82.36-.29.14-.36.27-.28-.17-.46,0c-.66.16-1.22.43-1.92.55a7,7,0,0,1-.91.27c-.29.14-.84,0-1,.27h-.82c-.27,0-.31.17-.46.27-.27-.06-.27-.31-.46,0-.11,0-.19.14-.18-.09s-.22-.08-.36-.09S227.41,85.77,227.29,85.86ZM159.5,52.74c.5-.44.64-1.24,1.09-1.73a1.71,1.71,0,0,1,.09-.73,1.56,1.56,0,0,1,.36-.27v-.64a.85.85,0,0,0,.27-.64c.05-.22.35-.19.27-.55a4.43,4.43,0,0,0,.46-1.28c.08-.2.34-.2.36-.46v-.18c.09,0,.07-.11.09-.18.09-.49.08-1.08.18-1.55,0-.22.42.05.27-.27a16,16,0,0,0,.27-3.56c0-.29-.24-.3-.18-.64s.16-.32.09-.64c-.28-.15-.24-.61-.64-.64-.54.19-.73.73-1,1.19a1.83,1.83,0,0,0-.73.82,3.08,3.08,0,0,0-.64.91c-.49.51-.83,1.17-1.28,1.73a19.68,19.68,0,0,0-1.09,2c-.49.52-.52,1.49-1,2-.07.75-.27,1.37-.36,2.1a1.28,1.28,0,0,1,0,.91,9.63,9.63,0,0,1,.55,1.92,2.3,2.3,0,0,1,.46.64,6.85,6.85,0,0,0,1.73.27C159.32,53.17,159.36,52.9,159.5,52.74Zm-2.92,4.38c.13-.08.29-.14.27-.36a3.37,3.37,0,0,0-1.46-.36c-.41-.37-.73-.26-1.28-.46-.13-.21-.38-.29-.55-.46a.5.5,0,0,0-.46-.46c-.15-.15-.07-.54-.46-.46,0-.32-.31-.3-.37-.55a6.42,6.42,0,0,1-.36-1.1,8.11,8.11,0,0,1-.82-1c-.56-.93-.61-2.37-1-3.47a2.36,2.36,0,0,0-.91.73c-.28.24-.64.4-.82.73-.56.5-1,1.14-1.55,1.64s-.93,1.2-1.37,1.82a12.51,12.51,0,0,0-1.28,1.82c-1.59,2.61-3.39,5-3.92,8.67v1.92a9.73,9.73,0,0,0,.55,1.46,8.59,8.59,0,0,0,2.46.18,11.49,11.49,0,0,0,3.19-1.19c.55-.18.88-.58,1.46-.73.09-.28.51-.22.64-.46.29,0,.32-.35.64-.36.7-.73,1.59-1.27,2.28-2,.33-.4.81-.65,1.09-1.09.15-.21.51-.22.64-.46-.08-.41.46-.21.46-.55.33-.24.45-.7.73-1a2.21,2.21,0,0,1,.46-.46c.17-.11.06-.48.46-.36,0-.56.5-.66.64-1.09C156.12,57.44,156.51,57.44,156.58,57.12Zm5.11-.18s-.14,0-.09.09S161.74,57,161.69,56.94Z" style="fill:#fff;fill-rule:evenodd"/><path d="M102.57,42.52A12.89,12.89,0,0,1,100.93,40c-.62-.72-1-1.7-1.64-2.37,0-.45-.28-.63-.27-.91-1.53-1.65-2.17-4.21-2.19-6.93a15.67,15.67,0,0,1,.64-4.29,14.88,14.88,0,0,1,1.46-3.65c0-.41.37-.49.46-.82s.39-.46.46-.82.42-.43.46-.82c.28-.14.23-.62.55-.73.06-.36.4-.45.55-.73s.37-.48.55-.73a2.53,2.53,0,0,1,.64-.64c.1-.36.47-.44.55-.82.06-.13.35,0,.36-.18-.13-.35.41,0,.27-.36.18-.25.44-.42.55-.73a9.68,9.68,0,0,0,1.46-1.19c.51-.4,1-.83,1.55-1.19a11.94,11.94,0,0,1,3.28-2.19A24,24,0,0,1,118.72,7a29.48,29.48,0,0,1,4.47-.18,4,4,0,0,0,.91.18,12.92,12.92,0,0,0,2.65,1.09c.36-.08.07.48.27.55s.63,0,.82.18c0,.27.24.31.27.55a.47.47,0,0,0,.36.55v.55a8.49,8.49,0,0,1,.64,1.37c-.05,0-.1.07,0,.09a11,11,0,0,1-1,3.28,15.93,15.93,0,0,1-1.46,2.83c-.14.56-.56.84-.73,1.37-.42.31-.51.95-.91,1.28-.43,1-1.07,1.79-1.55,2.74-1.21,1.65-2.24,3.47-3.56,5-.2.5-.64.76-.82,1.28-.35.38-.57.89-.91,1.28-.47,1-1.16,1.69-1.64,2.65a10.72,10.72,0,0,0-.82,1.28c-.4.33-.54.92-.91,1.28-.17.53-.52.88-.73,1.37a1.82,1.82,0,0,0-.36.73,1.66,1.66,0,0,0-.46.64c-.4,1-1.08,1.78-1.46,2.83a6.39,6.39,0,0,0-.64,1.46,4.26,4.26,0,0,0-.64,1.55c-.33,0-.19.48-.36.64s-.15.58-.36.73c-.11.62-.46,1-.55,1.64-.47,1-.73,2.13-1.19,3.1a42.48,42.48,0,0,0-1.46,7.21v2a2.73,2.73,0,0,0,.55,1,5.86,5.86,0,0,0,3.28-.82,5.54,5.54,0,0,0,1.28-.73c.53-.17.81-.59,1.37-.73.24-.22.58-.34.73-.64s.59-.39.73-.73c.44,0,.56-.41.82-.64s.68-.35.82-.64c.37-.09.51-.4.73-.64a3.29,3.29,0,0,0,.73-.73A12.57,12.57,0,0,1,119,53.29v-.64c.59.09.73-.46.91-.64a4.73,4.73,0,0,0,.82-.82,14.13,14.13,0,0,0,1.55-1.64c.19-.33.54-.49.73-.82.21-.06.13-.41.37-.46s.23-.32.36-.46a4.85,4.85,0,0,1,.73-.91c0-.24.27-.28.27-.55.26,0,.16-.39.46-.36,0-.27.05-.56.27-.64a5.38,5.38,0,0,0,.27-.64c.46.15.17-.44.36-.55a.85.85,0,0,0,.36-.55c.32-.14.06.31.27.27s0-.37.36-.55a1.57,1.57,0,0,0,.46-.73c.38,0,.24-.49.55-.55,0-.39.45-.34.46-.73.42-.34.55-1,1-1.28.07-.3.35-.38.46-.64,0-.41.46-.33.64-.55-.11-.51.32-.53.09-.91.2,0,.29-.2.46-.27s0-.27.18-.46c.17.07.06.27.27.09-.08-.32.14-.32.18-.09.11-.23.32-.35.27-.73.47-.2.62-.71,1-1a31.56,31.56,0,0,1,1.92-3c.82-.82,1.24-2,2-2.92.33-.52.85-.84,1-1.46.42-.4.6-1,1.09-1.37a7.18,7.18,0,0,1,1-1.46c.24-.61.82-.89,1-1.55.49-.33.64-1,1.09-1.37a4.82,4.82,0,0,1,1-1.46,2.42,2.42,0,0,1,.46-.73c.23-.19.25-.6.64-.64,0-.38.37-.5.55-.73s.22-.63.55-.73c.15-.67.77-.87,1-1.46a4.15,4.15,0,0,0,1-1.46c.27-.12.33-.46.46-.73a1.23,1.23,0,0,0,.55-.73,1.8,1.8,0,0,0,.64-.64c.15-.27.53-.33.73-.55a2.56,2.56,0,0,1,1.1.36c.15.06.36,0,.46.09s.16.2.27.27a6.77,6.77,0,0,1,1.73,2,1.41,1.41,0,0,0,.18.73,3.47,3.47,0,0,0-.09,1c-.34,1-.68,2.06-1.09,3s-.72,2-1.19,2.92a10.46,10.46,0,0,1-.64,1.37c-.11.59-.51.89-.64,1.46-.52.85-.88,1.86-1.37,2.74-.89,1.85-1.63,3.84-2.55,5.66a8.07,8.07,0,0,1-.64,1.37c-.26.44-.35,1.05-.73,1.37a5,5,0,0,1-.64,1.46,9.16,9.16,0,0,1-.64,1.46c-.79,2-1.74,3.74-2.46,5.75-.54.83-.8,1.94-1.37,2.74-.25,1.12-.91,1.83-1.19,2.92-.49.87-.9,1.84-1.37,2.74a13.65,13.65,0,0,1-.64,1.37c-.29.41-.39,1-.73,1.37-.3,1.07-.93,1.81-1.28,2.83-.55.84-.92,1.88-1.46,2.74C131,65.83,129,69.33,127,72.81a67.37,67.37,0,0,1-6.11,10.4c-1.1,1.64-2.4,3.07-3.56,4.65-.68.68-1.26,1.47-1.92,2.19a6.24,6.24,0,0,0-1,1c-.44.26-.67.73-1.1,1A45.81,45.81,0,0,1,109,95.89c-1.41,1.35-3.2,2.34-4.74,3.56a19.11,19.11,0,0,0-2.37,1.28c-.87.34-1.62.82-2.55,1.09a25.83,25.83,0,0,1-6,1.28H92.17a35.24,35.24,0,0,1-5.2-.91,13,13,0,0,1-3.83-2.28,12.37,12.37,0,0,1-2.28-3.47,9.35,9.35,0,0,1-1-4.56c0-.26-.17-.38-.18-.64.11-1.6.47-3,.64-4.74a34.29,34.29,0,0,1,1.46-3.92c.24-.22.23-.68.55-.82s.2-.71.46-.91.32-.59.55-.82a1.71,1.71,0,0,0,.46-.91c.27-.13.37-.42.64-.55,0-.4.41-.45.46-.82a14.74,14.74,0,0,0,1.64-1.64,6.84,6.84,0,0,1,.91-.73c.19-.36.69-.41.82-.82,1.26-.93,2.49-1.89,3.74-2.83a24.77,24.77,0,0,1,4.38-2.19A16.67,16.67,0,0,1,99,68.89c.83-.12,1.57-.09,2.65-.27,0,.11.14.1.27.09.37-.13.29.2.55.18A27.31,27.31,0,0,1,106,68.8a5.56,5.56,0,0,1,2-.18c-.19.24-.92-.07-1,.27a2.38,2.38,0,0,0,.73.09c-.56.34-1.68-.24-1.92.27.21.25.74.17,1.19.18,1,.4,2.5.23,3.56.55-.66.13-2.07-.23-2.74-.09,0,.34.57,0,.64.27h.91a11,11,0,0,0,1.64.18,6,6,0,0,1,1.55.27c.38-.07.47.14.82.09.15.15.67-.06.64.27a11.69,11.69,0,0,0-2.92-.18c-.31.1.25,0,.09.27-.4-.08-.93,0-1.55,0a59.36,59.36,0,0,0-6.93,1.28c-.68,0-1,.36-1.64.36a9.5,9.5,0,0,1-1.64.46,20.78,20.78,0,0,0-2.83,1.09A22.54,22.54,0,0,0,94,75.73c-.82.55-1.7,1-2.46,1.64a3.67,3.67,0,0,0-1.19.82,2.89,2.89,0,0,0-1.19.91c-.51.16-.69.65-1.09.91A4.73,4.73,0,0,1,87,81a30.78,30.78,0,0,0-2.65,4,20,20,0,0,0-.82,2.55A15.36,15.36,0,0,0,83,90.42a12.93,12.93,0,0,0,.46,2,15.84,15.84,0,0,0,.82,1.64c1.41,1.52,3.7,2,6.48,1.73a21.82,21.82,0,0,0,4.84-1.28,27.54,27.54,0,0,0,3.83-2.28,9.51,9.51,0,0,0,1.82-1.19,11.46,11.46,0,0,0,1.73-1.37,8,8,0,0,0,1.64-1.37,16.25,16.25,0,0,0,1.64-1.46c1.12-.91,2.13-1.95,3.19-2.92.92-1.12,2-2.07,2.83-3.28.35-.14.38-.59.73-.73a6.36,6.36,0,0,1,.64-.91c.35-.16.43-.6.73-.82s.52-.52.64-.91a21.86,21.86,0,0,0,1.37-1.73c.38-.65.85-1.22,1.28-1.82,1.64-2.43,3.25-4.9,4.74-7.48.35-.65.78-1.23,1.09-1.92s.71-1.35,1.19-1.92a36.53,36.53,0,0,0,2.1-4c.74-1.3,1.38-2.7,2-4.11s1.33-2.75,1.92-4.2c.22-.78.56-1.44.82-2.19a6,6,0,0,0,.46-1.1c.21,0,.09-.4.27-.46s0-.58.27-.55c.47-1.59,1.25-2.88,1.73-4.47-.43.05-.33.64-.73.73a3.41,3.41,0,0,1-.64.91c-.26.26-.38.65-.73.82,0,.29-.25.24-.27.46-.29,0-.15.4-.46.36a4.91,4.91,0,0,1-1.19,1.64c-.18.77-.82,1.07-1.09,1.73,0,.31-.4.26-.46.55s-.24.49-.46.64-.3.43-.55.55-.23.5-.46.64-.37.3-.46.55l-.27.27c0,.22-.42-.05-.27.27-.07.3-.44.29-.46.64-.47-.08-.08.68-.55.36a.25.25,0,0,1-.18.27c0,.11,0,.56-.09.27-.27.1-.36.37-.46.64-.24.09-.3.37-.46.55-.35.11-.34.3-.36.55-.23.24-.13-.24-.36,0s-.09.34-.27.36c.07.31-.09.47-.27.27a4.56,4.56,0,0,1-.55.91c-.23.13-.4.33-.64.46s-.32.56-.55.36c0,.44-.49.3-.36.82-.42-.29-.42.52-.82.55s-.32.78-.91.73c0,.46-.5.47-.55.91a.25.25,0,0,1-.36,0c-.09.12-.09.34-.27.36.15.36-.39,0-.36.27s-.26.17-.18.46c-.32-.31-.22.32-.64.18s0,.45-.37.36c-.06.21-.3.24-.36.46a1.3,1.3,0,0,0-.91.64c-.21,0-.38-.18-.55,0s-.52.15-.46.55a.5.5,0,0,0-.73.36.77.77,0,0,0-.55.09c-.12.09-.12.31-.27.36-.32.07-.35-.14-.64-.09s-.08.29-.36.18-.11.31-.46.18a3.58,3.58,0,0,0-.91.27,7.3,7.3,0,0,0-2,0c-.43.09-.3-.37-.73-.27a1.3,1.3,0,0,0-.73-.37c-.09-.24-.42-.25-.55-.46-.38,0-.38-.35-.73-.36a6.12,6.12,0,0,0-.73-1c-.29-.07-.46-.27-.82-.27-.11-.35-.4-.52-.55-.82s-.33-.58-.46-.91a12.13,12.13,0,0,1-.64-2.19V54.75c.39-4.81,1.84-8.57,3.19-12.41q1.1-2.78,2.28-5.47c.6-.71.77-1.85,1.37-2.55a18.55,18.55,0,0,1,1.28-2.65,37.85,37.85,0,0,1,2.74-5c.22-.42.54-.73.73-1.19s.52-.82.73-1.28c.53-.78,1-1.62,1.55-2.37a7.66,7.66,0,0,1,.73-1.19c.09-.24.36-.31.46-.55s.15-.52.46-.55a3.35,3.35,0,0,1,.73-1.19,11,11,0,0,1,.82-1.19c.37-.27.45-.83.82-1.09a10,10,0,0,1,.91-1.09,26.39,26.39,0,0,1,1.73-2.19,10.46,10.46,0,0,0-2.74.64,26.38,26.38,0,0,0-2.55.91c-.79.37-1.55.76-2.37,1.09a11.7,11.7,0,0,0-2.19,1.28c-.52,0-.66.43-1.1.55a6,6,0,0,0-1,.73,15.39,15.39,0,0,0-2,1.46c-.67.48-1.26,1.05-1.92,1.55-.21.06-.24.3-.46.36-.05.25-.47.14-.46.46-.46.12-.46.69-1,.73-.18.61-.72.86-1,1.37a5.07,5.07,0,0,1-.55.64c-.13.29-.26.59-.64.64.05.63-.44.71-.55,1.19a9.56,9.56,0,0,0-.64,1.19,13,13,0,0,0-.55,1.19,1.8,1.8,0,0,0-.27.64c-.29,0,0,.6-.37.55.19.53-.23,1.06-.27,1.64a12.34,12.34,0,0,1-.36,1.73c-.05,1,0,1.26,0,2.28.13.48.21,1,.36,1.46a19.62,19.62,0,0,0,1.64,2.65,12.31,12.31,0,0,0,.64,1.46,6.11,6.11,0,0,1,.73,1.46.46.46,0,0,1-.27-.27C102.59,42.36,102.56,42.41,102.57,42.52Z" style="fill:#fff;fill-rule:evenodd"/><path d="M133,35.22s.07-.12.09-.09S133.07,35.25,133,35.22Z" style="fill:#fff;fill-rule:evenodd"/><path d="M132.31,36.13s.07-.12.09-.09S132.34,36.16,132.31,36.13Z" style="fill:#fff;fill-rule:evenodd"/><path d="M50.29,71.9c-.3.07-.22.51-.36.73a1.85,1.85,0,0,0-.55.55c-.09-.06-.34-.21-.27.09s-.06,0-.18,0c-.07.17-.27.06-.09.27s-.21.14-.09.36c-.22.12-.49.17-.55.46-.21.13-.2.23-.36,0,0,.42-.45.4-.55.73-.25.18-.4.45-.64.64-.09,0-.11.07-.18.09s0-.22-.18-.18c.14.3-.51.26-.18.46-.16.32-.18-.3-.36,0s-.4.39-.73.46a.91.91,0,0,0-.27.55c-.27.13-.31-.07-.55.09,0,.29-.21.4-.55.36-.08.26-.31.36-.46.55a14,14,0,0,1-2,.55,9.48,9.48,0,0,1-2.1-.18c-.23-.17-.57-.22-.73-.46a7.79,7.79,0,0,1-4.65-2.28c-.4-.63-.77-1.3-1.19-1.92a23.22,23.22,0,0,1-.82-4.38v-.27a29.55,29.55,0,0,1,2.74-10.4c.25-.84.74-1.44,1-2.28a7.6,7.6,0,0,0,1.09-2.19c.59-.51.74-1.45,1.28-2a15.54,15.54,0,0,1,1.28-2,16,16,0,0,1,1.37-1.92c.25,0,.21-.34.36-.46s.36-.19.36-.46a1.73,1.73,0,0,0,.82-.82c.46-.08.46-.63.82-.82a9.6,9.6,0,0,0,.82-.82,11.19,11.19,0,0,0,1.73-1.55,2.07,2.07,0,0,0,.91-.73,2.6,2.6,0,0,0,1-.64c.75-.34,1.33-.86,2.1-1.19a10.77,10.77,0,0,1,5-1.55c.43.2.83.45,1.28.64.33.34.57.77.91,1.1s.54.86.82,1.28c.2.92.7,1.55.91,2.46a9.42,9.42,0,0,1,.18,2.92c0,.21-.16.27-.09.55-.24,1-.62,1.87-.91,2.83-.46.82-.92,1.64-1.37,2.46a22.29,22.29,0,0,1-1.55,2.28c-.48.8-1.12,1.43-1.64,2.19-.7.55-1.1,1.39-1.92,1.82-.18.46-.58.69-.91,1s-.65.63-1,.91a13.85,13.85,0,0,1-4.84,2.83,7.89,7.89,0,0,1-1.19,0c-.63-.14-1-.55-1.64-.64-.08-.35-.36-.49-.73-.55a3.94,3.94,0,0,0-1.09-1.09c-.4.48-.49,1.28-.82,1.82s-.44,1.32-.73,1.92a21.73,21.73,0,0,0-.91,4.47v1.73c.08.44.12.91.18,1.37a5.66,5.66,0,0,0,1.09,1.82,4.61,4.61,0,0,0,1.92-.55,7.61,7.61,0,0,0,1.55-1c.38,0,.36.12.64,0,1.3-.76,2.18-2,3.38-2.83,1-1.07,2-2.16,3-3.28.45-.58.89-1.18,1.37-1.73.24-.28.4-.64.73-.82a2.65,2.65,0,0,1,.73-.91c-.07-.31.37-.12.27-.46.2-.07.23-.32.36-.46.3-.22.35-.68.73-.82.13-.39.52-.52.64-.91s.48-.61.73-.91c.42-.61.92-1.15,1.37-1.73s.91-1.22,1.37-1.82a2.15,2.15,0,0,1,.55-1,2.15,2.15,0,0,1,.55-1c.27-.8.91-1.22,1.09-2.1.32-.2.33-.7.64-.91.13-.39.43-.6.55-1,.39-.67.84-1.28,1.19-2A7.32,7.32,0,0,0,63,47.26a22.24,22.24,0,0,0,1.28-1.92c1.4.21,2.06,1.16,2.92,1.92.16.78.52,1.37.64,2.19a24.62,24.62,0,0,0-1.19,2.28c-.52.63-.7,1.61-1.28,2.19C64.57,55.49,63.71,57,63,58.58A50.23,50.23,0,0,0,59,68.71c.23.26.39-.33.64-.36.15-.24.39-.4.55-.64.39-.4.62-1,1.09-1.28a10.21,10.21,0,0,1,1-1.37,12.24,12.24,0,0,1,1.09-1.28c.66-.92,1.33-1.83,2-2.74a31.89,31.89,0,0,1,1.92-2.92c.51-1.07,1.23-1.93,1.73-3,.67-.94,1.13-2.09,1.82-3s1.23-1.93,1.82-2.92a15.18,15.18,0,0,0,1-1.37c.53-.42.44-.9,1.09-1.19.34-.07.44.11.73.09.61.09.76.64,1.28.82.1.23.45.22.46.55.06.13.35,0,.36.18s.19.18.27.27a1,1,0,0,0,.36.64.82.82,0,0,0,.18.64c-.26.14-.1.69-.36.82,0,.47-.26.59-.18,1.1-.63,1.22-.91,2.8-1.55,4-.41,1.48-1.12,2.65-1.55,4.11a56.38,56.38,0,0,0-2.65,8.67c.22.21.37-.41.64-.46.06-.4.47-.44.55-.82a11.87,11.87,0,0,0,1.19-1.55c.9-.9,1.46-2.13,2.28-3.1A70.38,70.38,0,0,0,81.13,56a10.12,10.12,0,0,0,1-1.64,17.61,17.61,0,0,0,1-1.73A37.92,37.92,0,0,0,85,49.09a35.32,35.32,0,0,0,1.73-3.65c.52-1.3.86-2.79,1.37-4.11a5.92,5.92,0,0,1,.09-1.28A5.4,5.4,0,0,1,88,38c.3-.07.38-.35.64-.46s.22.33.55.27c.12.18.4.2.64.27.1.35.58.34.64.73a7.47,7.47,0,0,1,.82.64,1.32,1.32,0,0,0,.46.64c.2.68.22,1.55.36,2.28A11.2,11.2,0,0,0,92,44.25a30.15,30.15,0,0,1-1.19,4.84c-.27.73-.57,1.44-.82,2.19-.42.59-.52,1.49-1,2-.2.81-.68,1.33-.91,2.1-.47.53-.76,1.25-1.19,1.82A30.44,30.44,0,0,1,84.6,61,16.46,16.46,0,0,0,83.5,63c-.45.55-.85,1.16-1.28,1.73-.9,1.14-1.71,2.37-2.65,3.47s-1.77,2.24-2.83,3.19a14.42,14.42,0,0,1-3.38,2.74,5.74,5.74,0,0,1-2.28.27c-.39-.1-.68-.29-1.1-.36a6.93,6.93,0,0,0-1.55-2.28c-.12-.36,0-.47-.09-.73s-.48-.43-.36-1c-.29-.2-.15-.82-.46-1,.19-1.31-.08-2.36.09-3.83-.24-.23-.31.23-.55.27,0,.35-.37.36-.46.64a5.21,5.21,0,0,0-.91,1.19,8.49,8.49,0,0,0-1,1.09c-.26.44-.7.7-.91,1.19-1.46,1.37-2.68,3-4.65,3.83H57.68c-.62.05-.64.7-1.28.73-.47-.23-1-.42-1.09-1a5.62,5.62,0,0,1-.91-1.19c-.06-.42-.21-.76-.27-1.19a1.52,1.52,0,0,0-.27-1c.06-.82-.23-1.67-.09-2.28-.43.18-.46.76-.91.91,0,.29.16.32.09.64-.44.09-.34,1-.91.64.18.17,0,.33,0,.55-.14,0-.08-.22-.09-.36-.49.18,0,.42-.18.73a.6.6,0,0,0-.46.36c0,.4-.39-.1-.46.27-.13,0-.1.2-.18.27v.27c0,.05-.07.1-.09,0s-.07-.1-.09,0S50.33,71.82,50.29,71.9Zm3.83-26.73c0,.12-.16.08-.18.18a15.18,15.18,0,0,0-2.1,1.37,15.58,15.58,0,0,1-1.92,1.55c0,.27-.21.34-.36.46a3.09,3.09,0,0,0-.46.46,9.83,9.83,0,0,0-.91.82,8.21,8.21,0,0,0-1.73,1.73c-.23,0-.33.22-.46.36.06.37-.38.22-.37.55a4.51,4.51,0,0,0-.82.91,22.06,22.06,0,0,1-1.55,1.92c-.83,1.48-1.76,2.87-2.55,4.38a4.65,4.65,0,0,0,1.28.09,16.92,16.92,0,0,0,4-2.74C47.07,56,48.4,55,49.38,53.74s2-2.47,2.92-3.83,1.91-2.65,2.1-4.74h-.27Z" style="fill:#fff;fill-rule:evenodd"/><path d="M129.39,39.69c.16.07,0,.17,0,.27C129.23,39.9,129.38,39.8,129.39,39.69Z" style="fill:#fff;fill-rule:evenodd"/><path d="M129.12,40.24s.07-.12.09-.09S129.15,40.26,129.12,40.24Z" style="fill:#fff;fill-rule:evenodd"/><path d="M102.57,42.52c.06,0,.11,0,.09.09S102.55,42.6,102.57,42.52Z" style="fill:#fff;fill-rule:evenodd"/><path d="M102.66,42.61c.11,0,.06.13,0,0Z" style="fill:#fff;fill-rule:evenodd"/><path d="M126.84,43.25c0-.1.09-.05.09,0S126.84,43.3,126.84,43.25Z" style="fill:#fff;fill-rule:evenodd"/><path d="M162.42,46.26c-.05,0-.1-.07,0-.09Z" style="fill:#fff;fill-rule:evenodd"/><path d="M159.5,52.74c-.11,0-.06-.13,0,0Z" style="fill:#fff;fill-rule:evenodd"/><path d="M118.54,53.38s.07-.12.09-.09S118.56,53.4,118.54,53.38Z" style="fill:#fff;fill-rule:evenodd"/><path d="M118,54.11a.25.25,0,0,1-.27.18A.25.25,0,0,1,118,54.11Z" style="fill:#fff;fill-rule:evenodd"/><path d="M116.8,55.38c0-.09.11-.07.18-.09S116.87,55.36,116.8,55.38Z" style="fill:#fff;fill-rule:evenodd"/><path d="M156.58,56.94s.07-.12.09-.09S156.61,57,156.58,56.94Z" style="fill:#fff;fill-rule:evenodd"/><path d="M156.58,57.12c-.11,0-.06-.13,0,0Z" style="fill:#fff;fill-rule:evenodd"/><path d="M187.33,58.4c0-.11.13-.06,0,0Z" style="fill:#fff;fill-rule:evenodd"/><path d="M187.33,58.4c0,.11-.13.06,0,0Z" style="fill:#fff;fill-rule:evenodd"/><path d="M187.06,58.67c0-.09.11-.07.18-.09S187.13,58.65,187.06,58.67Z" style="fill:#fff;fill-rule:evenodd"/><path d="M113.52,63.6s.07-.12.09-.09S113.54,63.62,113.52,63.6Z" style="fill:#fff;fill-rule:evenodd"/><path d="M53.48,68c0-.27.38.09,0,0Z" style="fill:#fff;fill-rule:evenodd"/><path d="M53.48,68c.09.38-.27,0,0,0Z" style="fill:#fff;fill-rule:evenodd"/><path d="M107.86,69.07c0-.09.11-.07.18-.09S107.93,69.05,107.86,69.07Z" style="fill:#fff;fill-rule:evenodd"/><path d="M106,69.25s.07-.12.09-.09S106.06,69.28,106,69.25Z" style="fill:#fff;fill-rule:evenodd"/><path d="M106.22,69.25s.07-.12.09-.09S106.24,69.28,106.22,69.25Z" style="fill:#fff;fill-rule:evenodd"/><path d="M106.77,69.34s.07-.12.09-.09S106.79,69.37,106.77,69.34Z" style="fill:#fff;fill-rule:evenodd"/><path d="M108,69.44c-.2.28-.58-.11,0,0Z" style="fill:#fff;fill-rule:evenodd"/><path d="M111.42,71c.06-.27.2.09.36,0C111.77,71.21,111.48,71,111.42,71Z" style="fill:#fff;fill-rule:evenodd"/><path d="M114.43,71.08s.07-.12.09-.09S114.46,71.1,114.43,71.08Z" style="fill:#fff;fill-rule:evenodd"/><path d="M51,71.26c0-.1.09-.05.09,0S51,71.31,51,71.26Z" style="fill:#fff;fill-rule:evenodd"/><path d="M50.29,71.9c.43-.1-.1.43,0,0Z" style="fill:#fff;fill-rule:evenodd"/><path d="M46.46,75.82c0,.11-.13.06,0,0Z" style="fill:#fff;fill-rule:evenodd"/><path d="M245.45,78s.07-.12.09-.09S245.48,78,245.45,78Z" style="fill:#fff;fill-rule:evenodd"/><path d="M24.29,79.38s.07-.12.09-.09S24.31,79.41,24.29,79.38Z" style="fill:#fff;fill-rule:evenodd"/><path d="M242.44,80.38s.07-.12.09-.09S242.47,80.41,242.44,80.38Z" style="fill:#fff;fill-rule:evenodd"/><path d="M240.62,81.39s.07-.12.09-.09S240.64,81.41,240.62,81.39Z" style="fill:#fff;fill-rule:evenodd"/><path d="M240,81.84a.25.25,0,0,1,.27-.18A.25.25,0,0,1,240,81.84Z" style="fill:#fff;fill-rule:evenodd"/><path d="M240,81.84a.25.25,0,0,1-.27.18A.25.25,0,0,1,240,81.84Z" style="fill:#fff;fill-rule:evenodd"/><path d="M239.43,82.12a.25.25,0,0,1-.27.18A.25.25,0,0,1,239.43,82.12Z" style="fill:#fff;fill-rule:evenodd"/><path d="M238.88,82.39c0-.1.09-.05.09,0S238.88,82.44,238.88,82.39Z" style="fill:#fff;fill-rule:evenodd"/><path d="M238.52,82.67s.07-.12.09-.09S238.54,82.69,238.52,82.67Z" style="fill:#fff;fill-rule:evenodd"/><path d="M238,82.85c0-.14.1,0,.09.09C237.9,83,237.87,82.85,238,82.85Z" style="fill:#fff;fill-rule:evenodd"/><path d="M231.22,85.4h.18v.18h-.18Z" style="fill:#fff;fill-rule:evenodd"/><path d="M229.48,85.86c0-.09.11-.07.18-.09S229.55,85.84,229.48,85.86Z" style="fill:#fff;fill-rule:evenodd"/><path d="M227.29,85.86c0,.11-.13.06,0,0Z" style="fill:#fff;fill-rule:evenodd"/><path d="M222.73,85.95c0,.11-.13.06,0,0Z" style="fill:#fff;fill-rule:evenodd"/><path d="M222.91,85.95h.18A.09.09,0,0,1,222.91,85.95Z" style="fill:#fff;fill-rule:evenodd"/><path d="M223.55,86.13s.07-.12.09-.09S223.58,86.16,223.55,86.13Z" style="fill:#fff;fill-rule:evenodd"/><path d="M224.19,86c.11,0,.06.13,0,0Z" style="fill:#fff;fill-rule:evenodd"/></g></g></svg>