<svg xmlns="http://www.w3.org/2000/svg" viewBox="0 0 214.41 148.26"><defs><style>.cls-1{fill:#fff;fill-rule:evenodd;}</style></defs><title>Asset 18</title><g id="Layer_2" data-name="Layer 2"><g id="Layer_1-2" data-name="Layer 1"><path class="cls-1" d="M57.75,62.39c-.5-1.37-.41-3.32-1.12-4.48a14.6,14.6,0,0,0,.31,3c-.33-.62-.44-1.46-.71-2.14,0-.47-.4-.55-.31-1.12-.33-.15-.33-.62-.41-1-.32-.15-.11-.84-.41-1-.06-.42-.29-.66-.31-1.12-.3-.65-.44-1.46-.71-2.14A44,44,0,0,0,50.93,44c-.51-.81-1.21-1.58-1.63-2.34a12.7,12.7,0,0,0-.92-1,2.21,2.21,0,0,0-1-1c-.35.23-.16,1-.41,1.32,1.14,2.67,2.1,5.47,3.06,8.35.24.72.52,1.42.71,2.14.63,2.38.69,4.79,1.32,7.33a97,97,0,0,1,1.43,10,42.79,42.79,0,0,1,1,10.29c0,.48.15-.11.41,0,.13.44-.49.13-.41.51a44.9,44.9,0,0,1-1,6.93,41.83,41.83,0,0,1-1.63,6.42,51.52,51.52,0,0,1-2.24,5.81,26.87,26.87,0,0,1-2.85,5.19,28.69,28.69,0,0,1-3.46,4.48,28.35,28.35,0,0,1-4.58,3.46A20.31,20.31,0,0,1,26,115c-1.55-.22-3-.5-4.58-.71a27.19,27.19,0,0,1-7-4c-1.53.89-3.1,1.72-4.69,2.55,0-.45-.26.09-.51,0a9.75,9.75,0,0,0-1.32.71,8.16,8.16,0,0,1-1.43.61c.51-.68,1.72-.66,2-1.53a2.55,2.55,0,0,0-1.73.61c-.63.15-1,.55-1.63.71a8.33,8.33,0,0,1-3.67.92c.26-.46,1.09-.33,1.43-.71a5.45,5.45,0,0,0,1.53-.61,26,26,0,0,0,2.75-1.63,31.79,31.79,0,0,0,4.58-4.18,46.07,46.07,0,0,1-5-8.66,41.11,41.11,0,0,1-1.63-5.19c-.48-1.83-.9-3.71-1.43-5.5a28.22,28.22,0,0,1-.1-4.48,46.52,46.52,0,0,1-.1-9.27c.09-3.48,1-6.09,1.73-9a38.81,38.81,0,0,1,1.32-4C7,60.35,7.57,59.13,8,57.81c1-2.57,2.1-5,3.26-7.44a59,59,0,0,1,4-6.72,30.43,30.43,0,0,1,5-5.7,26.15,26.15,0,0,1,6.31-4.38,23.88,23.88,0,0,1,8.25-2.44c1,.06,1.79-.18,2.85-.1a6.14,6.14,0,0,0-1-2c0-.51-.3-.72-.41-1.12S36,27,35.85,26.64A11.53,11.53,0,0,1,35,24.4c-.32-.73-.4-1.7-.71-2.44a51.9,51.9,0,0,1-1-5.19,28.52,28.52,0,0,1-.51-5.3A41,41,0,0,1,35.65,2c.28-.13.29-.52.51-.71A5.62,5.62,0,0,1,37.69.16a3.25,3.25,0,0,1,1.53-.1,3.84,3.84,0,0,1,1.83,1,13.18,13.18,0,0,1,3.26,1.63,12.57,12.57,0,0,1,3.06,5.7A33.29,33.29,0,0,1,48.48,16c-.12,1.59.15,3.27-.1,4.89v2.85c-.33,3.26-.27,5.93-.31,9.06,0,.5-.18.77-.1,1.32.44.88,1.55,1.1,2,1.93.53.15.67.69,1.12.92a6.8,6.8,0,0,0,1,1,29.72,29.72,0,0,1,3.36,4.79,31.1,31.1,0,0,1,3.56,12.43c0,1.77,0,3.74,0,5.4,0,.26-.17.51-.2.81s0,.75,0,1.12c-.38,0,0-.4-.2-.41,0-.24-.16-.38-.1-.71a2.09,2.09,0,0,1-.31-1.32A9,9,0,0,1,58,58.73c-.28-.26-.05-1-.51-1.12C57.2,59.13,57.64,60.69,57.75,62.39ZM43.9,27a25.58,25.58,0,0,0,.92-4.28,31.08,31.08,0,0,0,.61-4.58c.15-1.56.09-3.18.1-5-.14-.74-.21-1.56-.31-2.34-.45-.88-.61-2-1.12-2.85a24.29,24.29,0,0,0-1.32-2.75c-.74-.55-1-1.57-2-1.83,0-.06,0-.12-.1-.1a.51.51,0,0,0-.31.31,29.68,29.68,0,0,1-1.53,5.09,24.66,24.66,0,0,0-.31,5.81,42.66,42.66,0,0,0,.92,6.11A27.06,27.06,0,0,0,40,23.39a11.7,11.7,0,0,0,.81,2.75,11.71,11.71,0,0,0,.92,2.55,4.44,4.44,0,0,0,.51,1.22c0,.32.27.34.2.71.28,0,0,.57.41.51A16.6,16.6,0,0,0,43.9,27Zm-7.84,6.72c-.13,0-.14.13-.31.1a23.48,23.48,0,0,0-5.5.92,13.19,13.19,0,0,0-4.38,2,17,17,0,0,0-3.67,2.75c-1,.66-1.65,1.61-2.55,2.34a.92.92,0,0,1-.41.41c-.15.12-.12.42-.41.41-1.3,2-2.9,3.62-4,5.81a16.48,16.48,0,0,0-1.63,3.26,14.37,14.37,0,0,0-1.43,3.46A5.39,5.39,0,0,0,11.2,57a13.06,13.06,0,0,0-.61,1.83c-.43,1.2-.78,2.48-1.12,3.77C8.78,65.2,8.31,68,7.84,70.85a22.83,22.83,0,0,1-.31,3.77c0,1.58-.05,3.29,0,4.58-.05,1.11-.14,2.8-.1,4.18a7.14,7.14,0,0,0,.1,2c-.19.65.21,1.46,0,1.83a26.62,26.62,0,0,1,.2,4.68,30.69,30.69,0,0,0,1.83,7.84c1.09,2.17,2,4.53,3.56,6.21.91-1,1.78-2.09,2.65-3.16.42-.53.85-1.06,1.22-1.63a9.48,9.48,0,0,0,1.22-1.73c.91-1,1.53-2.34,2.34-3.46.27-.71.79-1.18,1-1.94.27-.2.32-.63.51-.92s.37-.65.61-.92a28.4,28.4,0,0,0,2-3.77c.5-.45.57-1.33,1-1.83.29-.83.61-1.15.81-1.94a14.27,14.27,0,0,0,.92-1.94,17.11,17.11,0,0,0,.81-2.14A28.2,28.2,0,0,0,30,76.45c.63-1.3,1.1-2.77,1.63-4.18.3-.65.46-1.44.81-2,.22-.76.44-1.53.71-2.24.51-1.43.86-3,1.43-4.38a6.8,6.8,0,0,1,.31-1.12c0-.19.29-.18.2-.51s.35-.27.1-.51c.25-.74.47-1.5.71-2.24s.42-1.48.61-2.24c.3-.17.29-.66.31-1.12a4.72,4.72,0,0,0,.41-1.12c.48-1.45.74-3.14,1.32-4.48.32-1.61.84-3,1.22-4.58s.76-3.18,1.32-4.58a14.56,14.56,0,0,1,.2-2.24c-.66-1.69-1.5-3.19-2.24-4.79A11.94,11.94,0,0,0,36.06,33.67Zm9,14.77a34.22,34.22,0,0,0-1.32,4.28c-.42,1.45-.82,2.92-1.22,4.38a44.56,44.56,0,0,1-1.32,4.28c0,.92-.48,1.35-.51,2.24a19,19,0,0,1-.71,2.14c-.35,1.52-.88,2.86-1.22,4.38-.39.53-.42,1.42-.81,1.94.07.31-.18.3-.1.61-.12.12-.29.18-.2.51-.17.3-.24.71-.41,1-.48,1.39-1,2.73-1.53,4.07-.3.14-.28.6-.41.92-.29.18-.23.72-.51.92a7.51,7.51,0,0,1-.92,1.94c-.46,1.41-1.19,2.54-1.73,3.87s-1.23,2.51-1.94,3.67c-1.38,2.36-2.84,4.62-4.28,6.93a12.39,12.39,0,0,1-1.12,1.63c-.33.62-.82,1.09-1.12,1.73a12.37,12.37,0,0,0-1.22,1.53c-.15.33-.56.39-.61.81-.26.21-.35.6-.71.71a4.22,4.22,0,0,1-.51.81,3,3,0,0,1-.71.71,13,13,0,0,1-1.22,1.63c-.44.47-.91.93-1.32,1.43s-1,.88-1.32,1.53a21.36,21.36,0,0,0,3.77,2.44,23.45,23.45,0,0,0,6.31,1,16.8,16.8,0,0,0,10.8-3.57,21.9,21.9,0,0,0,6.62-7.74c.59-1.22,1.14-2.49,1.63-3.67.08-.2.22-.42.31-.61s.11-.48.2-.71c.16-.41.35-.8.51-1.22.09-.23.13-.48.2-.71,0,0,.19-.15.2-.2s-.05-.36,0-.51.24-.41.31-.61.13-.46.2-.71A64.64,64.64,0,0,0,49.7,78.69a81.57,81.57,0,0,0-.2-8.25,72.6,72.6,0,0,0-1-7.84c-1.11-4.88-1.68-10.2-3.26-14.36,0-.06,0-.12-.1-.1S45,48.28,45,48.44Z"/><path class="cls-1" d="M113.06,17.38a12.7,12.7,0,0,1-.1,1.73c-.23.86-.55,1.63-.81,2.44s-.63,1.54-.81,2.44a37.64,37.64,0,0,0-1.43,5.09c-.2,2-.77,3.58-.92,5.6-.43,1.84-.46,3.63-.81,5.4,0,1.31-.14,2.33-.1,3.87a26.35,26.35,0,0,1,1.83,3.67,21.13,21.13,0,0,1,.81,4.58c-.12,2.86-.09,6.86-.1,9.47V63c-.51,0-.25.49-.61.61A47.47,47.47,0,0,1,108.88,57c-.51-2-.67-4.42-1.32-6.31-.46.32-.33,1.23-.61,1.73a3.83,3.83,0,0,1-.2,1.83,11.88,11.88,0,0,1-.31,3.16,30.73,30.73,0,0,1-.2,4.48c0,.08-.11.1-.1.2,0,.83-.08,2.23-.1,3.26-.06,2.92.17,5.4,0,7.84a62,62,0,0,0,1.32,11.92,7.63,7.63,0,0,1,.41,1.12c.34.17.08.94.51,1,.19.8.63,1.34.81,2.14.16.38.48.6.61,1s.5.52.51,1c.4,0,.42.47.61.71a5.87,5.87,0,0,0,4.48.1c0,.39-.56.32-.81.51-.06.18-.48,0-.51.2s0,.38-.31.31a10.77,10.77,0,0,1-2.24.1c-1.32-.28-2.21-1-3.46-1.32,0-.27-.21-.26-.41-.31A14,14,0,0,1,105,88.26a6.4,6.4,0,0,1-1-2c-.49-.49-.49-1.48-1-1.94-.1-1-.44-1.73-.61-2.65a23.69,23.69,0,0,0-.51-2.65c.17-.3-.23-.75-.2-1.22a5.59,5.59,0,0,0-.2-1.32A18.44,18.44,0,0,0,101,73.7c-.39,1-1.11,1.74-1.53,2.75a17.91,17.91,0,0,0-1.83,2.44q-.74.63-1.53,1.22c-.56.15-1.14.28-1.73.41a11.82,11.82,0,0,1-2.55-.31,7.79,7.79,0,0,1-2.34-1.83,21.81,21.81,0,0,1-3.06-9.68c-.13-6,.16-11.52,1.73-15.79a22.92,22.92,0,0,1,2.44-6.31,8.24,8.24,0,0,1,1.83-2.55c.18-.57.75-.74,1-1.22s.85-.58,1-1.12c1.1.08,1.38-.66,2.24-.81a15.54,15.54,0,0,0,2.14-.81c.59,0,1-.19,1.53-.2,1,.19,2.28.16,3.26.41.55-2,.71-4.38,1.22-6.42s1.07-4,1.53-6.11c1.28-3.78,2.29-7.82,4.79-10.39a.72.72,0,0,1,.31-.2c.26.18.49-.11.61.31C112.53,17.53,112.64,17.3,113.06,17.38ZM100.22,43.86a.72.72,0,0,0-.31.2c-.56.15-1.11.32-1.63.51.08.45-.55.2-.51.61-.27.11-.34.4-.61.51,0,.33-.3.45-.41.71-.33.08-.16.66-.51.71-.5,1-1.16,1.89-1.63,3a39.66,39.66,0,0,0-2.24,7,59.61,59.61,0,0,0-1,17c.31.67.5,1.47.81,2.14a3.08,3.08,0,0,0,1.32,1.63c2.22.17,3.38-1.56,4.69-2.65a25.17,25.17,0,0,0,1.53-2.34c.33-.32.37-.92.71-1.22.17-.47.52-.77.61-1.32.18-2.3.1-4.64.1-6.93s.3-4.43.41-6.52c.28-2.09.24-4.52.71-6.42.17-2.18.67-3.75.71-6.21C102.42,43.75,100.93,43.92,100.22,43.86Z"/><path class="cls-1" d="M180.58,36.12c.09,0,.1,0,.1.1a1.11,1.11,0,0,1,.92.61c.19.32.75.27.81.71a18.34,18.34,0,0,1-.41,4.28,1.62,1.62,0,0,1-.1.92c-.06.34.13.95-.1,1.12a18.85,18.85,0,0,1-.1,2.24,71.78,71.78,0,0,0,.71,9c.28,1.42.45,2.83.61,4.28s.18,2.72.31,4.07c.07.73.11,1.49.2,2.24s.31,1.34.41,2c.07.53,0,1.07.1,1.73,0,.07,0,.25,0,.31s.18,0,.2.1a8.3,8.3,0,0,0,.31,2c1.28-.15,2.26-.59,3.57-.71a27.06,27.06,0,0,1,3.67-.61h2.34a15.4,15.4,0,0,1,3.67,1c.59.19,1,.52,1.63.71a6.41,6.41,0,0,0,1.43.81c.09.32.39.42.71.51a1.1,1.1,0,0,0,.61.51,5,5,0,0,0,1.22,1A14.38,14.38,0,0,0,206.15,77a25.53,25.53,0,0,1,3.67,5.4,32.38,32.38,0,0,1,2.65,6.31A40.71,40.71,0,0,1,214.2,96a34.09,34.09,0,0,1-.1,8.45,46.74,46.74,0,0,1-3.87,14.16,38.58,38.58,0,0,1-7.23,10.8,40.66,40.66,0,0,1-9.07,5.91,28,28,0,0,1-5.7,1.73,33.48,33.48,0,0,1-6.82.41,19.59,19.59,0,0,1-4.79-1.12c-.57.18-.65.84-1,1.22a11.88,11.88,0,0,1-.92,1.22c-.51.91-1.33,1.52-1.83,2.44-.49.26-.64.85-1.12,1.12,0,.38-.38.36-.51.61s-.43.25-.41.61c-.75.68-1.51,1.34-2.24,2a13.62,13.62,0,0,1-8.66,2.65,15.25,15.25,0,0,1-3.26-1.12,24.59,24.59,0,0,1-2.75-2.55c-.82-1.43-1.43-3.05-2.14-4.58-.22-2.12-.93-4.38-.71-6.31-.18-.86-.23-2-.31-2.65.27-.92,0-1.79.31-2.75v-3.16c.15-1.46.57-2.4.71-3.67s.53-2.53.71-3.87c.35-1.17.59-2.47.92-3.67.22-.57.41-1.15.61-1.73a2.68,2.68,0,0,1,.31-.81c.07-.3,0-.72.31-.81.36-1.17.9-2.15,1.32-3.26.33-.45.4-1.16.71-1.63a14.94,14.94,0,0,0,.61-1.63c1.09-1.94,1.87-4.18,3-6.11a6.63,6.63,0,0,0,.71-1.63,6.32,6.32,0,0,0,.81-1.43c.54-1,1.2-1.86,1.73-2.85,1.25-1.8,2.43-3.68,3.77-5.4.69-.84,1.27-1.78,1.94-2.65.29-.48.68-.88,1-1.32a10.24,10.24,0,0,0,.92-1.32,31.06,31.06,0,0,0,2.14-2.44,26.83,26.83,0,0,0,2.34-2.14,11.47,11.47,0,0,0,2.55-1.32,14,14,0,0,0,2.34-1.53c-.28-3.94-.64-7.18-.92-11.1-.13-2.06-.32-3.42-.51-5.4a24.36,24.36,0,0,0-.41-2.65,9.62,9.62,0,0,0-.41-2.34c-.44,0-.24.71-.51.92-.08.4-.21.74-.31,1.12-.32.6-.34,1.5-.71,2-.3,1.53-1,2.71-1.32,4.18a23.53,23.53,0,0,1-1.83,3.77c-.19.72-.71,1.13-.92,1.83a5.08,5.08,0,0,0-1.12,1.63A6,6,0,0,0,170.4,69a2.51,2.51,0,0,0-.81.61c-.26.22-.74.21-.92.51a13.42,13.42,0,0,1-1.73,1,9.91,9.91,0,0,1-3.06-.31,5.33,5.33,0,0,1-1.63-1.63,3.09,3.09,0,0,1-.71-.92c-.15-.12-.12-.42-.41-.41,0-.32-.13-.42-.31-.51a6.48,6.48,0,0,0-.51,2.24c-.38.85-.62,1.83-.92,2.75s-.77,1.68-1,2.65c-.38.23-.39.84-.71,1.12-.17.44-.43.79-.61,1.22-.31,0-.1.51-.41.51-.09.22-.31.3-.31.61-.43.15-.37.78-.81.92-.12.49-.58.64-.81,1a3.36,3.36,0,0,1-.81,1c-.52.67-1.21,1.16-1.73,1.83a44.22,44.22,0,0,1-4.28,3,16.7,16.7,0,0,1-2.24.2,15.21,15.21,0,0,0-2-.41c-.66-.59-1.51-1-1.94-1.83a8.61,8.61,0,0,1-1.43-2.34c-.17-1.09-.77-1.74-.81-3a12.23,12.23,0,0,1-.71-3,34.83,34.83,0,0,1-.41-6.72,26.47,26.47,0,0,1,.51-6.52,37.93,37.93,0,0,1,2.85-11.92,24.42,24.42,0,0,1,2.55-5,14,14,0,0,1,1.83-1.94,3.47,3.47,0,0,1,1-.81,1.87,1.87,0,0,1,1.12-.71c.09.3.15-.24.41-.1,0,.22.26.22.51.2s.5-.17.92.1a1.92,1.92,0,0,1,.81,1c.35.27.39.84.71,1.12.18,1,.71,1.66.71,2.85a18.56,18.56,0,0,1,.61,6.11,28.17,28.17,0,0,1-.61,3.87c-.23,1.33-.63,2.49-.81,3.87-.41.37-.22,1.34-.71,1.63a4.1,4.1,0,0,1-.61,1.73c-.36,1.2-1.1,2-1.53,3.16a19.57,19.57,0,0,0-1.53,1.94,5.87,5.87,0,0,1-.81.92c-.15.39-.59.5-.71.92a1.6,1.6,0,0,0-1,.71c-.52,0-.5.45-1,.41a2.59,2.59,0,0,1-.81.31,22.81,22.81,0,0,0,.71,5A12.61,12.61,0,0,0,145,82.36,7.21,7.21,0,0,0,147.18,84c.54,0,.91-.24,1.43-.31.28-.29.91-.25,1-.71.6,0,.74-.41,1.12-.61a2.62,2.62,0,0,0,.92-.71A11.68,11.68,0,0,0,154.82,78a83.1,83.1,0,0,0,3.87-9.68V66.06c.18-2.37.78-4.32,1-6.62A40.29,40.29,0,0,1,161,53.33c0-3.23,1-5.49,1.43-8.35.39-.43.56-1.07.92-1.53s.79-.84,1.12-1.32c.58.25,1.18-.11,1.94,0,.56.32,1.3.47,1.53,1.12,0,.23,0,.38.2.41.07.58-.23.79-.31,1.22s-.15.86-.31,1.22a22.32,22.32,0,0,0-.51,2.44c-.3,1.7-.57,3.44-.92,5.09-.5,3.51-1.86,6.15-2.14,9.88a9,9,0,0,0,1.73,5.81,18.22,18.22,0,0,0,4.89-6.62,9.58,9.58,0,0,0,1-1.83c.25-.7.52-1.38.81-2,.52-1.38,1-2.83,1.53-4.18.33-1.57.91-2.89,1.32-4.38s.9-2.9,1.32-4.38c1-2.78,1.78-5.83,2.75-8.66.23-.07.3-.31.41-.51.38.11.33-.21.51-.31A.51.51,0,0,1,180.58,36.12Zm-31.78,9.17c-.52.29-.78.85-1.22,1.22a12.79,12.79,0,0,1-.92,2.24,7.88,7.88,0,0,1-1,2.24c-.09.72-.34,1.5-.51,2.24a14.65,14.65,0,0,0-.41,2.24c-.25,1.61-.56,3.17-.81,4.79-.13.9-.22,1.26-.31,2.24a23.46,23.46,0,0,0-.2,2.44c-.22.38-.1.5-.2.92,0,.44-.28.87-.1,1.12-.2.27,0,.95-.31,1.12,0,.46-.13,1.08.31,1.12.25.52.54-.23.81-.31.2-.31.54-.48.61-.92.28-.23.38-.64.71-.81a3.59,3.59,0,0,1,.61-1,19.2,19.2,0,0,1,1-2,20,20,0,0,0,.81-2.34,7,7,0,0,0,.71-2.34,9.93,9.93,0,0,0,.61-2.55c.57-1.53.6-3.61,1-5.3a26.57,26.57,0,0,0-.1-3.26,14.54,14.54,0,0,0-.2-1.73c0-.6,0-1.27-.41-1.53h-.2C149,45.1,148.94,45.25,148.81,45.28Zm35.85,90.24a20,20,0,0,0,6.62-1.94,32.72,32.72,0,0,0,9.47-7.54,17.68,17.68,0,0,0,1.73-2.44,7,7,0,0,0,.81-1.32c.25-.47.66-.77.81-1.32.44-.28.44-1,.81-1.32a7.05,7.05,0,0,1,.71-1.43,6.13,6.13,0,0,1,.61-1.53c.26-.45.37-1.06.61-1.53,0-.37.19-.49.2-.81.25-.12.1-.64.41-.71a6.65,6.65,0,0,1,.41-1.73,4,4,0,0,0,.41-1.73c.24-.47.23-1.19.51-1.63.29-2.12.71-4.91.92-7.44a55.07,55.07,0,0,0-.51-8.76c-.37-1.19-.54-2.59-.81-3.87s-.74-2.39-1.22-3.46A27.22,27.22,0,0,0,199,74.41,17.08,17.08,0,0,0,191.89,72h-1.63c-1,.2-2,.33-3,.61a7.65,7.65,0,0,0-1.32.51c-.37-.07-.39.22-.71.2-.07.23-.58,0-.51.41.57,3.86.92,8.1,1.12,12.32a130.16,130.16,0,0,1-1,21.29c-.22,1.28-.29,2.69-.51,4a3.6,3.6,0,0,0-.1,1c-.41,0-.11.63-.2.92-.08.67-.23,1.27-.31,1.94-.54,2.48-1.1,4.94-1.63,7.44-.39,1.1-.55,2.44-1,3.46-.08.66-.43,1.06-.51,1.73-.3.44-.35,1.14-.71,1.53a25.27,25.27,0,0,1-1.32,3.16,8.36,8.36,0,0,1-.81,1.43c-.08.58-.76,1-.61,1.53A19.76,19.76,0,0,0,184.66,135.52Zm-18-9h.1c0,.08.1.1.1.2.2.55.63.87.81,1.43a8.64,8.64,0,0,1,1.63,2,17.42,17.42,0,0,1,1.63,2,1.22,1.22,0,0,1,.71.51c.33,0,.36.39.71.41a2.75,2.75,0,0,0,1.53.81,53.71,53.71,0,0,0,4.48-12.32c.38-2.47,1-4.68,1.32-7.23.46-2.36.71-4.92,1-7.44.51-4.87.76-10,.81-15.38a28.39,28.39,0,0,0-.2-3.67,25.8,25.8,0,0,0-.2-4.07c0-1.42-.11-2.74-.2-4.07.07-.71-.27-1.34,0-1.93a4.45,4.45,0,0,1-.2-1.83c-.7.18-1.12.74-1.73,1.12-.41.54-1.05.85-1.43,1.43-.57.38-.84,1.06-1.43,1.43-.28.67-1,.93-1.22,1.63a10,10,0,0,0-1.22,1.63A7,7,0,0,0,172.54,85a35.12,35.12,0,0,0-2.34,3.36c-3,4.57-5.61,9.6-8.25,14.57-2.17,5.44-5.09,10.12-6.42,16.4-.88,2.92-1.27,6.33-1.94,9.47-.11,1.79-.41,3.39-.51,5.19.15,1.75.23,3.57.41,5.3.33.77.41,1.5.71,2.34a11,11,0,0,0,1.83,3.06,8.22,8.22,0,0,0,3.36,1.53,12.59,12.59,0,0,0,8.25-3.06,41.27,41.27,0,0,0,5.6-8,11.89,11.89,0,0,1-2.34-1.63c-.22-.09-.18-.43-.51-.41-.59-1.14-1.4-2.07-1.94-3.26-.53-.32-.53-1.17-1-1.53C167.3,127.59,166.72,127.32,166.63,126.56Z"/><path class="cls-1" d="M82,85.41c.31.51,1.29.34,1.73.71.65.1.89.6,1.63.61.33.42,1,.5,1.43.81a12.84,12.84,0,0,1,2.44,1.93,3.81,3.81,0,0,1,1.12,1.12,4.5,4.5,0,0,1,1,1.22,8,8,0,0,1,1.73,2.65,37.79,37.79,0,0,1,2.65,6.21A37.06,37.06,0,0,1,97.17,108a40.28,40.28,0,0,1-.1,4.38c-.06.68-.09,1.4-.2,2-.29.28-.17,1.06-.2,1.83-.06.53-.09-.26-.41-.1a11.41,11.41,0,0,1-.31,2.34,6.28,6.28,0,0,1-.1,1.32c-.23,0,0,.43-.1.61s-.35.12-.2.51c-.37.1-.14-.4-.2-.61v-.71c.23-.27,0-1,.1-1.43.17-.81.06-1.91.2-2.75-.05-1.92.11-4.05-.1-5.81a13.16,13.16,0,0,0-.2-2.55,10.36,10.36,0,0,0-.41-2.55,30.39,30.39,0,0,0-1.22-4.69,13.41,13.41,0,0,1-.92-2.14,11.64,11.64,0,0,1-.92-2c-.31-.2-.32-.69-.61-.92-.13-.35-.36-.59-.51-.92-.41-.58-.79-1.18-1.22-1.73A13.43,13.43,0,0,0,86,89c-.35-.22-.79-.34-1.22-.61a6.36,6.36,0,0,0-2.65-.61c-.35.17-.06.34-.2.71v1.12a18.71,18.71,0,0,0-.1,2.14c-.22,1.28-.18,2.8-.41,4.07-.2,2.79-.67,5.31-1,7.94-.54,5.44-1.5,10.45-2.24,15.69a54,54,0,0,1-4.58,13.34,32.1,32.1,0,0,1-3.36,5.6,10.12,10.12,0,0,1-1,1.22,12.36,12.36,0,0,1-1,1.22A25.53,25.53,0,0,1,65.9,143c-.7.21-1.24.6-1.94.81a9.54,9.54,0,0,1-2.85.2c-.53-.21-.79-.7-1.32-.92-.1-.27-.41-.34-.61-.51s-.21-.47-.51-.51c-.66-.8-1.45-1.47-2-2.34-1.24-1.68-1.81-4-2.65-6.11a37.54,37.54,0,0,0-.51-3.77,25.44,25.44,0,0,0-.31-4c.16-2.51,0-5,.61-7.13.3-1.06.44-2.28.71-3.36a5.14,5.14,0,0,1,.41-1.63,5.8,5.8,0,0,1,.31-1.53c.57-2.15,1.31-4.12,1.94-6.21.39-1,.71-2,1.12-3a4.38,4.38,0,0,0,.51-1.32c.15-.5.5-.79.61-1.32.53-.49.83-1.21,1.43-1.63.45-.54.74-1.23,1.22-1.73,0-.47.53-.49.71-.81s.42-.53.61-.81a10.29,10.29,0,0,0,1.22-1.73c.57-.35.89-.94,1.43-1.32.38-.54.94-.89,1.32-1.43.64-.28,1-.86,1.63-1.12.37-.55,1-.81,1.43-1.32.93-.36,1.6-1,2.55-1.32A23.85,23.85,0,0,1,75.57,86a23,23,0,0,1,2.65-.41c.13-2.65,0-5.88.1-8.15.19-3.34.2-6.09.1-9.37-.18-3.11-.51-6.08-.71-9.17a39.17,39.17,0,0,1-.51-4.28c-.35-1.28-.35-2.91-.92-4-.58,2-.92,4.17-1.53,6.11s-1.05,4-1.43,6.21c-.4.89-.57,2-.92,3-.17,1.09-.62,1.89-.81,3-.45.8-.75,1.76-1.22,2.55-.26.39-.47.82-.71,1.22s-.44.78-1,.81c-1.06.2-1.81-.49-3.16-.51a.5.5,0,0,0-.51-.2,10.52,10.52,0,0,1-2-1.83,14.89,14.89,0,0,1-1.32-3.16A37.43,37.43,0,0,1,61,63.92c0-2.13-.1-2.81,0-4.58,0-.83,0-1.5.1-2.44a9.58,9.58,0,0,1,.1-1c-.11-.55.31-.64.1-1,.12-1.68.36-3.23.51-4.89s.44-3.16,1.94-3.46a1.84,1.84,0,0,1,2,1.63,24.54,24.54,0,0,1,.1,3.56c-.13.82-.27,2.08-.31,3a25.19,25.19,0,0,1-.1,3.46c.24,2.3-.11,4.39,0,7,.14,1.12.25,2.27.41,3.36s.44,2.07,1.22,2.55c.57-.21.64-.92,1-1.32.09-.65.49-1,.61-1.63a26.52,26.52,0,0,0,1.12-3.46A74,74,0,0,0,71.6,57.2c.51-2.55,1.1-5,1.53-7.64.33-1.19.43-2.62.71-3.87a8.72,8.72,0,0,1,.41-1.93,3.11,3.11,0,0,1,.61-1.63c.25,0,.22-.19.51-.1s.18-.1.31-.1c.8.05,1,.67,1.63.92a43.06,43.06,0,0,1,2.55,9.57c.56,3.45.91,7.1,1.22,10.8C81.67,70.22,81.87,78.17,82,85.41Zm-4.18,2.14a19.17,19.17,0,0,0-6.21,2.14,24.4,24.4,0,0,0-2.85,2.44A22.46,22.46,0,0,0,66.2,95c-.38.84-.88,1.56-1.32,2.34a17.22,17.22,0,0,1-1.22,2.44,41.48,41.48,0,0,0-2,5.4,110.58,110.58,0,0,0-2.75,12A61,61,0,0,0,58.16,131a34,34,0,0,0,1.12,6.21c.69,1.79,1.45,3.5,3.36,4.07a6.83,6.83,0,0,0,2.44-1s.06-.18.1-.2.3-.1.41-.2a5.7,5.7,0,0,0,.41-.61c.07-.09.23-.12.31-.2a6.76,6.76,0,0,0,.71-1c.16-.24.24-.47.41-.71a34.37,34.37,0,0,0,3.06-5.7,45.84,45.84,0,0,0,2.44-6.31c.38-2.54,1.2-4.64,1.53-7.23s.74-5.1,1.22-7.54c.25-2.72,1.13-4.7,1.32-7.23a106.34,106.34,0,0,0,1.22-15.69c0-.06,0-.12-.1-.1C78.08,87.38,78,87.57,77.82,87.55Z"/><path class="cls-1" d="M120.9,74.82c.37-.21.14-1,.31-1.43a4.23,4.23,0,0,0,.31-1.43,25.73,25.73,0,0,0,.61-2.75,41.88,41.88,0,0,1,1.22-5.6,24.59,24.59,0,0,1,4.18-9.37c.45-.33.88-.68,1.32-1s.8-.76,1.63-.71.89.47,1.43.61A12.57,12.57,0,0,1,134.34,59c0,1.47.25,3.11.1,4.38.12,1.6-.25,3-.1,4.28a8.61,8.61,0,0,1-.2,1.32,48.71,48.71,0,0,1-.1,4.89c-.21,1.69-.07,3.29-.31,4.79.22,1.87,0,3.31.1,5.19.32,1.45.47,3.06,1.32,4,1.38,1.68,3.74,2.38,6.72,2.44-1.28.85-3.54.5-5.3.41a5.47,5.47,0,0,0-1.94-.61,3.81,3.81,0,0,0-1.22-.81,3.36,3.36,0,0,0-1-.92,4.76,4.76,0,0,0-.41-.81,4.13,4.13,0,0,1-.41-.81c-.06-.17,0-.2-.1-.31a10.45,10.45,0,0,1-.61-2c0-.16-.17-.35-.2-.51,0,.06.1-.07.1-.1s-.19-.25-.2-.31c0-.25,0-.49,0-.71-.15-.9-.33-1.76-.41-2.65-.06-.71-.08-1.28-.1-2.14,0-.15-.11-.19-.1-.31s.11-.1.1-.2c-.15-3.65-.06-7.49.1-11.1.29-2.71.47-5.29.51-8a4.38,4.38,0,0,0-.92-2.44c-.26-.26-.32.19-.51.31a4.55,4.55,0,0,1-.41.51,2.55,2.55,0,0,1-.41.61c0,.31-.22.4-.31.61A13.93,13.93,0,0,0,127,60.56a26.14,26.14,0,0,0-1.73,5.7A61.44,61.44,0,0,0,124,72.58a38.26,38.26,0,0,0-1,6.52,1.84,1.84,0,0,1-.41.92c.18.49-.06.45-.1.92-.52.3-.72.91-1.43,1s-.9-.25-1.53-.2c-.16-.39-.51-.63-.71-1-.1-.19-.11-.46-.2-.71a14.14,14.14,0,0,1-.81-3.46,38.18,38.18,0,0,1-.1-6.52c.49-4.14.5-7.91,1-12.22-.1-4.12.13-8-1.94-10.69a3.11,3.11,0,0,0-1.43,1.63c-.31.67-.38,1.59-1.32,1.63-.35,0-.3-.38-.31-.71s-.06-.67.1-.81a3.6,3.6,0,0,1,.61-1.32A14.17,14.17,0,0,1,116,45.28c.53-.32,1-.73,1.53-1,.16,0,.18-.1.31-.1a4.69,4.69,0,0,1,1.32.1,6.9,6.9,0,0,1,1.73,1.63,18.59,18.59,0,0,1,1,3.06c.18,1.18.37,2.35.51,3.56a57.68,57.68,0,0,1-.1,7.84C121.87,65.4,121.21,70.11,120.9,74.82Z"/><path class="cls-1" d="M173,50.58h.2c0,.22-.15.19-.31.2C173,50.7,173,50.68,173,50.58Z"/><path class="cls-1" d="M56.94,61.07c0-.12.1-.06.1,0S56.94,61.13,56.94,61.07Z"/><path class="cls-1" d="M57.75,62.39a3,3,0,0,1,.2,1.22C57.69,63.4,57.75,62.87,57.75,62.39Z"/><path class="cls-1" d="M198.51,74.52c-.05-.05.07-.13.1-.1S198.54,74.54,198.51,74.52Z"/><path class="cls-1" d="M8.25,74.72c0-.12.15-.06,0,0Z"/><path class="cls-1" d="M8.15,74.82c0-.06,0-.12.1-.1S8.23,74.84,8.15,74.82Z"/><path class="cls-1" d="M8.15,74.82c0,.15-.17.17-.2.31C7.69,75.08,7.94,74.73,8.15,74.82Z"/><path class="cls-1" d="M9.68,112.81c0,.12-.15.06,0,0Z"/><path class="cls-1" d="M6.21,114.24c0-.12.15-.06,0,0Z"/><path class="cls-1" d="M6.21,114.24c0,.12-.15.06,0,0Z"/><path class="cls-1" d="M0,115.56c0-.12.19-.09.31-.1S.12,115.55,0,115.56Z"/><path class="cls-1" d="M166.43,126.26c0-.12.1-.06.1,0S166.43,126.31,166.43,126.26Z"/><path class="cls-1" d="M166.63,126.56c-.12,0-.06-.15,0,0Z"/></g></g></svg>