<?xml version="1.0" encoding="utf-8"?>
<!-- Generator: Adobe Illustrator 18.0.0, SVG Export Plug-In . SVG Version: 6.00 Build 0)  -->
<!DOCTYPE svg PUBLIC "-//W3C//DTD SVG 1.1//EN" "http://www.w3.org/Graphics/SVG/1.1/DTD/svg11.dtd">
<svg version="1.1" id="Layer_1" xmlns="http://www.w3.org/2000/svg" xmlns:xlink="http://www.w3.org/1999/xlink" x="0px" y="0px"
	 viewBox="0 0 688.3 375.1" enable-background="new 0 0 688.3 375.1" xml:space="preserve">
<path fill-rule="evenodd" clip-rule="evenodd" d="M1.4,247.9c1,0,2.7-0.2,3.4,0.8c0.4,0.6,0.3,2.6,1.2,2.6c-0.5,0.5,0.4,1.2,0.5,1.7
	c0.1,1,0.3,2,0.6,2.9c0.5,1.9,0.9,4.2,1.8,5.9c0.4,0.9,0.9,1.8,1.3,2.7c0.3,0.7,0.8,1.2,1.1,1.8c0.3,0.6,0.5,1.2,0.8,1.7
	c0.2,0.3,0.3,0.5,0.6,0.6c0.5,0.3,0.7,0.9,1,1.4c0.9,1.4,2,3,3,4.3c0.4,0.5,1,0.8,1,1.4c1.1,0.2,2.1,0.6,3,1.1
	c3.7,1.8,7.9,2.8,12,2.5c7.7-0.5,15-4.8,21.2-9.1c1.6-1.1,3.3-2.3,4.8-3.6c1.6-1.3,3.1-3,4.8-4.1c0.6-0.4,0.9-1.1,1.6-1.3
	c0.2-0.6,0.8-0.8,1.2-1.2c0.3-0.4,0.2-0.4,0.7-0.7c0.4-0.2,0.7-0.5,1.1-0.8c0.8-0.7,1.5-1.4,2.2-2.2c2.6-2.9,5.5-5.6,8-8.5
	c2.7-3.1,5.3-6.3,7.9-9.5c0.6-0.7,1.3-1.3,1.8-2c0.6-0.8,1.2-1.6,1.8-2.4c1.4-1.7,2.7-3.4,4-5.1c1.2-1.5,2.3-3.2,3.6-4.7
	c1.3-1.6,2.4-3.2,3.7-4.8c2.4-2.9,4.4-6.1,6.8-9c0.6-0.7,1.1-1.5,1.4-2.3c0.6-0.8,1.3-1.6,1.9-2.4c1.3-1.8,2.6-3.6,3.8-5.5
	c2.5-3.7,4.9-7.4,7.3-11.1c1.2-1.8,2.5-3.7,3.7-5.5c1.3-1.9,2.5-4,3.9-5.9c1.2-1.4,2.2-3.2,3.2-4.7c1.2-1.9,2.4-3.6,3.6-5.4
	c1.1-1.6,2.1-3.4,3.2-5.1c1.2-1.7,2.4-3.4,3.3-5.3c1.9-3.5,4.4-6.8,6.5-10.1c2.4-3.7,4.5-7.5,6.7-11.3c8-13.9,15.4-27.9,23-41.9
	c0.9-1.7,2-3.4,2.8-5.2c0.9-1.9,1.8-3.8,3-5.6c0.5-0.7,0.6-1.6,1-2.4c0.4-0.7,0.8-1.4,1.1-2.2c0.2-0.6,0.8-1.1,1.1-1.7
	c0.3-0.7,0.5-1.5,1-2.1c0.8-1,1.6-2.7,2.1-4c0.8-2,1.9-3.8,2.8-5.7c1.6-3.7,3.1-7.5,4.4-11.4c0.6-2,1.2-3.9,1.6-5.9
	c0.5-2.1,0.3-4.6,0.4-6.8c0.1-2,0-4-0.2-6c-0.2-2-1.1-4.1-1.8-6c-1.4-3.2-3.4-6.1-5.9-8.6c-1.2-1.3-2.1-2.6-3.9-3.2
	c-0.4-0.6-0.8-1.1-1.5-1.4c-0.9-0.3-1.6-1.1-2.4-1.6c-3.3-1.9-6.8-2.8-10.4-3.9c-1.7-0.5-3.4-0.5-5.2-0.8c-2.1-0.4-4.5-0.2-6.6,0
	c-7.6,0.4-15.6,1.9-22.5,5.2c-3.5,1.6-7,3.2-10.3,5.3c-0.7,0.4-1.4,0.8-2.1,1.2c-0.7,0.4-1.2,1-1.9,1.4c-0.7,0.4-1.5,0.7-2.1,1.2
	c-0.5,0.4-1.3,1.1-2,1.2c-0.2,0.5-0.9,0.6-1.3,1c-0.5,0.5-1.3,0.8-1.9,1.2c-1.4,1.1-3.1,1.8-4.4,3c-1.4,1.2-3.3,2.2-4.8,3.2
	c-1.8,1.3-3.6,2.6-5.5,3.8c-1.6,1.1-3,2.3-4.6,3.3c-0.7,0.4-1.2,1-1.8,1.4c-0.3,0.2-0.6,0.4-0.9,0.7c-0.3,0.3-0.7,0.3-1,0.6
	c-1.1,1.1-2.7,2.1-4,3.1c-1.7,1.3-3.5,2.6-5.2,3.9c-3.2,2.6-6.3,5.3-9.4,8c-1.5,1.3-2.9,2.6-4.5,3.9c-1.4,1.1-2.5,2.3-3.9,3.3
	c-1.4,1-2.6,2.6-3.8,3.8c-1.4,1.4-3,2.6-4.8,3.5c-1.5,0.8-3.3,0.8-4.9,0.4c-0.7-0.1-1.4-0.4-2-0.8c-0.3-0.2-0.5-0.4-0.7-0.6
	c-0.3-0.4-0.1-0.8-0.4-1c-1.8-2.2,0.1-4.4,1.2-6.6c0.7-1.4,3-2.3,4.3-3.2c1.7-1.1,3.5-2.3,5.1-3.5c0.7-0.6,1.5-1.2,2.2-1.8
	c0.6-0.6,1.4-1,2-1.6c1.3-1.1,2.4-2.6,4-3.4c0.8-0.4,1.3-1,1.9-1.6c0.6-0.6,1.4-0.9,2-1.5c1.3-1.2,2.5-2.5,3.8-3.6
	c0.3-0.3,0.7-0.5,1-0.7c0.1-0.3,0.4-0.6,0.6-0.8c0.5-0.4,1.1-0.7,1.6-1.1c0.5-0.5,0.8-1,1.5-1.4c0.7-0.4,1.4-0.8,1.8-1.5
	c1.6-1.2,3.1-2.5,4.6-3.7c0.7-0.5,1.5-0.9,2.1-1.5c0.4-0.4,1.3-1,1.6-1.5c0.3-0.6,1.4-1,2.1-1.5c0.7-0.5,1.4-1.1,2.1-1.7
	c1.5-1.4,3.3-2.5,4.9-3.8c0.8-0.6,1.5-1.2,2.3-1.9c0.7-0.6,1.6-1,2.4-1.5c1.6-1.1,3.2-2.3,4.8-3.5c0.7-0.5,1.5-0.8,2.3-1.2
	c0.7-0.3,1.3-1,2-1.4c0.6-0.3,1.4-0.5,1.9-1.1c0.2-0.2,0.4-0.4,0.6-0.5c0.2-0.1,0.4-0.1,0.7-0.1c0-0.2,0-0.4,0.1-0.5
	c0.3-0.4,0.9-0.4,1.1-0.9c0.8-0.3,1.4-0.8,2.1-1.3c1.4-1,3.2-1.9,4.7-2.7c0.7-0.4,1-0.7,1.8-0.8c0.7-0.1,0.8-0.9,1.5-1
	c1.5-0.3,2.7-1.5,4.2-1.8c0.8-0.2,0.9-0.4,1.5-0.8c0.6-0.4,1.3-0.4,2-0.7c1.7-0.9,3.6-1.2,5.3-1.7c1.8-0.5,3.5-0.8,5.3-1.1
	c0.9-0.1,1.9-0.3,2.9-0.3c0.8-0.1,2.4,0.3,3.1-0.2c0.5-0.3,2,0,2.6,0c1,0,2-0.1,3,0c2.2,0,4.2,0.1,6.4,0.4c4,0.6,7.9,1.6,11.8,2.9
	c1.7,0.6,3.5,1.1,5,2c0.7,0.4,1.4,0.9,2.3,1.2c0.1,0.6,0.8,0.5,1.2,0.8c0.2,0.2,0.3,0.4,0.2,0.6c0.3,0.1,0.5,0.4,0.7,0.6
	c0.3,0.2,0.6,0.4,0.9,0.4c0.4,0.3,0.8,0.6,1.2,0.9c1.7,1.4,3.3,2.8,5.1,4.1c1.3,1.7,2.6,3.3,4,4.9c1.2,1.3,1.8,3.2,2.4,4.9
	c0.6,1.7,1.4,3.3,2,4.9c0.8,1.9,1.1,3.9,1.8,5.8c0.6,1.7,1.4,3.4,1.9,5.2c-0.1,0.5,0.3,0.3,0.2,0.8c0,0.3-0.1,0.7-0.1,1
	c-0.1,0.9-0.1,1.8-0.1,2.7c-0.1,3.6-0.5,7.1-1.2,10.6c-0.4,1.8-0.9,3.6-1.2,5.4c-0.2,1-0.2,1.8-0.6,2.8c-0.4,1-0.7,2-1,3
	c-1.1,3.8-2.5,7.5-3.7,11.3c-1.3,3.8-3.2,7.4-4.5,11.3c-0.6,1.9-1.3,3.7-2,5.5c-0.3,0.9-0.7,1.8-1,2.7c-0.4,0.8-1,1.7-1.3,2.5
	c-0.2,0.5-0.2,1.1-0.5,1.5c-0.4,0.4-0.4,0-0.4,0.6c0,0.3-0.1,0.6-0.3,0.9c-0.8,1.5-1.4,3-2.2,4.4c-0.9,1.5-1.4,3.2-2.4,4.6
	c-0.4,0.6-0.6,1.3-1,2c-0.4,0.7-0.9,1.4-1.1,2.2c-0.2,0.7-0.9,1.2-1.3,1.9c-0.4,0.7-0.6,1.5-1,2.2c-0.6,1.2-1.5,2.2-1.9,3.5
	c-0.1,0.2-0.2,0.5-0.4,0.6c-0.4,0.3-0.5,0.6-0.7,1.1c-0.2,0.5-0.6,2.3-1.1,2.5c-0.5,0.2-0.4,0.9-0.8,1.3c-0.4,0.5-0.8,1.2-1.1,1.9
	c-0.2,0.4-0.4,0.9-0.6,1.3c-0.1,0.2-0.4,0.1-0.5,0.2c-0.3,0.7-0.5,1.3-0.9,2c-0.4,0.7-0.8,1.5-1,2.4c-0.6,0.5-1,1.6-1.3,2.3
	c-0.5,1.4-1.7,2.6-2.2,4c-0.2,0.6-0.4,1.4-1.1,1.6c-0.4,0.9-1,1.6-1.5,2.5c-0.5,0.8-0.7,1.6-1.3,2.4c-0.6,0.8-1.1,1.7-1.7,2.6
	c-1.1,1.7-2.4,3.4-3.4,5.1c-0.4,0.6-0.6,1.3-1,1.9c-0.2,0.3-0.4,0.5-0.7,0.8c-0.4,0.3-0.2,0.3-0.3,0.8c-0.1,0.4-0.6,0.6-0.8,1
	c-0.2,0.5,0,0.4-0.5,0.8c-0.3,0.3-0.8,0.7-0.8,1.2c-0.5,1.2-1.4,2.2-2,3.3c-0.1,0.3-0.3,0.5-0.6,0.5c-0.2,0.4-0.4,0.9-0.6,1.3
	c-0.5,0.9-1.1,1.8-1.8,2.6c-0.3,1.5-1.6,2.2-2.3,3.5c-0.9,1.9-2.5,3.5-3.6,5.2c-1.1,1.7-2.3,3.3-3.5,4.9c-1.2,1.6-2.1,3.5-3.4,5.1
	c-1.1,1.5-2,3.1-3.2,4.5c-0.6,0.7-1.1,1.5-1.5,2.3c-0.5,0.9-1.2,1.5-1.8,2.4c-1,1.5-2.1,3-3.1,4.4c-1,1.5-2.5,2.8-3.3,4.5
	c-0.3,0.6-1.1,0.9-1.5,1.5c-0.4,0.6-0.8,1.2-1.3,1.7c-1.3,1.4-2,3.3-3.3,4.7c-2.9,3.2-5.3,6.8-8,10.1c-1.2,1.6-2.4,3.2-3.6,4.8
	c-1.1,1.6-2.4,3-3.6,4.6c-2,2.7-4.4,5.1-6.5,7.8c-0.6,0.7-1.2,1.4-1.7,2.1c-0.5,0.7-0.9,1.6-1.6,2.1c-0.7,0.5-1.1,1.1-1.6,1.8
	c-0.3,0.3-0.5,0.6-0.8,0.9c-0.4,0.3-0.4,0.7-0.8,1.1c-1,0.9-1.7,2.2-2.8,3c-0.6,0.5-1.1,1.2-1.6,1.8c-0.7,0.8-1.4,1.4-2.1,2.2
	c-2.6,3.2-5.7,6-8.6,9c-3,3-6.1,6-9.4,8.6c-1.6,1.1-3.1,2.5-4.6,3.7c-0.3,0.2-0.5,0.6-0.9,0.6c-0.5-0.1-0.1,0.3-0.2,0.5
	c-0.5,0.6-1.4,1.1-2,1.6c-1.7,1.2-3.4,2.5-5.1,3.7c-0.7,0.5-1.4,1.1-2.2,1.2c-1.1,0.2-2.1,0.6-3.1,0.9c-1.7,0.6-3.5,1.2-5.4,0.9
	c-1.7,0.6-3.7,0.7-5.5,0.7c-1.9,0-3.9,0.2-5.7-0.3c-0.9-0.2-2.1-0.2-2.9-0.7c-1-0.6-2-1.1-3-1.7c-1-0.6-2.1-1.8-3.3-2
	c-1.1-0.2-2.2-0.7-3.2-1.3c-0.9-0.5-1.9-1.1-2.9-1.5c-1-0.3-1.4-1.4-2.3-1.8c-0.9-0.4-1.9-1.7-2.5-2.5c-0.6,0-1.5-1.6-1.8-2
	c-0.8-1-1.4-2.1-2.3-3c-0.7-0.5-0.7-1.5-1.2-2.2c-0.3-0.4-0.6-0.3-0.8-0.8c-0.2-0.5-0.4-0.9-0.7-1.3c-0.6-0.8-0.9-1.5-1.2-2.4
	c-0.2-0.4-0.3-0.8-0.3-1.3c0-0.6-0.4-0.7-0.6-1.3c-0.5-1.3-0.7-2.7-1.1-4c-0.3-1.2-0.7-2.3-0.8-3.6c0-1.1,0-2.3-0.1-3.4
	c-0.1-0.8,0.1-1.7,0.2-2.6C0.3,249.1,0.5,248.1,1.4,247.9C3.2,247.9-0.1,248.2,1.4,247.9z"/>
<path fill-rule="evenodd" clip-rule="evenodd" d="M403.2,273.6c0.1,0.5,0.8,0.2,0.9-0.1c0.2-0.5,1.7-0.9,2.3-1.2
	c0.9-0.4,1.7-0.9,2.5-1.4c0.9-0.6,1.9-0.8,2.8-1.3c1.6-0.8,3-1.6,4.6-2.2c1.9-0.7,3.7-1.6,5.5-2.3c8-3.2,16.3-5.8,24.7-8.1
	c2.1-0.6,4.2-1.1,6.3-1.6c0.9-0.2,1.1-1.6,1.4-2.5c0.4-1.1,0.8-2.2,1.2-3.3c1.4-3.9,2.9-7.6,4.5-11.4c0.7-1.7,1.4-3.4,2-5.1
	c0.7-2.1,1.7-4.1,2.5-6.1c0.7-1.8,1.6-3.6,2.3-5.5c0.7-2,1.3-3.9,2.2-5.7c0.7-1.5,1.1-3.2,1.8-4.7c0.4-0.8,0.5-1.6,0.9-2.3
	c0.4-0.8,0.7-1.6,1-2.5c1.3-3.7,2.8-7.3,4.2-11c1.4-3.8,2.9-7.5,4.4-11.2c1.4-3.6,2.6-7.3,4-11c1.4-3.8,2.6-7.7,4.2-11.4
	c0.8-1.9,1.4-3.8,2.3-5.6c0.8-1.7,1.1-3.5,1.8-5.2c0.7-1.7,1.1-3.5,1.8-5.2c0.8-1.8,1.4-3.7,2-5.7c0.5-1.7,1.4-3.4,1.8-5.2
	c0.2-0.7,0.5-1.3,0.8-2c0.1-0.3,0.3-0.7,0.3-1.1c0-0.3,0.1-0.6,0-0.9c0.2,0,0.3-0.1,0.2-0.2c0-0.1-0.1-0.1-0.1-0.2
	c-0.2,0-0.8,1.4-0.9,1.7c-0.3,0.7-0.6,1.4-1,2.1c-0.4,0.7-0.8,1.4-1.1,2.2c-0.7,0.9-1.2,1.8-1.7,2.8c-0.8,1.8-1.7,3.5-2.5,5.3
	c-0.4,0.9-0.8,1.7-1.3,2.6c-0.5,0.8-0.7,1.9-1.2,2.8c-0.8,1.5-1.5,3.1-2.3,4.5c-1,1.7-1.7,3.6-2.8,5.1c-1.1,1.5-1.7,3.4-2.8,4.8
	c-1,1.2-1.5,2.7-2.4,4c-0.2,0.3-0.4,0.6-0.5,1c-0.3,0.1-0.5,0.3-0.7,0.5c-0.4,0.5-0.5,1-0.8,1.5c-0.4,0.5-0.6,1.1-1,1.6
	c-0.5,0.6-0.7,1.5-1.2,2c-1.1,1.2-2.1,2.9-2.9,4.3c-0.4,0.7-1.1,1.3-1.6,2c-0.6,0.8-1.1,1.7-1.7,2.5c-1,1.5-2.1,3-3.3,4.3
	c-0.4,0.5-2.8,2.6-2.4,3.3c-0.4,1.3-2.1,2.7-3,3.6c-0.6,0.5-1.2,1.1-1.7,1.6c-0.3,0.3-0.2,0.5-0.4,0.7c-0.2,0.2-0.6,0.2-0.7,0.5
	c-0.3,0.6-1.1,1.2-1.6,1.7c-0.4,0.4-0.9,1-1.4,1.3c-0.5,0.3-1.1,0.5-1.3,1c-0.4,0.8-1.6,1.2-2.3,1.7c-1.6,0.9-2.9,2.1-4.4,3
	c-0.8,0.5-1.6,1-2.4,1.6c-0.4,0.3-0.7,0.6-1,1c-0.5,0.1-1,0.3-1.4,0.6c-0.6,0.4-1.4,0.5-2,0.9c-0.5,0.3-0.9,0.8-1.6,0.9
	c-0.5,0.1-0.7,0-1.2,0.2c-0.4,0.2-0.8,0.4-1.2,0.5c-1,0.4-2.1,0.6-3.2,0.9c-2,0.4-3.9,0.4-5.9,0.3c-0.9-0.1-1.8-0.2-2.7-0.3
	c-0.4-0.1-0.9-0.1-1.3-0.2c-0.3-0.1-0.6-0.1-0.8-0.2c0-0.2-0.1-0.3-0.3-0.4c-0.3-0.1-0.6-0.1-0.9-0.1c-0.4-0.3-0.8-0.7-1.3-1
	c-0.8-0.6-1.8-1-2.4-1.8c-1.2-1.5-2.5-3.1-3.6-4.7c-2.2-3.3-3.4-6.9-4.3-10.7c-1-4.1-1.6-8.4-1.3-12.6c0.3-4.1,1.1-8.2,2.1-12.3
	c3.9-15.9,11-30.7,18.2-45.3c1.9-3.8,4-7.5,6-11.3c2-3.9,4.1-7.8,6.2-11.6c1-1.8,2.1-3.4,2.9-5.3c0.8-1.7,2-3.2,2.8-5
	c0.3-0.8,0.7-1.6,1.2-2.3c0.4-0.5,0.5-1.2,0.9-1.8c0.2-0.3,0.3-0.6,0.3-0.9c0.2-0.2,0.4-0.5,0.5-0.8c0.4-0.8,0.9-1.2,1.2-2
	c0.6-1.5,1.7-2.8,2.4-4.2c0.9-2,2.1-3.8,3.2-5.7c0.9-1.5,1.8-2.9,2.5-4.5c0.3-0.6,0.9-1,1.2-1.6c0.5-1,1.1-1.9,1.6-2.8
	c1.8-3,4.1-5.7,5.8-8.7c0.4-0.7,1-1.3,1.3-2c0.3-0.9,0.7-1.7,1.2-2.5c0.8-1.5,1.4-3.2,2.1-4.8c0.3-0.8,0.3-1.7,0.6-2.4
	c0.4-0.7,0.6-1.5,0.8-2.3c0.5-1.9,0.9-3.7,1.3-5.6c0.8-3.7,0.3-7.6-1-11.1c-0.6-1.6-1.4-3-2.5-4.2c-0.5-0.6-1.1-1.5-1.8-1.8
	c-1-0.5-2-1-2.9-1.5c-3.6-1.8-7.4-2.7-11.5-2.6c-8.3,0.3-15.6,4.3-22.1,9c-6.9,4.9-12.8,10.9-18.2,17.4c-1.3,1.6-2.6,3.3-3.8,4.9
	c-1.2,1.6-2.6,3.1-3.7,4.8c-0.9,1.4-1.6,3-2.8,4.2c-1,2.1-2.1,4.1-3.2,6.1c-2.1,4-4,7.9-5.6,12.1c-0.7,2-1.7,3.9-2.3,5.9
	c-0.7,2.2-1.2,4.3-2,6.4c-0.7,1.8-0.8,4-1.2,5.9c-0.4,2.2-0.7,4.3-0.9,6.5c-0.2,2.1-0.2,4.2-0.1,6.2c0.1,1.7-0.7,3.6-1.6,5
	c-0.9,1.3-2.2,2.3-3.8,1.8c-0.7-0.2-1.3-0.6-2-0.9c-0.9-0.5-1.2-1.4-1.4-2.5c-0.3-1.9,0.1-3.7,0.3-5.6c0.3-1.9,0.4-3.9,0.6-5.8
	c0.2-1.8,0.6-3.7,0.9-5.5c0.4-2,0.8-4,1.3-6c0.5-1.9,1-3.8,1.2-5.7c0.5-0.1,0.5-0.8,0.5-1.2c0-0.8,0.3-1.2,0.5-1.9
	c0.3-0.9,0.5-1.7,0.8-2.6c0.4-0.9,0.7-1.9,1-2.9c0.6-2.2,1.7-4.3,2.7-6.4c1.8-4,3.8-8,5.8-11.9c1.9-3.5,3.5-6.9,5.8-10.1
	c1.1-1.5,2.4-2.8,3.4-4.3c1.2-1.6,2.8-2.9,4.2-4.3c0.6-0.7,1.3-1.4,2-2c0.6-0.6,1.5-1.1,2-1.9c0.9-1.4,2.5-2.2,3.6-3.3
	c0.6-0.6,1.4-0.8,1.9-1.4c0.5-0.5,1-1.1,1.7-1.4c1.4-1.5,3.1-2.7,4.8-3.8c3.3-2.3,6.9-4.3,10.4-6.1c3.3-1.6,6.8-3,10.4-3.5
	c4.2-0.6,8.8-1.1,12.9-0.6c3.7,0.5,7.3,1.9,10.5,3.8c2.9,1.8,5.4,4,7.7,6.5c2.4,2.5,3.2,6.7,3.7,10c0.3,2,0.5,3.9,0.6,5.9
	c0.1,2.1-0.2,4.1-0.6,6.2c-0.3,1.7-0.7,3.4-0.9,5.1c-0.1,1-0.2,1.9-0.3,2.9c-0.1,1.2-0.7,2.4-1.1,3.5c-0.7,2-1.2,4.1-1.9,6.1
	c-0.7,2-1.8,3.7-2.7,5.6c-0.6,1.3-1.1,2.6-1.6,3.9c-0.3,0.8-0.8,1.5-1.1,2.3c-0.1,0.4-0.3,0.7-0.5,1c-0.2,0.2-0.3,0.4-0.6,0.6
	c0,0.3,0,0.5-0.1,0.8c-0.1,0.6-0.5,1.1-0.9,1.7c-0.4,0.7-0.4,1.4-0.7,2.1c-1,1.7-1.8,3.5-2.8,5.2c-0.4,0.6-0.6,1.3-0.9,2
	c-0.3,0.6-0.9,0.9-0.9,1.4c-0.1,0.9-0.5,1.4-1,2.1c-0.6,1-1.1,2-1.7,3c-0.3,0.5-0.2,1.2-0.7,1.6c-0.6,0.4-0.6,0.7-0.8,1.4
	c-0.2,0.6-0.6,1.3-0.9,1.9c-0.3,0.7-0.6,1.2-0.9,2c-0.1,0.4-0.3,0.4-0.4,0.8c-0.1,0.4-0.3,0.7-0.6,1c-0.4,0.5-0.7,1.3-1.1,1.9
	c-0.4,0.7-0.5,1.7-0.9,2.5c-0.4,0.9-0.9,1.8-1.5,2.6c-2.1,3.5-4,7.1-5.9,10.7c-1,1.8-1.9,3.6-2.9,5.4c-0.4,0.8-0.8,1.6-1.3,2.4
	c-0.5,0.8-0.8,1.6-1.3,2.4c-0.2,0.3-0.3,0.6-0.4,1c-0.3,0-0.4,0.2-0.5,0.5c-0.2,0.4-0.2,1.1-0.7,1.2c0.1,0.6-0.4,0.7-0.6,1.1
	c-0.2,0.2-0.1,0.5-0.1,0.8c-0.3,0-0.5,0.3-0.6,0.6c-0.3,1.2-1.1,2.1-1.8,3.2c-0.5,0.8-0.7,1.6-1.2,2.4c-0.6,1-1.1,1.9-1.7,2.9
	c-1.8,3.5-3.8,7-5.3,10.6c-0.8,1.7-1.4,3.5-2.4,5.1c-0.4,0.7-0.9,1.4-1.2,2.1c0.2,0.6-0.3,0.8-0.6,1.2c-0.1,0.1-0.2,0.2-0.1,0.4
	c0.2,0.3,0,0.4-0.2,0.7c-0.5,0.7-0.6,1.4-1,2.1c-1.1,1.9-1.8,3.8-2.6,5.9c-1.4,3.7-2.4,7.5-3.4,11.3c-1,3.9-1.4,8.2-1,12.2
	c0.2,2,0.5,3.9,1.1,5.8c0.6,1.9,1.3,3.8,1.9,5.7c2.4,7.4,12.1,6.5,17.9,4.1c3.5-1.4,6.8-3.5,9.9-5.7c0.5-0.4,0.8-0.9,1.4-1.2
	c0.6-0.2,1.2-0.4,1.7-0.8c1.3-1,2.6-2.2,3.9-3.2c1.2-0.9,2.5-2.2,3.5-3.4c1.4-1.6,2.9-3.1,4.3-4.7c2.7-3.2,5.2-6.6,7.7-9.9
	c2.3-3.1,4.2-6.4,6.3-9.6c2.2-3.4,4.1-7,6.1-10.5c1-1.7,2.2-3.4,3.1-5.1c1-2,2.1-4,3.2-6c2.1-3.9,4-7.9,6.1-11.8
	c2.1-3.9,4.1-7.8,6-11.8c0.9-1.7,1.5-3.6,2.5-5.3c1-1.6,1.1-3.6,2.1-5.1c0.4-0.7,0.9-0.9,1-1.7c0.1-0.5,0.7-0.9,0.6-1.5
	c-0.1-0.7,0.4-1.6,0.7-2.3c0.3-0.9,0.7-1.8,1-2.7c1.3-3.5,2.5-6.9,3.8-10.4c0.6-1.7,1.5-3.2,1.9-4.9c0.4-0.9,0.9-1.7,1.2-2.6
	c0.4-1,0.6-2.3,1.2-3.2c0.9-1.5,1.3-3.2,2.2-4.6c0.5-0.8,0.7-1.8,1.1-2.6c0.5-1,1-2,1.5-3c0.7-1.7,2-3,2.7-4.6
	c0.3-0.7,1.1-1.2,1.7-1.8c0.6-0.7,1.2-1.4,1.8-2.1c0.5-0.6,1.1-1.2,1.8-1.6c0.1-0.6,0.6-1,1.1-1.4c1.2-0.8,1.7-2.2,2.9-2.9
	c1.4-0.9,3.3-0.3,4.6,0.5c0.6,0.4,1.2,0.9,1.6,1.5c0.2,1,0.2,2.1-0.1,3.1c-0.2,0.8-0.6,1.5-1.1,2.1c-0.5,0.6-0.7,1.1-1.1,1.7
	c-0.2,0.3-0.7,1-0.9,1.1c-0.7,0.5-0.9,1.4-1.4,2c-1.3,1.3-2.2,3-3.1,4.6c-1.2,1.3-1.6,3.1-2.6,4.5c-0.5,0.6-0.4,1.7-0.7,2.5
	c-0.3,0.9-0.7,1.4-0.8,2.3c-0.1,0.8-0.3,1.5-0.7,2.1c-0.5,0.8-0.5,1.6-0.9,2.5c-0.7,1.5-1.3,3-1.6,4.6c-0.2,1-0.6,1.5-1.1,2.4
	c-0.5,1-0.8,2-1.2,3.1c-0.1,0.7-0.4,1.4-1,1.9c-0.4,0.4-0.2,1.2-0.5,1.8c-0.9,1.6-1.5,3.5-2.2,5.2c-3.1,7.9-6.5,15.8-9,23.9
	c-0.6,1.9-1.4,3.7-1.9,5.6c-0.2,0.7-0.6,1.3-0.7,2c-0.1,0.8-0.5,1.3-0.7,2c-0.1,0.6-0.2,1.4-0.8,1.8c0,0.8-0.2,1.6-0.5,2.4
	c-0.6,1.6-1.3,3.3-1.8,5c-0.3,0.9-0.4,1.8-0.7,2.7c-0.1,0.3-0.3,1.9-0.5,1.9c-0.6,0.2-0.3,0.9-0.6,1.4c-0.5,0.7-0.6,1.7-0.9,2.5
	c-0.6,1.5-0.7,3.3-1.5,4.7c-0.7,2.2-1.4,4.5-2.2,6.7c-0.7,1.9-1.4,3.8-2.1,5.8c-0.6,2-1.6,3.9-2.3,5.9c-0.6,1.7-1.4,3.3-1.8,5
	c-0.1,0.5-0.2,0.9-0.3,1.4c-0.2,0.3-0.4,0.6-0.6,0.9c-0.4,0.8-0.6,1.7-0.9,2.5c-0.3,0.8-0.6,1.5-0.8,2.3c-0.2,0.9-0.5,1.7-0.8,2.6
	c-0.7,1.7-1.5,3.4-2.1,5.2c-0.5,1.8-1.4,3.4-2,5.2c-0.1,0.5-0.1,0.8-0.5,1.1c-0.2,0.2-0.3,0.5-0.4,0.7c-0.2,0.8-0.3,1.4-0.7,2.2
	c-0.3,0.6-0.3,1.7-0.8,2.1c-0.4,0.3-0.4,1-0.6,1.5c-0.1,0.2-0.2,0.5-0.4,0.6c0,0.4-0.1,0.8-0.3,1.1c-0.4,0.9-0.8,1.7-1.1,2.6
	c-0.7,1.7-1.5,3.4-2.2,5.1c-0.8,1.9-1.5,3.9-2.3,5.8c-0.4,0.8-0.9,1.7-1.1,2.6c-0.2,0.9-0.5,1.7-0.9,2.5c-0.8,1.6-1.3,3.3-2.1,5
	c-1.8,3.5-2.9,7.4-4.8,10.9c-0.4,0.8,0.9,0.9,1.6,1c0.8,0.1,1.7,0,2.5,0.2c2.1,0.3,4.2,0.7,6.3,1.3c3.2,1,6.1,2.1,8.9,4.1
	c0.3,0.2,0.6,0.4,1,0.5c-0.1,0.2-0.1,0.5,0.1,0.7c0.3,0.2,0.9,0.2,1.1,0.5c1.7,1.3,2.7,3.2,4.1,4.8c2.2,2.6,3.6,5.9,5,9.1
	c0.8,1.8,1.3,3.6,1.9,5.5c0.6,1.9,0.4,3.9,0.9,5.8c0.2,0.7,0,1.3,0.1,1.9c0.1,0.7,0.6,1.3,0.3,2c-0.1,2-0.2,4-0.3,6
	c-0.1,1.8,0,3.7-0.4,5.4c-0.2,1-0.4,1.9-0.6,2.9c-0.2,1.1-0.2,2.6-0.8,3.5c-0.2,0.3-0.3,0.7-0.3,1c0,0.2,0.2,0.5,0.1,0.7
	c-0.1,0.5-0.6,0.8-0.4,1.4c-0.4,0.7-0.5,1.6-0.7,2.4c-0.2,1.1-0.6,2.1-1,3.1c-0.6,1.8-1,3.7-1.7,5.5c-0.2,0.6-0.6,1.1-0.9,1.6
	c-0.4,0.9-0.4,1.7-0.9,2.6c-0.8,1.6-1.4,3.2-2.4,4.6c-0.5,0.7-0.9,1.5-1.3,2.3c-0.3,0.7-0.9,0.3-1,1.2c-0.1,0.7-0.9,0.6-1.2,1.3
	c-0.4,0.8-0.9,1.6-1.4,2.3c-1.2,1.6-2.3,3-3.6,4.4c-1.2,1.4-2.3,2.7-3.7,3.9c-1.5,1.4-2.9,2.8-4.4,4.2c-6,5.5-12.7,9.9-19.9,13.6
	c-4.3,2.2-8.8,3.6-13.3,4.9c-4.6,1.3-9.4,2-14.2,1.4c0-0.1-1.6-0.8-1.9-0.8c-1.1-0.3-2.1-0.2-3.2-0.8c-0.6-0.4-1.7-0.4-2.1-0.9
	c-0.5-0.7-0.8-1.5-1.4-2c-0.6-0.5-1.2-1-1.7-1.6c-0.5-0.7-0.8-1.7-1.3-2.4c-1-1.4-2.6-2.8-3.1-4.5c0.6,0.1,0.9,0.7,1.2,1.2
	c0.4,0.7,1,1.2,1.5,1.8c0.7,0.8,1.3,1.2,2.2,1.7c0.7,0.4,0.9,1.1,1.6,1.3c0.3,0.1,0.4,0.3,0.4,0.6c0.4,0.1,0.8,0.2,1.2,0.4
	c0.9,0.3,1.7,0.6,2.6,0.9c0.9,0.2,1.8,0.4,2.7,0.3c1-0.1,2,0.2,3.1,0.1c7.6-0.2,15.4-2.9,22.3-5.9c3.7-1.6,7-3.5,10.4-5.7
	c3.4-2.2,6.9-4.7,9.7-7.8c2.9-3.2,5.7-6.6,8.4-9.9c2.5-3.2,5.1-6.8,6.8-10.4c1.8-3.8,3.5-7.6,4.8-11.6c1.3-4.1,2-8.4,2.9-12.6
	c0.3-1.6,0.3-3.2,0.4-4.9c0.1-1.9,0.3-3.7,0.1-5.6c-0.2-1.8-0.4-3.6-0.6-5.4c-0.2-1.6-0.2-4.1-1-5.4c-0.4-0.6-0.5-1.4-0.7-2
	c-0.2-0.7-0.7-1.3-0.9-2c-0.5-1.8-1.6-3.5-2.6-5.1c-1.1-1.7-2.2-3.3-3.5-4.8c-0.6-0.2-0.9-0.8-1.4-1.2c-0.6-0.6-1.5-1-2.2-1.4
	c-0.9-0.5-1.5-0.9-2.5-1.2c-1-0.3-1.9-0.7-2.8-1.1c-2.1-0.9-4.5-0.9-6.8-1c-1.3-0.1-4.8-0.6-5.5,0.8c-0.7,1.4-1.2,2.8-1.7,4.2
	c-0.6,1.4-1.3,2.8-2,4.1c-0.4,0.7-0.5,1.5-0.8,2.3c-0.6,0.9-1.1,1.9-1.6,2.8c-1.6,3.3-3,6.6-4.4,9.9c-0.7,1.7-1.6,3.3-2.4,4.9
	c-0.9,1.9-1.3,3.9-2.1,5.8c-0.8,1.8-1.7,3.5-2.5,5.3c-0.4,0.9-0.8,1.8-1.2,2.7c-0.2,0.5-0.4,0.9-0.6,1.4c-0.2,0.6-0.5,0.8-0.7,1.2
	c-0.2,0.4-0.2,1.1-0.8,1.2c-0.6,0.5-0.8,1.4-1.2,2.1c-0.5,0.8-1,1.7-1.6,2.4c-0.7,0.8-1.1,2-1.7,2.9c-2.1,3.4-4.3,6.8-6.1,10.4
	c-0.8,1.5-2,3-3.1,4.4c-0.5,0.7-1.1,1.4-1.7,2c-0.5,1-1.1,1.9-1.9,2.8c-1.2,1.4-2.1,3-3.2,4.5c-0.5,0.7-1.1,1.3-1.4,2.1
	c-0.5,0.2-1.1,1.3-1.3,1.7c-0.2,0.5-0.8,0.5-0.9,1.1c-0.1,0.7-0.8,0.8-1.1,1.4c-0.1,0.3-0.1,0.6-0.5,0.8c-0.6,0.2-0.2,0.2-0.4,0.7
	c-0.1,0.3-0.4,0.4-0.6,0.7c-0.3,0.5-0.7,0.9-1,1.3c-0.6,0.7-1,1.4-1.6,2c-0.7,0.6-1.4,1.3-2,2c-1.5,1.6-2.7,3.2-4.3,4.7
	c-5.8,5.5-12.6,10.3-20,13.5c-1.7,0.7-3.5,1.2-5.3,1.8c-1.8,0.6-3.7,1.1-5.6,1.5c-4,0.8-8.3,1.3-12.4,1c-3.8-0.3-7.4-1.2-10.9-2.6
	c-1.4-0.6-3.4-1.1-4.4-2.2c-0.7-0.6-1.3-1.3-2.1-1.8c-0.8-0.8-1.4-1.8-2.2-2.6c-1.1-1.7-1.9-3.6-2.9-5.4c-0.8-1.5-1.1-3.4-1.5-5.1
	c-0.9-3.7-0.5-7.5-0.6-11.3c-0.1-2,0.6-4.2,1.1-6.1c0.5-2.1,1.2-4.1,1.8-6.2c1.1-3.7,3-7.7,5.1-10.9c2-3.2,4.3-6.2,7-8.8
	c0.6-0.6,1.1-1.2,1.5-1.9c0.7-0.2,1.2-0.8,1.7-1.4c0.5-0.7,1.3-1,1.8-1.7c0.3-0.3,0.6-0.7,0.8-1.1c0.5-0.1,0.9-0.4,1.2-0.8
	c0.5-0.5,1-1,1.4-1.5c0.3-0.4,0.7-0.9,1.1-1.1c0.2-0.1,0.4-0.2,0.5-0.4c0.2-0.4,0.3-0.3,0.7-0.6c0.7-0.5,1.1-1.3,1.8-1.8
	c1.3-1,2.4-2,3.6-3c1.5-1.2,3.2-2.4,4.8-3.6c4.7-3.6,9.4-7.1,14.3-10.4c2.4-1.6,5-3.1,7.4-4.7c1.3-0.8,2.6-1.6,4-2.3
	c0.6-0.3,1.2-0.6,1.9-0.9c0.3-0.2,0.6-0.3,1-0.4C402.6,274,402.9,273.7,403.2,273.6C403.3,274.2,402.9,273.7,403.2,273.6z
	 M352.1,323.3c0-0.3-0.2-0.1-0.2,0c-0.3,0.1,0,0.3,0,0C351.9,323.3,352,323.3,352.1,323.3c0,0.9-0.7,1.4-1,2.2
	c-0.2,0.6-1,0.6-0.9,1.4c-0.2-0.1-0.3-0.5-0.5-0.4c-0.5,0.2-0.9,1.5-1.2,2c-0.6,1.1-0.8,2.6-1.7,3.5c-0.1,1.3-0.3,2.5-0.8,3.7
	c-0.2,0.6-0.5,1.1-0.9,1.6c-0.4,0.5,0.1,0.6,0,0.9c-0.1,0.1-0.3,0.1-0.4,0.1c0.4,0.5-0.4,1.9-0.7,2.4c-0.6,0.9-0.7,2.9-0.9,4.1
	c-0.6,2.8-0.2,5.7,0.3,8.5c0.5,2.5,1.4,4.9,2.4,7.3c0.5,1.1,0.8,2,1.7,2.8c0.4,0.4,0.3,0.7,0.9,1c0.7,0.4,1.4,0.8,2.2,1.2
	c-0.1,0.4-0.9,0.2-0.9,0.1c-0.1,0.3,1.3,1.2,1.5,1.3c1.1,0.6,2.3,1,3.5,1.3c1.2,0.3,2.2,0.4,3.5,0.4c0.9,0,2.1-0.1,2.8,0.5
	c-0.9,0.1-2.4-0.4-3.1,0.2c3.4,0.9,7.1,0.5,10.6,0.1c1.6-0.1,3.1-0.6,4.6-0.9c0.7-0.1,1.4-0.2,2-0.5c0.7-0.3,1.6-0.3,2.4-0.6
	c1.3-0.5,2.7-1,4-1.6c0.6-0.3,1.2-0.6,1.9-0.8c0.5-0.1,0.8-0.1,1.2-0.4c0.3-0.3,0.6-0.5,1-0.7c1.2-0.7,2.4-1.5,3.7-2.1
	c0.5-0.2,0.5-0.9,1-1.3c0.1-0.1,1-1.1,0.9-1.1c0,0-1.2,0.7-1.3,0.8c-0.6,0.4-1.2,0.8-1.8,1.3c-1.3,0.9-3,1.8-4.4,2.4
	c-1.5,0.6-2.9,1.3-4.4,1.9c-0.8,0.3-1.5,0.6-2.3,0.9c-1.1,0.3-0.4-0.2-0.6-0.3c0,0-0.2,0.2-0.5,0.2c-0.2,0-0.4-0.2-0.6-0.3
	c-0.6-0.1-2,0.9-2.5,1.2c-0.9,0.4-1.8,0.5-2.7,0.8c-1.3,0.5-0.5-0.7-0.5-0.7c0,0-1,0.1-1.2,0.2c-0.6,0-1.5,0.2-2-0.2
	c5.6-0.3,11-1.9,16.1-4.3c0,0.1-0.1,0.4-0.1,0.4c0,0,0.3-0.2,0.3-0.2c0-0.1,0-0.1-0.2-0.2c0.8-0.5,1.5-1,2.3-1.4
	c0.4-0.2,0.9-0.4,1.3-0.5c0.1-0.3,0.4-0.4,0.7-0.6c0.6-0.2,1.1-0.6,1.6-0.9c0.3-0.2,0.6-0.4,0.9-0.4c0.6-0.1,0.7-0.5,1.2-0.9
	c1.3-1.1,2.7-2,4-3c1.7-1.3,3.1-3,4.7-4.4c3.3-3,6.4-6,9.4-9.4c1.4-1.6,2.8-3.2,4.1-4.8c0.6-0.8,1.5-1.5,1.8-2.5
	c0.3-0.8,0.9-1.5,1.4-2.2c0.9-1.2,1.7-2.6,2.5-3.9c1-1.7,2-3.4,2.9-5.1c1.9-3.6,4.2-7,6-10.7c0.6-1.2,1.3-2.9,2.3-3.8
	c0.5-0.4,0.7-1.1,1-1.6c0.5-0.8,0.8-1.7,1.4-2.4c0.9-1.2,1.5-3,2.2-4.4c0.8-1.6,1.7-3.3,2.6-4.9c0.5-0.8,0.9-1.3,1.1-2.2
	c0.2-0.7,0.6-1.3,0.9-1.9c1-1.7,1.5-3.6,2.3-5.4c1.6-3.9,3.4-7.8,4.9-11.8c1.4-3.8,3.1-7.4,4.5-11.2c0.2-0.4,0.8-1.8-0.2-1.4
	c-0.5,0.2-0.9,0.6-1.5,0.4c-0.3,0.4-1.1,0.3-1.6,0.4c-0.2,0-0.5,0.1-0.6,0.4c-0.6,0.1-1.2,0.2-1.8,0.4c-1.8,0.5-3.6,1-5.4,1.4
	c-2,0.4-3.9,1-5.7,1.8c-1.9,0.4-3.7,1.1-5.5,1.8c-2,0.8-4,1.4-6,2.3c-1.7,0.7-3.2,1.8-4.9,2.3c-0.4,0.1-0.7,0.1-1.1,0.1
	c-0.3,0.3-0.7,0.5-1,0.8c-0.9,0.5-1.8,0.9-2.8,1.3c-0.7,0.3-1.2,0.8-1.8,1.1c-0.5,0.2-1.2,0.2-1.6,0.7c-0.5,0.6-1.5,0.7-2.2,1.2
	c-0.8,0.6-1.9,0.9-2.7,1.4c-4.8,3-9.6,5.7-14.4,8.7c-2.5,1.6-5.1,3.1-7.3,5.1c-2.3,2-4.8,3.6-7.2,5.4c-2.5,1.9-5,4-7.3,6.2
	c-1.1,1-2.2,2.1-3.3,3.1c-1.2,1.1-2.1,2.7-3.1,3.9c-1.9,2.3-4,4.5-5.7,6.9c-0.4,0.5-0.8,1-1.2,1.5c-0.3,0.4-0.3,1.3-0.7,1.5
	C352.8,322,353.1,323.3,352.1,323.3C352,323,353.2,323.3,352.1,323.3z M353,321.6c-0.1-0.1-0.4,0.1-0.2,0.2
	C352.9,321.9,353.2,321.7,353,321.6z M391.4,359.5c0.2-0.6,1.9-1,1.2-1.7C392.6,358.6,390.7,358.8,391.4,359.5z M387.6,360.7
	c-0.1-0.1-0.4,0.1-0.2,0.2C387.4,361,387.7,360.8,387.6,360.7z M385,362.2c-0.1-0.1-0.4,0.1-0.2,0.2
	C384.8,362.5,385.1,362.3,385,362.2z M384.2,362.6c-0.1-0.1-0.4,0.1-0.2,0.2C384.1,362.9,384.4,362.8,384.2,362.6z M377.5,365.8
	c0.5,0.1-0.1,0.2,0.7,0.2c0-0.2,0.1-0.7-0.2-0.7C378,365.6,377.6,365.5,377.5,365.8C377.7,365.8,377.6,365.5,377.5,365.8z
	 M357.4,369.4c0.4-0.7-1-0.7-1-0.2C356.8,369.1,357.1,369.2,357.4,369.4z"/>
<path fill-rule="evenodd" clip-rule="evenodd" d="M379.9,37.2c0,0.9,0.2,2-0.2,2.8c-0.3,0.9-0.8,1.7-1.2,2.5c-0.9,1.7-2,3.4-2.7,5.3
	c-0.3,0.8-0.8,1.4-1,2.2c-0.1,0.4-0.2,0.8-0.3,1.2c-0.3,0.1-0.5,0.3-0.7,0.6c-0.8,1.5-1.3,3.1-2.2,4.6c-1,1.6-1.1,3.4-1.8,5.1
	c-0.7,1.7-1.6,3.4-2.5,5c-0.9,1.7-1.5,3.5-2.1,5.3c-0.7,2-1.6,4-2.5,5.9c-3.5,7.8-6.7,15.7-9.8,23.7c-2.9,7.6-6.3,15.1-9,22.8
	c-0.1,0.3-0.2,0.6-0.3,0.9c1.3,0.2,2.9-0.5,4-1.1c0.7-0.3,1.5-0.4,2.2-0.6c0.9-0.3,1.9-0.5,2.8-0.5c3.8-1.2,8.4-1.6,12.4-1.2
	c2,0.2,4,0.3,5.9,0.6c1.8,0.3,4,1,5.1,2.6c0.5,0.8,0.9,1.6,1.4,2.4c0.5,0.9,0.6,1.8,0.7,2.8c0.3,2,0.4,4,0.3,6
	c-0.2,2-0.8,3.9-0.8,5.9c0,2.1-0.9,4.3-1.4,6.4c-0.9,3.8-1.9,7.7-3.7,11.2c-0.8,1.6-1.7,3.1-2.8,4.5c-1.1,1.4-2,3.1-3.3,4.2
	c-0.5,0.4-0.7,0.9-1.2,1.4c-0.5,0.5-1,1.2-1.5,1.7c-1.3,1.5-2.6,3.2-3.9,4.7c-0.6,0.7-1,1.3-1.7,1.8c-0.6,0.4-1,0.9-1.5,1.4
	c-0.5,0.5-1.3,0.7-1.7,1.2c-0.5,0.8-1.2,1.2-2,1.6c-1.5,0.8-2.7,1.8-4.2,2.7c-1.6,0.9-3.3,1.8-4.7,3c-1.6,0.4-2.9,1.5-4.3,2.3
	c-0.6,0.3-1.3,0.5-1.7,1c-0.6,0.3-1.5,0.2-2,0.7c-1.2,1.1-4,1.5-5.6,1.9c-1,0.3-2.1,0.5-3.1,0.7c-1.3,0.3-2.5,0.2-3.8,0.2
	c-0.4,0-1.1-0.2-1.2,0.3c-0.1,0.3,0,0.6,0.1,0.9c0.2,0.7,0.6,1.4,0.5,2.2c0.5,0.6,0.6,1.4,0.8,2c0.3,1,0.6,2,0.9,3
	c1.1,3.9,2.1,8.1,4,11.7c0.3,0.6,0.8,1.2,0.8,1.9c0,0.5,0.6,1,0.8,1.6c0.3,0.6,0.7,1.2,0.9,1.8c0.3,1,0.6,2,1.1,3
	c0.4,0.8,0.8,1.5,1.2,2.3c0,0.6,0.3,1.1,0.7,1.5c0.4,0.5,0.4,1.2,0.8,1.5c0.6,0.5,0.4,1.4,0.9,2c0.6,0.6,1,1.4,1.3,2.2
	c0.3,0.7,0.9,1.4,1.2,2.1c0.3,0.7,0.8,1.3,1.1,2c0.2,0.3,0.3,0.7,0.6,0.9c0.4,0.4,0.3,0.7,0.6,1.1c2.1,2.7,4.5,5.3,7.1,7.5
	c0.5,0.6,1.1,1.1,1.8,1.5c0.8,0.4,1.4,1.1,2.1,1.6c1.7,1.2,3.5,2,5.4,2.8c1.9,0.8,3.6,1.4,5.7,1.6c2,0.3,4,0.5,6,0.5
	c2.1,0,4.1-0.5,6.1-1c2.1-0.5,4.2-1.1,6-2.1c1.6-0.8,3-1.9,4.7-2.7c1.9-0.9,3.7-2.1,5.3-3.6c0.5-0.4,0.9-0.2,1.3-0.8
	c0.2-0.4,1.1-0.8,1.5-1c0.3-0.6,0.9-0.9,1.3-1.4c0.3-0.3,0.3-0.5,0.7-0.8c0.5-0.3,0.9-0.7,1.3-1.1c1.3-1.3,2.4-2.7,3.7-3.9
	c0.4-0.3,1.1-1,1.4-1.4c0.5-0.8,0.8-0.4,0.3,0.4c-0.5,0.6-1.1,1.1-1.6,1.6c-0.6,0.6-0.9,1.3-1.6,1.8c-1.5,1.3-2.7,2.9-4.1,4.3
	c-1.4,1.4-2.8,2.8-4,4.3c-0.6,0.7-1.6,1.2-2.3,1.8c-0.9,0.7-1.7,1.5-2.6,2.1c-3,2.3-6.2,4.5-9.7,5.6c-3.7,1.2-7.7,2.3-11.7,2.1
	c-3.6-0.2-7.1-0.5-10.5-1.5c-3.3-1-6.5-2.4-9.3-4.4c-6.1-4.3-11.2-10.4-15.3-16.7c-4.6-7.1-7.5-15.3-10.1-23.2
	c-0.6-1.8-1.3-3.7-1.9-5.5c-0.7-1.9-1.1-4-1.7-5.9c-0.5-1.9-0.8-3.9-1.5-5.8c-0.4-1.1-0.9,0.2-1,0.7c-0.2,0.6-0.7,1.4-0.6,2
	c-0.4,1.9-1.2,3.7-2,5.5c-0.8,1.7-1.5,3.6-2.5,5.2c-1.8,2.9-2.9,6-4.5,9c-0.4,0.8-0.8,1.3-1,2.2c-0.2,0.7-0.6,1.4-0.7,2.1
	c-0.2,0.9-0.9,1.7-1.3,2.5c-0.6,1-1.1,2.1-1.6,3.2c-0.7,1.6-1.4,3.3-2.2,4.9c-0.4,0.8-0.5,1.4-1,2.1c-0.5,0.7-0.7,1.6-1.2,2.3
	c-0.4,0.6-0.5,0.8-0.7,1.5c-0.2,0.7-0.5,1.3-0.8,2c-0.5,1.2-0.9,2.4-1.4,3.6c-0.5,1.3-1.2,2.6-1.7,3.9c-0.7,1.6-1.4,3.2-2,4.8
	c-1.2,3-1.8,6-2.6,9.1c-0.3,1.5-0.5,3-0.7,4.5c-0.2,1.6-0.5,3.3-0.3,4.9c-1,0.1-0.3-1.4-1-1.7c-0.7,0.7,0.3,1.7-0.2,2.4
	c-1.1-2-0.7-4.6-1.2-6.7c-1.2,0.3,0,2.1-0.2,2.9c-0.8,0.7,0.6,2.1-0.2,2.9c-0.7-0.7-0.5-2.7-0.8-3.7c-0.1-0.5-0.5-0.8-0.7-1.3
	c-0.1-0.3,0.2-1.6-0.2-1.4c-0.6,0.2-0.5,0.1-0.4-0.5c0.2-1,0.3-2.1,0.4-3.1c0.3-2.2,0.6-4.5,0.9-6.7c2.1-8.6,5.6-16.9,9.1-25
	c1.8-4,3.5-7.9,5.3-11.8c1.8-3.8,3.8-7.6,5.6-11.4c3.8-8,7.5-16.2,11.2-24.2c1.8-3.9,3.9-7.6,5.5-11.5c1.7-4.3,3.5-8.5,5.4-12.7
	c0.9-2,1.8-4.1,2.6-6.2c0.7-2.1,1.6-4.1,2.4-6.2c1.5-4.2,3.7-8.2,5.1-12.5c-2.8,1.4-4.7,3.9-7,5.9c-1.2,1.1-2.3,2.4-3.5,3.5
	c-1.4,1.4-2.5,2.8-3.8,4.3c-1.1,1.3-2.2,2.6-3.1,4c-0.7,1.1-1.9,1.7-2.5,2.8c-0.2,0.3-2.4,3.3-2.6,2.7c-0.1-0.2,1.7-1.5,0.7-1.8
	c1.4-1.1,2.3-2.6,3.2-4c1.1-1.8,2.2-3.3,3.6-4.9c2.7-3.2,5.7-6.1,8.7-9c1.4-1.4,2.8-2.7,4.4-3.9c0.8-0.6,1.6-1.2,2.4-1.8
	c0.5-0.4,0.8-0.4,1-1.1c0.2-0.7,0.5-1.4,0.7-2.1c1.5-4.3,3-8.5,4.7-12.7c1.6-4.1,3.3-8.2,4.8-12.3c0.6-1.7,1.5-3.5,1.9-5.3
	c0.8-1.8,1.3-3.7,2.1-5.4c0.8-1.9,1.4-3.8,2.1-5.7c0.7-2.1,1.7-4.1,2.5-6.1c0.8-1.9,1.5-3.8,2.5-5.6c0.5-2,1.4-3.9,2.3-5.8
	c0.8-1.8,1.4-3.7,2.3-5.5c0.9-1.8,1.9-3.7,3-5.4c1-1.6,1.1-3.8,1.7-5.6c0.6-1.8,1.3-3.6,2.3-5.3c0.9-1.7,1.6-3.5,2.4-5.3
	c0.4-0.9,0.8-1.8,1.2-2.6c0.2-0.4,0.5-0.8,0.7-1.2c0.4-0.3,0.8-0.6,1.1-1c0.3-0.4,0.2-0.7,0.6-0.9c0.3-0.2,0.6-0.3,0.9-0.4
	c0.6-0.2,1.3-0.4,2-0.4C377.8,35.2,379.2,35.8,379.9,37.2C379.9,38,378.6,34.5,379.9,37.2z M327.8,182.9c1.2-1.1,3-1.5,4.3-2.4
	c0.6-0.4,1.2-0.9,1.9-1.2c1-0.4,1.8-1,2.7-1.6c0.7-0.4,1.3-0.9,1.9-1.4c0.5-0.5,1.1-0.4,1.6-1c0.5-0.5,1.2-0.8,1.7-1.3
	c0.9-0.8,1.7-1.5,2.6-2.2c3.1-2.5,6-5.3,8.8-8.2c1.3-1.4,2.9-2.5,4.2-3.9c1.4-1.5,2.8-3.1,4.1-4.7c1.3-1.5,2.3-3.1,3.5-4.7
	c1.3-1.9,2.6-3.5,3.5-5.6c0.9-1.9,2.1-3.9,2.4-6c0.4-2.2,0.8-4.4,1-6.7c0.1-1.7,0.3-4.2-0.8-5.6c-0.9-1.2-2.2-1.8-3.6-2.2
	c-3.4-1-7.2-0.8-10.6-0.2c-3.1,0.5-6.2,1.1-9.2,2.1c-1.4,0.5-2.7,1.1-4.1,1.7c-0.7,0.3-1.3,0.6-2,0.9c-0.3,1-0.6,2-1,2.9
	c-1.2,3.3-2.7,6.6-3.8,10c-0.4,1.3-1.1,2.4-1.5,3.8c-0.4,1.4-0.5,2.8-1,4.2c-0.4,1.2-0.8,2.6-1.4,3.7c-0.8,1.4-0.7,3.1-1.6,4.5
	c-1,3.2-2.7,6.1-4.2,9.1c-1.6,3-3,6.1-4.2,9.4c-1.1,3-3.1,5.6-4.1,8.6C322.3,185,324.9,183.7,327.8,182.9
	C328.8,182.1,325,183.6,327.8,182.9z"/>
<path fill-rule="evenodd" clip-rule="evenodd" d="M56.4,61.4c0-0.2,0.3-0.2,0.5-0.2C56.9,61.4,56.6,61.4,56.4,61.4z"/>
<path fill-rule="evenodd" clip-rule="evenodd" d="M164.2,190.6c0.3,0.3,1.4-1.2,1.6-1.5c0.8-1.3,1.9-2.1,2.6-3.4
	c0.3-0.6,0.7-1.2,1.3-1.6c0.5-0.8,1.1-1.6,1.7-2.4c1.3-1.7,2.8-3.1,4.3-4.6c2.4-2.5,4.9-5,7.8-6.9c1.5-1,3.1-1.8,4.7-2.3
	c1.7-0.6,3.4-0.8,5.2-0.8c1.2,0,3.1-0.3,4,0.7c0.8,1.3,1.2,3.8,1.2,5.3c0,1.8-0.2,3.6-0.5,5.3c-0.1,0.7-0.1,1.4-0.3,2.1
	c-0.2,0.8-0.7,1.5-0.7,2.3c0,0.4,0,0.7,0.2,1.1c-0.3,0.3-0.5,0.7-0.7,1c-0.4,0.8-0.6,1.7-0.9,2.6c-0.5,1.8-1.7,3.4-2.5,5
	c-0.9,1.9-1.9,3.8-2.9,5.6c-0.5,0.9-0.8,1.9-1.1,2.8c-0.4,1.1-0.9,1.9-1.1,3.1c-0.3,1.6-1,3.2-1.4,4.8c-0.5,2-1.1,4-1.3,6
	c-0.1,0.7,0.1,2-0.3,2.6c-0.2,0.5-0.8,0.5-0.7,1.1c0.4,1.6,0.6,3.5,1.6,4.8c0.9,1.1,3.1-0.2,4-0.9c0.5-0.4,1-0.9,1.5-1.4
	c0.7-0.7,1.6-1.1,2.4-1.8c0.7-0.6,1.3-1.2,1.9-1.9c0.8-0.8,1-0.9,0.9-2c-0.1-0.8-0.2-1.7-0.1-2.5c0.1-0.8,0-1.5,0.2-2.2
	c0.2-0.8,0.4-1.6,0.3-2.4c0.2-0.8,0.5-1.5,0.7-2.3c0.2-0.9,0.3-1.8,0.3-2.7c0-0.6,0.9-1.7,0.5-2.2c0.2-0.7,0.9-0.9,0.5-1.7
	c0.4-0.8,0.7-1.7,0.9-2.6c0.1-0.5,0.2-1,0.3-1.5c0.3-0.3,0.6-0.6,0.7-1c0.3-0.7,0.7-1.4,1-2.2c0.2-0.7,0.8-1.1,1.1-1.7
	c0.4-0.7,0.8-1.4,1.2-2.2c0.4-0.8,0.5-1.5,1.2-2.2c0.7-0.7,1.2-1.5,1.6-2.3c2.3-2.7,4.4-6.3,7.4-8.2c1-0.6,1.4-1.7,2.3-2.3
	c1.2-0.7,1.9-1.7,3-2.5c2.3-1.7,4.9-2.9,7.1-4.8c1.7-1.5,3.8-3.2,6.1-2.2c0.4,0.2,0.7,0.3,1.2,0.4c0.8,0.1,0.9,0.2,1.6,0.6
	c0.4,0.2,1,0.9,1.4,0.8c0.5-0.1,1-0.4,1.5-0.4c2.4-0.3,3.5,2.6,4.9,4.1c0.4,0.4,0.3,1,0.5,1.5c0.2,0.7,0.4,1.3,0.6,1.9
	c0.4,1.5-0.1,2.9-0.1,4.5c-0.6,1.4-1.1,2.9-1.7,4.3c-0.5,1.1-1.1,2.1-1.4,3.2c-0.1,0.3-0.2,0.8-0.6,0.9c0.2,0.5,0.6,0.8,1,1.2
	c0.5,0.4,0.8,0.8,0.7,1.4c-0.1,0.5,0,0.7,0.3,1.1c-0.5,0.1,0,1.1,0.1,1.3c0.3,0.5-0.7,2.1-0.9,2.6c-0.8,2.1-1.7,4.3-2.6,6.4
	c-0.5,0.6-0.7,1.4-1,2.2c-0.6,0.2-0.6,0.9-0.7,1.4c-0.1,0.7-0.5,1.2-0.7,1.9c-0.3,1-0.4,2-0.7,2.9c-0.5,1.7-0.5,3.7-0.6,5.5
	c0,1-0.2,1.8,1.1,1.9c0.8,0.1,1.5-0.4,2.2-0.8c0.6-0.4,1.4-0.6,1.9-1.1c0.6-0.6,1.3-1.2,2-1.8c0.7-0.6,1.3-1.2,1.9-1.8
	c0.3-0.3,0.6-0.6,0.9-0.9c0.4-0.3,0.3-0.7,0.7-1c2.4-2.2,4.3-5,6.3-7.6c2.4-3.2,4.6-6.6,7.1-9.8c0.6-0.7,1.2-1.5,1.8-2.2
	c0.3-0.4,0.6-0.7,1-1c0.1-0.4,0.2-0.8,0.3-1.1c0.3-0.8,0.7-1.5,1-2.3c0.2-0.5,0.8-1.4,0.8-1.8c0-0.3,0.5-1.3,0.6-1.6
	c0.3-0.8,0.8-1.5,1.1-2.3c0.4-0.8,0.6-1.6,1-2.3c0.4-0.7,0.8-1.2,1-2c0.2-0.8,1-1.4,1.1-2.2c0.5-0.5,0.7-1.2,1.3-1.7
	c0.4-0.3,0.5-0.1,0.7-0.6c0.2-0.4,0.5-0.8,0.9-1c1-0.7,2-0.5,3.1,0c1.1,0.5,1.7,0.8,2.1,1.9c0.3,0.9,0.4,1.9,0.8,2.9
	c-0.6,2.2-1,4.4-1.8,6.5c-1.4,4-3.3,7.7-5.2,11.5c-2.4,4.7-4.5,9.5-7,14.2c1.2-0.2,1.1-1.8,2.2-2.2c0.2-0.7,0.9-1.1,1.3-1.7
	c0.6-0.8,1.2-1.8,1.9-2.6c2.4-3.1,4.7-6.3,7.1-9.4c0.6-0.7,1.1-1.5,1.7-2.1c0.6-0.7,1.1-1.4,1.6-2.1c1.2-1.5,2.4-3.1,3.8-4.5
	c0.7-0.8,1.5-1.6,2.2-2.4c0.7-0.7,1.5-1.2,2.2-1.8c1.4-1.3,2.8-2.5,4.2-3.8c1.3-1.2,3-2,4.1-3.4c0.4-0.4,0.8-0.8,1-1.3
	c0.4-0.8,1.3-0.2,2-0.2c1.1,0.1,1.3,0.4,2.1,1.2c0.5,0.6,1.2,1.5,1.3,2.3c0.2,1.9,0.7,3.8,0.7,5.7c0,1-0.4,1.9-0.6,2.9
	c-0.2,0.8-0.3,1.7-0.6,2.4c-0.7,1.9-0.9,3.9-1.9,5.7c-0.4,0.8-0.7,1.7-1,2.6c-0.5,0.7-0.8,1.4-0.9,2.2c-0.1,0.8-0.8,1.6-1.1,2.4
	c-0.2,0.6-0.6,1.2-0.9,1.8c-0.3,0.6-0.7,0.4-0.7,1c-0.1,0.6-0.4,1.1-0.6,1.6c-0.1,0.5-0.4,0.8-0.5,1.3c-0.1,0.4-0.1,1-0.5,1.2
	c-0.5,1.5-1.2,3-1.7,4.6c-0.3,0.4-0.3,1-0.5,1.4c-0.1,0.2-0.8,0.5-0.2,0.6c-0.8,1.3-0.8,3.2-1.2,4.7c-0.2,0.8-0.7,1.7-0.7,2.5
	c0,1.1,0,2.2,0,3.3c0,0.8-0.1,1.7-0.3,2.5c-0.1,0.3-0.2,0.7-0.4,1c-0.4,0-0.9-0.1-1.3-0.2c-1.6-0.4-2.7-1.5-3.9-2.5
	c-0.6-0.5-0.6-2-0.7-2.8c-0.2-1-0.3-2.1-0.4-3.1c-0.3-2.2,0.1-4.5,0.4-6.7c0.5-3.8,1.5-7.6,2.7-11.2c1.2-3.8,3-7.3,4.4-11
	c0.3-0.9,0.9-1.4,1.3-2.2c0.4-0.8,0.7-1.6,1-2.4c0.3-0.8,0.7-1.6,1.2-2.4c0.2-0.3,1.4-2.4,0.5-2.2c-0.5,0.1-0.8,0.8-1.1,1.2
	c-0.3,0.4-0.9,0.5-1.2,1.1c-0.4,0.6-1.1,0.9-1.7,1.5c-0.8,0.8-1.4,1.6-2.3,2.2c-1.1,1.6-2.3,3.1-3.5,4.5c-1.3,1.6-2.4,3.5-3.8,4.9
	c-2.4,2.6-4.2,5.6-6.3,8.4c-2.2,2.9-4.4,5.8-6.6,8.7c-2,2.6-3.3,5.8-5.7,8c-0.4,0.7-0.7,1.4-1.2,2c-0.4,0.6-0.1,1.3-0.4,2
	c-0.2,0.5-0.6,0.7-0.2,1.3c0.3,0.5,0.7,0.7,0.6,1.3c-1.1-0.1-1.6-1-2.1-1.9c-0.7-1.2-1.6-2.2-2.3-3.4c-0.1-1.3-0.5-2.6-0.9-3.9
	c-0.4-1.4-0.3-3.6,0-5c1-6.2,3.1-12.1,5.2-18c-1.1,0.5-2,2.4-2.6,3.4c-1.1,1.6-2.1,3.2-3.1,4.9c-2,3.4-4.2,6.7-6.4,10
	c-0.5,0.8-1.1,1.6-1.6,2.4c-0.2,0.4-0.5,0.8-0.7,1.3c-0.3,0.6-0.3,0.2-0.7,0.6c-0.4,0.4-0.6,0.8-1,1.2c-0.5,0.5-1.1,1-1.4,1.7
	c-0.7,1.3-2.2,2.2-3.2,3.2c-0.6,0.6-1.2,1.2-1.9,1.7c-0.5,0.3-1.6,0.5-2.2,0.7c-1.4,0.3-2.9-0.9-3.9-1.6c-0.3-0.2-0.6-0.4-0.9-0.5
	c0-0.4-0.2-0.6-0.4-0.8c-0.8-0.7-1.1-1.7-1.5-2.7c-0.3-1-0.7-2-1-3c0.1-0.9,0-1.8-0.1-2.8c-0.2-1.9,0.2-3.8,0.2-5.7
	c0-0.4,0.2-1-0.4-0.9c-0.2,0-0.4,0.2-0.5,0.4c-0.2,0.4-0.5,0.8-0.7,1.2c-0.2,0.6-0.8,1-1.1,1.5c-0.4,0.8-1.1,1.5-1.6,2.4
	c-0.4,0.7-0.7,1-1.2,1.5c-0.5,0.6-0.8,1.4-1.4,2c-0.6,0.6-1.2,1.2-1.7,1.9c-0.5,0.8-1.5,1.5-2.2,2.2c-1.6,1.7-3.1,3.4-4.8,5
	c-0.9,0.9-1.9,1.9-2.8,2.9c-0.7,0.8-2,1-3,1.1c-4.5,0.5-8.6-3.4-10.1-7.4c-1.1,0.3-1.5,2-2.3,2.8c-0.5,0.4-0.7,0.9-0.6,1.6
	c-0.8,0.4-1.4,1.1-2,1.8c-0.5,0.6-0.9,1.3-1.4,1.8c-0.7,0.2-1.2,0.6-1.8,1c-1.3,0.8-3.2,0.6-4.5-0.2c-0.8-0.5-2.5-1.5-2.8-2.3
	c-0.3-0.7-1-1.1-1.2-1.8c-0.2-1-0.7-1.9-1.2-2.8c-0.8-1.5-0.6-4.1-0.7-5.8c-0.1-2.2,0.2-4.2,0.4-6.4c1-8.2,4.5-16,8.5-23.2
	c1.7-3.1,3.6-6.2,5-9.5c0.7-1.6,1-3.3,1-5c-1.2-0.5-3.1,0.9-4.1,1.3c-0.7,0.2-1.2,0.8-1.8,1c-0.8,0.3-1.6,0.7-2.3,1.2
	c-1.6,1.2-3.1,2.4-4.5,3.9c-3,3-5.9,6.2-8.5,9.5c-2.5,3.3-5.2,6.4-7.6,9.8c-2.2,3.2-5,6.1-7.6,9c-1.2,1.4-2.4,2.8-3.5,4.2
	c-1.2,1.7-2.1,3.5-3.2,5.3c-1.1,1.7-2.1,3.4-3.1,5.2c-0.4,0.8-0.9,1.4-1.3,2.1c-0.4,0.7-0.6,1.5-1,2.3c-0.2,0.3-0.3,0.6-0.6,0.8
	c0,0.3,0,0.6-0.2,0.9c-0.3,0.5-0.4,1-0.7,1.5c-0.2,0.5-0.2,1.2-0.6,1.6c-0.5,0.4-1.8,0.1-2-0.5c-0.3-0.7-0.7-0.5-1.4-0.7
	c-0.6-0.2-0.9-0.7-1.4-1c-0.7-0.6-0.8-1.2-0.8-2.1c-0.1-1.1,0-2.1,0.3-3.2c0.1-0.4,0.3-0.9,0.5-1.3c-0.1-0.4-0.1-0.9,0-1.3
	c0.1-0.8,0.1-1.8,0.5-2.5c0.9-2,2-4,3.1-5.9c2-3.7,4.1-7.4,6.3-11c0.9-1.6,1.8-3.1,2.8-4.7c0.5-0.8,0.9-1.6,1.2-2.4
	c0.4-0.9,1.1-1.7,1.5-2.7c0.8-1.5,1.8-3,2.4-4.5c0.7-1.6,1.6-2.9,2.4-4.5c0.9-1.8,1.7-3.5,2.8-5.2c1.1-1.9,2.2-3.7,3.2-5.7
	c0.5-0.9,1-1.8,1.5-2.6c0-0.4,0-0.8,0-1.3c0-0.6,0.2-0.5,0.5-0.9c0.4-0.6,0.6-1.3,0.9-2c0.4-0.8,0.9-1.6,1.3-2.4
	c0.9-1.5,1.6-3.1,2.5-4.6c0.9-1.6,1.9-3.2,2.4-5c0.2-0.8,1-1.4,1.5-2.1c0.6-0.8,0.9-1.5,1.3-2.4c0.8-1.9,1.6-3.8,2.6-5.6
	c1.8-3.3,3.7-6.7,5.3-10.1c1.8-3.7,3.5-7.5,5.5-11.1c0.9-1.7,1.9-3.4,2.8-5.2c0.8-1.6,1.6-3.4,2.5-4.9c0.4-0.7,0.6-1.5,1-2.3
	c0.5-0.7,0.9-1.4,1.3-2.2c0.9-1.8,1.9-3.5,2.8-5.2c4-7.5,8.3-14.9,13.4-21.8c1.2-1.6,2.4-3.1,3.7-4.6c0.6-0.7,1.3-1.5,1.9-2.2
	c0.6-0.7,1.3-1,1.8-1.7c0.4-0.6,1.1-0.7,1.5-1.3c0.6-0.7,1.3-1.2,2.1-1.6c1.1-1.2,2.5-2.3,3.9-3c0.6-0.3,0.5-0.8,1.2-0.9
	c0.7-0.1,1.1-0.4,1.8-0.2c0.6,0.1,1.4,0.4,1.7,1c0.5,0.9,0.8,1.7,0.5,2.7c-0.5,1.6-1.7,2.4-2.5,3.8c-0.9,1.4-2.4,2.5-3.4,3.8
	c-0.9,1.1-1.9,2.1-2.8,3.1c-0.2,0.2-0.3,0.5-0.4,0.8c-0.3,0.3-0.6,0.5-0.9,0.8c-0.8,0.8-1.4,1.8-2,2.7c-2.3,3.1-4.8,6-6.6,9.4
	c-2,3.7-4.2,7.3-6.1,11c-1,1.8-1.9,3.6-2.9,5.4c-0.5,0.9-1.1,1.7-1.5,2.6c-0.4,1-0.9,2-1.5,2.9c-1,1.5-1.4,3.3-2.4,4.8
	c-1.1,2-2,4.2-2.9,6.2c-0.8,1.8-1.9,3.5-2.7,5.2c-0.9,1.8-2.1,3.6-2.8,5.5c-0.8,2.3-2.1,4.3-3.2,6.4c-1.3,2.7-2.7,5.3-4,8
	c-0.5,1.1-1.1,2-1.6,3.1c-0.2,0.5-0.5,1-0.8,1.4c-0.3,0.5-0.3,1-0.5,1.5c-0.9,2.4-2.2,4.6-3.4,6.8c-2.6,4.8-4.7,9.9-7.5,14.6
	c-0.3,0.5-0.5,0.9-0.7,1.4c-0.1,0.5-0.5,0.7-0.7,1.1c-0.5,0.9-0.7,2-1.3,2.9C166.9,185.1,165.7,188,164.2,190.6
	C164.7,191.1,165.6,188,164.2,190.6z M235,185.3c0.2-0.7,0.6-1.4,1-2c0.2-0.3,0.4-0.7,0.5-1c0.1-0.3,0.2-0.5,0.2-0.8
	c0.2,0,0.3-0.1,0.4-0.2c0.2-0.4,0-1,0.4-1.4c0.5-0.5,0.4-1.3,0.9-1.8c0.4-0.4,0.1-1.4,0.2-2c0.1-1,0.4-2,0.3-3
	c-0.1-1.5-1-3.8-2.4-4.6c0,0.7-0.8,1.1-1.3,1.6c-0.3,0.3-0.6,0.7-0.9,1c-0.4,0.2-0.8,0.4-1.2,0.6c-1.6,0.9-3.1,2-4.7,2.9
	c-0.8,0.4-1.6,0.8-2.4,1.1c-0.6,0.2-0.8,0.8-1.4,1c-0.5,0.2-0.9,0.8-1.3,1.2c-0.6,0.6-1.3,1.1-1.8,1.7c-1,1.3-2.2,2.3-3.2,3.6
	c-1.1,1.4-2.7,2.6-3.4,4.1c-0.7,1.5-1.8,2.6-2.7,3.9c-1.1,1.7-2.3,3.3-3.3,5.1c-0.5,0.8-1,1.6-1.3,2.5c-0.3,0.8-0.6,1.6-1,2.4
	c-0.3,0.8-0.4,1.7-0.7,2.5c-0.1,0.4-0.3,0.8-0.5,1.1c-0.1,0.4-0.1,0.9-0.3,1.3c-0.2,0.4-0.4,0.1-0.3,0.6c0.1,0.3,0,0.6-0.1,0.9
	c-0.3,0.8-0.5,1.6-0.7,2.5c-0.5,2-0.6,3.9-0.5,5.9c0.1,0.7,0.2,1.5,0.5,2.2c0.3,0.6,1.5,0.3,2,0c0.6-0.3,1-0.8,1.5-1.1
	c0.7-0.4,1.5-0.6,1.9-1.3c0.6,0,0.6-0.7,1-1c0.9-0.2,1.2-0.7,1.8-1.2c0.5-0.4,1.2-0.6,1.7-1c0.8-0.6,1.4-1.5,2.2-2.1
	c0.6-0.5,1.3-0.9,1.9-1.2c0.1-0.5,0.5-0.7,0.9-0.9c0.4-0.2,0.8-0.5,0.8-1c0.9,0.1,0.7-0.6,1.3-0.7c0.4-0.1,0.4-0.7,0.9-0.7
	c0.7-0.6,1.3-1.2,1.9-1.8c1.4-1.3,2.8-2.6,4.3-3.9c0.7-0.6,1.2-0.9,1.5-1.8c0.2-0.6,0.5-1.2,0.7-1.9c0.4-1.3,0.8-2.9,0.2-4.1
	c-0.6-1.3,0.6-2.4,1.4-3.4C233.1,188,234.2,186.8,235,185.3C235.4,183.9,233.7,187.7,235,185.3z"/>
<path fill-rule="evenodd" clip-rule="evenodd" d="M533.5,154.3c0,1-1.5,3.2-2.6,3.1c0.3,1.1-1.9,2.5-2.6,3.2
	c-1.4,1.5-2.6,3.3-3.9,4.9c-1,1.2-1.9,2.4-2.9,3.6c-0.5,0.6-1.1,1.2-1.5,1.9c-0.3,0.6-1,0.8-1.2,1.5c-0.2,0.4,0,0.5-0.4,0.9
	c-0.2,0.2-0.4,0.5-0.6,0.8c-0.2,0.3-0.3,0.5-0.6,0.8c-0.4,0.4-0.1,0.2-0.2,0.7c-0.2,0.7-0.8,1.2-1,1.9c-0.5,1.1-1.1,2.1-1.6,3.1
	c-0.8,1.5-1.6,3.2-2.1,4.8c-0.6,1.9-1.8,3.7-2.2,5.5c-0.3,1.8-1.2,3.3-1.5,5c-0.2,0.9-0.4,1.7-0.7,2.6c-0.3,0.9-0.3,1.7-0.3,2.7
	c0.1,3.2,0.3,6.6,1.5,9.6c0.5,1.3,1.2,2.5,2.3,3.4c1.8,0.1,3.6-0.1,5.3-0.8c2.5-1,5.5-3,7.2-5.2c2.7-3.4,4.9-7.1,7.2-10.8
	c0.5-0.8,0.9-1.6,1.3-2.5c0.4-0.8,0.3-0.1,0.6-0.5c0.1-0.2-0.1-0.4,0-0.6c0.1-0.3,0.4-0.2,0.5-0.5c0.1-0.4-0.2-0.6,0.3-0.7
	c0.2-0.9,0.8-1.8,1.2-2.6c-1.7-0.2-3.3-0.7-4.8-1.4c-1.1-1.1-2.9-3-3.2-4.6c-0.4-2-0.6-3.9-0.7-5.9c0-1,0-2.1,0-3.1
	c0-0.6,0.4-1.4,0.3-2c0.9-3.5,1.8-7.1,3.8-10.1c1-1.5,1.8-3.2,3-4.6c0.3-0.4,0.5-0.5,0.7-1c0.1-0.3,0.3-0.5,0.5-0.7
	c0.6-0.5,0.9-0.7,1.2-1.4c0.6-1.7,1.9-2.2,3.6-2c1.3,0.1,3.6,0.6,4.5,1.6c1,1,2.7,2,3.2,3.3c0.3,0.8,1,1.3,1.1,2.2
	c0.1,0.8,0.4,1.5,0.6,2.3c0.8,3.3-0.1,6.6-0.5,9.9c-0.2,1.8-0.9,3.3-1.2,5.1c-0.3,1.6-0.6,3.3-1.3,4.9c1.6-0.3,2.9-1.1,4.2-2.1
	c0.6-0.5,1.2-0.9,1.8-1.3c0.9-0.6,1.6-0.7,2.1-1.8c1.8-3.6,3.3-7.4,5.2-11c0.9-1.7,2-3.3,3.2-4.8c0.6-0.8,1.1-1.5,1.7-2.3
	c0.9-0.7,1.8-1.3,2.6-2.2c1.2-0.6,1.9-1.6,3.4-1.4c1.4,0.5,2.2,1.7,2.3,3.1c0.2,1.6,0,3.2-0.3,4.8c-0.2,0.8-0.3,1.6-0.3,2.4
	c-0.6,0.7-0.8,1.5-1.4,2.2c-0.5,0.5-0.7,1.3-1,1.9c-0.1,0.4-0.2,0.8-0.3,1.2c-0.3,0.3-0.5,0.6-0.7,0.9c-1,1.5-1.8,3.3-2.5,5
	c-0.8,1.7-1.7,3.4-2.6,5c-0.4,0.6-0.1,1-0.5,1.5c-0.4,0.5-0.7,1.4-0.9,2c-0.7,1.8-1.9,3.4-2.4,5.1c-0.5,2-1.5,3.8-2.4,5.6
	c-0.8,1.6-1.1,3.2-1.7,4.9c-0.3,0.8-0.5,1.5-0.7,2.4c-0.1,0.9-0.6,1.9-0.4,2.7c0.1,0.4-0.2,0.7-0.2,1.1c0.1,0.5,0.2,1,0.4,1.4
	c0.2,1,0.5,1.6,1,2.4c1.1,1.5,2.7,2,4.6,1.7c0.7-0.1,1.3-0.6,1.9-1c0.6-0.4,1.1-0.4,1.6-0.9c0.5-0.5,1.1-0.9,1.6-1.3
	c0.8-0.7,1.5-1.6,2.2-2.4c2.8-2.9,5.5-6.3,7.4-9.7c1-1.9,2.2-3.7,3.3-5.5c1.1-1.8,2.4-3.3,3.5-5.1c0.9-1.6,1.9-3.1,2.9-4.7
	c0.5-0.8,1.1-1.4,1.4-2.3c0.3-0.9,0.8-1.6,1.1-2.4c0.2-0.6,0.3-1.4,0.6-2c0.3-0.5,0.4-0.1,0.6-0.8c0.1-0.4,0.3-0.9,0.5-1.3
	c0.7-1.8,1.4-3.7,2.3-5.5c0.9-1.6,1.7-3.3,2.6-4.9c0.5-0.9,1.1-1.7,1.6-2.6c0.5-0.8,1.1-1.3,1.8-1.9c0.9-0.7,2.9-2,4-1.2
	c1.3,0.8,1.7,2.4,1.8,3.8c0.1,1.1,0.2,3.3-0.3,4.2c-0.3,0.6-0.4,1.4-0.7,2.1c-0.4,0.9-0.9,1.7-1.3,2.6c0.1,0.7-0.3,1-0.6,1.5
	c-0.2,0.3-0.2,0.6-0.1,0.9c-0.3,0.2-0.4,0.5-0.5,0.8c-0.3,0.7-0.7,1.3-1,2c-0.4,1-0.8,2-1.2,2.9c-0.7,1.7-1.4,3.5-1.8,5.3
	c-0.4,0.4-1,1-0.8,1.7c0.1,0.4-0.5,1.2-0.5,1.9c-0.2,2-1.1,3.9-1.3,5.9c-0.3,2-0.4,4-0.5,6c-0.2,4,0.1,7.6,1.4,11.4
	c0.6,1.8,1.2,3.3,2.3,4.9c1.2,1.6,2.5,3.9,4.2,5c1.5,1,2.7,2.3,4.4,2.9c1.4,1.1,3.4,1.3,4.9,2.2c1.5,0.8,3.9,0.9,5.5,1.1
	c2.1,0.3,4.1,0.5,6.2,0.4c4.1-0.1,8.1-0.6,12.1-1.6c4-1,8-2.3,11.6-4.3c3.6-1.9,7.3-3.9,10.4-6.6c0.6-0.5,1.2-0.7,1.8-1.3
	c0.5-0.5,1.2-0.7,1.7-1.2c1.4-1.5,3-2.8,4.4-4.3c2.6-2.8,5.6-5.7,7.4-9.1c1.3-1.5,2.3-3.2,3.3-4.9c1.1-1.9,2.4-3.6,3.4-5.6
	c0.9-1.9,1.7-3.8,2.5-5.7c0.7-1.7,1.1-3.8,2.6-5c0.7-0.5,0.8-1.1,1.4-1.7c0.3-0.3,0.6-0.6,0.9-0.8c0.5-0.4,0.6-0.9,1-1.3
	c0.3-0.3,0.6-0.6,0.9-0.8c0.4-0.3,0.4-0.6,0.8-0.9c0.4-0.3,0.9-1.6,1.5-1c-0.8,1.1-0.8,2.3-0.8,3.7c0,0.7,0.1,1.8-0.4,2.2
	c-0.5,0.4-0.6,1.3-1,1.9c-0.5,0.7-1,1.5-1.5,2.2c-0.5,0.7-1.2,1.5-1.5,2.3c-0.8,2-1.8,4-2.9,5.9c-1,1.7-1.8,3.3-2.9,4.9
	c-0.5,0.8-1.1,1.5-1.5,2.3c-0.6,1-1.2,1.7-1.9,2.6c-0.5,0.7-0.8,1.7-1.5,2.2c-0.7,0.5-1.1,1.2-1.6,1.9c-1.1,1.6-2.4,3-3.8,4.4
	c-0.6,0.7-1.2,1.3-1.7,2.1c-0.6,0.8-1.2,1.2-2,1.8c-0.6,0.5-1,1.3-1.7,1.8c-0.3,0.2-0.7,0.4-1.1,0.5c-0.4,0.5-0.8,0.9-1.2,1.4
	c-0.6,0.7-1.3,1.3-2.1,1.8c-0.7,0.4-1.1,1-1.8,1.4c-0.6,0.3-1.2,0.7-1.7,1c-0.6,0.4-1,1.1-1.8,1.2c-1.3,1.3-3,2-4.6,2.9
	c-1.6,0.8-3.3,1.7-4.9,2.4c-3.4,1.5-6.9,2.7-10.6,3.6c-3.5,0.8-6.9,1.2-10.5,1.2c-3.3,0-6.7,0.1-9.9-0.5c-1.4-0.3-2.7-0.7-4.1-0.9
	c-0.6-0.1-1.3-0.1-1.8-0.3c-0.4-0.2-0.7-0.6-1.2-0.8c-0.5-0.2-1,0.1-1.5-0.3c-0.6-0.4-1.3-0.7-2-0.7c-0.7-0.1-1.1-0.6-1.7-1
	c-0.8-0.4-1.5-0.7-2.1-1.3c-1.1-1-2.3-1.8-3.3-2.8c-1.2-1.2-2.2-2.6-3.4-3.8c-1-1-1.7-2.8-2.4-4c-0.9-1.4-1.3-2.8-1.9-4.4
	c-0.5-1.3-1.2-2.5-1.3-3.9c-0.6-1.4-0.6-3-0.9-4.4c-0.4-1.8-0.1-4-0.1-5.9c0-2,0-4,0-6c-0.7,0.2-0.9,0.9-1.1,1.6
	c-0.1,0.5-0.7,0.9-1,1.5c-0.7,1.8-1.8,3.7-2.8,5.2c-2.3,3.5-4.3,7.2-6.9,10.5c-2,2.6-3.9,5.1-6.5,7.1c-1.3,1.1-3.2,2.4-5,2.4
	c-2,0-4,0.1-6-0.5c-1.6-0.5-2.7-1.5-3.7-2.7c-0.5-0.6-1-1.2-1.5-1.8c-0.7-0.7-0.7-1.6-1.2-2.4c-0.5-0.8-0.8-1.2-0.9-2.2
	c-0.2-0.9-0.5-1.8-0.7-2.6c-0.5-2-0.2-4.2,0.2-6.2c0.3-1.5,0.3-3.7,1-5.1c0.3-0.7,0.5-1.4,0.6-2.1c0.2-0.9,0.6-1.6,0.9-2.4
	c0.2-0.8,0.6-1.5,0.8-2.2c0.1-0.2,0.4-2.1-0.3-1.3c-0.5,0.6-0.7,0.5-1.3,0.9c-0.3,0.1-0.4,0.4-0.6,0.6c-0.3,0.4-0.9,0.5-1.4,0.8
	c-1.1,0.8-1.9,1.3-3.2,1.8c-0.7,0.2-1.3,0.3-1.7,0.9c-0.4,0.5-0.8,1-1.2,1.6c-1.5,2.2-2.8,4.5-4.3,6.7c-1.5,2.1-3.1,4.2-4.5,6.4
	c-0.5,0.8-1.3,1.1-1.8,2c0,0.1-1.4,1.6-1.2,1.6c-0.1,0-0.1-0.1-0.2-0.2c-0.4,0.2-0.3,0.8-0.7,1.1c-0.7,0.5-1.2,1.2-1.7,1.9
	c-0.6,0.8-1.2,1.4-1.9,2c-0.8,0.7-1.4,2-2.3,2.4c-0.8,0.4-1.6,1-2.3,1.6c-0.7,0.6-1.3,0.7-2.1,1.2c-1.6,0.9-3.4,1.2-5.2,1.8
	c-1.5,0.5-3.6-0.1-5-0.9c-0.5-0.3-1.1-0.5-1.4-1.1c-0.3-0.6-1-0.8-1.3-1.5c-0.2-0.4-0.8-0.8-1.1-1.3c-0.2-0.3-1-1.1-1.4-1.2
	c0-0.3,0-0.7-0.2-0.9c-0.4-0.3-0.4-0.6-0.6-1.1c-0.3-1.1-0.7-2.2-1-3.3c-1-3.7-1.2-7.5-0.9-11.4c0.1-1.8,0.2-3.7,0.8-5.4
	c0.3-0.8,0.5-1.7,0.8-2.6c0.3-0.9,1-1.9,1-2.8c0-0.7,0.4-1.2,0.7-1.7c0.1-0.3,0.2-0.6,0.3-1c0.3-0.1,0.4-0.4,0.5-0.6
	c0.2-0.6,0.2-1.2,0.5-1.8c0.5-0.8,0.8-1.8,1.2-2.7c0.3-0.6,0.5-1.1,0.9-1.6c0.5-0.6,0.3-1.3,0.7-1.8c1.2-1.5,1.9-3.4,3.1-4.9
	c0.6-0.8,0.9-1.8,1.5-2.5c0.7-1,1.3-1.9,2-2.8c0.9-1.1,1.7-2.4,2.7-3.4c1.2-1.1,2.4-2.3,3.5-3.5c1.1-1.2,2.3-2.5,3.4-3.7
	c1-1.1,2.6-1.5,4-2c1.4-0.6,2.9-1.1,4.4-1.3C532.5,152.3,533.4,153.1,533.5,154.3C533.5,155.6,533.4,153,533.5,154.3z M542.4,166.8
	c0-1.4,0-2.9,0-4.3c-0.4-0.3-0.5-0.8-0.5-1.3c0-0.3,0-0.6,0-0.9c-0.3-0.1-0.5-0.2-0.8-0.4c-0.7-0.6-1.1-1.3-2.1-1.3
	c0,0.8-1,2.1-1.4,2.8c-0.7,1-0.9,2.8-1.4,4c-0.5,1.3-1,2.6-1.5,4c-0.4,0.9-0.9,1.8-1,2.8c0,0.3,0,0.6-0.3,0.8
	c-0.5,0.2-0.4,1.4-0.5,1.9c-0.1,0.6-0.2,1.2-0.4,1.7c-0.1,0.3-0.2,0.5-0.3,0.7c0.2,0.2,0.3,0.4,0.4,0.7c0.1,0.5-0.1,1.1-0.3,1.6
	c-0.2,0.7,0.1,1.5,0.3,2.2c0.1,0.6,0.2,1.2,0.4,1.8c0.6,0.1,1.3,0.3,1.9,0.5c0.5,0.2,1,0.3,1.5,0.4c1,0.1,1.1-0.2,1.5-1.1
	C540.5,178.2,541.6,172.5,542.4,166.8C542.4,165.4,541.5,173.5,542.4,166.8z"/>
<path fill-rule="evenodd" clip-rule="evenodd" d="M483.8,156.5c-0.1-0.1,0.2-0.3,0.2-0.2C484.2,156.4,483.9,156.5,483.8,156.5z"/>
<path fill-rule="evenodd" clip-rule="evenodd" d="M473.8,173.5c-0.1-0.1,0.2-0.3,0.2-0.2C474.1,173.4,473.8,173.6,473.8,173.5z"/>
<path fill-rule="evenodd" clip-rule="evenodd" d="M418.3,266.2c-0.1-0.1,0.2-0.3,0.2-0.2C418.7,266,418.4,266.2,418.3,266.2z"/>
<path fill-rule="evenodd" clip-rule="evenodd" d="M408.5,270.7c-0.1-0.1,0.2-0.3,0.2-0.2C408.8,270.6,408.5,270.8,408.5,270.7z"/>
<path fill-rule="evenodd" clip-rule="evenodd" d="M406.1,271.9c-0.1,0.3-0.3,0.5-0.7,0.5C405.5,272.1,405.7,271.9,406.1,271.9z"/>
<path fill-rule="evenodd" clip-rule="evenodd" d="M404.4,272.9C404.4,272.2,405.4,273.1,404.4,272.9L404.4,272.9z"/>
<path fill-rule="evenodd" clip-rule="evenodd" d="M404.4,272.9c0,0.5-0.8,0.8-1.2,0.7C403.4,273.1,403.9,272.9,404.4,272.9
	C404.4,273.1,403.8,273,404.4,272.9z"/>
<path fill-rule="evenodd" clip-rule="evenodd" d="M349.2,328.3c-0.1-0.1,0.2-0.3,0.2-0.2C349.6,328.2,349.3,328.4,349.2,328.3z"/>
<path fill-rule="evenodd" clip-rule="evenodd" d="M348.7,329c-0.1-0.1,0.2-0.3,0.2-0.2C349.1,328.9,348.8,329.1,348.7,329z"/>
<path fill-rule="evenodd" clip-rule="evenodd" d="M410.2,356.2c0.5-0.1,0.5,0.4,0.5,0.7C410.2,356.8,410.2,356.6,410.2,356.2
	C410.7,356,410.2,356.3,410.2,356.2z"/>
<path fill-rule="evenodd" clip-rule="evenodd" d="M350.6,365.8c0.1-0.3,0.2,0,0.5,0C351.1,366.1,350.6,366,350.6,365.8z"/>
<path fill-rule="evenodd" clip-rule="evenodd" d="M353,367c-0.1-0.1,0.2-0.3,0.2-0.2C353.4,366.8,353.1,367,353,367z"/>
<path fill-rule="evenodd" clip-rule="evenodd" d="M353.8,367.2c-0.1-0.1,0.2-0.3,0.2-0.2C354.1,367.1,353.8,367.3,353.8,367.2z"/>
<path fill-rule="evenodd" clip-rule="evenodd" d="M364.3,369.1c-1,0-1.9,0-2.9,0c-0.2-0.6,1.1,0.2,1-0.5
	C362.9,368.8,364.5,368.2,364.3,369.1C363.4,369.1,364.5,368.2,364.3,369.1z"/>
</svg>
