<?xml version="1.0" encoding="utf-8"?>
<!-- Generator: Adobe Illustrator 19.0.0, SVG Export Plug-In . SVG Version: 6.00 Build 0)  -->
<svg version="1.1" id="Layer_1" xmlns="http://www.w3.org/2000/svg" xmlns:xlink="http://www.w3.org/1999/xlink" x="0px" y="0px"
	 viewBox="0 0 841.9 595.3" style="enable-background:new 0 0 841.9 595.3;" xml:space="preserve">
<style type="text/css">
	.st0{fill-rule:evenodd;clip-rule:evenodd;}
</style>
<g id="XMLID_172_">
	<path id="XMLID_171_" class="st0" d="M609.9,66.2c-0.2,1.3-0.4,3.2-1.4,4.2c-0.5,0.5-0.9,1.1-1.2,1.8c-0.6,0.3-0.9,1-1.2,1.6
		c-0.8,1.2-1.5,2.5-2.4,3.6c-0.3,0.7-0.7,1.3-1.2,1.8c-0.2,0.8-0.4,1.4-1,1.8c-1.3,2.6-3,4.8-4.6,7.2c-0.5,1.4-1.6,2.2-2.2,3.6
		c-0.7,1.3-1.7,2.1-2,3.8c-1.3,0.7-2,2-2.6,3.4c-1,1-1.7,2.3-2.6,3.4c-0.6,1.4-1.7,2.3-2.2,3.8c-0.8,1.1-1.6,2.3-2.2,3.6
		c-0.9,1.1-1.5,2.5-2.4,3.6c-0.7,1.2-1.7,2.2-2.2,3.6c-1.8,2.1-3.1,4.7-5,6.8c-1.1,2.8-3,4.8-4.2,7.6c-0.9,1.1-1.7,2.3-2.4,3.6
		c-0.4,0.6-0.9,1.1-1.2,1.8c-0.5,0.4-0.5,1.4-1.2,1.6c-0.5,1.5-1.7,2.3-2.2,3.8c-0.8,1.2-1.4,2.5-2.4,3.4c-1.2,2.7-3.1,4.7-4.4,7.4
		c1.1-0.2,1.5-1,2.2-1.6c0.7-0.6,1.5-1,2-1.8c1-0.3,1.3-1.2,2.2-1.6c0.4-0.7,1.3-1.1,1.8-1.8c2.9-2.1,5.4-4.6,8.6-6.4
		c0-0.7,0.9-0.4,1.2-0.8c0.3-0.3,0.8-0.4,1-0.8c1-0.3,1.7-0.8,2.4-1.4c1.6-0.9,3.3-1.6,4.6-2.8c1-0.3,1.6-0.9,2.4-1.4
		c0.8-0.4,1.8-0.7,2.4-1.4c1.1-0.1,1.8-0.8,2.6-1.2c1-0.2,1.9-0.4,2.6-1c3-0.4,5.5-1.2,9-1.2c1.4,0.1,2.3,0.7,3.6,1
		c4.2,2.3,7.4,5.7,9.8,10c0.9,0.8,1.1,2.2,1.8,3.2c0.5,1.2,1,2.3,1.6,3.4c0.9,2.4,2.2,4.3,3.2,6.6c4.6,8.5,10.7,15.4,21.3,17.9
		c12.1,2.4,23.4-1.2,31.3-6c2.2-1.1,4.4-2.3,6.2-3.8c1.1-0.6,2-1.3,3-2c0.9-0.7,2.1-1.1,2.8-2c2.2-1,3.8-2.7,5.8-4
		c0.9-0.8,1.9-1.4,2.8-2.2c0.9-0.7,1.6-1.6,2.8-2c-0.2,0.7-0.7,1.2-1.2,1.6c-0.4,0.4-0.5,1.2-1.2,1.4c-0.8,0.9-1.3,2.1-2.4,2.8
		c-0.5,1.2-1.7,1.7-2.4,2.8c-1.2,0.6-1.8,1.7-3,2.2c-1.8,1.7-3.8,3.3-5.8,4.8c-1.9,1.6-3.9,3-6,4.4c-4.4,2.6-8.7,5.3-13.9,7
		c-4.1,1.9-10.4,3.2-16.3,4c-3.6,0.1-6.9-0.2-9.8-0.8c-1.4-0.4-3-0.5-4.2-1c-1.4-0.3-2.4-1.1-3.8-1.4c-1-0.8-2-1.5-3.2-2
		c-0.9-0.9-2-1.5-2.8-2.4c-1.8-1.6-3.6-3.3-5-5.4c-0.9-0.9-1.4-2.1-2.2-3.2c-0.7-1-1.4-2.1-1.8-3.4c-0.6-0.3-0.5-1.2-0.8-1.8
		c-0.4-0.5-0.8-1-0.8-1.8c-0.6-1.1-1.2-2.2-1.6-3.6c-2.3-4.6-4.1-9.7-7.8-12.9c-1.1-0.6-2.1-1.3-3.2-1.8c-1.2-0.4-2.3-0.8-3.8-1
		c-2.7,0.4-5,2.2-7,2.6c-2.3,1-4.3,2.2-6.2,3.6c-2,1.3-3.9,2.7-6,4c-0.9,0.7-1.9,1.4-2.8,2.2c-0.9,0.7-2,1.2-2.8,2
		c-0.9,0.8-1.7,1.6-2.8,2.2c-0.8,0.8-1.7,1.6-2.8,2.2c-0.6,1.1-2.1,1.3-2.8,2.2c-1,0.5-1.8,1.4-2.6,2.2c-2.2,1.1-3.4,3.1-5.6,4.2
		c-0.2,0.7-1,0.8-1.4,1.2c-0.2,0.6-1,0.6-1.2,1.2c-1.1,0.5-1.8,1.4-3,1.8c-0.4,0.7-0.9,1.4-1.4,2c-0.4,0.7-0.8,1.5-1.8,1.6
		c-0.3-0.3-1.1-0.3-1.6-0.4c-0.7-0.5-0.9-1.5-1-2.6c-0.5-0.7-0.8-1.6-1-2.6c0.4-3.1,1.2-5.7,2-8.4c0.2-0.6,0.2-1.5,0.8-1.8
		c-0.1-1,0.2-1.5,0.6-2c0.1-0.8,0.1-1.6,0.6-2c0.3-0.5,0.5-1.2,0.6-2c0.9-0.8,1-2.5,1.8-3.4c0.1-0.8,0.4-1.3,0.8-1.8
		c-0.1-0.9,1-0.8,0.8-1.8c0-0.8,0.7-1,0.8-1.8c0.6-0.3,0.3-1.4,1-1.6c0.6-1,1.3-2,1.8-3.2c1.6-1.8,2.6-4.3,4-6.4
		c0.4-1.3,1.4-2,2-3.2c0.5-1.2,1.3-2.1,1.8-3.4c0.8-0.9,1.3-2.2,2-3.2c0.9-0.8,1.4-2.1,2-3.2c0.6-1.1,1.4-2.1,2-3.2
		c0.5-0.4,0.7-1,1-1.6c0.5-0.3,0.2-1.4,1-1.4c0.4-1.4,1.2-2.3,2-3.2c0.5-1.2,1.4-2.1,2-3.2c0.5-1.2,1.7-1.7,2-3.2
		c0.8-0.9,1.8-1.6,2.2-3c0.4-0.4,0.7-1,1-1.6c0.4-0.5,0.8-0.9,1-1.6c0.8-1,1.8-1.7,2.2-3c0.8-0.9,1.5-2,2-3.2c0.8-0.8,1.3-2,2.2-2.8
		c1.4-2,2.8-4.1,4.4-6c0.7-1,1.2-2.2,2.2-3c0.5-1.1,1.3-2,2-3c1.3-2.2,3-3.9,4.4-6c0.4-0.5,0.8-0.9,1.2-1.4c0.3-0.6,1-0.7,1.2-1.4
		c0.9-0.8,1.8-1.6,2.8-2.2c0.7-0.3,1.9,0,2.6-0.4C607.5,62.5,608.9,64.1,609.9,66.2z"/>
	<path id="XMLID_348_" class="st0" d="M289.7,67.4c1.7-0.2,2.6,0.4,4,0.6c0.8,0.6,1.4,1.4,2.2,2c1.4,2.3,2,5.5,2.6,8.6
		c0.4,3.3,1.1,6.2,1,10c0.5,0.3,1.5-0.6,2-1c0.7-0.4,1.3-0.9,2-1.4c1.3-1,2.6-1.9,4-2.8c0.5-0.1,0.6-0.6,1.2-0.6
		c0.1-0.5,0.9-0.1,0.8-0.8c1.1,0,1.5-0.8,2.4-1c1.3-1,2.9-1.6,4.4-2.4c0.3-0.4,0.8-0.4,1.2-0.6c0.3-0.1,0.8-0.2,1.2-0.4
		c0.7-0.3,1.4-0.9,2.2-1.2c0.8-0.3,1.7-0.5,2.6-0.8c0.8-0.3,1.6-0.8,2.4-1c1.8-0.5,3.6-0.8,5.6-1.2c1.8-0.4,3.8-0.7,5.8-1
		c3,0,5.7-0.1,7.8,0.4c2.5,0.8,4.8,1.9,7,3c0.3,0.8,1.1,1.2,1.6,2c0.1,0.2,0,0.2,0.2,0.4c0.6,0.6,0.9,2.4,1.6,3.4
		c0,0.3-0.1,0.8,0.2,0.8c1,7.1-2.3,13-5.6,17.1c-3.1,4.7-7.6,8-11.3,11.9c-1.9,2-4.2,3.7-6.4,5.4c-1.3,0.7-2.2,1.8-3.4,2.6
		c-1.2,0.7-2.1,1.7-3.2,2.6c-1.3,0.6-2.1,1.9-3.4,2.6c-0.3,0.7-1.1,0.9-1.6,1.4c-0.4,0.5-1,0.8-1.4,1.4c-0.6,0.4-1.2,0.7-1.6,1.4
		c-0.4,0.1-0.5,0.4-0.8,0.6c0.1,0.5-0.8,0.2-0.6,0.8c-0.7,0.3-1,1-1.6,1.4c-0.3,0.7-1.1,0.8-1.2,1.6c0.4,0.4,0.9-0.7,1.6-0.6
		c0.3-0.5,1-0.7,1.4-1.2c1.1-0.6,1.9-1.4,3-2c2-1.3,4.2-2.4,6.6-3.4c4.7-2,9.4-4,15.3-4.8c1.7,0,3.5,0,5.2,0c1.4,0.4,2.8,1,3.8,1.8
		c5.7-2.9,11.1-6.2,18.1-7.8c3.3-1,6.9-1.8,11-2c1.8-0.5,3.3-0.2,5.6-0.2c2,0.1,4.1,0.1,5,1.4c-0.4,0.3-1.7-0.3-2.4-0.4
		c-1,0-2,0-3,0c-1.6,0.4-3.7,0.3-5.2,0.8c-3.7,0.4-6.6,1.5-9.8,2.4c-2.8,1.3-5.9,2.2-8.2,4c-1.6,0.5-2.5,1.6-3.8,2.4
		c-1.2,0.8-2.5,1.5-3.6,2.4c1,2.2,2.6,3.7,3.4,6.2c1,2.2,1.6,4.7,2.2,7.4c0.5,6,0.2,11.9-1,17.1c-1.1,5.3-3.5,9.3-5.6,13.5
		c-0.7,0.9-1.3,1.9-1.8,3c-0.9,0.7-1.2,2-2,2.8c-1,2.2-2.7,3.5-3.8,5.6c-1.6,1.6-2.7,3.7-4.4,5.2c-1.5,1.7-2.8,3.5-4.6,5
		c-0.1,0.7-0.9,0.7-1,1.4c-0.5,0.3-0.9,0.7-1.2,1.2c-1,0.6-1.4,1.8-2.6,2.2c-0.1,0.7-0.8,0.7-1.2,1.2c-0.3,0.5-0.7,0.9-1.2,1.2
		c-0.8,0.7-1.7,1.3-2.6,2c-3.7,2.7-7.7,5-11.9,7.2c-4.4,1.9-8.8,3.8-14.1,4.8c-4.1,0.1-7.8-0.2-10.6-1.4c-1.4-0.8-2.6-1.6-3.8-2.6
		c-1.1-1-2.6-1.7-3.6-2.8c-0.6-1.7-1.5-3.1-2.2-4.8c0-1.3-0.1-1.3-0.2-2.4c0.6-4.7,2-8.8,4-12.5c1-1.8,1.9-3.7,3-5.4
		c0.8-2,2.3-3.3,3.2-5.2c0.9-0.5,1.3-1.5,2-2.2c0.6-0.8,1.4-1.4,1.8-2.4c0.4-0.3,0.9-0.5,1-1.2c0.7,0,0.7-0.6,1-1
		c0.9-0.5,1.3-1.5,2.2-2c0.1-0.6,0.8-0.7,1-1.2c0.2-0.4,0.6-0.7,1-1c0.6-0.8,1.2-1.6,2-2.2c1.2-1.5,2.9-2.7,4.2-4.2
		c4.2-4.2,7.9-9,12.5-12.7c0.2-0.5,0.7-0.8,1.2-1c0.3-0.4,0.3-1,1-1c0.5-0.9,1.6-1.2,2-2.2c0.9-0.4,1.5-1.3,2.4-1.8
		c0.6-0.8,1.6-1.1,2.2-2c1.1-0.3,1.5-1.3,2.6-1.6c0.6-0.8,1.7-1.1,2.4-1.8c1-0.4,1.5-1.3,2.6-1.6c0.5-0.9,1.9-0.9,2.4-1.8
		c1.8-1,3.3-2.3,5-3.4c-0.8-0.7-2.5-0.1-3.8,0c-1.2,0.3-2.3,0.8-3.6,1c-2.1,0.9-4.4,1.7-6.6,2.6c-3.8,2.2-8.1,4-11.7,6.4
		c-0.7,0.5-1.3,1.1-2,1.6c-0.4,0.8-1,1.4-2,1.6c-0.5,0.5-1.1,1.3-2,1.6c-1,0.3-2,0.2-2.8-0.2c-0.7,0.1-0.6-0.7-0.8-1.2
		c-0.2-0.4-0.4-0.8-0.6-1.2c-0.5-0.4,0.3-0.9-0.4-1c-0.4-0.3,0.1-0.6-0.4-1c0-0.9,0-1.9,0-2.8c0.1-1.3,0.9-1.9,1-3.2
		c0.8-1,1.5-2,2-3.2c0.8-0.9,1.8-1.7,2.4-2.8c1.5-1.9,3.1-3.6,4.8-5.4c1.9-1.5,3.5-3.4,5.6-4.8c1.9-1.5,3.8-3,5.8-4.4
		c3.5-3.4,7.7-5.9,11-9.6c3.5-3.3,7-6.6,9.6-10.8c0.6-1.9,1.2-3.7,1.4-6c-0.2-4.2-2.3-6.6-5-8.4c-6.9-0.7-13.1,1.8-18.7,3.6
		c-2.6,1.2-5.2,2.5-7.8,3.8c-2.4,1.4-4.5,3-6.8,4.6c-1.9,2.1-4.3,3.5-6.2,5.6c-2.4,1.6-4.3,3.5-6.2,5.6c-0.5,7.8-1.2,14.1-3,20.5
		c-1.5,6.4-2.8,13-4.8,18.9c0.1,1.6-0.9,2.7-1.2,4.4c-0.5,1.5-1.1,2.9-1.4,4.6c-1.2,2.7-2,6-3.4,8.6c-0.2,1.8-1.3,2.7-1.6,4.4
		c-0.6,1.4-1.3,2.7-1.8,4.2c-0.8,1.2-1.2,2.8-2,4c-0.4,1.5-1.4,2.5-1.8,4c-1.6,2.4-2.7,5.2-4.4,7.6c-1.5,2.5-3.2,4.8-4.8,7.2
		c-1.8,2.2-3.4,4.6-5.4,6.6c-0.3,0.7-1.1,0.8-1.4,1.6c-0.5,0.5-0.9,1.1-1.4,1.6c-2.9,3-6,5.8-9.4,8.4c-2.1,1.8-4.7,3.1-7.2,4.6
		c-5.2,2.7-11.2,4.6-19.7,4c-0.1-0.4-1.1,0-1.2-0.4c-1.6-0.4-2.6-1.6-3.8-2.4c-1.9-3.6-3.8-7.3-4.6-11.9c-0.1-3,0.1-5.7,0.2-8.6
		c0.8-3.2,1.8-6.3,2.4-9.8c1.9-4.9,4.5-9.1,6.8-13.5c1.3-2.1,2.8-4,4-6.2c1.3-2,2.8-3.9,4-6c1.7-1.7,2.9-3.9,4.6-5.6
		c1.3-2.1,3.2-3.6,4.4-5.8c1.7-1.7,3.2-3.6,4.6-5.6c1.7-1.7,3.1-3.6,4.6-5.4c1.7-1.6,3.3-3.5,5-5.2c0.4-0.5,0.7-1.1,1.4-1.2
		c0.1-0.7,0.7-1,1.2-1.4c0.7-0.9,1.8-1.6,2.6-2.4c3.2-3.5,6.8-6.6,10.2-10c0.4-0.5,0.9-0.9,1.2-1.4c0.7-0.2,0.7-1,1.4-1.2
		c0-0.8,1.3-0.4,1.2-1.4c0.6-0.2,1-0.6,1.4-1c1.1-0.7,1.9-1.5,2.8-2.4c0.5-0.4,0.9-0.8,1.4-1.2c0.2-0.2,0.6-0.2,0.8-0.4
		c0.2-0.2,0.1-0.9,0.6-0.6c1.6-1.8,3.7-3.1,5.4-4.8c1.1-0.5,1.8-1.5,2.8-2.2c0.9-0.7,1.9-1.5,2.8-2.2c0.4-5.9,0.4-12.3-0.8-17.5
		c-0.6-1.4-1-2.9-1.6-4.2c-0.4-1.5-1.5-2.4-1.6-4.2c0.4-0.1,0-0.9,0.6-0.8C289.2,67.7,289.4,67.5,289.7,67.4z M290.5,107.4
		c-1.2,0.4-1.6,1.6-2.6,2.2c-0.9,0.8-1.7,1.6-2.6,2.4c-1.4,1.9-3.2,3.4-4.8,5.2c-3.2,3.4-6.1,7.2-9.4,10.6
		c-3.2,3.4-5.8,7.3-9.2,10.6c-3.3,3.4-6.1,7.2-9.2,10.8c-2.9,3.6-5.7,7.4-8.6,11.2c-1.5,1.8-2.9,3.7-4.4,5.6
		c-1.5,1.9-2.7,3.9-4.2,5.8c-1.3,2-2.7,3.8-3.8,6c-1.6,1.7-2.4,4.3-3.8,6.2c-2.5,4.1-4.3,9-5.6,14.3c0,1.3,0,2.5,0,3.8
		c0.7,0.7,0.5,2.3,1.4,2.8c0.2,1.2,0.9,1.9,1.6,2.6c1.2,1.6,2.6,3,4.8,3.6c2.4-0.2,4.3-0.9,6.4-1.4c1.7-1.1,3.7-1.8,5.4-2.8
		c1.7-1,3.3-2.3,5-3.4c3.1-2.4,6-5,8.6-8c2.5-3,4.9-6.1,7.2-9.4c0.9-1.8,2.1-3.4,2.8-5.4c0.7-0.7,1.1-1.7,1.6-2.6
		c0.4-0.3,0.5-0.9,0.8-1.2c0.1-0.6,0.6-0.8,0.8-1.4c1.2-2.6,2.2-5.3,3.6-7.8c0-0.9,0.7-1.1,0.8-2c0.2-0.7,0.7-1.2,0.8-2
		c0.8-1.1,1.1-2.7,1.8-4c2.1-5.5,4.5-10.6,6.2-16.5c1-2.8,1.6-5.9,2.6-8.8c0.5-1.3,0.7-3,1.4-4.2c0-0.9,0.4-1.5,0.6-2.2
		c0.3-0.7,0.1-1.8,0.8-2.2c-0.3-1.3,0.8-2.8,0.8-4.4c0.4-1.5,0.8-3,1.2-4.6c0.6-3.3,1.4-6.3,1.8-9.8c0-0.1,0-0.2-0.2-0.2
		C290.6,106.9,290.5,107.1,290.5,107.4z M347,130.3c-3.3,2.3-6.7,4.5-9.6,7.2c-3.2,2.5-6,5.3-9.2,7.8c-2.9,2.7-5.9,5.3-8.8,8.2
		c-2.8,2.8-5.6,5.7-8.4,8.6c-1.5,1.3-2.5,3.1-4,4.4c-1.2,1.7-2.7,3-4,4.6c-2.6,3-5.2,6.1-7.8,9.2c-0.5,0.9-1,1.8-1.8,2.4
		c-0.4,1-1,1.8-1.6,2.6c-1,1.8-2.2,3.5-3,5.6c-1.4,3.8-3.4,8.8-2.2,13.9c1.3,1.2,4.1,1,6.6,1c4.4-0.6,7.3-2.6,10.6-4.2
		c3.3-1.6,6.2-3.6,9.2-5.6c0.8-0.3,1.5-0.9,2.2-1.4c0.6-0.7,1.7-0.8,2.2-1.6c1.5-1,2.7-2.2,4-3.4c1.2-1.3,2.5-2.4,3.8-3.6
		c0.6-0.6,1.3-1.1,1.8-1.8c0.6-0.6,1.3-1.2,2-1.8c2.2-2.7,4.9-4.9,7-7.8c1.3-1.1,2.4-2.5,3.6-3.8c1-1.4,2.4-2.5,3.2-4.2
		c2.4-2.5,4-5.8,5.8-9c1.8-3.2,2.9-7,3.8-11c-0.1-0.8,0.2-1.1,0.2-1.8c0-2.7-0.1-4.2-0.2-6.6c-1.1-3.3-2.3-6.5-4.8-8.4
		C347.4,130,347.3,130.3,347,130.3z"/>
	<path id="XMLID_345_" class="st0" d="M425.3,151.8C425.6,151.7,425.3,151.6,425.3,151.8c-3.2,3.1-6,6.6-9,10c-3.3,3.1-5.7,7-9,10.2
		c-6.2,6.5-13.1,12.4-21.1,17.1c-3.3,0.8-7.2,1.6-11,0.8c-1.1-0.5-1.9-1.5-2.8-2.2c-0.4-1.8-1-3.8-1.2-5.6c-0.3-2-0.1-3.6,0-5
		c-0.1-1.4,0.3-4.1,0.6-5.8c0-2.3,1.1-3.6,1-6c0.7-1.7,1.2-3.7,2-5.4c0.8-1.6,1.7-3.2,2.4-5c2.8-3.8,5.3-8,8.4-11.5
		c2.6-4,5.9-7.4,8.4-11.5c-0.3-1.4-1.2-2.2-2.2-3c-1.7,0.8-2.8,2.1-4,3.4c-0.8,0.5-1.4,1.1-2,1.8c-0.6,0.7-1.5,1-2,1.8
		c-1.4,1.1-2.4,2.6-3.8,3.8c-1.1,1.4-2.6,2.5-3.6,4c-1.3,1.3-2.6,2.5-3.6,4c-1.4,1.1-2.4,2.7-3.6,4c-1.3,1.2-2.1,2.9-3.2,4.4
		c-1.5,1-1.9,3.1-3.4,4.2c-1.1,0.5-1.8-0.6-3.2-0.4c-0.1-1.1,0.4-1.8,0.2-3c1.8-4.5,4.2-8.4,7.4-11.5c0.4-1.1,1.6-1.5,2-2.6
		c0.7-0.9,1.5-1.7,2.2-2.6c0.7-0.9,1.7-1.5,2.2-2.6c1.1-0.5,1.3-1.9,2.4-2.4c1.4-1.7,3.1-3.2,4.6-4.8c0.2-0.2,0.2-0.6,0.4-0.8
		c0.4-0.4,0.8-0.6,1-0.8c0.3-0.3,0.4-0.4,0.6-0.6c0.1-0.1,0.3-0.1,0.4-0.2c0.8-0.8,1.4-1.8,2.2-2.6c0.7-0.8,1.6-1.5,2.4-2.2
		c1.3-1.2,2.6-2.4,3.8-3.4c1.3-1.1,2.6-2.2,4-3.2c2.7-3.3,4.8-7.1,8.4-9.6c1.8-0.3,2.4-0.4,4.2-0.2c1.2,0.6,2.7,1,3.2,2.4
		c0.1,2.5-1.2,3.7-2.4,5c-0.1,0.7-0.2,1.2-0.8,1.8c-0.3,0.7-0.7,1.2-1,2c-0.8,0.7-1.3,1.9-2.2,2.6c-0.6,1-1.7,1.6-2.2,2.8
		c0.4,1.4,0.9,2.7,1.8,3.6c0.9,0.9,1.5,2.1,2.4,3c0.1,1.3,0.5,2.3,0.4,3.8c0.1,0.6-0.4,0.7-0.2,1.4c-0.2,0.9-0.6,1.5-0.8,2.4
		c-0.6,0.5-0.4,1.7-1.2,2c-0.3,0.7-0.5,1.6-1,2.2c-0.2,1-0.9,1.3-1.2,2.2c0,0.5-0.4,0.7-0.6,1c-0.1,0.5-0.9,0.1-0.8,0.8
		c0.4,0.6-0.8,1.2-1,1.8c-0.7,0.4-0.6,1.5-1.4,1.8c-0.2,0.9-1,1.3-1.4,2c-1.1,1-1.8,2.4-3,3.4c-0.7,0.4-1,1.1-1.6,1.6
		c-0.1,1-1.4,0.9-1.6,1.8c-0.7,0.4-0.9,1.2-1.6,1.6c-0.6,0.5-0.8,1.3-1.6,1.6c-0.1,0.5-0.6,0.4-0.8,0.8c-0.5,0.1-0.1,0.9-0.8,0.8
		c-0.6,0.6-1.2,1.1-1.8,1.6c-0.6,0.9-1.2,1.8-2,2.6c-0.2,0.6-0.7,0.7-1,1.2c-0.4,0.4-0.4,1.2-1,1.4c-1.2,3.5-2.7,6.7-2.6,11.5
		c0.5,1,1.2,1.8,2.4,2.2c5.1-1,8.2-4,12.1-6.2c0.9-0.6,1.5-1.5,2.6-2c0.6-1,1.9-1.3,2.4-2.4c1-0.6,1.9-1.3,2.6-2.2
		c1-0.6,1.8-1.3,2.6-2.2c3.4-2.9,6.9-5.7,10-9c0.9-0.6,1.5-1.5,2.4-2.2c0.7-0.9,1.6-1.6,2.4-2.4c1.7-1.5,3.3-3.1,5-4.6
		c1.7-1.5,3.2-3.2,5-4.6c0.9-0.7,1.6-1.6,2.6-2.2c0.2-0.6,0.8-0.8,1.2-1.2c0.6-0.2,0.6-1,1.4-1c0.5-0.9,1.1-1.7,1.8-2.4
		c0.5-0.9,1.3-1.6,2-2.4c0.6-0.8,1.4-1.5,2-2.4c0.7-0.8,1.2-1.8,2-2.4c3.4,0.3,6.6,0.9,7.6,3.6c-0.4,1-0.9,1.8-1.6,2.6
		c-0.8,0.7-1.3,1.6-2,2.4c-1.1,1.7-2.2,3.5-3.4,5.2c-1.3,1.5-2.7,3-3.8,4.8c-0.8,0.6-1,1.9-1.8,2.6c-0.2,1.2-1.3,1.6-1.6,2.8
		c-1.4,1.5-2.5,3.2-3.6,5c-0.4,0.4-0.6,0.8-1,1.2c-0.1,0.7-0.6,0.8-0.8,1.4c-0.6,0.8-1.1,1.8-1.8,2.6c-1.1,1.8-2,3.7-3,5.6
		c-0.6,2.3-2.1,3.8-1.8,7c2-0.4,3.1-1.7,4.8-2.4c0.7-0.5,1.4-1,2-1.6c1.1-0.2,1.3-1.2,2.4-1.4c1.4-1.1,2.6-2.3,4.2-3.2
		c1.4-1,2.7-2.2,4.2-3.2c0.4-0.8,1.3-1.1,2-1.6c0.5-0.7,1.2-1.2,2-1.6c1.2-1.3,2.6-2.3,4-3.4c2.7-2.2,5.2-4.6,7.8-7
		c1.3-2.3,2.8-4.4,4.4-6.4c0.6-1.2,1.6-2,2.4-3c0.5-0.4,0.8-0.9,1.4-1.2c0-1,1.2-0.6,1.2-1.6c1.1-0.7,2-1.6,2.8-2.6
		c0.5-0.4,1.1-0.6,1.4-1.2c0.7-0.3,1.3-0.5,1.6-1.2c2.3-1.4,3.8-3.5,6.2-4.8c1.6,0,2.7,0.7,4.2,0.8c-0.1,0.6,0.7,0.3,0.8,0.8
		c0.4,0.2,0.6,0.6,0.8,1c0.1,2-1,2.8-1.6,4c-0.3,1.4-0.9,2.5-1.4,3.8c-0.3,1.4-0.9,2.6-1.4,3.8c-1.1,2.4-2,5.1-3.8,6.8
		c0.3,1.1-0.6,1-0.4,2c-1.1,0.7-1.3,2.3-2.2,3.2c-0.6,0.4-0.6,1.3-1.2,1.6c0.2,1.1-0.9,1-0.8,2c-1.1,0.7-1.1,2.6-2.2,3.4
		c-0.4,1.5-1.5,2.2-2,3.6c-0.5-0.1-0.5,0.4-0.6,0.8c-0.3,0.2-0.6,0.3-0.6,0.8c-0.3,0.6-0.7,1.2-1,1.8c-0.5,1.3-1.4,2.4-1.8,3.8
		c-0.3,0.2-0.4,0.5-0.6,0.8c-0.1,0.1-0.1,0.7-0.2,0.8c0,0-0.4-0.1-0.4,0c-0.1,0.3-0.2,0.6-0.4,1c-0.7,1.7-1.6,3.1-1.4,5.6
		c2.1,0.4,3.8-1,5.4-1.8c1.9-0.6,3.2-1.9,4.8-2.8c1.3-1.3,2.9-2.1,4.2-3.4c0.5-0.8,1.4-1.2,2-1.8c0.6-0.8,1.2-1.4,2-2
		c0.6-0.7,1.3-1.3,1.8-2c0.8-0.5,1.5-1,2-1.8c1.5-1.1,2.5-2.7,4-3.8c1.1-1.4,2.6-2.4,3.6-4c1.4-1.1,2.5-2.6,4-3.8
		c4.7-5.5,9.6-10.9,14.5-16.1c2.4-2.7,5.1-5.2,7.6-7.8c1.4-1.1,2.4-2.6,4-3.6c1.3-1.3,2.4-2.8,4-3.8c0.1-1.7,1.2-2.5,1.6-4
		c0.3-1.6,1.3-2.6,1.6-4.2c1-0.9,1.2-2.5,2.2-3.4c0.5-1.4,1.5-2.3,2.2-3.6c3.7-4,6.7-8.6,11-11.9c1,0,1.2-0.8,2.2-0.8
		c1.2-0.2,1.7,0.4,2.8,0.4c1,1.1,2.7,1.4,2.8,3.4c-0.3,2.2-2.5,2.5-3.6,4c-1.3,1.2-2.6,2.5-3.8,4c-1.1,1.5-2.1,3.1-3.2,4.6
		c-0.3,1-0.9,1.6-1.2,2.6c-0.5,0.8-0.7,1.9-1.4,2.6c-1.2,4.4-1,9-1,14.7c0.8,5.2,1.7,10.4,1.8,16.3c-0.2,2.2-0.4,5.4-1,7.8
		c-0.4,2.6-1.2,4.9-2,7.2c-0.5,0.5,0.5,0.7,0.6,1.2c0.5,0.2,1,0.5,1.2,1c1.1,0.4,1.5,1.6,2.6,2c0.1,0.7,0.7,1,1.2,1.4
		c0.6,1.6,1.8,2.6,2.2,4.4c0.8,1.5,1,3.5,1.4,5.4c0,0.9,0,1.7,0,2.6c-0.5,5.5-1.9,10.2-3.8,14.3c-0.9,2.2-2,4.1-3,6.2
		c-0.8,0.7-1.1,1.9-2,2.6c-0.1,0.7-1.1,1.7-1.6,2.6c-0.9,0.5-1.8,1.1-2.6,1.8c-0.2,0.6-0.8,0.7-1.4,0.8c-0.4,0.3-0.5,1.1-1.2,1.2
		c-0.1-1,0.2-1.7,0.8-2c0.2-0.7,0.5-1.4,1-1.8c0.2-0.7,0-1.1,0.4-1.8c0.3-0.5,0.7-1,0.6-2c1.2-0.9,1.6-2.7,2.6-3.8
		c0-1,0.9-1.2,1-2.2c0.6-0.5,0.6-1.5,1.2-2c0.5-1.6,1.2-3.1,1.6-4.8c0.4-1.7,0.7-3.5,1.2-5.2c0-0.9-0.1-1.8,0.2-2.4
		c-0.2-3.6-0.5-6.6-2-9.4c-0.6-0.8-1.3-1.6-2-2.4c-0.8-0.6-1.3-1.6-2.4-2c-2.1,3.4-4.2,6.8-7,9.6c-2.4,3.2-5.6,5.5-8.6,8.2
		c-1.5,0.5-2.7,1.4-4.2,2c-1.5,0.6-3,1.1-4.4,1.8c-2,0-3.5,0.7-5.4,0.8c-2,0.2-3.4-0.3-5.4-0.2c-1-0.4-2.3-0.3-3.2-0.8
		c-1.3-0.1-1.6-1.1-3-1.2c-0.3-0.8-1.2-1.1-1.4-2c-0.8-0.3-0.9-1.3-1.6-1.8c-0.3-0.9-0.4-2-0.8-2.8c-0.1-0.4,0.2-1.3-0.2-1.4
		c0.4-1.7,0.4-3.8,1-5.4c0.1-2.1,1.2-3.2,1.2-5.4c1.3-1.2,2.5-2.6,3.8-3.8c0.8-0.4,1.6-0.9,2.2-1.6c1-0.3,1.6-0.9,2.2-1.6
		c1.8-0.3,2.5-1.6,4.4-1.8c1.1-1,2.9-1.4,4.4-2c3.3-1,6.9-1.6,11.2-1.6c1.3,0.1,2.2,0.5,3.6,0.4c0.8-1.5,0.5-4.1,1.2-5.8
		c-0.4-5.6,0.1-12-0.6-16.7c0.2-1.9,0.2-3.4,0.2-5.8c-0.4-0.4-0.4,0.1-0.6,0.4c-0.4,0.1-0.4,0.5-0.8,0.6c-0.3,0.7-1,0.9-1.4,1.6
		c-1.1,0.8-2,1.9-2.8,3c-1.1,0.8-1.8,2-2.8,3c-1.2,0.8-1.8,2.2-3.2,2.8c-0.4,0.5-0.8,1-1.2,1.6c-0.7,0.3-0.8,1.1-1.6,1.4
		c-1,1-1.8,2.2-3,3c-1.8,2.1-3.4,4.4-5.2,6.6c-4,3.9-7.3,8.4-11.2,12.3c-3.4,4.4-7.1,8.6-11.2,12.3c-1.8,0.9-3.1,2.3-4.8,3.4
		c-0.6,0.8-1.6,1.2-2.4,1.8c-0.9,0.5-1.6,1.2-2.4,1.8c-2.2,0.6-3.7,2-6.2,2.4c-0.7,0.3-0.9,1-1.8,1.2c-1.6,0.2-1.8-0.2-3.6,0
		c-0.5-0.8-1-1.7-1.8-2.2c-0.2-1-0.7-1.7-1.2-2.4c-0.1-1.1-0.7-1.7-1-2.6c-0.9-1.5-1.3-3.5-2.4-4.8c-0.1-1-0.3-1.8-0.6-2.6
		c0.1-3,0-4.9,0.4-7.6c-1-0.4-1.6,1-2.4,1.4c-0.7,0.7-1.5,1.4-2.4,2c-0.5,0.9-1.5,1.3-2.2,2c-0.7,0.8-1.6,1.3-2.4,2
		c-1.6,1.2-3.4,2.3-5,3.6c-0.9,0.5-1.7,1.1-2.4,1.8c-1,0.5-1.9,1-2.6,1.8c-1.5,0.3-2.4,1.2-3.8,1.6c-1.1,0.7-2.2,1.5-3.4,2.2
		c-2.2-0.2-4.2-0.7-5.8-1.6c-0.9-2-1-4-1-7.2c0.5-5.1,1.9-9.7,4-13.7c0.9-2.1,2-4.1,3-6.2c0.8-0.8,1.1-2,1.8-2.8
		c0-0.7,0.6-0.9,0.8-1.4c0.2-0.6,0.7-0.9,0.8-1.6c0.1,0,0.2,0,0.2-0.2C425.3,152,425.3,151.9,425.3,151.8z M515.1,163.8
		c-0.3,0-0.3,0.3-0.6,0.2c-4.8,0.5-9,1.5-12.1,3.6c-1.4,1.2-3,2.3-4.2,3.8c-1.5,1.2-2.4,2.9-3.6,4.4c0,0.9-0.6,1.6-0.8,2.6
		c-0.4,2.5,0.2,5.3,0.8,7.6c0.8,0.3,1.2,1,2.2,1.2c3,0.1,6.2-1.2,8.4-2.6c2.2-1.6,4.2-3.4,6-5.4c1.6-2.2,3.3-4.2,4.4-7
		c0.3-1.5,1.4-2.3,1.6-4c0.6-1.3,1.1-2.8,1.6-4.2C517.8,163.6,516.3,163.9,515.1,163.8z"/>
</g>
<path id="XMLID_342_" class="st0" d="M251.1,246.5c0.3-0.8,0-1.5,0.2-2.2c0.6-0.7,0-1.4,0.4-2.4c0.4-0.1,0.5-0.5,0.6-1
	c5.1-5.2,9.3-11.4,11.3-19.7c-0.4-0.4-0.9,0.2-1.2,0.6c-0.5,0.2-0.8,0.5-1.4,0.6c-0.5,0.9-1.5,1.3-2.2,2c-0.7,0-0.7,0.8-1.2,1
	c-0.4,0.2-0.7,0.7-1.2,0.8c-0.3,0.3-0.5,0.8-1,1c-0.5,0.2-0.9,0.5-1.2,0.8c-0.9,0.5-1.3,1.5-2.2,2c-0.5,0.8-1.4,1.3-1.8,2.2
	c-1,0.4-1.2,1.6-2,2.2c-0.5,0.8-0.9,1.8-1.6,2.4c-0.9,1.9-2,3.5-3.2,5.2c-0.1,1.3-1.2,1.6-1.4,2.8c-0.7,0.6-1,1.6-1.8,2.2
	c-0.2,1.2-1.2,1.6-1.4,2.8c-0.8,0.5-0.9,1.8-1.4,2.6c-0.9,1.8-2,3.4-2.8,5.4c-1.2,1.5-1.9,3.7-3.2,5.2c-1,1.7-2.1,3.4-3.4,4.8
	c-1.8,3.6-4.1,6.8-6.2,10.2c-2.2,3.2-4.3,6.6-6.8,9.6c-0.9,1.9-2.3,3.2-3.2,5c-1.3,1.4-2.2,3.2-3.6,4.6c0.5,1.4,2,1.7,2.6,3
	c0.8,0.1,0.9,0.9,1.6,1.2c0.6,0.3,0.7,1,1.4,1.2c0.4,0.5,0.8,1,1.4,1.4c-0.3,0.8,0.9,0,0.6,0.8c0.3,0.1,0.5,0.3,0.8,0.4
	c0.8,1,1.8,1.8,2.8,2.6c1.1,0.7,1.6,1.9,2.8,2.6c0.5,0.4,0.6,1.2,1.4,1.4c0.1,0.7,0.7,1.1,1.2,1.4c1.3,2.3,3.5,3.7,4.6,6.2
	c1.3,1.2,2.6,2.5,4,3.6c1.6,0.9,2.5,2.5,4.4,3.2c1.1,1.4,2.9,2.1,4.4,3.2c1.4,1.1,3,2,4.6,3c3.3,1.8,6.7,3.4,10.2,5
	c3.6,1.5,7.3,2.8,11.9,3.2c1.8,0.1,4.2-0.1,5.4,0c1.5-0.2,3.5-0.8,4.8-0.6c1-0.1,2.4-0.9,3.2-0.6c0.8,0-0.2,0.9-0.6,1
	c-0.2,0.6-0.9,0.7-1.2,1.2c0.4,0.3,1,0.5,1.8,0.4c-0.3,0.7-1.5,0.5-2,1c-0.9,0-1.4,0.5-2.4,0.4c-1.4,0.5-3.3,0.5-4.6,1.2
	c-0.5,0-1,0-1.2,0.2c-1.5-0.1-2.7,0.1-4,0.2c-4.1-0.4-8-0.2-11.5-1.4c-2-0.3-3.7-0.8-5.2-1.6c-1.9-0.2-3-1.4-4.8-1.8
	c-1.2-1-2.9-1.6-4.4-2.4c-1.2-1-2.6-1.8-4-2.6c-1.3-0.9-2.4-1.9-3.8-2.8c-0.4-0.7-1.2-1-1.8-1.6c-0.7-0.4-0.9-1.2-1.8-1.4
	c-2.2-2.2-4.8-4.1-6.8-6.6c-1.3-1-2.3-2.2-3.4-3.4c-1.3-0.9-2.2-2.2-3.4-3.2c-4.2-4.6-8.7-9-13.9-12.5c-1.2,0.1-1.3,1.2-2.2,1.6
	c-0.4,0.9-1.2,1.3-1.8,2c-1.1,1.4-2.4,2.5-3.6,3.8c-0.5,0.7-1.3,1.2-1.8,2c-0.7,0.6-1.4,1.1-2,1.8c-1.4,1-2.6,2.4-3.8,3.6
	c-4.9,5-10.4,9.4-16.1,13.5c-1.4,1.1-3.1,2-4.4,3.2c-0.7,0.6-1.6,1-2.2,1.6c-0.9,0.3-1.3,1.1-2.2,1.4c-1.2,1.3-3.3,1.7-4.6,3
	c-1.7,0.8-3.3,1.6-5,2.4c-3.6,1.4-7.8,2.2-11.7,3.2c-4.1,0.6-9,0.4-12.9-0.6c0-0.2-0.1-0.2-0.2-0.2c-1.8-0.5-3.1-1.7-4.8-2.4
	c-0.4-0.6-1-1.2-1.8-1.4c0-0.5-0.3-0.8-0.8-0.8c-0.3-0.2-0.2-0.8-0.8-0.8c-0.9-1.2-1.8-2.4-2.8-3.6c-0.7-1.7-1.5-3.3-2.2-5
	c-0.3-2-0.7-3.9-1-6c0-1.4,0-2.8,0-4.2c0.5-4.7,2.2-8.1,3.8-11.7c1-1.6,2-3.1,3-4.8c0.8-0.6,1.2-1.4,1.8-2.2
	c0.4-0.8,1.3-1.3,1.6-2.2c2.6-2.6,4.7-5.6,8-7.6c2.6-2.5,6-4.2,9.4-6c7.3-2.9,16-5.1,25.7-4.2c9.4,0.9,17.6,3,24.9,6
	c1,0.8,2.2,1.2,3.4,1.8c0.7-0.1,0.7-0.9,1.2-1.2c0.3-0.4,0.6-0.9,0.8-1.4c0.9-0.6,1.1-1.8,1.8-2.6c1.2-1.8,2.3-3.7,3.6-5.4
	c0.2-0.6,0.6-1,0.8-1.6c0.4-0.3,0.8-0.7,0.8-1.4c0.9-0.6,1.2-1.8,2-2.4c0.4-1.1,1.1-1.8,1.8-2.6c0.1-0.7,0.6-0.9,0.8-1.4
	c-0.1-0.9,0.4-1.1,0.8-1.4c0.8-2.2,2.3-3.7,3.2-5.8c1-0.4,1-1.9,1.8-2.6c0.7-0.8,1.2-1.7,1.6-2.8c0.8-0.7,1.4-1.6,2-2.6
	c0.6-0.8,1.2-1.7,1.8-2.6c0.6-0.9,1.2-1.7,2-2.4c0.2-1.3,1.4-1.5,1.6-2.8c0.3-0.5,0.7-0.9,1.2-1.2c0-0.7,0.3-1.1,0.8-1.4
	c0.5-0.9,1.2-1.7,1.6-2.8c0.7-0.7,1.4-1.5,1.8-2.6c0.7-0.1,0.6-0.9,0.8-1c0.2-0.5,0.8-0.7,0.8-1.4c0.5-0.3,1-0.6,1-1.4
	c0.2-0.5,0.8-0.7,1-1.2c0.6-0.8,1.4-1.5,2-2.4c0.9-0.6,1.4-1.5,2.2-2.2c0.3-1.2,1.6-1.3,2-2.4c2.8-3.2,5.9-5.9,9.2-8.6
	c1.8-1.2,3.5-2.4,5.6-3.4c1.8-1.2,3.8-2,5.6-3.2c1.1-0.1,2-0.4,3-0.6c1.5,0.2,2.6,0.8,4,1c0.3,0.6,1.1,0.6,1.6,1
	c0.2,0.7,0.8,0.9,1.4,1.2c0.9,0.8,2.3,1.2,2.6,2.6c0,0.2,0,0.4,0.2,0.4c-0.1,2.5-0.9,4.2-1.4,6.8c-2.2,3.3-3.4,7.5-6,10.4
	c-2,3.4-4.6,6.2-7,9.2c-0.5-0.1-0.4,0.4-0.6,0.6c-0.9,0.1-1.5,0.6-2,1.2c-1.3-0.3-1.2,0.8-2.4,0.6
	C252.4,247.1,252.2,246.3,251.1,246.5z M185,293.9c-2.3-1-5.2-1.4-7.8-2.2c-5.3-1.3-12-1.3-18.7-1.2c-0.3,0-0.3,0.3-0.6,0.2
	c-5.1,0.3-9.2,1.7-12.9,3.4c-1.9,0.8-3.4,2.1-5.2,3c-1.4,1.4-3.2,2.4-4.4,4c-1.6,1.1-2.7,2.7-4,4.2c-1.3,1.4-2.3,3.1-3.4,4.8
	c-2.2,3.3-4.1,6.9-4.6,11.9c-0.2,2.4,0.2,4.3,0.4,6.4c0.9,2.1,1.6,4.4,2.8,6.2c0.2,0,0.2,0.2,0.2,0.4c3.6,3.3,7.7,6.1,14.5,6.2
	c6.9-1,12.3-3.5,16.7-7c2.1-1.9,4.3-3.6,6.6-5.4c0.6-1.4,2.2-1.8,2.8-3.2c1.1-0.9,1.9-2.1,2.8-3.2c1-1,1.9-2.1,3-3
	c0.8-1.2,2.2-1.8,2.8-3.2c0.9-0.1,1-1,1.6-1.4c0.4-0.6,0.8-1.1,1.4-1.6c0.8-1.2,1.8-2.2,2.8-3.2c1.7-2.3,3.7-4.2,5.4-6.6
	c0.9-1.1,2-2,2.6-3.4c0.6-0.4,0.9-1.1,1.4-1.6c0.1-0.7,1.2-1.2,0.8-1.8C189.7,295.7,187.4,294.7,185,293.9z"/>
<path id="XMLID_338_" class="st0" d="M667.9,249.3c3.5-0.6,6.7-1.9,10.6-1.6c1.1,0.8,2.8,1,3,2.8c0,2.2-2.1,2.3-3.2,3.4
	c-1.4,0-2,0.6-3.4,0.6c-0.5,0.2-0.8,0.5-1.4,0.6c-2.5,1.2-4.5,2.9-6.8,4.4c-2.2,1.5-3.6,3.9-5.4,5.8c-0.9,0.9-1.7,2-2.6,3
	c-1,0.9-1.3,2.4-2.4,3.2c-0.6,1.2-1.5,2.2-2.2,3.4c-1.1,0.7-1.3,2.3-2.4,3c-0.3,1.1-1,2-1.4,3c-0.8,0.6-0.8,2.1-1.6,2.8
	c-1,1.9-2.1,3.6-3.2,5.4c-0.4,1-1.1,1.8-1.6,2.8c-0.4,1-1.1,1.9-1.6,2.8c-0.5,1-1,1.9-1.6,2.8c0,0.8-0.7,0.8-0.8,1.4
	c-0.2,0.5-0.5,0.8-0.6,1.4c1.4,0.2,3.1-0.6,5.2-0.8c1.5-0.5,3.4-0.4,5-1.2c0.9,0-0.2,0.9,0.6,0.8c1.2-0.2,3.5-0.5,5-1
	c1.3,0.1,1.8-0.4,2.6,0c0.7-0.3,1.6-0.5,2.8-0.4c1.7-0.3,2.5-0.4,4.8-0.6c4.1-0.6,7.3-0.5,11.2-1c6.5,0.3,10.7,0.7,16.1,0.6
	c1.8,0.6,5.3,0.4,7.4,0.8c2.6,0.1,4.8,0.9,7.8,0.8c1.4,0.6,3.3,0.4,4.4,1c0.7,0.4,1.7,0.2,2.6,0.4c0.6,0.1,1,0.3,1.4,0.4
	c0.2,0.1,0.4,0,0.4,0.2c3.5,0.3,6.1,1.6,9.6,2c3.8,1.4,7.7,2.8,11.3,4.4c3.5,1.8,7.1,3.3,10.2,5.6c1.5,1.2,3.2,2.1,4.4,3.6
	c0.7,0.6,1.4,1.2,2,2c0.7,0.6,1.4,1.1,1.8,2c2.7,2.5,4.1,6.2,5.8,9.8c0.3,2,1.3,3.4,1.4,5.6c0.7,1.8,0.4,4.1,1,5.6
	c-0.3,1.3-0.1,3.8,0,5.6c0.3,1-0.5,1-0.4,1.8c0.2,1.4-0.1,2.9,0,4.8c-0.3,0.1,0.1,0.3,0,0.6c-0.5,0.2-0.2,1.3-0.6,1.6
	c-0.4,0.2,0,1.4-0.6,1.4c-0.5-1.5-0.3-2.7-0.4-4.4c0.1-1.8-0.3-3.2,0-4.2c-0.5-2.9-0.3-6.3-1-9c-0.3-1.4-0.5-2.8-0.8-4.2
	c-0.4-1.3-1-2.4-1.2-3.8c-1.3-2-2.3-4.3-3.8-6.2c-0.9-1-2-1.8-2.8-3c-1-0.8-1.8-1.9-3-2.6c-1.8-1.9-4.1-3.3-6.4-4.8
	c-2.4-1.4-5-2.6-7.8-3.6c-1.3-0.6-2.6-1.1-4-1.6c-1.2-0.6-2.8-0.9-4-1.6c-3.1-0.7-6-1.6-9-2.4c-3.1-0.7-6.3-1.1-9.6-1.6
	c-6.7-0.8-14-1-21.1-1.4c-2.7,0.1-5.3,0-7.8,0c-2.4,0-4.7,0.4-7,0.2c-6.9,0.6-13.1,1.2-19.9,2.2c-5.9,0.9-12.4,2.1-18.3,3.6
	c-0.9,0.7-1.1,2.1-2,2.8c-0.4,1.1-1.2,1.9-1.6,3c-1.4,1.6-2.4,3.8-3.6,5.6c-0.7,0.9-1.2,2-1.8,3c-0.6,0.2-0.6,1-1,1.4
	c-0.5,0.2-0.3,1.1-1,1.2c0,0.8-0.9,0.7-0.8,1.6c-0.5,0.3-0.6,0.8-1,1.2c-0.3,0.5-0.7,0.9-1,1.4c0.1,0.8-1.1,0.4-0.8,1.4
	c-0.8,0.8-1.3,1.9-2,2.8c-0.5,1-1.3,1.7-1.8,2.8c-1.3,1.7-2.4,3.7-3.8,5.4c-1.1,2.1-2.6,3.6-3.8,5.6c-1.1,1.9-2.5,3.6-3.6,5.6
	c-1.5,1.6-2.5,3.7-4,5.4c-1.2,1.8-2.6,3.5-4,5.2c-1.4,1.7-2.8,3.5-4.2,5.2c-0.4,0.4-0.7,0.9-1.2,1.2c-0.4,0.4-0.3,1.1-1,1.2
	c-0.5,1-1.4,1.7-2,2.6c-3.2,3-6.2,6.2-10,8.6c-3.6,2.5-8,4.3-11.9,6.6c-2.8,0.7-5.1,1.9-8,2.6c-2.6,0.2-3.7,0-6.8,0
	c-0.6-0.1-1.1-0.4-1.8-0.4c-1.1-0.5-2.3-0.9-3.2-1.6c-1.2-0.4-1.9-1.3-3-1.8c-1.2-1.9-3.1-3.1-4-5.4c-1.3-1.8-1.9-4.3-2.8-6.6
	c0.2-1.2-0.4-2.6-0.2-4.4c-0.2-0.7,0.1-2.5,0-4.2c0.1-0.5,0.3-0.7,0.2-1.4c1-4.3,2.8-7.7,4.6-11.2c0.7-0.6,1.1-1.5,1.6-2.4
	c0.6-0.6,1.1-1.4,1.6-2.2c0.6-0.7,1.2-1.4,1.8-2.2c0.7,0.1,0.4-1,1-1c0.1-0.5,0.7-0.5,0.8-1c5.1-5.3,10.7-10,17.3-13.7
	c0.5-0.8,1.5-1.1,2.4-1.6c0.5-0.7,1.5-1,2.4-1.4c1.5-1.1,3.3-1.9,5-2.8c0.8-0.5,1.7-1,2.6-1.4c0.8-0.4,2-0.5,2.6-1.2
	c1.8-0.8,3.5-1.7,5.4-2.4c1-0.3,1.8-0.8,2.6-1.4c0.8,0.5,0.5-0.3,1.2-0.4c0.1-0.5,1.3,0.1,1.2-0.6c1.1-0.3,1.9-0.7,2.8-1.2
	c0.9-0.4,1.7-0.9,2.6-1.2c1.7-0.9,3.8-1.4,5.4-2.4c1.7-0.9,3.8-1.3,5.2-2.6c1.7,0,2.2-0.9,3.4-0.8c0-1,1-0.2,1.2-0.6
	c0.4-0.4,1.2-0.3,1.6-0.6c1.1-0.4,2.1-0.8,3.2-1.2c1.1-0.5,2.1-0.1,3.2-0.8c1.4-1.1,2-3,3.2-4.4c1-1.5,1.6-3.3,2.8-4.6
	c1.6-3.3,3.7-6.1,5.4-9.4c-0.2-0.2-1.3,0.3-1.6,0.6c-0.7,0.2-1.3,0.4-1.8,0.8c-1.3,0-2.2,0.4-3.6,0.2c-1.2,0.1-1.7-0.6-2.8-0.6
	c-1.3,0.3-2,1.2-3,1.8c-1,0.6-1.7,1.3-2.8,1.8c-0.5,0.6-1.1,1.1-1.6,1.8c-1.9,0.9-3.5,2.1-5.2,3.2c-1.9,0.9-3.5,2.1-5.4,3
	c-1.9,0.9-3.7,1.9-5.8,2.6c-2.2,0.5-4.3,1.2-6.4,1.8c-1.2-0.2-1.8-0.1-3.2,0c-3.8-0.5-6.5-2.1-9.2-3.8c-1.1-1.1-2.1-2.3-3.2-3.4
	c-0.3-0.8-0.8-1.3-1.2-2c-0.1-0.4-0.5-0.6-0.4-1.2c-0.6,0-0.6-0.5-0.6-1c-2.9-5.7-3.9-13.2-3.6-22.1c0.8-6.4,1-12.9,0.6-19.7
	c-0.2-0.2-0.3-0.5-0.2-1c-0.7-1.6-1.7-2.8-2.8-4c-1.3-0.4-2.6-0.7-3.6-1.4c-0.6,0.3-1.4,0.3-2,0c-1.5,0.5-3,1.1-4.2,2
	c-0.8,0.2-1.3,0.7-1.8,1.2c-0.6-0.1-0.5,0.5-1,0.6c-0.6-0.2-0.3,0.7-0.8,0.6c-2.5,1.5-4.8,3.2-7,5c-1.2,0.8-2.3,1.7-3.2,2.8
	c-1.2,0.8-2.1,1.9-3.2,2.8c-0.8,1.2-2,2-3,3c-0.1,0.1-0.1,0.4-0.2,0.6c-0.2,0.3-0.8,0.6-1.2,1c-0.5,0.5-0.9,1.1-1.6,1.4
	c-0.4,0.6-1,1.1-1.8,1.4c-0.2,0.8-1,1-1.4,1.6c-0.5,0.5-1.1,0.9-1.6,1.4c-0.5,0.5-1,1-1.4,1.6c-1.1,0.9-1.9,2.1-3,3
	c-0.8,1.2-1.9,2.1-2.6,3.4c-0.6,0.4-1.1,0.9-1.6,1.4c0,1-0.9,1.1-1,2c-0.8,0.2-0.7,1.3-1.6,1.4c-0.3,0.7-0.7,1.3-1.2,1.8
	c-1.6,2.4-3.6,4.4-5.8,6.2c-0.3,0.6-0.6,1.1-1.2,1.4c-0.1,0.7-1,0.6-1,1.4c-1-0.4-1.3,0-2.2,0.2c-0.8-0.2-1.4-0.7-2.2-1
	c-1-1.2-1.1-3.3-1.8-4.8c-0.1-0.5,0.3-1.6-0.2-1.8c0.9-4.3,1.6-8.8,3.6-11.9c-0.5-0.5-1,0.7-1.4,1c-0.4,0.5-0.8,0.9-1.2,1.4
	c-0.6,1.1-1.6,1.8-2.4,2.8c-0.2,0.7-0.6,1.2-0.8,2c-0.7,0.3-0.9,0.9-1.4,1.4c-1.5,1.1-2.6,2.7-4,4c-0.8,1-1.7,1.9-2.4,3
	c-0.8,0.1-0.7,1.2-1.4,1.4c-0.1,0.7-0.9,0.8-1,1.6c-1.3,0.7-2.2,2-3.4,2.8c-0.5,0.6-1.3,0.9-1.8,1.4c-0.2,0.8-1,1-1.6,1.4
	c-1.3,0.8-2.2,1.9-3.6,2.6c-0.1,0.4-0.5,0.5-1,0.6c0,0.5-0.6,0.5-0.8,0.8c-0.6,0.4-1.4,0.6-1.6,1.4c-0.8-0.2-1.7-0.3-2.4,0
	c-0.8-0.4-1.9-0.6-2.8-1c-0.8-0.4-1.4-1.1-2.4-1.4c-1.3-2.3-2.7-4.6-3.4-7.6c0.2-1.9,0-3.4,0.6-5.2c0.2-1.8,1-3,1.2-4.8
	c1.6-3.1,3.2-6,4.8-9.2c1.1-1.2,1.5-3.1,2.8-4.2c0.7-1.6,1.7-3,2.6-4.4c1.7-3,4.1-5.2,6-8c2.2-2.5,4.3-5,6.8-7.2
	c1-0.4,2.2-0.7,3.2-1.2c1.7,0.2,2.7-0.2,4,0.2c0,0.2,0.2,0.2,0.4,0.2c0.8,0.8,1,2,1.2,3.4c-0.5,2.6-1.4,4.7-2.6,6.6
	c-0.3,0.5-0.3,1.3-0.8,1.6c-0.4,0.3-0.2,1.3-0.8,1.4c-0.5,0.6-0.5,0.6-0.6,1.4c-0.3,0.4-0.7,0.7-0.8,1.4c-0.6,0.2-0.7,0.9-1,1.4
	c-0.6,0.1-0.4,1.1-1,1.2c-0.3,0.5-0.5,1.1-0.8,1.6c-0.3,0.4-0.7,0.8-1,1.2c-0.4,1.2-1.3,1.7-1.8,2.8c-0.2,0.6-0.6,1-1,1.4
	c-0.7,0-0.4,1.1-0.8,1.4c-0.8,0.4-1.2,1.2-2,1.6c-0.3,0.9-0.6,1.8-1.2,2.8c-0.3,0.4-0.7,0.7-1,1.2c-0.3,0.5-0.2,1.1-0.6,1.6
	c-0.4,0.5-1,0.8-1.2,1.6c-0.4,0.5-1,0.9-1.2,1.6c-0.6,0.3-0.6,1.2-1.4,1.4c-0.1,0.4-0.1,0.9-0.6,0.8c-0.5-0.1,0.1,0.9-0.6,0.6
	c-0.2,1.3-1.1,2-1.2,3.4c0.3,1.5,1.2,2.3,2.4,2.8c1.3-0.4,2.2-1.1,3.2-1.8c1.1-0.5,1.7-1.4,2.8-2c2.5-2.9,4.9-5.7,7.6-8.4
	c1.1-1.6,2.5-2.8,3.8-4.2c1.5-1.1,2.5-2.7,3.8-4c1.3-1.3,2.6-2.7,3.8-4.2c0.5-0.8,1.3-1.3,2-2c0.6-0.6,1.4-1.3,1.8-2.2
	c1.7-1,2.6-2.7,4-4c0.8-0.5,1.3-1.3,2-2c0.9-0.4,1.3-1.2,2.2-1.6c0.7-1,1.7-1.8,2.2-3c0.8-0.9,1.8-1.6,2.4-2.8
	c1.7-1.7,2.9-3.8,5-5.2c0.7-0.1,1.5-0.2,2.2-0.4c0.5-0.2,0.9-0.5,1.6-0.4c0.3-0.4,0.3-1,1.2-0.8c0.7,0,0.7,0.6,1,1
	c0.3,0.4,0.7,0.6,0.8,1.2c0.2,1-0.1,3-1,3.6c0.2,0.6-0.6,0.2-0.4,0.8c0,0.4-0.1,0.7-0.4,0.8c-0.3,0.5-0.6,1-1,1.4
	c-0.2,1.4-1.8,1.5-1.8,3.2c-0.8,0-0.5,1.1-1.2,1.2c0.1,0.9-0.6,1-0.6,1.8c-1.1,0.9-1.7,2.4-2.8,3.4c-0.6,1.4-1.6,2.4-2.2,3.8
	c-0.6,0.4-0.5,1.5-1.2,1.8c-0.3,0.7-0.7,1.3-1.2,1.8c-0.5,1.5-1.6,2.4-2.2,3.8c-0.7,1.3-1.5,2.5-2,4c0.3,0.4,0.8-0.7,1.2-1
	c0.5-0.4,0.8-0.9,1.2-1.4c0.9-0.8,1.7-1.8,2.6-2.6c1.6-1.8,3.3-3.6,5-5.4c3.4-3.5,6.9-6.9,10.2-10.6c3.8-3.1,7.5-6.3,11.3-9.4
	c3.5-3.3,8.2-5.5,12.7-7.8c5-1.5,9.9-3.1,16.1-3.4c2.4,0.4,3.9,1.8,5.6,3c1.1,1.6,2.1,3.3,3,5.2c2,9.3,1.4,18.9-0.2,27.5
	c0.3,3.8,0.7,6.8,1.4,10.6c0.5,1.4,1.1,2.7,1.6,4.2c0.6,1.1,1.5,2,2,3.2c1.3,0.8,2.1,2,3.6,2.6c1.4,0.6,3,1.1,4.8,1.4
	c1.4,0,2.5-0.3,4-0.2c4.1-0.7,7.3-2.2,10.4-4c0.8-0.4,1.4-1,2.4-1.2c0.7-0.5,1.6-0.8,2.2-1.4c1.5-0.8,3.1-1.6,4.6-2.6
	c-2.1-1-4-2.1-5.8-3.4c-0.8-0.9-1.3-2-2.2-2.8c0-0.8-0.7-1-0.8-1.8c0.1-0.9-0.9-0.7-0.6-1.8c-1.2-2.1-1.2-5.3-1.8-8
	c-0.1-2.4,0.2-4.3,0.2-6.6c0.4-1.3,0.6-2.5,1-3.8c0.5-1.9,1.1-3.9,1.8-5.8c1.1-3,2.5-5.6,4.2-8c0.6-1.4,1.7-2.5,2.4-3.8
	c1-1,1.5-2.4,2.6-3.4c0.7-1.4,1.9-2.2,2.6-3.6c1.3-0.7,1.8-2.2,3-3c0.9-1.1,2-2.2,3-3.2c1.5-1.5,3-2.9,4.8-4.4
	c1.3-1,2.8-2.1,4.4-3.2c0.1-0.1,0.4-0.1,0.6-0.2c0.2-0.2,0.8-0.7,1.2-1c0.2-0.1,0.4-0.1,0.6-0.2c0.6-0.4,1.5-0.9,2.4-1.4
	c3.8-2,8.2-3.9,13.1-5c0.8,0.1,2.2-0.2,2.4,0c1.5-0.2,4-0.1,5.2,0.6c1.7-0.2,2.9,0.2,4.2,0.4c1.7,1.1,3.3,2.2,4.8,3.6
	c1,2,2.1,4,2.6,6.6c-0.1,5.5-1.6,9.6-2.8,13.9c-0.6,0.6-0.8,1.6-1.2,2.4c-0.2,0.3-0.1,0.3,0,0.6c-0.3-0.1-0.4,0.2-0.4,0.4
	c-0.2,0.4-0.3,0.7-0.4,1.2C669.4,246.2,668.5,247.6,667.9,249.3z M659.5,220.4c-2.7,1-5.5,2-8,3.2c-1.7,1.5-4,2.5-5.6,4.2
	c-2.2,1-3.7,2.8-5.6,4.2c0,0.4-0.5,0.3-0.4,0.8c-0.5-0.1-0.7,0.1-0.6,0.6c-0.6-0.2-0.2,0.6-0.8,0.4c-0.5-0.1,0.1,0.9-0.6,0.6
	c-0.1,0.7-0.7,0.9-1.2,1.2c-0.5,0.4-0.4,1.4-1.2,1.4c-1.5,1.8-3.1,3.6-4.8,5.2c-0.9,1.7-2.3,3-3.2,4.8c-0.9,0.4-1.1,1.6-1.8,2.2
	c0.1,0.8-0.9,0.5-1,1c-0.2,0.6-0.7,0.8-0.8,1.4c-0.6,0.7-1.2,1.5-1.6,2.4c-0.8,0.5-0.8,1.9-1.6,2.4c0,1.3-0.9,1.7-1.2,2.8
	c-0.6,0.8-0.8,2-1.6,2.6c-0.6,2.6-1.7,4.7-2.4,7.2c-0.3,4.2,0.2,7.8,1.6,10.8c1.7,1.7,4.1,2.8,6.8,3.6c5.5,0.6,9.7-2.5,13.7-4.6
	c1.2-2.2,2.7-4.1,4-6.2c0.6-1,1.4-1.9,2-3c0.6-1.1,1.6-1.8,2.2-3c3.4-3.3,6.4-7.2,10-10.4c1.9-2.7,3.7-5.4,5.6-8.2
	c0.8-1.5,1.7-2.8,2.4-4.4c1-1.4,1.3-3.4,2.2-4.8c0.3-2.5,1.2-4.4,1.6-6.8c-0.1-0.8,0.1-1.3,0.2-2c-0.1-1.1-0.2-2.6-0.4-4.2
	c-0.2,0-0.2-0.2-0.2-0.4c-0.5-0.9-0.9-1.7-1.6-2.4c-0.1-0.5-0.6-0.8-0.8-1.2c-0.4-0.3-1.1-0.4-1.2-1c-1.1,0-1.6-0.7-2.8-0.6
	c-0.1,0-0.2,0-0.2,0.2C660.3,220.4,659.9,220.4,659.5,220.4z M614.3,314.4c-1.9,0.7-3.9,1.4-5.8,2.2c-0.5,0.2-1.1,0.2-1.4,0.6
	c-0.3,0.4-1.4-0.1-1.4,0.6c-1.3,0.1-1.9,0.9-3,1.2c-0.7,0.7-1.9,0.7-2.6,1.4c-1,0.3-1.8,0.9-2.8,1.2c-0.7,0.7-1.8,0.9-2.6,1.4
	c-1.2,0.2-1.6,1.2-2.8,1.4c-3.3,2.1-7.2,3.6-10.6,5.6c-3.8,1.5-7,3.8-10.6,5.6c-0.6,0.7-1.7,1-2.4,1.6c-0.8,0.6-1.7,1-2.4,1.6
	c-1.7,1-3.3,2.2-4.8,3.4c-1.5,1.1-3.1,2.2-4.4,3.6c-1.6,1.1-2.7,2.7-4.4,3.8c-1.1,1.6-2.6,2.8-3.6,4.4c-1.3,1.4-2.5,2.9-3.2,5
	c-1.3,1.4-1.9,3.6-2.8,5.4c-0.7,2-1.2,4.2-1.4,6.8c0,2.6,0.9,4.4,1.4,6.6c0.7,0.2,0.9,0.9,1.2,1.6c0.7,0.3,0.8,1,1.4,1.4
	c1,0.9,2.1,1.7,3.2,2.6c1,0,1.5,0.5,2.2,0.8c2.4-0.2,4.1,0.2,6.2-0.8c2.4-0.5,4.4-1.3,6.2-2.4c3.8-1.9,7.2-4.2,10.2-7
	c1.6-1.3,3-2.7,4.4-4.2c0.7-0.6,1.3-1.5,2-2.2c0.6-0.8,1.6-1.3,2-2.4c2.9-2.8,4.9-6.5,7.6-9.6c4.4-7,9-13.8,13.3-20.9
	c0.4-1,1.3-1.5,1.6-2.6c0.7-0.7,1.1-1.8,1.8-2.6c1-1.9,2.3-3.4,3.4-5.2c1.1-1.7,2.2-3.5,3.4-5.2c0.5-0.9,1-1.8,1.6-2.6
	c0.3-0.4,0.6-0.9,0.8-1.4c0.3-0.1,0.2-0.4,0.4-0.6c0.6-0.1,0-0.6-0.4-0.4c-0.1,0-0.3,0-0.4,0C614.6,314.1,614.6,314.3,614.3,314.4z"
	/>
<path id="XMLID_160_" class="st0" d="M515.5,226c0,0.3-0.1,0.8,0.2,0.8c-0.1,1.4-0.5,2.4-0.8,3.6c-0.8,0.5-1.1,1.6-1.6,2.4
	c-0.5,0.8-1,1.6-1.4,2.6c-1,1.6-2.2,3.1-3.2,4.8c-0.7,0.4-1,1.1-1.8,1.4c0,0.5-0.3,0.8-0.8,0.8c0.2,0.6-0.3,0.6-0.4,1
	c-0.4,0-0.5,0.4-0.8,0.6c-0.6,0.3-1.4,0.2-1.6,1c-0.5-0.1-1.2-0.4-1.6,0c-0.6-0.1-0.9-0.6-1.4-0.8c-0.3-0.4-0.7-0.7-1.2-0.8
	c-0.1-0.9-0.9-1.1-1.2-1.8c0.1-2.1,0.5-2.8,0.8-5.2c2.2-4.4,4.4-8.8,8.4-11.5c0.9-0.1,1.7-0.3,2.4-0.6c0.5,0,0.5,0.4,0.8,0.6
	c0.6,0,1.2,0,1.8,0C513.3,225.2,514.8,225.3,515.5,226z"/>
<path id="XMLID_332_" class="st0" d="M339.7,248.1c9.6,0.3,17.7-1.2,27.1-1.6c1.1-0.2,1.2-1.3,2-1.8c0.4-0.8,1.3-1.1,1.6-2
	c1.4-1.1,2.4-2.5,3.6-3.8c1.4-1.1,2.4-2.5,4-3.4c0.5-0.7,1.6-0.8,2-1.6c0.7,0.1,0.6-0.6,1-0.8c0.7,0.1,0.8-0.3,1.2-0.6
	c2.5-0.1,4.3-0.6,6,0.6c0.3,0.6,0.6,1.2,0.8,1.8c-0.1,1.7-1.8,2.9-2.8,4.2c-0.7,1.1-1.4,2.2-2.2,3.2c-0.5,0.4-0.7,1-1,1.6
	c-0.2,0.7-1.1,0.6-1,1.6c5.2,0.1,9.5-0.4,14.9-0.2c0.3,0.3,0.4,0.8,1,0.8c0.5,0.9,1.4,2.5,1,3.6c-0.3,0.7-0.9,1.1-2,1
	c-0.2-0.2-1.7,0.1-2.6,0c-2-0.1-3.8,0-5.6,0.2c-4.5,0.1-6.3-0.1-10.6,0c-0.9,0.1-0.8,1.2-1.4,1.6c-0.2,0.8-1.1,0.9-1.2,1.8
	c-0.4,0.6-1.1,0.9-1.4,1.6c-0.1,0.9-1.2,0.8-1.2,1.8c-0.8,0.2-0.8,1.2-1.4,1.6c-0.5,0.5-0.7,1.3-1.4,1.6c-0.5,0.5-0.8,1.2-1.2,1.8
	c-0.7,0.3-0.6,1.4-1.4,1.6c-0.6,1.4-1.8,2.2-2.4,3.6c-1.2,0.8-1.5,2.5-2.6,3.4c-0.6,1.4-1.7,2.3-2.4,3.6c-0.8,1.2-1.8,2-2.4,3.4
	c-1.1,0.9-1.4,2.6-2.6,3.4c-0.4,0.6-0.4,1.5-1,2c-0.6,0.4-0.7,1.3-1.2,1.8c-0.9,1.1-1.8,2.2-2.4,3.6c-1.1,0.9-1.5,2.4-2.4,3.4
	c-0.4,1.6-1.4,2.5-2,4c-0.7,1.3-1.2,2.8-2,4c-0.4,1.6-1.1,2.9-1.6,4.4c-0.3,1.6-0.7,3.1-0.8,5c0.2,1.8,0.5,3.3,1.2,4.6
	c1.7,2.9,4.8,4.3,9,4.8c0.7-0.1,1.1-0.3,2-0.2c2.8-0.6,5-1.7,7.2-2.8c2-1.2,3.8-2.7,5.8-4c4.1-2.5,7.7-5.4,11.2-8.6
	c-0.1-2.7,0.4-4.7,0.6-7.2c1.1-2.7,1.5-6,3-8.4c0.9-2.8,2.9-4.7,3.8-7.6c0.9-0.3,1.1-1.4,1.8-2c0.6-0.6,0.9-1.5,1.8-1.8
	c0.1-1.1,1-1.4,1.4-2.2c0.5-0.7,1.1-1.3,1.6-2c2.3-2.5,4.6-5.1,7-7.6c2.6-2.2,5.2-4.5,8.2-6.4c2.7-2.1,5.3-4.3,8.6-6
	c1.5-0.4,3.2-0.5,4.8-0.8c0.7,0.3,1.9,0.3,2.6,0.6c0.1,0.5,0.6,0.4,0.8,0.8c-0.1,0.6,0.3,0.8,0.4,1.2c0.9,0.2,1.5,0.7,2,1.4
	c1.2-0.1,1.4,0.8,2.2,1.2c0.4,1.3,0.8,2.5,1,4c0,0.3-0.3,0.5,0,0.6c-0.2,1.1-0.7,1.8-0.8,3c-1.1,1.6-2,3.4-3.4,4.8
	c-0.4,1-1.4,1.4-1.6,2.6c-0.7,0-0.5,0.8-1,1c-0.2,0.4-0.7,0.7-0.8,1.2c-1.3,1.4-2.4,3-3.8,4.4c-0.9,0.4-1.1,1.5-2,2
	c-0.5,0.9-1.4,1.3-1.8,2.2c-0.9,0.4-1.4,1.2-2.2,2c-0.8,0.5-1.3,1.3-2.2,1.8c-1.2,1.4-2.8,2.5-4.2,3.8c-2.8,2.6-6.1,4.7-9.6,6.6
	c-1.9,0.5-3.8,0.9-6,1c-0.5,0-0.9,0-1.4,0c-0.4-0.1-0.2-0.8-0.8-0.6c-0.9,2.4-1.2,5-0.6,7.8c0.6,1.5,1.9,2.3,3.2,3.2
	c1.6,0.5,4,0.4,6.2,0.4c0.9-0.2,1.6-0.5,2.6-0.6c4.9-2,9.2-4.6,12.7-8c0.8-0.1,0.9-0.9,1.4-1.2c0.7-0.1,1-0.7,1.4-1.2
	c1.1-0.7,2-1.5,2.8-2.4c3.4-3,6.6-6.2,9.8-9.6c0.3-0.3,0.8-0.7,1.2-1.2c0.1-0.1,0.1-0.5,0.2-0.6c0.3-0.3,0.7-0.3,1-0.6
	c0.4-0.4,0.5-1,1-1.4c0.1-0.1,0.5-0.1,0.6-0.2c0.1-0.1,0.1-0.5,0.2-0.6c0.4-0.6,1.4-1.3,2-2c0.8-0.8,1.6-1.5,2.4-2.4
	c0.2-0.3,0.3-0.7,0.6-1c0.1-0.1,0.3,0.1,0.4,0c0.1-0.1,0.1-0.6,0.4-0.8c0.2-0.1,0.4-0.1,0.6-0.2c0.3-0.2,0.3-0.7,0.6-1
	c0.2-0.1,0.4-0.1,0.6-0.2c0.3-0.2,0.5-0.5,0.8-0.8c1.1-1,2-2.2,3.2-3.2c-0.5-1.1-0.8-2.4-1.2-3.6c0.2-0.8,0.2-1.4,0-2.2
	c0.3-0.9,0.6-2,0.8-3c0.2-1,1-1.4,0.8-2.8c0.8-0.1,0.6-1.4,1.2-1.8c0-0.5,0.4-0.7,0.6-1c-0.3-0.5,0.8-0.6,0.2-0.8
	c1.7-2,3.1-4.4,4.8-6.4c1.7-1.9,3.5-3.8,6-5c2.7,0,5.6,0,6.6,2.2c0.1,1.3-0.4,2.2-0.8,3c-0.6,0.5-0.6,1.7-1.2,2.4
	c-0.3,0.8-0.8,1.6-1.4,2.2c-0.3,0.8-1,1.4-1.2,2.4c-1.4,1-2.1,2.8-3.4,4c-0.6,0.6-1,1.4-1.6,2c-0.2,0.4-0.4,0.8-0.4,1.4
	c-0.6,0-0.5,0.7-0.8,1c0.5,1.4,1.9,2,3,2.8c1,1.8,1.9,3.7,2.2,6.2c-0.5,1.3-0.7,2.9-1,4.4c-0.4,0.8-0.6,0.9-0.6,1.8
	c-0.1,0.7-0.5,1.3-0.6,2c-0.3,1.5-1,2.5-1.6,3.8c-0.3,1.5-1.2,2.3-1.6,3.8c-0.6-0.2-0.3,0.6-0.6,0.8c-0.4,0.1-0.4,0.5-0.6,0.8
	c-0.4,0.5-0.6,1.1-1.2,1.4c-0.6,0.4-0.4,1.4-1.2,1.6c-0.2,0.7-0.6,1.1-1,1.6c-0.2,0.7-0.9,0.9-1.2,1.6c-0.5,0.3-0.6,1.1-1.4,1.2
	c-0.2,0.7-0.4,1.5-1.2,1.6c-0.1,0.7-0.7,1-1.2,1.4c-0.5,1.8-1.7,2.9-2.6,4.4c-0.1,1.1-0.9,1.5-1.2,2.4c-0.5,0.6-0.4,1.8-1,2.4
	c0,0.5,0,1-0.2,1.2c-0.1,1.7,0.2,3,0.4,4.4c1.3,3,4.2,4.4,7.2,5.8c3.7,0.9,8.1,1.6,12.5,1.4c4.4-0.2,8.5-1.1,11.7-2.2
	c3.8-0.9,6.9-2.4,10-4c3.2-1.5,6.2-3.1,9.2-4.8c0.3,0-0.2,1.4-0.8,1.4c-0.5,0.3-0.6,1-1.2,1.2c-0.4,0.4-0.8,0.8-1.4,1
	c-0.1,0.7-1.2,0.4-1.2,1.2c-2.1,1.1-3.9,2.4-5.8,3.8c-4.1,2.3-8.5,4.2-13.3,5.8c-2.5,0.7-5,1.3-7.8,1.8c-2.3,0.7-5,0.8-8.4,0.8
	c-3.1-0.1-5.8-0.5-8.2-1.4c-1-0.5-2.1-1.1-3.2-1.6c-1-0.6-1.9-1.3-3-1.8c-1.8-1.8-3.5-3.6-5-5.8c-0.2-1-0.6-1.9-1-2.8
	c-1-4.7-0.3-8.2,0.8-12.7c1.1-4.1,2.8-7.6,4.8-10.8c1.9-3.2,4-6.3,6.2-9.4c1.1-1.5,2.1-3,3.2-4.6c0.8-1.8,2.2-2.9,2.6-5.2
	c0-0.2-0.4-0.1-0.4-0.4c-0.8,0.3,0-0.9-0.8-0.6c-1.3-0.3-1.2,0.9-1.8,1.4c-0.6,0.3-1,1-1.4,1.6c-1.1,0.9-1.8,2.2-2.8,3.2
	c-1.7,2.4-3.4,4.7-5.2,7c-3.5,4.5-7.1,8.9-10.6,13.5c-0.7,0.1-0.6,0.9-1,1.4c-0.1,0.2-0.6,0.2-0.8,0.4c-0.2,0.2,0,0.6-0.2,0.8
	c-0.1,0.1-0.3,0.1-0.4,0.2c-0.5,0.5-1.2,1.5-1.8,2.2c-1.5,1.6-3.2,3-4.8,4.4c-1.1,0.9-2.1,1.9-3.2,2.8c-1.3,0.7-2.2,1.9-3.8,2.4
	c-0.3,0.7-1.4,0.6-1.8,1.2c-0.6,0.4-1.4,0.6-2,1c-1.5,0.5-2.9,1.1-4.4,1.6c-1.4,0.6-3.4,0.6-5,1c-1.2,0-2.4,0-3.6,0
	c-1.5-0.4-3-0.9-4.4-1.4c-0.3-0.6-1.5-0.5-1.8-1.2c-0.9-0.1-1-0.9-1.8-1c0.1-0.5-0.4-0.4-0.6-0.6c-1.3-1.9-2.4-3.8-3.2-6.2
	c-0.8,0.1-0.9,0.9-1.6,1.2c-0.5,0.4-1,0.7-1.2,1.4c-1.2,0.6-1.6,2-2.8,2.6c-1.8,1.8-3.9,3.2-6,4.8c-1.9,1.7-4,3.2-6.4,4.4
	c-0.4,0.6-1.3,0.5-1.8,1c-0.5,0.4-1.3,0.4-1.8,0.8c-1.2,0.6-2.7,0.7-4,1.2c-1.3-0.3-1.8,0-3.4-0.2c-2-0.4-3.8-1-5.6-1.6
	c-0.8-0.7-1.8-1.3-2.8-1.8c-1.2-1.7-2.8-3-3.6-5.2c-1.1-1.8-1.5-4.2-2.2-6.4c-0.3-9.6,2.2-16.8,5.2-23.5c-0.3-0.4-0.8,0.6-1,1
	c-0.5,0.2-0.7,0.8-1,1.2c-0.9,0.6-1.2,1.8-2.2,2.4c-1.1,2-2.7,3.4-4,5.2c-1.4,1.7-2.7,3.4-4.2,5c-1.4,1.6-2.6,3.5-4.2,5
	c-2.9,3.2-5.8,6.4-9.2,9.2c-3.4,2.7-6.8,5.4-12.5,5.8c-1.2-0.3-2-1-3.2-1.4c-1.2-1.3-2.4-2.6-3.2-4.2c-0.8-1.6-1.3-3.5-1.6-5.6
	c-0.1-5.5,0.3-9.4,1.6-14.1c0.5-2.2,1.2-4.3,2-6.2c0.7-2,1.8-3.6,2.4-5.8c-1.8,1.8-3.5,3.7-4.8,6c-2,1.6-3.2,4-5.2,5.6
	c-0.5,1.3-1.9,1.7-2.4,3c-0.8,0.1-0.9,1-1.4,1.4c-0.5,0.3-0.9,0.8-1.4,1.2c-1.4,2.2-3.6,3.6-5.2,5.6c-2.6,1.6-4.8,3.6-7.4,5.2
	c-0.7,0.3-1.2,0.9-2,1.2c-0.8,0.2-1,1-2,1c-0.5,0.7-1.6,0.5-2.4,0.8c-0.1,0-0.5,0.1-0.6,0.2c-0.2,0.1-0.2,0.3-0.4,0.4
	c-0.4,0.2-0.8,0.1-1,0.4c-1,0.1-2,0.1-2.8,0.4c-0.7-0.1-1.4-0.3-2.4-0.2c-0.7-0.1-0.9-0.6-1.6-0.2c-0.2-0.5-0.8-0.7-1.6-0.6
	c-1.6-0.9-3.1-1.8-4.8-2.6c-1.4-1.4-2.8-2.8-4-4.4c0.1-0.7-0.3-0.8-0.6-1.2c-0.7-2.9-1.5-5.7-1.8-9c0.3-6,1.9-12.1,5.2-15.7
	c0.5-1.3,1.6-2,2.2-3.2c0.9-0.9,1.8-1.8,2.4-3c1.7-1.8,3.5-3.5,5.2-5.4c2-1.6,3.7-3.5,5.6-5.2c1.9-1.6,3.9-3.1,6-4.6
	c2-1.6,4.2-3,6.6-4.2c2.2-1.3,4.8-2.3,7.6-3c2.4-0.1,3.3-0.2,6.2-0.2c0.9,0.5,2,0.7,2.8,1.2c0.4,0.7,0.9,1.2,0.8,2.4
	c0.7,1.1,1.9,1.6,2.6,2.8c0.2,0.6,0.1,1.5,0.4,2c0.2,0.8-0.2,1-0.2,1.6c-0.5,2.2-1.3,4-2.4,5.6c-0.2,1.1-1,1.6-1.4,2.6
	c-0.7,0.6-0.9,1.6-1.6,2.2c-1,1.6-2.2,3-3.4,4.4c-1.3,1.3-2.4,2.8-4,3.8c-2.6,2.7-5.4,5-8.6,7.2c-1.2,1.4-3,2.2-4.6,3.2
	c-1.7,0.9-3.6,1.6-5.4,2.4c-2.8,0-5.1-0.6-7-1.6c-0.8,0.4-0.5,1.8-1.8,1.8c-0.1,1-0.4,1.7-1,2.2c-0.4,2.1-1,4-1,6.6
	c0.2,0.2,0.3,0.5,0.2,1c1,2,2.6,3.5,4.6,4.6c1.1-0.1,1.6,0.4,2.8,0.2c3.6-0.8,6-2.8,9-4.2c1.9-1.3,3.3-2.9,5.2-4.2
	c0.7-0.9,1.8-1.4,2.4-2.4c0.5-0.3,0.9-0.7,1.4-1c0.1-0.6,0.9-0.5,1-1.2c0.9-0.7,1.6-1.6,2.4-2.4c0.9-0.6,1.5-1.5,2.2-2.4
	c0.8-0.7,1.7-1.4,2.2-2.4c0.8-0.7,1.7-1.4,2.2-2.4c6.2-6.1,11.7-13,18.3-18.7c2.3-4.4,5.3-8.2,8-12.3c-2.5-0.9-4.7,0.1-8-0.2
	c-1-0.1-2.1,0.8-2.8,0.4c-0.7,0.2-1-0.2-1.4-0.4c-0.3-0.2-0.8-0.2-1-0.6c0.2-0.9-0.7-0.7-0.6-1.4c0.6,0.3,0.6-0.9,0.2-0.8
	c0.3-0.3,0.5-0.6,0.8-0.8c0.9-0.6,2.3-0.8,3.2-1.4c4.2-0.5,9.6-0.5,13.9-0.8c1.3-0.6,1.6-2.3,2.8-3c0.8-1.1,1.8-2,2.6-3.2
	c1.9-1.9,3.8-3.8,5.6-5.8c2.1-1.7,3.9-3.7,6.2-5.2c0.8-1.2,2.3-1.5,3.2-2.6c1.1-0.8,1.7-2,3-2.6c2.2-0.2,3.2,0.1,5.4,0.2
	c0.5,1,1.8,1.1,1.8,2.6c0.2,1.5-1.1,1.6-1.4,2.6c-0.1,0.5-0.8,0.6-0.8,1.2c-0.3,0.3-0.6,0.7-0.8,1.2c-1.3,1.4-2.2,3.1-3.4,4.6
	c-1,1.6-2.2,3.1-3.4,4.6C341.9,245.1,341,246.7,339.7,248.1z M358,252.3c-7.5,0.6-14.6,0.9-21.9,1.2c-0.7,1.2-1.4,2.4-2.2,3.6
	c-0.3,0.6-0.7,1.3-1,2c-0.8,0.2-0.8,1.2-1.4,1.6c-0.6,1.3-1.6,2.3-2.4,3.4c-0.9,1.1-1.5,2.5-2.6,3.4c-0.4,1.5-1.7,2.2-2.2,3.6
	c-0.4,0.6-0.9,1.1-1.2,1.8c-0.4,0.6-1,1-1.2,1.8c-0.8,0.2-0.9,1.1-1.2,1.8c-0.7,0.3-0.7,1.3-1.4,1.6c-0.9,1.1-1.5,2.5-2.4,3.6
	c-0.8,1.1-1.4,2.5-2.4,3.4c-0.2,0.8-1,1-1,2c-1,0-0.8,1.2-1.4,1.6c-1.7,2.2-3.4,4.4-4.8,7c-1.3,2.6-3,4.8-3.8,8
	c-0.8,1.2-1.2,2.7-1.6,4.4c-0.5,1.3-0.9,3.5-0.4,5.2c0.8,1.4,3.6,1.4,5.6,1c0.7-0.5,1.5-0.9,2.2-1.4c0.7-0.5,1.1-1.3,2.2-1.4
	c0.3-0.8,1-1.3,1.6-1.8c0.6-0.6,1.1-1.1,1.8-1.6c1-1.3,2.4-2.1,3.2-3.6c1.4-0.9,2.1-2.4,3.4-3.4c0.5-0.7,1-1.3,1.6-1.8
	c0.5-0.7,0.8-1.5,1.8-1.8c0.7-1.6,2.2-2.3,3-3.8c0.8-0.4,1-1.3,1.6-1.8c0.6-0.5,1.3-1,1.6-1.8c1.4-0.9,2.1-2.4,3.4-3.4
	c0.7-1.6,2.2-2.4,3-4c4.4-4.7,8.2-10,12.7-14.5c2.3-2.3,4.2-4.9,6-7.8c0.6-0.6,1.1-1.2,1.4-2c0.7-0.5,1.1-1.2,1.6-1.8
	c0.8-1.6,2.3-2.3,2.8-4.2C360.7,252.3,359.2,251.8,358,252.3z M420,260.2c-1,0.4-1.3,1.3-2.2,1.8c-0.7,0.4-1.2,0.8-1.8,0.8
	c0,0.7-0.9,0.5-1,1c-0.4,0.3-0.5,1-1.2,1c-0.8,0.6-1.3,1.6-2.4,2c-0.2,0.8-0.8,1.1-1.2,1.8c-0.8,0.2-0.8,1.3-1.8,1.4
	c0.1,0.6-0.3,0.8-0.4,1.2c-1.1,0.5-1.7,1.5-2.6,2.2c-0.1,0.8-0.8,0.9-0.8,1.8c-1.2,0.5-1.5,1.8-2.8,2.2c-1.1,2-2.6,3.5-4.2,5
	c-0.1,0.6-0.5,1-0.8,1.4c-0.2,0.6-0.8,0.8-1,1.4c-0.7,0.8-1.2,1.9-2,2.6c-0.6,0.9-1.6,1.5-2.2,2.4c-0.3,0.5-0.9,0.6-0.8,1.4
	c-0.5-0.1-0.2,0.6-0.6,0.6c0.1,0.4-0.6,0.6,0.2,0.6c0.7,0.2,0.9-0.2,1-0.6c0.7,0.2,0.8-0.2,1.2-0.4c0.6,0.5,1.3-0.2,2-0.2
	c6.1-3.4,10.6-8.5,15.3-13.3c0.7-1.7,2.2-2.6,3-4.2c1.3-1.1,2.1-2.7,3.2-4c0.7-1.7,2-2.8,2.6-4.6c0.5-0.1,0.4-0.8,0.8-1
	c-0.3-0.9,0.6-0.6,0.4-1.4c0.5-0.7,0.8-1.6,0.8-2.8c0-0.2-0.2-0.3-0.4-0.4C420.3,260.1,420.1,260.2,420,260.2z M290.1,262
	c-2.1,1.2-4,2.5-5.8,4c-1,0.6-1.7,1.6-2.8,2.2c-0.8,0.9-1.7,1.7-2.6,2.4c-0.3,0.6-0.8,0.9-1,1.6c-1.9,0.8-2.6,2.8-4.6,3.6
	c0.1,0.9-0.9,0.7-0.8,1.6c-0.7,0.1-1,0.7-1.4,1.2c-0.8,0.9-1.8,1.7-2.6,2.6c-0.7,1-1.6,1.9-2.4,2.8c-0.6,1.2-1.7,1.7-2.2,3
	c1.6,0.3,3.2,0.5,5.2,0.4c2.4-1.5,4.5-3.4,6.6-5.2c2.1-1.8,4.1-3.7,6-5.8c2-2,3.8-4,5-6.8c1-1,1.2-2.6,2.2-3.6
	c0.4-1.6,1.4-2.5,1.8-4.2c0.3,0,0-0.3-0.2-0.4C290.5,261.7,290.2,261.8,290.1,262z"/>
<path id="XMLID_155_" class="st0" d="M568.7,254.1c0.1-0.4,1.2-0.2,1.4,0C569.9,254.6,569.1,254.1,568.7,254.1z"/>
<path id="XMLID_154_" class="st0" d="M676.2,295.1c-0.3,0.7-0.7,0.1-1.4,0.4c-0.7,0-1.3,0-2,0c-0.9,0.2-2.2,0.1-3.4,0.4
	c-3.1,0.1-6,0.3-8.6,1c-0.8-0.4-1.4,0.1-2.4,0c2.6-0.8,6.1-0.7,8.8-1.4C670.4,295.6,673.6,294.8,676.2,295.1z"/>
<path id="XMLID_153_" class="st0" d="M676.6,294.9c1.4,0.1,2.4,0,4,0.2c-0.4,0.3-1.3,0.2-2.2,0.2
	C677.8,295.3,676.6,295.6,676.6,294.9z"/>
<path id="XMLID_152_" class="st0" d="M688.6,295.3c0.2,0.2,0.4,0.2,0.8,0.2C689.4,295.8,688.3,295.8,688.6,295.3z"/>
<path id="XMLID_151_" class="st0" d="M658.3,296.7c0,0.5-0.7,0.4-1.2,0.4C657.3,296.8,658,296.9,658.3,296.7z"/>
<path id="XMLID_150_" class="st0" d="M655.9,297.3c0.1-0.3,0.5-0.2,0.8-0.2C656.7,297.4,656.2,297.3,655.9,297.3z"/>
<path id="XMLID_149_" class="st0" d="M655.5,297.3c-0.6,0.4-1.7,0.5-2.4,0.4c-0.7,0.4-1.6,0.6-2.8,0.6c0.4-0.7,2-0.2,2.6-0.8
	C653.9,297.5,654.4,297.1,655.5,297.3z"/>
<path id="XMLID_98_" class="st0" d="M61.2,393.1C60.9,393.1,61,392.8,61.2,393.1L61.2,393.1z"/>
<path id="XMLID_97_" class="st0" d="M60.6,393.7C59.7,393.8,60.5,393.1,60.6,393.7L60.6,393.7z"/>
<path id="XMLID_96_" class="st0" d="M161.3,393.7c0,0.4-0.2,0.6-0.6,0.6C160.8,394,161,393.8,161.3,393.7z"/>
<path id="XMLID_95_" class="st0" d="M160.5,394.7C160.5,394.4,160.8,394.5,160.5,394.7L160.5,394.7z"/>
<path id="XMLID_94_" class="st0" d="M160.5,394.7C160.5,394.9,160.2,394.8,160.5,394.7L160.5,394.7z"/>
<path id="XMLID_93_" class="st0" d="M58.8,395.2C58.5,395.3,58.7,395,58.8,395.2L58.8,395.2z"/>
<path id="XMLID_92_" class="st0" d="M160.3,395.4c-0.3-0.1-0.4,0.2-0.4,0.4c-0.2,0.1-0.4,0.3-0.4,0.6c-0.2,0-0.2,0.1-0.2,0.2
	c-0.2,0-0.2,0.1-0.2,0.2c-0.1,0-0.1,0-0.2,0c0.3-0.6,0.7-1.9,1.4-1.6C160.3,395.3,160.3,395.4,160.3,395.4z"/>
<path id="XMLID_91_" class="st0" d="M288.9,398.2c-0.1,0-0.1,0-0.2,0C288.7,397.9,289,397.7,288.9,398.2z"/>
<path id="XMLID_90_" class="st0" d="M157.9,398.2c0,0.1,0,0.3,0,0.4c-0.2,0-0.2,0.2-0.4,0.2c0-0.3,0.1-0.4,0.2-0.6
	C157.8,398.2,157.9,398.2,157.9,398.2z"/>
<path id="XMLID_89_" class="st0" d="M288.8,398.2c0,0.1,0,0.1,0,0.2c-0.2,0-0.2,0.2-0.2,0.4c-0.1,0-0.1,0-0.2,0
	C288.4,398.5,288.3,398.1,288.8,398.2z"/>
<path id="XMLID_88_" class="st0" d="M157.3,399c0-0.1,0-0.2,0.2-0.2C157.5,399,157.5,399.1,157.3,399z"/>
<path id="XMLID_87_" class="st0" d="M288.2,399c0-0.1,0-0.2,0.2-0.2C288.4,399,288.3,399,288.2,399z"/>
<path id="XMLID_86_" class="st0" d="M157.3,399c0,0.5-0.3,0.6-0.4,1c-0.3,0-0.3,0.3-0.6,0.4c0-0.7,0.7-0.8,0.8-1.4
	C157.2,399,157.3,399,157.3,399z"/>
<path id="XMLID_85_" class="st0" d="M288.2,399c0,0.2,0,0.4-0.2,0.4C288,399.3,288,399,288.2,399z"/>
<path id="XMLID_84_" class="st0" d="M288,399.4c0,0.1,0,0.3,0,0.4C287.3,400,287.6,399.4,288,399.4z"/>
<path id="XMLID_83_" class="st0" d="M156.3,400.4c0.1,0.5-0.4,0.4-0.4,0.8C155.4,401,156.1,400.5,156.3,400.4z"/>
<path id="XMLID_82_" class="st0" d="M155.1,402.2c-0.1-0.5,0.4-0.4,0.4-0.8C156.1,401.6,155.4,402.2,155.1,402.2z"/>
<path id="XMLID_81_" class="st0" d="M267.2,401.8c0.3-0.1,0.4,0.2,0.4,0.4c-0.2,0-0.2,0.1-0.2,0.2
	C267.2,402.4,267.3,402.1,267.2,401.8z"/>
<path id="XMLID_80_" class="st0" d="M155.1,402.2c-0.3,0.7-0.6,1.4-1.2,1.8c0.2-0.7,0.7-1.2,1-1.8
	C155,402.2,155.1,402.2,155.1,402.2z"/>
<path id="XMLID_79_" class="st0" d="M153.9,404c0,0.2,0,0.4-0.2,0.4C153.8,404.3,153.8,404,153.9,404z"/>
<path id="XMLID_78_" class="st0" d="M153.8,404.4c0,0.4-0.2,0.4-0.2,0.8c-0.6,0-0.2,0.9-1,0.8c0.2-0.7,0.8-0.9,1-1.6
	C153.6,404.4,153.7,404.4,153.8,404.4z"/>
<path id="XMLID_77_" class="st0" d="M152.6,406.4c0-0.1,0.2-0.2,0.2,0C152.7,406.4,152.6,406.4,152.6,406.4z"/>
<path id="XMLID_76_" class="st0" d="M152.6,406.4C152.6,406.6,152.3,406.5,152.6,406.4L152.6,406.4z"/>
<path id="XMLID_75_" class="st0" d="M152,407.2C151.7,406.1,152.6,407,152,407.2L152,407.2z"/>
<path id="XMLID_74_" class="st0" d="M152,407.2c-0.3,0.5-0.5,1.1-1,1.4C151.1,408,151.3,407.4,152,407.2z"/>
<path id="XMLID_73_" class="st0" d="M150.8,408.8c0-0.1,0-0.2,0.2-0.2C151,408.7,150.9,408.8,150.8,408.8z"/>
<path id="XMLID_72_" class="st0" d="M150.8,408.8c0,0.2,0,0.4-0.2,0.4C150.6,409,150.6,408.8,150.8,408.8z"/>
<path id="XMLID_71_" class="st0" d="M150.6,409.2c0,0.5-0.3,0.6-0.4,1c-0.1,0-0.1,0-0.2,0c0-0.5,0.3-0.6,0.4-1
	C150.4,409.2,150.5,409.2,150.6,409.2z"/>
<path id="XMLID_70_" class="st0" d="M150,410.2c0,0.5-0.3,0.6-0.4,1c-0.1,0-0.1,0-0.2,0c0-0.5,0.3-0.6,0.4-1
	C149.8,410.2,149.9,410.2,150,410.2z"/>
<path id="XMLID_69_" class="st0" d="M149.4,411.2c0,0.2,0,0.4-0.2,0.4C149.2,411.4,149.2,411.2,149.4,411.2z"/>
<path id="XMLID_68_" class="st0" d="M149.2,411.6C149.2,411.8,148.9,411.7,149.2,411.6L149.2,411.6z"/>
<path id="XMLID_67_" class="st0" d="M276.4,414C276.2,413.1,277,413.9,276.4,414L276.4,414z"/>
<path id="XMLID_66_" class="st0" d="M147.4,414.6c-0.1-0.1,0.1-0.3,0.2-0.2C147.7,414.5,147.4,414.6,147.4,414.6z"/>
<path id="XMLID_65_" class="st0" d="M146.4,416.4c-0.1-0.1,0.1-0.3,0.2-0.2C146.7,416.3,146.4,416.4,146.4,416.4z"/>
<path id="XMLID_64_" class="st0" d="M146,416.8c-0.1-0.1,0.1-0.3,0.2-0.2C146.3,416.7,146,416.8,146,416.8z"/>
<path id="XMLID_63_" class="st0" d="M145.8,417.2c-0.1-0.1,0.1-0.3,0.2-0.2C146.1,417.1,145.8,417.2,145.8,417.2z"/>
<path id="XMLID_62_" class="st0" d="M644.6,417.9C644.5,417.7,644.9,417.8,644.6,417.9L644.6,417.9z"/>
<path id="XMLID_61_" class="st0" d="M144.2,419.9c-0.1-0.1,0.1-0.3,0.2-0.2C144.5,419.8,144.2,420,144.2,419.9z"/>
<path id="XMLID_60_" class="st0" d="M639.4,424.9c-0.1-0.1,0.1-0.3,0.2-0.2C639.7,424.8,639.4,425,639.4,424.9z"/>
<path id="XMLID_59_" class="st0" d="M635,431.1c0-0.3,0.4-0.2,0.4,0C635.2,431.2,635.1,431.3,635,431.1z"/>
<path id="XMLID_58_" class="st0" d="M657.5,431.3c-0.3,0.6-1.5,0.7-1.8,0.8C655.1,431.4,657.2,431,657.5,431.3z"/>
<path id="XMLID_57_" class="st0" d="M187.4,432.3c0-0.1,0.2-0.2,0.2,0C187.5,432.3,187.5,432.3,187.4,432.3z"/>
<path id="XMLID_56_" class="st0" d="M655.1,432.3c-0.1-0.1,0.1-0.3,0.2-0.2C655.4,432.2,655.2,432.3,655.1,432.3z"/>
<path id="XMLID_55_" class="st0" d="M187.4,432.3c0,0.1,0,0.1,0,0.2C187.3,432.5,187.2,432.3,187.4,432.3z"/>
<path id="XMLID_54_" class="st0" d="M654.9,432.3c-0.1,0.2-0.3,0.4-0.6,0.4C654.4,432.4,654.6,432.3,654.9,432.3z"/>
<path id="XMLID_53_" class="st0" d="M661.5,432.5c0-0.2,0.2-0.2,0.4-0.2C661.9,432.5,661.6,432.4,661.5,432.5z"/>
<path id="XMLID_52_" class="st0" d="M662.1,432.5c0-0.2,0.4-0.2,0.6-0.2c0.2,0,0.4,0,0.6,0C663.3,432.7,662.4,432.4,662.1,432.5z"/>
<path id="XMLID_51_" class="st0" d="M652.3,433.5c0.1-0.4,0.9,0,0.8-0.6C653.7,433.2,652.9,433.7,652.3,433.5z"/>
<path id="XMLID_50_" class="st0" d="M651.9,433.7c0-0.2,0.2-0.2,0.4-0.2C652.3,433.6,652.2,433.7,651.9,433.7z"/>
<path id="XMLID_49_" class="st0" d="M651.9,433.7c-0.1,0.3-0.3,0.4-0.6,0.4C651.4,433.8,651.6,433.7,651.9,433.7z"/>
<path id="XMLID_48_" class="st0" d="M632.6,434.9c0-0.1,0-0.2,0.2-0.2C632.8,434.8,632.8,434.9,632.6,434.9z"/>
<path id="XMLID_47_" class="st0" d="M632.4,435.1c0-0.1,0-0.2,0.2-0.2C632.6,435,632.6,435.1,632.4,435.1z"/>
<path id="XMLID_46_" class="st0" d="M632.4,435.1c0,0.3-0.1,0.4-0.2,0.6c-0.3-0.1-0.1-0.4,0-0.6
	C632.3,435.1,632.4,435.1,632.4,435.1z"/>
<path id="XMLID_45_" class="st0" d="M184.4,435.3c0,0.1,0,0.3,0,0.4c-0.5,0.4-0.5-0.1-0.2-0.4C184.3,435.3,184.3,435.3,184.4,435.3z
	"/>
<path id="XMLID_44_" class="st0" d="M277.6,436.5c0-0.1,0-0.2,0.2-0.2c0,0.1,0,0.1,0,0.2C277.7,436.5,277.7,436.5,277.6,436.5z"/>
<path id="XMLID_43_" class="st0" d="M182.4,437.9C182.2,437.9,182.3,437.6,182.4,437.9L182.4,437.9z"/>
<path id="XMLID_42_" class="st0" d="M181.6,438.5c0-0.1,0.2-0.2,0.2,0C181.8,438.5,181.7,438.5,181.6,438.5z"/>
<path id="XMLID_41_" class="st0" d="M181.6,438.5c0,0.1,0,0.1,0,0.2C181.5,438.7,181.4,438.5,181.6,438.5z"/>
<path id="XMLID_39_" class="st0" d="M181.4,445.4c0,0.7-0.3,1.2-0.4,1.8c-0.5-0.4,0.1-1.4,0.2-1.8
	C181.3,445.4,181.3,445.4,181.4,445.4z"/>
<path id="XMLID_38_" class="st0" d="M619.8,445.6c0-0.2,0.2-0.2,0.4-0.2C620.2,445.6,620,445.6,619.8,445.6z"/>
<path id="XMLID_37_" class="st0" d="M618.2,448c0-0.2,0.2-0.2,0.4-0.2C618.6,448,618.4,448,618.2,448z"/>
<path id="XMLID_36_" class="st0" d="M180.2,448.4c0.2-0.4,0.2,0.1,0.2,0.4C180.2,449.2,180.2,448.7,180.2,448.4z"/>
<g id="XMLID_173_">
	<path id="XMLID_293_" class="st0" d="M806.6,442.7c0,0.1,0,0.1,0,0.2c-0.5,1.2-1.3,2-1.6,3.4c-0.8,0.3-1,1.4-1.6,2
		c-0.5,0.7-1.1,1.3-1.4,2.2c-0.4,0.2-0.7,0.5-0.6,1.2c-0.5,0.1-0.6,0.6-0.8,1c-0.6,0.6-0.8,1.6-1.6,2c-0.9,1.5-2.1,2.7-3,4.2
		c-1.1,1.4-2.1,2.8-3.4,4c-0.9,1.5-2.2,2.6-3.4,3.8c-1.2,1.2-2.3,2.6-3.8,3.6c-1.2,1.2-2.4,2.4-4,3.2c-1.2,1.2-3.1,1.8-4.4,3
		c-2.3,0.9-4.4,2.1-6.8,3c-2.5,0.8-4.7,1.8-7.6,2.2c-5,1.5-11.2,2.4-16.9,2c-12.7-1.1-21.2-6.6-29.7-11.9c-2-1.4-4.2-2.7-6-4.4
		c-2.1-1.4-3.7-3.2-5.8-4.6c-1.7-1.8-3.8-3.1-5.6-4.8c-1.1-0.7-1.8-1.6-3-2.2c-0.8-1-2-1.6-3.2-2.2c-1.7,1-3.1,2.4-4.8,3.4
		c-0.8,0.5-1.7,1-2.4,1.6c-0.7,0.7-2,0.7-2.6,1.6c-1,0.3-2.1,0.6-2.6,1.4c-1.2,0.2-2.1,0.7-3,1.2c-1.9,0.8-3.8,1.7-6,2.4
		c-4.1,1.4-8,3.1-12.5,4c-4.1,1.2-9.5,2-13.9,2.2c-2.7-0.2-5.1-0.6-7.8-0.8c-0.5-0.5-1.6-0.4-2-1c-0.7,0.5-1.2-0.7-2.2-0.6
		c-0.8-0.7-1.6-1.4-2.4-2c-0.9-1.3-1.7-2.7-2.6-4c0.1-1.5-0.4-2.5-0.8-3.6c-0.3-2.4-0.2-4.8,0-7.2c0.7-1.3,1.3-2.5,1.8-4
		c0.5,0.1,0.2-0.8,0.8-0.6c-0.9,2-1.6,5.1-1.4,7.6c0.4,0,0.1-0.7,0.2-1c0.5,0.3,0.1,1.4,0.2,2c0.1,0.9,0.8,1,1,1.8
		c0.3,0.6,0.5,1.2,1.2,1.4c-0.2,0.7,0.3,0.8,0.2,1.4c-0.3,0.1,0,0.2,0,0c1.2,1.8,2.3,3.7,3.8,5.2c1.4,0.6,2.7,1.2,4,2
		c1.1,0,2.3,0,3.4,0c1.4-0.5,3.4-0.5,4.8-1c0.6,0.4,1.5-0.3,2.4-0.2c0.3-0.6,1.7-0.1,2-0.8c1.6-0.1,3.1-0.3,4.4-0.8
		c1.3-0.4,2.7-0.6,3.8-1.2c1.5-0.2,2.7-0.8,4-1.2c1.3-0.4,2.7-0.6,3.6-1.4c2.6-0.8,4.9-1.9,7.2-3c1.3-0.4,2.2-1.3,3.4-1.8
		c0.3-0.6,1.2-0.5,1.6-1c0.4-0.4,1.1-0.5,1.4-1c0.2-0.2,0.5-0.1,0.6-0.4c0.2,0,0.2-0.1,0.2-0.2c0.2,0,0.4,0,0.4-0.2
		c0.3,0,0.3-1.2,0.6-0.4c-0.3,0.1,0,0.2,0,0c0.3-0.2,0.7-0.2,0.8-0.6c0.5,0,1-0.5,0.6-0.8c0.5,0.1,0.7,0.3,1-0.2
		c1.1-0.7,1.9-1.6,3-2.2c-0.4-0.6-1-1.1-1.8-1.4c-0.3-0.8-1.4-0.7-1.6-1.6c-1.3-0.3-2.4-1-3.2-1.8c-1.3-0.3-2.1-1.1-3.2-1.6
		c-2-1.2-4.4-1.9-6.6-3c-4.9-1.5-9.9-2.9-15.9-3.4c-1.3,0-2.5,0-3.8,0c-0.9,0.1,0.2-0.4-0.4-0.4c-0.5,0-1,0-1.2-0.2
		c-1.9-0.1-3.4,0.2-5,0.4c0.4-0.8,1.7-0.6,2.2-1.4c-1.1-0.1-1.7,0.4-2.8,0.4c0.1-0.8,1.1-0.8,1.6-1.2c-0.6-0.1-0.9,0.1-1.4,0.2
		c0.2-0.6,1.2-0.4,1.8-0.6c0.7-0.1,1.1-0.3,2-0.2c1,0.1,0-0.7,0.8-0.6c1.9-0.5,4.6-0.4,6.2-0.6c1.9,0.1,3,0.3,5.4,0.2
		c3.1,0.2,5.7,0.9,8.8,1.2c1.9,0.9,4.5,1.2,6.4,2.2c2.2,0.7,4.2,1.5,6.2,2.4c2,0.8,4,1.7,6,2.6c1.1,0.4,2.2,0.7,3,1.4
		c1,0.4,2,0.7,2.8,1.4c1.3-0.7,2.4-1.8,3.4-2.8c1-1,2-2,2.8-3.2c1.9-2.1,3.5-4.5,5.2-6.8c1.6-2.4,3-5,4.4-7.6
		c0.5-1.5,1.1-2.9,1.6-4.4c0.4-1.7,0.5-3.3,1-4.6c0.2-3.3,0.1-4.3-0.2-8c-0.3-0.5-0.3-1.1-0.6-1.6c-0.1-0.6-0.8-0.6-0.8-1.2
		c-0.3-0.3-0.2-1-0.6-1.2c-1.2-1.8-2.9-3.1-4.4-4.6c-1.1-0.4-2.2-0.8-3-1.6c-2-0.4-3.8-1-5.8-1.4c-1.4,0.1-2.3-0.2-3.6-0.2
		c-1.2,0-2.2,0.3-3.6,0.2c-4.3,0.6-8.1,1.7-11.5,3.2c-3.5,1.4-6.4,3.4-9.6,5.2c-6.3,3.5-12.4,7.3-17.7,11.7
		c-3.6,5.5-7.4,11-11.2,16.3c-1.7,2.8-3.8,5.3-5.6,8.2c-0.9,1.4-1.9,2.7-2.8,4.2c-0.9,1.4-2.1,2.4-2.6,4.2c-1.5,1.5-2.4,3.6-3.8,5.2
		c-0.6,0.9-1.2,1.7-1.8,2.6c-0.7,0.8-1.1,2-2,2.6c-1,2-2.6,3.3-3.6,5.4c-1.5,1.5-2.5,3.6-4,5.2c-2.5,3.4-4.8,7.1-7.2,10.8
		c-0.7,0.8-1.1,1.8-1.8,2.6c-0.6,0.9-0.9,2.1-1.8,2.8c-0.5,1-1.1,2-1.8,2.8c-0.1,0.7-0.6,0.9-0.8,1.4c-0.2,0.6-0.5,1.1-1.2,1.2
		c-0.3,0.5,0.6,0.8,0,1c-0.2-0.6-0.5,0.2-0.8,0.2c0,1-0.8,1.2-1,2c-0.5,0.5-0.9,1.1-1.2,1.8c-1,1.1-1.4,2.7-2.4,3.8
		c0,0.2-0.1,0.5-0.4,0.4c-0.1-0.4-0.2,0.1-0.4,0.2c-1.2,2.1-2.6,4.1-3.4,6.6c0.1,0.6-0.5,0.6-0.8,0.8c0.1,0.7-0.2,1.1-0.4,1.6
		c-0.6,0.3,0,0.7-0.4,1.4c-0.5,0.5-0.3-0.5-0.8,0c0,0.3,0,0.5,0,0.8c-0.1,0-0.1,0-0.2,0c-0.3,0.7-0.6,1.4-0.8,2.2
		c-0.4,0.8-0.1,1.3-0.8,2c-0.4,1.7-0.7,3.6-1,5.4c0,0.6,0,1.2,0,1.8c-0.4,0.4-0.1-1.5-0.2-2c-0.7,0.5-0.4,2.6-0.2,3.4
		c-0.1,1.6,0.3,2.2,0.4,3.2c-0.7-0.3-0.4-1.6-1-2c-0.1-2.2-0.3-3.9-0.4-5.2c-0.8,0.9-0.2,3.1-0.6,4c-0.7-0.2-0.2-1.6-0.6-2
		c-0.2-5.5,0.8-9.7,2-13.7c-0.8-0.1-0.4,1-0.8,1.4c0,0.7-0.2,1.3-0.4,1.8c-0.3-0.5,0.3-1.9,0.4-2.8c0.2-1,0.6-1.8,0.8-2.8
		c0.7-1.7,1.1-3.7,1.8-5.4c1.2-3.6,2.5-7.1,3.8-10.6c1.5-3.2,2.9-6.7,4.8-9.6c1.6-3.2,3.5-6,5.2-9.2c-0.2-0.5-0.7,0.5-0.8,0.8
		c-0.5,0.3-0.5,1-1,1.2c-0.3,1-1,1.8-1.4,2.8c-1.3,1.6-1.9,3.8-3.2,5.4c-0.6,2.2-2,3.6-2.6,5.8c-0.6,0.8-1,1.8-1.4,2.8
		c-0.1,0.6-0.4,1-0.6,1.6c-0.5,0.2-0.2,1.3-0.8,1.4c-0.1,0.7-0.3,1.3-0.4,2c-0.4,0.4-0.2,1.4-1,1.4c0.2-0.9,0.7-1.8,0.4-2.6
		c0.9,0-0.2-0.8,0.6-1c0.4-0.3-0.3-0.9,0.6-1c-0.1-0.7-0.5-0.3-0.2-1c0.3,0,0.2-0.3,0.4-0.4c-0.2,0.8,0.6,0,0,0c0-0.2,0-0.4,0-0.6
		c0.4-0.3,0.5-0.8,1-1c-0.5-0.5,0.1-0.9,0.4-1.2c-0.7-0.4,0.8-0.4,0.4-1.2c0.2-0.6,0.9-0.6,0.4-1.4c0.6,0,0.5-0.8,1-1
		c0-0.4,0.2-0.4,0.2-0.8c0.8-0.1-0.8-0.3,0-0.4c0-1,1.4-1.1,1.2-2c0.3-0.1,0.4-0.4,0.4-0.8c0.5-0.4-0.3-1,0.6-1.2
		c0-0.8,0.6-1,0.6-1.8c0.5,0.1,0.2-0.6,0.6-0.6c0,0.2,0.2,0.1,0.2,0c0.2,0,0.1-0.2,0-0.2c0-0.2,0-0.4,0.2-0.4c0,0.2,0.2,0.1,0.2,0
		c0.3,0,0.2-0.4,0-0.4c1.3-1.5,2.2-3.4,3.2-5.2c0.3-0.1,0-0.2,0,0c-0.2,0-0.2-0.2-0.2-0.4c1,0.1,0.2-0.5,0.6-1
		c1-0.5,0.8-2.1,2.2-2.2c0-0.4,0-0.8,0-1.2c0.8,0.1,0.8-0.2,0.6-0.8c0.2-0.1,0.5-0.2,0.6-0.4c0.5-0.1,0.5-0.7,1-0.8
		c-0.1-0.9,0.6-1.1,0.8-1.8c0.3-0.1,0.5-0.3,0.6-0.6c0-0.3,0.8-0.6,0-0.6c0.2-0.3,0.8-0.3,1-0.6c0.5-1.5,2-2.6,2-4
		c0.4-0.2,0.6-0.6,1-0.8c0.5-0.1,0.5-0.7,1-0.8c0.2-0.5,0.4-0.9,0.6-1.2c0.5-0.5,0.6-0.8,0.6-1.4c1.3-0.9,1.8-2.7,3.2-3.6
		c0.3-1.3,1.2-1.9,1.8-3c0-0.1,0-0.1,0-0.2c0.3-0.1,0-0.2,0,0c-1,0,0.3-0.6,0.4-0.8c-0.1-0.6,0.5-0.6,0.4-1.2
		c0.5-0.1,0.6-0.6,1.2-0.6c0-0.2-0.1-0.5-0.4-0.4c0.2-0.7,0.4,0,0.8-0.4c0.2-0.4,0.4-0.6,0.8-0.8c-0.2-0.9,1.1-1.2,0.6-1.8
		c0-0.4,0.2-0.4,0.2-0.8c0.6-0.3,0.8-1,1.2-1.6c0.5,0,0.3-0.9,0.8-0.4c0.2-0.4,0.4-0.6,0.8-0.8c0.5-1.1,1.4-1.9,2-3
		c0.4-0.4,0.5-1.1,1-1.4c0.3-0.5,0.5-1.2,1.2-1.4c0.3-1-0.4-0.8,0.2-1.6c0.3-0.2,0.4-0.5,0.6-0.8c0.4,0.5,0.3,0.3,0.8,0
		c0.5-0.7,0.8-1.5,1-2.4c0.7-0.6,1-1.7,1.8-2.2c0.1,0.3,0.2,0,0,0c0-0.2,0-0.4,0.2-0.4c0,0.2,0.2,0.2,0.4,0.2c0.5-0.7,0.1-1,0.6-1.8
		c0.4-0.3,0.7-0.7,0.8-1.2c0.3-0.1,0.5-0.3,0.6-0.6c0.1-0.3,1,0,0.8-0.6c0.2,0,0.2-0.1,0.2-0.2c0.1,0,0.1,0,0.2,0
		c0-0.2-0.2-0.1-0.2,0c-0.2,0-0.2,0.1-0.2,0.2c-0.2,0-0.2-0.2-0.2-0.4c1.9-2.1,3.1-4.9,5.2-6.8c1.3-2.8,3.4-4.7,4.8-7.4
		c-0.2-0.4-0.8,0.5-1.2,0.6c-0.4,0.3-0.8,0.6-1.4,0.8c-0.6,0.9-1.9,1.2-2.6,2c-1.9,1.1-3.6,2.3-5.6,3.4c-1,0.5-1.9,1-2.8,1.6
		c-1.1,0.4-2.3,0.7-3.2,1.4c-2.4,0.6-4.6,1.5-7.4,1.8c-0.3,1.9-0.9,3.5-1.2,5.4c-0.7,1.5-0.9,3.4-1.8,4.8c-0.3,1.9-1.1,3.3-1.6,5
		c-0.8,1.5-1.1,3.4-2,4.8c-1.2,3.2-2.7,6.2-4.4,9c-0.9,1.3-1.6,2.8-2.6,4c-0.5,0.7-0.8,1.4-1.4,2c-0.3,0.8-1.2,1.1-1.4,2
		c-2.1,2.3-4.1,4.6-6.2,7c-1,0.1-1,1.2-1.8,1.4c-0.3,0.8-1.2,1-1.8,1.6c-0.5,0.7-1.5,0.8-2,1.4c-0.7,0.4-1.1,1.2-2,1.4
		c-1.3,0.8-2.5,1.9-4.2,2.4c-1.4,0.9-2.9,1.6-4.6,2.2c-3.5,1.1-6.8,1.9-11.1,1.8c-4.4-0.5-8-1.9-11.4-3.6c-1.2-1.1-2.5-2.2-3.8-3.2
		c-0.6-0.7-1-1.6-1.8-2.2c-5.4,3.2-10.3,6.8-18.3,7.4c-1.7-0.1-3.2-0.3-4.8-0.6c-2.2-1.1-4.3-2.2-6-3.8c-1.5-1.7-3.1-3.4-4.2-5.6
		c-2.6-3.9-4-9-4.8-14.7c0-4.2-0.5-6.8-0.4-10.8c-0.2-0.5-0.3-1-0.4-1.6c-0.7-1.3-2.1-1.7-4-1.8c-4.4,0.4-7.7,1.9-10.8,3.6
		c-1.5,0.9-3.2,1.6-4.4,2.8c-0.6,0.6-1.5,0.9-2.2,1.4c-0.8,0.5-1.2,1.3-2.4,1.4c-0.2,0.7-1.7,1.5-2.6,2.2c-0.4,0.5-1,0.8-1.4,1.2
		c-0.7,0.2-0.6,1.1-1.6,1c-0.3,1.2-1.5,1.5-2,2.4c-0.8,0.8-1.5,1.6-2.4,2.2c-0.1,0.7-0.9,0.6-1,1.2c-0.5,0.2-0.7,0.8-1.2,1
		c-0.6,1-1.8,1.3-2.4,2.2c-1,0.5-1.6,1.3-2.4,2c-1,0.5-1.6,1.5-2.6,2c-0.1,0.6-0.9,0.6-1.2,1c-0.3,0.4-0.6,0.8-1.2,1
		c-0.9,0.7-1.5,1.5-2.6,2c-0.4,0.8-1.1,1.5-1.8,2c-0.1,0.7-0.2,1.6-0.6,2c-1,0.1-1.3-0.5-1.8-1c-0.8-0.1-0.9-0.9-1.6-1.2
		c-0.3-0.7,0-0.8,0-1.6c0.1-0.6-0.7,0.5-0.8-0.2c-0.4-0.1-0.2-0.7-0.6-0.8c0.3-4.4,2.3-7.1,3.8-10.4c0.8-0.3,0.7-1.6,1.4-2
		c0.3-0.9,1-1.4,1.2-2.4c1.1-1.3,1.8-3,2.6-4.6c1.6-3.1,3.3-6.1,4.8-9.4c0.9-1.5,1.6-3.2,2.6-4.6c0.6-1.7,1.9-2.9,2.6-4.6
		c1.2-1.1,1.7-3,2.8-4.2c0.8-1.6,1.8-3,2.8-4.4c1.6-3.1,3.7-5.7,5.4-8.8c1.1-1.2,1.7-3,2.8-4.2c0.9-1.5,1.7-3.1,2.8-4.4
		c0.7-1.7,1.7-3.1,2.6-4.6c0.8-1.5,1.6-3.2,2.6-4.6c1.4-3.3,3.5-5.9,5-9.2c1-1.3,1.7-3,2.6-4.4c1-1.4,1.7-3.1,2.8-4.4
		c1.5-3.3,3.5-5.9,5.2-9c0.9-1.5,1.8-3,2.8-4.4c0.9-1.5,1.7-3.1,2.8-4.4c3.3-6.2,7.5-11.5,11.7-16.7c2.4-2.4,4.2-5.2,7-7.2
		c2.4-2.4,5.5-4.1,8.8-5.6c1.9-0.4,4.1,0.1,5.8,1c0.1,0.6,0.5,1,0.8,1.4c0.2,3-1.5,4.1-2.6,5.8c-1.5,0.5-2.1,1.8-3.6,2.4
		c-0.8,1.1-2.2,1.8-3,3c-1.2,0.7-1.9,2.1-3,3c-0.8,1.3-2.1,2-2.8,3.4c-0.6,0.4-1.1,0.9-1.4,1.6c-0.5,0.5-1.3,0.7-1.4,1.6
		c-0.5,0.5-1.2,0.8-1.4,1.6c-0.5,0.5-1.2,0.8-1.4,1.6c-1,1-1.6,2.3-2.6,3.4c-0.7,1.4-1.7,2.4-2.4,3.8c-2.9,5.2-6.2,9.8-9.4,14.7
		c-0.7,1.3-1.6,2.4-2.2,3.8c-1,1-1.4,2.7-2.4,3.8c-0.4,1.6-1.3,2.7-1.8,4.2c-0.7,1.3-1.4,2.7-2.2,4c-1.2,2.7-2.9,5.1-4.4,7.6
		c-0.5,1.5-1.6,2.4-2.2,3.8c-0.8,1.3-1.5,2.7-2.4,3.8c-0.8,1.2-1.4,2.6-2.4,3.6c-0.2,0.8-0.8,1.2-1.2,1.8c-0.3,0.7-0.6,1.4-1.2,1.8
		c-0.5,1.5-1.6,2.3-2.2,3.8c-0.9,1.1-1.7,2.5-2.6,3.6c-0.8,1.2-1.5,2.4-2.4,3.6c-0.4,0.6-0.7,1.2-1.2,1.8c-0.2,0.8-0.9,1.1-1.2,1.8
		c-0.9,1.1-1.5,2.5-2.4,3.6c-0.7,1.4-1.6,2.5-2.4,3.8c-3,5.1-6.2,10-9,15.3c0.9-0.4,1.4-1.3,2.2-1.8c0.5-0.8,1.6-1.1,2-2
		c1.6-1.2,2.8-2.6,4.4-3.8c1.5-1.1,2.8-2.5,4.6-3.4c1.2-1.5,3.3-2.2,4.6-3.6c6.4-4.3,13.7-7.8,22.9-9.4c0.9,0,1.9,0,2.8,0
		c1.8,0.3,3.1,1,4.8,1.4c1.7,1.4,3.1,3,4.6,4.6c0.8,2.7,2.6,5.5,2.4,8.6c0.5,0.9,0.8,2,0.8,3.4c0.7,0.6,0,2.1,0.6,3.2
		c-0.3,2.3,0.6,4.9,0,7.4c0.5,0.6,0.3,1,0.4,2.2c1,3.5,2,7,4.4,9.2c0.6-0.1,0.8,0.2,1,0.6c1.8,0.5,3.7,1,6,1
		c1.2-0.2,2.4-0.4,3.6-0.6c1-0.4,2-0.9,3-1.4c1.1-0.4,1.7-1.2,2.8-1.6c-1.6-3-2.5-6.8-2.2-11.7c0.8-5.6,2.4-10.5,4.6-14.7
		c2-4.5,4.4-8.6,7.2-12.3c2.5-3.9,5.9-7,8.8-10.6c0.5-0.3,0.9-0.7,1.2-1.2c0.4-0.4,1-0.6,1.2-1.2c0.5-0.3,0.9-0.7,1.4-1
		c0.5-0.4,0.7-1,1.4-1.2c0.7-0.9,1.6-1.6,2.6-2.2c0.7-1,2.1-1.3,2.6-2.4c1.5-0.2,2.1-1.3,3.6-1.6c1-0.7,2.5-1,3.6-1.6
		c2.6-0.8,5.3-1.6,8.6-1.8c1.1,0.1,2.6,0.6,4.2,0.8c1.5-2.2,3-4.5,5-6.2c0.6-0.2,1.3-0.3,1.8-0.6c0.7,0,1.5,0,2.2,0
		c3.3,0.7,5.9,2.1,7.8,4.2c1.9,2.2,2.5,5.4,3.2,8.4c0,1.1,0,2.1,0.2,3c-0.1,1.5,0,2.1,0,3.8c3.8-0.2,6.2-1.8,9.2-2.8
		c2.4-1.6,5.4-2.6,7.8-4.2c1.4-0.6,2.2-1.8,3.6-2.4c1.1-0.9,2.2-1.8,3.4-2.6c2.4-1.7,4.7-3.4,7.4-4.8c3.1-3.2,5.6-7,8.6-10.4
		c1.5-1.7,2.8-3.5,4.6-4.8c1.5-1.7,3.7-2.7,5.6-4c0.4-0.1,1.3,0.2,1.4-0.2c0.9,0.6,2.2,0.5,3.2,1c0.9,0.4,1.5,1.2,2.2,1.8
		c-0.4,1.8-2,2.4-3,3.6c-1,1.2-2.1,2.3-3.2,3.4c-0.7,1.5-2,2.4-2.6,4c-1.1,1.2-1.7,2.8-2.6,4.2c-0.9,1.3-1.6,2.7-2.4,4.2
		c-0.9,1.3-1.8,2.7-2.6,4.2c-1.8,2.6-3.7,5.2-5.4,8c2.9-1.4,5.2-3.4,8.2-4.8c0.5-0.6,1.3-0.8,2-1.2c0.6-0.4,1.1-1,2-1.2
		c1.3-0.9,2.8-1.6,4.2-2.4c5.7-3,12.1-5.3,20.1-6c2.5,0,5,0,7.6,0c7.1,0.5,11.7,3.5,15.3,7.4c0.3,1.1,1.3,1.5,1.4,2.8
		c0.7,0.8,0.8,2.1,1.4,3c-0.1,1.1,0.2,1.7,0.4,2.6c-0.1,2.7,0.2,4.5-0.2,6.8c0.1,1.3-0.5,1.9-0.4,3.2c-0.7,0.1,0.1,0.6-0.4,1
		c-0.1,0.6-0.3,1-0.4,1.6c-0.6,1.9-1.3,3.6-2,5.4c-0.7,1.7-1.8,3.2-2.4,5c-0.4,0.2-0.4,0.8-0.8,1c-0.5,0.1-0.3,0.9-0.8,1
		c0.2,0.8-0.5,0.7-0.6,1.2c0.5,0.3-0.7,0.5-0.6,1c-1.2,1.3-1.9,3-3.2,4.2c-0.7,1.8-2.2,2.7-3.2,4.2c-1.3,1.2-2.2,2.7-3.6,3.8
		c0.8,0.8,1.7,1.7,2.6,2.4c0.4,0.3,0.9,0.4,1.2,0.6c0.1,0.1,0.1,0.5,0.2,0.6c0.5,0.4,1.1,0.6,1.6,1c1.9,1.4,3.8,3,5.8,4.4
		c3.7,3.1,7.7,5.8,11.7,8.6c4.1,2.7,8.3,5.2,13.1,7.2c0.8,0.8,2.4,0.9,3.4,1.6c1.2,0.5,2.6,0.8,3.8,1.4c2.8,0.6,5.4,1.4,8.4,1.8
		c2.3,0,4.6,0,7,0c6.6-0.6,12.3-2.2,17.3-4.4c5.1-2.2,8.8-5.8,12.7-9.2c3.5-3.8,7.1-7.4,10.2-11.5c3.1-4.2,6.3-8.3,9.2-12.7
		c0.4,0.5-0.5,1.4-0.8,1.8c-0.3,0.8-0.6,1.6-1.2,2c0,0.2,0.1,0.5,0.2,0.2C806.5,442.7,806.5,442.7,806.6,442.7z M613,397.3
		c-0.8-0.2-1.4-0.6-2-1c-1.4-0.2-2.2-0.2-3.2,0c-1,0.9-2,1.9-2.2,3.6c0.1,2.7,1.9,3.7,2.8,5.6c1.2,0.9,2.3,1.8,3.4,2.8
		c1.7,0.6,3.6,1.1,5.8,1.2C618,404.9,616,399.7,613,397.3z M612.9,414.4c-0.9-0.6-2.1-1-3.2-1.4c-1-0.5-1.9-1.2-3-1.6
		c-2.4-2.4-4.7-5-6.2-8.4c0.2-1-0.6-1-0.4-2c0-0.1,0-0.2-0.2-0.2c-0.3,0-0.3,0.3-0.6,0.4c-1,0.4-2,0.6-3.2,0.8
		c-0.9,0.5-1.7,1.1-3,1.2c-0.7,1-2.2,1.2-2.8,2.4c-1.1,0.6-1.9,1.6-2.8,2.4c-0.8,0.9-1.6,1.8-2.6,2.6c-0.6,1.2-2.1,1.5-2.6,2.8
		c-0.5,0.4-1.1,0.6-1.4,1.2c-0.3,0.6-1,0.7-1.2,1.4c-0.7,1-1.7,1.8-2.4,2.8c-0.4,0.5-1,0.7-1.2,1.4c-0.5,0.3-0.6,1.1-1.2,1.4
		c-0.7,1.1-1.6,2-2.4,3c-1.7,1.8-2.7,4.2-4.2,6.2c-1.2,2.4-2.6,4.4-3.8,6.8c-2.5,4.5-4.2,9.7-5,15.9c0.7,0.5,1.1-0.6,1.8-0.8
		c0.4-0.6,1.1-0.9,1.6-1.4c0.6-0.4,0.9-1,1.8-1.2c0.4-0.4,1.3-1.3,1.8-1c-0.6,0.5-1.2,0.9-1.8,1.4c-0.2,1.3-1.3,1.7-1.8,2.8
		c-0.7,0.3-0.8,1.1-1.6,1.2c-0.2,0.8-1.3,0.7-1.4,1.6c0.5,2.9,1.8,5,3.4,6.8c2.1,1.6,4.9,2.6,8.2,3c5.7,0.2,9.2-1.7,13.3-3
		c1.8-1.4,4.2-2.3,5.8-4c0.9-0.7,1.9-1.4,2.6-2.4c1-0.7,1.6-1.7,2.6-2.4c0.5-1.1,1.6-1.7,2.2-2.8c0.9-0.8,1.6-1.7,2.2-2.8
		c1.7-1.6,2.7-3.9,4.4-5.6c1.1-2.2,2.5-4.2,3.6-6.4c1.2-2.1,2.2-4.4,3.4-6.6c0.8-2.5,2-4.7,2.8-7.2c0.8-2.5,1.8-4.9,2.2-7.8
		C615.2,414.9,614.3,414.4,612.9,414.4z M635.7,416.8c-0.2,0-0.2,0.1-0.2,0.2c-0.3,0.1,0,0.2,0,0C635.7,417,635.7,416.9,635.7,416.8
		C636,416.6,635.7,416.5,635.7,416.8z M626.2,431.7c0-0.2,0.4-0.5,0-0.6C626.2,431.3,625.8,431.6,626.2,431.7z M664.8,433.5
		c-0.1-0.1-0.3,0.1-0.2,0.2C664.7,433.8,664.9,433.6,664.8,433.5z M648.7,433.9c-0.2,0-0.4,0-0.4,0.2
		C648.4,434,648.7,434.1,648.7,433.9z M647.1,434.1c-0.2,0-0.6,0-0.6,0.2C646.7,434.3,647.1,434.3,647.1,434.1z M624,435.1
		c0-0.4,0.5-0.3,0.4-0.8C623.9,434.1,623.5,435,624,435.1z M648.7,434.9c-0.2,0-0.4,0-0.4,0.2C648.4,435,648.7,435.1,648.7,434.9z
		 M653.1,436.3c-0.2,0-0.4,0-0.6,0c-0.2,0-0.4,0-0.4,0.2C652.4,436.4,653.1,436.7,653.1,436.3z M620.4,439.9c-0.4,0.2-1,0.2-0.8,1
		c0.7-0.2,0.7-1,1.4-1.2c-0.2-0.8,1.3-1.1,0.6-1.8C621.2,438.5,620.6,439,620.4,439.9z M619.6,441.7c0-0.2-0.3-0.3-0.4,0
		C619.3,441.9,619.4,441.8,619.6,441.7z M805.8,443.7c-0.1-0.1-0.3,0.1-0.2,0.2C805.6,443.9,805.9,443.8,805.8,443.7z M616.8,445.2
		c-0.1,0-0.1,0-0.2,0c-0.1,0.3-0.6,0.2-0.4,0.8c-0.6,0,0.2,0.8,0,0C616.8,446.1,616.7,445.6,616.8,445.2
		C617.4,445.2,616.6,444.4,616.8,445.2z M613.8,449.4c0.3,0,0.5-0.2,0.6-0.4C614.1,449,613.9,449.2,613.8,449.4z M612.9,450.4
		c0,0.1,0,0.3,0,0.4c0.1,0,0.3,0,0.4,0c0-0.1,0-0.2,0.2-0.2c0-0.1,0-0.3,0-0.4c-0.1,0-0.3,0-0.4,0C613,450.3,613,450.5,612.9,450.4z
		 M612.1,452.2c-0.1,0-0.1,0-0.2,0c-0.9,1.6-2.4,2.7-3,4.6c-0.2,0-0.2,0.1-0.2,0.2c-0.1,0-0.1,0-0.2,0c-0.2,0.6-0.9,0.5-0.8,1.4
		c-0.1,0-0.1,0-0.2,0c0,0.2-0.1,0.2-0.2,0.2c0,0.1,0,0.3,0,0.4c-0.3,0.1,0,0.2,0,0c0.4,0.1,0.4-0.3,0.4-0.6c0.6-0.2,0.9-0.7,1-1.4
		c0.2,0,0.2-0.1,0.2-0.2C610.1,455.4,611.2,453.9,612.1,452.2C612.3,452.1,612,452,612.1,452.2z M531.4,458.2c0-0.2-0.3-0.3-0.4,0
		C531.2,458.2,531.3,458.5,531.4,458.2z M606.3,460.6c0.3-0.4,0.8-0.6,0.8-1.2C606.5,459.4,605.9,460.3,606.3,460.6z M630.8,459.4
		c-0.1-0.1-0.3,0.1-0.2,0.2C630.6,459.6,630.9,459.5,630.8,459.4z M604.5,463.2c0.6,0,0.6-0.5,0.6-1c0.2-0.1,0.9-0.6,0.4-0.8
		C605,461.8,604.7,462.4,604.5,463.2z M601.7,467.5c0.2-0.6,0.9-0.9,1-1.6c0.2-0.3,1.3-1.3,0.4-1.4
		C602.8,465.6,601.4,466.6,601.7,467.5z M600.3,469.3c-0.1,0-0.1,0-0.2,0c-0.1,0.4-0.4,0.5-0.4,1
		C600.3,470.4,600.3,469.8,600.3,469.3c0.4-0.4,1-0.5,1-1.4C600.7,468.1,600.6,468.8,600.3,469.3z M588.2,490.6
		c-0.1-0.1-0.3,0.1-0.2,0.2C588,490.9,588.3,490.7,588.2,490.6z M586.6,500c0-0.2,0.4-0.5,0-0.6C586.5,499.6,586.2,499.9,586.6,500z
		 M584.6,505.2c-0.1-0.1-0.3,0.1-0.2,0.2C584.4,505.4,584.7,505.3,584.6,505.2z M584.4,505.8c-0.1-0.1-0.3,0.1-0.2,0.2
		C584.2,506,584.5,505.9,584.4,505.8z M584.2,506.4c-0.1-0.1-0.3,0.1-0.2,0.2C584,506.6,584.3,506.5,584.2,506.4z M588.8,507.4
		c-0.1-0.1-0.3,0.1-0.2,0.2C588.6,507.6,588.9,507.5,588.8,507.4z M588.6,508c0-0.1-0.2-0.2-0.2,0
		C588.4,508.1,588.5,508.2,588.6,508z"/>
	<path id="XMLID_284_" class="st0" d="M440.4,491.6c-0.2,0-0.2,0.1-0.2,0.2c-0.3,0.1,0,0.2,0,0C440.4,491.9,440.4,491.8,440.4,491.6
		c1.3-0.3,2-1.1,3-1.6c1-0.6,2.1-1.1,2.8-2c2.1-1,3.8-2.5,5.6-3.8c0.5,0.4-0.5,1-1,1c-0.1,0.7-0.8,0.7-1.2,1.2c-1,0.6-1.8,1.4-2.8,2
		c-0.8,0.7-1.8,1.4-2.8,2c-0.9,0.8-2.3,1.1-3,2c-4.2,2.3-8.3,4.7-12.9,6.6c-2.2,1.1-4.3,2.2-6.8,3c-2.6,0.6-5.1,1.4-8,1.8
		c-2.5,0.5-5.7,0.5-8.8,0.2c-0.9,0.2-1.5-0.4-2,0c0.1-0.7-0.7,0.2-1-0.6c-1.4,0.2-2.1-0.6-3.8-0.4c-2-0.9-4-1.8-6.4-2.4
		c-0.8-0.8-1.9-1.4-3-2c-0.9-0.9-1.7-1.7-2.8-2.4c-0.5-1.1-1.7-1.6-2.2-2.8c-1-0.7-1.5-1.9-2.2-3c-1.4-1.9-2.6-4.2-3.8-6.4
		c-1-2.4-2.3-4.6-3-7.4c-1.2-2.2-1.9-4.9-2.6-7.6c-0.7-2.7-1.4-5.4-1.8-8.4c-0.5-2.9-1-5.8-1.2-9c-0.4-3.1-1.1-5.9-1.2-9.2
		c-0.4-1.2-0.9-2.2-1-3.6c0.5-1.7,2.3-1.9,3-3.4c1-0.3,2-0.7,2.6-1.4c2.4-0.7,4.5-1.6,6.6-2.6c2.3-0.8,4.5-1.7,6.6-2.8
		c4.3-1.9,8.1-4.2,11.9-6.6c4-2.1,7.7-4.7,11.7-6.8c3.9-2.4,7.5-4.9,10.6-8.2c0.7-1.8,1.7-3.2,1.4-6c-1-2.2-3.3-2.9-5.8-3.6
		c-3.4-0.1-6.3,0.2-9.2,0.6c-4.5,1.5-8.7,3.4-12.3,5.8c-0.9,0.7-1.7,1.4-2.6,2c-0.6,0.9-1.4,1.7-2.4,2.2c-0.6,0.9-1.6,1.4-2.4,2.2
		c-1,0.6-1.5,1.5-2.6,2c-0.6,0.8-1.4,1.6-2.4,2c-0.2,0.5-0.8,0.7-1,1.2c-0.7,0.1-0.7,0.9-1.4,1c-1.3,1.7-3.2,2.9-4.6,4.6
		c-3.4,2.7-5.6,6.6-8.6,9.8c-1.5,3.6-3.3,6.9-5.2,10.2c-0.6,1.9-1.8,3.2-2.6,5c-0.5,0.8-0.8,1.7-1.4,2.4c-0.1,1.2-1.3,1.4-1.4,2.6
		c-1.8,3.4-3.7,6.5-5.2,10.2c-0.2,0.4-0.4,0.8-0.6,1.2c0,0.2-0.4,0.5,0,0.6c0,0.3-0.5,0.2-0.4,0.6c-0.5,0.7-0.7,1.8-1.2,2.6
		c-0.6,2-1,4.2-1.8,6c0,1.9-0.4,3.3-0.6,5.4c0.2,1.1,0.1,2.7,0.2,3.4c0.2,1.6,1.2,3.1,0.8,4.6c-0.8-0.1-1.4-0.6-2.2-0.8
		c-0.2-0.8-0.6-1.5-1.2-2c-0.4-0.7-0.5-1.7-1-2.2c-0.4-0.7-0.9-1.2-1.2-2c-0.7-2.1-0.1-5.6-0.6-8c0.2-1.6,0.5-3.1,0.4-5
		c0.5-1.9,0.9-3.9,1.6-5.6c0.5-1.9,0.9-3.9,1.6-5.6c-0.8,0.3-1,1.2-1.4,1.8c-0.6,0.4-0.7,1.4-1.4,1.8c-0.8,1.4-1.7,2.7-2.6,4
		c-1.9,2.4-3.5,5.1-5.8,7.2c-1.7,2.6-4,4.6-6.4,6.6c-1.1,1-2.5,1.7-3.6,2.8c-1.6,0.6-2.5,1.9-5,1.6c-0.7-0.2-1-0.8-1.8-1
		c0.2-0.6-0.6-0.3-0.8-0.6c-0.2-0.3-0.2-0.9-0.8-0.8c-0.2-0.7-1-1-1.4-1.6c-0.5-0.5-0.8-1.2-1.4-1.6c-0.6-1.5-1.3-2.9-2-4.4
		c-0.3-1.6-0.6-3.2-0.8-5c-0.3-4.5,1-8.2,2-11c0.1-0.3,0.1-0.7,0.2-1c0.1-0.3,0.5-0.5,0.6-0.8c0.2-0.6,0.3-1.4,0.6-2
		c0.3-0.6,0.7-1.2,1-1.8c1-2.5,2.4-4.5,3.6-6.8c1.4-2.1,2.6-4.4,4.2-6.4c1.1-2.4,2.9-4,4-6.4c1.7-1.8,2.8-4.2,4.6-6
		c0.5-1.2,1.5-1.9,2.2-3c0.7-1,1.4-2.1,2.2-3c1.4-2.1,3.1-3.9,4.6-6c-0.5-1.2-1.7-1.7-2.4-2.8c-0.5-1.3-1.9-1.7-2.2-3.2
		c-1.4,0.6-1.6,2.4-2.6,3.4c-0.9,1.1-1.5,2.7-2.6,3.6c-0.1,0.9-1,1-1.2,1.8c-0.6,0.4-0.7,1.2-1.4,1.6c-0.1,0.9-1.1,0.9-1.2,1.8
		c-0.5,0.6-1,1.1-1.4,1.8c-0.7,0.3-0.8,1.1-1.4,1.6c-0.2,0.3-0.3,0.6-0.6,0.8c0.1,0.7-0.8,0.3-0.6,1c-1.1,1-1.9,2.2-3,3.2
		c-1.9,2.1-3.9,4.2-6.2,6c-1.3,2.7-2.7,5.4-4.2,8c-0.6,1.4-1.5,2.5-2.2,3.8c0.5,0.1-0.2,0.5-0.4,0.6c-0.2,0.3-0.2,0.8-0.6,1
		c-0.3,0.7-0.7,1.4-1.2,2c-1.7,2.3-3.2,4.9-5.2,7c-0.7,1.3-1.7,2.3-2.6,3.4c-1.1,1-1.9,2.2-2.8,3.4c-4.4,4.1-9,7.9-13.7,11.5
		c-1.4,0.6-2.4,1.7-3.8,2.4c-1.2,1-2.7,1.6-3.8,2.6c-2.7,1.6-6.4,2.1-9.8,3c-0.6,0-1.1-0.6-1.4-0.8c-0.2-0.1-0.4-0.1-0.6-0.2
		c-0.6-0.4-0.8-1.1-1.4-1.6c-0.7-1.3-1.5-2.4-2.2-3.8c-1.3-2.6-1.8-6.5-2-9.6c0.1-0.7,0.3-1.3,0.2-2.2c0.6-1.7,0.7-3.9,1.4-5.6
		c0.5-1.8,1.3-3.4,1.8-5.2c1-1.3,1.5-3.2,2.6-4.4c0.8-1.5,1.4-3.2,2.6-4.4c0.1-1.1,0.9-0.3,1.4-1c0.1-1.1-0.7,0.7-0.6-0.4
		c0.5-0.1,0.4-0.9,1-1c0,0.2,0.2,0.1,0.2,0c0.2,0,0.1-0.2,0-0.2c0.2-1,1-1.4,1.2-2.4c1.4-1.1,1.9-3.1,3.4-4.2
		c0.8-1.8,2.4-2.7,3.4-4.4c0.6-0.6,1.3-1.3,1.8-2c0.4-0.2,0.5-0.7,0.8-1c0.4-0.3,1-0.3,1-1c1.4-1.2,2.3-2.9,3.8-4
		c1.2-1.4,2.4-2.6,3.8-3.8c1.3-1.3,2.8-2.4,4.2-3.6c3-2.2,6.1-4.1,9.6-5.8c1.4-0.1,2.2-0.8,3.6-1c2.8-1.7,5.3-3.7,9.6-4
		c0.7,0.3,0.9-0.1,1.4,0.4c0.3,0.5,0.9,0.6,1.4,0.8c0.2,0.5,0.8,0.7,1.2,1c0,0.4,0.3,0.5,0.8,0.4c0.2,0.2,0.1,0.7,0.6,0.6
		c0.2,2.2,0.9,3.9,1,5.6c0,1.3,0,2.5,0,3.8c-0.2,1.7-0.7,3.1-1,4.8c0.1,0.6,0.3-0.3,0.6-0.2c-0.2-0.6,0.6-0.2,0.4-0.8
		c0.6-0.3,0.8-0.9,1.2-1.4c0.7-1,1.6-1.8,2.2-2.8c0.9-0.7,1.4-1.9,2.2-2.8c0.5-1.2,1.7-1.8,2.2-3c3-3.7,5.4-8.2,8.6-11.7
		c1-2.9,2.7-5.2,4-7.8c1.9-2,3.2-4.8,5.8-6.2c0.2,0,0.4,0,0.4-0.2c1.3,0,2.2,0.4,3.6,0.2c0.7,0.6,2.2,0.3,2.8,1
		c0.6,1.2-0.2,2.4-0.4,3.4c-0.1,0.5-0.5,0.7-0.8,1c-0.1,0.5-0.3,0.9-0.6,1.2c-0.4,0.9-1.1,1.4-1.4,2.4c-1.1,1.4-1.7,3.2-3,4.4
		c-0.1,1.4-0.7,2.2-1,3.4c0,1.1,0.3,2,0.4,3c1.3,3,3.7,4.8,5.6,7.2c0,1,0.1,1.8,0.4,3c0,2.3-0.1,3.3-0.4,5.4c-0.6,1.7-1.1,3.4-2,4.8
		c-0.7,1.6-1.5,3.1-2.4,4.4c-0.7,1.5-1.7,2.8-2.6,4.2c-0.5,1-1.4,1.6-1.8,2.4c-0.3,0.6-1,1.1-1,1.8c-0.8,0-0.6,1.1-1.6,1
		c0,0.9-0.6,1.4-1,2c-0.2,0.3-0.4,0.4-0.6,0.8c-0.2,0.3-0.5,0.6-0.6,1c-0.7,0.3-0.9,1.1-1.2,1.8c-0.7,0.3-0.9,1.1-1.4,1.6
		c-0.9,1.1-1.6,2.4-2.4,3.6c-1,1.1-1.6,2.5-2.6,3.6c-0.5,1.5-1.6,2.3-2.2,3.8c-0.8,1.2-1.6,2.3-2.4,3.6c-1.4,2.7-3,5.1-4,8.2
		c-0.9,0.6-1.3,1.7-1.6,3c-0.2,1.2,0.5,1.5,0.4,2.6c0.3,0.2,0.4,0.5,0.4,1c0.2,0.3,0.6,0.4,0.6,1c0.9,0.1,0.9-0.6,1.6-0.6
		c0.2-0.6,1.2-0.4,1.2-1.2c1.2-0.3,1.8-1.3,2.6-2c0.9-0.6,1.4-1.6,2.4-2.2c0.6-1,1.3-1.9,2.2-2.6c2.8-3.4,5.6-6.7,8.4-10.2
		c1.1-2,2.4-3.7,3.8-5.4c1.1-2,2.6-3.7,3.8-5.6c2.7-3.5,4.9-7.5,7.8-10.8c0.7-2.6,2-4.5,2.8-7c3.1-6.6,6.4-13.1,9.8-19.5
		c2.4-4.1,4.7-8.3,7.4-12.1c1.2-2,2.5-4,4-5.8c0.4-1.2,1.3-2,2-3c0.6-1.1,1.1-2.2,2-3c0.6-1,1.1-2.1,2-2.8c0.4-1.2,1.2-2.1,2-3
		c1.1-2.1,2.5-4,3.8-6c1.4-1.8,2.7-3.8,4.2-5.6c1.2-2,2.8-3.7,4-5.8c0.9-0.7,1.3-1.9,2-2.8c0.9-0.8,1.4-1.9,2.2-2.8
		c1.5-1.8,2.9-3.6,4.4-5.4c3.1-3.4,6-7.2,10-9.8c0.7,0.1,1.3,0,1.8-0.2c0.6,0,0.8,0.4,1.6,0.2c0.9,0,1.1,0.6,1.8,0.8
		c0.9,0,1.2,0.5,2,0.6c0.1,0.4,0.5,0.5,1,0.6c0.3,0.2,0.2,0.8,0.8,0.8c0.6,0.5,1.3,0.9,1.4,1.8c0,1.8-0.9,2.7-1.6,3.8
		c-0.8,1-1.8,1.8-2.4,3c-2,1.6-3.2,4.1-5.6,5.4c0.1,0.4-0.4,0.5-0.6,0.8c-0.2,0.3-0.1,0.8-0.6,0.8c-0.4,0.5-1.1,0.8-1.2,1.6
		c-1.1,0.9-1.8,2.1-2.8,3c-0.2,0.8-0.8,1.1-1.2,1.6c0,0.9-0.7,1.1-1.2,1.6c-0.6,1.3-1.4,2.4-2.4,3.4c-0.3,1.5-1.7,2-2.2,3.4
		c-1.1,0.8-1.5,2.4-2.6,3.2c-0.2,0.8-0.5,1.3-1.2,1.6c-0.3,0.7-0.7,1.3-1.2,1.8c-0.8,1.1-1.6,2.2-2.4,3.4c-0.7,1.2-1.9,1.8-2.2,3.4
		c-0.7,0.2-0.9,0.9-1.2,1.6c-0.5,0.5-0.9,1.1-1.4,1.6c-1.4,2.5-3,4.7-4.6,7c-1.4,2.4-3,4.6-4.4,7c-0.7,1.2-1.7,2.2-2.2,3.6
		c-0.6,0.3-0.6,1.3-1.4,1.4c0,1-0.8,1.2-1,2c3-1.7,5.5-3.8,8.2-5.8c1.1-1.2,2.7-2,3.8-3.2c1.5-0.8,2.5-2.1,4.2-2.8
		c1.2-1.1,3.1-1.6,4.4-2.6c1.7-0.7,3.2-1.5,5-2c3.6-1.1,7.2-2.2,11.3-2.8c2,0,4,0,6,0c1.8,0.2,3,1,4.8,1.2c0.3,0.6,1,0.8,1.6,1.2
		c0.4,0.8,1.4,1.4,1.8,2c0.1,0.2,0.1,0.8,0.2,1c0.1,0.3,0.4,0.6,0.6,0.8c0.1,1.5,0.1,3,0.6,4.2c-0.8,3.2-2.4,5.6-3.8,8.2
		c-1.8,1.3-3.1,3.2-5,4.4c-1.8,1.4-3.9,2.5-5.6,4c-2,1.2-4.1,2.2-5.8,3.6c-1.3,0.3-2,1.2-3,1.8c-0.8,0-1,0.6-1.6,0.8
		c-0.5,0.3-1.2,0.4-1.4,1c-1.2,0.3-2,1.1-3,1.6c-0.9,0.7-2.2,1-3,1.8c-2.4,0.8-4.2,2.2-6.6,3c-0.8,0.8-2.2,1-3.2,1.6
		c-1,0.6-2.3,0.9-3.2,1.6c-2.5,0.7-4.8,1.5-7,2.6c1.4,3.9,2.7,8.1,3.4,12.7c0.9,4.4,0.9,9.8,1.6,14.5c0.2,1.8,0.5,4.5,0.8,6.8
		c0.3,2.4,0.5,5,1.4,6.8c0.3,2.4,1.5,3.9,2.2,6c1,1.7,1.9,3.5,3.2,5c0.9,1.2,2.1,2,3,3.2c1.4,0.6,2.5,1.6,4,2.2
		c1.5,0.6,2.9,1.4,4.8,1.6c3.5,1,6.9,1.2,10.6,1.2c10.2-1,17.8-4.6,25.7-8c1.7-1.1,3.7-1.9,5.4-3c1.7-1.1,3.7-1.8,5.2-3.2
		c1.8-0.9,3.7-1.9,5.2-3.2c0.9-0.5,1.7-1.1,2.4-1.8c0.3-0.4,0.9-0.6,1.2-1c0.5-0.2,0.7-0.7,1.4-0.8c0,0.6-0.7,0.7-1,1
		c-0.3,0.3-0.7,0.8-1.2,0.8c-0.4,1-1.5,1.3-2,2.2c-1.8,1-3,2.5-4.8,3.6c-0.8,0.6-1.6,1.1-2.4,1.8c-1,0.4-1.6,1.1-2.6,1.6
		c-1.3,1.5-3.5,2.1-4.8,3.6C440.7,491.5,440.4,491.4,440.4,491.6z M306.2,412c-0.2,0.1-0.5,0.2-0.6,0.4c-1.4,0.4-2.2,1.4-3.4,2
		c-0.6,0.8-1.4,1.4-2,2.2c-0.7,0.7-1,1.8-1.8,2.4c-1,1.8-2.1,3.7-2.4,6.2c1.2,2.8,2.8,5.2,6,6c3.9,0,5.5-2.2,7.8-3.8
		c0.2-1,0.5-1.9,1-2.6c-0.1-1.3,0.4-2,0.8-2.8c0-1.9,0.7-3.2,0.6-5.2c-0.2-0.5-0.4-1.1-0.4-1.8c-1-1-1.9-2.1-3-3
		C307.9,412,307.1,412,306.2,412z M303.6,435.7c-0.5,0.5-1.3,0.6-2.2,0.6c-3-0.1-4.7-1.5-6.8-2.6c-2-2.1-3.8-4.4-4.4-8
		c0-0.1,0-0.2-0.2-0.2c-0.3,0.1-0.5,0.3-0.6,0.6c-2.6,2.6-5.1,5.4-7.6,8.2c-0.4,0.9-1.2,1.3-1.6,2.2c-0.7,0.6-1.4,1.3-1.8,2.2
		c-1.1,0.3-1.1,1.6-2,2c-0.1,0.6-0.7,0.7-0.8,1.2c-0.4,0.3-0.5,0.8-1,1c-0.9,1.7-2.2,3-3.2,4.6c-1.2,1.4-2.1,3.2-3.4,4.6
		c-0.3,1-1.1,1.5-1.4,2.6c-0.6,0.7-0.9,1.8-1.6,2.4c-0.3,1-0.7,1.9-1.2,2.8c-0.4,0.9-0.6,2-1.2,2.8c-0.3,2.6-0.8,5-0.8,8
		c0.2,0.9,0.3,1.8,0.6,2.6c0.4,0.7,0.5,1.8,1.4,2c3.2,0.1,4.6-1.7,7.2-2.6c0.9-0.8,2.1-1.3,3.2-2c0.9-0.8,2-1.4,3-2.2
		c8-5.7,14.6-12.8,20.5-20.5c1.5-1.9,2.9-3.9,4.2-6c0.7-1,1.2-2.2,2-3.2c0.3-1.2,1.8-2.2,1.4-3.4
		C304.9,435.9,304.6,435.5,303.6,435.7z M266,438.7C265.7,438.8,266,438.9,266,438.7C266.3,438.6,266,438.4,266,438.7z M265.4,439.7
		c-0.1-0.1-0.3,0.1-0.2,0.2C265.3,439.9,265.5,439.8,265.4,439.7z M264.4,441.1c-0.1-0.1-0.3,0.1-0.2,0.2
		C264.3,441.3,264.5,441.2,264.4,441.1z M260.6,447.2c-0.1-0.1-0.3,0.1-0.2,0.2C260.5,447.5,260.7,447.3,260.6,447.2z M438.8,492.6
		c-0.2,0-0.4,0-0.4,0.2C438.6,492.8,438.8,492.8,438.8,492.6z"/>
	<path id="XMLID_274_" class="st0" d="M168.6,442.7c0.2,0,0.2-0.1,0.2-0.2c0.3-0.1,0.5-0.3,0.6-0.6c0.7-0.7,1.6-1.2,2-2.2
		c0.2-0.1,0.4-0.2,0.4-0.4c0.3-0.1,0-0.2,0,0c-0.1,0-0.3,0-0.4,0c0.3-0.9,1.1-1.3,1.4-2.2c0.6-0.2,0.5,0.3,0.8,0.4
		c0.3-0.3,0.8-0.4,0.8-1c0.2,0,0.2-0.1,0.2-0.2c2.4-2.5,4.4-5.3,6.6-8c1-1.4,2.3-2.6,3.4-4c1.2-1.2,2.1-2.8,3.4-4
		c2.1-2.8,4.3-5.6,6.6-8.2c1.9-3.1,4.1-5.8,5.8-9c1.2-1.2,1.8-2.9,3-4.2c0.9-1.6,2.1-2.8,3-4.4c2.2-2.7,4.5-5.3,6.6-8.2
		c2.4-2.5,4.7-5.1,7.2-7.6c0.8-0.4,1.4-1,2-1.6c0.9-0.4,1.4-1.1,2.2-1.6c1.3-1.2,2.9-2,4.6-2.8c0.7,0,1,0.5,1.6,0.6
		c0.5,0.3,1.3,0.3,1.4,1c1.7,0,2.4,0.9,3.2,1.8c-0.3,1.4-1.4,2-2,3.2c-0.3,0.5-0.7,1-1,1.6c-0.7,0.3-0.5,1.4-1.2,1.6
		c-0.8,2.4-2.3,4.1-3.2,6.4c-0.7,0.8-1.4,1.8-1.8,3c-1,0.7-1.1,2.2-2.2,2.8c-0.3,1.3-1,2.2-1.8,3c0,0.8-0.5,1.1-0.8,1.6
		c-0.4,0.4-0.4,1.1-1,1.4c-0.6,1-1.1,2-2,2.8c-0.5,1.1-1.2,2.1-2,3c-1.1,2.1-2.5,3.8-3.6,6c-1,0.6-1,2.1-2,2.8c-0.6,1-1.1,2.2-2,3
		c-0.4,1.2-1.3,1.8-1.8,3c-0.7,0.9-1.2,1.9-2,2.8c-1.3,1.9-2.4,4.1-4,5.8c-2.3,4.1-5.5,7.4-7.8,11.5c-1.4,1.8-2.4,4-3.8,5.8
		c-1.2,2-2.6,3.9-3.6,6.2c-4.3,8.6-8.7,17.2-9.6,29.3c0,1.1,0,2.1,0,3.2c0.9,4.6,2.6,8.4,5.8,10.8c0.9,0.4,2,0.5,2.8,1
		c1.5-0.1,2.4-0.2,4.2-0.4c1.2-0.3,2-1.1,3.4-1.2c1.3-0.7,2.5-1.7,3.8-2.4c1-1,2.3-1.8,3.4-2.8c2.4-1.8,4.6-3.7,6.8-5.8
		c0.2,0,0.3-0.2,0.4-0.4c0.8-0.6,1.4-1.4,2.2-2c0.8-0.6,1.2-1.6,2.2-2c0-0.3,0.1-0.4,0.2-0.6c0.2,0,0.2-0.1,0.2-0.2
		c0.2,0,0.5-0.3,0.2-0.4c-0.6-0.1,0.3-0.3,0.2-0.6c0.5-0.1,0.5-0.7,1-0.8c-0.1,0.8,0.7,0,0.6-0.4c0.2,0,0.4,0,0.4-0.2
		c-0.1-0.3-0.4,0-0.4,0.2c-0.2,0-0.2,0.2-0.4,0.2c0.7-1.5,2.1-2.4,3-3.8c1.4-1,2.2-2.5,3.6-3.4c0.9-1.3,2-2.5,3.2-3.6
		c0.8-1.5,2.4-2.3,3.2-3.8c4.6-4.6,8.7-9.8,12.9-14.7c4.2-5,8.6-9.7,12.5-14.9c3.1-3.8,6-7.9,9-11.7c0.4-0.5,0.7-1,1-1.4
		c0.3-0.4,0.6-0.6,0.8-1c0.3-0.6,1-1.4,1.4-1.6c-0.4,1.6-1.9,2.1-2.2,3.8c-0.3,0.1,0,0.2,0,0c1.4-1.1,2.2-2.8,3.4-4.2
		c1.1-1.4,2.3-2.8,3.2-4.4c1.2-1.3,2.2-2.9,3.2-4.4c0.6,0,0.5-0.7,0.8-1c0-0.7,0.7-0.7,0.8-1.2c0.2-0.4,0.6-0.7,1-1
		c0.5-0.3,0.1-0.5,0.4-1.2c0.3,0,0.4,0.8,0.4,0c0.3-0.1,0.5-0.3,0.6-0.6c0.4-0.1,0.5-0.5,0.6-1c0.2,0,0.2-0.2,0.2-0.4
		c0.2,0,0.2-0.1,0.2-0.2c0.5-0.3,0.6-1.1,1-1.6c0.6-0.4,0.8-1.1,1.2-1.6c0.8-1.1,1.5-2.3,2.2-3.4c1.3-2.4,2.8-4.5,3.8-7.2
		c0.4-0.4,0.7-0.7,1.2-1c1.5-3,3.1-5.8,4.8-8.6c0.2-0.9,0.7-1.6,1.2-2.2c0.2-1,0.8-1.4,1-2.4c1.2-1.1,1.6-2.9,2.4-4.4
		c-0.3-0.6-0.7,0.4-1.2,0.4c-0.4,0.3-1.1,0.4-1.4,0.8c-1,0.4-1.8,0.9-2.6,1.6c-1.8,1-3.2,2.5-4.8,3.8c-3.1,2.6-5.7,5.7-8.4,8.8
		c-2.5,3.1-4.9,6.3-7.2,9.8c-1.2,1.6-2.4,3.3-3.4,5.2c-1.2,1.6-2.5,3.2-3.2,5.4c0.2,1.1,0,1.3,0.4,2c0.6,0.6,0.9,0.9,0.6,2
		c-1.9-0.1-2.8-0.2-4.2,0.4c-1-0.3-2-0.6-2.6-1.4c-0.7,0.1-1.2,0.2-1.8,0c-0.6-1.4,0.1-2.5-0.6-4c0.1-0.8,0.7-1,0.6-2
		c0.8-0.9,1.5-2.1,2-3.4c1.1-0.2,0.9-1.7,2-2c0.1-0.5,0-0.6,0.6-1c-0.7-0.4,0.6-0.6,0.4-1.2c0.5,0,1.2-0.7,0.8-0.8
		c-0.5-0.2,0.6-0.6,0.6-1c0.8-0.6,1.1-1.7,1.8-2.4c2.4-3,4.6-6.3,7.2-9.2c0.6-0.7,1-1.6,1.8-2.2c0.8-0.5,1.2-1.5,1.8-2.2
		c1.5-1.2,2.7-2.7,4.2-4c3.1-2.4,6.1-4.8,9.6-6.8c0.8,0,1.5,0,2-0.2c0.3,0.4,0.7,0.6,1.2,0.8c0.4-0.4,1,0,1.2,0.4
		c0.8,0.5,2.6,0.1,2.8,1.2c0.6,0.2,0.6-0.3,0.8-0.6c0.6,0.4-0.3,1-0.4,1.4c0,0.8-0.7,0.9-0.6,1.8c-0.7,0.9-1,2-1.4,3.2
		c-1.2,1.9-1.7,4.5-3,6.4c-0.9,2.2-2,4.1-3,6.2c-0.3,1.2-1.3,1.8-1.4,3.2c-0.9,0.7-0.9,2.3-1.8,3c-0.7,2-1.5,3.9-2.6,5.6
		c-0.8,2-2,3.6-2.8,5.6c-1.1,1.7-1.9,3.7-3,5.4c-0.7,2-2.2,3.3-2.8,5.6c-0.7,0.6-1.2,1.5-1.8,2.2c-0.4,0.4-0.2,1.4-0.8,1.6
		c-0.4,0.7-0.6,0.5-0.6,1.4c-0.8,0.8-1.3,2-2,3c-1.4,1.9-2.4,4.1-4,5.8c-1.1,2.1-2.7,3.8-4,5.8c-1.5,1.9-3,3.7-4.4,5.6
		c-1.6,1.7-2.8,3.7-4.6,5.2c0,0.8-0.8,0.8-1,1.4c-0.4,0.4-0.7,0.9-1.2,1.2c-0.8,0.8-1.4,1.9-2.4,2.6c-1.3,1.9-3.3,3.2-4.6,5.2
		c-1.7,1.6-3.1,3.5-5,5c-0.4,1.2-1.6,1.6-2.2,2.6c-0.8,0.8-1.9,1.4-2.4,2.6c-0.6,0.2-0.8,0.8-1.2,1.2c-0.8,0-0.8,0.8-1.4,1
		c-1.5,1.8-3.3,3.2-4.8,5c-0.9,0.8-2,1.3-2.6,2.4c-1.9,1.4-3.4,3.2-5.2,4.8c-3.5,3.1-6.7,6.4-10.2,9.4c-1.6,1.7-3.5,3-5.2,4.6
		c-0.9,0.7-1.8,1.5-2.8,2.2c-0.9,0.8-2,1.3-2.8,2.2c-1.2,0.1-2.5,0.6-3.6,1.4c-2.1,0.4-4.2,0.8-6.4,1.2c-1.9,0.1-3-0.5-4.8-0.4
		c-0.9-0.6-2-1-3.2-1.4c-5.2-4.3-7.5-11.3-7.6-20.7c0.3-0.8-0.5-0.4-0.4-1c-0.1-8.8,2-15.6,3.4-22.9c-0.4,1.1-0.7,0.3-0.2-0.4
		c0,0.2,0.2,0.2,0.4,0.2c0.8-3.2,2.1-5.9,3-9c0.1-0.5,0.4-0.7-0.4-0.6c0.3-2,1.4-3.3,1.8-5.2c0.7-1.6,1.5-3,2-4.8
		c-4.3,5-8.3,10.3-12.7,15.1c-2.1,2.6-4.4,4.9-6.6,7.4c-2.4,2.3-4.3,5.1-6.8,7.4c-2,2.6-4.6,4.7-6.6,7.4c-2.5,2.2-4.6,4.8-7.2,7
		c-2.2,2.5-4.7,4.6-7.4,6.6c-2.4,2.3-5.2,4.2-8.2,6c-1.3,0.2-2.7,0.4-3.6,1c-1.2-0.5-2,0.2-3.4,0.2c-1.1,0.1-0.9-1-1.8-1
		c-2.4-2.9-3.8-6.8-4.2-11.7c-0.1-3.7,0.4-6.2,0.4-9.4c1.1-6.2,2.3-12.5,4.4-17.7c2.2-5.1,4.7-10.1,7.4-14.7c2.6-4.8,5-9.7,7.8-14.3
		c0.7-1.1,1.2-2.4,2-3.4c0.4-1.4,1.6-2.1,1.8-3.8c0.9-1,1.2-2.5,2.2-3.4c0.4-1.4,1.5-2.2,2-3.6c0.5-0.2,0.7-0.6,0.8-1.2
		c0.9-0.5,1-1.8,1.8-2.4c0.5-1,1.3-1.6,1.6-2.8c0.6-0.2,0.8-0.8,1-1.4c0.2-0.1,0.4-0.3,0.4-0.6c0.2,0,0.2-0.1,0.2-0.2
		c0.3-0.1,0-0.2,0,0c-0.2,0-0.2,0.1-0.2,0.2c-0.2,0-0.2,0.2-0.4,0.2c0.2-0.6,0.5-1.1,1-1.4c0,0.1,0,0.3,0,0.4c-0.3,0.1,0,0.2,0,0
		c0.2,0,0.2-0.2,0.2-0.4c0.2,0,0.2-0.1,0.2-0.2c0.2,0,0.2-0.1,0.2-0.2c0.2-0.1,0.4-0.3,0.4-0.6c0.2-0.1,0.4-0.2,0.4-0.4
		c1.2-0.6,1.8-1.8,2.4-3c-0.4-0.3-0.7,1.1-1.4,1.2c0.8-1.8,2.3-2.8,3.2-4.6c1.1-1.5,2.4-2.8,3.4-4.4c2.4-2.8,4.5-5.9,7-8.6
		c2.3-2.9,4.8-5.6,7.2-8.4c1.3-1.3,2.6-2.6,3.8-4c0.7-0.6,1.4-1.2,2-2c0.6-0.7,1.7-0.9,2-2c-14.1,2.7-29.7,3.8-45.2,5.2
		c-0.9,1.7-1.6,3.6-2,5.8c-0.7,0.8-1,1.9-1.4,3c-0.6,0.9-0.9,2.2-1.4,3.2c-1,2-1.9,4.1-2.8,6.2c-1.1,1.9-2.1,3.9-3,6
		c-0.5,1-1,1.9-1.6,2.8c-0.4,1.1-0.9,2.2-1.6,3c-0.7,2.3-2.2,3.7-3.2,5.8c-1.3,1.7-2.1,3.9-3.6,5.4c-0.9,2.1-2.4,3.6-3.4,5.6
		c-1.5,1.5-2.4,3.5-4,5c-2.5,3.5-5.2,6.8-8.2,9.8c-1.6,1.4-3,3-4.6,4.4c-1.5,1.5-3.3,2.7-4.8,4.2c-3.5,2.5-6.8,5.2-10.8,7.2
		c-3.9,2-8.3,3.6-13.3,4.6c-1.9,0-3.7,0-5.6,0c-1.4-0.2-2.7-0.5-4-0.8c-1.7-0.5-2.8-1.6-4.8-1.8c-1.6-1.3-3.5-2.3-5.2-3.4
		c-1.5-1.4-3-2.8-4.4-4.4c-2.5-3.3-4.7-7-5.6-11.9c0.1-0.9,0.2-1,0-1.8c0.3-4.5,1.1-8.6,2.4-12.1c1.3-3.6,3.4-6.4,5.2-9.6
		c1.6-1.4,3.2-2.8,4.4-4.6c0.4-0.3,1.1-0.4,1.2-1c0.9-0.3,1.3-1,1.8-1.6c0.3-0.1,0.5-0.3,0.6-0.6c0.2,0,0.5-0.1,0.2-0.2
		c0-0.3,0.6-0.1,0.6-0.4c0.3-0.3,0.8-0.4,1-0.8c0.1-0.5,0.9-0.3,1-0.8c0.5-0.1,0.5-0.7,1-0.8c1.3-1.1,2.6-2.3,4.2-3.2
		c1.3-1.1,2.8-2,4.2-3c0.7-0.5,1.4-1,2.2-1.4c0.8-0.5,1.5-1,2.4-1.4c6-3.7,12.5-6.8,19.9-9.2c6.9-2.8,14.9-4.5,22.3-6.8
		c7.8-1.9,15.8-3.6,24.5-4.6c0.9-0.5,1-1.9,1.6-2.8c0.5,0.7-0.4,1.9,0,2.6c9-0.9,18.5-1.2,26.9-2.6c8.7-1.1,16.9-2.7,23.3-6.2
		c0.9,0.4,1.8-0.5,2.8-0.6c0.9,0,2.1,0,2.2-0.2c1.2,0.7,1.8,1,3.2,1.2c0.7,0.1,1.1,0.5,1.8,0.6c0.5,0.4,0.9,0.8,1.8,0.8
		c0.2,0.7,0.9,0.9,1.4,1.2c0.3,0.7,0.9,0.9,1.2,1.6c0,0.3-0.1,0.7,0.2,0.8c-0.3,1-0.7,2-1.4,2.6c-0.6,0-0.3,1.1-1,1
		c-0.1,0.5-0.8,0.5-0.8,1.2c-1.4,1.3-2.2,3.1-3.6,4.4c-0.7,0.6-1.2,1.4-1.8,2.2c-0.8,0.5-1.4,1.3-1.8,2.2c-1.7,1-2.1,3.2-4,4
		c-0.4,1.7-1.8,2.4-2.6,3.8c-0.4,0.7-1.2,1-1.4,1.8c-0.4,0.7-1.2,0.9-1.4,1.8c-1.1,1-2,2.2-3,3.4c-0.6-0.1-0.1,1-0.8,0.8
		c-0.2,0.4-0.8,0.3-0.6,1c-0.7,0.4-0.9,1.4-1.8,1.6c0,0.7-0.6,0.9-0.6,1.6c-1.1,0.8-1.9,1.9-2.8,3c-0.5,0.5-0.8,1.2-1.4,1.6
		c-0.6,0.4-0.7,1.3-1.4,1.6c-1.9,2.1-3.6,4.4-5.4,6.6c-0.5,0.5-0.8,1.2-1.4,1.6c-0.3,0.7-1.1,0.9-1.2,1.8c-1.1,1-1.9,2.2-2.6,3.4
		c-1,1-2,2-2.6,3.4c-0.9,1.1-1.9,2.1-2.4,3.6c-0.8,0.3-0.9,1.4-1.8,1.6c-0.1,0.8-0.5,1.2-0.8,1.8c-0.7,0.2-0.6,1.3-1.2,1.6
		c-0.4,0.5-0.7,1.1-1,1.6c-0.5,0.4-0.8,1-1.2,1.6c-0.7,1.1-1.6,2-2.2,3.2c-0.6,0.3-0.6,1.1-1.2,1.4c-0.3,0.6-0.8,1-1,1.8
		c-1,0.8-1.6,2-2.4,3c-0.4,0.4-0.7,1.1-1,1.6c-0.5,0.5-1,0.8-1.2,1.6c-1.7,1.9-2.7,4.4-4.4,6.4c-1.1,2.5-2.5,4.7-3.8,7
		c-0.4,0.5-0.4,1.3-1,1.6c0.2,1.1-0.8,1-0.8,2c-0.6,0.3-0.4,1.3-0.8,1.8c-0.5,0.5-0.7,1.1-1,1.8c-2.3,4.9-4.3,10.1-5.2,16.5
		c0,3.8,0,7.4,2,9.2c3.9-0.5,6.4-2.3,9-4.2c2.3-2.2,4.8-4.1,7-6.4c2.2-2.3,4.3-4.6,6.6-6.8c1-1.2,2-2.3,3.2-3.4
		c0.9-1.3,2.1-2.4,3.4-3.4c0.6-0.8,1.2-1.7,2-2.4c0.6-0.9,1.7-1.3,2.2-2.4c1.7-1.4,3-3.2,4.6-4.6c0.6-0.8,1.4-1.5,2.2-2.2
		c0.4-1.1,1.5-1.6,2-2.6c0.7-0.8,1.7-1.4,2.2-2.4c0.7-0.1,0.6-0.9,1.2-1c0.4-0.4,0.6-1,1.2-1.2c0.4-0.9,0.5-1,0.8-1.8
		C168.2,443.7,168.4,443.1,168.6,442.7z M129.4,369.2c-0.3,0-0.3,0.3-0.6,0.2c-6.3,0.7-12,2-17.9,3c-2.7,0.8-5.8,1.2-8.4,2.2
		c-2.6,0.9-5.3,1.7-8.4,2.2c-1.1,0.8-2.1,0.5-3,1.4c-1.6,0-2.5,0.7-3.8,1c-2.6,0.7-4.8,1.8-7.2,2.6c-1.3,0.3-2.4,0.8-3.4,1.4
		c-1.2,0.4-2.5,0.8-3.6,1.4c-2.5,0.8-4.3,2.2-6.6,3.2c-4,2.5-8.2,4.8-11.7,7.8c-1.8,1.5-3.7,2.8-5.4,4.4c-1.7,1.6-3.2,3.3-4.8,5
		c-0.3,0.8-0.9,1.2-1.2,2c-0.3,0.8-1.1,1.2-1.2,2.2c-1,1.2-1.4,2.9-2.4,4.2c-1.3,3.1-2.4,6.4-2.6,10.6c0.1,2,0.3,3.9,0.8,5.6
		c0.5,1.7,1.4,2.9,2,4.6c1.3,1.4,2.4,3,4,4.2c1.4,1.3,3,2.5,4.8,3.4c3.3,2.1,7.1,3.8,12.5,3.8c0.1,0,0.3,0,0.4,0
		c5.6-0.4,9.7-2.4,13.9-4.2c1.9-1,3.9-2.1,5.8-3.2c0.8-0.7,1.9-1.1,2.6-2c1.1-0.4,1.7-1.4,2.8-1.8c1.4-1.6,3.3-2.7,4.6-4.4
		c1.9-1.1,3.2-2.9,4.8-4.4c1.2-1.8,2.9-3,4-5c1.7-1.4,2.6-3.5,4.2-5c1-2,2.6-3.4,3.6-5.4c1.4-1.7,2.4-3.7,3.8-5.4
		c1-2,2.5-3.5,3.4-5.6c1.5-1.6,2.1-4,3.6-5.6c1.9-4.1,4.1-8,6-12.1c1-2,2-4,3-6c0.2-1.3,1.1-2,1.4-3.2c0.3-0.4,0.3-1.1,0.6-1.6
		c0-0.6,0.9-1.3-0.2-1.4C129.5,369.2,129.5,369.2,129.4,369.2z M256.4,428.3c-0.1-0.1-0.3,0.1-0.2,0.2
		C256.3,428.6,256.5,428.4,256.4,428.3z M173,437.9C172.7,438,173,438.1,173,437.9C173.3,437.8,173,437.6,173,437.9z M172.4,438.5
		c-0.1-0.1-0.3,0.1-0.2,0.2C172.3,438.7,172.5,438.6,172.4,438.5z M216,475.1c0-0.2-0.1-0.5-0.2-0.2
		C215.6,474.9,215.7,475.2,216,475.1z M215.4,475.5c-0.2,0-0.4,0-0.4,0.2c-0.6,0,0.2,0.8,0,0C215.3,475.7,215.4,475.7,215.4,475.5
		C215.7,475.4,215.4,475.3,215.4,475.5z M214.4,476.5c-0.1-0.1-0.3,0.1-0.2,0.2C214.3,476.8,214.5,476.6,214.4,476.5z M175.8,493.2
		C175.6,494.1,176.4,493.3,175.8,493.2c-0.4-1.1-0.6-2.3-1.2-3.2c-0.1-1.3-0.4-2.4-0.8-3.4c0-0.8-0.1-1.5-0.6-1.8
		c-0.1,1.3,0.3,2.1,0.2,3.4C174.2,489.9,174.5,492.1,175.8,493.2z"/>
	<path id="XMLID_271_" class="st0" d="M416.5,459C415.9,459,416.7,459.8,416.5,459c0.5-1.1,0.5-2.7,1-3.8c-0.3-0.7-0.3,0.5-0.8,0.2
		c3.3-7.9,9.3-13,14.5-18.9c1.6-1.2,2.9-2.7,4.4-4c1.6-1.1,3.2-2.4,5-3.4c3.3-2.2,7-4.1,10.6-6.2c0.7-3,1.5-5.9,1.6-9.6
		c0.2-0.8,0.3-1.5,0.4-2.4c0.1-0.6,0.7-1.5,0.4-2c0.4-1.5,0.6-3.3,1-4.8c-0.5-0.5-0.6,0.2-0.8,0.6c-0.6-0.1-0.4,0.8-1,0.8
		c-0.6,0.5-1,1.4-1.8,1.8c-1.1,1.3-2.3,2.5-3.6,3.6c-2.2,2.5-5,4.6-7.2,7.2c-2.3,2.5-4.9,4.7-7.2,7.2c-0.8,0.4-1.2,1.2-1.8,1.8
		c-1.9,1.7-3.6,3.7-5.6,5.4c-0.6,0.6-1.6,0.8-1.8,1.8c-0.7,0.5-1.2,1.2-2,1.6c-1.3,1.1-2.2,2.6-3.8,3.4c-2.2,2.6-5.3,4.4-7.6,7
		c-1.5,0.9-2.6,2.2-4,3.2c-1.3,1.1-2.6,2.1-3.8,3.4c-1.4,1-2.5,2.3-3.8,3.4c-1.4,1.1-2,2.9-4.2,3.2c0.2-1.3,1.1-1.9,1.6-2.8
		c0.8-0.7,1.2-1.7,2-2.4c1.4-1.5,2.8-3.2,4.4-4.6c8.9-9.1,18.3-17.6,26.9-26.9c5.7-6.3,11.4-12.5,17.5-18.3
		c6.1-5.9,11.3-12.6,16.9-18.9c0.7,0.1,1.1,0.5,1.8,0.6c1.2-0.6,1.6-1.9,2.8-2.6c0.9-0.9,1.8-1.8,2.8-2.6c2.2-1.5,4.1-3.2,6.2-4.8
		c1-0.1,1.6,0,2-0.2c0.7,0.1,1,0.7,1.4,1.2c0.3,0.6,1.1,0.7,1,1.8c-0.3,1.4-1.6,1.7-2.4,2.6c-0.9,0.7-1.6,1.7-2.6,2.4
		c-1.3,2-2.7,3.9-4,5.8c-0.6,1.1-1.3,2-1.8,3.2c-0.7,0.9-1,2.4-1.8,3.2c-2.2,4.4-3.9,9.4-4.6,15.3c0,1.6-0.1,3.1-0.4,4.4
		c0.1,0.9-0.1,1.5-0.2,2.2c-0.2,1.1,0.2,1.5,0.4,2.2c0.5,0.5,0.9,0.3,2,0.4c0.2,0.2,0.7,0.2,1.2,0.2c0.8-0.3,0.4,0.5,1,0.4
		c0.5,0.6-0.6,0.7-1,1c-0.5,0.4-0.8,1-1.2,1.4c-1.3,0.3-2.5,0.7-3.6,1.2c-1.8,5.4-3,11.4-5.4,16.3c-0.9,2.7-2.1,5-3.4,7.4
		c-1.2,2.5-2.4,4.9-4.2,6.8c-0.6,1.2-1.5,2.1-2.4,3c-0.1,0.7-0.7,1-1.2,1.4c-0.3,0.7-0.9,1-1.2,1.6c-1.2,0.6-1.8,1.8-2.8,2.6
		c-1.1,0.8-2.1,1.6-3.2,2.4c-4.2,2.9-9.3,5.7-14.5,6.8c-0.7,0-1.5,0-2.2,0c-2.1-0.4-3.1-1.8-4.4-3c-0.4-1-0.4-2.4-1.4-2.8
		c-0.1-0.2,0.2-0.6,0.2-0.6c0-0.4-0.3-0.3-0.4-0.6c0,0,0.1-0.2,0-0.4c-0.1-0.3-0.3-0.4-0.2-0.8c-0.2-1-0.5-2.1-0.6-3.2
		c0-0.7,0-1.3,0-2c0.3,0,0.2-0.5,0.2-0.8C416.3,458.8,416.5,458.8,416.5,459z M448,431.7c0,0.2-0.2,0.3-0.4,0.4
		c-2.7,1.5-5.3,3.2-7.8,5c-3.1,2.3-5.7,5.3-8.4,7.8c-0.3,0.3-0.7,0.4-1,0.6c-0.1,0.1-0.1,0.5-0.2,0.6c-0.2,0.1-0.5,0.1-0.6,0.2
		c-0.5,0.5-1,1-1.6,1.6c-0.3,0.3-0.3,0.7-0.6,1c-0.3,0.3-0.7,0.5-1,0.8c-2.1,2.3-3.8,4.9-5,8c0.1,0.7-0.1,1.1-0.2,1.6
		c-0.1,2.1,0,3.5,0.6,5.2c0.5,1.6,1.2,3,2.6,3.6c1.5-0.1,2.2-1.1,3.2-1.8c0.9-0.8,1.7-1.6,2.8-2.2c1.9-2.3,4.3-4.1,5.8-6.8
		c2-2.1,3.5-4.8,5.2-7.4c0.6-1.5,1.5-2.6,2-4.2c0.4-1.7,1.5-2.8,1.8-4.6c1.4-2.9,2.5-6,3.4-9.4c-0.1,0-0.3,0-0.4,0
		C448.1,431.7,448.1,431.7,448,431.7z"/>
	<path id="XMLID_35_" class="st0" d="M174.6,450.4c-0.1-0.1,0.1-0.3,0.2-0.2C174.9,450.3,174.7,450.5,174.6,450.4z"/>
	<path id="XMLID_34_" class="st0" d="M174.4,450.8c0-0.2,0.2-0.2,0.4-0.2C174.8,450.8,174.6,450.8,174.4,450.8z"/>
	<path id="XMLID_33_" class="st0" d="M685.3,451c-0.1-0.1,0.1-0.3,0.2-0.2C685.6,450.9,685.4,451.1,685.3,451z"/>
	<path id="XMLID_32_" class="st0" d="M174.4,451.4c-0.1-0.1,0.1-0.3,0.2-0.2C174.7,451.3,174.5,451.5,174.4,451.4z"/>
	<path id="XMLID_31_" class="st0" d="M684.9,451.6C684.1,451.8,684.9,451,684.9,451.6L684.9,451.6z"/>
	<path id="XMLID_30_" class="st0" d="M174,452.2c0.4,0.5-0.3,1.5-0.4,2.2C173.2,453.9,174,452.9,174,452.2z"/>
	<path id="XMLID_29_" class="st0" d="M683.3,452.4C683.3,452.2,683.6,452.3,683.3,452.4L683.3,452.4z"/>
	<path id="XMLID_28_" class="st0" d="M683.3,452.4c0,0.1,0,0.1,0,0.2C683.2,452.6,683.1,452.4,683.3,452.4z"/>
	<path id="XMLID_27_" class="st0" d="M681.5,453.6c0-0.2,0.3-0.3,0.4,0C681.8,453.6,681.7,453.6,681.5,453.6z"/>
	<path id="XMLID_26_" class="st0" d="M681.3,453.8c0-0.1,0-0.2,0.2-0.2c0,0.1,0,0.1,0,0.2C681.5,453.8,681.4,453.8,681.3,453.8z"/>
	<path id="XMLID_25_" class="st0" d="M681.3,453.8c0,0.1,0,0.1,0,0.2C681,454.1,680.9,453.8,681.3,453.8z"/>
	<path id="XMLID_24_" class="st0" d="M680.7,454.4C680.5,454.4,680.6,454.1,680.7,454.4L680.7,454.4z"/>
	<path id="XMLID_23_" class="st0" d="M173.4,454.8C173.4,454.6,173.7,454.7,173.4,454.8L173.4,454.8z"/>
	<path id="XMLID_22_" class="st0" d="M630.4,458.2c-0.1-0.1,0.1-0.3,0.2-0.2C630.7,458.1,630.4,458.2,630.4,458.2z"/>
	<path id="XMLID_21_" class="st0" d="M602.5,464C601.9,463.9,602.7,463.1,602.5,464L602.5,464z"/>
	<path id="XMLID_20_" class="st0" d="M595.5,475.1c0,0.1,0,0.3,0,0.4c-0.1,0-0.1,0-0.2,0C595.4,475.4,595.3,475.1,595.5,475.1z"/>
	<path id="XMLID_19_" class="st0" d="M594.9,476.1c0-0.1,0-0.2,0.2-0.2c0,0.1,0,0.1,0,0.2C595.1,476.1,595,476.1,594.9,476.1z"/>
	<path id="XMLID_18_" class="st0" d="M212.6,478.1c0-0.1,0-0.2,0.2-0.2C212.8,478,212.8,478.1,212.6,478.1z"/>
	<path id="XMLID_17_" class="st0" d="M593.1,479.7C592.9,479.7,593,479.4,593.1,479.7L593.1,479.7z"/>
	<path id="XMLID_16_" class="st0" d="M170.2,479.9c0-0.2,0.2-0.1,0.2,0C170.4,480.1,170.2,480,170.2,479.9z"/>
	<path id="XMLID_15_" class="st0" d="M211.2,479.9c-0.2,0-0.2,0.1-0.2,0.2c-0.7,0.1-0.2-0.5,0.2-0.4
		C211.2,479.8,211.2,479.8,211.2,479.9z"/>
	<path id="XMLID_14_" class="st0" d="M592.5,480.5c0-0.1,0.2-0.2,0.2,0C592.7,480.5,592.6,480.5,592.5,480.5z"/>
	<path id="XMLID_13_" class="st0" d="M592.5,480.5C592.7,481.3,591.9,480.5,592.5,480.5L592.5,480.5z"/>
	<path id="XMLID_12_" class="st0" d="M170.2,483.7c-0.1-0.1,0.1-0.3,0.2-0.2C170.5,483.6,170.3,483.7,170.2,483.7z"/>
	<path id="XMLID_11_" class="st0" d="M170.2,484.3c-0.1-0.1,0.1-0.3,0.2-0.2C170.5,484.2,170.3,484.3,170.2,484.3z"/>
	<path id="XMLID_10_" class="st0" d="M206.5,484.7C206.2,484.7,206.3,484.4,206.5,484.7L206.5,484.7z"/>
	<path id="XMLID_9_" class="st0" d="M206.1,485.1C205.8,485.1,205.9,484.8,206.1,485.1L206.1,485.1z"/>
	<path id="XMLID_8_" class="st0" d="M599.3,491.4C599.3,491.7,599,491.6,599.3,491.4L599.3,491.4z"/>
	<path id="XMLID_7_" class="st0" d="M597.5,494.2c0-0.2,0.2-0.1,0.2,0C597.7,494.5,597.5,494.3,597.5,494.2z"/>
	<path id="XMLID_6_" class="st0" d="M597.1,494.8c-0.1-0.1,0.1-0.3,0.2-0.2C597.4,494.7,597.2,494.9,597.1,494.8z"/>
	<path id="XMLID_5_" class="st0" d="M586.4,496c0.3,0.7-0.1,1.7-0.6,2.2c0-0.9,0.5-1.3,0.4-2.2C586.2,496,586.3,496,586.4,496z"/>
	<path id="XMLID_4_" class="st0" d="M585.8,498.2C586,499,585.2,498.2,585.8,498.2L585.8,498.2z"/>
	<path id="XMLID_3_" class="st0" d="M595.6,507C595.4,506.1,596.2,506.9,595.6,507L595.6,507z"/>
	<path id="XMLID_2_" class="st0" d="M595.4,507c0.1,0,0.1,0,0.2,0C595.6,507.3,595.3,507.4,595.4,507z"/>
</g>
<path id="XMLID_1_" class="st0" d="M588.6,473.5c-0.1-0.1,0.1-0.3,0.2-0.2C588.9,473.4,588.7,473.5,588.6,473.5z"/>
</svg>
