<svg xmlns="http://www.w3.org/2000/svg" viewBox="0 0 182.3 106.36"><defs><style>.cls-1{fill:#fff;fill-rule:evenodd;}</style></defs><title>Asset 17</title><g id="Layer_2" data-name="Layer 2"><g id="Layer_1-2" data-name="Layer 1"><path class="cls-1" d="M111.12,99c-.63.05-.49-.66-1.12-.61-.06.28.46.48.2.61-1,.17-1.25-.38-1.73-.71-.11-.3-.58-.23-.61-.61a3.83,3.83,0,0,1-.71-.41,9,9,0,0,0-1.32-1.53,15.57,15.57,0,0,0-1.22-1.63,12,12,0,0,0-1-1.83c-.14-.77-.57-1.26-.71-2a40.32,40.32,0,0,1-1.94-9.06,135.94,135.94,0,0,1-.2-21.08,11.25,11.25,0,0,0-.61,2.44c-.43.59-.5,1.53-.92,2.14-.54,1.5-1.3,2.78-1.94,4.18a38,38,0,0,1-2.44,3.67,23,23,0,0,1-3.16,2.85,3.36,3.36,0,0,0-1.22.61,10.77,10.77,0,0,1-1.63.2c-.75-.1-1-.7-1.53-1a5.64,5.64,0,0,1-1-1.53,1.9,1.9,0,0,1-.61-.51c-.3,0-.34-.33-.61-.41-.46-1-1.28-1.71-1.63-2.85-.52-1-.77-2.22-1.22-3.26a58,58,0,0,1-.81-7.84c-.05-.39.18-.5.1-.92a41.53,41.53,0,0,1,.1-7.33c.2-2.48.82-4.55,1.12-6.93.6-1.57.86-3.48,1.53-5A29.47,29.47,0,0,1,86.07,34a28.62,28.62,0,0,1,5.09-7.84,19.45,19.45,0,0,1,3.06-1.83,7.43,7.43,0,0,1,2.24.2,1.3,1.3,0,0,1,.92.92c.6,0,.86.36,1.32.51,2,1.8,3.13,4.48,3.87,7.54.47-2.93.61-6.18,1.12-9.06s.86-6.09,1.32-8.56a56.67,56.67,0,0,1,1.63-8.45c.45-1.25.88-2.52,1.32-3.77.62-1,1.12-2.21,1.73-3.26.32,0,.27-.27.51-.31s.18-.1.31-.1a1.78,1.78,0,0,1,1.12.31c.13.07.11,0,.2.1a10.6,10.6,0,0,0,.92,1,7.43,7.43,0,0,0,.31,1.83c.48,5.59-.05,11.34,0,17.11a106.19,106.19,0,0,1-2.14,14.46c-.4,2.39-1,4.56-1.53,6.82a19.35,19.35,0,0,1-1.22,3,18.13,18.13,0,0,1-1.32,2.75,28.81,28.81,0,0,1-.41,4.38q-.49,8.17-.92,16.4c.09,1.1,0,2.07,0,3.36a17.19,17.19,0,0,1,.1,3c.19,1.54.27,4.06.51,5.81-.11.3.24.88.2,1.43s0,.9.2,1.32c.06,1.09.33,2,.41,3.06.1,1.81.73,3.76.92,5.81.35,1.15.78,2.21,1.12,3.36a20.85,20.85,0,0,0,1,1.94C110.22,97.93,110.8,98.34,111.12,99ZM110.71,4.9c-1.17,2.89-1.1,7.27-1.53,10.59a24.54,24.54,0,0,1-.1,3.06c-.05,1.23-.08,1.75-.1,3.16-.31,2.22-.25,4.43-.61,6.42.35,1.91-.37,3.85-.2,5.6-.13.45-.15,1-.31,1.43.28.49-.19,1.09.1,1.53.72-2.27.93-5,1.53-7.13.57-2.29.82-5.41,1.22-7.54.31-2.59.15-5.35.31-8.25.2-2.62.06-5.65,0-8.56-.22,0,0-.36-.1-.51s0-.12-.1-.1S110.69,4.73,110.71,4.9ZM98.49,52.66a68.24,68.24,0,0,0,1.63-12.12c-.1-1.29-.18-3.22-.31-4.79a39.58,39.58,0,0,0-1-4.28,17.29,17.29,0,0,1-1.12-2c-.48-.3-.68-.89-1.43-.92a.51.51,0,0,0-.31.31c-.37,0-.37.31-.71.31a11.61,11.61,0,0,1-1.83,2.14.76.76,0,0,1-.41.81,1.83,1.83,0,0,1-.41.92c0,.36-.37.45-.51.71,0,.47-.32.57-.41.92C91.19,35.86,90.59,37,90,38.1c-.38,1.32-.76,2.63-1.12,4-.28.57-.26,1.43-.61,1.94a4.49,4.49,0,0,1-.51,2,3.06,3.06,0,0,1-.31,1.73c.31.52-.22,1.07-.1,1.73-.23,1.16-.38,2.41-.61,3.56a26.64,26.64,0,0,1-.1,3.36c.18,1.77-.12,3.34,0,5.4a2.27,2.27,0,0,0,.1,1.22c-.23,0,.13.26,0,.51s0,.58.1.71a22.92,22.92,0,0,0,.2,3,16,16,0,0,1,.81,2.44,15.17,15.17,0,0,0,1.83,2.24c1.28-.52,1.87-1.73,2.65-2.75a21.31,21.31,0,0,0,1.94-3.46A8.1,8.1,0,0,0,95.23,64,11.35,11.35,0,0,0,96,62a43.12,43.12,0,0,0,1.22-4.28,1.49,1.49,0,0,0-1,.41,3.7,3.7,0,0,0-1.12.41c-1.6.34-3,.91-4.69,1.12,0-.24-.45-.06-.51,0,0-.27,0-.44-.31-.41s-.38.16-.71.1c-.13-.18-.2-.41-.41-.51A26.93,26.93,0,0,0,98.49,52.66Z"/><path class="cls-1" d="M61.93,99.11v.31a7.36,7.36,0,0,0-2,1.22,21.92,21.92,0,0,0-2.24,1,36.69,36.69,0,0,1-5.4,1.22H50a20.36,20.36,0,0,0-2.85-.51,8.64,8.64,0,0,0-1.83-.71,1.27,1.27,0,0,0-.92-.41,3.47,3.47,0,0,0-.81-.51c-.61-.27-1-.73-1.63-1s-1-.72-1.63-1a2.47,2.47,0,0,0-.61-.51c.07-.48-.52-.3-.61-.61-.38,0-.37-.38-.61-.51a.77.77,0,0,1-.61-.61c-1-.57-1.54-1.59-2.34-2.34a12.78,12.78,0,0,0-1-1.32,8.45,8.45,0,0,1-1-1.32,23.16,23.16,0,0,1-1.83-3c-.15-.22-.2-.55-.41-.71,0-.42-.4-.41-.41-.81-.45-.33-.44-1.12-.92-1.43-.29-1.31-1.09-2.11-1.43-3.36a1.59,1.59,0,0,1-.31-.81c-.37,0-.31-.5-.51-.71a11.26,11.26,0,0,0-.92-1.43,7.52,7.52,0,0,0-1.94-2.85c-.34,1.22-.34,2.78-.61,4.07s-.51,2.62-.71,4c-.71,2.44-.91,5.41-1.73,7.74a33.67,33.67,0,0,1-2.44,6.93A26.75,26.75,0,0,1,17.52,102a23.49,23.49,0,0,1-2.24,2.55,12,12,0,0,0-1.53,1,12.5,12.5,0,0,1-4.69.81c-.22-.1-.84-.31-.92-.2A14.26,14.26,0,0,1,5,102.78c-.74-1.43-1.44-2.91-2.24-4.28a1.13,1.13,0,0,0-.2-.81c-.06,0,.09-.14.1-.1,0-.16-.17-.28-.2-.41a6.17,6.17,0,0,1-.1-1c0-.2-.07-.41-.1-.61s-.23-.65-.31-1c-.14-.71-.17-1.5-.31-2.24S1.34,90.77,1.22,90A18.66,18.66,0,0,1,1.12,86a11.84,11.84,0,0,1,.2-2.44c0-.55.31-.51.1-1a4.25,4.25,0,0,0,.1-1.22A8.72,8.72,0,0,0,2,78.84a27.36,27.36,0,0,0,1-2.75,7.92,7.92,0,0,0,1.12-2.24c.24,0,.23-.32.41-.41.19-.56.74-.75,1-1.22A4.75,4.75,0,0,1,6.72,71.1a11.93,11.93,0,0,1,2.65-1.94c.41-.23,1.09-.2,1.43-.51,1.76-.2,3.72-.21,5.6-.51h1.53a6.69,6.69,0,0,0,1.32.2A9.44,9.44,0,0,0,21,69c.47-4.06,0-8.55-.2-12.53a19.37,19.37,0,0,0-4,1,7.61,7.61,0,0,0-2.55.31H12.32a8.68,8.68,0,0,1-1.43-.31c-.55-.1-.93.37-1.32.1-1.78-.36-2.64-1.64-3.67-2.75s-1.75-2.59-3-3.56c0-.65-.42-.87-.51-1.43a13.11,13.11,0,0,0-.61-1.43c-.53-.82-.62-2.1-1.22-2.85C.85,44.42.26,43.33.1,42.28c.13-.25-.05-.32.1-.41s0-.43.1-.61V39.83c.32.32.34-.17.31-.51A21.79,21.79,0,0,0,2,46,13.8,13.8,0,0,0,5.6,50.63,15.31,15.31,0,0,0,11.1,53h1.83a12,12,0,0,0,4-1.32c.51-.37,1.14-.62,1.63-1A4.23,4.23,0,0,0,20,49.41c-.5-4-1.32-7.84-2-11.31-.53-1.71-.7-3.78-1.22-5.5.15-.36-.18-.74-.2-1.22s-.19-1-.2-1.53a24.53,24.53,0,0,0-.41-3.06c0-1.66-.21-3.26-.31-4.89s0-3,0-4.58c0-1-.14-1.89-.1-2.85s.18-1.83.31-2.75S16,10,16.19,9.17c.09-.41.22-.79.31-1.22a9.66,9.66,0,0,0,.2-1.32,11.23,11.23,0,0,0,.81-2.24c.36-.69.76-1.34,1.12-2,.5-.11.68-.55,1-.81.29,0,.67.06.81-.1s.39.07.61-.2.08.33.41.2c0,.27.57-.1.41.31.29.29.74-.21.92.2a3.57,3.57,0,0,1,1.32,1c.46.32.78.78,1.22,1.12A26.73,26.73,0,0,1,28,8.77c.72,1.76,1.4,3.56,2.14,5.3.38.84.51,1.93.92,2.75a28.91,28.91,0,0,1,.61,3.06c.27.95.32,2.12.51,3.16.14,1.27,0,2.27.2,3.36A73.5,73.5,0,0,1,31.88,34c-.34,1.09-.39,2.46-.71,3.56-.09,1.34-.66,2.2-.81,3.46a54.49,54.49,0,0,1-2.24,6.31c-.57.85-.89,2-1.53,2.75A27,27,0,0,1,25,52.77a113.19,113.19,0,0,1,.51,13.85c-.07,1.55-.22,3.14-.31,4.58.21.57.86.7,1.12,1.22s.76.8,1.12,1.22.7.86,1,1.32.78.85.92,1.53a28.75,28.75,0,0,1,3.56,6,41.27,41.27,0,0,0,3.67,5.91,28.85,28.85,0,0,0,2,2.75c.4.38.68.88,1.12,1.22a4.61,4.61,0,0,1,1.12,1.32c.39,0,.52.29.71.51s.47.34.71.51a12.83,12.83,0,0,0,1.43,1.12,15.18,15.18,0,0,0,3.06,1.94,28.5,28.5,0,0,0,7.33,2.65,11.1,11.1,0,0,1,1.94-.1c1.14-.18,2.07-.57,3.16-.81a7.22,7.22,0,0,1-2.24.81c-.81.24-1.8.31-2.55.61a7.84,7.84,0,0,0,1.73.2,16.94,16.94,0,0,0,5.7-2ZM22.2,5.3a44.52,44.52,0,0,0-1.63,9.37c-.15,3.7.16,6.93.31,10.39.44,3.23.7,6.63,1.32,9.68s1.26,6.14,1.63,9.47c.45,0,.27-.55.61-.61,0-.47.32-.57.41-.92.21-.64.48-1.22.71-1.83.47-1.26.72-2.74,1.12-4.07.17-1.57.44-3,.61-4.58.12-1.36.1-3.14.2-4.79A11.52,11.52,0,0,1,27.6,25a6.51,6.51,0,0,1-.2-2.14,28.16,28.16,0,0,0-.61-4.58A28.83,28.83,0,0,0,26,14.06c-.28-1.45-.74-2.72-1-4.18-.49-.7-.66-1.72-1.12-2.44-.21-1-.89-1.49-1.22-2.34-.13,0-.14-.13-.31-.1C22.3,5.13,22.18,5.14,22.2,5.3Zm-3,65.8c-.46-.43-1.34-.43-2-.61H15.79a24.1,24.1,0,0,0-5,1.53,11.56,11.56,0,0,0-2,2c-.54.82-1,1.69-1.53,2.55-1.36,4.22-1.62,10-1.32,15.58a26.11,26.11,0,0,0,1.43,7.13c.81,2,1.56,4.14,3.77,4.79,2.6-.86,3.75-3.17,4.89-5.5a37.18,37.18,0,0,0,2.65-7.84,73.59,73.59,0,0,0,1.53-9c.1-3.4.53-6.47.71-9.78A4.17,4.17,0,0,0,19.25,71.1Z"/><path class="cls-1" d="M51,34.84c2.36-1,4.38-2.41,7.54-2.65.77,0,1.33.23,2,.31a6.54,6.54,0,0,1,3.46,4.38c0,.29-.06.67.1.81-.05,1.79.09,3.66,0,4.69-.08,1.58-.27,3.14-.31,4.58-.25,1.49-.56,2.9-.71,4.48.68-1.36,1.16-2.91,1.83-4.28a14.42,14.42,0,0,1,1-2c.3-.68.82-1.15,1.12-1.83.62-.5,1.12-1.12,1.73-1.63.35-.23.7-.46,1-.71a1.12,1.12,0,0,1,1-.41c.46-.08-.16.28.31.2.14,0,.2.52.31.2.39-.15,0,.46.41.31s.2.2.41.2a27.59,27.59,0,0,1,1.32,2.65,130.8,130.8,0,0,1,.71,13.55c-.15.39.28.2.2.51s-.12.6.1.61c-.06.53.18.77.1,1.32.11.81.28,1.55.41,2.34a21.11,21.11,0,0,0,1.32,4.18,14.35,14.35,0,0,0,4.07,4.48c.35.14,1.05-.14,1.63-.1.34.44-.43.47-.51.81-.24.24-.47.48-.71.71a8.26,8.26,0,0,0-1.63.41,8.46,8.46,0,0,1-2.65-.71c-.41,0-.31-.43-.61-.51-.22.34-.3-.31-.61-.2a9.58,9.58,0,0,0-1.53-1.43c-.11-.53-.6-.69-.71-1.22s-.43-.86-.71-1.22c-.32-1-.74-1.84-1-2.85a44.19,44.19,0,0,1-1.32-6.42A65.16,65.16,0,0,1,69.77,51c0-2.53.39-4.77.61-7.13-.27-.26-.34.26-.61.31s-.24.51-.51.61a8.23,8.23,0,0,1-.71,1.43A12.93,12.93,0,0,0,67,49.1a41.75,41.75,0,0,0-2.34,6.42,8,8,0,0,0-.51,1.73c-.35.36-.21,1.22-.61,1.53q-.35,1.84-.81,3.56c-.11,1.49-.42,2.16-.51,3.67a15.53,15.53,0,0,0-.2,2c.1.42-.25.65,0,.92-.38.21.06.19,0,.61-.26.81,0,2.12-1.12,2.34-.68.28-1-.58-1.83-.51A13.65,13.65,0,0,0,57.85,70a2.31,2.31,0,0,0-.61-1.12A31.74,31.74,0,0,1,56.43,65c0-1.55-.06-2.7,0-3.87.11-1,.09-2.41.2-3.56.34-2.63.6-4.72,1.12-7.13s.92-4.71,1.53-6.93c.41-2.41,1.4-4.24,1.43-7a8,8,0,0,0-.51-1.53c-.19-.42-.72-.51-.92-.92-.64,0-1-.26-1.63-.2a16.76,16.76,0,0,0-3.16,1.32A12.12,12.12,0,0,0,51.94,37a21.91,21.91,0,0,1,1.53,8.35,58.74,58.74,0,0,1-.2,8.56c-.47,1.91-.86,3.89-1.43,5.7a16.81,16.81,0,0,1-2,5.09c-.06.5-.73.65-.51,1.12-.4.18-.42.73-.71,1s-.47.75-.81,1a1.8,1.8,0,0,1-.81.92c-.17.44-.53.69-.71,1.12-.3.28-.68.47-.81.92-.66.5-1,1.33-1.73,1.73a8.65,8.65,0,0,1-2.44-.2,16.37,16.37,0,0,1-2.14-1.22c-.07-.27-.31-.37-.51-.51-.41-.6-.93-1.11-1.32-1.73a2.9,2.9,0,0,0-.61-.92c-.24-.23-.2-.75-.51-.92-.28-1.25-.89-2.16-1.12-3.46s-.44-2.61-.81-3.77c-.14-3.89-.22-8.58.61-12.22s1.58-7.32,3.36-10l-.71-1.43a17.66,17.66,0,0,1-.1-2.65,13.66,13.66,0,0,1,1.53-3.16,5.3,5.3,0,0,1,1.22-.92c.31-.4.91-.52,1.22-.92.69-.16,1.36-.34,2-.51a4.26,4.26,0,0,1,1.22.1,13.31,13.31,0,0,1,1.73.81,7.9,7.9,0,0,1,1.73,1.53c.17.19.31.46.51.71s.54.64.81,1C49.92,32.91,50.48,34,51,34.84Zm-6.62-4.38c-2-.22-2.81.72-3.87,1.43a17.69,17.69,0,0,0-1.22,1.73,7,7,0,0,0-.2,2c.53,0,.55-.6.81-.92a5.41,5.41,0,0,0,.81-1,16.71,16.71,0,0,1,1.73-1.83c.15,0,.17-.17.31-.2A16.61,16.61,0,0,1,44.41,31c.4-.12.77.31,1,0C45.09,30.8,44.77,30.61,44.41,30.46Zm2.14,2.14a2.32,2.32,0,0,0-.2.92,15.73,15.73,0,0,0-3,4.18c2.21.2,4.06-.82,5.6-1.63a13.13,13.13,0,0,0-2.65-4.28C46.32,32.15,46.53,32.28,46.55,32.6Zm2.75,5.7c-.58.2-1,.58-1.53.81-1.23.43-2.57.75-3.87,1.12a8.37,8.37,0,0,0-1.94.1,30.88,30.88,0,0,0-1.73,5.5,57.94,57.94,0,0,0-1.32,5.91c-.22,2.19-.27,4.55-.31,6.93a57.34,57.34,0,0,0,.81,6.42c.32.26.21.94.51,1.22.07.54.4.82.51,1.32.59.59.81,1.56,1.73,1.83,2.58-.88,4-3,5.3-5.09a24.6,24.6,0,0,0,2.85-7.54,42.91,42.91,0,0,0,.81-9.37,30.07,30.07,0,0,0-1.43-9.06c0-.06,0-.12-.1-.1C49.56,38.13,49.47,38.32,49.3,38.3Z"/><path class="cls-1" d="M126.5,43.91c.64-.25.86-.91,1.32-1.32s.9-.86,1.43-1.22a10.17,10.17,0,0,1,3.67-1.53,8.49,8.49,0,0,1,2.85.31A9.68,9.68,0,0,1,138.42,43a.83.83,0,0,0,.2.61c.06.21-.13.67.1.71-.12.42,0,1.38-.2,2a48.81,48.81,0,0,1-.2,7.23,14.66,14.66,0,0,0-.41,3.16A13.1,13.1,0,0,0,137.6,60c.34-.07.18-.64.41-.81s.18-.57.31-.81c.14-.64.44-1.13.61-1.73a25.85,25.85,0,0,1,1.43-3.16,12.76,12.76,0,0,1,1.83-2.75,10.44,10.44,0,0,1,2.55-2c.08.4.85.32.92.2.35.42.76.81,1.12,1.22s.65.85,1,1.22a12.24,12.24,0,0,0,.51,1.94c.35,1.28.69,2.52,1.12,3.77a30,30,0,0,0,1.83,4.28,20.15,20.15,0,0,0,2.55,3.56,18.08,18.08,0,0,0,14.06,5.4,12.71,12.71,0,0,0,8.56-3.87,22.47,22.47,0,0,0,3.06-3.16c.92-1.15,1.91-2.23,2.75-3.46.27.11-.14.39-.2.51a1,1,0,0,1-.31.61c-.16.42-.53.62-.71,1-.64.51-.92,1.39-1.53,1.94-.42.73-1,1.31-1.43,2-.28.29-.45.7-.81.92,0,.3-.23.38-.41.51s-.12.42-.41.41c-.15.43-.55.61-.81.92-.11.46-.54.62-.81.92a8.12,8.12,0,0,1-1.83,1.63c-.68.47-1.51.8-2.24,1.22-.59,0-.77.39-1.32.41a4.49,4.49,0,0,0-1.32.41,31.91,31.91,0,0,1-6,.2,17.49,17.49,0,0,1-3-.81,6.61,6.61,0,0,0-1.43-.1c-.58-.31-1.31-.45-1.94-.71A16.56,16.56,0,0,1,153.9,71a25,25,0,0,1-3.16-2,15.37,15.37,0,0,1-2.14-2.55c-.84-.69-1.17-1.89-1.83-2.75a35.06,35.06,0,0,1-1.63-5,5.9,5.9,0,0,1-.61-2.65c-.3-.79-.23-1.95-.51-2.75-.45.06-.4.61-.61.92s-.27.75-.61.92a8.49,8.49,0,0,1-.92,2.14,11.86,11.86,0,0,1-.81,2.24,8.34,8.34,0,0,1-.81,2.24c-.3,1.74-1,3-1.43,4.69-.28.73-.43,1.61-.71,2.34-.41.25-.07.73-.41.92a1.42,1.42,0,0,1-.81.71c-.88,0-1.09-.74-1.43-1.32a2.84,2.84,0,0,1-1-.51c-.14-.3-.47-.41-.61-.71s-.25-.64-.61-.71c.2-.36-.2-.85-.31-1.22s-.17-1-.41-1.32c-.12-1-.3-1.94-.41-3a34.72,34.72,0,0,1,1-9.68c.19-1.64.82-2.85,1-4.48.35-1.23.93-3.22.31-4.48a2.9,2.9,0,0,0-1.94-.71c-.31-.07-.3.18-.61.1a3.12,3.12,0,0,0-1.22.71,7.44,7.44,0,0,1-1.12.71,14.43,14.43,0,0,0-1.94,2.75A30.6,30.6,0,0,1,128.95,57a46.69,46.69,0,0,1-.61,5.3c-.42,1.55-1,2.91-1.53,4.38-.54.55-.78,1.39-1.32,1.94,0,.26-.19.36-.31.51.08.35-.41.13-.31.51-.17.34-.47.55-.61.92a25.86,25.86,0,0,1-3,3.36,16.81,16.81,0,0,1-3.56.81,9,9,0,0,1-3.56-.61c-.24-.13-.3-.45-.71-.41a7.88,7.88,0,0,0-1-1c-.34-.34-.52-.83-.92-1.12-.55-.78-.88-1.76-1.43-2.55-.3-1.26-.81-2.31-1-3.67s-.37-2.69-.61-4c.2-1.35.12-2.18.2-3.46s.29-2.09.51-3.36a14.93,14.93,0,0,1,.61-3.46,10.79,10.79,0,0,1,.81-3.06,17.5,17.5,0,0,1,1-3.06,24.91,24.91,0,0,1,1.43-2.65,5.8,5.8,0,0,1,.81-1.22,3,3,0,0,1,.92-1.12c0-.36.48-.2.41-.61.36,0,.34-.34.61-.41a2.49,2.49,0,0,1,1.12-.92c.21,0,.27-.07.41-.1a12.94,12.94,0,0,0,2.34.31,18,18,0,0,0,2.85.92,2.6,2.6,0,0,0,1,.71A25.63,25.63,0,0,1,126.5,43.91Zm-6.42-3.26c0,.13-.13.14-.1.31-.31.34-.51.78-.81,1.12a6.1,6.1,0,0,1-1,1,27.93,27.93,0,0,0-1.94,5c.23.83.89,1.22,1.43,1.73a1.35,1.35,0,0,1,.71.2,8.27,8.27,0,0,0,4.07-.92A16.73,16.73,0,0,0,125,46.55C124,43.89,122.91,41.42,120.08,40.65Zm-5.6,12.94c-.08.42-.23.89-.31,1.32,0,.12-.1.24-.1.31s.11.23.1.31-.18.42-.2.61a51,51,0,0,0-.51,5.81c0,1.48.3,2.9.41,4.38.39,1,.59,2.13,1,3.06a5.54,5.54,0,0,0,1.63,2.55,8,8,0,0,0,2.24.31,10.1,10.1,0,0,0,2.14-1.32,17.33,17.33,0,0,0,4.79-9.27c.69-4,.94-8.9-.1-12.53-.1,0-.12-.08-.2-.1a.28.28,0,0,0-.2.31c-.53.18-.78.65-1.22.92a12.23,12.23,0,0,1-1.32.92c-.1,0-.12.08-.2.1a17.73,17.73,0,0,1-2.55.81H118c-.43-.24-1.09-.26-1.43-.61-.58-.1-.88-.48-1.53-.51A12.86,12.86,0,0,0,114.48,53.58Z"/><path class="cls-1" d="M.2,39.32c0-.12.1-.06.1,0S.2,39.38.2,39.32Z"/><path class="cls-1" d="M.31,39.83c-.31-.12.11-.54,0,0Z"/><path class="cls-1" d="M0,41.56c.05-.16.11,0,.1.1S0,41.67,0,41.56Z"/><path class="cls-1" d="M61.93,99.11c.09-.15.15-.32.41-.31C62.25,99,62.18,99.13,61.93,99.11Z"/></g></g></svg>