<svg xmlns="http://www.w3.org/2000/svg" viewBox="0 0 237.04 151.67"><defs><style>.cls-1{fill:#fff;fill-rule:evenodd;}</style></defs><title>Asset 15</title><g id="Layer_2" data-name="Layer 2"><g id="Layer_1-2" data-name="Layer 1"><path class="cls-1" d="M82.11,50.93c-.43-.16-.36.42-.1.41v.31c-1.06,2-1.58,4.6-2.55,6.72a24.62,24.62,0,0,1-1.32,3.26c-.31,1.25-.84,2.28-1.12,3.56-1.61,4.63-2.82,9.7-4.28,14-.7,2.39-1.48,4.7-2.24,7s-1.26,4.92-1.93,7.33c-1,5.19-2.47,10-3.26,15.38.18.21.56-.25.92-.2a2.32,2.32,0,0,0,1.12-.31c.48,0,.7-.18,1.22-.1a13.65,13.65,0,0,1,2.44-.61,7,7,0,0,1,2.65-.51c-.05.25-.25.36-.41.51.14.13.38.13.41-.1.39.15,0-.46.41-.31-.19.18,0,.39.2.2s.1.33.41.31,0-.5.51-.31c-.06.09-.24.38.1.31-.09-.35.16-.35.31-.2s0,.35-.31.31a1.67,1.67,0,0,1-.71.2,2.71,2.71,0,0,0-1.32.41,20,20,0,0,0-3.57.71c.67.23,1.51-.24,2.34-.41a15.42,15.42,0,0,1,2.75-.41c1.09-.46,2.95-.15,3.87-.51,1.92-.11,3.23.08,4.79-.1.69,0,1.05.19,1.53-.1,2.07.23,3.55,0,5.7.2.39-.15.2.28.51.2.09-.28.32.14.61,0s.42.3.51,0c.1.17.32.22.51.31H93c.06.15.12,0,0,0,.16-.28.5.1.51.31.44-.07.57.17,1,.1a.28.28,0,0,1,.2.31c.2-.17.13,0,.41,0s.35,0,.31.2c.23,0,.38,0,.41.2.31-.28.41.27.92.1a4.78,4.78,0,0,0,1.32.71,3.62,3.62,0,0,0,1.32.71,1.74,1.74,0,0,0,.31.41c0,.21.27.2.41.31.47-.09.11.16.31.2l.92.61c0,.27.14.33.41.31,0,.32.26.29.41.41.07.44.57.45.61.92-.09,0-.1,0-.1.1-.67-.52-1.16-1.21-1.83-1.73s-1.37-1-2-1.53a14.7,14.7,0,0,0-2.44-1.12,11,11,0,0,0-2.55-.92c-3.29-1.43-8.08-.93-12.83-1-2,.1-3.76.38-5.7.51a33.42,33.42,0,0,0-5.4,1.32,13.27,13.27,0,0,0-2.65.81,12.65,12.65,0,0,0-2.44,1,77.94,77.94,0,0,0-.81,12c-.16.58,0,1.48-.2,2a2.92,2.92,0,0,1,0,1.22c.32.07.13.27.1.51v.82a52.31,52.31,0,0,0,.61,5.6,22.08,22.08,0,0,0,.51,2.65,8.85,8.85,0,0,0,.71,2.14A20.44,20.44,0,0,0,67.55,143c.45.61.78,1.33,1.22,1.94a4.94,4.94,0,0,1,.61.92,1.38,1.38,0,0,1,.61.92c.56.29,1,.73,1.53,1a4,4,0,0,1,.51.71c.14-.2.63.11.51.51A16.32,16.32,0,0,0,75,150a5.06,5.06,0,0,0,1.22.51c.36.19,1,.07,1.22.41.29,0,.2-.34.61-.2.17.14.65,0,.61.31a8.36,8.36,0,0,1,2.65,0,17.49,17.49,0,0,0,6.21-1.32,15,15,0,0,0,2.65-1.12c.9-.32,1.4-1,2.44-1.22.23-.42.77-.52,1-.92a3.4,3.4,0,0,0,1-.81c.87-.35,1.35-1.09,2.14-1.53,1.3-1.18,2.45-2.51,3.67-3.77a4.76,4.76,0,0,1,1.63-2.24c.33-1.44,1.48-2,1.83-3.46a8.91,8.91,0,0,1,.71-.71,5.54,5.54,0,0,1,.92-2.34c.11-1,.61-1.56.61-2.65.22-.12.29-.39.41-.61,0-.21.07-.27.1-.41-.22,0-.19-.15-.2-.31.23-.68,0-1.87.31-2.44a23.83,23.83,0,0,0-1.22-6c-.42-.84-.8-1.71-1.22-2.55l-1.53-2.14c.15-.06,0-.12,0,0s-.08-.12-.1-.2.1,0,.1-.1a.77.77,0,0,1,.51.61c.27-.07.2.21.31.31s.3.07.1.31a3.71,3.71,0,0,1,.92,1.43c.24.13.21.54.41.71s.27.55.51.71a5.71,5.71,0,0,0,.71,1.73,7.68,7.68,0,0,0,.71,2.24c.11,1,.28,2,.41,3,0,1.32,0,1.67,0,3.06-.07.75-.29,1.34-.31,2.14a29.15,29.15,0,0,1-1.94,4.58,19.72,19.72,0,0,0-1.12,2.14c-.49.63-.94,1.3-1.43,1.93-.23.37-.41.18-.71.51s-.41.5-.41.81c-.47,0-.37.65-.81.71-.34.68-1,1-1.43,1.63-.68.31-.91,1.06-1.53,1.43-.44.57-1.15.88-1.63,1.43-1.18.82-2.29,1.72-3.57,2.44-.52.47-1.3.67-1.83,1.12-.31.2-.83.19-1,.51a1.94,1.94,0,0,0-1,.51,3.94,3.94,0,0,0-1.22.31c-.24.37-1,.24-1.32.51a7.39,7.39,0,0,1-3,.41c-.16,0,0,.15.2.1a18.76,18.76,0,0,1-2.34.2c-.45,0,.24-.14-.2-.31a15.39,15.39,0,0,1-2,0,18.44,18.44,0,0,0-2.44-.41c-.39-.15-.2.28-.51.2,0-.17-.63-.17-.61,0-.74-.49-1.42-.42-2.24-.82-.9-.19-1.48-.69-2.34-.92-1.09-.85-2.23-1.64-3.26-2.55-.14-.34-.46-.49-.71-.71-.07-.44-.53-.49-.61-.92-.49-.5-.79-1.18-1.32-1.63a20.84,20.84,0,0,0-1-1.94c-.09-.38-.42-.54-.51-.92s-.16-.32-.31-.41c.25-.42-.22-.19-.2-.61h.1c.06.15.12,0,0,0s0-.18-.1-.2c0-.42-.27.1-.31-.31-.23-.46,0-.72-.41-1-.06-.51-.37-.78-.41-1.32a3.61,3.61,0,0,1-.41-1.22,4.44,4.44,0,0,1-.31-1.43,50.8,50.8,0,0,1-.92-5.7,26.45,26.45,0,0,0-.2-3.67,83,83,0,0,1,.1-8.45,6.91,6.91,0,0,0,.2-1.94c-1.7.37-2.77,1.37-4.28,1.94-1.21.86-2.72,1.42-3.87,2.34a28.06,28.06,0,0,0-3.67,2.55,12.25,12.25,0,0,0-1.63,1.43c-.24-.08-.28.2-.41.31s-.17,0-.2,0,0,.18,0,.2-.23,0-.31.1c-.27.23-.42.73-.92.71-.11.5-.5.73-.71,1.12a6,6,0,0,1-.71.31,5.91,5.91,0,0,0-.92,1.22c-.3.41-.81.62-.81,1.32-.55,0-.54.61-1,.71-.07.3-.12.62-.41.71-.06,1.06-.66,1.58-.82,2.55-.44.68-.39,1.85-.71,2.65-.07.31.1.37.1.61a14.9,14.9,0,0,0-.51,3.26c-.14,0-.12-.22-.2-.31.15-.06,0-.12,0,0-.25-.14,0-2.1,0-1,.25-.41,0-.91,0-1.22a11.13,11.13,0,0,0,.41-3.36,5.43,5.43,0,0,1,.71-2.14c-.1-.47.4-.89.1-1.22.22-.29.54-.47.61-.92s.58-.43.61-.92c0-.24-.28.11-.31.2-.26-.27.31-.57.31-.92s.41.05.51-.2c.22-.83.83-1.27,1.12-2,.25-.29.39-.69.71-.92.11-.44.53-.56.61-1,.06.15.12,0,0,0,.23,0,.1-.45.41-.41a2.09,2.09,0,0,1,.31-.61c.12,0,.24,0,.2-.2.32.1.4-.54.61-.2-.15.06,0,.12,0,0,.31,0,.08-.25.1-.31s.21-.19.31-.31c.36.16.06-.35.31-.31s.07-.34.31-.31c.32-.53.88-.81,1.22-1.32.38,0,.28-.54.71-.51a1.47,1.47,0,0,1,.71-.51,1.47,1.47,0,0,1,.71-.51,8.12,8.12,0,0,1,.71-.61c.25-.19.49.11.81-.1s.53-.56.92-.71.81-.28,1-.61c.87-.25,1.38-.86,2.24-1.12a4,4,0,0,1,1.43-.92,3.74,3.74,0,0,1,1.43-.92c.34-.44,1-.56,1.43-.92a7.43,7.43,0,0,0,1.43-.92c.17-.27.23-.39,0-.61.06-.28.25-.43.31-.71a4.89,4.89,0,0,1,.51-1.63c.25-.24-.15-.19-.1-.51s.22-.19.1-.51c.34-.23,0-1.12.41-1.32-.35-.25,0-.64-.2-.92a2.09,2.09,0,0,1,.31-.61c-.26-.11.19-.34.2-.51a4.68,4.68,0,0,1,0-1.22c0-.34.3-.45.2-.92,0-.11.54-.33.1-.31.12-.18.32-.3.41-.51a4.48,4.48,0,0,1,.41-1.32c-.1-.45-.24-.78-.31-1q.7-2.51,1.22-5.19c.57-1.57.78-3.5,1.53-4.89-.19-.29.14-.76.31-1a2.13,2.13,0,0,1,.41-1.22c.19-.9.57-1.61.71-2.55.37-.69.48-1.62.81-2.34A10.88,10.88,0,0,1,68.36,79c.33-.21.1-1,.51-1.12,0-1.37.48-1.69.61-3a21.51,21.51,0,0,0,1.83-5.09c.3-.28.14-1,.41-1.32,0-.31.22-.4.31-.61-.19,0,0-.52.1-.61a14.85,14.85,0,0,1,1-2.65,33.39,33.39,0,0,1,.92-3.87,25.26,25.26,0,0,0,1.32-3.46c.39-.39.47-1.09.71-1.63a7.61,7.61,0,0,0,.61-1.83,6.63,6.63,0,0,0,.71-1.63,14.13,14.13,0,0,0,.71-1.73c.2-.07.27-.27.31-.51.35,0,.31-.31.51-.41.62-1.59,1.34-3.07,1.94-4.69a23.26,23.26,0,0,0,.92-2.34c.46-.66.6-1.64,1-2.34.47-1.74,1.15-3.27,1.73-4.89s1-3.46,1.63-5.09a19.59,19.59,0,0,0,.71-2.55,18,18,0,0,0,.81-2.55c.34-.2.24-.85.51-1.12a6.67,6.67,0,0,1,.51-1.22,14.12,14.12,0,0,1,1-2.34c.51-1.69,1.07-3.34,1.63-5a15.54,15.54,0,0,0,1-2.34c.27-.85.67-1.57.92-2.44-.07-.22-.34.19-.41.31,0,.32-.28.4-.41.61-.26.39-.53.76-.81,1.12-.44.85-1.07,1.51-1.53,2.34a12.21,12.21,0,0,0-.81,1.12c-.21.43-.68.61-.81,1.12-.69.6-1.28,1.3-1.94,1.94a1.19,1.19,0,0,1-.41.81c-.13.31-.15.73-.51.81-.07.38.17.44.1.81a7.94,7.94,0,0,0-1,1.73c-.42.5-.67,1.17-1.12,1.63-.58,1.29-1.5,2.24-1.94,3.67-.59,1.28-1.36,2.37-1.94,3.67a15.1,15.1,0,0,0-.92,1.83,9.73,9.73,0,0,0-1,1.83c0,.42-.07,0-.2,0,.1.81-.43,1-.51,1.63a3.66,3.66,0,0,0-.31.71c-.19.18-.07.67-.51.61.23.22.17.34,0,.61a6,6,0,0,1-.31.71c-.06.28-.25.43-.31.71-.21.17-.14.61-.41.71-.33,1.1-.95,1.91-1.32,3a41.57,41.57,0,0,0-2.55,5.91,16.36,16.36,0,0,0-1.12,3.06,16.72,16.72,0,0,0-1.22,3.06c-.73,2.09-1.56,4.08-2.34,6.11-1.62,4-3.08,8.19-4.58,12.32s-3.07,8.26-4.69,12.32c-.22.22,0,.22.31.2A1.24,1.24,0,0,0,57,88.81c-.17,0-.06-.28-.2-.31,0,.33-.29.39-.2.81-.17.2-.11.64-.2.92-.46.66-.75,1.49-1.22,2.14.13.4-.3.25-.31.51.19.18,0,.35-.31.31-.07.5-.46.69-.51,1.22a4.45,4.45,0,0,0-.92.41c-.26.18-.26.63-.61.71.33-.76-.48-.41-.92-.61-.1-.55-.28-1-.41-1.53a1.62,1.62,0,0,1,.2-1.12c-.13-.38-.09-.93-.2-1.32.07-.38-.13-1,.1-1.22a5.54,5.54,0,0,1-.2-1c.08-.94,0-2,0-3.16a17.94,17.94,0,0,1,.61-3.87c-.18-.81.4-2,.2-2.75a22.92,22.92,0,0,0,.51-3,50.2,50.2,0,0,0,1-5.81c.35-1.95.56-4,.71-5.7.26-2,.63-3.92.81-6s.7-3.85.92-5.91a8.68,8.68,0,0,0,.2-1.43c0-.24.16-.38.1-.71s.36-.36.1-.61c.08-1.08.25-2.06.41-3.06.46-3.66,1.16-7.93,1.83-11.71a1,1,0,0,1,.41-.71,1.91,1.91,0,0,1-.1-.81c.49-2.47,1.26-4.64,1.94-6.93-.32-.28-.5.45-.71.61s-.25.84-.61,1a4.94,4.94,0,0,1-.61.92c-.37.17-.36.73-.81.81,0,.86-.66,1.1-.82,1.83-.48.4-.69,1.07-1.22,1.43v.71c-.29.09-.35.4-.51.61a1.61,1.61,0,0,0-.41.71,4.73,4.73,0,0,0-.92,1.43A23.13,23.13,0,0,0,52.88,40a3.75,3.75,0,0,0-.71,1.53c-.52.3-.58,1.05-1,1.43-.12.7-.56,1.07-.71,1.73A23.6,23.6,0,0,0,49,48.28a36.29,36.29,0,0,0-1.43,3.46c-.52,1.14-1,2.3-1.53,3.46-.05,1.62.63,2.49.61,4.07.13.24.13.62.31.81.11,1.18.27,2.31.41,3.46A28.76,28.76,0,0,0,47.69,67c0,2.47-.17,4.57,0,7.44a48.13,48.13,0,0,1-1.83,10.08c-.55,1.42-1,3-1.53,4.38s-1.21,2.79-1.73,4.28c-1,1.94-2.06,3.9-3.06,5.91s-1.92,4-3,6a16.65,16.65,0,0,1-1.12,1.83c0,.47-.42.6-.51,1a1.55,1.55,0,0,0-.51,1c-.55.12-.4,1-1,1a8.24,8.24,0,0,1-.81,1.22c-.35.33-.52.84-.92,1.12,0,.32-.28.4-.41.61s-.23.51-.61.51c-.15.34,0,.64-.1.81a17.56,17.56,0,0,1-1.63,2c-.21.4-.63.59-.92.92a1.87,1.87,0,0,1-.92,1c0,.51-.45.64-.51,1.12-1.12.65-1.67,1.86-2.65,2.65a11.78,11.78,0,0,1-3.26,2.14c-.15.18-.09.23.2.2-.18.19-.67.07-.61.51-.82.1-1.24.6-2,.71a9.86,9.86,0,0,0-1.94.92c-1,.08-1.66.58-2.65.71a15,15,0,0,1-2.75.61H9.08c-.7-.21-2-.17-2.44-.31.14-.23.71,0,1-.1.46.09.51-.24.81-.31-.2-.29-.64,0-.92,0-.16-.37-.15.24-.41.1A21,21,0,0,0,4,126.7c1.12-.1,2.85.07,4.28,0a18,18,0,0,0,2.34-.51c.83-.12,1.36-.54,2.24-.61.15-.33.7-.26.92-.51.42-.05.56-.39,1-.41.55-.43,1.33-.64,1.83-1.12A17.47,17.47,0,0,0,20,121.2a7,7,0,0,0,1.53-1.32c.33-.14.5-.45.82-.61,0-.26.16-.32.31-.41s.12-.42.41-.41c0-.43.48-.47.61-.81.29-.19.37-.58.71-.71a9.36,9.36,0,0,0,1.22-1.63A25.87,25.87,0,0,0,28.13,112c.85-1.09,1.5-2.38,2.34-3.46.24-.71.83-1.07,1-1.83a7.26,7.26,0,0,0,1.12-1.83c.42-.53.64-1.26,1-1.83a11.79,11.79,0,0,0,.92-1.94c.49-.46.58-1.32,1-1.83a21.65,21.65,0,0,1,.92-2c.54-1.4,1.17-2.7,1.73-4.07a25,25,0,0,0,1.73-4.07c.34-.14.18-.77.51-.92,0-.45.35-.6.31-1.12a16,16,0,0,0,.81-2c.41-1.53.91-3,1.32-4.48.25-1.69.78-3.09.92-4.89a43.18,43.18,0,0,0,.61-5,8.53,8.53,0,0,1,.1-2,11,11,0,0,1-.1-2.34c-.21-1.45-.09-3.23-.71-4.28-.31.1-.22.59-.41.81-.05.39-.32.56-.31,1a6.85,6.85,0,0,0-.71,1.94c-.51,1.25-1,2.51-1.43,3.87A64.05,64.05,0,0,1,37.7,77c-2.07,4.93-4.32,9.67-6.72,14.26a1.15,1.15,0,0,0-.41.81,2.7,2.7,0,0,0-.51.81c-.37.51-.67,1.1-1,1.63a25.33,25.33,0,0,1-2.24,3.06,29.23,29.23,0,0,1-2.14,3.06c-.87.89-1.53,2-2.44,2.85a24,24,0,0,1-2.44,2.75c-.4.49-.93.84-1.32,1.32-.61.27-.88.88-1.53,1.12a13.42,13.42,0,0,1-7.44,3.06H7.76A7.35,7.35,0,0,1,4.3,110.2a15.23,15.23,0,0,0-1.73-1.83,2.6,2.6,0,0,0-.92-1.43,27.63,27.63,0,0,1-1.53-5.3A5.29,5.29,0,0,0,0,99.92c-.07-2.35.07-4.48.2-6.62a6.47,6.47,0,0,1,.41-1.53,16,16,0,0,1,.61-3.36,16.39,16.39,0,0,1,.92-3.16,13.11,13.11,0,0,1,.92-3.46c0-.66.37-1.06.41-1.73A7.11,7.11,0,0,1,4,78.32c.3-1.16.79-2.13,1.12-3.26s1-1.95,1.12-3.26c.23-.14.33-.42.51-.61.32-2,1.4-3.22,1.94-5a7.65,7.65,0,0,0,1.43-2.34c.43-.21.4-.89.82-1.12.1-.54.61-.68.71-1.22,1.24-1.34,2.1-3.06,3.36-4.38.08-.53.62-.6.81-1a3.83,3.83,0,0,1,.92-1c0-.33.39-.22.41-.51a2.46,2.46,0,0,1,.51-.51c.24-.4.67-.62.92-1,1.37-1.21,2.7-2.46,4.18-3.57.08,0,.2,0,.2-.1a17,17,0,0,0,3.36-1.32c1-.6,1.88-1.31,2.85-1.93a23,23,0,0,0,2.44-.31,43,43,0,0,1,4.38.31c.54,0,.17.41.51.51a8.35,8.35,0,0,1,1.83.92c.66.26,1.05.78,1.73,1,0,.4.47.42.71.61.1.38.65.3.71.71.66.26.91.93,1.53,1.22.31,0,.21-.33.31-.51a2.3,2.3,0,0,0,.2-.61,5.32,5.32,0,0,0,.41-1.22c.33-.76.46-1.71.81-2.44.51-1.67,1.11-3.24,1.73-4.79S47.72,38.49,48.4,37s1.31-3,2-4.48a42.38,42.38,0,0,1,2.44-4.07,41.34,41.34,0,0,1,2.75-3.77c1-1.15,1.9-2.45,3-3.56A8,8,0,0,0,60,19.25a19.47,19.47,0,0,0,1.43-1.94l2.34-2.14a4.75,4.75,0,0,1,2-.61c.42-.05.59-.36,1-.41,0,.18.1.24.31.2.37,0,.09.58.61.41,0,.35-.05.73.2.81a13.35,13.35,0,0,1-1.12,3.16,13.11,13.11,0,0,1-.51,3,28.17,28.17,0,0,1-.71,2.75c-.13,1-.49,1.82-.61,2.85A11.05,11.05,0,0,1,64.19,30c-.44,1.78-1.08,3.23-1.43,5.3-.43,1.91-.73,4-1.22,5.81-.18,2.36-.57,4.52-.92,6.72a28.09,28.09,0,0,1-.41,3.46,18.42,18.42,0,0,1-.51,3.36c.07,1.19-.39,1.85-.31,3.06-.58,3.43-1,7-1.43,10.59-.52,3.3-1.09,6.75-1.63,10.29a8.22,8.22,0,0,0,1-2.24c.31-.81.65-1.59.92-2.44s.54-1.63.92-2.34a4.07,4.07,0,0,1,.41-1.22,2.3,2.3,0,0,0,.2-.61c.07-.2.35-.43,0-.51.57-.48.66-1.44,1-2.14s.58-1.59.92-2.34.62-1.49.81-2.34a2.08,2.08,0,0,0,.2-.61c.23-.67.48-1.17.71-1.73.32-.74.49-1.62.81-2.34.11-.43.37-.72.51-1.12s.58-.51.61-1a8.36,8.36,0,0,0,.92-2.34,13.46,13.46,0,0,0,.92-2.34c.59-1.55,1.21-3.06,1.73-4.69.42-.64.47-1.64,1-2.14.07-1,.65-1.52.81-2.44.48-.57.65-1.46,1.12-2,0-.53.43-.66.51-1.12a4.51,4.51,0,0,1,.61-1c.68-1.49,1.56-2.78,2.24-4.28a31.77,31.77,0,0,0,2.34-4.07q1.22-2,2.34-4.07c.72-1.42,1.46-2.82,2.24-4.18.95-1.22,1.65-2.69,2.55-4,1.57-2.71,3.55-5,5.3-7.54a1.54,1.54,0,0,0,.71-.81,2.36,2.36,0,0,0,.71-.92c.57-.51,1-1.2,1.53-1.73q1.42-1.84,3-3.56c.57-.31.86-.9,1.53-1.12A4.07,4.07,0,0,1,98,.61c.2-.2.3-.52.61-.61.22.22.35.53.81.51,0,.32.31.23.2.61.13.18.32.3.41.51a10.15,10.15,0,0,0-.41,1.53c-.48.17-.35.94-.71,1.22,0,.67-.43.86-.51,1.43a10,10,0,0,0-.51,1.53c-.3.34-.36.93-.61,1.32a1.13,1.13,0,0,0-.2.81c-.1.23-.35.33-.31.71A18.81,18.81,0,0,0,95.66,13c-.83,1.82-1.5,3.8-2.24,5.7s-1.55,3.75-2.14,5.81c-.75,1.87-1.38,3.84-2,5.81s-1.44,3.85-1.94,6c-.73,1.92-1.34,4-2.14,5.81-.28,1-.67,2-1,3-.08.57-.4.89-.51,1.43S83.34,47.61,83,48a.48.48,0,0,0,.1.31c0,.14-.3.12-.1.2,0,.29-.19.42-.2.71-.07.54-.39.83-.41,1.43Q82,50.53,82.11,50.93ZM40.66,52.76c-.28-.23-.45-.57-.71-.81s-.21-.33-.51-.31-.12-.42-.41-.41A10.67,10.67,0,0,0,37.09,50a15.32,15.32,0,0,0-2.34-.92,3.87,3.87,0,0,1-1.32-.1c-.13,0-.14.13-.31.1a9,9,0,0,0-3.87,1c-.78,0-1.17.46-1.73.71s-1.05.58-1.53.92a32.15,32.15,0,0,0-5.3,4.48c-1,1.45-2.16,2.66-3.06,4.18a19.81,19.81,0,0,0-1.43,2.14,16.68,16.68,0,0,0-1.32,2.34c-1.83,3-3.08,6.56-4.89,9.57-.65,1.76-1.59,3.23-2.34,4.89s-1.48,3.34-2,5.19A43.76,43.76,0,0,0,2.87,96.35a34.2,34.2,0,0,0,.2,5.09,16.79,16.79,0,0,0,1.32,4.07,6.65,6.65,0,0,1,.71,1c.18.09.17.37.41.41s.08.53.41.51c.13.45.51.64.81.92s.54.69,1.12.71a8.39,8.39,0,0,0,3.77-.61,16,16,0,0,0,3-1.63,59.22,59.22,0,0,0,9-10.9,85,85,0,0,0,7.13-12.73c2.17-4.45,3.92-9.32,5.91-14,.88-2.42,1.82-4.76,2.65-7.23s1.86-4.79,2.65-7.33A8.28,8.28,0,0,0,40.66,52.76Zm41.15-1.43s-.15,0-.1.1S81.86,51.39,81.81,51.33Zm-2.14,5.4s-.15,0-.1.1S79.72,56.78,79.67,56.73ZM73,107.66c-.12,0-.29,0-.31.1S73,107.78,73,107.66Zm-.51.1c-.08,0-.2,0-.2.1S72.54,107.86,72.54,107.76Zm-3.26.71a5.09,5.09,0,0,0,1.22-.2c.33,0,.78.1.71-.31A4,4,0,0,0,69.28,108.47Zm2.85-.51s-.15,0-.1.1S72.18,108,72.13,108Zm-3.67.71c-.49-.28-.25.33,0,0Zm-.61.1c.06.15.12,0,0,0C67.79,108.63,67.73,108.79,67.85,108.78Zm-.61.2c.18,0,.51.1.41-.2C67.42,108.75,67.27,108.8,67.24,109Zm-.41.1c-.08,0-.2,0-.2.1S66.83,109.18,66.83,109.08Zm-1.53.61c.25-.09.59-.09.61-.41C65.6,109.31,65.31,109.36,65.31,109.69Zm3.67-.2a.28.28,0,0,0,.31-.2A.28.28,0,0,0,69,109.49Zm-4.07.2c-.08,0-.2,0-.2.1S64.9,109.79,64.9,109.69Zm-.81.41c.18-.06.42-.05.51-.2C64.34,109.88,64.1,109.88,64.08,110.1Zm-.2,0s-.15,0-.1.1S63.93,110.15,63.88,110.1Zm-9.57,4.48c-.08,0-.2,0-.2.1S54.3,114.68,54.31,114.58Zm-1.22.71c.19,0,.44,0,.41-.31C53.24,115,53.17,115.15,53.08,115.3Zm-3.16,1.83c-.15.06,0,.12,0,0C50.07,117.07,49.92,117,49.93,117.13Zm-.31.31c-.15.06,0,.12,0,0C49.77,117.37,49.61,117.31,49.62,117.44Zm-1.22,1c0-.21.28-.2.31-.41C48.47,118,48.09,118.3,48.4,118.45Zm-.2.1c0-.11,0-.26-.1-.1C48,118.46,48,118.58,48.2,118.56Zm-1,.61a.51.51,0,0,0-.31.31q.33,0,.31-.31a.28.28,0,0,0,.31-.2A.28.28,0,0,0,47.18,119.17Zm-1.12,1.12c0-.21.28-.2.31-.41C46.14,119.84,45.8,120.19,46.06,120.29Zm-.61.41s-.15,0-.1.1S45.5,120.75,45.45,120.69Zm61.62,2.75s-.15,0-.1.1S107.12,123.5,107.07,123.44Zm-3.87,14.46s-.15,0-.1.1S103.25,138,103.2,137.91Zm-31.78,10s-.15,0-.1.1S71.47,147.94,71.42,147.89ZM79.77,151s-.15,0-.1.1S79.82,151.1,79.77,151Z"/><path class="cls-1" d="M195.88,75.68c-.15.06,0,.12,0,0a17.26,17.26,0,0,0,1-1.53c.2-.65.68-1,.92-1.63.81-.92,1.47-2,2.24-3s1.6-1.79,2.34-2.75c.53-.32.88-.82,1.43-1.12a13.91,13.91,0,0,1,1.53-1.12c0,.45.28.54.41.81a.28.28,0,0,0,.2-.31c.2,0,.13.28.41.2a15.52,15.52,0,0,0,1.73,1.43c-.33.27.39.35.31.71.36,0,.4.41.61.61a.91.91,0,0,0,.2.71,8,8,0,0,1-.1,2c-.08.24.14.47.1.1.33.19,0,.43-.1.61s-.11.57-.2.81a8.08,8.08,0,0,0-.51,1.43,19.05,19.05,0,0,1-1.22,2.75A23.88,23.88,0,0,1,206,79.24a9.35,9.35,0,0,0-.61,1.32,3.8,3.8,0,0,0-.71,1.32c-1,1.63-1.73,3.5-2.65,5.19a26,26,0,0,0-1,3,15.43,15.43,0,0,0-.92,3.06c-.14.5-.51.78-.61,1.32s-.17,1.12-.31,1.63a5.09,5.09,0,0,0,1.12,3.06c1.41-.26,2.17-1.15,3.16-1.83.35-.49.89-.81,1.22-1.32a3.87,3.87,0,0,0,1.12-1.43c1.56-1.8,2.47-4.25,3.56-6.52s1.81-4.91,2.65-7.44c.28-1.42.88-2.52,1.22-3.87a28.65,28.65,0,0,0,1.53-3.57c.76-.87,1.12-2.14,1.83-3.06A26,26,0,0,1,218.39,67a33.4,33.4,0,0,1,1.94-3c.79-.84,1.13-2.13,2.34-2.55a6.26,6.26,0,0,1,1.63.51,3.44,3.44,0,0,1,.81,1c1,.15,1.4.84,2,1.32a9,9,0,0,1,.92,2.24C228,71,226.6,74,225.21,77.1a25.48,25.48,0,0,1-5.4,7.94,3.36,3.36,0,0,0-1.22.81c-.61.1-1,.4-1.63.51,0-.23-.43,0-.61-.1-.48-.24-.92-.5-1-1.12-.43.32-.3,1.2-.61,1.63-.1.71-.28,1.18-.31,1.73a23.19,23.19,0,0,0-.2,4.07,11.78,11.78,0,0,0,.71,3.16,12.47,12.47,0,0,0,1.32,2.65c.41.37.84.73,1.22,1.12a7.94,7.94,0,0,0,3.06.92c4.51-.41,7.12-2.73,9.88-4.89a51,51,0,0,0,3.36-4,12.63,12.63,0,0,1,.71-1.12c.35-.26.39-.84.71-1.12a8.88,8.88,0,0,1,1.63-2.24c-.07.54-.43.8-.61,1.22a5.89,5.89,0,0,1-.71,1.22,18.75,18.75,0,0,1-1.43,2.34A35.72,35.72,0,0,1,230.71,96c-2.72,2.23-5.81,4.54-9.88,5.09H219a16.13,16.13,0,0,1-3.26-1.12c-.48-.47-1-.89-1.53-1.32a11.51,11.51,0,0,1-2.34-4.18,19.4,19.4,0,0,1-1-5.5V86.37a11.47,11.47,0,0,0-.81,2.14,17,17,0,0,0-.92,2A23.56,23.56,0,0,1,207,94.31,10.72,10.72,0,0,1,205.76,96c-.19.28-.42.53-.61.81-.36.15-.42.59-.81.71-.17.31-.31.64-.71.71a1.36,1.36,0,0,1-.81.71c-.08.39-.56.39-.71.71a2.07,2.07,0,0,1-.81.71c-.51.07-.74-.21-1.12,0a7.79,7.79,0,0,0-1.22-.61c-.31-.33-.53-.76-1-.92a6.74,6.74,0,0,0-.81-1.63,13,13,0,0,0-.41-1.83,21.72,21.72,0,0,0-.1-2.24c.11-1.22.13-2.52.31-3.67a26,26,0,0,1,.71-3.06,59.75,59.75,0,0,1,1.94-6.11c.66-2,1.6-3.77,2.34-5.7,1-1.72,1.54-3.83,2.34-5.7-.28-.26-.38.22-.61.31a2.07,2.07,0,0,1-.61.61,15,15,0,0,0-1.12,1.32,33.63,33.63,0,0,0-2.14,2.75c-1.22,2-2.6,3.85-3.77,5.91s-2.08,4.37-3.06,6.62A36.39,36.39,0,0,1,191.71,90c-.14.68-.51,1.12-.61,1.83-.31.1-.22.59-.41.81.35.11-.28,0-.1.31a.51.51,0,0,0-.31.31,2.23,2.23,0,0,1-.81-.31c-.2-.17-.23-.51-.71-.41-.35-.43-1-.61-1.22-1.12s-.28-1.55-.51-2.24c-.3.31-.31.91-.51,1.32A4.79,4.79,0,0,0,186,92c-.35.26-.42.8-.61,1.22s-.37.92-.71,1.22c-.44.82-.92,1.59-1.43,2.34A16.12,16.12,0,0,1,181.62,99a.5.5,0,0,1-.2.51c-.25.43.16,1-.2,1.32-.55.25-1.33-.07-1.94-.1L178,99.61a10.25,10.25,0,0,1-1-2.55c.07-1.34-.06-2.66,0-4.07a26.52,26.52,0,0,1,.51-3.67c.14-1.32.52-2.4.61-3.77a35.49,35.49,0,0,1,.81-3.56A59.59,59.59,0,0,1,181,75.47,27.52,27.52,0,0,0,183.25,69a7.5,7.5,0,0,0-.41-2.14,4.35,4.35,0,0,0-.71-1,1.67,1.67,0,0,0-.81-.92c-.5.14-.18,1.11-.41,1.53A13.43,13.43,0,0,1,180.6,68q-.34,1.65-.71,3.26c-.6,2-1.17,4.12-1.94,6-.25,1-.7,1.88-1,2.85a18.18,18.18,0,0,0-1.32,2.65A5.75,5.75,0,0,0,174.9,84c-.27.41-.53.83-.81,1.22a11.44,11.44,0,0,1-.71,1.22c-.29.39-.41.94-.81,1.22-.18.36-.12,1-.41,1.22-2.2-.11-3.69-.92-3.46-3.46-.09-.28-.25.22-.31.31s-.07.48-.31.51a3.6,3.6,0,0,1-.61,1.12c-.27.85-.9,1.34-1.22,2.14a12.48,12.48,0,0,1-1.43,1.94,3.11,3.11,0,0,1-.71.92,7.24,7.24,0,0,1-.81.92c-.29.29-.16,1-.61,1.12-1.75,0-2.58-.82-3.67-1.43-.07-.37-.39-.5-.51-.81a1.88,1.88,0,0,0-.51-.82c-.12-.63-.28-1.21-.41-1.83,0-1.17,0-1.73,0-2.85a21.71,21.71,0,0,1,.61-3.56,25.27,25.27,0,0,1,.81-3.46,21.26,21.26,0,0,1,1-3.16c.3-1.13.9-2,1.12-3.16-.5-.1-1.24.37-1.73.61-.55,0-.91.24-1.43.31-.29.05-.19.49-.31.71a1.45,1.45,0,0,0-.31.71c-.19.53-.46,1-.61,1.53a28.58,28.58,0,0,0-1.22,3,39.38,39.38,0,0,1-2.65,5.7,23.89,23.89,0,0,0-2.34,3c-.47.38-.83.87-1.32,1.22-.15.29-.45.43-.51.81-.34.1-.35.53-.71.61-.32.26-.43.11-.81,0-.22.22-.64.24-1,.31a10.1,10.1,0,0,0-1.94-.92,2.82,2.82,0,0,0-.71-.71c-.26-.22-.4-.55-.71-.71a20.42,20.42,0,0,1-1.43-3.16c-.28-1.25-.52-2.53-.81-3.77V81.07a21.14,21.14,0,0,1-4.48-.41c-.39.28-.41.95-.51,1.53-.35.36-.21,1.22-.61,1.53a15.21,15.21,0,0,1-1,3.16c0,.65-.38,1-.51,1.53a7.53,7.53,0,0,1-.61,1.53,5.56,5.56,0,0,1-.71,1.43c-.22.49-.32,1.11-.71,1.43A20.81,20.81,0,0,1,128.15,98c-.18.49-.63.73-.92,1.12s-.74.69-1,1.12c-.43.28-.69.74-1.12,1s-.55.87-1,1.12c-.08,0-.2,0-.2.1a11.88,11.88,0,0,1-5.6-1.22,17.09,17.09,0,0,0-1.32-1.12,11.91,11.91,0,0,1-1.22-2.44c-.41-.81-.57-1.87-1-2.65a32.32,32.32,0,0,1-.31-7.44c-.36.32-.46.9-.71,1.32a10.9,10.9,0,0,0-.61,1.53c-.43.28-.49.94-.92,1.22.07.41-.43.25-.41.61-.17.2-.24.51-.51.61a2.72,2.72,0,0,1-.92,1.22c-.13.58-.65.77-.92,1.22A9.45,9.45,0,0,1,107,97.17a19.26,19.26,0,0,1-2.44.31,10.79,10.79,0,0,1-1.43-.41,12.1,12.1,0,0,1-3.36-5.5,32,32,0,0,1,0-8c.3-1.23.49-2.56.81-3.77.11-.26.06-.68.31-.81a.54.54,0,0,1,.2-.71c-.16-.61.2-1.2.31-1.83-.39.09-.34.61-.51.92a4.26,4.26,0,0,0-.41,1.12,6.17,6.17,0,0,0-.81,2.14c-.53.46-.36,1.61-.92,2-.2.82-.8,1.24-.92,2.14-.58.4-.75,1.22-1.12,1.83s-.79,1.18-1.22,1.73-.9,1.07-1.32,1.63c-.2.31-.31.71-.61.92s-.52.5-.71.81a22.4,22.4,0,0,1-2.55,1.63c-.9.22-1.88.36-2.85.51-.45-.27-1-.45-1.43-.71-1.38-1.84-2-4.43-2-7.64-.21-.43-.85-.44-1.12-.81s-.73-.63-1.12-.92a8.85,8.85,0,0,1-2-5.4c.08-1.28.24-2.48.41-3.67.37-1,.84-1.87,1.22-2.85.23-.24.57-.38.71-.71a1.85,1.85,0,0,0,.71-.81c.25.22.6-.07.81-.2s.68.14,1-.1c.1.61-.27.75-.61.92s-.38.64-.61.92a45.5,45.5,0,0,0-1.43,5.7,6.91,6.91,0,0,0,.51,3.16A4.31,4.31,0,0,0,83,81.89a2.55,2.55,0,0,0,.92,1c.32-1.72.58-3.47,1-5.19.1-.41.29-.82.41-1.22.07-.24,0-.47.1-.71s.24-.29.31-.51c.13-.45.1-1,.2-1.43s.27-.83.41-1.22A25.57,25.57,0,0,1,88,67.73a22.33,22.33,0,0,1,2.24-4.28c.07-.33.47-.34.51-.71a2.07,2.07,0,0,0,.61-.61c.72-.47,1.42-1,2.14-1.43a14.24,14.24,0,0,1,1.63-.1c.19,0,.22.11.41.1.45,0,.63.25.92.41s.83.12,1.12.31a14.68,14.68,0,0,1,.81,6A28.31,28.31,0,0,1,95.25,78a25.09,25.09,0,0,1-6,7.84c-.28,0-.26-.56-.61-.2-.39-.05-.5.18-.92.1a16.79,16.79,0,0,0-.1,2.85c.29,1.27.32,2.81,1.32,3.36a5.55,5.55,0,0,0,2.44-1.22,12.17,12.17,0,0,0,2-1.73,28.77,28.77,0,0,0,3.06-4.48,27.17,27.17,0,0,0,2.34-5.19,54,54,0,0,0,2.34-5.19,1.32,1.32,0,0,1,1-.51c.44-2,1.14-3.74,1.63-5.7a21.76,21.76,0,0,0,.92-2.75c.34-.89.63-1.82.92-2.75.73-1.71,1.33-3.56,1.94-5.4s1.22-3.74,2-5.4a55.23,55.23,0,0,1,2-5.3c0-.58.46-.76.51-1.32.32-.29.34-.89.61-1.22a14.63,14.63,0,0,1,1.12-2.55,41.47,41.47,0,0,1,2.44-4.89c1.18-1.3,1.55-3.4,3.57-3.87.39,0,.46.29.61.51.31-.14.36,0,.81,0,.23.14.33.41.61.51-.19,2.16-.16,3.38-.31,5.91-.27,2-.66,4-.92,6-.33.83-.43,1.88-.71,2.75s-.45,1.86-.71,2.75a44.23,44.23,0,0,1-1.63,5.3,35.18,35.18,0,0,1-2,4.89,11.36,11.36,0,0,1-1.12,2.34,8.54,8.54,0,0,1-1.22,2.24,12,12,0,0,1-1.22,2.24c0,.26-.44.11-.31.51,0,.26-.3.31-.31.61-.29.29-.43.73-.71,1-.88,1.43-1.76,2.86-2.55,4.38.09.33-.34.14-.31.41s-.1.38-.31.41c-.14.34-.47.48-.71.71-.32,1.24-.65,2.48-.92,3.77s-.78,2.41-1.12,3.67-.6,2.59-.92,3.87a24,24,0,0,0-.61,4.18,6.52,6.52,0,0,0,1.22,4.07.5.5,0,0,1,.51.2,3,3,0,0,0,1.73-.31c.45-.23.72-.64,1.22-.81.62-.7,1.25-1.39,1.83-2.14a13,13,0,0,0,1.73-2.34,38.18,38.18,0,0,0,3.16-5c.32-3,1.47-5.25,2-8,.93-2.46,1.28-5.51,2-8.15.55-2.84,1.42-5.37,2.14-8,.43-1.26.8-2.59,1.32-3.77.34-1.36.81-2.58,1.22-3.87.7-2.7,1.86-4.93,2.65-7.54,1-2.4,1.86-4.93,2.85-7.33a5,5,0,0,1,.92-1.63A18,18,0,0,0,130.7,35a14.06,14.06,0,0,0,1.63-3.46c.77-.93,1.08-2.31,1.83-3.26a14.06,14.06,0,0,1,.92-1.63l.41-.81c.12-.32.57-.32.71-.61.38,0,.27.41.71.31.2.17.31.44.61.51a8.94,8.94,0,0,1,1.12,1.12,4.68,4.68,0,0,1,.41,2.55c0,.64.33-.16.31.31.32,4.91-1.56,8.48-2.65,12.32s-2.58,7.6-4.07,11.2c-1.25,3.81-3,7.09-4.48,10.69-.93,1.61-1.66,3.43-2.55,5.09a27.66,27.66,0,0,1-1.22,2.55c-.29,1-.94,1.64-1.22,2.65-.39.15,0-.46-.41-.31-.46.67-.84,1.4-1.32,2,0,.12,0,.29-.1.31-.7,3-1.71,5.64-2.14,8.66a39.64,39.64,0,0,0-.41,10.29c.32,1,.58,2,.92,3a4,4,0,0,0,1.83,1.83,3.16,3.16,0,0,0,1.93-.71,10,10,0,0,0,1.63-1.12,24.4,24.4,0,0,0,5.5-8.25,73.22,73.22,0,0,0,3.06-10.69c.1-.51-.41-.4-.51-.71-.3-.14-.41-.47-.71-.61a6.38,6.38,0,0,0-1.12-1.43,9.37,9.37,0,0,0-.81-1.53,13.86,13.86,0,0,1-.81-4.89c0-2,.22-3.58.31-5.4a1.9,1.9,0,0,0,.31-.92c.54-.65.82-1.56,1.53-2,.41,0,.83.45,1.12.2.17,0,.06.28.2.31.33-.13.08.33.41.2a8.57,8.57,0,0,1,.51.71A7.6,7.6,0,0,1,135,65a25.26,25.26,0,0,1,1.43,3.36A23.58,23.58,0,0,1,136.7,77a11.91,11.91,0,0,0-.31,1.94,5.73,5.73,0,0,0,4.18.81,34.25,34.25,0,0,1,1.83-7.54c.34-1.22.95-2.18,1.22-3.46.45-1.11.81-2.32,1.32-3.36a22.45,22.45,0,0,1,.41-8.45,25.82,25.82,0,0,0,1.94-2.55,10.45,10.45,0,0,0,1.32-1,8.16,8.16,0,0,1,2.14-.51c1.31.06,1.89.33,3.16.31.09.22.45.16.61.31a4,4,0,0,1,1.32.81c.61.1.78.65,1.32.81a14.29,14.29,0,0,1,2.14,4.07c.06,1.1.29,2,.41,3.06.11,4.08-.82,7-1.53,10.49A12.4,12.4,0,0,0,162,71.6a42.43,42.43,0,0,1,2.24-4.79c.55-.1.52-.77,1.12-.81,0,.26.34.2.61.2.06.25.09.52.41.51.28.29.53.62.81.92.08.75.08,1.36.1,2.34-.46,1.75-.85,3.56-1.43,5.19-.2.92-.52,1.72-.71,2.65a3.67,3.67,0,0,1-.51,1.12,2.32,2.32,0,0,1-.41,1.32,52.07,52.07,0,0,1-1.53,5.09,27.8,27.8,0,0,0-1.22,5.5c.22.17.57-.19.71-.41a1.57,1.57,0,0,0,.71-.61c.43-.46.79-1,1.22-1.43,1.19-2.82,2.33-5.68,3.57-8.45s2.25-5.83,4.07-8a4.13,4.13,0,0,1,.82-1.73c.68.14,1.48.15,1.83.61a10.66,10.66,0,0,1-.51,4,23.66,23.66,0,0,1-.92,3.87c-.7,2.49-1.42,5-1.94,7.64,1.06-.26,1.45-1.19,2.14-1.83A21.42,21.42,0,0,0,174.7,82,20.79,20.79,0,0,0,176,79.34a18.46,18.46,0,0,0,1.22-2.85,45.1,45.1,0,0,0,2.14-5.81c.52-2.16,1-4.39,1.43-6.62,0-.43-.3-.52-.41-.81a2.51,2.51,0,0,0-.41-.92c.06-.67-.18-1-.1-1.73.58-3.06,1.12-6.15,2.55-8.35.22.39.71.52,1,.81a4.31,4.31,0,0,0,.61,1.22c.65,3.33-.7,6.16-1.53,8.66.26,1,1.11,1.4,1.53,2.24a9.09,9.09,0,0,1,1.32,2.44,40.21,40.21,0,0,1,.2,5.4,43.83,43.83,0,0,1-.81,6.11,15.2,15.2,0,0,1-.51,3,8,8,0,0,1-.81,2.65c-.24,2.37-1.12,4.11-1.63,6.21-.55.78-.64,2-1.12,2.85a4.17,4.17,0,0,1-.51,1.43,4.65,4.65,0,0,1-.51,1.53c0,.59-.25,1.12,0,1.63.37.27.5-.4.92-.41.18-.33.54-.48.71-.81a10.63,10.63,0,0,0,1.32-1.73,25.21,25.21,0,0,0,2.24-4,21.64,21.64,0,0,0,1.83-4.38,34.71,34.71,0,0,0,1.53-4.69A80.2,80.2,0,0,1,191,72.82c.61-1.46,1.23-2.92,1.83-4.38-.07-.58.48-.54.41-1.12.26-.25.29-.73.51-1a8.3,8.3,0,0,1,1.32-1.83,3.35,3.35,0,0,0,1.12.41c.27-.23.67.28.92.41A36.17,36.17,0,0,1,195.88,75.68ZM137.32,27.6a6.18,6.18,0,0,0-.2,1.22c-.72,1.52-1.17,3.31-1.83,4.89a46.7,46.7,0,0,0-1.73,5.09c-1,3.52-2,7.09-3.26,10.39-1.1,3.42-2.47,6.56-3.67,9.88-.48,1.79-.95,3.6-1.53,5.3a14,14,0,0,1-.81,2.55c0,1-.81,1.77-.61,2.65.56-1.61,1.35-3,1.94-4.58s1.53-2.88,2.24-4.38c.55-1.62,1.43-2.92,1.94-4.58.32-.23.29-.8.51-1.12s.3-.78.51-1.12a16.78,16.78,0,0,1,1-2.34c1-3.33,2.63-6.13,3.56-9.57a54.76,54.76,0,0,0,2.85-10.29c0-1.53.08-3.14-.51-4.07-.15,0-.17-.17-.31-.2C137.41,27.43,137.29,27.44,137.32,27.6ZM119.7,37.28c-1.09,2.61-1.78,5.62-2.65,8.45s-2.11,5.36-3.06,8.15c-.46,1.37-1,2.66-1.43,4.07a8.08,8.08,0,0,1-.41.92c.07.54-.4.55-.41,1A20.86,20.86,0,0,1,111,62a7.58,7.58,0,0,0-.81,1.94,14.51,14.51,0,0,0-.61,2.24,12.47,12.47,0,0,0-.51,2.24c-.15.67-.68,1.49-.51,2.14.59-1.21,1.35-2.25,1.94-3.46.4-.48.62-1.15,1-1.63.13-.31.16-.72.41-.92s.26-.69.51-.92c1.08-2.56,2.19-5.08,3.16-7.74A58.62,58.62,0,0,0,120,38.5a6.71,6.71,0,0,0-.1-1.43c0-.06,0-.12-.1-.1A.48.48,0,0,1,119.7,37.28ZM157.28,60.6c-.45-1.08-.83-2.22-1.32-3.26a5.8,5.8,0,0,0-4.48-1.83c-3,.46-4,3-4.28,6.21.57-.14.61-.81,1.12-1,.23-.52.83-.66,1.32-.92a4,4,0,0,0,1.22.41,3.4,3.4,0,0,1,.92,1.53c0,.24-.16.38-.1.71-.92,2.17-2.28,3.9-3,6.31a7.82,7.82,0,0,0,2.55,3.77,11.71,11.71,0,0,0,4.79.61A32.48,32.48,0,0,0,157.28,60.6Zm24.85.31a23.34,23.34,0,0,0,1-4.48c-.17,0,.09-.32-.2-.41C182.64,57.55,182,59.25,182.13,60.91Zm37,22.2a28.47,28.47,0,0,0,4-6.42,27.14,27.14,0,0,0,2.55-7.94V66.61c-.22,0,0-.36-.1-.51-.36-.28-.28-1-.81-1.12,0-.08-.09-.12-.2-.1s-.13.14-.1.31c-1.55,2.08-2.54,4.72-3.87,7a15.58,15.58,0,0,0-.81,1.94A18.85,18.85,0,0,0,218.8,76a6.44,6.44,0,0,1-.81,1.93c0,.44-.32.56-.41.92,0,.19-.22.26-.2.51s-.39.08-.31.41a9.26,9.26,0,0,1-.71,1.73c-.17.65-.48,1.15-.61,1.83.18.19.16.59.51.61.11.3.13.69.51.71A8,8,0,0,0,219.1,83.11ZM94.84,65.29C93.71,68.23,92,70.6,91.38,74a81.3,81.3,0,0,0-3.06,9.27c.37.18.55-.14.71,0-.08.35-1,.65-.51.92A27.54,27.54,0,0,0,92.6,78a36.77,36.77,0,0,0,2.55-7.84c.09-.72.07-1.56.2-2.24,0-1-.12-1.43-.1-2.55-.21,0,0-.45-.31-.41A.48.48,0,0,1,94.84,65.29Zm39.21,1.22c-1.39,1.52-1.47,4.7-1.22,7.54.26.42.33,1,.61,1.43s.32,1,.81,1.22c.39-3.07,1-7.07.31-10.29-.1,0-.12-.08-.2-.1s0-.12-.1-.1S134.09,66.38,134.06,66.51Zm13.44,6.31a22.17,22.17,0,0,0-1.43,5.6,40,40,0,0,0-.81,6.21,14.32,14.32,0,0,0,.61,3.67,2.73,2.73,0,0,0,1.73-.71,11.55,11.55,0,0,1,1.53-1c.19-.55.84-.66,1-1.22.5-.28.7-.87,1.12-1.22A19.46,19.46,0,0,0,153,81.28,17.72,17.72,0,0,0,154.33,78a12.44,12.44,0,0,0,1.22-3.46c-.6-.09-.84.17-1.32.2-.92-.17-2.05-.12-3.06-.2a10,10,0,0,1-1.83-.81c-.62-.29-1-.81-1.63-1.12,0-.08-.09-.12-.2-.1Z"/><path class="cls-1" d="M31.69,45.63c0-.12.1-.06.1,0S31.69,45.69,31.69,45.63Z"/><path class="cls-1" d="M82.11,51v-.1C82.17,50.93,82.23,51,82.11,51Z"/><path class="cls-1" d="M82.11,51c0,.12,0,.29-.1.31a.48.48,0,0,0-.1-.31Z"/><path class="cls-1" d="M208.1,66.71c.06,0,.12,0,.1.1S208.08,66.8,208.1,66.71Z"/><path class="cls-1" d="M208.21,66.81c.06,0,.12,0,.1.1S208.19,66.9,208.21,66.81Z"/><path class="cls-1" d="M208.31,66.92c.12,0,.06.15,0,0Z"/><path class="cls-1" d="M236.93,86.88c-.1-.42.31,0,0,0Z"/><path class="cls-1" d="M236.93,86.88c0,.08,0,.2-.1.2S236.83,86.88,236.93,86.88Z"/><path class="cls-1" d="M56.75,89c-.05-.05.07-.13.1-.1S56.78,89,56.75,89Z"/><path class="cls-1" d="M56.65,89.32c-.1-.42.31,0,0,0Z"/><path class="cls-1" d="M56.55,89.32h.1C56.65,89.38,56.57,89.44,56.55,89.32Z"/><path class="cls-1" d="M79.67,107.25c-.25.13-.49-.23-.51,0C78.82,107,79.7,106.82,79.67,107.25Z"/><path class="cls-1" d="M81.7,107c-.05-.05.07-.13.1-.1S81.73,107.07,81.7,107Z"/><path class="cls-1" d="M75.59,107.15c0-.1.12-.08.2-.1S75.67,107.13,75.59,107.15Z"/><path class="cls-1" d="M77.53,107.15c.26-.35.25.52,0,0Z"/><path class="cls-1" d="M80.79,107.15c0-.1.12-.08.2-.1S80.87,107.13,80.79,107.15Z"/><path class="cls-1" d="M76.31,107.25c0,.11-.2.07-.2.2s-.08-.12-.1-.2C76.13,107.13,76.16,107.21,76.31,107.25Z"/><path class="cls-1" d="M76.82,107.45c0-.32.31-.3.61-.31C77.23,107.27,77.12,107.74,76.82,107.45Z"/><path class="cls-1" d="M76.82,107.45c0,.31-.42-.1,0,0Z"/><path class="cls-1" d="M90.16,107.76c-.05-.05.07-.13.1-.1S90.19,107.79,90.16,107.76Z"/><path class="cls-1" d="M95.15,109c-.05-.05.07-.13.1-.1S95.18,109,95.15,109Z"/><path class="cls-1" d="M99.73,111.43c0-.12.15-.06,0,0Z"/><path class="cls-1" d="M40.76,126.3c0-.12.1-.06.1,0S40.76,126.35,40.76,126.3Z"/><path class="cls-1" d="M3.48,126.6c0-.1.12-.08.2-.1S3.56,126.58,3.48,126.6Z"/><path class="cls-1" d="M7.56,127.11c0,.12-.15.06,0,0Z"/><path class="cls-1" d="M4.3,127.32c0-.12.19-.09.31-.1S4.42,127.3,4.3,127.32Z"/><path class="cls-1" d="M5.11,127.21a10.7,10.7,0,0,0,1.43.2c0,.23-.54.08-.61,0C5.67,127.33,5,127.62,5.11,127.21Z"/><path class="cls-1" d="M38.72,136.07c.18,0,.21.12.41.1C39.16,136.36,38.56,136.36,38.72,136.07Z"/><path class="cls-1" d="M62.66,139.54v.2A.1.1,0,0,1,62.66,139.54Z"/><path class="cls-1" d="M93.42,147.79c-.05-.05.07-.13.1-.1S93.45,147.82,93.42,147.79Z"/><path class="cls-1" d="M73.86,149.42c0-.12.19-.09.31-.1S74,149.4,73.86,149.42Z"/><path class="cls-1" d="M80.18,151.56c-.22.31-.65-.12,0,0Z"/></g></g></svg>